<svg width="18" height="47" viewBox="0 0 18 47" fill="none" xmlns="http://www.w3.org/2000/svg">
<path fill-rule="evenodd" clip-rule="evenodd" d="M0 23.5C0 46.208 0.0660018 47 1.969 47C3.171 47 3.743 46.495 3.439 45.702C3.165 44.988 4.079 43.335 5.471 42.028C6.862 40.721 8 39.055 8 38.326C8 36.729 7.469 36.679 4.934 38.035C1.133 40.069 2.879 36.34 7.5 32.554C9.975 30.525 12 28.221 12 27.433C12 25.396 10.874 25.642 6.955 28.533C1.593 32.489 1.927 29.294 7.355 24.712C9.91 22.556 12 20.164 12 19.396C12 17.397 10.856 17.655 6.955 20.533C1.593 24.489 1.927 21.294 7.355 16.712C9.91 14.556 12 12.164 12 11.396C12 9.404 10.857 9.654 7.016 12.488C5.161 13.857 3.488 14.821 3.298 14.631C2.205 13.539 5.035 10.408 11.106 5.992C14.898 3.234 18 0.758 18 0.489C18 0.22 13.95 0 9 0H0V23.5Z" fill="black"/>
<path fill-rule="evenodd" clip-rule="evenodd" d="M0 23.5C0 46.208 0.0660018 47 1.969 47C3.171 47 3.743 46.495 3.439 45.702C3.165 44.988 4.079 43.335 5.471 42.028C6.862 40.721 8 39.055 8 38.326C8 36.729 7.469 36.679 4.934 38.035C1.133 40.069 2.879 36.34 7.5 32.554C9.975 30.525 12 28.221 12 27.433C12 25.396 10.874 25.642 6.955 28.533C1.593 32.489 1.927 29.294 7.355 24.712C9.91 22.556 12 20.164 12 19.396C12 17.397 10.856 17.655 6.955 20.533C1.593 24.489 1.927 21.294 7.355 16.712C9.91 14.556 12 12.164 12 11.396C12 9.404 10.857 9.654 7.016 12.488C5.161 13.857 3.488 14.821 3.298 14.631C2.205 13.539 5.035 10.408 11.106 5.992C14.898 3.234 18 0.758 18 0.489C18 0.22 13.95 0 9 0H0V23.5Z" fill="black"/>
<path fill-rule="evenodd" clip-rule="evenodd" d="M0 23.5C0 46.208 0.0660018 47 1.969 47C3.171 47 3.743 46.495 3.439 45.702C3.165 44.988 4.079 43.335 5.471 42.028C6.862 40.721 8 39.055 8 38.326C8 36.729 7.469 36.679 4.934 38.035C1.133 40.069 2.879 36.34 7.5 32.554C9.975 30.525 12 28.221 12 27.433C12 25.396 10.874 25.642 6.955 28.533C1.593 32.489 1.927 29.294 7.355 24.712C9.91 22.556 12 20.164 12 19.396C12 17.397 10.856 17.655 6.955 20.533C1.593 24.489 1.927 21.294 7.355 16.712C9.91 14.556 12 12.164 12 11.396C12 9.404 10.857 9.654 7.016 12.488C5.161 13.857 3.488 14.821 3.298 14.631C2.205 13.539 5.035 10.408 11.106 5.992C14.898 3.234 18 0.758 18 0.489C18 0.22 13.95 0 9 0H0V23.5Z" fill="black"/>
<path fill-rule="evenodd" clip-rule="evenodd" d="M0 23.5C0 46.208 0.0660018 47 1.969 47C3.171 47 3.743 46.495 3.439 45.702C3.165 44.988 4.079 43.335 5.471 42.028C6.862 40.721 8 39.055 8 38.326C8 36.729 7.469 36.679 4.934 38.035C1.133 40.069 2.879 36.34 7.5 32.554C9.975 30.525 12 28.221 12 27.433C12 25.396 10.874 25.642 6.955 28.533C1.593 32.489 1.927 29.294 7.355 24.712C9.91 22.556 12 20.164 12 19.396C12 17.397 10.856 17.655 6.955 20.533C1.593 24.489 1.927 21.294 7.355 16.712C9.91 14.556 12 12.164 12 11.396C12 9.404 10.857 9.654 7.016 12.488C5.161 13.857 3.488 14.821 3.298 14.631C2.205 13.539 5.035 10.408 11.106 5.992C14.898 3.234 18 0.758 18 0.489C18 0.22 13.95 0 9 0H0V23.5Z" fill="black"/>
<path fill-rule="evenodd" clip-rule="evenodd" d="M0 23.5C0 46.208 0.0660018 47 1.969 47C3.171 47 3.743 46.495 3.439 45.702C3.165 44.988 4.079 43.335 5.471 42.028C6.862 40.721 8 39.055 8 38.326C8 36.729 7.469 36.679 4.934 38.035C1.133 40.069 2.879 36.34 7.5 32.554C9.975 30.525 12 28.221 12 27.433C12 25.396 10.874 25.642 6.955 28.533C1.593 32.489 1.927 29.294 7.355 24.712C9.91 22.556 12 20.164 12 19.396C12 17.397 10.856 17.655 6.955 20.533C1.593 24.489 1.927 21.294 7.355 16.712C9.91 14.556 12 12.164 12 11.396C12 9.404 10.857 9.654 7.016 12.488C5.161 13.857 3.488 14.821 3.298 14.631C2.205 13.539 5.035 10.408 11.106 5.992C14.898 3.234 18 0.758 18 0.489C18 0.22 13.95 0 9 0H0V23.5Z" fill="black"/>
<path fill-rule="evenodd" clip-rule="evenodd" d="M0 23.5C0 46.208 0.0660018 47 1.969 47C3.171 47 3.743 46.495 3.439 45.702C3.165 44.988 4.079 43.335 5.471 42.028C6.862 40.721 8 39.055 8 38.326C8 36.729 7.469 36.679 4.934 38.035C1.133 40.069 2.879 36.34 7.5 32.554C9.975 30.525 12 28.221 12 27.433C12 25.396 10.874 25.642 6.955 28.533C1.593 32.489 1.927 29.294 7.355 24.712C9.91 22.556 12 20.164 12 19.396C12 17.397 10.856 17.655 6.955 20.533C1.593 24.489 1.927 21.294 7.355 16.712C9.91 14.556 12 12.164 12 11.396C12 9.404 10.857 9.654 7.016 12.488C5.161 13.857 3.488 14.821 3.298 14.631C2.205 13.539 5.035 10.408 11.106 5.992C14.898 3.234 18 0.758 18 0.489C18 0.22 13.95 0 9 0H0V23.5Z" fill="black"/>
<path fill-rule="evenodd" clip-rule="evenodd" d="M0 23.5C0 46.208 0.0660018 47 1.969 47C3.171 47 3.743 46.495 3.439 45.702C3.165 44.988 4.079 43.335 5.471 42.028C6.862 40.721 8 39.055 8 38.326C8 36.729 7.469 36.679 4.934 38.035C1.133 40.069 2.879 36.34 7.5 32.554C9.975 30.525 12 28.221 12 27.433C12 25.396 10.874 25.642 6.955 28.533C1.593 32.489 1.927 29.294 7.355 24.712C9.91 22.556 12 20.164 12 19.396C12 17.397 10.856 17.655 6.955 20.533C1.593 24.489 1.927 21.294 7.355 16.712C9.91 14.556 12 12.164 12 11.396C12 9.404 10.857 9.654 7.016 12.488C5.161 13.857 3.488 14.821 3.298 14.631C2.205 13.539 5.035 10.408 11.106 5.992C14.898 3.234 18 0.758 18 0.489C18 0.22 13.95 0 9 0H0V23.5Z" fill="black"/>
<path fill-rule="evenodd" clip-rule="evenodd" d="M0 23.5C0 46.208 0.0660018 47 1.969 47C3.171 47 3.743 46.495 3.439 45.702C3.165 44.988 4.079 43.335 5.471 42.028C6.862 40.721 8 39.055 8 38.326C8 36.729 7.469 36.679 4.934 38.035C1.133 40.069 2.879 36.34 7.5 32.554C9.975 30.525 12 28.221 12 27.433C12 25.396 10.874 25.642 6.955 28.533C1.593 32.489 1.927 29.294 7.355 24.712C9.91 22.556 12 20.164 12 19.396C12 17.397 10.856 17.655 6.955 20.533C1.593 24.489 1.927 21.294 7.355 16.712C9.91 14.556 12 12.164 12 11.396C12 9.404 10.857 9.654 7.016 12.488C5.161 13.857 3.488 14.821 3.298 14.631C2.205 13.539 5.035 10.408 11.106 5.992C14.898 3.234 18 0.758 18 0.489C18 0.22 13.95 0 9 0H0V23.5Z" fill="black"/>
</svg>
