<svg width="67" height="67" viewBox="0 0 67 67" fill="none" xmlns="http://www.w3.org/2000/svg">
<g clip-path="url(#clip0_9_43)">
<path d="M40.6666 0L32 0L32 23.4667L32 46.8L28 50.2667C23.0666 54.4 22.6666 59.6 27.0666 63.7333C31.0666 67.4667 36.1333 67.4667 39.7333 63.6C43.8666 59.2 43.4666 54.2667 38.6666 50.2667C33.8666 46.1333 33.7333 44.9333 37.7333 42.2667C39.3333 41.2 40.2666 39.8667 39.7333 39.3333C39.2 38.8 37.8666 39.0667 36.6666 40C35.0666 41.3333 34.6666 41.3333 34.6666 39.6C34.6666 38.5333 36.8 36.2667 39.3333 34.6667C41.8666 33.0667 44 31.2 44 30.5333C44 28.6667 42.8 29.0667 38.5333 32.1333C35.4666 34.2667 34.6666 34.4 34.6666 32.8C34.6666 31.7333 36.8 29.6 39.3333 28C41.8666 26.4 44 24.5333 44 23.8667C44 22 42.8 22.4 38.5333 25.4667C35.4666 27.6 34.6666 27.7333 34.6666 26.1333C34.6666 25.0667 36.8 22.9333 39.3333 21.3333C41.8666 19.7333 44 17.8667 44 17.2C44 15.3333 42.8 15.7333 38.5333 18.8C35.4666 20.9333 34.6666 21.0667 34.6666 19.4667C34.6666 18.4 36.8 16.2667 39.3333 14.6667C41.8666 13.0667 44 11.2 44 10.5333C44 8.66667 42.8 9.06667 38.5333 12.1333C35.6 14.1333 34.6666 14.4 34.6666 12.9333C34.6666 11.8667 38 8.8 42 6.13333C46 3.46667 49.3333 1.06667 49.3333 0.666667C49.3333 0.266667 45.4666 0 40.6666 0Z" fill="black"/>
</g>
<defs>
<clipPath id="clip0_9_43">
<rect width="66.6667" height="66.6667" fill="white" transform="translate(66.6666) rotate(90)"/>
</clipPath>
</defs>
</svg>
