<svg width="18" height="46" viewBox="0 0 18 46" fill="none" xmlns="http://www.w3.org/2000/svg">
<path fill-rule="evenodd" clip-rule="evenodd" d="M0 23C0 42.778 0.21 46 1.5 46C2.776 46 3 43.402 3 28.617V11.235L9.446 7.035C19.751 0.321 19.736 0 9.122 0H0V23Z" fill="black"/>
<path fill-rule="evenodd" clip-rule="evenodd" d="M0 23C0 42.778 0.21 46 1.5 46C2.776 46 3 43.402 3 28.617V11.235L9.446 7.035C19.751 0.321 19.736 0 9.122 0H0V23Z" fill="black"/>
<path fill-rule="evenodd" clip-rule="evenodd" d="M0 23C0 42.778 0.21 46 1.5 46C2.776 46 3 43.402 3 28.617V11.235L9.446 7.035C19.751 0.321 19.736 0 9.122 0H0V23Z" fill="black"/>
<path fill-rule="evenodd" clip-rule="evenodd" d="M0 23C0 42.778 0.21 46 1.5 46C2.776 46 3 43.402 3 28.617V11.235L9.446 7.035C19.751 0.321 19.736 0 9.122 0H0V23Z" fill="black"/>
<path fill-rule="evenodd" clip-rule="evenodd" d="M0 23C0 42.778 0.21 46 1.5 46C2.776 46 3 43.402 3 28.617V11.235L9.446 7.035C19.751 0.321 19.736 0 9.122 0H0V23Z" fill="black"/>
<path fill-rule="evenodd" clip-rule="evenodd" d="M0 23C0 42.778 0.21 46 1.5 46C2.776 46 3 43.402 3 28.617V11.235L9.446 7.035C19.751 0.321 19.736 0 9.122 0H0V23Z" fill="black"/>
<path fill-rule="evenodd" clip-rule="evenodd" d="M0 23C0 42.778 0.21 46 1.5 46C2.776 46 3 43.402 3 28.617V11.235L9.446 7.035C19.751 0.321 19.736 0 9.122 0H0V23Z" fill="black"/>
<path fill-rule="evenodd" clip-rule="evenodd" d="M0 23C0 42.778 0.21 46 1.5 46C2.776 46 3 43.402 3 28.617V11.235L9.446 7.035C19.751 0.321 19.736 0 9.122 0H0V23Z" fill="black"/>
</svg>
