<svg width="16" height="48" viewBox="0 0 16 48" fill="none" xmlns="http://www.w3.org/2000/svg">
<path fill-rule="evenodd" clip-rule="evenodd" d="M6.155 4.978L0 8.956V27.978C0 45.427 0.145 47 1.75 47.002C3.32 47.004 3.468 45.987 3.186 37.123L2.872 27.242L6.686 24.959C11.174 22.273 15 18.99 15 17.826C15 16.242 12.359 17.021 7.696 19.978C0.873999 24.304 1.601 21.207 8.672 15.821C17.535 9.069 16.806 6.2 7.696 11.978C0.873999 16.304 1.601 13.207 8.672 7.821C18.408 0.404 16.524 -1.723 6.155 4.978Z" fill="black"/>
<path fill-rule="evenodd" clip-rule="evenodd" d="M6.155 4.978L0 8.956V27.978C0 45.427 0.145 47 1.75 47.002C3.32 47.004 3.468 45.987 3.186 37.123L2.872 27.242L6.686 24.959C11.174 22.273 15 18.99 15 17.826C15 16.242 12.359 17.021 7.696 19.978C0.873999 24.304 1.601 21.207 8.672 15.821C17.535 9.069 16.806 6.2 7.696 11.978C0.873999 16.304 1.601 13.207 8.672 7.821C18.408 0.404 16.524 -1.723 6.155 4.978Z" fill="black"/>
<path fill-rule="evenodd" clip-rule="evenodd" d="M6.155 4.978L0 8.956V27.978C0 45.427 0.145 47 1.75 47.002C3.32 47.004 3.468 45.987 3.186 37.123L2.872 27.242L6.686 24.959C11.174 22.273 15 18.99 15 17.826C15 16.242 12.359 17.021 7.696 19.978C0.873999 24.304 1.601 21.207 8.672 15.821C17.535 9.069 16.806 6.2 7.696 11.978C0.873999 16.304 1.601 13.207 8.672 7.821C18.408 0.404 16.524 -1.723 6.155 4.978Z" fill="black"/>
<path fill-rule="evenodd" clip-rule="evenodd" d="M6.155 4.978L0 8.956V27.978C0 45.427 0.145 47 1.75 47.002C3.32 47.004 3.468 45.987 3.186 37.123L2.872 27.242L6.686 24.959C11.174 22.273 15 18.99 15 17.826C15 16.242 12.359 17.021 7.696 19.978C0.873999 24.304 1.601 21.207 8.672 15.821C17.535 9.069 16.806 6.2 7.696 11.978C0.873999 16.304 1.601 13.207 8.672 7.821C18.408 0.404 16.524 -1.723 6.155 4.978Z" fill="black"/>
<path fill-rule="evenodd" clip-rule="evenodd" d="M6.155 4.978L0 8.956V27.978C0 45.427 0.145 47 1.75 47.002C3.32 47.004 3.468 45.987 3.186 37.123L2.872 27.242L6.686 24.959C11.174 22.273 15 18.99 15 17.826C15 16.242 12.359 17.021 7.696 19.978C0.873999 24.304 1.601 21.207 8.672 15.821C17.535 9.069 16.806 6.2 7.696 11.978C0.873999 16.304 1.601 13.207 8.672 7.821C18.408 0.404 16.524 -1.723 6.155 4.978Z" fill="black"/>
<path fill-rule="evenodd" clip-rule="evenodd" d="M6.155 4.978L0 8.956V27.978C0 45.427 0.145 47 1.75 47.002C3.32 47.004 3.468 45.987 3.186 37.123L2.872 27.242L6.686 24.959C11.174 22.273 15 18.99 15 17.826C15 16.242 12.359 17.021 7.696 19.978C0.873999 24.304 1.601 21.207 8.672 15.821C17.535 9.069 16.806 6.2 7.696 11.978C0.873999 16.304 1.601 13.207 8.672 7.821C18.408 0.404 16.524 -1.723 6.155 4.978Z" fill="black"/>
<path fill-rule="evenodd" clip-rule="evenodd" d="M6.155 4.978L0 8.956V27.978C0 45.427 0.145 47 1.75 47.002C3.32 47.004 3.468 45.987 3.186 37.123L2.872 27.242L6.686 24.959C11.174 22.273 15 18.99 15 17.826C15 16.242 12.359 17.021 7.696 19.978C0.873999 24.304 1.601 21.207 8.672 15.821C17.535 9.069 16.806 6.2 7.696 11.978C0.873999 16.304 1.601 13.207 8.672 7.821C18.408 0.404 16.524 -1.723 6.155 4.978Z" fill="black"/>
<path fill-rule="evenodd" clip-rule="evenodd" d="M6.155 4.978L0 8.956V27.978C0 45.427 0.145 47 1.75 47.002C3.32 47.004 3.468 45.987 3.186 37.123L2.872 27.242L6.686 24.959C11.174 22.273 15 18.99 15 17.826C15 16.242 12.359 17.021 7.696 19.978C0.873999 24.304 1.601 21.207 8.672 15.821C17.535 9.069 16.806 6.2 7.696 11.978C0.873999 16.304 1.601 13.207 8.672 7.821C18.408 0.404 16.524 -1.723 6.155 4.978Z" fill="black"/>
</svg>
