<svg width="18" height="47" viewBox="0 0 18 47" fill="none" xmlns="http://www.w3.org/2000/svg">
<path fill-rule="evenodd" clip-rule="evenodd" d="M0 23.5C0 46.558 0.0389981 47 2.059 47C3.191 47 3.88 46.615 3.59 46.145C3.299 45.675 4.173 44.247 5.531 42.971C8.758 39.939 8.659 38.642 5.25 39.287C2.739 39.762 2.914 39.446 7.258 35.654C13.902 29.854 13.826 26.979 7.137 31.058C2.144 34.102 2.321 32.797 7.475 28.574C9.964 26.535 12 24.221 12 23.433C12 21.401 10.875 21.641 7 24.5C3.196 27.306 3 27.382 3 26.048C3 25.524 5.025 23.703 7.5 22C14.497 17.186 13.344 13.921 6.118 18.085C2.713 20.048 2.78 19.916 7.258 15.835C13.883 9.799 13.812 6.988 7.137 11.058C0.814001 14.913 2.807 12.157 10.408 6.536C14.584 3.448 18 0.714 18 0.461C18 0.207 13.95 0 9 0H0V23.5Z" fill="black"/>
<path fill-rule="evenodd" clip-rule="evenodd" d="M0 23.5C0 46.558 0.0389981 47 2.059 47C3.191 47 3.88 46.615 3.59 46.145C3.299 45.675 4.173 44.247 5.531 42.971C8.758 39.939 8.659 38.642 5.25 39.287C2.739 39.762 2.914 39.446 7.258 35.654C13.902 29.854 13.826 26.979 7.137 31.058C2.144 34.102 2.321 32.797 7.475 28.574C9.964 26.535 12 24.221 12 23.433C12 21.401 10.875 21.641 7 24.5C3.196 27.306 3 27.382 3 26.048C3 25.524 5.025 23.703 7.5 22C14.497 17.186 13.344 13.921 6.118 18.085C2.713 20.048 2.78 19.916 7.258 15.835C13.883 9.799 13.812 6.988 7.137 11.058C0.814001 14.913 2.807 12.157 10.408 6.536C14.584 3.448 18 0.714 18 0.461C18 0.207 13.95 0 9 0H0V23.5Z" fill="black"/>
<path fill-rule="evenodd" clip-rule="evenodd" d="M0 23.5C0 46.558 0.0389981 47 2.059 47C3.191 47 3.88 46.615 3.59 46.145C3.299 45.675 4.173 44.247 5.531 42.971C8.758 39.939 8.659 38.642 5.25 39.287C2.739 39.762 2.914 39.446 7.258 35.654C13.902 29.854 13.826 26.979 7.137 31.058C2.144 34.102 2.321 32.797 7.475 28.574C9.964 26.535 12 24.221 12 23.433C12 21.401 10.875 21.641 7 24.5C3.196 27.306 3 27.382 3 26.048C3 25.524 5.025 23.703 7.5 22C14.497 17.186 13.344 13.921 6.118 18.085C2.713 20.048 2.78 19.916 7.258 15.835C13.883 9.799 13.812 6.988 7.137 11.058C0.814001 14.913 2.807 12.157 10.408 6.536C14.584 3.448 18 0.714 18 0.461C18 0.207 13.95 0 9 0H0V23.5Z" fill="black"/>
<path fill-rule="evenodd" clip-rule="evenodd" d="M0 23.5C0 46.558 0.0389981 47 2.059 47C3.191 47 3.88 46.615 3.59 46.145C3.299 45.675 4.173 44.247 5.531 42.971C8.758 39.939 8.659 38.642 5.25 39.287C2.739 39.762 2.914 39.446 7.258 35.654C13.902 29.854 13.826 26.979 7.137 31.058C2.144 34.102 2.321 32.797 7.475 28.574C9.964 26.535 12 24.221 12 23.433C12 21.401 10.875 21.641 7 24.5C3.196 27.306 3 27.382 3 26.048C3 25.524 5.025 23.703 7.5 22C14.497 17.186 13.344 13.921 6.118 18.085C2.713 20.048 2.78 19.916 7.258 15.835C13.883 9.799 13.812 6.988 7.137 11.058C0.814001 14.913 2.807 12.157 10.408 6.536C14.584 3.448 18 0.714 18 0.461C18 0.207 13.95 0 9 0H0V23.5Z" fill="black"/>
<path fill-rule="evenodd" clip-rule="evenodd" d="M0 23.5C0 46.558 0.0389981 47 2.059 47C3.191 47 3.88 46.615 3.59 46.145C3.299 45.675 4.173 44.247 5.531 42.971C8.758 39.939 8.659 38.642 5.25 39.287C2.739 39.762 2.914 39.446 7.258 35.654C13.902 29.854 13.826 26.979 7.137 31.058C2.144 34.102 2.321 32.797 7.475 28.574C9.964 26.535 12 24.221 12 23.433C12 21.401 10.875 21.641 7 24.5C3.196 27.306 3 27.382 3 26.048C3 25.524 5.025 23.703 7.5 22C14.497 17.186 13.344 13.921 6.118 18.085C2.713 20.048 2.78 19.916 7.258 15.835C13.883 9.799 13.812 6.988 7.137 11.058C0.814001 14.913 2.807 12.157 10.408 6.536C14.584 3.448 18 0.714 18 0.461C18 0.207 13.95 0 9 0H0V23.5Z" fill="black"/>
<path fill-rule="evenodd" clip-rule="evenodd" d="M0 23.5C0 46.558 0.0389981 47 2.059 47C3.191 47 3.88 46.615 3.59 46.145C3.299 45.675 4.173 44.247 5.531 42.971C8.758 39.939 8.659 38.642 5.25 39.287C2.739 39.762 2.914 39.446 7.258 35.654C13.902 29.854 13.826 26.979 7.137 31.058C2.144 34.102 2.321 32.797 7.475 28.574C9.964 26.535 12 24.221 12 23.433C12 21.401 10.875 21.641 7 24.5C3.196 27.306 3 27.382 3 26.048C3 25.524 5.025 23.703 7.5 22C14.497 17.186 13.344 13.921 6.118 18.085C2.713 20.048 2.78 19.916 7.258 15.835C13.883 9.799 13.812 6.988 7.137 11.058C0.814001 14.913 2.807 12.157 10.408 6.536C14.584 3.448 18 0.714 18 0.461C18 0.207 13.95 0 9 0H0V23.5Z" fill="black"/>
<path fill-rule="evenodd" clip-rule="evenodd" d="M0 23.5C0 46.558 0.0389981 47 2.059 47C3.191 47 3.88 46.615 3.59 46.145C3.299 45.675 4.173 44.247 5.531 42.971C8.758 39.939 8.659 38.642 5.25 39.287C2.739 39.762 2.914 39.446 7.258 35.654C13.902 29.854 13.826 26.979 7.137 31.058C2.144 34.102 2.321 32.797 7.475 28.574C9.964 26.535 12 24.221 12 23.433C12 21.401 10.875 21.641 7 24.5C3.196 27.306 3 27.382 3 26.048C3 25.524 5.025 23.703 7.5 22C14.497 17.186 13.344 13.921 6.118 18.085C2.713 20.048 2.78 19.916 7.258 15.835C13.883 9.799 13.812 6.988 7.137 11.058C0.814001 14.913 2.807 12.157 10.408 6.536C14.584 3.448 18 0.714 18 0.461C18 0.207 13.95 0 9 0H0V23.5Z" fill="black"/>
<path fill-rule="evenodd" clip-rule="evenodd" d="M0 23.5C0 46.558 0.0389981 47 2.059 47C3.191 47 3.88 46.615 3.59 46.145C3.299 45.675 4.173 44.247 5.531 42.971C8.758 39.939 8.659 38.642 5.25 39.287C2.739 39.762 2.914 39.446 7.258 35.654C13.902 29.854 13.826 26.979 7.137 31.058C2.144 34.102 2.321 32.797 7.475 28.574C9.964 26.535 12 24.221 12 23.433C12 21.401 10.875 21.641 7 24.5C3.196 27.306 3 27.382 3 26.048C3 25.524 5.025 23.703 7.5 22C14.497 17.186 13.344 13.921 6.118 18.085C2.713 20.048 2.78 19.916 7.258 15.835C13.883 9.799 13.812 6.988 7.137 11.058C0.814001 14.913 2.807 12.157 10.408 6.536C14.584 3.448 18 0.714 18 0.461C18 0.207 13.95 0 9 0H0V23.5Z" fill="black"/>
</svg>
