<svg width="67" height="67" viewBox="0 0 67 67" fill="none" xmlns="http://www.w3.org/2000/svg">
<path d="M37.3333 3.49563L30 8.42896L30 27.3623V46.1623L26 49.0956C21.0667 52.829 20.6667 58.2956 25.0667 62.429C29.0667 66.1623 34.1333 66.1623 37.7333 62.2956C42 57.7623 41.4667 52.6956 36.6667 49.0956C32.8 46.2956 32.6667 45.7623 32.6667 35.8956C32.6667 26.829 32.9333 25.4956 35.7333 23.629C37.3333 22.5623 38.2667 21.229 37.7333 20.6956C37.2 20.1623 35.8667 20.429 34.6667 21.3623C32.9333 22.6956 32.6667 22.5623 32.6667 20.2956C32.6667 18.5623 34.8 16.2956 38.6667 13.7623C42 11.7623 44.6667 9.22896 44.6667 8.29563C44.6667 7.22896 42.4 8.1623 38.6667 10.6956C33.2 14.429 32.6667 14.5623 32.6667 12.1623C32.6667 10.5623 34.9333 8.16229 38.6667 5.76229C42 3.76229 44.6667 1.22896 44.6667 0.295628C44.6667 -0.637706 41.6 0.695628 37.3333 3.49563ZM35.8667 60.5623C31.8667 64.6956 24.6667 61.7623 24.6667 56.029C24.6667 52.829 28.1333 49.3623 31.3333 49.3623C34.5333 49.3623 38 52.829 38 56.029C38 57.3623 37.0667 59.4956 35.8667 60.5623Z" fill="black"/>
</svg>
