<svg width="19" height="47" viewBox="0 0 19 47" fill="none" xmlns="http://www.w3.org/2000/svg">
<path fill-rule="evenodd" clip-rule="evenodd" d="M0 23.5C0 45.214 0.133 47 1.75 47.001C3.34 47.003 3.47 45.871 3.17 34.586L2.84 22.169L10.67 16.851L18.5 11.533L12.182 10.67L5.865 9.807L11.932 5.392C15.27 2.964 18 0.757 18 0.489C18 0.22 13.95 0 9 0H0V23.5Z" fill="black"/>
<path fill-rule="evenodd" clip-rule="evenodd" d="M0 23.5C0 45.214 0.133 47 1.75 47.001C3.34 47.003 3.47 45.871 3.17 34.586L2.84 22.169L10.67 16.851L18.5 11.533L12.182 10.67L5.865 9.807L11.932 5.392C15.27 2.964 18 0.757 18 0.489C18 0.22 13.95 0 9 0H0V23.5Z" fill="black"/>
<path fill-rule="evenodd" clip-rule="evenodd" d="M0 23.5C0 45.214 0.133 47 1.75 47.001C3.34 47.003 3.47 45.871 3.17 34.586L2.84 22.169L10.67 16.851L18.5 11.533L12.182 10.67L5.865 9.807L11.932 5.392C15.27 2.964 18 0.757 18 0.489C18 0.22 13.95 0 9 0H0V23.5Z" fill="black"/>
<path fill-rule="evenodd" clip-rule="evenodd" d="M0 23.5C0 45.214 0.133 47 1.75 47.001C3.34 47.003 3.47 45.871 3.17 34.586L2.84 22.169L10.67 16.851L18.5 11.533L12.182 10.67L5.865 9.807L11.932 5.392C15.27 2.964 18 0.757 18 0.489C18 0.22 13.95 0 9 0H0V23.5Z" fill="black"/>
<path fill-rule="evenodd" clip-rule="evenodd" d="M0 23.5C0 45.214 0.133 47 1.75 47.001C3.34 47.003 3.47 45.871 3.17 34.586L2.84 22.169L10.67 16.851L18.5 11.533L12.182 10.67L5.865 9.807L11.932 5.392C15.27 2.964 18 0.757 18 0.489C18 0.22 13.95 0 9 0H0V23.5Z" fill="black"/>
<path fill-rule="evenodd" clip-rule="evenodd" d="M0 23.5C0 45.214 0.133 47 1.75 47.001C3.34 47.003 3.47 45.871 3.17 34.586L2.84 22.169L10.67 16.851L18.5 11.533L12.182 10.67L5.865 9.807L11.932 5.392C15.27 2.964 18 0.757 18 0.489C18 0.22 13.95 0 9 0H0V23.5Z" fill="black"/>
<path fill-rule="evenodd" clip-rule="evenodd" d="M0 23.5C0 45.214 0.133 47 1.75 47.001C3.34 47.003 3.47 45.871 3.17 34.586L2.84 22.169L10.67 16.851L18.5 11.533L12.182 10.67L5.865 9.807L11.932 5.392C15.27 2.964 18 0.757 18 0.489C18 0.22 13.95 0 9 0H0V23.5Z" fill="black"/>
<path fill-rule="evenodd" clip-rule="evenodd" d="M0 23.5C0 45.214 0.133 47 1.75 47.001C3.34 47.003 3.47 45.871 3.17 34.586L2.84 22.169L10.67 16.851L18.5 11.533L12.182 10.67L5.865 9.807L11.932 5.392C15.27 2.964 18 0.757 18 0.489C18 0.22 13.95 0 9 0H0V23.5Z" fill="black"/>
</svg>
