<svg width="17" height="48" viewBox="0 0 17 48" fill="none" xmlns="http://www.w3.org/2000/svg">
<path fill-rule="evenodd" clip-rule="evenodd" d="M1.89 6.25C1.829 9.688 1.491 20.263 1.14 29.752L0.5 47.003L4 46.923C5.925 46.878 6.938 46.615 6.25 46.338C5.324 45.964 5 41.757 5 30.132V14.431L8.25 12.574C12.009 10.426 17 5.999 17 4.813C17 3.276 14.782 4.005 10.345 7C7.9 8.65 5.697 10 5.45 10C5.202 10 5 7.75 5 5C5 1.222 4.633 0 3.5 0C2.338 0 1.975 1.41 1.89 6.25Z" fill="black"/>
<path fill-rule="evenodd" clip-rule="evenodd" d="M1.89 6.25C1.829 9.688 1.491 20.263 1.14 29.752L0.5 47.003L4 46.923C5.925 46.878 6.938 46.615 6.25 46.338C5.324 45.964 5 41.757 5 30.132V14.431L8.25 12.574C12.009 10.426 17 5.999 17 4.813C17 3.276 14.782 4.005 10.345 7C7.9 8.65 5.697 10 5.45 10C5.202 10 5 7.75 5 5C5 1.222 4.633 0 3.5 0C2.338 0 1.975 1.41 1.89 6.25Z" fill="black"/>
<path fill-rule="evenodd" clip-rule="evenodd" d="M1.89 6.25C1.829 9.688 1.491 20.263 1.14 29.752L0.5 47.003L4 46.923C5.925 46.878 6.938 46.615 6.25 46.338C5.324 45.964 5 41.757 5 30.132V14.431L8.25 12.574C12.009 10.426 17 5.999 17 4.813C17 3.276 14.782 4.005 10.345 7C7.9 8.65 5.697 10 5.45 10C5.202 10 5 7.75 5 5C5 1.222 4.633 0 3.5 0C2.338 0 1.975 1.41 1.89 6.25Z" fill="black"/>
<path fill-rule="evenodd" clip-rule="evenodd" d="M1.89 6.25C1.829 9.688 1.491 20.263 1.14 29.752L0.5 47.003L4 46.923C5.925 46.878 6.938 46.615 6.25 46.338C5.324 45.964 5 41.757 5 30.132V14.431L8.25 12.574C12.009 10.426 17 5.999 17 4.813C17 3.276 14.782 4.005 10.345 7C7.9 8.65 5.697 10 5.45 10C5.202 10 5 7.75 5 5C5 1.222 4.633 0 3.5 0C2.338 0 1.975 1.41 1.89 6.25Z" fill="black"/>
<path fill-rule="evenodd" clip-rule="evenodd" d="M1.89 6.25C1.829 9.688 1.491 20.263 1.14 29.752L0.5 47.003L4 46.923C5.925 46.878 6.938 46.615 6.25 46.338C5.324 45.964 5 41.757 5 30.132V14.431L8.25 12.574C12.009 10.426 17 5.999 17 4.813C17 3.276 14.782 4.005 10.345 7C7.9 8.65 5.697 10 5.45 10C5.202 10 5 7.75 5 5C5 1.222 4.633 0 3.5 0C2.338 0 1.975 1.41 1.89 6.25Z" fill="black"/>
<path fill-rule="evenodd" clip-rule="evenodd" d="M1.89 6.25C1.829 9.688 1.491 20.263 1.14 29.752L0.5 47.003L4 46.923C5.925 46.878 6.938 46.615 6.25 46.338C5.324 45.964 5 41.757 5 30.132V14.431L8.25 12.574C12.009 10.426 17 5.999 17 4.813C17 3.276 14.782 4.005 10.345 7C7.9 8.65 5.697 10 5.45 10C5.202 10 5 7.75 5 5C5 1.222 4.633 0 3.5 0C2.338 0 1.975 1.41 1.89 6.25Z" fill="black"/>
<path fill-rule="evenodd" clip-rule="evenodd" d="M1.89 6.25C1.829 9.688 1.491 20.263 1.14 29.752L0.5 47.003L4 46.923C5.925 46.878 6.938 46.615 6.25 46.338C5.324 45.964 5 41.757 5 30.132V14.431L8.25 12.574C12.009 10.426 17 5.999 17 4.813C17 3.276 14.782 4.005 10.345 7C7.9 8.65 5.697 10 5.45 10C5.202 10 5 7.75 5 5C5 1.222 4.633 0 3.5 0C2.338 0 1.975 1.41 1.89 6.25Z" fill="black"/>
<path fill-rule="evenodd" clip-rule="evenodd" d="M1.89 6.25C1.829 9.688 1.491 20.263 1.14 29.752L0.5 47.003L4 46.923C5.925 46.878 6.938 46.615 6.25 46.338C5.324 45.964 5 41.757 5 30.132V14.431L8.25 12.574C12.009 10.426 17 5.999 17 4.813C17 3.276 14.782 4.005 10.345 7C7.9 8.65 5.697 10 5.45 10C5.202 10 5 7.75 5 5C5 1.222 4.633 0 3.5 0C2.338 0 1.975 1.41 1.89 6.25Z" fill="black"/>
</svg>
