<svg width="16" height="47" viewBox="0 0 16 47" fill="none" xmlns="http://www.w3.org/2000/svg">
<path fill-rule="evenodd" clip-rule="evenodd" d="M6.155 4.978L0 8.956V27.978C0 46.232 0.0790018 47 1.969 47C3.171 47 3.743 46.495 3.439 45.702C3.165 44.988 4.079 43.335 5.471 42.028C6.862 40.721 8 39.055 8 38.326C8 36.729 7.469 36.679 4.934 38.035C3.431 38.84 3 38.744 3 37.606C3 36.8 5.552 34.197 8.672 31.821C17.535 25.069 16.806 22.2 7.696 27.978C0.873999 32.304 1.601 29.207 8.672 23.821C17.535 17.069 16.806 14.2 7.696 19.978C0.873999 24.304 1.601 21.207 8.672 15.821C17.535 9.069 16.806 6.2 7.696 11.978C0.873999 16.304 1.601 13.207 8.672 7.821C18.408 0.404 16.524 -1.723 6.155 4.978Z" fill="black"/>
<path fill-rule="evenodd" clip-rule="evenodd" d="M6.155 4.978L0 8.956V27.978C0 46.232 0.0790018 47 1.969 47C3.171 47 3.743 46.495 3.439 45.702C3.165 44.988 4.079 43.335 5.471 42.028C6.862 40.721 8 39.055 8 38.326C8 36.729 7.469 36.679 4.934 38.035C3.431 38.84 3 38.744 3 37.606C3 36.8 5.552 34.197 8.672 31.821C17.535 25.069 16.806 22.2 7.696 27.978C0.873999 32.304 1.601 29.207 8.672 23.821C17.535 17.069 16.806 14.2 7.696 19.978C0.873999 24.304 1.601 21.207 8.672 15.821C17.535 9.069 16.806 6.2 7.696 11.978C0.873999 16.304 1.601 13.207 8.672 7.821C18.408 0.404 16.524 -1.723 6.155 4.978Z" fill="black"/>
<path fill-rule="evenodd" clip-rule="evenodd" d="M6.155 4.978L0 8.956V27.978C0 46.232 0.0790018 47 1.969 47C3.171 47 3.743 46.495 3.439 45.702C3.165 44.988 4.079 43.335 5.471 42.028C6.862 40.721 8 39.055 8 38.326C8 36.729 7.469 36.679 4.934 38.035C3.431 38.84 3 38.744 3 37.606C3 36.8 5.552 34.197 8.672 31.821C17.535 25.069 16.806 22.2 7.696 27.978C0.873999 32.304 1.601 29.207 8.672 23.821C17.535 17.069 16.806 14.2 7.696 19.978C0.873999 24.304 1.601 21.207 8.672 15.821C17.535 9.069 16.806 6.2 7.696 11.978C0.873999 16.304 1.601 13.207 8.672 7.821C18.408 0.404 16.524 -1.723 6.155 4.978Z" fill="black"/>
<path fill-rule="evenodd" clip-rule="evenodd" d="M6.155 4.978L0 8.956V27.978C0 46.232 0.0790018 47 1.969 47C3.171 47 3.743 46.495 3.439 45.702C3.165 44.988 4.079 43.335 5.471 42.028C6.862 40.721 8 39.055 8 38.326C8 36.729 7.469 36.679 4.934 38.035C3.431 38.84 3 38.744 3 37.606C3 36.8 5.552 34.197 8.672 31.821C17.535 25.069 16.806 22.2 7.696 27.978C0.873999 32.304 1.601 29.207 8.672 23.821C17.535 17.069 16.806 14.2 7.696 19.978C0.873999 24.304 1.601 21.207 8.672 15.821C17.535 9.069 16.806 6.2 7.696 11.978C0.873999 16.304 1.601 13.207 8.672 7.821C18.408 0.404 16.524 -1.723 6.155 4.978Z" fill="black"/>
<path fill-rule="evenodd" clip-rule="evenodd" d="M6.155 4.978L0 8.956V27.978C0 46.232 0.0790018 47 1.969 47C3.171 47 3.743 46.495 3.439 45.702C3.165 44.988 4.079 43.335 5.471 42.028C6.862 40.721 8 39.055 8 38.326C8 36.729 7.469 36.679 4.934 38.035C3.431 38.84 3 38.744 3 37.606C3 36.8 5.552 34.197 8.672 31.821C17.535 25.069 16.806 22.2 7.696 27.978C0.873999 32.304 1.601 29.207 8.672 23.821C17.535 17.069 16.806 14.2 7.696 19.978C0.873999 24.304 1.601 21.207 8.672 15.821C17.535 9.069 16.806 6.2 7.696 11.978C0.873999 16.304 1.601 13.207 8.672 7.821C18.408 0.404 16.524 -1.723 6.155 4.978Z" fill="black"/>
<path fill-rule="evenodd" clip-rule="evenodd" d="M6.155 4.978L0 8.956V27.978C0 46.232 0.0790018 47 1.969 47C3.171 47 3.743 46.495 3.439 45.702C3.165 44.988 4.079 43.335 5.471 42.028C6.862 40.721 8 39.055 8 38.326C8 36.729 7.469 36.679 4.934 38.035C3.431 38.84 3 38.744 3 37.606C3 36.8 5.552 34.197 8.672 31.821C17.535 25.069 16.806 22.2 7.696 27.978C0.873999 32.304 1.601 29.207 8.672 23.821C17.535 17.069 16.806 14.2 7.696 19.978C0.873999 24.304 1.601 21.207 8.672 15.821C17.535 9.069 16.806 6.2 7.696 11.978C0.873999 16.304 1.601 13.207 8.672 7.821C18.408 0.404 16.524 -1.723 6.155 4.978Z" fill="black"/>
<path fill-rule="evenodd" clip-rule="evenodd" d="M6.155 4.978L0 8.956V27.978C0 46.232 0.0790018 47 1.969 47C3.171 47 3.743 46.495 3.439 45.702C3.165 44.988 4.079 43.335 5.471 42.028C6.862 40.721 8 39.055 8 38.326C8 36.729 7.469 36.679 4.934 38.035C3.431 38.84 3 38.744 3 37.606C3 36.8 5.552 34.197 8.672 31.821C17.535 25.069 16.806 22.2 7.696 27.978C0.873999 32.304 1.601 29.207 8.672 23.821C17.535 17.069 16.806 14.2 7.696 19.978C0.873999 24.304 1.601 21.207 8.672 15.821C17.535 9.069 16.806 6.2 7.696 11.978C0.873999 16.304 1.601 13.207 8.672 7.821C18.408 0.404 16.524 -1.723 6.155 4.978Z" fill="black"/>
<path fill-rule="evenodd" clip-rule="evenodd" d="M6.155 4.978L0 8.956V27.978C0 46.232 0.0790018 47 1.969 47C3.171 47 3.743 46.495 3.439 45.702C3.165 44.988 4.079 43.335 5.471 42.028C6.862 40.721 8 39.055 8 38.326C8 36.729 7.469 36.679 4.934 38.035C3.431 38.84 3 38.744 3 37.606C3 36.8 5.552 34.197 8.672 31.821C17.535 25.069 16.806 22.2 7.696 27.978C0.873999 32.304 1.601 29.207 8.672 23.821C17.535 17.069 16.806 14.2 7.696 19.978C0.873999 24.304 1.601 21.207 8.672 15.821C17.535 9.069 16.806 6.2 7.696 11.978C0.873999 16.304 1.601 13.207 8.672 7.821C18.408 0.404 16.524 -1.723 6.155 4.978Z" fill="black"/>
</svg>
