<svg width="67" height="67" viewBox="0 0 67 67" fill="none" xmlns="http://www.w3.org/2000/svg">
<g clip-path="url(#clip0_9_31)">
<path d="M40.6667 0L32 0V23.4667L32 46.8L28 50.2667C23.0667 54.4 22.6667 59.6 27.0667 63.7333C31.0667 67.4667 36.1333 67.4667 39.7333 63.6C43.8667 59.2 43.4667 54.2667 38.6667 50.2667C35.3333 47.3333 34.6667 45.8667 34.6667 40.9333C34.6667 36.2667 35.3333 34.5333 37.7333 32.9333C39.3333 31.8667 40.2667 30.5333 39.7333 30C39.2 29.4667 37.8667 29.7333 36.6667 30.6667C34.9333 32 34.6667 31.8667 34.6667 29.6C34.6667 28 36.4 25.7333 39.3333 24C41.8667 22.4 44 20.5333 44 19.8667C44 18 42.8 18.4 38.5333 21.4667C34.6667 24.1333 34.6667 24.1333 34.6667 21.4667C34.6667 20 36.5333 17.7333 39.3333 16C41.8667 14.4 44 12.5333 44 11.8667C44 10 42.8 10.4 38.5333 13.4667C34.8 16.1333 34.6667 16.1333 34.6667 13.6C34.6667 12 37.3333 9.33333 42 6.13333C46 3.46667 49.3333 1.06667 49.3333 0.666667C49.3333 0.266667 45.4667 0 40.6667 0ZM37.8667 61.8667C33.8667 66 26.6667 63.0667 26.6667 57.3333C26.6667 54.1333 30.1333 50.6667 33.3333 50.6667C36.5333 50.6667 40 54.1333 40 57.3333C40 58.6667 39.0667 60.8 37.8667 61.8667Z" fill="black"/>
</g>
<defs>
<clipPath id="clip0_9_31">
<rect width="66.6667" height="66.6667" fill="white" transform="translate(66.6667) rotate(90)"/>
</clipPath>
</defs>
</svg>
