<svg width="18" height="47" viewBox="0 0 18 47" fill="none" xmlns="http://www.w3.org/2000/svg">
<path fill-rule="evenodd" clip-rule="evenodd" d="M0 23.5C0 45.214 0.133 47 1.75 47.001C3.31 47.001 3.463 46.045 3.157 38.187C2.836 29.912 2.973 29.185 5.407 26.292C9.145 21.851 8.928 19.898 4.934 22.035C1.133 24.069 2.879 20.34 7.5 16.554C9.975 14.525 12 12.221 12 11.433C12 9.403 10.875 9.641 7.016 12.488C5.161 13.857 3.488 14.821 3.298 14.631C2.205 13.539 5.035 10.408 11.106 5.992C14.898 3.234 18 0.758 18 0.489C18 0.22 13.95 0 9 0H0V23.5Z" fill="black"/>
<path fill-rule="evenodd" clip-rule="evenodd" d="M0 23.5C0 45.214 0.133 47 1.75 47.001C3.31 47.001 3.463 46.045 3.157 38.187C2.836 29.912 2.973 29.185 5.407 26.292C9.145 21.851 8.928 19.898 4.934 22.035C1.133 24.069 2.879 20.34 7.5 16.554C9.975 14.525 12 12.221 12 11.433C12 9.403 10.875 9.641 7.016 12.488C5.161 13.857 3.488 14.821 3.298 14.631C2.205 13.539 5.035 10.408 11.106 5.992C14.898 3.234 18 0.758 18 0.489C18 0.22 13.95 0 9 0H0V23.5Z" fill="black"/>
<path fill-rule="evenodd" clip-rule="evenodd" d="M0 23.5C0 45.214 0.133 47 1.75 47.001C3.31 47.001 3.463 46.045 3.157 38.187C2.836 29.912 2.973 29.185 5.407 26.292C9.145 21.851 8.928 19.898 4.934 22.035C1.133 24.069 2.879 20.34 7.5 16.554C9.975 14.525 12 12.221 12 11.433C12 9.403 10.875 9.641 7.016 12.488C5.161 13.857 3.488 14.821 3.298 14.631C2.205 13.539 5.035 10.408 11.106 5.992C14.898 3.234 18 0.758 18 0.489C18 0.22 13.95 0 9 0H0V23.5Z" fill="black"/>
<path fill-rule="evenodd" clip-rule="evenodd" d="M0 23.5C0 45.214 0.133 47 1.75 47.001C3.31 47.001 3.463 46.045 3.157 38.187C2.836 29.912 2.973 29.185 5.407 26.292C9.145 21.851 8.928 19.898 4.934 22.035C1.133 24.069 2.879 20.34 7.5 16.554C9.975 14.525 12 12.221 12 11.433C12 9.403 10.875 9.641 7.016 12.488C5.161 13.857 3.488 14.821 3.298 14.631C2.205 13.539 5.035 10.408 11.106 5.992C14.898 3.234 18 0.758 18 0.489C18 0.22 13.95 0 9 0H0V23.5Z" fill="black"/>
<path fill-rule="evenodd" clip-rule="evenodd" d="M0 23.5C0 45.214 0.133 47 1.75 47.001C3.31 47.001 3.463 46.045 3.157 38.187C2.836 29.912 2.973 29.185 5.407 26.292C9.145 21.851 8.928 19.898 4.934 22.035C1.133 24.069 2.879 20.34 7.5 16.554C9.975 14.525 12 12.221 12 11.433C12 9.403 10.875 9.641 7.016 12.488C5.161 13.857 3.488 14.821 3.298 14.631C2.205 13.539 5.035 10.408 11.106 5.992C14.898 3.234 18 0.758 18 0.489C18 0.22 13.95 0 9 0H0V23.5Z" fill="black"/>
<path fill-rule="evenodd" clip-rule="evenodd" d="M0 23.5C0 45.214 0.133 47 1.75 47.001C3.31 47.001 3.463 46.045 3.157 38.187C2.836 29.912 2.973 29.185 5.407 26.292C9.145 21.851 8.928 19.898 4.934 22.035C1.133 24.069 2.879 20.34 7.5 16.554C9.975 14.525 12 12.221 12 11.433C12 9.403 10.875 9.641 7.016 12.488C5.161 13.857 3.488 14.821 3.298 14.631C2.205 13.539 5.035 10.408 11.106 5.992C14.898 3.234 18 0.758 18 0.489C18 0.22 13.95 0 9 0H0V23.5Z" fill="black"/>
<path fill-rule="evenodd" clip-rule="evenodd" d="M0 23.5C0 45.214 0.133 47 1.75 47.001C3.31 47.001 3.463 46.045 3.157 38.187C2.836 29.912 2.973 29.185 5.407 26.292C9.145 21.851 8.928 19.898 4.934 22.035C1.133 24.069 2.879 20.34 7.5 16.554C9.975 14.525 12 12.221 12 11.433C12 9.403 10.875 9.641 7.016 12.488C5.161 13.857 3.488 14.821 3.298 14.631C2.205 13.539 5.035 10.408 11.106 5.992C14.898 3.234 18 0.758 18 0.489C18 0.22 13.95 0 9 0H0V23.5Z" fill="black"/>
<path fill-rule="evenodd" clip-rule="evenodd" d="M0 23.5C0 45.214 0.133 47 1.75 47.001C3.31 47.001 3.463 46.045 3.157 38.187C2.836 29.912 2.973 29.185 5.407 26.292C9.145 21.851 8.928 19.898 4.934 22.035C1.133 24.069 2.879 20.34 7.5 16.554C9.975 14.525 12 12.221 12 11.433C12 9.403 10.875 9.641 7.016 12.488C5.161 13.857 3.488 14.821 3.298 14.631C2.205 13.539 5.035 10.408 11.106 5.992C14.898 3.234 18 0.758 18 0.489C18 0.22 13.95 0 9 0H0V23.5Z" fill="black"/>
</svg>
