<svg width="19" height="48" viewBox="0 0 19 48" fill="none" xmlns="http://www.w3.org/2000/svg">
<path fill-rule="evenodd" clip-rule="evenodd" d="M0 23.5C0 45.213 0.133 47 1.75 47.002C3.29 47.004 3.467 46.074 3.226 39.252C2.922 30.681 2.932 30.657 8.25 26.693C10.313 25.156 12 23.246 12 22.449C12 20.409 10.819 20.634 6.64 23.47C4.295 25.061 3 25.483 3 24.657C3 23.039 7.053 19.275 13.5 14.905L18.5 11.516L12.182 10.662L5.865 9.807L11.932 5.392C15.27 2.964 18 0.757 18 0.489C18 0.22 13.95 0 9 0H0V23.5Z" fill="black"/>
<path fill-rule="evenodd" clip-rule="evenodd" d="M0 23.5C0 45.213 0.133 47 1.75 47.002C3.29 47.004 3.467 46.074 3.226 39.252C2.922 30.681 2.932 30.657 8.25 26.693C10.313 25.156 12 23.246 12 22.449C12 20.409 10.819 20.634 6.64 23.47C4.295 25.061 3 25.483 3 24.657C3 23.039 7.053 19.275 13.5 14.905L18.5 11.516L12.182 10.662L5.865 9.807L11.932 5.392C15.27 2.964 18 0.757 18 0.489C18 0.22 13.95 0 9 0H0V23.5Z" fill="black"/>
<path fill-rule="evenodd" clip-rule="evenodd" d="M0 23.5C0 45.213 0.133 47 1.75 47.002C3.29 47.004 3.467 46.074 3.226 39.252C2.922 30.681 2.932 30.657 8.25 26.693C10.313 25.156 12 23.246 12 22.449C12 20.409 10.819 20.634 6.64 23.47C4.295 25.061 3 25.483 3 24.657C3 23.039 7.053 19.275 13.5 14.905L18.5 11.516L12.182 10.662L5.865 9.807L11.932 5.392C15.27 2.964 18 0.757 18 0.489C18 0.22 13.95 0 9 0H0V23.5Z" fill="black"/>
<path fill-rule="evenodd" clip-rule="evenodd" d="M0 23.5C0 45.213 0.133 47 1.75 47.002C3.29 47.004 3.467 46.074 3.226 39.252C2.922 30.681 2.932 30.657 8.25 26.693C10.313 25.156 12 23.246 12 22.449C12 20.409 10.819 20.634 6.64 23.47C4.295 25.061 3 25.483 3 24.657C3 23.039 7.053 19.275 13.5 14.905L18.5 11.516L12.182 10.662L5.865 9.807L11.932 5.392C15.27 2.964 18 0.757 18 0.489C18 0.22 13.95 0 9 0H0V23.5Z" fill="black"/>
<path fill-rule="evenodd" clip-rule="evenodd" d="M0 23.5C0 45.213 0.133 47 1.75 47.002C3.29 47.004 3.467 46.074 3.226 39.252C2.922 30.681 2.932 30.657 8.25 26.693C10.313 25.156 12 23.246 12 22.449C12 20.409 10.819 20.634 6.64 23.47C4.295 25.061 3 25.483 3 24.657C3 23.039 7.053 19.275 13.5 14.905L18.5 11.516L12.182 10.662L5.865 9.807L11.932 5.392C15.27 2.964 18 0.757 18 0.489C18 0.22 13.95 0 9 0H0V23.5Z" fill="black"/>
<path fill-rule="evenodd" clip-rule="evenodd" d="M0 23.5C0 45.213 0.133 47 1.75 47.002C3.29 47.004 3.467 46.074 3.226 39.252C2.922 30.681 2.932 30.657 8.25 26.693C10.313 25.156 12 23.246 12 22.449C12 20.409 10.819 20.634 6.64 23.47C4.295 25.061 3 25.483 3 24.657C3 23.039 7.053 19.275 13.5 14.905L18.5 11.516L12.182 10.662L5.865 9.807L11.932 5.392C15.27 2.964 18 0.757 18 0.489C18 0.22 13.95 0 9 0H0V23.5Z" fill="black"/>
<path fill-rule="evenodd" clip-rule="evenodd" d="M0 23.5C0 45.213 0.133 47 1.75 47.002C3.29 47.004 3.467 46.074 3.226 39.252C2.922 30.681 2.932 30.657 8.25 26.693C10.313 25.156 12 23.246 12 22.449C12 20.409 10.819 20.634 6.64 23.47C4.295 25.061 3 25.483 3 24.657C3 23.039 7.053 19.275 13.5 14.905L18.5 11.516L12.182 10.662L5.865 9.807L11.932 5.392C15.27 2.964 18 0.757 18 0.489C18 0.22 13.95 0 9 0H0V23.5Z" fill="black"/>
<path fill-rule="evenodd" clip-rule="evenodd" d="M0 23.5C0 45.213 0.133 47 1.75 47.002C3.29 47.004 3.467 46.074 3.226 39.252C2.922 30.681 2.932 30.657 8.25 26.693C10.313 25.156 12 23.246 12 22.449C12 20.409 10.819 20.634 6.64 23.47C4.295 25.061 3 25.483 3 24.657C3 23.039 7.053 19.275 13.5 14.905L18.5 11.516L12.182 10.662L5.865 9.807L11.932 5.392C15.27 2.964 18 0.757 18 0.489C18 0.22 13.95 0 9 0H0V23.5Z" fill="black"/>
</svg>
