<svg width="67" height="67" viewBox="0 0 67 67" fill="none" xmlns="http://www.w3.org/2000/svg">
<g clip-path="url(#clip0_9_10)">
<path d="M39.3333 4.79999L32 9.73333L32 28.6667V47.4667L28 50.4C23.0666 54.1333 22.6666 59.6 27.0666 63.7333C31.0666 67.4667 36.1333 67.4667 39.7333 63.6C44 59.0667 43.4666 54 38.6666 50.4C35.2 47.8667 34.6666 46.6667 34.6666 41.2C34.6666 35.2 34.9333 34.8 40.6666 31.0667C44 29.0667 46.6666 26.5333 46.6666 25.6C46.6666 24.5333 44.4 25.4667 40.6666 28C35.2 31.7333 34.6666 31.8667 34.6666 29.4667C34.6666 27.8667 36.9333 25.4667 40.6666 23.0667C44 21.0667 46.6666 18.5333 46.6666 17.6C46.6666 16.5333 44.4 17.4667 40.6666 20C35.2 23.7333 34.6666 23.8667 34.6666 21.4667C34.6666 19.8667 36.9333 17.4667 40.6666 15.0667C44 13.0667 46.6666 10.5333 46.6666 9.59999C46.6666 8.53333 44.4 9.46666 40.6666 12C35.2 15.7333 34.6666 15.8667 34.6666 13.4667C34.6666 11.8667 36.9333 9.46666 40.6666 7.06666C44 5.06666 46.6666 2.53333 46.6666 1.59999C46.6666 0.666661 43.6 1.99999 39.3333 4.79999ZM37.8666 61.8667C33.8666 66 26.6666 63.0667 26.6666 57.3333C26.6666 54.1333 30.1333 50.6667 33.3333 50.6667C36.5333 50.6667 40 54.1333 40 57.3333C40 58.6667 39.0666 60.8 37.8666 61.8667Z" fill="black"/>
</g>
<defs>
<clipPath id="clip0_9_10">
<rect width="66.6667" height="66.6667" fill="white" transform="translate(66.6666) rotate(90)"/>
</clipPath>
</defs>
</svg>
