<svg width="18" height="48" viewBox="0 0 18 48" fill="none" xmlns="http://www.w3.org/2000/svg">
<path fill-rule="evenodd" clip-rule="evenodd" d="M8.23701 4.527L3.00001 8.053V26.977C3.00001 43.945 2.81901 46.006 1.25001 46.92C-0.110991 47.713 0.60101 47.946 4.45001 47.97C8.30001 47.993 9.13301 47.733 8.20001 46.8C7.38401 45.984 7.00001 41.239 7.00001 31.974C7.00001 18.733 7.07101 18.282 9.50001 16C10.875 14.708 12 13.227 12 12.709C12 12.191 10.875 11.982 9.50001 12.245C5.29401 13.049 6.57901 10.374 12.5 6C15.525 3.765 18 1.726 18 1.468C18 -0.135 12.687 1.529 8.23701 4.527Z" fill="black"/>
<path fill-rule="evenodd" clip-rule="evenodd" d="M8.23701 4.527L3.00001 8.053V26.977C3.00001 43.945 2.81901 46.006 1.25001 46.92C-0.110991 47.713 0.60101 47.946 4.45001 47.97C8.30001 47.993 9.13301 47.733 8.20001 46.8C7.38401 45.984 7.00001 41.239 7.00001 31.974C7.00001 18.733 7.07101 18.282 9.50001 16C10.875 14.708 12 13.227 12 12.709C12 12.191 10.875 11.982 9.50001 12.245C5.29401 13.049 6.57901 10.374 12.5 6C15.525 3.765 18 1.726 18 1.468C18 -0.135 12.687 1.529 8.23701 4.527Z" fill="black"/>
<path fill-rule="evenodd" clip-rule="evenodd" d="M8.23701 4.527L3.00001 8.053V26.977C3.00001 43.945 2.81901 46.006 1.25001 46.92C-0.110991 47.713 0.60101 47.946 4.45001 47.97C8.30001 47.993 9.13301 47.733 8.20001 46.8C7.38401 45.984 7.00001 41.239 7.00001 31.974C7.00001 18.733 7.07101 18.282 9.50001 16C10.875 14.708 12 13.227 12 12.709C12 12.191 10.875 11.982 9.50001 12.245C5.29401 13.049 6.57901 10.374 12.5 6C15.525 3.765 18 1.726 18 1.468C18 -0.135 12.687 1.529 8.23701 4.527Z" fill="black"/>
<path fill-rule="evenodd" clip-rule="evenodd" d="M8.23701 4.527L3.00001 8.053V26.977C3.00001 43.945 2.81901 46.006 1.25001 46.92C-0.110991 47.713 0.60101 47.946 4.45001 47.97C8.30001 47.993 9.13301 47.733 8.20001 46.8C7.38401 45.984 7.00001 41.239 7.00001 31.974C7.00001 18.733 7.07101 18.282 9.50001 16C10.875 14.708 12 13.227 12 12.709C12 12.191 10.875 11.982 9.50001 12.245C5.29401 13.049 6.57901 10.374 12.5 6C15.525 3.765 18 1.726 18 1.468C18 -0.135 12.687 1.529 8.23701 4.527Z" fill="black"/>
<path fill-rule="evenodd" clip-rule="evenodd" d="M8.23701 4.527L3.00001 8.053V26.977C3.00001 43.945 2.81901 46.006 1.25001 46.92C-0.110991 47.713 0.60101 47.946 4.45001 47.97C8.30001 47.993 9.13301 47.733 8.20001 46.8C7.38401 45.984 7.00001 41.239 7.00001 31.974C7.00001 18.733 7.07101 18.282 9.50001 16C10.875 14.708 12 13.227 12 12.709C12 12.191 10.875 11.982 9.50001 12.245C5.29401 13.049 6.57901 10.374 12.5 6C15.525 3.765 18 1.726 18 1.468C18 -0.135 12.687 1.529 8.23701 4.527Z" fill="black"/>
<path fill-rule="evenodd" clip-rule="evenodd" d="M8.23701 4.527L3.00001 8.053V26.977C3.00001 43.945 2.81901 46.006 1.25001 46.92C-0.110991 47.713 0.60101 47.946 4.45001 47.97C8.30001 47.993 9.13301 47.733 8.20001 46.8C7.38401 45.984 7.00001 41.239 7.00001 31.974C7.00001 18.733 7.07101 18.282 9.50001 16C10.875 14.708 12 13.227 12 12.709C12 12.191 10.875 11.982 9.50001 12.245C5.29401 13.049 6.57901 10.374 12.5 6C15.525 3.765 18 1.726 18 1.468C18 -0.135 12.687 1.529 8.23701 4.527Z" fill="black"/>
<path fill-rule="evenodd" clip-rule="evenodd" d="M8.23701 4.527L3.00001 8.053V26.977C3.00001 43.945 2.81901 46.006 1.25001 46.92C-0.110991 47.713 0.60101 47.946 4.45001 47.97C8.30001 47.993 9.13301 47.733 8.20001 46.8C7.38401 45.984 7.00001 41.239 7.00001 31.974C7.00001 18.733 7.07101 18.282 9.50001 16C10.875 14.708 12 13.227 12 12.709C12 12.191 10.875 11.982 9.50001 12.245C5.29401 13.049 6.57901 10.374 12.5 6C15.525 3.765 18 1.726 18 1.468C18 -0.135 12.687 1.529 8.23701 4.527Z" fill="black"/>
<path fill-rule="evenodd" clip-rule="evenodd" d="M8.23701 4.527L3.00001 8.053V26.977C3.00001 43.945 2.81901 46.006 1.25001 46.92C-0.110991 47.713 0.60101 47.946 4.45001 47.97C8.30001 47.993 9.13301 47.733 8.20001 46.8C7.38401 45.984 7.00001 41.239 7.00001 31.974C7.00001 18.733 7.07101 18.282 9.50001 16C10.875 14.708 12 13.227 12 12.709C12 12.191 10.875 11.982 9.50001 12.245C5.29401 13.049 6.57901 10.374 12.5 6C15.525 3.765 18 1.726 18 1.468C18 -0.135 12.687 1.529 8.23701 4.527Z" fill="black"/>
</svg>
