<svg width="18" height="47" viewBox="0 0 18 47" fill="none" xmlns="http://www.w3.org/2000/svg">
<path fill-rule="evenodd" clip-rule="evenodd" d="M0 23.5C0 46.208 0.0660018 47 1.969 47C3.204 47 3.746 46.501 3.422 45.658C3.125 44.884 4.832 42.74 7.454 40.591C9.954 38.542 12 36.221 12 35.433C12 33.396 10.874 33.642 6.955 36.533C1.593 40.489 1.927 37.294 7.355 32.712C9.91 30.556 12 28.164 12 27.396C12 25.397 10.856 25.655 6.955 28.533C1.593 32.489 1.927 29.294 7.355 24.712C9.91 22.556 12 20.164 12 19.396C12 17.397 10.856 17.655 6.955 20.533C1.593 24.489 1.927 21.294 7.355 16.712C9.91 14.556 12 12.164 12 11.396C12 9.404 10.857 9.654 7.016 12.488C5.161 13.857 3.488 14.821 3.298 14.631C2.205 13.539 5.035 10.408 11.106 5.992C14.898 3.234 18 0.758 18 0.489C18 0.22 13.95 0 9 0H0V23.5Z" fill="black"/>
<path fill-rule="evenodd" clip-rule="evenodd" d="M0 23.5C0 46.208 0.0660018 47 1.969 47C3.204 47 3.746 46.501 3.422 45.658C3.125 44.884 4.832 42.74 7.454 40.591C9.954 38.542 12 36.221 12 35.433C12 33.396 10.874 33.642 6.955 36.533C1.593 40.489 1.927 37.294 7.355 32.712C9.91 30.556 12 28.164 12 27.396C12 25.397 10.856 25.655 6.955 28.533C1.593 32.489 1.927 29.294 7.355 24.712C9.91 22.556 12 20.164 12 19.396C12 17.397 10.856 17.655 6.955 20.533C1.593 24.489 1.927 21.294 7.355 16.712C9.91 14.556 12 12.164 12 11.396C12 9.404 10.857 9.654 7.016 12.488C5.161 13.857 3.488 14.821 3.298 14.631C2.205 13.539 5.035 10.408 11.106 5.992C14.898 3.234 18 0.758 18 0.489C18 0.22 13.95 0 9 0H0V23.5Z" fill="black"/>
<path fill-rule="evenodd" clip-rule="evenodd" d="M0 23.5C0 46.208 0.0660018 47 1.969 47C3.204 47 3.746 46.501 3.422 45.658C3.125 44.884 4.832 42.74 7.454 40.591C9.954 38.542 12 36.221 12 35.433C12 33.396 10.874 33.642 6.955 36.533C1.593 40.489 1.927 37.294 7.355 32.712C9.91 30.556 12 28.164 12 27.396C12 25.397 10.856 25.655 6.955 28.533C1.593 32.489 1.927 29.294 7.355 24.712C9.91 22.556 12 20.164 12 19.396C12 17.397 10.856 17.655 6.955 20.533C1.593 24.489 1.927 21.294 7.355 16.712C9.91 14.556 12 12.164 12 11.396C12 9.404 10.857 9.654 7.016 12.488C5.161 13.857 3.488 14.821 3.298 14.631C2.205 13.539 5.035 10.408 11.106 5.992C14.898 3.234 18 0.758 18 0.489C18 0.22 13.95 0 9 0H0V23.5Z" fill="black"/>
<path fill-rule="evenodd" clip-rule="evenodd" d="M0 23.5C0 46.208 0.0660018 47 1.969 47C3.204 47 3.746 46.501 3.422 45.658C3.125 44.884 4.832 42.74 7.454 40.591C9.954 38.542 12 36.221 12 35.433C12 33.396 10.874 33.642 6.955 36.533C1.593 40.489 1.927 37.294 7.355 32.712C9.91 30.556 12 28.164 12 27.396C12 25.397 10.856 25.655 6.955 28.533C1.593 32.489 1.927 29.294 7.355 24.712C9.91 22.556 12 20.164 12 19.396C12 17.397 10.856 17.655 6.955 20.533C1.593 24.489 1.927 21.294 7.355 16.712C9.91 14.556 12 12.164 12 11.396C12 9.404 10.857 9.654 7.016 12.488C5.161 13.857 3.488 14.821 3.298 14.631C2.205 13.539 5.035 10.408 11.106 5.992C14.898 3.234 18 0.758 18 0.489C18 0.22 13.95 0 9 0H0V23.5Z" fill="black"/>
<path fill-rule="evenodd" clip-rule="evenodd" d="M0 23.5C0 46.208 0.0660018 47 1.969 47C3.204 47 3.746 46.501 3.422 45.658C3.125 44.884 4.832 42.74 7.454 40.591C9.954 38.542 12 36.221 12 35.433C12 33.396 10.874 33.642 6.955 36.533C1.593 40.489 1.927 37.294 7.355 32.712C9.91 30.556 12 28.164 12 27.396C12 25.397 10.856 25.655 6.955 28.533C1.593 32.489 1.927 29.294 7.355 24.712C9.91 22.556 12 20.164 12 19.396C12 17.397 10.856 17.655 6.955 20.533C1.593 24.489 1.927 21.294 7.355 16.712C9.91 14.556 12 12.164 12 11.396C12 9.404 10.857 9.654 7.016 12.488C5.161 13.857 3.488 14.821 3.298 14.631C2.205 13.539 5.035 10.408 11.106 5.992C14.898 3.234 18 0.758 18 0.489C18 0.22 13.95 0 9 0H0V23.5Z" fill="black"/>
<path fill-rule="evenodd" clip-rule="evenodd" d="M0 23.5C0 46.208 0.0660018 47 1.969 47C3.204 47 3.746 46.501 3.422 45.658C3.125 44.884 4.832 42.74 7.454 40.591C9.954 38.542 12 36.221 12 35.433C12 33.396 10.874 33.642 6.955 36.533C1.593 40.489 1.927 37.294 7.355 32.712C9.91 30.556 12 28.164 12 27.396C12 25.397 10.856 25.655 6.955 28.533C1.593 32.489 1.927 29.294 7.355 24.712C9.91 22.556 12 20.164 12 19.396C12 17.397 10.856 17.655 6.955 20.533C1.593 24.489 1.927 21.294 7.355 16.712C9.91 14.556 12 12.164 12 11.396C12 9.404 10.857 9.654 7.016 12.488C5.161 13.857 3.488 14.821 3.298 14.631C2.205 13.539 5.035 10.408 11.106 5.992C14.898 3.234 18 0.758 18 0.489C18 0.22 13.95 0 9 0H0V23.5Z" fill="black"/>
<path fill-rule="evenodd" clip-rule="evenodd" d="M0 23.5C0 46.208 0.0660018 47 1.969 47C3.204 47 3.746 46.501 3.422 45.658C3.125 44.884 4.832 42.74 7.454 40.591C9.954 38.542 12 36.221 12 35.433C12 33.396 10.874 33.642 6.955 36.533C1.593 40.489 1.927 37.294 7.355 32.712C9.91 30.556 12 28.164 12 27.396C12 25.397 10.856 25.655 6.955 28.533C1.593 32.489 1.927 29.294 7.355 24.712C9.91 22.556 12 20.164 12 19.396C12 17.397 10.856 17.655 6.955 20.533C1.593 24.489 1.927 21.294 7.355 16.712C9.91 14.556 12 12.164 12 11.396C12 9.404 10.857 9.654 7.016 12.488C5.161 13.857 3.488 14.821 3.298 14.631C2.205 13.539 5.035 10.408 11.106 5.992C14.898 3.234 18 0.758 18 0.489C18 0.22 13.95 0 9 0H0V23.5Z" fill="black"/>
<path fill-rule="evenodd" clip-rule="evenodd" d="M0 23.5C0 46.208 0.0660018 47 1.969 47C3.204 47 3.746 46.501 3.422 45.658C3.125 44.884 4.832 42.74 7.454 40.591C9.954 38.542 12 36.221 12 35.433C12 33.396 10.874 33.642 6.955 36.533C1.593 40.489 1.927 37.294 7.355 32.712C9.91 30.556 12 28.164 12 27.396C12 25.397 10.856 25.655 6.955 28.533C1.593 32.489 1.927 29.294 7.355 24.712C9.91 22.556 12 20.164 12 19.396C12 17.397 10.856 17.655 6.955 20.533C1.593 24.489 1.927 21.294 7.355 16.712C9.91 14.556 12 12.164 12 11.396C12 9.404 10.857 9.654 7.016 12.488C5.161 13.857 3.488 14.821 3.298 14.631C2.205 13.539 5.035 10.408 11.106 5.992C14.898 3.234 18 0.758 18 0.489C18 0.22 13.95 0 9 0H0V23.5Z" fill="black"/>
</svg>
