<svg width="67" height="67" viewBox="0 0 67 67" fill="none" xmlns="http://www.w3.org/2000/svg">
<path d="M35.3178 3.64541L27.9845 8.57874L27.9845 27.5121V46.3121L23.9845 49.2454C19.0512 52.9787 18.6512 58.4454 23.0512 62.5787C27.0512 66.3121 32.1178 66.3121 35.7178 62.4454C39.9845 57.9121 39.4512 52.8454 34.6512 49.2454L30.6512 46.3121V32.0454L30.6512 17.7787L36.6512 13.9121C39.9845 11.9121 42.6512 9.37874 42.6512 8.44541C42.6512 7.37874 40.3845 8.31208 36.6512 10.8454C31.1845 14.5787 30.6512 14.7121 30.6512 12.3121C30.6512 10.7121 32.9178 8.31207 36.6512 5.91207C39.9845 3.91207 42.6512 1.37874 42.6512 0.445408C42.6512 -0.487926 39.5845 0.845408 35.3178 3.64541ZM33.8512 60.7121C29.8512 64.8454 22.6512 61.9121 22.6512 56.1787C22.6512 52.9787 26.1178 49.5121 29.3178 49.5121C32.5178 49.5121 35.9845 52.9787 35.9845 56.1787C35.9845 57.5121 35.0512 59.6454 33.8512 60.7121Z" fill="black"/>
</svg>
