<svg width="18" height="47" viewBox="0 0 18 47" fill="none" xmlns="http://www.w3.org/2000/svg">
<path fill-rule="evenodd" clip-rule="evenodd" d="M0 23.5C0 43.153 0.233 47 1.423 47C2.566 47 2.909 44.364 3.173 33.577C3.473 21.275 3.688 19.955 5.75 17.763C7.842 15.539 8.74 13 7.434 13C7.123 13 5.93 13.502 4.783 14.116C2.997 15.072 2.791 14.988 3.348 13.535C3.707 12.601 4 11.684 4 11.498C4 11.313 7.15 8.869 11 6.069C14.85 3.269 18 0.758 18 0.489C18 0.22 13.95 0 9 0H0V23.5Z" fill="black"/>
<path fill-rule="evenodd" clip-rule="evenodd" d="M0 23.5C0 43.153 0.233 47 1.423 47C2.566 47 2.909 44.364 3.173 33.577C3.473 21.275 3.688 19.955 5.75 17.763C7.842 15.539 8.74 13 7.434 13C7.123 13 5.93 13.502 4.783 14.116C2.997 15.072 2.791 14.988 3.348 13.535C3.707 12.601 4 11.684 4 11.498C4 11.313 7.15 8.869 11 6.069C14.85 3.269 18 0.758 18 0.489C18 0.22 13.95 0 9 0H0V23.5Z" fill="black"/>
<path fill-rule="evenodd" clip-rule="evenodd" d="M0 23.5C0 43.153 0.233 47 1.423 47C2.566 47 2.909 44.364 3.173 33.577C3.473 21.275 3.688 19.955 5.75 17.763C7.842 15.539 8.74 13 7.434 13C7.123 13 5.93 13.502 4.783 14.116C2.997 15.072 2.791 14.988 3.348 13.535C3.707 12.601 4 11.684 4 11.498C4 11.313 7.15 8.869 11 6.069C14.85 3.269 18 0.758 18 0.489C18 0.22 13.95 0 9 0H0V23.5Z" fill="black"/>
<path fill-rule="evenodd" clip-rule="evenodd" d="M0 23.5C0 43.153 0.233 47 1.423 47C2.566 47 2.909 44.364 3.173 33.577C3.473 21.275 3.688 19.955 5.75 17.763C7.842 15.539 8.74 13 7.434 13C7.123 13 5.93 13.502 4.783 14.116C2.997 15.072 2.791 14.988 3.348 13.535C3.707 12.601 4 11.684 4 11.498C4 11.313 7.15 8.869 11 6.069C14.85 3.269 18 0.758 18 0.489C18 0.22 13.95 0 9 0H0V23.5Z" fill="black"/>
<path fill-rule="evenodd" clip-rule="evenodd" d="M0 23.5C0 43.153 0.233 47 1.423 47C2.566 47 2.909 44.364 3.173 33.577C3.473 21.275 3.688 19.955 5.75 17.763C7.842 15.539 8.74 13 7.434 13C7.123 13 5.93 13.502 4.783 14.116C2.997 15.072 2.791 14.988 3.348 13.535C3.707 12.601 4 11.684 4 11.498C4 11.313 7.15 8.869 11 6.069C14.85 3.269 18 0.758 18 0.489C18 0.22 13.95 0 9 0H0V23.5Z" fill="black"/>
<path fill-rule="evenodd" clip-rule="evenodd" d="M0 23.5C0 43.153 0.233 47 1.423 47C2.566 47 2.909 44.364 3.173 33.577C3.473 21.275 3.688 19.955 5.75 17.763C7.842 15.539 8.74 13 7.434 13C7.123 13 5.93 13.502 4.783 14.116C2.997 15.072 2.791 14.988 3.348 13.535C3.707 12.601 4 11.684 4 11.498C4 11.313 7.15 8.869 11 6.069C14.85 3.269 18 0.758 18 0.489C18 0.22 13.95 0 9 0H0V23.5Z" fill="black"/>
<path fill-rule="evenodd" clip-rule="evenodd" d="M0 23.5C0 43.153 0.233 47 1.423 47C2.566 47 2.909 44.364 3.173 33.577C3.473 21.275 3.688 19.955 5.75 17.763C7.842 15.539 8.74 13 7.434 13C7.123 13 5.93 13.502 4.783 14.116C2.997 15.072 2.791 14.988 3.348 13.535C3.707 12.601 4 11.684 4 11.498C4 11.313 7.15 8.869 11 6.069C14.85 3.269 18 0.758 18 0.489C18 0.22 13.95 0 9 0H0V23.5Z" fill="black"/>
<path fill-rule="evenodd" clip-rule="evenodd" d="M0 23.5C0 43.153 0.233 47 1.423 47C2.566 47 2.909 44.364 3.173 33.577C3.473 21.275 3.688 19.955 5.75 17.763C7.842 15.539 8.74 13 7.434 13C7.123 13 5.93 13.502 4.783 14.116C2.997 15.072 2.791 14.988 3.348 13.535C3.707 12.601 4 11.684 4 11.498C4 11.313 7.15 8.869 11 6.069C14.85 3.269 18 0.758 18 0.489C18 0.22 13.95 0 9 0H0V23.5Z" fill="black"/>
</svg>
