<svg width="16" height="48" viewBox="0 0 16 48" fill="none" xmlns="http://www.w3.org/2000/svg">
<path fill-rule="evenodd" clip-rule="evenodd" d="M7.19599 3.952L1.08299 7.903L0.790988 27.453C0.507988 46.432 0.557987 47.002 2.49999 47.003C4.42099 47.003 4.48799 46.436 4.20099 32.721L3.90199 18.438L9.63299 14.469C12.785 12.286 15.545 9.938 15.765 9.25C16.431 7.176 13.202 7.838 8.95799 10.646C5.13499 13.177 3.03999 13.362 4.47299 11.044C4.84299 10.446 7.58799 8.151 10.573 5.946C13.558 3.741 16 1.501 16 0.968C16 -0.896 13.26 0.033 7.19599 3.952Z" fill="black"/>
<path fill-rule="evenodd" clip-rule="evenodd" d="M7.19599 3.952L1.08299 7.903L0.790988 27.453C0.507988 46.432 0.557987 47.002 2.49999 47.003C4.42099 47.003 4.48799 46.436 4.20099 32.721L3.90199 18.438L9.63299 14.469C12.785 12.286 15.545 9.938 15.765 9.25C16.431 7.176 13.202 7.838 8.95799 10.646C5.13499 13.177 3.03999 13.362 4.47299 11.044C4.84299 10.446 7.58799 8.151 10.573 5.946C13.558 3.741 16 1.501 16 0.968C16 -0.896 13.26 0.033 7.19599 3.952Z" fill="black"/>
<path fill-rule="evenodd" clip-rule="evenodd" d="M7.19599 3.952L1.08299 7.903L0.790988 27.453C0.507988 46.432 0.557987 47.002 2.49999 47.003C4.42099 47.003 4.48799 46.436 4.20099 32.721L3.90199 18.438L9.63299 14.469C12.785 12.286 15.545 9.938 15.765 9.25C16.431 7.176 13.202 7.838 8.95799 10.646C5.13499 13.177 3.03999 13.362 4.47299 11.044C4.84299 10.446 7.58799 8.151 10.573 5.946C13.558 3.741 16 1.501 16 0.968C16 -0.896 13.26 0.033 7.19599 3.952Z" fill="black"/>
<path fill-rule="evenodd" clip-rule="evenodd" d="M7.19599 3.952L1.08299 7.903L0.790988 27.453C0.507988 46.432 0.557987 47.002 2.49999 47.003C4.42099 47.003 4.48799 46.436 4.20099 32.721L3.90199 18.438L9.63299 14.469C12.785 12.286 15.545 9.938 15.765 9.25C16.431 7.176 13.202 7.838 8.95799 10.646C5.13499 13.177 3.03999 13.362 4.47299 11.044C4.84299 10.446 7.58799 8.151 10.573 5.946C13.558 3.741 16 1.501 16 0.968C16 -0.896 13.26 0.033 7.19599 3.952Z" fill="black"/>
<path fill-rule="evenodd" clip-rule="evenodd" d="M7.19599 3.952L1.08299 7.903L0.790988 27.453C0.507988 46.432 0.557987 47.002 2.49999 47.003C4.42099 47.003 4.48799 46.436 4.20099 32.721L3.90199 18.438L9.63299 14.469C12.785 12.286 15.545 9.938 15.765 9.25C16.431 7.176 13.202 7.838 8.95799 10.646C5.13499 13.177 3.03999 13.362 4.47299 11.044C4.84299 10.446 7.58799 8.151 10.573 5.946C13.558 3.741 16 1.501 16 0.968C16 -0.896 13.26 0.033 7.19599 3.952Z" fill="black"/>
<path fill-rule="evenodd" clip-rule="evenodd" d="M7.19599 3.952L1.08299 7.903L0.790988 27.453C0.507988 46.432 0.557987 47.002 2.49999 47.003C4.42099 47.003 4.48799 46.436 4.20099 32.721L3.90199 18.438L9.63299 14.469C12.785 12.286 15.545 9.938 15.765 9.25C16.431 7.176 13.202 7.838 8.95799 10.646C5.13499 13.177 3.03999 13.362 4.47299 11.044C4.84299 10.446 7.58799 8.151 10.573 5.946C13.558 3.741 16 1.501 16 0.968C16 -0.896 13.26 0.033 7.19599 3.952Z" fill="black"/>
<path fill-rule="evenodd" clip-rule="evenodd" d="M7.19599 3.952L1.08299 7.903L0.790988 27.453C0.507988 46.432 0.557987 47.002 2.49999 47.003C4.42099 47.003 4.48799 46.436 4.20099 32.721L3.90199 18.438L9.63299 14.469C12.785 12.286 15.545 9.938 15.765 9.25C16.431 7.176 13.202 7.838 8.95799 10.646C5.13499 13.177 3.03999 13.362 4.47299 11.044C4.84299 10.446 7.58799 8.151 10.573 5.946C13.558 3.741 16 1.501 16 0.968C16 -0.896 13.26 0.033 7.19599 3.952Z" fill="black"/>
<path fill-rule="evenodd" clip-rule="evenodd" d="M7.19599 3.952L1.08299 7.903L0.790988 27.453C0.507988 46.432 0.557987 47.002 2.49999 47.003C4.42099 47.003 4.48799 46.436 4.20099 32.721L3.90199 18.438L9.63299 14.469C12.785 12.286 15.545 9.938 15.765 9.25C16.431 7.176 13.202 7.838 8.95799 10.646C5.13499 13.177 3.03999 13.362 4.47299 11.044C4.84299 10.446 7.58799 8.151 10.573 5.946C13.558 3.741 16 1.501 16 0.968C16 -0.896 13.26 0.033 7.19599 3.952Z" fill="black"/>
</svg>
