<svg width="67" height="67" viewBox="0 0 67 67" fill="none" xmlns="http://www.w3.org/2000/svg">
<g clip-path="url(#clip0_9_49)">
<path d="M40.6666 0L32 0L32 23.7333L32 47.4667L28 50.4C23.0666 54.1333 22.6666 59.6 27.0666 63.7333C31.0666 67.4667 36.1333 67.4667 39.7333 63.6C44 59.0667 43.4666 54 38.6666 50.4C34.9333 47.7333 34.6666 46.9333 34.6666 38.5333C34.6666 29.7333 34.8 29.4667 39.3333 26.6667C41.8666 25.0667 44 23.2 44 22.5333C44 20.6667 42.8 21.0667 38.5333 24.1333C34.8 26.8 34.6666 26.8 34.6666 24.2667C34.6666 22.6667 37.4666 19.8667 42.2666 16.5333L49.8666 11.3333L42.6666 10.9333L35.6 10.5333L42.4 5.86667C46.2666 3.33333 49.3333 0.933333 49.3333 0.666667C49.3333 0.266667 45.4666 0 40.6666 0ZM37.8666 61.8667C33.8666 66 26.6666 63.0667 26.6666 57.3333C26.6666 54.1333 30.1333 50.6667 33.3333 50.6667C36.5333 50.6667 40 54.1333 40 57.3333C40 58.6667 39.0666 60.8 37.8666 61.8667Z" fill="black"/>
</g>
<defs>
<clipPath id="clip0_9_49">
<rect width="66.6667" height="66.6667" fill="white" transform="translate(66.6666) rotate(90)"/>
</clipPath>
</defs>
</svg>
