<svg width="18" height="48" viewBox="0 0 18 48" fill="none" xmlns="http://www.w3.org/2000/svg">
<path fill-rule="evenodd" clip-rule="evenodd" d="M8.23701 4.527L3.00001 8.053V26.977C3.00001 43.945 2.81901 46.006 1.25001 46.92C-0.110991 47.713 0.60101 47.946 4.45001 47.97C8.30001 47.993 9.13301 47.733 8.20001 46.8C7.35501 45.955 7.00101 40.258 7.00201 27.55L7.00401 9.5L11.404 6.72C13.825 5.191 16.354 3.278 17.025 2.47C19.464 -0.469 13.626 0.897 8.23701 4.527Z" fill="black"/>
<path fill-rule="evenodd" clip-rule="evenodd" d="M8.23701 4.527L3.00001 8.053V26.977C3.00001 43.945 2.81901 46.006 1.25001 46.92C-0.110991 47.713 0.60101 47.946 4.45001 47.97C8.30001 47.993 9.13301 47.733 8.20001 46.8C7.35501 45.955 7.00101 40.258 7.00201 27.55L7.00401 9.5L11.404 6.72C13.825 5.191 16.354 3.278 17.025 2.47C19.464 -0.469 13.626 0.897 8.23701 4.527Z" fill="black"/>
<path fill-rule="evenodd" clip-rule="evenodd" d="M8.23701 4.527L3.00001 8.053V26.977C3.00001 43.945 2.81901 46.006 1.25001 46.92C-0.110991 47.713 0.60101 47.946 4.45001 47.97C8.30001 47.993 9.13301 47.733 8.20001 46.8C7.35501 45.955 7.00101 40.258 7.00201 27.55L7.00401 9.5L11.404 6.72C13.825 5.191 16.354 3.278 17.025 2.47C19.464 -0.469 13.626 0.897 8.23701 4.527Z" fill="black"/>
<path fill-rule="evenodd" clip-rule="evenodd" d="M8.23701 4.527L3.00001 8.053V26.977C3.00001 43.945 2.81901 46.006 1.25001 46.92C-0.110991 47.713 0.60101 47.946 4.45001 47.97C8.30001 47.993 9.13301 47.733 8.20001 46.8C7.35501 45.955 7.00101 40.258 7.00201 27.55L7.00401 9.5L11.404 6.72C13.825 5.191 16.354 3.278 17.025 2.47C19.464 -0.469 13.626 0.897 8.23701 4.527Z" fill="black"/>
<path fill-rule="evenodd" clip-rule="evenodd" d="M8.23701 4.527L3.00001 8.053V26.977C3.00001 43.945 2.81901 46.006 1.25001 46.92C-0.110991 47.713 0.60101 47.946 4.45001 47.97C8.30001 47.993 9.13301 47.733 8.20001 46.8C7.35501 45.955 7.00101 40.258 7.00201 27.55L7.00401 9.5L11.404 6.72C13.825 5.191 16.354 3.278 17.025 2.47C19.464 -0.469 13.626 0.897 8.23701 4.527Z" fill="black"/>
<path fill-rule="evenodd" clip-rule="evenodd" d="M8.23701 4.527L3.00001 8.053V26.977C3.00001 43.945 2.81901 46.006 1.25001 46.92C-0.110991 47.713 0.60101 47.946 4.45001 47.97C8.30001 47.993 9.13301 47.733 8.20001 46.8C7.35501 45.955 7.00101 40.258 7.00201 27.55L7.00401 9.5L11.404 6.72C13.825 5.191 16.354 3.278 17.025 2.47C19.464 -0.469 13.626 0.897 8.23701 4.527Z" fill="black"/>
<path fill-rule="evenodd" clip-rule="evenodd" d="M8.23701 4.527L3.00001 8.053V26.977C3.00001 43.945 2.81901 46.006 1.25001 46.92C-0.110991 47.713 0.60101 47.946 4.45001 47.97C8.30001 47.993 9.13301 47.733 8.20001 46.8C7.35501 45.955 7.00101 40.258 7.00201 27.55L7.00401 9.5L11.404 6.72C13.825 5.191 16.354 3.278 17.025 2.47C19.464 -0.469 13.626 0.897 8.23701 4.527Z" fill="black"/>
<path fill-rule="evenodd" clip-rule="evenodd" d="M8.23701 4.527L3.00001 8.053V26.977C3.00001 43.945 2.81901 46.006 1.25001 46.92C-0.110991 47.713 0.60101 47.946 4.45001 47.97C8.30001 47.993 9.13301 47.733 8.20001 46.8C7.35501 45.955 7.00101 40.258 7.00201 27.55L7.00401 9.5L11.404 6.72C13.825 5.191 16.354 3.278 17.025 2.47C19.464 -0.469 13.626 0.897 8.23701 4.527Z" fill="black"/>
</svg>
