<svg width="16" height="47" viewBox="0 0 16 47" fill="none" xmlns="http://www.w3.org/2000/svg">
<path fill-rule="evenodd" clip-rule="evenodd" d="M6.155 4.978L0 8.956V27.978C0 45.427 0.145 47 1.75 47.001C3.24 47.003 3.45 46.209 3.167 41.66C2.804 35.855 2.189 36.727 11.984 29.174C18.136 24.429 14.771 23.491 7.696 27.978C0.873999 32.304 1.601 29.207 8.672 23.821C17.535 17.069 16.806 14.2 7.696 19.978C0.873999 24.304 1.601 21.207 8.672 15.821C17.535 9.069 16.806 6.2 7.696 11.978C0.873999 16.304 1.601 13.207 8.672 7.821C18.408 0.404 16.524 -1.723 6.155 4.978Z" fill="black"/>
<path fill-rule="evenodd" clip-rule="evenodd" d="M6.155 4.978L0 8.956V27.978C0 45.427 0.145 47 1.75 47.001C3.24 47.003 3.45 46.209 3.167 41.66C2.804 35.855 2.189 36.727 11.984 29.174C18.136 24.429 14.771 23.491 7.696 27.978C0.873999 32.304 1.601 29.207 8.672 23.821C17.535 17.069 16.806 14.2 7.696 19.978C0.873999 24.304 1.601 21.207 8.672 15.821C17.535 9.069 16.806 6.2 7.696 11.978C0.873999 16.304 1.601 13.207 8.672 7.821C18.408 0.404 16.524 -1.723 6.155 4.978Z" fill="black"/>
<path fill-rule="evenodd" clip-rule="evenodd" d="M6.155 4.978L0 8.956V27.978C0 45.427 0.145 47 1.75 47.001C3.24 47.003 3.45 46.209 3.167 41.66C2.804 35.855 2.189 36.727 11.984 29.174C18.136 24.429 14.771 23.491 7.696 27.978C0.873999 32.304 1.601 29.207 8.672 23.821C17.535 17.069 16.806 14.2 7.696 19.978C0.873999 24.304 1.601 21.207 8.672 15.821C17.535 9.069 16.806 6.2 7.696 11.978C0.873999 16.304 1.601 13.207 8.672 7.821C18.408 0.404 16.524 -1.723 6.155 4.978Z" fill="black"/>
<path fill-rule="evenodd" clip-rule="evenodd" d="M6.155 4.978L0 8.956V27.978C0 45.427 0.145 47 1.75 47.001C3.24 47.003 3.45 46.209 3.167 41.66C2.804 35.855 2.189 36.727 11.984 29.174C18.136 24.429 14.771 23.491 7.696 27.978C0.873999 32.304 1.601 29.207 8.672 23.821C17.535 17.069 16.806 14.2 7.696 19.978C0.873999 24.304 1.601 21.207 8.672 15.821C17.535 9.069 16.806 6.2 7.696 11.978C0.873999 16.304 1.601 13.207 8.672 7.821C18.408 0.404 16.524 -1.723 6.155 4.978Z" fill="black"/>
<path fill-rule="evenodd" clip-rule="evenodd" d="M6.155 4.978L0 8.956V27.978C0 45.427 0.145 47 1.75 47.001C3.24 47.003 3.45 46.209 3.167 41.66C2.804 35.855 2.189 36.727 11.984 29.174C18.136 24.429 14.771 23.491 7.696 27.978C0.873999 32.304 1.601 29.207 8.672 23.821C17.535 17.069 16.806 14.2 7.696 19.978C0.873999 24.304 1.601 21.207 8.672 15.821C17.535 9.069 16.806 6.2 7.696 11.978C0.873999 16.304 1.601 13.207 8.672 7.821C18.408 0.404 16.524 -1.723 6.155 4.978Z" fill="black"/>
<path fill-rule="evenodd" clip-rule="evenodd" d="M6.155 4.978L0 8.956V27.978C0 45.427 0.145 47 1.75 47.001C3.24 47.003 3.45 46.209 3.167 41.66C2.804 35.855 2.189 36.727 11.984 29.174C18.136 24.429 14.771 23.491 7.696 27.978C0.873999 32.304 1.601 29.207 8.672 23.821C17.535 17.069 16.806 14.2 7.696 19.978C0.873999 24.304 1.601 21.207 8.672 15.821C17.535 9.069 16.806 6.2 7.696 11.978C0.873999 16.304 1.601 13.207 8.672 7.821C18.408 0.404 16.524 -1.723 6.155 4.978Z" fill="black"/>
<path fill-rule="evenodd" clip-rule="evenodd" d="M6.155 4.978L0 8.956V27.978C0 45.427 0.145 47 1.75 47.001C3.24 47.003 3.45 46.209 3.167 41.66C2.804 35.855 2.189 36.727 11.984 29.174C18.136 24.429 14.771 23.491 7.696 27.978C0.873999 32.304 1.601 29.207 8.672 23.821C17.535 17.069 16.806 14.2 7.696 19.978C0.873999 24.304 1.601 21.207 8.672 15.821C17.535 9.069 16.806 6.2 7.696 11.978C0.873999 16.304 1.601 13.207 8.672 7.821C18.408 0.404 16.524 -1.723 6.155 4.978Z" fill="black"/>
<path fill-rule="evenodd" clip-rule="evenodd" d="M6.155 4.978L0 8.956V27.978C0 45.427 0.145 47 1.75 47.001C3.24 47.003 3.45 46.209 3.167 41.66C2.804 35.855 2.189 36.727 11.984 29.174C18.136 24.429 14.771 23.491 7.696 27.978C0.873999 32.304 1.601 29.207 8.672 23.821C17.535 17.069 16.806 14.2 7.696 19.978C0.873999 24.304 1.601 21.207 8.672 15.821C17.535 9.069 16.806 6.2 7.696 11.978C0.873999 16.304 1.601 13.207 8.672 7.821C18.408 0.404 16.524 -1.723 6.155 4.978Z" fill="black"/>
</svg>
