<svg width="67" height="67" viewBox="0 0 67 67" fill="none" xmlns="http://www.w3.org/2000/svg">
<g clip-path="url(#clip0_9_56)">
<path d="M24.9116 34.9293C12.2449 41.4626 13.3116 60.6626 26.6449 65.8626C40.6449 71.196 54.1116 57.7293 48.7782 43.7293C45.1782 34.396 33.9782 30.2626 24.9116 34.9293ZM39.5782 37.3293C43.8449 39.596 47.5782 45.4626 47.5782 49.996C47.5782 57.0626 39.9782 64.6626 32.9116 64.6626C25.8449 64.6626 18.2449 57.0626 18.2449 49.996C18.2449 45.596 21.9782 39.596 25.9782 37.4626C30.6449 34.796 34.7782 34.796 39.5782 37.3293Z" fill="black"/>
<path d="M26.5116 43.7293C22.7782 47.7293 22.7782 52.796 26.6449 56.396C30.6449 60.1293 35.7116 60.1293 39.3116 56.2626C43.0449 52.2626 43.0449 47.196 39.1782 43.596C35.1782 39.8626 30.1116 39.8626 26.5116 43.7293ZM37.4449 45.4626C41.5782 49.4626 38.6449 56.6626 32.9116 56.6626C29.7116 56.6626 26.2449 53.196 26.2449 49.996C26.2449 48.6626 27.1782 46.5293 28.3782 45.4626C29.4449 44.2626 31.5782 43.3293 32.9116 43.3293C34.2449 43.3293 36.3782 44.2626 37.4449 45.4626Z" fill="black"/>
</g>
<defs>
<clipPath id="clip0_9_56">
<rect width="66.6667" height="66.6667" fill="white"/>
</clipPath>
</defs>
</svg>
