<svg width="67" height="67" viewBox="0 0 67 67" fill="none" xmlns="http://www.w3.org/2000/svg">
<g clip-path="url(#clip0_10_66)">
<path d="M38.584 7.40047L32.584 11.5338V4.73381C32.584 1.13381 32.0507 -1.93286 31.2507 -1.93286C30.4507 -1.93286 29.9174 6.86714 29.9174 21.8005V45.5338L25.9174 48.4671C20.984 52.2005 20.584 57.6671 24.984 61.8005C28.984 65.5338 34.0507 65.5338 37.6507 61.6671C41.9174 57.1338 41.384 52.0671 36.584 48.4671L32.584 45.5338V14.3338L38.584 10.4671C41.9174 8.46714 44.584 5.93381 44.584 5.00047C44.584 3.93381 42.3174 4.86714 38.584 7.40047ZM35.784 59.9338C31.784 64.0671 24.584 61.1338 24.584 55.4005C24.584 52.2005 28.0507 48.7338 31.2507 48.7338C34.4507 48.7338 37.9174 52.2005 37.9174 55.4005C37.9174 56.7338 36.984 58.8671 35.784 59.9338Z" fill="black"/>
</g>
<defs>
<clipPath id="clip0_10_66">
<rect width="66.6667" height="66.6667" fill="white"/>
</clipPath>
</defs>
</svg>
