<svg width="67" height="67" viewBox="0 0 67 67" fill="none" xmlns="http://www.w3.org/2000/svg">
<g clip-path="url(#clip0_9_19)">
<path d="M40.6667 0L32 0L32 23.7333V47.4667L28 50.4C23.0667 54.1333 22.6667 59.6 27.0667 63.7333C31.0667 67.4667 36.1333 67.4667 39.7333 63.6C44 59.0667 43.4667 54 38.6667 50.4L34.6667 47.4667V33.2C34.6667 20 34.9333 18.8 37.7333 16.9333C39.3333 15.8667 40.2667 14.5333 39.7333 14C39.2 13.4667 37.8667 13.7333 36.6667 14.6667C34.9333 16 34.6667 15.8667 34.6667 13.7333C34.6667 12 37.2 9.33333 42 6.13333C46 3.46667 49.3333 1.06667 49.3333 0.666667C49.3333 0.266667 45.4667 0 40.6667 0ZM37.8667 61.8667C33.8667 66 26.6667 63.0667 26.6667 57.3333C26.6667 54.1333 30.1333 50.6667 33.3333 50.6667C36.5333 50.6667 40 54.1333 40 57.3333C40 58.6667 39.0667 60.8 37.8667 61.8667Z" fill="black"/>
</g>
<defs>
<clipPath id="clip0_9_19">
<rect width="66.6667" height="66.6667" fill="white" transform="translate(66.6667) rotate(90)"/>
</clipPath>
</defs>
</svg>
