<svg width="67" height="67" viewBox="0 0 67 67" fill="none" xmlns="http://www.w3.org/2000/svg">
<g clip-path="url(#clip0_9_7)">
<path d="M39.3333 4.79999L32 9.73333L32 28.6667V47.4667L28 50.4C23.0667 54.1333 22.6667 59.6 27.0667 63.7333C31.0667 67.4667 36.1333 67.4667 39.7333 63.6C44 59.0667 43.4667 54 38.6667 50.4C35.2 47.8667 34.6667 46.6667 34.6667 41.2C34.6667 36.2667 35.3333 34.5333 37.7333 32.9333C39.3333 31.8667 40.2667 30.5333 39.7333 30C39.2 29.4667 37.8667 29.7333 36.6667 30.6667C34.9333 32 34.6667 31.8667 34.6667 29.6C34.6667 27.8667 36.8 25.6 40.6667 23.0667C44 21.0667 46.6667 18.5333 46.6667 17.6C46.6667 16.5333 44.4 17.4667 40.6667 20C35.2 23.7333 34.6667 23.8667 34.6667 21.4667C34.6667 19.8667 36.9333 17.4667 40.6667 15.0667C44 13.0667 46.6667 10.5333 46.6667 9.59999C46.6667 8.53333 44.4 9.46666 40.6667 12C35.2 15.7333 34.6667 15.8667 34.6667 13.4667C34.6667 11.8667 36.9333 9.46666 40.6667 7.06666C44 5.06666 46.6667 2.53333 46.6667 1.59999C46.6667 0.666661 43.6 1.99999 39.3333 4.79999ZM37.8667 61.8667C33.8667 66 26.6667 63.0667 26.6667 57.3333C26.6667 54.1333 30.1333 50.6667 33.3333 50.6667C36.5333 50.6667 40 54.1333 40 57.3333C40 58.6667 39.0667 60.8 37.8667 61.8667Z" fill="black"/>
</g>
<defs>
<clipPath id="clip0_9_7">
<rect width="66.6667" height="66.6667" fill="white" transform="translate(66.6667) rotate(90)"/>
</clipPath>
</defs>
</svg>
