<svg width="67" height="67" viewBox="0 0 67 67" fill="none" xmlns="http://www.w3.org/2000/svg">
<g clip-path="url(#clip0_10_69)">
<path d="M37.9029 2.21496L30.5695 7.14829L30.5695 26.0816V44.8816L26.5695 47.815C21.6362 51.5483 21.2362 57.015 25.6362 61.1483C29.6362 64.8816 34.7029 64.8816 38.3029 61.015C42.5695 56.4816 42.0362 51.415 37.2362 47.815L33.2362 44.8816V26.615L33.2362 8.34829L39.2362 4.48162C42.5695 2.48162 45.2362 -0.0517093 45.2362 -0.985043C45.2362 -1.91838 42.1695 -0.585043 37.9029 2.21496ZM36.4362 59.2816C32.4362 63.415 25.2362 60.4816 25.2362 54.7483C25.2362 51.5483 28.7029 48.0816 31.9029 48.0816C35.1029 48.0816 38.5695 51.5483 38.5695 54.7483C38.5695 56.0816 37.6362 58.215 36.4362 59.2816Z" fill="black"/>
</g>
<defs>
<clipPath id="clip0_10_69">
<rect width="66.6667" height="66.6667" fill="white"/>
</clipPath>
</defs>
</svg>
