<svg width="16" height="48" viewBox="0 0 16 48" fill="none" xmlns="http://www.w3.org/2000/svg">
<path fill-rule="evenodd" clip-rule="evenodd" d="M6.789 3.787L1.078 7.447L0.788996 27.224C0.507996 46.432 0.557997 47.002 2.5 47.002C4.374 47.001 4.5 46.334 4.5 36.374C4.5 26.463 4.652 25.646 6.75 24.252C9.199 22.624 9.785 20 7.7 20C6.985 20 5.86 20.54 5.2 21.2C4.267 22.133 4 22.022 4 20.699C4 19.763 6.7 16.901 10 14.338C13.3 11.776 16 9.076 16 8.34C16 6.391 15.022 6.661 10 10C7.525 11.645 5.163 12.993 4.75 12.996C2.652 13.008 4.61 10.524 10 6.338C13.3 3.776 16 1.301 16 0.84C16 -0.923 12.284 0.266 6.789 3.787Z" fill="black"/>
<path fill-rule="evenodd" clip-rule="evenodd" d="M6.789 3.787L1.078 7.447L0.788996 27.224C0.507996 46.432 0.557997 47.002 2.5 47.002C4.374 47.001 4.5 46.334 4.5 36.374C4.5 26.463 4.652 25.646 6.75 24.252C9.199 22.624 9.785 20 7.7 20C6.985 20 5.86 20.54 5.2 21.2C4.267 22.133 4 22.022 4 20.699C4 19.763 6.7 16.901 10 14.338C13.3 11.776 16 9.076 16 8.34C16 6.391 15.022 6.661 10 10C7.525 11.645 5.163 12.993 4.75 12.996C2.652 13.008 4.61 10.524 10 6.338C13.3 3.776 16 1.301 16 0.84C16 -0.923 12.284 0.266 6.789 3.787Z" fill="black"/>
<path fill-rule="evenodd" clip-rule="evenodd" d="M6.789 3.787L1.078 7.447L0.788996 27.224C0.507996 46.432 0.557997 47.002 2.5 47.002C4.374 47.001 4.5 46.334 4.5 36.374C4.5 26.463 4.652 25.646 6.75 24.252C9.199 22.624 9.785 20 7.7 20C6.985 20 5.86 20.54 5.2 21.2C4.267 22.133 4 22.022 4 20.699C4 19.763 6.7 16.901 10 14.338C13.3 11.776 16 9.076 16 8.34C16 6.391 15.022 6.661 10 10C7.525 11.645 5.163 12.993 4.75 12.996C2.652 13.008 4.61 10.524 10 6.338C13.3 3.776 16 1.301 16 0.84C16 -0.923 12.284 0.266 6.789 3.787Z" fill="black"/>
<path fill-rule="evenodd" clip-rule="evenodd" d="M6.789 3.787L1.078 7.447L0.788996 27.224C0.507996 46.432 0.557997 47.002 2.5 47.002C4.374 47.001 4.5 46.334 4.5 36.374C4.5 26.463 4.652 25.646 6.75 24.252C9.199 22.624 9.785 20 7.7 20C6.985 20 5.86 20.54 5.2 21.2C4.267 22.133 4 22.022 4 20.699C4 19.763 6.7 16.901 10 14.338C13.3 11.776 16 9.076 16 8.34C16 6.391 15.022 6.661 10 10C7.525 11.645 5.163 12.993 4.75 12.996C2.652 13.008 4.61 10.524 10 6.338C13.3 3.776 16 1.301 16 0.84C16 -0.923 12.284 0.266 6.789 3.787Z" fill="black"/>
<path fill-rule="evenodd" clip-rule="evenodd" d="M6.789 3.787L1.078 7.447L0.788996 27.224C0.507996 46.432 0.557997 47.002 2.5 47.002C4.374 47.001 4.5 46.334 4.5 36.374C4.5 26.463 4.652 25.646 6.75 24.252C9.199 22.624 9.785 20 7.7 20C6.985 20 5.86 20.54 5.2 21.2C4.267 22.133 4 22.022 4 20.699C4 19.763 6.7 16.901 10 14.338C13.3 11.776 16 9.076 16 8.34C16 6.391 15.022 6.661 10 10C7.525 11.645 5.163 12.993 4.75 12.996C2.652 13.008 4.61 10.524 10 6.338C13.3 3.776 16 1.301 16 0.84C16 -0.923 12.284 0.266 6.789 3.787Z" fill="black"/>
<path fill-rule="evenodd" clip-rule="evenodd" d="M6.789 3.787L1.078 7.447L0.788996 27.224C0.507996 46.432 0.557997 47.002 2.5 47.002C4.374 47.001 4.5 46.334 4.5 36.374C4.5 26.463 4.652 25.646 6.75 24.252C9.199 22.624 9.785 20 7.7 20C6.985 20 5.86 20.54 5.2 21.2C4.267 22.133 4 22.022 4 20.699C4 19.763 6.7 16.901 10 14.338C13.3 11.776 16 9.076 16 8.34C16 6.391 15.022 6.661 10 10C7.525 11.645 5.163 12.993 4.75 12.996C2.652 13.008 4.61 10.524 10 6.338C13.3 3.776 16 1.301 16 0.84C16 -0.923 12.284 0.266 6.789 3.787Z" fill="black"/>
<path fill-rule="evenodd" clip-rule="evenodd" d="M6.789 3.787L1.078 7.447L0.788996 27.224C0.507996 46.432 0.557997 47.002 2.5 47.002C4.374 47.001 4.5 46.334 4.5 36.374C4.5 26.463 4.652 25.646 6.75 24.252C9.199 22.624 9.785 20 7.7 20C6.985 20 5.86 20.54 5.2 21.2C4.267 22.133 4 22.022 4 20.699C4 19.763 6.7 16.901 10 14.338C13.3 11.776 16 9.076 16 8.34C16 6.391 15.022 6.661 10 10C7.525 11.645 5.163 12.993 4.75 12.996C2.652 13.008 4.61 10.524 10 6.338C13.3 3.776 16 1.301 16 0.84C16 -0.923 12.284 0.266 6.789 3.787Z" fill="black"/>
<path fill-rule="evenodd" clip-rule="evenodd" d="M6.789 3.787L1.078 7.447L0.788996 27.224C0.507996 46.432 0.557997 47.002 2.5 47.002C4.374 47.001 4.5 46.334 4.5 36.374C4.5 26.463 4.652 25.646 6.75 24.252C9.199 22.624 9.785 20 7.7 20C6.985 20 5.86 20.54 5.2 21.2C4.267 22.133 4 22.022 4 20.699C4 19.763 6.7 16.901 10 14.338C13.3 11.776 16 9.076 16 8.34C16 6.391 15.022 6.661 10 10C7.525 11.645 5.163 12.993 4.75 12.996C2.652 13.008 4.61 10.524 10 6.338C13.3 3.776 16 1.301 16 0.84C16 -0.923 12.284 0.266 6.789 3.787Z" fill="black"/>
</svg>
