<svg width="18" height="47" viewBox="0 0 18 47" fill="none" xmlns="http://www.w3.org/2000/svg">
<path fill-rule="evenodd" clip-rule="evenodd" d="M0 23.5C0 45.713 0.102001 47 1.853 47C3.464 47 3.646 46.372 3.246 42.205C2.853 38.115 3.169 36.953 5.392 34.31C9.144 29.852 8.934 27.895 4.934 30.035C1.133 32.069 2.879 28.34 7.5 24.554C9.975 22.525 12 20.221 12 19.433C12 17.396 10.874 17.642 6.955 20.533C1.593 24.489 1.927 21.294 7.355 16.712C9.91 14.556 12 12.164 12 11.396C12 9.404 10.857 9.654 7.016 12.488C5.161 13.857 3.488 14.821 3.298 14.631C2.205 13.539 5.035 10.408 11.106 5.992C14.898 3.234 18 0.758 18 0.489C18 0.22 13.95 0 9 0H0V23.5Z" fill="black"/>
<path fill-rule="evenodd" clip-rule="evenodd" d="M0 23.5C0 45.713 0.102001 47 1.853 47C3.464 47 3.646 46.372 3.246 42.205C2.853 38.115 3.169 36.953 5.392 34.31C9.144 29.852 8.934 27.895 4.934 30.035C1.133 32.069 2.879 28.34 7.5 24.554C9.975 22.525 12 20.221 12 19.433C12 17.396 10.874 17.642 6.955 20.533C1.593 24.489 1.927 21.294 7.355 16.712C9.91 14.556 12 12.164 12 11.396C12 9.404 10.857 9.654 7.016 12.488C5.161 13.857 3.488 14.821 3.298 14.631C2.205 13.539 5.035 10.408 11.106 5.992C14.898 3.234 18 0.758 18 0.489C18 0.22 13.95 0 9 0H0V23.5Z" fill="black"/>
<path fill-rule="evenodd" clip-rule="evenodd" d="M0 23.5C0 45.713 0.102001 47 1.853 47C3.464 47 3.646 46.372 3.246 42.205C2.853 38.115 3.169 36.953 5.392 34.31C9.144 29.852 8.934 27.895 4.934 30.035C1.133 32.069 2.879 28.34 7.5 24.554C9.975 22.525 12 20.221 12 19.433C12 17.396 10.874 17.642 6.955 20.533C1.593 24.489 1.927 21.294 7.355 16.712C9.91 14.556 12 12.164 12 11.396C12 9.404 10.857 9.654 7.016 12.488C5.161 13.857 3.488 14.821 3.298 14.631C2.205 13.539 5.035 10.408 11.106 5.992C14.898 3.234 18 0.758 18 0.489C18 0.22 13.95 0 9 0H0V23.5Z" fill="black"/>
<path fill-rule="evenodd" clip-rule="evenodd" d="M0 23.5C0 45.713 0.102001 47 1.853 47C3.464 47 3.646 46.372 3.246 42.205C2.853 38.115 3.169 36.953 5.392 34.31C9.144 29.852 8.934 27.895 4.934 30.035C1.133 32.069 2.879 28.34 7.5 24.554C9.975 22.525 12 20.221 12 19.433C12 17.396 10.874 17.642 6.955 20.533C1.593 24.489 1.927 21.294 7.355 16.712C9.91 14.556 12 12.164 12 11.396C12 9.404 10.857 9.654 7.016 12.488C5.161 13.857 3.488 14.821 3.298 14.631C2.205 13.539 5.035 10.408 11.106 5.992C14.898 3.234 18 0.758 18 0.489C18 0.22 13.95 0 9 0H0V23.5Z" fill="black"/>
<path fill-rule="evenodd" clip-rule="evenodd" d="M0 23.5C0 45.713 0.102001 47 1.853 47C3.464 47 3.646 46.372 3.246 42.205C2.853 38.115 3.169 36.953 5.392 34.31C9.144 29.852 8.934 27.895 4.934 30.035C1.133 32.069 2.879 28.34 7.5 24.554C9.975 22.525 12 20.221 12 19.433C12 17.396 10.874 17.642 6.955 20.533C1.593 24.489 1.927 21.294 7.355 16.712C9.91 14.556 12 12.164 12 11.396C12 9.404 10.857 9.654 7.016 12.488C5.161 13.857 3.488 14.821 3.298 14.631C2.205 13.539 5.035 10.408 11.106 5.992C14.898 3.234 18 0.758 18 0.489C18 0.22 13.95 0 9 0H0V23.5Z" fill="black"/>
<path fill-rule="evenodd" clip-rule="evenodd" d="M0 23.5C0 45.713 0.102001 47 1.853 47C3.464 47 3.646 46.372 3.246 42.205C2.853 38.115 3.169 36.953 5.392 34.31C9.144 29.852 8.934 27.895 4.934 30.035C1.133 32.069 2.879 28.34 7.5 24.554C9.975 22.525 12 20.221 12 19.433C12 17.396 10.874 17.642 6.955 20.533C1.593 24.489 1.927 21.294 7.355 16.712C9.91 14.556 12 12.164 12 11.396C12 9.404 10.857 9.654 7.016 12.488C5.161 13.857 3.488 14.821 3.298 14.631C2.205 13.539 5.035 10.408 11.106 5.992C14.898 3.234 18 0.758 18 0.489C18 0.22 13.95 0 9 0H0V23.5Z" fill="black"/>
<path fill-rule="evenodd" clip-rule="evenodd" d="M0 23.5C0 45.713 0.102001 47 1.853 47C3.464 47 3.646 46.372 3.246 42.205C2.853 38.115 3.169 36.953 5.392 34.31C9.144 29.852 8.934 27.895 4.934 30.035C1.133 32.069 2.879 28.34 7.5 24.554C9.975 22.525 12 20.221 12 19.433C12 17.396 10.874 17.642 6.955 20.533C1.593 24.489 1.927 21.294 7.355 16.712C9.91 14.556 12 12.164 12 11.396C12 9.404 10.857 9.654 7.016 12.488C5.161 13.857 3.488 14.821 3.298 14.631C2.205 13.539 5.035 10.408 11.106 5.992C14.898 3.234 18 0.758 18 0.489C18 0.22 13.95 0 9 0H0V23.5Z" fill="black"/>
<path fill-rule="evenodd" clip-rule="evenodd" d="M0 23.5C0 45.713 0.102001 47 1.853 47C3.464 47 3.646 46.372 3.246 42.205C2.853 38.115 3.169 36.953 5.392 34.31C9.144 29.852 8.934 27.895 4.934 30.035C1.133 32.069 2.879 28.34 7.5 24.554C9.975 22.525 12 20.221 12 19.433C12 17.396 10.874 17.642 6.955 20.533C1.593 24.489 1.927 21.294 7.355 16.712C9.91 14.556 12 12.164 12 11.396C12 9.404 10.857 9.654 7.016 12.488C5.161 13.857 3.488 14.821 3.298 14.631C2.205 13.539 5.035 10.408 11.106 5.992C14.898 3.234 18 0.758 18 0.489C18 0.22 13.95 0 9 0H0V23.5Z" fill="black"/>
</svg>
