<svg width="67" height="67" viewBox="0 0 67 67" fill="none" xmlns="http://www.w3.org/2000/svg">
<g clip-path="url(#clip0_9_25)">
<path d="M40.6667 0L32 0L32 23.7333V47.4667L28 50.4C23.0667 54.1333 22.6667 59.6 27.0667 63.7333C31.0667 67.4667 36.1334 67.4667 39.7334 63.6C44 59.0667 43.4667 54 38.6667 50.4L34.6667 47.4667V33.2L34.6667 18.9333L39.3334 16C41.8667 14.4 44 12.5333 44 11.8667C44 10 42.8 10.4 38.5334 13.4667C34.8 16.1333 34.6667 16.1333 34.6667 13.6C34.6667 12 37.3334 9.33333 42 6.13333C46 3.46667 49.3334 1.06667 49.3334 0.666667C49.3334 0.266667 45.4667 0 40.6667 0ZM37.8667 61.8667C33.8667 66 26.6667 63.0667 26.6667 57.3333C26.6667 54.1333 30.1334 50.6667 33.3334 50.6667C36.5334 50.6667 40 54.1333 40 57.3333C40 58.6667 39.0667 60.8 37.8667 61.8667Z" fill="black"/>
</g>
<defs>
<clipPath id="clip0_9_25">
<rect width="66.6667" height="66.6667" fill="white" transform="translate(66.6667) rotate(90)"/>
</clipPath>
</defs>
</svg>
