<svg width="18" height="47" viewBox="0 0 18 47" fill="none" xmlns="http://www.w3.org/2000/svg">
<path fill-rule="evenodd" clip-rule="evenodd" d="M0 23.5C0 43.722 0.209 47 1.5 47C2.761 47 3 44.796 3 33.168V19.335L6.669 16.918C8.687 15.588 10.808 13.734 11.383 12.798C13.208 9.829 11.14 9.581 7.308 12.308C5.272 13.756 3.46 14.793 3.28 14.613C2.205 13.539 5.072 10.381 11.106 5.992C14.898 3.234 18 0.758 18 0.489C18 0.22 13.95 0 9 0H0V23.5Z" fill="black"/>
<path fill-rule="evenodd" clip-rule="evenodd" d="M0 23.5C0 43.722 0.209 47 1.5 47C2.761 47 3 44.796 3 33.168V19.335L6.669 16.918C8.687 15.588 10.808 13.734 11.383 12.798C13.208 9.829 11.14 9.581 7.308 12.308C5.272 13.756 3.46 14.793 3.28 14.613C2.205 13.539 5.072 10.381 11.106 5.992C14.898 3.234 18 0.758 18 0.489C18 0.22 13.95 0 9 0H0V23.5Z" fill="black"/>
<path fill-rule="evenodd" clip-rule="evenodd" d="M0 23.5C0 43.722 0.209 47 1.5 47C2.761 47 3 44.796 3 33.168V19.335L6.669 16.918C8.687 15.588 10.808 13.734 11.383 12.798C13.208 9.829 11.14 9.581 7.308 12.308C5.272 13.756 3.46 14.793 3.28 14.613C2.205 13.539 5.072 10.381 11.106 5.992C14.898 3.234 18 0.758 18 0.489C18 0.22 13.95 0 9 0H0V23.5Z" fill="black"/>
<path fill-rule="evenodd" clip-rule="evenodd" d="M0 23.5C0 43.722 0.209 47 1.5 47C2.761 47 3 44.796 3 33.168V19.335L6.669 16.918C8.687 15.588 10.808 13.734 11.383 12.798C13.208 9.829 11.14 9.581 7.308 12.308C5.272 13.756 3.46 14.793 3.28 14.613C2.205 13.539 5.072 10.381 11.106 5.992C14.898 3.234 18 0.758 18 0.489C18 0.22 13.95 0 9 0H0V23.5Z" fill="black"/>
<path fill-rule="evenodd" clip-rule="evenodd" d="M0 23.5C0 43.722 0.209 47 1.5 47C2.761 47 3 44.796 3 33.168V19.335L6.669 16.918C8.687 15.588 10.808 13.734 11.383 12.798C13.208 9.829 11.14 9.581 7.308 12.308C5.272 13.756 3.46 14.793 3.28 14.613C2.205 13.539 5.072 10.381 11.106 5.992C14.898 3.234 18 0.758 18 0.489C18 0.22 13.95 0 9 0H0V23.5Z" fill="black"/>
<path fill-rule="evenodd" clip-rule="evenodd" d="M0 23.5C0 43.722 0.209 47 1.5 47C2.761 47 3 44.796 3 33.168V19.335L6.669 16.918C8.687 15.588 10.808 13.734 11.383 12.798C13.208 9.829 11.14 9.581 7.308 12.308C5.272 13.756 3.46 14.793 3.28 14.613C2.205 13.539 5.072 10.381 11.106 5.992C14.898 3.234 18 0.758 18 0.489C18 0.22 13.95 0 9 0H0V23.5Z" fill="black"/>
<path fill-rule="evenodd" clip-rule="evenodd" d="M0 23.5C0 43.722 0.209 47 1.5 47C2.761 47 3 44.796 3 33.168V19.335L6.669 16.918C8.687 15.588 10.808 13.734 11.383 12.798C13.208 9.829 11.14 9.581 7.308 12.308C5.272 13.756 3.46 14.793 3.28 14.613C2.205 13.539 5.072 10.381 11.106 5.992C14.898 3.234 18 0.758 18 0.489C18 0.22 13.95 0 9 0H0V23.5Z" fill="black"/>
<path fill-rule="evenodd" clip-rule="evenodd" d="M0 23.5C0 43.722 0.209 47 1.5 47C2.761 47 3 44.796 3 33.168V19.335L6.669 16.918C8.687 15.588 10.808 13.734 11.383 12.798C13.208 9.829 11.14 9.581 7.308 12.308C5.272 13.756 3.46 14.793 3.28 14.613C2.205 13.539 5.072 10.381 11.106 5.992C14.898 3.234 18 0.758 18 0.489C18 0.22 13.95 0 9 0H0V23.5Z" fill="black"/>
</svg>
