<svg width="18" height="47" viewBox="0 0 18 47" fill="none" xmlns="http://www.w3.org/2000/svg">
<path fill-rule="evenodd" clip-rule="evenodd" d="M0 23.5C0 45.214 0.133 47 1.75 47.001C3.314 47.001 3.463 46.038 3.149 37.955L2.798 28.909L7.399 24.775C14.036 18.811 13.696 15.56 6.955 20.533C1.593 24.489 1.927 21.294 7.355 16.712C9.91 14.556 12 12.164 12 11.396C12 9.404 10.857 9.654 7.016 12.488C5.161 13.857 3.488 14.821 3.298 14.631C2.205 13.539 5.035 10.408 11.106 5.992C14.898 3.234 18 0.758 18 0.489C18 0.22 13.95 0 9 0H0V23.5Z" fill="black"/>
<path fill-rule="evenodd" clip-rule="evenodd" d="M0 23.5C0 45.214 0.133 47 1.75 47.001C3.314 47.001 3.463 46.038 3.149 37.955L2.798 28.909L7.399 24.775C14.036 18.811 13.696 15.56 6.955 20.533C1.593 24.489 1.927 21.294 7.355 16.712C9.91 14.556 12 12.164 12 11.396C12 9.404 10.857 9.654 7.016 12.488C5.161 13.857 3.488 14.821 3.298 14.631C2.205 13.539 5.035 10.408 11.106 5.992C14.898 3.234 18 0.758 18 0.489C18 0.22 13.95 0 9 0H0V23.5Z" fill="black"/>
<path fill-rule="evenodd" clip-rule="evenodd" d="M0 23.5C0 45.214 0.133 47 1.75 47.001C3.314 47.001 3.463 46.038 3.149 37.955L2.798 28.909L7.399 24.775C14.036 18.811 13.696 15.56 6.955 20.533C1.593 24.489 1.927 21.294 7.355 16.712C9.91 14.556 12 12.164 12 11.396C12 9.404 10.857 9.654 7.016 12.488C5.161 13.857 3.488 14.821 3.298 14.631C2.205 13.539 5.035 10.408 11.106 5.992C14.898 3.234 18 0.758 18 0.489C18 0.22 13.95 0 9 0H0V23.5Z" fill="black"/>
<path fill-rule="evenodd" clip-rule="evenodd" d="M0 23.5C0 45.214 0.133 47 1.75 47.001C3.314 47.001 3.463 46.038 3.149 37.955L2.798 28.909L7.399 24.775C14.036 18.811 13.696 15.56 6.955 20.533C1.593 24.489 1.927 21.294 7.355 16.712C9.91 14.556 12 12.164 12 11.396C12 9.404 10.857 9.654 7.016 12.488C5.161 13.857 3.488 14.821 3.298 14.631C2.205 13.539 5.035 10.408 11.106 5.992C14.898 3.234 18 0.758 18 0.489C18 0.22 13.95 0 9 0H0V23.5Z" fill="black"/>
<path fill-rule="evenodd" clip-rule="evenodd" d="M0 23.5C0 45.214 0.133 47 1.75 47.001C3.314 47.001 3.463 46.038 3.149 37.955L2.798 28.909L7.399 24.775C14.036 18.811 13.696 15.56 6.955 20.533C1.593 24.489 1.927 21.294 7.355 16.712C9.91 14.556 12 12.164 12 11.396C12 9.404 10.857 9.654 7.016 12.488C5.161 13.857 3.488 14.821 3.298 14.631C2.205 13.539 5.035 10.408 11.106 5.992C14.898 3.234 18 0.758 18 0.489C18 0.22 13.95 0 9 0H0V23.5Z" fill="black"/>
<path fill-rule="evenodd" clip-rule="evenodd" d="M0 23.5C0 45.214 0.133 47 1.75 47.001C3.314 47.001 3.463 46.038 3.149 37.955L2.798 28.909L7.399 24.775C14.036 18.811 13.696 15.56 6.955 20.533C1.593 24.489 1.927 21.294 7.355 16.712C9.91 14.556 12 12.164 12 11.396C12 9.404 10.857 9.654 7.016 12.488C5.161 13.857 3.488 14.821 3.298 14.631C2.205 13.539 5.035 10.408 11.106 5.992C14.898 3.234 18 0.758 18 0.489C18 0.22 13.95 0 9 0H0V23.5Z" fill="black"/>
<path fill-rule="evenodd" clip-rule="evenodd" d="M0 23.5C0 45.214 0.133 47 1.75 47.001C3.314 47.001 3.463 46.038 3.149 37.955L2.798 28.909L7.399 24.775C14.036 18.811 13.696 15.56 6.955 20.533C1.593 24.489 1.927 21.294 7.355 16.712C9.91 14.556 12 12.164 12 11.396C12 9.404 10.857 9.654 7.016 12.488C5.161 13.857 3.488 14.821 3.298 14.631C2.205 13.539 5.035 10.408 11.106 5.992C14.898 3.234 18 0.758 18 0.489C18 0.22 13.95 0 9 0H0V23.5Z" fill="black"/>
<path fill-rule="evenodd" clip-rule="evenodd" d="M0 23.5C0 45.214 0.133 47 1.75 47.001C3.314 47.001 3.463 46.038 3.149 37.955L2.798 28.909L7.399 24.775C14.036 18.811 13.696 15.56 6.955 20.533C1.593 24.489 1.927 21.294 7.355 16.712C9.91 14.556 12 12.164 12 11.396C12 9.404 10.857 9.654 7.016 12.488C5.161 13.857 3.488 14.821 3.298 14.631C2.205 13.539 5.035 10.408 11.106 5.992C14.898 3.234 18 0.758 18 0.489C18 0.22 13.95 0 9 0H0V23.5Z" fill="black"/>
</svg>
