<svg width="300" height="225" viewBox="0 0 300 225" fill="none" xmlns="http://www.w3.org/2000/svg">
<path fill-rule="evenodd" clip-rule="evenodd" d="M221.75 0.427299C220.787 0.709299 220 1.3263 220 1.7993C220 2.2723 218.988 2.9633 217.75 3.3363C216.512 3.7093 213.98 5.4263 212.122 7.1533C209.898 9.2203 208.589 9.8663 208.289 9.0433C207.752 7.5693 194 7.2523 194 8.7143C194 9.2203 192.724 9.9143 191.165 10.2573C187.545 11.0523 181.11 17.8083 179.944 22.0373L179.046 25.2933L168.461 24.9503C156.126 24.5513 153.431 25.0353 152.713 27.7823C151.953 30.6903 144.057 30.7263 143.298 27.8263C143.016 26.7443 141.856 25.5653 140.721 25.2043C139.587 24.8443 128.939 24.8733 117.061 25.2693L95.463 25.9873L93.853 22.6103C90.289 15.1383 78.53 10.8133 69.701 13.7273C64.825 15.3363 59.313 20.8223 57.844 25.5273L56.616 29.4643L45.55 30.6183C32.593 31.9683 18 34.7433 18 35.8563C18 36.2843 16.671 36.9263 15.047 37.2833C11.433 38.0763 7 41.4283 7 43.3663C7 44.1513 6.55 44.7933 6 44.7933C4.703 44.7933 4.71 47.5313 6.011 49.0853C6.567 49.7493 7.91 51.4803 8.995 52.9313C10.08 54.3813 12.208 55.8793 13.724 56.2603C15.24 56.6403 16.709 57.3023 16.99 57.7303C17.683 58.7883 38.631 62.5433 48.5 63.3783C52.9 63.7503 56.736 64.4213 57.025 64.8693C57.314 65.3163 63.975 66.0013 71.829 66.3893C85.886 67.0853 86.117 67.0633 86.671 64.9453C87.139 63.1533 87.971 62.7933 91.641 62.7933C95.371 62.7933 96.19 63.1613 96.96 65.1873C97.839 67.4993 98.345 67.6073 111.685 68.3303C139.319 69.8273 236.217 67.1493 238 64.8393C238.275 64.4833 243.675 63.6313 250 62.9453C263.674 61.4643 276.369 58.9873 276.833 57.7103C277.017 57.2053 277.847 56.7933 278.679 56.7933C280.89 56.7933 286 53.5603 286 52.1613C286 51.5003 286.525 50.7853 287.167 50.5713C287.808 50.3573 288.333 48.7413 288.333 46.9793C288.333 42.9283 284.883 39.1383 279.81 37.6183C277.714 36.9903 276 36.1393 276 35.7273C276 35.3153 271.761 34.2153 266.58 33.2823L257.159 31.5863L257.684 28.3513C258.396 23.9663 256.221 14.0143 254.084 11.8773C253.129 10.9223 252.059 9.3903 251.707 8.4723C251.355 7.5553 249.59 5.9293 247.784 4.8583C245.978 3.7873 243.854 2.3403 243.065 1.6403C241.61 0.3503 225.202 -0.582701 221.75 0.427299ZM261.542 67.8993C259.365 68.4213 257.234 69.3983 256.807 70.0713C255.377 72.3223 255.98 76.3323 258.011 78.0713C260.092 79.8523 264 80.4293 264 78.9553C264 78.4943 266.58 77.7063 269.734 77.2053C274.753 76.4073 275.589 75.9443 276.445 73.4903C277.958 69.1543 276.222 67.3263 270.397 67.1213C267.704 67.0273 263.719 67.3773 261.542 67.8993ZM241.5 71.3173C238.821 72.2993 208.081 73.9853 178.31 74.7833C146.76 75.6293 145.018 75.7753 143.06 77.7333C140.538 80.2553 140.515 81.6323 142.944 84.5433C144.77 86.7323 145.336 86.7933 163.91 86.7933C174.41 86.7933 183 86.4143 183 85.9513C183 85.4883 192.338 84.7813 203.75 84.3803C215.162 83.9793 229.884 83.1203 236.465 82.4723C247.798 81.3553 248.508 81.1543 249.906 78.6583C251.228 76.2963 251.204 75.7533 249.667 73.4083C248.068 70.9663 244.766 70.1213 241.5 71.3173ZM98.25 89.4403C97.013 89.7113 96 90.3513 96 90.8633C96 91.3743 95.382 91.7933 94.626 91.7933C91.971 91.7933 84.314 96.8093 83.185 99.2873C82.557 100.665 81.583 101.793 81.021 101.793C80.46 101.793 80 102.468 80 103.293C80 104.422 78.791 104.793 75.115 104.793C72.428 104.793 67.919 105.539 65.095 106.451C58.248 108.663 52.844 115.755 52.207 123.366L51.782 128.44L44.391 129.682C40.326 130.365 37 131.291 37 131.74C37 132.188 35.088 133.061 32.75 133.679C25.533 135.586 22.359 139.562 23.442 145.338C24.077 148.722 28.906 152.793 32.285 152.793C33.136 152.793 33.988 153.256 34.176 153.822C34.606 155.11 50.3 158.373 60.685 159.333C64.983 159.73 68.725 160.385 69 160.789C69.541 161.582 96.094 163.739 107.5 163.916C111.35 163.976 113.6 164.221 112.5 164.461C111.4 164.7 109.6 165.297 108.5 165.788C107.4 166.278 99.355 166.839 90.623 167.035C75.687 167.369 74.639 167.52 72.962 169.591C70.802 172.259 66.022 172.509 62.412 170.144C60.286 168.75 58.153 168.594 48.667 169.135C35.67 169.878 20.948 171.698 19.5 172.742C18.95 173.138 15.425 174.272 11.667 175.261C3.136 177.507 0 180.492 0 186.367C0 193.869 6.439 197.249 25.975 200.002C30.664 200.663 34.725 201.507 35 201.877C36.349 203.692 94.295 206.769 127 206.763C160.823 206.756 216.936 203.752 219.5 201.811C220.05 201.394 223.219 200.758 226.543 200.397C235.703 199.402 247.623 196.312 249.485 194.451C250.397 193.539 251.77 192.793 252.536 192.793C255.714 192.793 257.165 184.911 254.608 181.543C253.877 180.58 252.767 179.793 252.14 179.793C251.513 179.793 251 179.415 251 178.954C251 177.715 247.205 176.2 240.467 174.748C237.185 174.041 234.05 173.137 233.5 172.74C232.95 172.342 230.183 171.706 227.352 171.325C222.526 170.677 222.173 170.435 221.72 167.463C221.455 165.72 221.297 164.217 221.371 164.124C221.444 164.031 228.929 163.409 238.002 162.742C247.076 162.074 254.725 161.228 255 160.86C255.275 160.492 260.225 159.619 266 158.918C278.939 157.349 289.672 155.153 291.285 153.746C291.953 153.163 294.075 151.923 296 150.99C298.992 149.539 299.546 148.726 299.82 145.388C300.365 138.725 299.397 136.885 294.219 134.744C291.623 133.671 288.761 132.37 287.858 131.852C285.654 130.589 272.89 128.267 259.854 126.759L249.208 125.527L248.054 119.66C247.419 116.433 246.527 113.793 246.071 113.793C245.615 113.793 244.669 112.408 243.968 110.716C243.267 109.023 241.532 106.885 240.113 105.966C238.694 105.046 236.794 103.561 235.891 102.667C231.298 98.1213 211.59 98.5133 206.786 103.246C203.088 106.889 200.49 107.822 195.82 107.182C189.269 106.284 183.304 108.313 178.842 112.957C176.727 115.159 174.723 118.048 174.39 119.377C173.801 121.723 173.503 121.793 164.142 121.793H154.5L151.625 118.19C148.295 114.017 143.655 111.793 138.276 111.793C134.707 111.793 134.412 111.552 133.191 107.641C131.004 100.633 121.742 91.7933 116.587 91.7933C115.806 91.7933 114.999 91.2903 114.794 90.6753C114.401 89.4963 102.172 88.5843 98.25 89.4403ZM34.375 211.523C31.474 214.652 31.425 215.56 34.037 217.825C35.406 219.012 38.647 219.819 43.926 220.286C53.623 221.145 56 220.17 56 215.335C56 212.384 55.582 211.821 52.75 210.958C50.962 210.413 46.631 209.74 43.125 209.463C37.245 208.999 36.565 209.159 34.375 211.523ZM209 209.825C205.425 210.262 195.412 210.95 186.75 211.354C178.088 211.758 171 212.472 171 212.941C171 214.183 84.269 214.037 83.5 212.793C83.159 212.241 78.656 211.793 73.441 211.793C65.333 211.793 63.718 212.075 62 213.793C59.517 216.276 59.526 217.644 62.042 220.665C64.007 223.023 64.195 223.042 95.596 224.11C119.43 224.92 136.038 224.877 163.312 223.934C183.187 223.247 199.685 222.321 199.974 221.876C200.263 221.431 204.775 220.739 210 220.339C215.225 219.939 220.063 219.147 220.75 218.58C222.12 217.449 222.405 212.977 221.225 211.122C220.101 209.356 216.212 208.944 209 209.825Z" fill="#C8CCCE"/>
<path fill-rule="evenodd" clip-rule="evenodd" d="M221.75 0.427299C220.787 0.709299 220 1.3263 220 1.7993C220 2.2723 218.988 2.9633 217.75 3.3363C216.512 3.7093 213.98 5.4263 212.122 7.1533C209.898 9.2203 208.589 9.8663 208.289 9.0433C207.752 7.5693 194 7.2523 194 8.7143C194 9.2203 192.724 9.9143 191.165 10.2573C187.545 11.0523 181.11 17.8083 179.944 22.0373L179.047 25.2933L167.273 25.0133C160.798 24.8593 154.881 25.1453 154.125 25.6493C152.23 26.9123 152.398 31.6193 154.409 33.6323C155.767 34.9913 158.707 35.3563 170.6 35.6383C183.343 35.9413 185.37 35.7683 187.066 34.2333C188.13 33.2713 189 31.4573 189 30.2033C189 21.3943 198.812 16.0593 207.116 20.3533C211.405 22.5713 215.207 21.8763 216.776 18.5873C218.091 15.8303 222.921 11.7933 224.904 11.7933C225.507 11.7933 226 11.3433 226 10.7933C226 10.2433 227.912 9.8003 230.25 9.8093C235.58 9.8303 241.655 13.1683 244.809 17.8083C246.817 20.7643 247.097 22.1293 246.647 26.7933C246.356 29.8183 245.84 33.4183 245.501 34.7933C244.394 39.2723 246.628 40.6883 257.5 42.3993C263 43.2653 267.928 44.3833 268.45 44.8833C268.972 45.3843 270.21 45.7933 271.2 45.7933C272.19 45.7933 273 46.1613 273 46.6103C273 48.1353 262.028 50.8963 250.239 52.3383C243.783 53.1283 233.1 54.4443 226.5 55.2633C209.08 57.4253 162.012 59.0393 128.037 58.6393C99.024 58.2983 98.559 58.3253 97.53 60.3743C96.955 61.5183 95.914 62.3393 95.217 62.1993C94.499 62.0543 94.422 62.1733 95.04 62.4733C95.639 62.7643 96.521 64.0333 97 65.2923C97.828 67.4713 98.535 67.6173 111.685 68.3303C139.319 69.8273 236.217 67.1493 238 64.8393C238.275 64.4833 243.675 63.6313 250 62.9453C263.674 61.4643 276.369 58.9873 276.833 57.7103C277.017 57.2053 277.847 56.7933 278.679 56.7933C280.89 56.7933 286 53.5603 286 52.1613C286 51.5003 286.525 50.7853 287.167 50.5713C287.808 50.3573 288.333 48.7413 288.333 46.9793C288.333 42.9283 284.883 39.1383 279.81 37.6183C277.714 36.9903 276 36.1393 276 35.7273C276 35.3153 271.761 34.2153 266.58 33.2823L257.159 31.5863L257.684 28.3513C258.396 23.9663 256.221 14.0143 254.084 11.8773C253.129 10.9223 252.059 9.3903 251.707 8.4723C251.355 7.5553 249.59 5.9293 247.784 4.8583C245.978 3.7873 243.854 2.3403 243.065 1.6403C241.61 0.3503 225.202 -0.582701 221.75 0.427299ZM68.83 13.8763C64.583 15.5153 59.181 21.2443 57.844 25.5273L56.616 29.4643L45.55 30.6183C32.593 31.9683 18 34.7433 18 35.8563C18 36.2843 16.671 36.9263 15.047 37.2833C11.433 38.0763 7 41.4283 7 43.3663C7 44.1513 6.55 44.7933 6 44.7933C4.703 44.7933 4.71 47.5313 6.011 49.0853C6.567 49.7493 7.91 51.4803 8.995 52.9313C10.08 54.3813 12.208 55.8793 13.724 56.2603C15.24 56.6403 16.709 57.3023 16.99 57.7303C17.683 58.7883 38.631 62.5433 48.5 63.3783C52.9 63.7503 56.747 64.4393 57.049 64.9083C57.351 65.3763 64.101 65.8803 72.049 66.0273L86.5 66.2933L86.801 62.7073C86.975 60.6273 86.555 58.6893 85.801 58.0903C85.085 57.5233 77.3 56.2903 68.5 55.3503C38.053 52.1003 20 48.9413 20 46.8623C20 45.0393 31.753 42.5353 50.601 40.3433C64.155 38.7673 67 37.3583 67 32.2243C67 26.0713 73.589 21.5403 79.707 23.4863C81.71 24.1223 83.243 25.8883 85.127 29.7253C86.573 32.6683 88.373 35.3923 89.127 35.7773C91.339 36.9053 140.813 35.3803 142.048 34.1453C143.631 32.5623 143.534 26.7563 141.905 25.6393C141.036 25.0433 131.905 24.9213 117.976 25.3203L95.452 25.9653L93.847 22.5993C91.237 17.1243 84.916 13.4233 77.644 13.1103C74.265 12.9653 70.298 13.3093 68.83 13.8763ZM89 61.8873C89 62.3853 89.9 62.7933 91 62.7933C92.1 62.7933 93 62.6203 93 62.4103C93 62.1993 92.1 61.7913 91 61.5033C89.9 61.2163 89 61.3883 89 61.8873ZM261.542 67.8993C259.365 68.4213 257.234 69.3983 256.807 70.0713C255.377 72.3223 255.98 76.3323 258.011 78.0713C260.092 79.8523 264 80.4293 264 78.9553C264 78.4943 266.58 77.7063 269.734 77.2053C274.753 76.4073 275.589 75.9443 276.445 73.4903C277.958 69.1543 276.222 67.3263 270.397 67.1213C267.704 67.0273 263.719 67.3773 261.542 67.8993ZM241.5 71.3173C238.821 72.2993 208.081 73.9853 178.31 74.7833C146.76 75.6293 145.018 75.7753 143.06 77.7333C140.538 80.2553 140.515 81.6323 142.944 84.5433C144.77 86.7323 145.336 86.7933 163.91 86.7933C174.41 86.7933 183 86.4143 183 85.9513C183 85.4883 192.338 84.7813 203.75 84.3803C215.162 83.9793 229.884 83.1203 236.465 82.4723C247.798 81.3553 248.508 81.1543 249.906 78.6583C251.228 76.2963 251.204 75.7533 249.667 73.4083C248.068 70.9663 244.766 70.1213 241.5 71.3173ZM98.25 89.4403C97.013 89.7113 96 90.3513 96 90.8633C96 91.3743 95.382 91.7933 94.626 91.7933C91.971 91.7933 84.314 96.8093 83.185 99.2873C82.557 100.665 81.583 101.793 81.021 101.793C80.46 101.793 80 102.468 80 103.293C80 104.422 78.791 104.793 75.115 104.793C72.428 104.793 67.919 105.539 65.095 106.451C58.248 108.663 52.844 115.755 52.207 123.366L51.782 128.44L44.391 129.682C40.326 130.365 37 131.291 37 131.74C37 132.188 35.088 133.061 32.75 133.679C25.533 135.586 22.359 139.562 23.442 145.338C24.077 148.722 28.906 152.793 32.285 152.793C33.136 152.793 33.988 153.256 34.176 153.822C34.606 155.11 50.3 158.373 60.685 159.333C64.983 159.73 68.725 160.385 69 160.789C69.541 161.582 96.094 163.739 107.5 163.916C111.35 163.976 113.6 164.221 112.5 164.461C111.4 164.7 109.6 165.297 108.5 165.788C107.4 166.278 99.355 166.839 90.623 167.035C75.687 167.369 74.639 167.52 72.962 169.591C70.802 172.259 66.022 172.509 62.412 170.144C60.286 168.75 58.153 168.594 48.667 169.135C35.67 169.878 20.948 171.698 19.5 172.742C18.95 173.138 15.425 174.272 11.667 175.261C3.136 177.507 0 180.492 0 186.367C0 193.869 6.439 197.249 25.975 200.002C30.664 200.663 34.725 201.507 35 201.877C36.349 203.692 94.295 206.769 127 206.763C160.823 206.756 216.936 203.752 219.5 201.811C220.05 201.394 223.219 200.758 226.543 200.397C235.703 199.402 247.623 196.312 249.485 194.451C250.397 193.539 251.77 192.793 252.536 192.793C255.714 192.793 257.165 184.911 254.608 181.543C253.877 180.58 252.767 179.793 252.14 179.793C251.513 179.793 251 179.415 251 178.954C251 177.715 247.205 176.2 240.467 174.748C237.185 174.041 234.05 173.137 233.5 172.74C232.95 172.342 230.183 171.706 227.352 171.325C222.526 170.677 222.173 170.435 221.72 167.463C221.455 165.72 221.297 164.217 221.371 164.124C221.444 164.031 228.929 163.409 238.002 162.742C247.076 162.074 254.725 161.228 255 160.86C255.275 160.492 260.225 159.619 266 158.918C278.939 157.349 289.672 155.153 291.285 153.746C291.953 153.163 294.075 151.923 296 150.99C298.992 149.539 299.546 148.726 299.82 145.388C300.365 138.725 299.397 136.885 294.219 134.744C291.623 133.671 288.761 132.37 287.858 131.852C285.654 130.589 272.89 128.267 259.854 126.759L249.208 125.527L248.054 119.66C247.419 116.433 246.527 113.793 246.071 113.793C245.615 113.793 244.669 112.408 243.968 110.716C243.267 109.023 241.532 106.885 240.113 105.966C238.694 105.046 236.794 103.561 235.891 102.667C231.298 98.1213 211.59 98.5133 206.786 103.246C203.088 106.889 200.49 107.822 195.82 107.182C189.269 106.284 183.304 108.313 178.842 112.957C176.727 115.159 174.723 118.048 174.39 119.377C173.801 121.723 173.503 121.793 164.142 121.793H154.5L151.625 118.19C148.295 114.017 143.655 111.793 138.276 111.793C134.707 111.793 134.412 111.552 133.191 107.641C131.004 100.633 121.742 91.7933 116.587 91.7933C115.806 91.7933 114.999 91.2903 114.794 90.6753C114.401 89.4963 102.172 88.5843 98.25 89.4403ZM168.917 146.145C168.688 146.338 167.037 146.989 165.25 147.593C161.585 148.829 160.787 148.216 164.25 146.824C166.465 145.934 169.73 145.458 168.917 146.145ZM176.442 147.7C176.751 148.198 176.102 148.371 175.001 148.083C172.666 147.472 172.371 146.793 174.441 146.793C175.234 146.793 176.134 147.201 176.442 147.7ZM183.128 152.543C184.371 154.129 184.336 154.164 182.75 152.921C181.084 151.614 180.555 150.793 181.378 150.793C181.585 150.793 182.373 151.58 183.128 152.543ZM151.5 160.793C150.505 161.893 148.747 162.732 147.595 162.657C145.559 162.524 145.561 162.509 147.677 162.097C148.875 161.864 150.393 161.025 151.05 160.233C151.707 159.441 152.485 158.793 152.777 158.793C153.07 158.793 152.495 159.693 151.5 160.793ZM138 160.178C138 160.39 136.762 161.316 135.25 162.237L132.5 163.912L134.861 161.852C137.165 159.843 138 159.397 138 160.178ZM202.729 161.397C202.397 161.729 201.534 161.765 200.813 161.476C200.015 161.157 200.252 160.92 201.417 160.872C202.471 160.829 203.061 161.065 202.729 161.397ZM210.548 166.886C211.428 168.587 211.97 170.156 211.753 170.373C211.536 170.59 210.61 169.199 209.695 167.28C207.639 162.968 208.351 162.638 210.548 166.886ZM131.345 166.336C131.019 167.185 130.538 167.665 130.276 167.403C130.014 167.141 130.096 166.446 130.459 165.86C131.445 164.264 132.021 164.574 131.345 166.336ZM74.511 175.793L76.5 178.293L74.25 176.388C73.013 175.34 72 174.028 72 173.471C72 172.915 72.117 172.647 72.261 172.876C72.404 173.106 73.417 174.418 74.511 175.793ZM211.5 175.243C211.5 176.659 211.128 177.321 210.617 176.81C210.132 176.325 210.005 175.222 210.336 174.36C211.18 172.161 211.5 172.404 211.5 175.243ZM119.784 176.527C117.189 176.732 112.689 176.734 109.784 176.531C106.878 176.329 109 176.161 114.5 176.158C120 176.156 122.378 176.321 119.784 176.527ZM88.25 177.499C87.013 177.737 84.987 177.737 83.75 177.499C82.513 177.26 83.525 177.065 86 177.065C88.475 177.065 89.487 177.26 88.25 177.499ZM52.729 179.397C52.397 179.729 51.534 179.765 50.813 179.476C50.015 179.157 50.252 178.92 51.417 178.872C52.471 178.829 53.061 179.065 52.729 179.397ZM33.269 181.449C32.592 181.723 31.242 181.74 30.269 181.486C29.296 181.232 29.85 181.008 31.5 180.988C33.15 180.968 33.946 181.175 33.269 181.449ZM225.5 181.793C229.659 182.851 225.566 182.898 220.5 181.85C217.137 181.155 216.978 181.024 219.5 181.026C221.15 181.028 223.85 181.373 225.5 181.793ZM27.25 182.455C26.563 182.733 25.438 182.733 24.75 182.455C24.063 182.178 24.625 181.951 26 181.951C27.375 181.951 27.938 182.178 27.25 182.455ZM231.729 183.397C231.397 183.729 230.534 183.765 229.813 183.476C229.015 183.157 229.252 182.92 230.417 182.872C231.471 182.829 232.061 183.065 231.729 183.397ZM30.729 190.397C30.397 190.729 29.534 190.765 28.813 190.476C28.015 190.157 28.252 189.92 29.417 189.872C30.471 189.829 31.061 190.065 30.729 190.397ZM41.5 191.793C44.176 192.474 44.23 192.556 42 192.556C40.625 192.556 38.15 192.213 36.5 191.793C33.824 191.112 33.77 191.03 36 191.03C37.375 191.03 39.85 191.373 41.5 191.793ZM218 191.793C216.625 192.233 214.375 192.585 213 192.575C210.754 192.558 210.805 192.479 213.5 191.793C215.15 191.373 217.4 191.021 218.5 191.011C220.067 190.996 219.959 191.166 218 191.793ZM206.729 193.397C206.397 193.729 205.534 193.765 204.813 193.476C204.015 193.157 204.252 192.92 205.417 192.872C206.471 192.829 207.061 193.065 206.729 193.397ZM80.269 195.449C79.592 195.723 78.242 195.74 77.269 195.486C76.296 195.232 76.85 195.008 78.5 194.988C80.15 194.968 80.946 195.175 80.269 195.449ZM177.269 195.449C176.592 195.723 175.242 195.74 174.269 195.486C173.296 195.232 173.85 195.008 175.5 194.988C177.15 194.968 177.946 195.175 177.269 195.449ZM140.191 196.541C132.871 196.712 121.171 196.711 114.191 196.54C107.211 196.368 113.2 196.228 127.5 196.229C141.8 196.229 147.511 196.37 140.191 196.541ZM34.375 211.523C31.474 214.652 31.425 215.56 34.037 217.825C35.406 219.012 38.647 219.819 43.926 220.286C53.623 221.145 56 220.17 56 215.335C56 212.384 55.582 211.821 52.75 210.958C50.962 210.413 46.631 209.74 43.125 209.463C37.245 208.999 36.565 209.159 34.375 211.523ZM209 209.825C205.425 210.262 195.412 210.95 186.75 211.354C178.088 211.758 171 212.472 171 212.941C171 214.183 84.269 214.037 83.5 212.793C83.159 212.241 78.656 211.793 73.441 211.793C65.333 211.793 63.718 212.075 62 213.793C59.517 216.276 59.526 217.644 62.042 220.665C64.007 223.023 64.195 223.042 95.596 224.11C119.43 224.92 136.038 224.877 163.312 223.934C183.187 223.247 199.685 222.321 199.974 221.876C200.263 221.431 204.775 220.739 210 220.339C215.225 219.939 220.063 219.147 220.75 218.58C222.12 217.449 222.405 212.977 221.225 211.122C220.101 209.356 216.212 208.944 209 209.825Z" fill="#F0F5F7"/>
<path fill-rule="evenodd" clip-rule="evenodd" d="M221.75 0.427299C220.787 0.709299 220 1.3263 220 1.7993C220 2.2723 218.988 2.9633 217.75 3.3363C216.512 3.7093 213.98 5.4263 212.122 7.1533C209.898 9.2203 208.589 9.8663 208.289 9.0433C207.752 7.5693 194 7.2523 194 8.7143C194 9.2203 192.724 9.9143 191.165 10.2573C187.545 11.0523 181.11 17.8083 179.944 22.0373L179.047 25.2933L167.273 25.0133C160.798 24.8593 154.881 25.1453 154.125 25.6493C152.23 26.9123 152.398 31.6193 154.409 33.6323C155.767 34.9913 158.707 35.3563 170.6 35.6383C183.343 35.9413 185.37 35.7683 187.066 34.2333C188.13 33.2713 189 31.4573 189 30.2033C189 21.3943 198.812 16.0593 207.116 20.3533C211.405 22.5713 215.207 21.8763 216.776 18.5873C218.091 15.8303 222.921 11.7933 224.904 11.7933C225.507 11.7933 226 11.3433 226 10.7933C226 10.2433 227.912 9.8003 230.25 9.8093C235.58 9.8303 241.655 13.1683 244.809 17.8083C246.817 20.7643 247.097 22.1293 246.647 26.7933C246.356 29.8183 245.84 33.4183 245.501 34.7933C244.394 39.2723 246.628 40.6883 257.5 42.3993C263 43.2653 267.928 44.3833 268.45 44.8833C268.972 45.3843 270.21 45.7933 271.2 45.7933C272.19 45.7933 273 46.1613 273 46.6103C273 48.1353 262.028 50.8963 250.239 52.3383C243.783 53.1283 233.1 54.4443 226.5 55.2633C209.08 57.4253 162.012 59.0393 128.037 58.6393C99.024 58.2983 98.559 58.3253 97.53 60.3743C96.955 61.5183 95.914 62.3393 95.217 62.1993C94.499 62.0543 94.422 62.1733 95.04 62.4733C95.639 62.7643 96.521 64.0333 97 65.2923C97.828 67.4713 98.535 67.6173 111.685 68.3303C139.319 69.8273 236.217 67.1493 238 64.8393C238.275 64.4833 243.675 63.6313 250 62.9453C263.674 61.4643 276.369 58.9873 276.833 57.7103C277.017 57.2053 277.847 56.7933 278.679 56.7933C280.89 56.7933 286 53.5603 286 52.1613C286 51.5003 286.525 50.7853 287.167 50.5713C287.808 50.3573 288.333 48.7413 288.333 46.9793C288.333 42.9283 284.883 39.1383 279.81 37.6183C277.714 36.9903 276 36.1393 276 35.7273C276 35.3153 271.761 34.2153 266.58 33.2823L257.159 31.5863L257.684 28.3513C258.396 23.9663 256.221 14.0143 254.084 11.8773C253.129 10.9223 252.059 9.3903 251.707 8.4723C251.355 7.5553 249.59 5.9293 247.784 4.8583C245.978 3.7873 243.854 2.3403 243.065 1.6403C241.61 0.3503 225.202 -0.582701 221.75 0.427299ZM68.83 13.8763C64.583 15.5153 59.181 21.2443 57.844 25.5273L56.616 29.4643L45.55 30.6183C32.593 31.9683 18 34.7433 18 35.8563C18 36.2843 16.671 36.9263 15.047 37.2833C11.433 38.0763 7 41.4283 7 43.3663C7 44.1513 6.55 44.7933 6 44.7933C4.703 44.7933 4.71 47.5313 6.011 49.0853C6.567 49.7493 7.91 51.4803 8.995 52.9313C10.08 54.3813 12.208 55.8793 13.724 56.2603C15.24 56.6403 16.709 57.3023 16.99 57.7303C17.683 58.7883 38.631 62.5433 48.5 63.3783C52.9 63.7503 56.747 64.4393 57.049 64.9083C57.351 65.3763 64.101 65.8803 72.049 66.0273L86.5 66.2933L86.801 62.7073C86.975 60.6273 86.555 58.6893 85.801 58.0903C85.085 57.5233 77.3 56.2903 68.5 55.3503C38.053 52.1003 20 48.9413 20 46.8623C20 45.0393 31.753 42.5353 50.601 40.3433C64.155 38.7673 67 37.3583 67 32.2243C67 26.0713 73.589 21.5403 79.707 23.4863C81.71 24.1223 83.243 25.8883 85.127 29.7253C86.573 32.6683 88.373 35.3923 89.127 35.7773C91.339 36.9053 140.813 35.3803 142.048 34.1453C143.631 32.5623 143.534 26.7563 141.905 25.6393C141.036 25.0433 131.905 24.9213 117.976 25.3203L95.452 25.9653L93.847 22.5993C91.237 17.1243 84.916 13.4233 77.644 13.1103C74.265 12.9653 70.298 13.3093 68.83 13.8763ZM89 61.8873C89 62.3853 89.9 62.7933 91 62.7933C92.1 62.7933 93 62.6203 93 62.4103C93 62.1993 92.1 61.7913 91 61.5033C89.9 61.2163 89 61.3883 89 61.8873ZM261.542 67.8993C259.365 68.4213 257.234 69.3983 256.807 70.0713C255.377 72.3223 255.98 76.3323 258.011 78.0713C260.092 79.8523 264 80.4293 264 78.9553C264 78.4943 266.58 77.7063 269.734 77.2053C274.753 76.4073 275.589 75.9443 276.445 73.4903C277.958 69.1543 276.222 67.3263 270.397 67.1213C267.704 67.0273 263.719 67.3773 261.542 67.8993ZM241.5 71.3173C238.821 72.2993 208.081 73.9853 178.31 74.7833C146.76 75.6293 145.018 75.7753 143.06 77.7333C140.538 80.2553 140.515 81.6323 142.944 84.5433C144.77 86.7323 145.336 86.7933 163.91 86.7933C174.41 86.7933 183 86.4143 183 85.9513C183 85.4883 192.338 84.7813 203.75 84.3803C215.162 83.9793 229.884 83.1203 236.465 82.4723C247.798 81.3553 248.508 81.1543 249.906 78.6583C251.228 76.2963 251.204 75.7533 249.667 73.4083C248.068 70.9663 244.766 70.1213 241.5 71.3173ZM98.25 89.4403C97.013 89.7113 96 90.3513 96 90.8633C96 91.3743 95.382 91.7933 94.626 91.7933C91.971 91.7933 84.314 96.8093 83.185 99.2873C82.557 100.665 81.583 101.793 81.021 101.793C80.46 101.793 80 102.468 80 103.293C80 104.422 78.791 104.793 75.115 104.793C72.428 104.793 67.919 105.539 65.095 106.451C58.248 108.663 52.844 115.755 52.207 123.366L51.782 128.44L44.391 129.682C40.326 130.365 37 131.291 37 131.74C37 132.188 35.088 133.061 32.75 133.679C25.533 135.586 22.359 139.562 23.442 145.338C24.077 148.722 28.906 152.793 32.285 152.793C33.136 152.793 33.988 153.256 34.176 153.822C34.606 155.11 50.3 158.373 60.685 159.333C64.983 159.73 68.725 160.385 69 160.789C69.541 161.582 96.094 163.739 107.5 163.916C111.35 163.976 113.6 164.221 112.5 164.461C111.4 164.7 109.6 165.297 108.5 165.788C107.4 166.278 99.459 166.836 90.853 167.028C75.109 167.379 72 168.094 72 171.36C72 172.087 73.013 173.798 74.25 175.163L76.5 177.644L100.5 176.652C113.7 176.107 125.505 175.253 126.734 174.755C128.331 174.109 129.151 172.7 129.613 169.812C130.071 166.95 131.251 164.902 133.664 162.783C137.385 159.516 139.606 159.16 144.723 161.01C148.92 162.528 150.754 161.531 153.564 156.205C156.639 150.377 163.268 146.281 169.527 146.342C175.828 146.403 183.078 150.947 184.923 155.993C188.335 165.324 189.662 166.103 196.496 162.795C201.098 160.567 203.402 160.71 207.649 163.486C210.469 165.329 212.389 170.108 211.589 173.294C210.634 177.098 212.495 179.622 216.762 180.309C223.595 181.411 238.464 184.658 241 185.603C243.651 186.59 241.143 187.298 221 191.248C193.416 196.656 113.188 198.17 61.21 194.264C43.104 192.903 16.642 188.811 13.09 186.823C12.051 186.242 13.699 185.372 18.601 183.912C26.198 181.649 35.458 180.264 49.5 179.29C61.053 178.489 61.538 178.322 63.069 174.626C64.214 171.862 64.144 171.365 62.427 170.057C60.879 168.878 58.24 168.704 49 169.174C36.072 169.831 21.011 171.653 19.5 172.742C18.95 173.138 15.425 174.272 11.667 175.261C3.136 177.507 0 180.492 0 186.367C0 193.869 6.439 197.249 25.975 200.002C30.664 200.663 34.725 201.507 35 201.877C36.349 203.692 94.295 206.769 127 206.763C160.823 206.756 216.936 203.752 219.5 201.811C220.05 201.394 223.219 200.758 226.543 200.397C235.703 199.402 247.623 196.312 249.485 194.451C250.397 193.539 251.77 192.793 252.536 192.793C255.714 192.793 257.165 184.911 254.608 181.543C253.877 180.58 252.767 179.793 252.14 179.793C251.513 179.793 251 179.415 251 178.954C251 177.715 247.205 176.2 240.467 174.748C237.185 174.041 234.05 173.137 233.5 172.74C232.95 172.342 230.183 171.706 227.352 171.325C222.526 170.677 222.173 170.435 221.72 167.463C221.455 165.72 221.297 164.217 221.371 164.124C221.444 164.031 228.929 163.409 238.002 162.742C247.076 162.074 254.725 161.228 255 160.86C255.275 160.492 260.225 159.619 266 158.918C278.939 157.349 289.672 155.153 291.285 153.746C291.953 153.163 294.075 151.923 296 150.99C298.992 149.539 299.546 148.726 299.82 145.388C300.365 138.725 299.397 136.885 294.219 134.744C291.623 133.671 288.761 132.37 287.858 131.852C285.654 130.589 272.89 128.267 259.854 126.759L249.208 125.527L248.054 119.66C247.419 116.433 246.527 113.793 246.071 113.793C245.615 113.793 244.669 112.408 243.968 110.716C243.267 109.023 241.532 106.885 240.113 105.966C238.694 105.046 236.794 103.561 235.891 102.667C231.298 98.1213 211.59 98.5133 206.786 103.246C203.088 106.889 200.49 107.822 195.82 107.182C189.269 106.284 183.304 108.313 178.842 112.957C176.727 115.159 174.723 118.048 174.39 119.377C173.801 121.723 173.503 121.793 164.142 121.793H154.5L151.625 118.19C148.295 114.017 143.655 111.793 138.276 111.793C134.707 111.793 134.412 111.552 133.191 107.641C131.004 100.633 121.742 91.7933 116.587 91.7933C115.806 91.7933 114.999 91.2903 114.794 90.6753C114.401 89.4963 102.172 88.5843 98.25 89.4403ZM34.375 211.523C31.474 214.652 31.425 215.56 34.037 217.825C35.406 219.012 38.647 219.819 43.926 220.286C53.623 221.145 56 220.17 56 215.335C56 212.384 55.582 211.821 52.75 210.958C50.962 210.413 46.631 209.74 43.125 209.463C37.245 208.999 36.565 209.159 34.375 211.523ZM209 209.825C205.425 210.262 195.412 210.95 186.75 211.354C178.088 211.758 171 212.472 171 212.941C171 214.183 84.269 214.037 83.5 212.793C83.159 212.241 78.656 211.793 73.441 211.793C65.333 211.793 63.718 212.075 62 213.793C59.517 216.276 59.526 217.644 62.042 220.665C64.007 223.023 64.195 223.042 95.596 224.11C119.43 224.92 136.038 224.877 163.312 223.934C183.187 223.247 199.685 222.321 199.974 221.876C200.263 221.431 204.775 220.739 210 220.339C215.225 219.939 220.063 219.147 220.75 218.58C222.12 217.449 222.405 212.977 221.225 211.122C220.101 209.356 216.212 208.944 209 209.825Z" fill="#A0ECFF"/>
<path fill-rule="evenodd" clip-rule="evenodd" d="M221.75 0.427299C220.787 0.709299 220 1.3263 220 1.7993C220 2.2723 218.988 2.9633 217.75 3.3363C216.512 3.7093 213.98 5.4263 212.122 7.1533C209.898 9.2203 208.589 9.8663 208.289 9.0433C207.752 7.5693 194 7.2523 194 8.7143C194 9.2203 192.724 9.9143 191.165 10.2573C187.545 11.0523 181.11 17.8083 179.944 22.0373L179.047 25.2933L167.273 25.0133C160.798 24.8593 154.881 25.1453 154.125 25.6493C152.23 26.9123 152.398 31.6193 154.409 33.6323C155.767 34.9913 158.707 35.3563 170.6 35.6383C183.343 35.9413 185.37 35.7683 187.066 34.2333C188.13 33.2713 189 31.4573 189 30.2033C189 21.3943 198.812 16.0593 207.116 20.3533C211.405 22.5713 215.207 21.8763 216.776 18.5873C218.091 15.8303 222.921 11.7933 224.904 11.7933C225.507 11.7933 226 11.3433 226 10.7933C226 10.2433 227.912 9.8003 230.25 9.8093C235.58 9.8303 241.655 13.1683 244.809 17.8083C246.817 20.7643 247.097 22.1293 246.647 26.7933C246.356 29.8183 245.84 33.4183 245.501 34.7933C244.394 39.2723 246.628 40.6883 257.5 42.3993C263 43.2653 267.928 44.3833 268.45 44.8833C268.972 45.3843 270.21 45.7933 271.2 45.7933C272.19 45.7933 273 46.1613 273 46.6103C273 48.1353 262.028 50.8963 250.239 52.3383C243.783 53.1283 233.1 54.4443 226.5 55.2633C209.08 57.4253 162.012 59.0393 128.037 58.6393L98.575 58.2933L97.373 60.6883C96.67 62.0883 96.493 63.9563 96.947 65.1883C97.628 67.0353 98.873 67.3933 107.112 68.1063C127.976 69.9123 236.169 67.2123 238 64.8393C238.275 64.4833 243.675 63.6313 250 62.9453C263.674 61.4643 276.369 58.9873 276.833 57.7103C277.017 57.2053 277.847 56.7933 278.679 56.7933C280.89 56.7933 286 53.5603 286 52.1613C286 51.5003 286.525 50.7853 287.167 50.5713C287.808 50.3573 288.333 48.7413 288.333 46.9793C288.333 42.9283 284.883 39.1383 279.81 37.6183C277.714 36.9903 276 36.1393 276 35.7273C276 35.3153 271.761 34.2153 266.58 33.2823L257.159 31.5863L257.684 28.3513C258.396 23.9663 256.221 14.0143 254.084 11.8773C253.129 10.9223 252.059 9.3903 251.707 8.4723C251.355 7.5553 249.59 5.9293 247.784 4.8583C245.978 3.7873 243.854 2.3403 243.065 1.6403C241.61 0.3503 225.202 -0.582701 221.75 0.427299ZM68.83 13.8763C64.583 15.5153 59.181 21.2443 57.844 25.5273L56.616 29.4643L45.55 30.6183C32.593 31.9683 18 34.7433 18 35.8563C18 36.2843 16.671 36.9263 15.047 37.2833C11.433 38.0763 7 41.4283 7 43.3663C7 44.1513 6.55 44.7933 6 44.7933C4.703 44.7933 4.71 47.5313 6.011 49.0853C6.567 49.7493 7.91 51.4803 8.995 52.9313C10.08 54.3813 12.208 55.8793 13.724 56.2603C15.24 56.6403 16.709 57.3023 16.99 57.7303C17.683 58.7883 38.631 62.5433 48.5 63.3783C52.9 63.7503 56.747 64.4393 57.049 64.9083C57.351 65.3763 64.101 65.8803 72.049 66.0273L86.5 66.2933L86.801 62.7073C86.975 60.6273 86.555 58.6893 85.801 58.0903C85.085 57.5233 77.3 56.2903 68.5 55.3503C38.053 52.1003 20 48.9413 20 46.8623C20 45.0393 31.753 42.5353 50.601 40.3433C64.155 38.7673 67 37.3583 67 32.2243C67 26.0713 73.589 21.5403 79.707 23.4863C81.71 24.1223 83.243 25.8883 85.127 29.7253C86.573 32.6683 88.373 35.3923 89.127 35.7773C91.339 36.9053 140.813 35.3803 142.048 34.1453C143.631 32.5623 143.534 26.7563 141.905 25.6393C141.036 25.0433 131.905 24.9213 117.976 25.3203L95.452 25.9653L93.847 22.5993C91.237 17.1243 84.916 13.4233 77.644 13.1103C74.265 12.9653 70.298 13.3093 68.83 13.8763ZM261.542 67.8993C259.365 68.4213 257.234 69.3983 256.807 70.0713C255.377 72.3223 255.98 76.3323 258.011 78.0713C260.092 79.8523 264 80.4293 264 78.9553C264 78.4943 266.58 77.7063 269.734 77.2053C274.753 76.4073 275.589 75.9443 276.445 73.4903C277.958 69.1543 276.222 67.3263 270.397 67.1213C267.704 67.0273 263.719 67.3773 261.542 67.8993ZM241.5 71.3173C238.821 72.2993 208.081 73.9853 178.31 74.7833C146.76 75.6293 145.018 75.7753 143.06 77.7333C140.538 80.2553 140.515 81.6323 142.944 84.5433C144.77 86.7323 145.336 86.7933 163.91 86.7933C174.41 86.7933 183 86.4143 183 85.9513C183 85.4883 192.338 84.7813 203.75 84.3803C215.162 83.9793 229.884 83.1203 236.465 82.4723C247.798 81.3553 248.508 81.1543 249.906 78.6583C251.228 76.2963 251.204 75.7533 249.667 73.4083C248.068 70.9663 244.766 70.1213 241.5 71.3173ZM98.25 89.4403C97.013 89.7113 96 90.3513 96 90.8633C96 91.3743 95.382 91.7933 94.626 91.7933C91.971 91.7933 84.314 96.8093 83.185 99.2873C82.557 100.665 81.583 101.793 81.021 101.793C80.46 101.793 80 102.468 80 103.293C80 104.422 78.791 104.793 75.115 104.793C72.428 104.793 67.919 105.539 65.095 106.451C58.248 108.663 52.844 115.755 52.207 123.366L51.782 128.44L44.391 129.682C40.326 130.365 37 131.291 37 131.74C37 132.188 35.088 133.061 32.75 133.679C25.533 135.586 22.359 139.562 23.442 145.338C24.077 148.722 28.906 152.793 32.285 152.793C33.136 152.793 33.988 153.256 34.176 153.822C34.606 155.11 50.3 158.373 60.685 159.333C64.983 159.73 68.725 160.385 69 160.789C69.541 161.582 96.094 163.739 107.5 163.916C111.35 163.976 113.6 164.221 112.5 164.461C111.4 164.7 109.6 165.297 108.5 165.788C107.4 166.278 99.459 166.836 90.853 167.028C75.109 167.379 72 168.094 72 171.36C72 172.087 73.013 173.798 74.25 175.163L76.5 177.644L100.5 176.652C113.7 176.107 125.505 175.253 126.734 174.755C128.331 174.109 129.151 172.7 129.613 169.812C130.071 166.95 131.251 164.902 133.664 162.783C137.385 159.516 139.606 159.16 144.723 161.01C148.92 162.528 150.754 161.531 153.564 156.205C156.639 150.377 163.268 146.281 169.527 146.342C175.828 146.403 183.078 150.947 184.923 155.993C188.335 165.324 189.662 166.103 196.496 162.795C201.098 160.567 203.402 160.71 207.649 163.486C210.469 165.329 212.389 170.108 211.589 173.294C210.634 177.098 212.495 179.622 216.762 180.309C223.595 181.411 238.464 184.658 241 185.603C243.651 186.59 241.143 187.298 221 191.248C193.416 196.656 113.188 198.17 61.21 194.264C43.104 192.903 16.642 188.811 13.09 186.823C12.051 186.242 13.699 185.372 18.601 183.912C26.198 181.649 35.458 180.264 49.5 179.29C61.053 178.489 61.538 178.322 63.069 174.626C64.214 171.862 64.144 171.365 62.427 170.057C60.879 168.878 58.24 168.704 49 169.174C36.072 169.831 21.011 171.653 19.5 172.742C18.95 173.138 15.425 174.272 11.667 175.261C3.136 177.507 0 180.492 0 186.367C0 193.869 6.439 197.249 25.975 200.002C30.664 200.663 34.725 201.507 35 201.877C36.349 203.692 94.295 206.769 127 206.763C160.823 206.756 216.936 203.752 219.5 201.811C220.05 201.394 223.219 200.758 226.543 200.397C235.703 199.402 247.623 196.312 249.485 194.451C250.397 193.539 251.77 192.793 252.536 192.793C255.714 192.793 257.165 184.911 254.608 181.543C253.877 180.58 252.767 179.793 252.14 179.793C251.513 179.793 251 179.415 251 178.954C251 177.715 247.205 176.2 240.467 174.748C237.185 174.041 234.05 173.137 233.5 172.74C232.95 172.342 230.183 171.706 227.352 171.325C222.526 170.677 222.173 170.435 221.72 167.463C221.455 165.72 221.297 164.217 221.371 164.124C221.444 164.031 228.929 163.409 238.002 162.742C247.076 162.074 254.725 161.228 255 160.86C255.275 160.492 260.225 159.619 266 158.918C278.939 157.349 289.672 155.153 291.285 153.746C291.953 153.163 294.075 151.923 296 150.99C298.992 149.539 299.546 148.726 299.82 145.388C300.365 138.725 299.397 136.885 294.219 134.744C291.623 133.671 288.761 132.37 287.858 131.852C285.654 130.589 272.89 128.267 259.854 126.759L249.208 125.527L248.054 119.66C247.419 116.433 246.527 113.793 246.071 113.793C245.615 113.793 244.669 112.408 243.968 110.716C243.267 109.023 241.532 106.885 240.113 105.966C238.694 105.046 236.794 103.561 235.891 102.667C231.298 98.1213 211.59 98.5133 206.786 103.246C203.088 106.889 200.49 107.822 195.82 107.182C189.269 106.284 183.304 108.313 178.842 112.957C176.727 115.159 174.723 118.048 174.39 119.377C173.801 121.723 173.503 121.793 164.142 121.793H154.5L151.625 118.19C148.295 114.017 143.655 111.793 138.276 111.793C134.707 111.793 134.412 111.552 133.191 107.641C131.004 100.633 121.742 91.7933 116.587 91.7933C115.806 91.7933 114.999 91.2903 114.794 90.6753C114.401 89.4963 102.172 88.5843 98.25 89.4403ZM112.292 101.377C119.412 103.803 124.97 111.518 124.994 119.008C125.003 121.706 128.393 122.881 134.209 122.202C138.951 121.649 139.785 121.85 142.25 124.141C143.762 125.547 145 127.378 145 128.21C145 131.104 148.82 131.793 164.878 131.793C180.287 131.793 180.945 131.71 182.443 129.57C183.299 128.348 184 126.431 184 125.31C184 124.19 185.143 122.04 186.54 120.533C189.454 117.391 195.272 116.775 198.559 119.261C201.801 121.713 204.675 121.086 207.568 117.293C210.844 112.998 213.156 112.872 219.132 116.662C224.762 120.232 228.89 127.026 229.701 134.054C230.386 139.993 231.099 140.756 235.973 140.778C243.183 140.809 277.31 147.425 272 147.761C271.175 147.814 265.775 148.516 260 149.322C237.398 152.478 234.074 152.778 221.5 152.797C204.127 152.822 193.998 152.421 193.999 151.707C194.001 150.012 186.661 142.073 183.806 140.683C181.988 139.798 179.194 138.448 177.599 137.683C169.555 133.829 155.967 137.66 148.546 145.874C145.118 149.668 144.193 150.159 140.925 149.923C138.556 149.752 135.444 150.529 132.353 152.061C127.543 154.447 127.338 154.46 109 153.633C98.825 153.174 87.125 152.363 83 151.832C49.937 147.576 43.132 146.415 39.157 144.354C36.971 143.221 37.308 142.999 44.157 141.041C48.196 139.887 53.646 138.655 56.269 138.304C62.447 137.476 64.445 134.854 62.853 129.664C60.722 122.722 66.438 115.399 73.771 115.677C75.822 115.754 79.3 115.925 81.5 116.055C85.266 116.279 85.612 116.059 87.407 112.293C90.897 104.974 97.767 100.286 105.572 99.8963C106.711 99.8403 109.735 100.506 112.292 101.377ZM34.375 211.523C31.474 214.652 31.425 215.56 34.037 217.825C35.406 219.012 38.647 219.819 43.926 220.286C53.623 221.145 56 220.17 56 215.335C56 212.384 55.582 211.821 52.75 210.958C50.962 210.413 46.631 209.74 43.125 209.463C37.245 208.999 36.565 209.159 34.375 211.523ZM209 209.825C205.425 210.262 195.412 210.95 186.75 211.354C178.088 211.758 171 212.472 171 212.941C171 214.183 84.269 214.037 83.5 212.793C83.159 212.241 78.656 211.793 73.441 211.793C65.333 211.793 63.718 212.075 62 213.793C59.517 216.276 59.526 217.644 62.042 220.665C64.007 223.023 64.195 223.042 95.596 224.11C119.43 224.92 136.038 224.877 163.312 223.934C183.187 223.247 199.685 222.321 199.974 221.876C200.263 221.431 204.775 220.739 210 220.339C215.225 219.939 220.063 219.147 220.75 218.58C222.12 217.449 222.405 212.977 221.225 211.122C220.101 209.356 216.212 208.944 209 209.825Z" fill="#60DAFF"/>
<path fill-rule="evenodd" clip-rule="evenodd" d="M221.75 0.427299C220.787 0.709299 220 1.3263 220 1.7993C220 2.2723 218.988 2.9633 217.75 3.3363C216.512 3.7093 213.98 5.4263 212.122 7.1533C209.898 9.2203 208.589 9.8663 208.289 9.0433C207.752 7.5693 194 7.2523 194 8.7143C194 9.2203 192.724 9.9143 191.165 10.2573C187.545 11.0523 181.11 17.8083 179.944 22.0373L179.047 25.2933L167.273 25.0133C160.798 24.8593 154.881 25.1453 154.125 25.6493C152.23 26.9123 152.398 31.6193 154.409 33.6323C155.767 34.9913 158.707 35.3563 170.6 35.6383C183.343 35.9413 185.37 35.7683 187.066 34.2333C188.13 33.2713 189 31.4573 189 30.2033C189 21.3943 198.812 16.0593 207.116 20.3533C211.405 22.5713 215.207 21.8763 216.776 18.5873C218.091 15.8303 222.921 11.7933 224.904 11.7933C225.507 11.7933 226 11.3433 226 10.7933C226 10.2433 227.912 9.8003 230.25 9.8093C235.58 9.8303 241.655 13.1683 244.809 17.8083C246.817 20.7643 247.097 22.1293 246.647 26.7933C246.356 29.8183 245.84 33.4183 245.501 34.7933C244.394 39.2723 246.628 40.6883 257.5 42.3993C263 43.2653 267.928 44.3833 268.45 44.8833C268.972 45.3843 270.21 45.7933 271.2 45.7933C272.19 45.7933 273 46.1613 273 46.6103C273 48.1353 262.028 50.8963 250.239 52.3383C243.783 53.1283 233.1 54.4443 226.5 55.2633C209.08 57.4253 162.012 59.0393 128.037 58.6393L98.575 58.2933L97.373 60.6883C96.67 62.0883 96.493 63.9563 96.947 65.1883C97.628 67.0353 98.873 67.3933 107.112 68.1063C127.976 69.9123 236.169 67.2123 238 64.8393C238.275 64.4833 243.675 63.6313 250 62.9453C263.674 61.4643 276.369 58.9873 276.833 57.7103C277.017 57.2053 277.847 56.7933 278.679 56.7933C280.89 56.7933 286 53.5603 286 52.1613C286 51.5003 286.525 50.7853 287.167 50.5713C287.808 50.3573 288.333 48.7413 288.333 46.9793C288.333 42.9283 284.883 39.1383 279.81 37.6183C277.714 36.9903 276 36.1393 276 35.7273C276 35.3153 271.761 34.2153 266.58 33.2823L257.159 31.5863L257.684 28.3513C258.396 23.9663 256.221 14.0143 254.084 11.8773C253.129 10.9223 252.059 9.3903 251.707 8.4723C251.355 7.5553 249.59 5.9293 247.784 4.8583C245.978 3.7873 243.854 2.3403 243.065 1.6403C241.61 0.3503 225.202 -0.582701 221.75 0.427299ZM68.83 13.8763C64.583 15.5153 59.181 21.2443 57.844 25.5273L56.616 29.4643L45.55 30.6183C32.593 31.9683 18 34.7433 18 35.8563C18 36.2843 16.671 36.9263 15.047 37.2833C11.433 38.0763 7 41.4283 7 43.3663C7 44.1513 6.55 44.7933 6 44.7933C4.703 44.7933 4.71 47.5313 6.011 49.0853C6.567 49.7493 7.91 51.4803 8.995 52.9313C10.08 54.3813 12.208 55.8793 13.724 56.2603C15.24 56.6403 16.709 57.3023 16.99 57.7303C17.683 58.7883 38.631 62.5433 48.5 63.3783C52.9 63.7503 56.747 64.4393 57.049 64.9083C57.351 65.3763 64.101 65.8803 72.049 66.0273L86.5 66.2933L86.801 62.7073C86.975 60.6273 86.555 58.6893 85.801 58.0903C85.085 57.5233 77.3 56.2903 68.5 55.3503C38.053 52.1003 20 48.9413 20 46.8623C20 45.0393 31.753 42.5353 50.601 40.3433C64.155 38.7673 67 37.3583 67 32.2243C67 26.0713 73.589 21.5403 79.707 23.4863C81.71 24.1223 83.243 25.8883 85.127 29.7253C86.573 32.6683 88.373 35.3923 89.127 35.7773C91.339 36.9053 140.813 35.3803 142.048 34.1453C143.631 32.5623 143.534 26.7563 141.905 25.6393C141.036 25.0433 131.905 24.9213 117.976 25.3203L95.452 25.9653L93.847 22.5993C91.237 17.1243 84.916 13.4233 77.644 13.1103C74.265 12.9653 70.298 13.3093 68.83 13.8763ZM261.542 67.8993C259.365 68.4213 257.234 69.3983 256.807 70.0713C255.377 72.3223 255.98 76.3323 258.011 78.0713C260.092 79.8523 264 80.4293 264 78.9553C264 78.4943 266.58 77.7063 269.734 77.2053C274.753 76.4073 275.589 75.9443 276.445 73.4903C277.958 69.1543 276.222 67.3263 270.397 67.1213C267.704 67.0273 263.719 67.3773 261.542 67.8993ZM241.5 71.3173C238.821 72.2993 208.081 73.9853 178.31 74.7833C146.76 75.6293 145.018 75.7753 143.06 77.7333C140.538 80.2553 140.515 81.6323 142.944 84.5433C144.77 86.7323 145.336 86.7933 163.91 86.7933C174.41 86.7933 183 86.4143 183 85.9513C183 85.4883 192.338 84.7813 203.75 84.3803C215.162 83.9793 229.884 83.1203 236.465 82.4723C247.798 81.3553 248.508 81.1543 249.906 78.6583C251.228 76.2963 251.204 75.7533 249.667 73.4083C248.068 70.9663 244.766 70.1213 241.5 71.3173ZM98.25 89.4403C97.013 89.7113 96 90.3513 96 90.8633C96 91.3743 95.382 91.7933 94.626 91.7933C91.971 91.7933 84.314 96.8093 83.185 99.2873C82.557 100.665 81.583 101.793 81.021 101.793C80.46 101.793 80 102.468 80 103.293C80 104.422 78.791 104.793 75.115 104.793C72.428 104.793 67.919 105.539 65.095 106.451C58.248 108.663 52.844 115.755 52.207 123.366L51.782 128.44L44.391 129.682C40.326 130.365 37 131.291 37 131.74C37 132.188 35.088 133.061 32.75 133.679C25.533 135.586 22.359 139.562 23.442 145.338C24.077 148.722 28.906 152.793 32.285 152.793C33.136 152.793 33.988 153.256 34.176 153.822C34.606 155.11 50.3 158.373 60.685 159.333C64.983 159.73 68.725 160.385 69 160.789C69.541 161.582 96.094 163.739 107.5 163.916C111.35 163.976 113.6 164.221 112.5 164.461C111.4 164.7 109.6 165.297 108.5 165.788C107.4 166.278 99.459 166.836 90.853 167.028C75.109 167.379 72 168.094 72 171.36C72 172.087 73.013 173.798 74.25 175.163L76.5 177.644L100.5 176.652C113.7 176.107 125.505 175.253 126.734 174.755C128.331 174.109 129.151 172.7 129.613 169.812C130.071 166.95 131.251 164.902 133.664 162.783C137.385 159.516 139.606 159.16 144.723 161.01C148.92 162.528 150.754 161.531 153.564 156.205C156.639 150.377 163.268 146.281 169.527 146.342C175.828 146.403 183.078 150.947 184.923 155.993C188.335 165.324 189.662 166.103 196.496 162.795C201.098 160.567 203.402 160.71 207.649 163.486C210.469 165.329 212.389 170.108 211.589 173.294C210.634 177.098 212.495 179.622 216.762 180.309C223.595 181.411 238.464 184.658 241 185.603C243.651 186.59 241.143 187.298 221 191.248C193.416 196.656 113.188 198.17 61.21 194.264C43.104 192.903 16.642 188.811 13.09 186.823C12.051 186.242 13.699 185.372 18.601 183.912C26.198 181.649 35.458 180.264 49.5 179.29C61.053 178.489 61.538 178.322 63.069 174.626C64.214 171.862 64.144 171.365 62.427 170.057C60.879 168.878 58.24 168.704 49 169.174C36.072 169.831 21.011 171.653 19.5 172.742C18.95 173.138 15.425 174.272 11.667 175.261C3.136 177.507 0 180.492 0 186.367C0 193.869 6.439 197.249 25.975 200.002C30.664 200.663 34.725 201.507 35 201.877C36.349 203.692 94.295 206.769 127 206.763C160.823 206.756 216.936 203.752 219.5 201.811C220.05 201.394 223.219 200.758 226.543 200.397C235.703 199.402 247.623 196.312 249.485 194.451C250.397 193.539 251.77 192.793 252.536 192.793C255.714 192.793 257.165 184.911 254.608 181.543C253.877 180.58 252.767 179.793 252.14 179.793C251.513 179.793 251 179.415 251 178.954C251 177.715 247.205 176.2 240.467 174.748C237.185 174.041 234.05 173.137 233.5 172.74C232.95 172.342 230.183 171.706 227.352 171.325C222.526 170.677 222.173 170.435 221.72 167.463C221.455 165.72 221.297 164.217 221.371 164.124C221.444 164.031 228.929 163.409 238.002 162.742C247.076 162.074 254.725 161.228 255 160.86C255.275 160.492 260.225 159.619 266 158.918C278.939 157.349 289.672 155.153 291.285 153.746C291.953 153.163 294.075 151.923 296 150.99C298.992 149.539 299.546 148.726 299.82 145.388C300.365 138.725 299.397 136.885 294.219 134.744C291.623 133.671 288.761 132.37 287.858 131.852C285.654 130.589 272.89 128.267 259.854 126.759L249.208 125.527L248.054 119.66C247.419 116.433 246.527 113.793 246.071 113.793C245.615 113.793 244.669 112.408 243.968 110.716C243.267 109.023 241.532 106.885 240.113 105.966C238.694 105.046 236.794 103.561 235.891 102.667C231.298 98.1213 211.59 98.5133 206.786 103.246C203.088 106.889 200.49 107.822 195.82 107.182C189.269 106.284 183.304 108.313 178.842 112.957C176.727 115.159 174.723 118.048 174.39 119.377C173.801 121.723 173.503 121.793 164.142 121.793H154.5L151.625 118.19C148.295 114.017 143.655 111.793 138.276 111.793C134.707 111.793 134.412 111.552 133.191 107.641C131.004 100.633 121.742 91.7933 116.587 91.7933C115.806 91.7933 114.999 91.2903 114.794 90.6753C114.401 89.4963 102.172 88.5843 98.25 89.4403ZM111.219 100.837C118.14 102.759 124.912 110.946 124.978 117.472C125.019 121.528 127.497 122.815 133.963 122.139C139.347 121.576 140.035 121.737 142.412 124.114C143.835 125.538 145 127.382 145 128.212C145 131.104 148.823 131.793 164.878 131.793C180.287 131.793 180.945 131.71 182.443 129.57C183.299 128.348 184 126.303 184 125.025C184 121.087 188.25 117.793 193.332 117.793C196.044 117.793 198.237 118.373 199 119.293C201.245 121.998 204.63 121.049 208.024 116.763C212.06 111.667 215.683 109.793 221.5 109.793C230.946 109.793 236.841 115.759 237.946 126.437C238.409 130.912 239.18 133.452 240.332 134.294C241.267 134.978 245.738 135.86 250.267 136.255C262.237 137.298 274.657 139.302 281.336 141.267C286.674 142.838 287.008 143.099 285.256 144.326C284.203 145.064 277.077 146.619 269.421 147.782C261.764 148.944 253.475 150.32 251 150.838C248.525 151.357 239.075 152.278 230 152.887C217.167 153.747 212.352 153.717 208.334 152.753C205.493 152.072 201.205 151.735 198.805 152.006C194.516 152.489 194.384 152.413 191.027 147.543C188.489 143.863 186.054 141.813 181.556 139.572C170.135 133.881 157.826 136.152 149.189 145.545C145.524 149.531 144.389 150.19 141.608 149.951C139.759 149.791 135.969 150.716 132.889 152.078C128.209 154.148 126.248 154.435 118.971 154.116C98.891 153.236 77.166 151.679 73 150.822C70.525 150.312 62.236 148.944 54.579 147.782C46.923 146.619 39.834 145.09 38.825 144.383C37.174 143.227 37.506 142.934 42.171 141.427C45.019 140.507 50.458 139.241 54.257 138.614C59.582 137.734 61.505 136.952 62.653 135.2C63.778 133.483 63.88 132.438 63.071 130.926C60.42 125.971 63.679 118.661 69.653 116.165C72.632 114.92 74.115 114.861 78.143 115.827C84.416 117.332 85.648 116.779 87.941 111.43C89.913 106.829 94.397 102.783 99.5 101C103.444 99.6213 106.679 99.5763 111.219 100.837ZM34.375 211.523C31.474 214.652 31.425 215.56 34.037 217.825C35.406 219.012 38.647 219.819 43.926 220.286C53.623 221.145 56 220.17 56 215.335C56 212.384 55.582 211.821 52.75 210.958C50.962 210.413 46.631 209.74 43.125 209.463C37.245 208.999 36.565 209.159 34.375 211.523ZM209 209.825C205.425 210.262 195.412 210.95 186.75 211.354C178.088 211.758 171 212.472 171 212.941C171 214.183 84.269 214.037 83.5 212.793C83.159 212.241 78.656 211.793 73.441 211.793C65.333 211.793 63.718 212.075 62 213.793C59.517 216.276 59.526 217.644 62.042 220.665C64.007 223.023 64.195 223.042 95.596 224.11C119.43 224.92 136.038 224.877 163.312 223.934C183.187 223.247 199.685 222.321 199.974 221.876C200.263 221.431 204.775 220.739 210 220.339C215.225 219.939 220.063 219.147 220.75 218.58C222.12 217.449 222.405 212.977 221.225 211.122C220.101 209.356 216.212 208.944 209 209.825Z" fill="#79B3C1"/>
<path fill-rule="evenodd" clip-rule="evenodd" d="M221.75 0.427299C220.787 0.709299 220 1.3263 220 1.7993C220 2.2723 218.988 2.9633 217.75 3.3363C216.512 3.7093 213.98 5.4263 212.122 7.1533C209.898 9.2203 208.589 9.8663 208.289 9.0433C207.752 7.5693 194 7.2523 194 8.7143C194 9.2203 192.724 9.9143 191.165 10.2573C187.545 11.0523 181.11 17.8083 179.944 22.0373L179.046 25.2933L168.461 24.9503C156.387 24.5593 153.306 25.0683 152.763 27.5443C152.283 29.7333 153.863 33.5263 155.519 34.1623C156.205 34.4253 163.059 34.9603 170.75 35.3503C184.178 36.0323 184.818 35.9753 186.866 33.9273C188.04 32.7533 189 30.6893 189 29.3403C189 25.1923 191.22 21.7223 195.157 19.7133C199.917 17.2853 202.112 17.2993 207 19.7933C212.439 22.5683 213.607 22.3433 216.503 17.9673C221.929 9.7693 232.75 7.2693 240.266 12.4773C246.798 17.0043 248.859 23.5393 246.383 31.8763C244.934 36.7563 244.951 37.1863 246.669 38.8613C247.827 39.9913 251.991 41.2393 258 42.2593C269.02 44.1293 275 45.7703 275 46.9233C275 49.3313 241.905 54.7363 214 56.8843C205.475 57.5413 176.085 58.1773 148.688 58.2973C115.124 58.4453 98.529 58.8643 97.813 59.5803C96.391 61.0023 96.46 65.6533 97.925 67.1183C100.768 69.9603 235.806 67.7813 238 64.8583C238.275 64.4913 243.675 63.6313 250 62.9453C263.674 61.4643 276.369 58.9873 276.833 57.7103C277.017 57.2053 277.847 56.7933 278.679 56.7933C280.89 56.7933 286 53.5603 286 52.1613C286 51.5003 286.525 50.7853 287.167 50.5713C287.808 50.3573 288.333 48.7413 288.333 46.9793C288.333 42.9283 284.883 39.1383 279.81 37.6183C277.714 36.9903 276 36.1393 276 35.7273C276 35.3153 271.761 34.2153 266.58 33.2823L257.159 31.5863L257.684 28.3513C258.396 23.9663 256.221 14.0143 254.084 11.8773C253.129 10.9223 252.059 9.3903 251.707 8.4723C251.355 7.5553 249.59 5.9293 247.784 4.8583C245.978 3.7873 243.854 2.3403 243.065 1.6403C241.61 0.3503 225.202 -0.582701 221.75 0.427299ZM68.83 13.8763C64.583 15.5153 59.181 21.2443 57.844 25.5273L56.616 29.4643L45.55 30.6183C32.593 31.9683 18 34.7433 18 35.8563C18 36.2843 16.671 36.9263 15.047 37.2833C11.433 38.0763 7 41.4283 7 43.3663C7 44.1513 6.55 44.7933 6 44.7933C4.703 44.7933 4.71 47.5313 6.011 49.0853C6.567 49.7493 7.91 51.4803 8.995 52.9313C10.08 54.3813 12.208 55.8793 13.724 56.2603C15.24 56.6403 16.709 57.3023 16.99 57.7303C17.683 58.7883 38.631 62.5433 48.5 63.3783C52.9 63.7503 56.747 64.4393 57.049 64.9083C57.351 65.3763 64.101 65.8803 72.049 66.0273L86.5 66.2933L86.806 62.6083C87.206 57.8083 85.964 57.1993 74 56.3333C55.162 54.9703 21.263 49.3893 19.182 47.3083C17.335 45.4613 24.488 43.7203 47.973 40.3013C65.652 37.7283 67 37.1153 67 31.6583C67 24.7893 76.66 20.3643 82.171 24.7093C83.641 25.8673 85.641 28.9053 86.617 31.4593L88.391 36.1043L114.404 35.4543C134.845 34.9433 140.722 34.5003 141.834 33.3873C143.642 31.5793 143.667 26.8523 141.875 25.6203C141.042 25.0483 131.622 24.9293 117.976 25.3203L95.452 25.9653L93.847 22.5993C91.237 17.1243 84.916 13.4233 77.644 13.1103C74.265 12.9653 70.298 13.3093 68.83 13.8763ZM261.542 67.8993C259.365 68.4213 257.234 69.3983 256.807 70.0713C255.377 72.3223 255.98 76.3323 258.011 78.0713C260.092 79.8523 264 80.4293 264 78.9553C264 78.4943 266.58 77.7063 269.734 77.2053C274.753 76.4073 275.589 75.9443 276.445 73.4903C277.958 69.1543 276.222 67.3263 270.397 67.1213C267.704 67.0273 263.719 67.3773 261.542 67.8993ZM241.5 71.3173C238.821 72.2993 208.081 73.9853 178.31 74.7833C146.76 75.6293 145.018 75.7753 143.06 77.7333C140.538 80.2553 140.515 81.6323 142.944 84.5433C144.77 86.7323 145.336 86.7933 163.91 86.7933C174.41 86.7933 183 86.4143 183 85.9513C183 85.4883 192.338 84.7813 203.75 84.3803C215.162 83.9793 229.884 83.1203 236.465 82.4723C247.798 81.3553 248.508 81.1543 249.906 78.6583C251.228 76.2963 251.204 75.7533 249.667 73.4083C248.068 70.9663 244.766 70.1213 241.5 71.3173ZM98.25 89.4403C97.013 89.7113 96 90.3513 96 90.8633C96 91.3743 95.382 91.7933 94.626 91.7933C91.971 91.7933 84.314 96.8093 83.185 99.2873C82.557 100.665 81.583 101.793 81.021 101.793C80.46 101.793 80 102.468 80 103.293C80 104.422 78.791 104.793 75.115 104.793C72.428 104.793 67.919 105.539 65.095 106.451C58.248 108.663 52.844 115.755 52.207 123.366L51.782 128.44L44.391 129.682C40.326 130.365 37 131.291 37 131.74C37 132.188 35.088 133.061 32.75 133.679C25.533 135.586 22.359 139.562 23.442 145.338C24.077 148.722 28.906 152.793 32.285 152.793C33.136 152.793 33.988 153.256 34.176 153.822C34.606 155.11 50.3 158.373 60.685 159.333C64.983 159.73 68.725 160.385 69 160.789C69.541 161.582 96.094 163.739 107.5 163.916C111.35 163.976 113.6 164.221 112.5 164.461C111.4 164.7 109.6 165.297 108.5 165.788C107.4 166.278 99.408 166.838 90.741 167.031C77.495 167.327 74.708 167.657 73.266 169.099C71.657 170.708 71.654 170.985 73.225 173.554L74.901 176.293L96.93 175.963C109.046 175.781 121.093 175.328 123.7 174.955C128.301 174.297 128.464 174.156 129.26 170.132C130.645 163.129 136.67 158.722 142.768 160.252C149.141 161.85 150.214 161.496 152.919 156.901C154.342 154.485 157.233 151.11 159.346 149.401C162.719 146.671 163.939 146.293 169.383 146.293C174.862 146.293 176.055 146.668 179.67 149.531C182.425 151.714 184.483 154.555 185.981 158.246C188.613 164.73 190.704 165.757 195.383 162.865C200.119 159.938 204.301 160.197 208.172 163.656C210.985 166.169 211.411 167.228 211.66 172.328C211.816 175.523 212.294 178.485 212.722 178.909C213.15 179.334 216.65 180.165 220.5 180.757C228.666 182.012 239.865 184.644 241.957 185.799C245.417 187.71 221.017 192.203 195 194.446C165.933 196.952 89.236 196.961 60 194.461C41.545 192.883 19.29 189.331 12.908 186.945C10.771 186.146 11.288 185.809 17.502 183.951C25.4 181.588 34.112 180.261 48 179.304C60.102 178.471 60.698 178.277 62.628 174.545C64.136 171.629 64.12 171.35 62.367 170.014C60.89 168.887 58.099 168.711 49 169.174C36.072 169.831 21.011 171.653 19.5 172.742C18.95 173.138 15.425 174.272 11.667 175.261C3.136 177.507 0 180.492 0 186.367C0 193.869 6.439 197.249 25.975 200.002C30.664 200.663 34.725 201.507 35 201.877C36.349 203.692 94.295 206.769 127 206.763C160.823 206.756 216.936 203.752 219.5 201.811C220.05 201.394 223.219 200.758 226.543 200.397C235.703 199.402 247.623 196.312 249.485 194.451C250.397 193.539 251.77 192.793 252.536 192.793C255.714 192.793 257.165 184.911 254.608 181.543C253.877 180.58 252.767 179.793 252.14 179.793C251.513 179.793 251 179.415 251 178.954C251 177.715 247.205 176.2 240.467 174.748C237.185 174.041 234.05 173.137 233.5 172.74C232.95 172.342 230.183 171.706 227.352 171.325C222.526 170.677 222.173 170.435 221.72 167.463C221.455 165.72 221.297 164.217 221.371 164.124C221.444 164.031 228.929 163.409 238.002 162.742C247.076 162.074 254.725 161.228 255 160.86C255.275 160.492 260.225 159.619 266 158.918C278.939 157.349 289.672 155.153 291.285 153.746C291.953 153.163 294.075 151.923 296 150.99C298.992 149.539 299.546 148.726 299.82 145.388C300.365 138.725 299.397 136.885 294.219 134.744C291.623 133.671 288.761 132.37 287.858 131.852C285.654 130.589 272.89 128.267 259.854 126.759L249.208 125.527L248.054 119.66C247.419 116.433 246.527 113.793 246.071 113.793C245.615 113.793 244.669 112.408 243.968 110.716C243.267 109.023 241.532 106.885 240.113 105.966C238.694 105.046 236.794 103.561 235.891 102.667C231.298 98.1213 211.59 98.5133 206.786 103.246C203.088 106.889 200.49 107.822 195.82 107.182C189.269 106.284 183.304 108.313 178.842 112.957C176.727 115.159 174.723 118.048 174.39 119.377C173.801 121.723 173.503 121.793 164.142 121.793H154.5L151.625 118.19C148.295 114.017 143.655 111.793 138.276 111.793C134.707 111.793 134.412 111.552 133.191 107.641C131.004 100.633 121.742 91.7933 116.587 91.7933C115.806 91.7933 114.999 91.2903 114.794 90.6753C114.401 89.4963 102.172 88.5843 98.25 89.4403ZM113.5 101.081C120.389 104.609 123.531 109.063 125.442 118.014C126.26 121.84 128.697 122.863 133.772 121.508C137.491 120.516 138.297 120.623 140.739 122.436C142.257 123.563 144.044 125.56 144.708 126.872C147.008 131.414 148.514 131.793 164.257 131.793C172.438 131.793 179.942 131.359 180.932 130.829C181.963 130.278 182.996 128.222 183.347 126.021C184.562 118.426 190.95 115.35 198.536 118.706L203.251 120.791L207.932 115.959C214.155 109.537 219.601 107.996 227.092 110.538C234.072 112.907 238.176 118.415 238.179 125.418C238.182 131.55 238.696 133.462 240.532 134.167C241.332 134.474 247.503 135.427 254.244 136.285C270.953 138.413 282.874 140.663 285.939 142.269L288.497 143.609L285.999 144.639C278.646 147.671 253.51 151.489 231.312 152.947C216.529 153.918 212.097 153.896 207.641 152.827C204.601 152.097 200.4 151.793 198.207 152.144C194.451 152.745 194.126 152.582 191.667 148.865C188.277 143.743 183.208 139.961 177.386 138.209C167.044 135.096 158.01 137.502 150 145.501C144.909 150.586 144.128 151.008 139.5 151.178C136.75 151.279 132.862 152.162 130.859 153.14C127.494 154.783 125.679 154.833 106.859 153.811C95.662 153.202 82.45 152.263 77.5 151.723C60.122 149.829 37.532 145.462 36.504 143.799C35.617 142.364 44.983 139.532 54.776 138.275C61.898 137.361 63.214 135.883 62.395 129.713C61.576 123.543 63.187 119.459 67.486 116.802C71.134 114.547 75.162 114.256 79.896 115.907C83.762 117.254 85.781 115.822 88.493 109.81C90.39 105.603 96.399 100.94 101.495 99.7223C104.885 98.9113 110.506 99.5473 113.5 101.081ZM34.375 211.523C31.474 214.652 31.425 215.56 34.037 217.825C35.406 219.012 38.647 219.819 43.926 220.286C53.623 221.145 56 220.17 56 215.335C56 212.384 55.582 211.821 52.75 210.958C50.962 210.413 46.631 209.74 43.125 209.463C37.245 208.999 36.565 209.159 34.375 211.523ZM209 209.825C205.425 210.262 195.412 210.95 186.75 211.354C178.088 211.758 171 212.472 171 212.941C171 214.183 84.269 214.037 83.5 212.793C83.159 212.241 78.656 211.793 73.441 211.793C65.333 211.793 63.718 212.075 62 213.793C59.517 216.276 59.526 217.644 62.042 220.665C64.007 223.023 64.195 223.042 95.596 224.11C119.43 224.92 136.038 224.877 163.312 223.934C183.187 223.247 199.685 222.321 199.974 221.876C200.263 221.431 204.775 220.739 210 220.339C215.225 219.939 220.063 219.147 220.75 218.58C222.12 217.449 222.405 212.977 221.225 211.122C220.101 209.356 216.212 208.944 209 209.825Z" fill="#557E88"/>
<path fill-rule="evenodd" clip-rule="evenodd" d="M221.75 0.427299C220.787 0.709299 220 1.3263 220 1.7993C220 2.2723 218.988 2.9633 217.75 3.3363C216.512 3.7093 213.98 5.4263 212.122 7.1533C209.898 9.2203 208.589 9.8663 208.289 9.0433C207.752 7.5693 194 7.2523 194 8.7143C194 9.2203 192.724 9.9143 191.165 10.2573C187.545 11.0523 181.11 17.8083 179.944 22.0373L179.046 25.2933L168.461 24.9503C162.639 24.7623 156.832 24.8693 155.557 25.1893C152.206 26.0303 151.752 29.2333 154.555 32.2583C156.859 34.7443 157.18 34.7933 171.252 34.7933C186.68 34.7933 188 34.3953 188 29.7413C188 26.4303 191.757 20.7293 195.03 19.0723C198.847 17.1413 204.841 17.5323 208.785 19.9693L212.306 22.1453L216.903 17.0543C222.653 10.6863 224.975 9.5213 231.793 9.5823C236.251 9.6223 237.887 10.1543 240.866 12.5333C247.796 18.0683 248.622 21.4043 246.404 34.9253C246.07 36.9623 246.251 38.8303 246.816 39.1793C247.369 39.5213 251.575 40.4983 256.161 41.3503C267.224 43.4053 276 45.8583 276 46.8973C276 48.1173 267.176 50.4453 254 52.7023C228.551 57.0603 194.118 58.8933 140.527 58.7413C99.844 58.6263 99.542 58.6403 97.827 60.7583C96.617 62.2523 96.343 63.5493 96.912 65.0923C97.637 67.0573 98.728 67.3803 107.112 68.1063C127.976 69.9123 236.169 67.2123 238 64.8393C238.275 64.4833 243.675 63.6313 250 62.9453C263.674 61.4643 276.369 58.9873 276.833 57.7103C277.017 57.2053 277.847 56.7933 278.679 56.7933C280.89 56.7933 286 53.5603 286 52.1613C286 51.5003 286.525 50.7853 287.167 50.5713C287.808 50.3573 288.333 48.7413 288.333 46.9793C288.333 42.9283 284.883 39.1383 279.81 37.6183C277.714 36.9903 276 36.1393 276 35.7273C276 35.3153 271.761 34.2153 266.58 33.2823L257.159 31.5863L257.684 28.3513C258.396 23.9663 256.221 14.0143 254.084 11.8773C253.129 10.9223 252.059 9.3903 251.707 8.4723C251.355 7.5553 249.59 5.9293 247.784 4.8583C245.978 3.7873 243.854 2.3403 243.065 1.6403C241.61 0.3503 225.202 -0.582701 221.75 0.427299ZM68.83 13.8763C64.583 15.5153 59.181 21.2443 57.844 25.5273L56.616 29.4643L45.55 30.6183C32.593 31.9683 18 34.7433 18 35.8563C18 36.2843 16.671 36.9263 15.047 37.2833C11.433 38.0763 7 41.4283 7 43.3663C7 44.1513 6.55 44.7933 6 44.7933C4.703 44.7933 4.71 47.5313 6.011 49.0853C6.567 49.7493 7.91 51.4803 8.995 52.9313C10.08 54.3813 12.208 55.8793 13.724 56.2603C15.24 56.6403 16.709 57.3023 16.99 57.7303C17.683 58.7883 38.631 62.5433 48.5 63.3783C52.9 63.7503 56.747 64.4393 57.049 64.9083C57.351 65.3763 64.101 65.8803 72.049 66.0273L86.5 66.2933V62.8313C86.5 57.9633 84.194 57.1423 67 55.8853C46.061 54.3543 18 49.1473 18 46.7933C18 45.0513 37.124 40.8103 53.952 38.8213C59.15 38.2063 63.932 37.2653 64.577 36.7293C65.222 36.1943 66.028 34.0183 66.368 31.8943C67.313 25.9853 69.78 23.6163 75.564 23.0633C79.817 22.6573 80.875 22.9393 83.21 25.1073C84.7 26.4913 86.224 28.8983 86.597 30.4583C87.939 36.0653 87.245 35.9453 114.413 35.2483C139.126 34.6143 139.532 34.5693 141.667 32.2393C144.211 29.4643 143.768 26.1723 140.721 25.2043C139.587 24.8443 128.939 24.8733 117.061 25.2693L95.463 25.9873L93.853 22.6103C91.237 17.1253 84.921 13.4233 77.644 13.1103C74.265 12.9653 70.298 13.3093 68.83 13.8763ZM261.542 67.8993C259.365 68.4213 257.234 69.3983 256.807 70.0713C255.377 72.3223 255.98 76.3323 258.011 78.0713C260.092 79.8523 264 80.4293 264 78.9553C264 78.4943 266.58 77.7063 269.734 77.2053C274.753 76.4073 275.589 75.9443 276.445 73.4903C277.958 69.1543 276.222 67.3263 270.397 67.1213C267.704 67.0273 263.719 67.3773 261.542 67.8993ZM241.5 71.3173C238.821 72.2993 208.081 73.9853 178.31 74.7833C146.76 75.6293 145.018 75.7753 143.06 77.7333C140.538 80.2553 140.515 81.6323 142.944 84.5433C144.77 86.7323 145.336 86.7933 163.91 86.7933C174.41 86.7933 183 86.4143 183 85.9513C183 85.4883 192.338 84.7813 203.75 84.3803C215.162 83.9793 229.884 83.1203 236.465 82.4723C247.798 81.3553 248.508 81.1543 249.906 78.6583C251.228 76.2963 251.204 75.7533 249.667 73.4083C248.068 70.9663 244.766 70.1213 241.5 71.3173ZM98.25 89.4403C97.013 89.7113 96 90.3513 96 90.8633C96 91.3743 95.382 91.7933 94.626 91.7933C91.971 91.7933 84.314 96.8093 83.185 99.2873C82.557 100.665 81.583 101.793 81.021 101.793C80.46 101.793 80 102.468 80 103.293C80 104.422 78.791 104.793 75.115 104.793C72.428 104.793 67.919 105.539 65.095 106.451C58.248 108.663 52.844 115.755 52.207 123.366L51.782 128.44L44.391 129.682C40.326 130.365 37 131.291 37 131.74C37 132.188 35.088 133.061 32.75 133.679C25.533 135.586 22.359 139.562 23.442 145.338C24.077 148.722 28.906 152.793 32.285 152.793C33.136 152.793 33.988 153.256 34.176 153.822C34.606 155.11 50.3 158.373 60.685 159.333C64.983 159.73 68.725 160.385 69 160.789C69.533 161.571 95.834 163.721 107.5 163.936C111.35 164.007 113.375 164.267 112 164.514C110.625 164.761 109.072 165.374 108.55 165.878C108.027 166.381 101.727 166.819 94.55 166.851C79.405 166.918 74.118 167.658 72.697 169.912C71.917 171.148 72.25 172.15 74.103 174.148L76.53 176.766L101.515 175.629C115.257 175.005 127.006 174.102 127.625 173.624C128.244 173.146 129.03 171.005 129.372 168.865C129.802 166.177 130.989 164.139 133.214 162.266C136.264 159.7 136.813 159.591 143.584 160.204L150.733 160.852L152.065 157.636C153.741 153.59 158.988 148.128 162.471 146.804C166.22 145.379 172.48 145.549 176.39 147.183C180.895 149.065 183.793 152.286 186.611 158.543C189.163 164.21 191.54 165.211 195.441 162.261C196.509 161.454 199.209 160.803 201.441 160.815C208.194 160.852 212 165.282 212 173.105C212 175.549 212.563 178.009 213.25 178.572C213.938 179.136 218.1 180.111 222.5 180.739C230.083 181.822 244 185.39 244 186.251C244 186.983 232.73 189.94 224.559 191.353C198.458 195.866 138.696 198.506 99.178 196.892C69.034 195.66 41.476 193.458 30 191.364C19.703 189.485 10.866 186.819 11.506 185.784C12.922 183.493 28.073 180.679 48.937 178.831C55.228 178.274 60.655 177.475 60.997 177.056C61.34 176.636 62.142 175.064 62.78 173.562C64.613 169.246 61.831 168.384 48.521 169.144C35.651 169.879 20.942 171.703 19.5 172.742C18.95 173.138 15.425 174.272 11.667 175.261C3.136 177.507 0 180.492 0 186.367C0 193.869 6.439 197.249 25.975 200.002C30.664 200.663 34.725 201.507 35 201.877C36.349 203.692 94.295 206.769 127 206.763C160.823 206.756 216.936 203.752 219.5 201.811C220.05 201.394 223.219 200.758 226.543 200.397C235.703 199.402 247.623 196.312 249.485 194.451C250.397 193.539 251.77 192.793 252.536 192.793C255.714 192.793 257.165 184.911 254.608 181.543C253.877 180.58 252.767 179.793 252.14 179.793C251.513 179.793 251 179.415 251 178.954C251 177.715 247.205 176.2 240.467 174.748C237.185 174.041 234.05 173.137 233.5 172.74C232.95 172.342 230.183 171.706 227.352 171.325C222.526 170.677 222.173 170.435 221.72 167.463C221.455 165.72 221.297 164.217 221.371 164.124C221.444 164.031 228.929 163.409 238.002 162.742C247.076 162.074 254.725 161.228 255 160.86C255.275 160.492 260.225 159.619 266 158.918C278.939 157.349 289.672 155.153 291.285 153.746C291.953 153.163 294.075 151.923 296 150.99C298.992 149.539 299.546 148.726 299.82 145.388C300.365 138.725 299.397 136.885 294.219 134.744C291.623 133.671 288.761 132.37 287.858 131.852C285.654 130.589 272.89 128.267 259.854 126.759L249.208 125.527L248.054 119.66C247.419 116.433 246.527 113.793 246.071 113.793C245.615 113.793 244.669 112.408 243.968 110.716C243.267 109.023 241.532 106.885 240.113 105.966C238.694 105.046 236.794 103.561 235.891 102.667C231.298 98.1213 211.59 98.5133 206.786 103.246C203.088 106.889 200.49 107.822 195.82 107.182C189.269 106.284 183.304 108.313 178.842 112.957C176.727 115.159 174.723 118.048 174.39 119.377C173.801 121.723 173.503 121.793 164.142 121.793H154.5L151.625 118.19C148.295 114.017 143.655 111.793 138.276 111.793C134.707 111.793 134.412 111.552 133.191 107.641C131.004 100.633 121.742 91.7933 116.587 91.7933C115.806 91.7933 114.999 91.2903 114.794 90.6753C114.401 89.4963 102.172 88.5843 98.25 89.4403ZM112.782 100.346C119.425 103.121 123.741 108.537 125.487 116.287C126.601 121.237 127.599 121.804 134.013 121.134C140.27 120.48 141.514 121.193 146.297 128.171L148.093 130.793H164.424C182.373 130.793 182.283 130.823 183.424 124.495C184.569 118.143 192.118 114.931 198 118.293C201.967 120.561 204.286 120.061 207.295 116.291C214.775 106.915 227.083 106.429 234.787 115.204C237.721 118.545 238.443 120.99 239.242 130.293C239.542 133.777 238.786 133.551 261 136.815C276.227 139.052 286.915 141.382 288.357 142.778C289.706 144.083 286.291 145.381 275.5 147.663C260.652 150.803 253.554 151.699 231.502 153.22C216.803 154.233 210.974 154.306 209.502 153.495C208.401 152.889 204.245 152.41 200.266 152.431C194.206 152.464 192.941 152.183 192.471 150.702C191.584 147.908 184.883 141.751 180.5 139.705C177.79 138.439 174.199 137.83 169.364 137.815C160.505 137.788 153.104 141.22 148.505 147.488C145.719 151.285 145.153 151.585 140.738 151.592C138.119 151.597 133.73 152.408 130.985 153.396C126.339 155.066 124.502 155.104 104.389 153.948C92.506 153.264 77.095 152.037 70.142 151.221C56.036 149.564 37.446 145.639 35.768 143.961C34.241 142.434 38.296 140.998 50.341 138.804C55.753 137.818 60.662 136.531 61.25 135.943C61.837 135.356 62.225 131.992 62.11 128.468C61.929 122.849 62.225 121.679 64.525 118.945C67.912 114.921 73.616 113.115 78.056 114.663C83.639 116.609 84.789 116.144 87.469 110.855C92.567 100.794 103.244 96.3623 112.782 100.346ZM34.375 211.523C31.474 214.652 31.425 215.56 34.037 217.825C35.406 219.012 38.647 219.819 43.926 220.286C53.623 221.145 56 220.17 56 215.335C56 212.384 55.582 211.821 52.75 210.958C50.962 210.413 46.631 209.74 43.125 209.463C37.245 208.999 36.565 209.159 34.375 211.523ZM209 209.825C205.425 210.262 195.412 210.95 186.75 211.354C178.088 211.758 171 212.472 171 212.941C171 214.183 84.269 214.037 83.5 212.793C83.159 212.241 78.656 211.793 73.441 211.793C65.333 211.793 63.718 212.075 62 213.793C59.517 216.276 59.526 217.644 62.042 220.665C64.007 223.023 64.195 223.042 95.596 224.11C119.43 224.92 136.038 224.877 163.312 223.934C183.187 223.247 199.685 222.321 199.974 221.876C200.263 221.431 204.775 220.739 210 220.339C215.225 219.939 220.063 219.147 220.75 218.58C222.12 217.449 222.405 212.977 221.225 211.122C220.101 209.356 216.212 208.944 209 209.825Z" fill="#31383A"/>
<path fill-rule="evenodd" clip-rule="evenodd" d="M221.75 0.427299C220.787 0.709299 220 1.3263 220 1.7993C220 2.2723 218.988 2.9633 217.75 3.3363C216.512 3.7093 213.98 5.4263 212.122 7.1533C209.898 9.2203 208.589 9.8663 208.289 9.0433C207.752 7.5693 194 7.2523 194 8.7143C194 9.2203 192.724 9.9143 191.165 10.2573C187.545 11.0523 181.11 17.8083 179.944 22.0373L179.046 25.2933L168.461 24.9503C162.639 24.7623 156.812 24.8743 155.511 25.2013C152.378 25.9873 151.949 28.7553 154.524 31.5713C156.538 33.7733 157.103 33.8393 171.507 33.5713L186.407 33.2933L187.453 29.2543C190.337 18.1293 199.552 14.0733 209.265 19.6533C212.012 21.2313 212.06 21.2093 216.765 16.1663C222.044 10.5083 227.139 8.2803 232.999 9.0663C238.672 9.8273 242.112 11.8643 245.232 16.3093C249.047 21.7463 249.761 26.7793 247.446 31.9133C244.932 37.4873 246.118 39.0013 254.106 40.4113C260.887 41.6093 272.825 44.4053 275.437 45.4073C278.997 46.7733 275.339 49.0673 267.5 50.3843C265.3 50.7543 262.768 51.4333 261.872 51.8943C258.924 53.4123 237.971 55.6743 207 57.8173C182.212 59.5333 169.347 59.8693 138.306 59.6123C100.92 59.3023 100.072 59.3393 98.208 61.3393C96.868 62.7783 96.534 64.0043 97.081 65.4823C97.798 67.4213 98.905 67.6373 111.678 68.3293C139.318 69.8273 236.217 67.1503 238 64.8393C238.275 64.4833 243.675 63.6313 250 62.9453C263.674 61.4643 276.369 58.9873 276.833 57.7103C277.017 57.2053 277.847 56.7933 278.679 56.7933C280.89 56.7933 286 53.5603 286 52.1613C286 51.5003 286.525 50.7853 287.167 50.5713C287.808 50.3573 288.333 48.7413 288.333 46.9793C288.333 42.9283 284.883 39.1383 279.81 37.6183C277.714 36.9903 276 36.1393 276 35.7273C276 35.3153 271.761 34.2153 266.58 33.2823L257.159 31.5863L257.684 28.3513C258.396 23.9663 256.221 14.0143 254.084 11.8773C253.129 10.9223 252.059 9.3903 251.707 8.4723C251.355 7.5553 249.59 5.9293 247.784 4.8583C245.978 3.7873 243.854 2.3403 243.065 1.6403C241.61 0.3503 225.202 -0.582701 221.75 0.427299ZM68.83 13.8763C64.583 15.5153 59.181 21.2443 57.844 25.5273L56.616 29.4643L45.55 30.6183C32.593 31.9683 18 34.7433 18 35.8563C18 36.2843 16.671 36.9263 15.047 37.2833C11.433 38.0763 7 41.4283 7 43.3663C7 44.1513 6.55 44.7933 6 44.7933C4.703 44.7933 4.71 47.5313 6.011 49.0853C6.567 49.7493 7.91 51.4803 8.995 52.9313C10.08 54.3813 12.208 55.8793 13.724 56.2603C15.24 56.6403 16.709 57.3023 16.99 57.7303C17.683 58.7883 38.631 62.5433 48.5 63.3783C52.9 63.7503 56.747 64.4393 57.049 64.9083C57.351 65.3763 64.101 65.8803 72.049 66.0273C86.024 66.2843 86.51 66.2253 86.797 64.2123C86.961 63.0683 86.286 61.1373 85.297 59.9203C83.7 57.9563 82.051 57.5993 70.5 56.7233C55.239 55.5653 35.762 53.0883 31.5 51.7643C29.85 51.2513 25.912 50.1353 22.75 49.2843C19.587 48.4333 17 47.3183 17 46.8053C17 46.2933 18.912 45.3523 21.25 44.7143C23.587 44.0773 27.525 42.9483 30 42.2063C32.475 41.4643 40.35 40.1513 47.5 39.2873C65.831 37.0743 64.664 37.5203 65.426 32.4393C66.14 27.6793 68.701 24.6083 73.461 22.8043C77.553 21.2543 84.206 23.7923 85.939 27.5663C89.703 35.7583 89.159 35.3043 95.045 35.1533C128.621 34.2923 139.991 33.4503 141.884 31.6873C144.248 29.4843 143.647 26.1333 140.721 25.2043C139.587 24.8443 128.939 24.8733 117.061 25.2693L95.463 25.9873L93.853 22.6103C91.237 17.1253 84.921 13.4233 77.644 13.1103C74.265 12.9653 70.298 13.3093 68.83 13.8763ZM261.542 67.8993C259.365 68.4213 257.234 69.3983 256.807 70.0713C255.377 72.3223 255.98 76.3323 258.011 78.0713C260.092 79.8523 264 80.4293 264 78.9553C264 78.4943 266.58 77.7063 269.734 77.2053C274.753 76.4073 275.589 75.9443 276.445 73.4903C277.958 69.1543 276.222 67.3263 270.397 67.1213C267.704 67.0273 263.719 67.3773 261.542 67.8993ZM241.5 71.3173C238.821 72.2993 208.081 73.9853 178.31 74.7833C146.76 75.6293 145.018 75.7753 143.06 77.7333C140.538 80.2553 140.515 81.6323 142.944 84.5433C144.77 86.7323 145.336 86.7933 163.91 86.7933C174.41 86.7933 183 86.4143 183 85.9513C183 85.4883 192.338 84.7813 203.75 84.3803C215.162 83.9793 229.884 83.1203 236.465 82.4723C247.798 81.3553 248.508 81.1543 249.906 78.6583C251.228 76.2963 251.204 75.7533 249.667 73.4083C248.068 70.9663 244.766 70.1213 241.5 71.3173ZM98.25 89.4403C97.013 89.7113 96 90.3513 96 90.8633C96 91.3743 95.382 91.7933 94.626 91.7933C91.971 91.7933 84.314 96.8093 83.185 99.2873C82.557 100.665 81.583 101.793 81.021 101.793C80.46 101.793 80 102.468 80 103.293C80 104.422 78.791 104.793 75.115 104.793C72.428 104.793 67.919 105.539 65.095 106.451C58.248 108.663 52.844 115.755 52.207 123.366L51.782 128.44L44.391 129.682C40.326 130.365 37 131.291 37 131.74C37 132.188 35.088 133.061 32.75 133.679C25.533 135.586 22.359 139.562 23.442 145.338C24.077 148.722 28.906 152.793 32.285 152.793C33.136 152.793 33.988 153.256 34.176 153.822C34.606 155.11 50.3 158.373 60.685 159.333C64.983 159.73 68.725 160.385 69 160.789C69.541 161.582 96.094 163.739 107.5 163.916C111.35 163.976 113.6 164.221 112.5 164.461C111.4 164.7 109.6 165.297 108.5 165.788C107.4 166.278 99.408 166.838 90.741 167.031C78.004 167.316 74.676 167.688 73.392 168.973C71.939 170.425 71.954 170.794 73.567 173.256L75.332 175.949L100.416 175.249C127.153 174.503 128.995 174.126 129.004 169.388C129.01 166.088 132.684 160.91 135.526 160.197C136.949 159.84 140.769 159.848 144.014 160.215L149.914 160.883L151.854 157.088C154.371 152.166 158.256 148.026 161.527 146.783C165.259 145.364 173.513 145.563 177.346 147.164C181.093 148.73 186.54 155.113 187.545 159.115C188.566 163.183 190.66 163.831 195.651 161.623C200.244 159.592 204.98 159.815 208.239 162.216C210.785 164.092 213.139 170.39 212.398 173.342C211.424 177.224 214.143 179.46 220.807 180.258C230.729 181.446 241.451 183.891 242.892 185.293C244.073 186.443 243.727 186.88 240.612 188.182C234.628 190.682 229.409 191.482 189.5 196.015C176.046 197.544 78.966 197.545 65.5 196.017C25.448 191.472 21.341 190.84 14.243 188.137C11.099 186.94 10.249 186.197 10.996 185.298C12.698 183.247 29.319 180.232 52.5 177.769C56.9 177.301 60.58 176.891 60.677 176.856C60.774 176.821 61.528 175.441 62.352 173.788C63.762 170.963 63.725 170.716 61.728 169.647C58.43 167.882 22.599 170.508 19.5 172.742C18.95 173.138 15.425 174.272 11.667 175.261C3.136 177.507 0 180.492 0 186.367C0 193.869 6.439 197.249 25.975 200.002C30.664 200.663 34.725 201.507 35 201.877C36.349 203.692 94.295 206.769 127 206.763C160.823 206.756 216.936 203.752 219.5 201.811C220.05 201.394 223.219 200.758 226.543 200.397C235.703 199.402 247.623 196.312 249.485 194.451C250.397 193.539 251.77 192.793 252.536 192.793C255.714 192.793 257.165 184.911 254.608 181.543C253.877 180.58 252.767 179.793 252.14 179.793C251.513 179.793 251 179.415 251 178.954C251 177.715 247.205 176.2 240.467 174.748C237.185 174.041 234.05 173.137 233.5 172.74C232.95 172.342 230.183 171.706 227.352 171.325C222.526 170.677 222.173 170.435 221.72 167.463C221.455 165.72 221.297 164.217 221.371 164.124C221.444 164.031 228.929 163.409 238.002 162.742C247.076 162.074 254.725 161.228 255 160.86C255.275 160.492 260.225 159.619 266 158.918C278.939 157.349 289.672 155.153 291.285 153.746C291.953 153.163 294.075 151.923 296 150.99C298.992 149.539 299.546 148.726 299.82 145.388C300.365 138.725 299.397 136.885 294.219 134.744C291.623 133.671 288.761 132.37 287.858 131.852C285.654 130.589 272.89 128.267 259.854 126.759L249.208 125.527L248.054 119.66C247.419 116.433 246.527 113.793 246.071 113.793C245.615 113.793 244.669 112.408 243.968 110.716C243.267 109.023 241.532 106.885 240.113 105.966C238.694 105.046 236.794 103.561 235.891 102.667C231.298 98.1213 211.59 98.5133 206.786 103.246C203.088 106.889 200.49 107.822 195.82 107.182C189.269 106.284 183.304 108.313 178.842 112.957C176.727 115.159 174.723 118.048 174.39 119.377C173.801 121.723 173.503 121.793 164.142 121.793H154.5L151.625 118.19C148.295 114.017 143.655 111.793 138.276 111.793C134.707 111.793 134.412 111.552 133.191 107.641C131.004 100.633 121.742 91.7933 116.587 91.7933C115.806 91.7933 114.999 91.2903 114.794 90.6753C114.401 89.4963 102.172 88.5843 98.25 89.4403ZM115.038 101.043C120.023 103.557 125.99 111.568 126.015 115.782C126.042 120.196 127.336 121.156 132.334 120.471C138.539 119.62 142.189 121.137 145.071 125.761C146.407 127.904 148.4 129.907 149.5 130.212C153.057 131.197 178.071 130.826 180.066 129.758C181.13 129.188 182 127.875 182 126.839C182 123.972 185.118 119.154 188.123 117.379C191.729 115.249 194.599 115.382 198.617 117.865C202.446 120.232 205.076 119.804 206.509 116.583C207.054 115.357 209.451 112.99 211.836 111.323C217.961 107.043 225.034 107.041 231.164 111.318C236.722 115.196 238.996 119.731 238.998 126.936C239 130.908 239.424 132.742 240.431 133.128C241.219 133.43 246.506 134.188 252.181 134.813C257.857 135.437 264.3 136.316 266.5 136.767C292.742 142.145 294.74 143.245 283.75 146.263C272.606 149.323 263.843 150.68 245 152.264C234.825 153.119 223.209 154.221 219.188 154.714C213.419 155.42 211.308 155.306 209.188 154.174C207.505 153.275 204.102 152.813 200.086 152.938L193.672 153.138L190.867 149.09C186.538 142.841 179.257 138.664 171.625 138.051C167.845 137.748 163.718 138.049 161.395 138.798C156.739 140.298 149.26 146.127 147.757 149.428C146.813 151.499 145.993 151.793 141.155 151.793C137.576 151.793 134.094 152.537 131.264 153.907C127.442 155.758 125.686 155.956 117.198 155.499C89.516 154.008 51.773 149.93 46 147.806C44.625 147.3 41.588 146.398 39.25 145.801C36.75 145.163 35 144.13 35 143.293C35 141.823 36.626 141.292 50.5 138.237C62.146 135.673 62.293 135.56 61.509 129.858C60.662 123.699 62.757 118.521 67.19 115.819C70.77 113.636 76.956 113.164 80.079 114.835C82.815 116.3 84.498 115.047 88.246 108.756C92.245 102.042 97.872 98.7933 105.5 98.7933C108.776 98.7933 112.159 99.5913 115.038 101.043ZM34.375 211.523C31.474 214.652 31.425 215.56 34.037 217.825C35.406 219.012 38.647 219.819 43.926 220.286C53.623 221.145 56 220.17 56 215.335C56 212.384 55.582 211.821 52.75 210.958C50.962 210.413 46.631 209.74 43.125 209.463C37.245 208.999 36.565 209.159 34.375 211.523ZM209 209.825C205.425 210.262 195.412 210.95 186.75 211.354C178.088 211.758 171 212.472 171 212.941C171 214.183 84.269 214.037 83.5 212.793C83.159 212.241 78.656 211.793 73.441 211.793C65.333 211.793 63.718 212.075 62 213.793C59.517 216.276 59.526 217.644 62.042 220.665C64.007 223.023 64.195 223.042 95.596 224.11C119.43 224.92 136.038 224.877 163.312 223.934C183.187 223.247 199.685 222.321 199.974 221.876C200.263 221.431 204.775 220.739 210 220.339C215.225 219.939 220.063 219.147 220.75 218.58C222.12 217.449 222.405 212.977 221.225 211.122C220.101 209.356 216.212 208.944 209 209.825Z" fill="black"/>
</svg>
