<svg width="300" height="228" viewBox="0 0 300 228" fill="none" xmlns="http://www.w3.org/2000/svg">
<path fill-rule="evenodd" clip-rule="evenodd" d="M47.5584 1.45047C41.1794 3.73347 38.8574 5.02747 33.8794 9.07447C31.3054 11.1665 28.1944 12.8785 26.9664 12.8785C22.1254 12.8785 13.9534 16.3635 9.40135 20.3685L4.69735 24.5075L4.47235 32.2825C4.28035 38.8935 3.93235 40.2785 2.15235 41.5255C-2.79365 44.9895 1.30035 58.7025 9.18435 65.0785C16.3034 70.8365 20.5594 72.3695 29.0584 72.2375C33.4904 72.1685 38.0574 71.4665 40.2234 70.5215C43.5004 69.0915 44.3994 69.0775 48.7234 70.3895C51.3824 71.1965 55.3094 71.8615 57.4504 71.8675C61.6834 71.8795 74.6484 68.3515 75.5124 66.9525C75.8064 66.4775 77.7194 66.9415 79.7644 67.9835C84.9644 70.6345 95.0334 70.5535 100.691 67.8145C108.375 64.0945 113.328 53.4635 111.62 44.3565C110.19 36.7335 104.197 30.2045 96.5053 27.8885C93.1003 26.8635 92.2423 25.9805 90.2583 21.4575C87.4323 15.0135 83.5254 10.1665 78.1544 6.44547C69.4804 0.433468 56.3774 -1.70453 47.5584 1.45047ZM192.558 2.75047C184.023 4.98147 176.745 10.8105 173.494 18.0195L171.651 22.1065L169.605 19.6245C168.479 18.2595 165.566 15.8455 163.131 14.2605C159.231 11.7215 157.794 11.3785 151.053 11.3785C144.278 11.3785 142.839 11.7255 138.496 14.4115C131.1 18.9835 127.846 24.5075 127.271 33.4645C126.874 39.6425 127.145 41.4405 129.022 45.0765C133.915 54.5535 139.908 58.2035 151.007 58.4645C157.609 58.6195 158.702 58.9255 160.617 61.1525C161.806 62.5345 164.703 64.9395 167.056 66.4955C170.798 68.9715 172.287 69.3295 178.946 69.3525C185.558 69.3755 187.182 69.0045 191.307 66.5335C193.919 64.9695 196.987 62.3815 198.125 60.7835C199.594 58.7205 201.035 57.8785 203.092 57.8785C206.131 57.8785 212.624 55.2615 214.879 53.1285C215.606 52.4415 216.565 51.8785 217.011 51.8785C218.539 51.8785 223.296 44.6985 225.177 39.5535C231.445 22.4045 219.551 3.81747 201.415 2.41847C198.194 2.16947 194.208 2.31947 192.558 2.75047ZM241.713 30.7075C238.406 34.3605 240.256 38.8785 245.058 38.8785C248.247 38.8785 250.058 37.2015 250.058 34.2495C250.058 29.5085 244.813 27.2815 241.713 30.7075ZM234.996 42.1605C229.725 46.2715 234.182 54.0235 240.02 50.8985C242.793 49.4145 242.863 43.3795 240.124 41.9135C237.688 40.6105 236.937 40.6465 234.996 42.1605ZM254.558 54.6895C246.863 57.5695 243.869 59.3835 239.946 63.5465C233.219 70.6825 230.058 78.5685 230.058 88.2175C230.058 96.0695 231.851 102.017 236.22 108.663C239.392 113.487 239.341 113.54 231.004 114.122C217.468 115.067 207.27 124.444 204.079 138.878C201.179 151.993 209.613 166.817 222.846 171.862C237.973 177.63 256.017 170.026 261.543 155.556C262.709 152.502 263.726 151.197 264.658 151.555C265.42 151.847 269.035 151.565 272.693 150.928C284.946 148.794 293.471 140.66 296.671 128.051C298.129 122.305 298.123 121.263 296.591 115.011C294.94 108.277 294.946 108.183 297.215 104.337C299.068 101.196 299.578 98.6095 299.894 90.7645C300.472 76.3555 296.932 67.2875 290.432 66.5325C286.514 66.0775 280.058 61.2555 280.058 58.7825C280.058 55.6155 275.713 53.7275 267.343 53.2565C261.366 52.9195 258.397 53.2525 254.558 54.6895ZM36.0584 77.8785C31.4904 82.4465 36.0744 87.7285 42.4764 85.2715C44.8364 84.3665 44.5774 78.2265 42.1244 76.9135C39.3764 75.4435 38.3274 75.6095 36.0584 77.8785ZM164.636 76.9415C162.479 77.4785 160.117 78.4145 159.387 79.0205C158.412 79.8295 157.198 79.7585 154.809 78.7505C152.785 77.8965 147.785 77.3785 141.558 77.3785C132.697 77.3785 130.927 77.6885 126.021 80.1005L120.484 82.8225L115.602 80.3505C109.845 77.4355 103.125 77.1185 97.4304 79.4925C87.5694 83.6045 83.0124 89.7905 82.2774 100.064C81.8554 105.952 82.1413 107.527 84.5033 112.356C87.5963 118.677 91.3013 121.805 98.8083 124.435C101.696 125.446 104.058 126.818 104.058 127.483C104.058 129.952 109.631 139.322 113.53 143.408C118.965 149.104 126.35 153.272 129.574 152.463C130.94 152.12 132.058 151.454 132.058 150.982C132.058 149.226 141.525 151.071 143.179 153.15C144.576 154.906 145.527 155.101 150.063 154.564C157.257 153.712 162.424 150.995 169.637 144.272C172.226 141.859 174.164 141.044 178.331 140.614C189 139.512 198.453 132.815 203.779 122.584C206.142 118.045 206.488 116.226 206.481 108.378C206.474 100.07 206.218 98.9175 203.159 93.3785C196.909 82.0615 188.443 76.7015 176.092 76.2435C171.948 76.0895 166.793 76.4035 164.636 76.9415ZM23.8084 83.9345C21.6794 85.2035 21.4844 90.1575 23.4984 91.8285C26.0344 93.9335 30.4084 92.7025 31.5014 89.5755C33.2334 84.6235 28.4894 81.1445 23.8084 83.9345ZM40.9404 99.1985C27.9814 104.046 21.0584 113.762 21.0584 127.1C21.0584 134.514 21.0544 134.524 16.6304 139.141C9.98235 146.08 7.79735 151.653 7.71835 161.878C7.66335 168.908 8.06935 171.243 10.0684 175.378C13.5344 182.551 18.5444 187.53 25.7544 190.971C30.8734 193.415 33.3534 193.977 39.0824 193.996C48.5954 194.026 54.5794 191.84 61.2404 185.904C69.9814 178.113 73.9043 165.589 71.2293 154.017C70.2793 149.907 70.4163 149.384 73.6163 144.93C75.7323 141.985 77.5943 137.69 78.5593 133.53C79.9663 127.463 79.9614 126.291 78.5004 120.656C76.1134 111.444 70.8894 104.901 62.5584 100.69C57.4544 98.1105 45.9684 97.3175 40.9404 99.1985ZM93.0934 137.812C91.4784 140.83 91.8563 142.7 94.4233 144.382C97.9253 146.676 102.058 144.901 102.058 141.103C102.058 139.549 101.518 137.738 100.858 137.078C98.9574 135.177 94.2664 135.62 93.0934 137.812ZM169.558 166.562C162.433 168.172 155.212 173.862 152.078 180.336C149.657 185.337 149.309 197.15 151.433 202.233C155.013 210.802 165.588 217.892 174.746 217.863C181.795 217.841 188.731 215.062 193.405 210.388C194.543 209.25 197.088 208.704 201.875 208.57C207.701 208.406 209.275 207.952 212.473 205.512C218.092 201.224 220.05 197.363 220.054 190.562C220.058 184.031 219.182 181.818 214.723 177.109C210.947 173.12 205.372 171.483 198.491 172.343C193.982 172.906 192.827 172.661 189.567 170.448C183.703 166.469 176.317 165.035 169.558 166.562ZM108.058 174.055C105.14 175.865 102.979 176.238 95.0583 176.302C84.5273 176.386 81.5434 177.459 75.7614 183.242C70.6034 188.4 68.6673 193.332 68.6443 201.378C68.6073 214.358 75.5224 223.219 88.3054 226.572C94.5914 228.22 95.1474 228.216 100.722 226.476C108.236 224.131 113.973 219.417 117.084 213.034C119.048 209.001 120.073 207.941 122.058 207.884C125.576 207.782 132.004 203.024 134.203 198.894C135.428 196.593 136.058 193.331 136.058 189.294C136.058 184.095 135.611 182.562 133.078 179.064C129.095 173.566 125.517 171.877 117.858 171.882C113.14 171.885 110.679 172.43 108.058 174.055ZM229.108 188.318C227.491 190.266 228.166 194.931 230.255 196.239C233.082 198.008 237.497 195.872 237.88 192.549C238.295 188.955 236.529 186.878 233.058 186.878C231.543 186.878 229.765 187.526 229.108 188.318ZM245.713 192.707C243.309 195.363 243.676 198.581 246.599 200.497C250.402 202.988 254.058 201.078 254.058 196.599C254.058 194.773 253.518 192.738 252.858 192.078C251.091 190.311 247.604 190.618 245.713 192.707Z" fill="#A0ECFF"/>
<path fill-rule="evenodd" clip-rule="evenodd" d="M47.5584 1.45047C41.1794 3.73347 38.8574 5.02747 33.8794 9.07447C31.3054 11.1665 28.1944 12.8785 26.9664 12.8785C25.7384 12.8785 22.2774 13.6525 19.2744 14.5995C13.1224 16.5385 4.04836 24.1975 4.07336 27.4295C4.11936 33.2365 9.75136 33.8935 15.1664 28.7245C19.0894 24.9805 24.6304 22.8785 30.5774 22.8785C33.7444 22.8785 35.2204 22.0695 39.5824 17.9435C54.4264 3.90547 77.3694 10.2065 82.5214 29.7375C84.3034 36.4945 84.6424 36.8765 88.8674 36.8935C95.9364 36.9235 96.5444 39.9915 90.4344 44.7975C84.5314 49.4405 75.6704 49.5075 69.8784 44.9515C67.4444 43.0365 67.4204 43.0405 61.0914 46.1775C55.7224 48.8385 53.6514 49.3155 47.6514 49.2745C43.3644 49.2455 39.0474 48.5735 36.7394 47.5745C33.4294 46.1435 32.6294 46.1095 30.7394 47.3195C27.0294 49.6945 20.2014 51.0225 15.3994 50.3025C11.4334 49.7075 10.6654 49.1825 9.42536 46.2155C7.70536 42.0975 3.86736 39.9615 1.58836 41.8535C-0.685639 43.7405 -0.28264 50.6035 2.44436 56.4595C4.98236 61.9105 10.8394 67.3455 17.5584 70.4845C22.6064 72.8435 34.8564 72.8635 40.2234 70.5215C43.5004 69.0915 44.3994 69.0775 48.7234 70.3895C51.3824 71.1965 55.3094 71.8615 57.4504 71.8675C61.6834 71.8795 74.6484 68.3515 75.5124 66.9525C75.8064 66.4775 77.7194 66.9415 79.7644 67.9835C84.9644 70.6345 95.0334 70.5535 100.691 67.8145C108.375 64.0945 113.328 53.4635 111.62 44.3565C110.19 36.7335 104.197 30.2045 96.5054 27.8885C93.1004 26.8635 92.2424 25.9805 90.2584 21.4575C87.4324 15.0135 83.5254 10.1665 78.1544 6.44547C69.4804 0.433468 56.3774 -1.70453 47.5584 1.45047ZM192.558 2.75047C184.023 4.98147 176.745 10.8105 173.494 18.0195L171.651 22.1065L169.605 19.6245C168.479 18.2595 165.566 15.8455 163.131 14.2605C159.231 11.7215 157.794 11.3785 151.053 11.3785C144.278 11.3785 142.839 11.7255 138.496 14.4115C131.1 18.9835 127.846 24.5075 127.271 33.4645C126.874 39.6425 127.145 41.4405 129.022 45.0765C133.915 54.5535 139.908 58.2035 151.007 58.4645C157.609 58.6195 158.702 58.9255 160.617 61.1525C161.806 62.5345 164.703 64.9395 167.056 66.4955C170.798 68.9715 172.287 69.3295 178.946 69.3525C185.558 69.3755 187.182 69.0045 191.307 66.5335C193.919 64.9695 196.987 62.3815 198.125 60.7835C199.594 58.7205 201.035 57.8785 203.092 57.8785C206.131 57.8785 212.624 55.2615 214.879 53.1285C215.606 52.4415 216.565 51.8785 217.011 51.8785C218.539 51.8785 223.296 44.6985 225.177 39.5535C231.445 22.4045 219.551 3.81747 201.415 2.41847C198.194 2.16947 194.208 2.31947 192.558 2.75047ZM204.826 13.4265C212.379 16.5815 216.344 22.4175 216.344 30.3785C216.344 38.8345 210.769 46.2125 203.529 47.3385C201.62 47.6355 198.484 48.1235 196.56 48.4235C193.989 48.8235 192.658 49.7505 191.535 51.9235C190.694 53.5485 189.546 54.8785 188.983 54.8785C185.382 54.8785 178.526 48.8345 175.641 43.1185C174.025 39.9155 173.946 39.8855 171.077 41.3685C166.89 43.5335 157.811 43.3035 153.126 40.9125C148.63 38.6195 142.52 31.8565 141.588 28.1405C140.641 24.3675 143.736 21.7085 149.725 21.1505C155.615 20.6015 160.158 23.2925 163.479 29.2975C166.637 35.0065 168.077 35.6105 173.222 33.3815C178.965 30.8935 180.719 29.3215 181.371 26.0775C182.293 21.4865 186.371 16.4795 191.067 14.1695C196.43 11.5325 199.851 11.3475 204.826 13.4265ZM50.5584 19.2785C48.9084 20.0065 46.3214 21.8495 44.8084 23.3765C38.3714 29.8715 44.7594 36.5915 51.4634 30.3785C56.3024 25.8935 63.6524 27.7215 65.5374 33.8785C65.9584 35.2535 66.7534 36.9415 67.3034 37.6285C68.6784 39.3475 72.5474 39.1995 74.0664 37.3685C75.7904 35.2915 74.7674 28.6825 72.1524 25.0115C67.8694 18.9955 57.4664 16.2345 50.5584 19.2785ZM241.713 30.7075C238.406 34.3605 240.256 38.8785 245.058 38.8785C248.247 38.8785 250.058 37.2015 250.058 34.2495C250.058 29.5085 244.813 27.2815 241.713 30.7075ZM234.996 42.1605C229.725 46.2715 234.182 54.0235 240.02 50.8985C242.793 49.4145 242.863 43.3795 240.124 41.9135C237.688 40.6105 236.937 40.6465 234.996 42.1605ZM254.558 54.6895C246.863 57.5695 243.869 59.3835 239.946 63.5465C233.219 70.6825 230.058 78.5685 230.058 88.2175C230.058 96.0695 231.851 102.017 236.22 108.663C239.392 113.487 239.341 113.54 231.004 114.122C217.468 115.067 207.27 124.444 204.079 138.878C201.179 151.993 209.613 166.817 222.846 171.862C237.973 177.63 256.017 170.026 261.543 155.556C262.709 152.502 263.726 151.197 264.658 151.555C265.42 151.847 269.035 151.565 272.693 150.928C284.946 148.794 293.471 140.66 296.671 128.051C298.129 122.305 298.123 121.263 296.591 115.011C294.94 108.277 294.946 108.183 297.215 104.337C299.068 101.196 299.578 98.6095 299.894 90.7645C300.456 76.7615 296.824 67.0525 290.847 66.5845C286.657 66.2565 280.116 61.7395 280.085 59.1515C280.042 55.6125 276.003 53.7435 267.343 53.2565C261.366 52.9195 258.397 53.2525 254.558 54.6895ZM272.585 64.0725C274.598 64.9895 275.643 64.9945 277.09 64.0905C278.768 63.0425 279.087 63.3215 280.01 66.6465C282.174 74.4355 280.55 84.5705 276.149 90.7515L274 93.7685L276.029 99.7925C278.467 107.028 278.498 108.032 276.502 114.756C274.691 120.854 269.514 127.056 263.626 130.183C260.459 131.866 257.842 132.342 251.808 132.334C245.524 132.325 244.056 132.612 244.048 133.851C244.028 136.989 239.252 145.5 235.822 148.512C231.383 152.41 224.428 155.129 219.99 154.703C215.339 154.257 213.891 151.199 214.298 142.684C214.569 137.002 215.075 135.415 217.645 132.184C219.311 130.091 222.673 127.331 225.116 126.052C229.029 124.002 230.464 123.795 237.175 124.314C246.011 124.997 246.316 124.792 247.941 117.079C249.504 109.664 249.39 108.765 246.463 105.378C241.585 99.7355 240.587 96.8535 240.572 88.3785C240.56 81.4225 240.92 79.7635 243.33 75.6625C246.4 70.4405 250.511 66.9955 256.558 64.5795C261.351 62.6645 268.966 62.4235 272.585 64.0725ZM254.058 72.5875C249.728 73.5775 245.495 85.4485 247.036 92.2815C247.99 96.5115 249.355 97.8395 252.773 97.8635C255.692 97.8835 257.299 94.6775 256.501 90.4245C256.032 87.9265 256.452 85.8095 258.05 82.6095C259.255 80.1955 260.088 77.1795 259.9 75.9085C259.552 73.5525 256.765 71.9685 254.058 72.5875ZM36.0584 77.8785C31.4904 82.4465 36.0744 87.7285 42.4764 85.2715C44.8364 84.3665 44.5774 78.2265 42.1244 76.9135C39.3764 75.4435 38.3274 75.6095 36.0584 77.8785ZM164.636 76.9415C162.479 77.4785 160.117 78.4145 159.387 79.0205C158.412 79.8295 157.198 79.7585 154.809 78.7505C152.785 77.8965 147.785 77.3785 141.558 77.3785C132.697 77.3785 130.927 77.6885 126.021 80.1005L120.484 82.8225L115.602 80.3505C109.845 77.4355 103.125 77.1185 97.4304 79.4925C87.5694 83.6045 83.0124 89.7905 82.2774 100.064C81.8554 105.952 82.1414 107.527 84.5034 112.356C87.5964 118.677 91.3014 121.805 98.8084 124.435C101.696 125.446 104.058 126.818 104.058 127.483C104.058 129.952 109.631 139.322 113.53 143.408C118.965 149.104 126.35 153.272 129.574 152.463C130.94 152.12 132.058 151.454 132.058 150.982C132.058 149.226 141.525 151.071 143.179 153.15C144.576 154.906 145.527 155.101 150.063 154.564C157.257 153.712 162.424 150.995 169.637 144.272C172.226 141.859 174.164 141.044 178.331 140.614C189 139.512 198.453 132.815 203.779 122.584C206.142 118.045 206.488 116.226 206.481 108.378C206.474 100.07 206.218 98.9175 203.159 93.3785C196.909 82.0615 188.443 76.7015 176.092 76.2435C171.948 76.0895 166.793 76.4035 164.636 76.9415ZM23.8084 83.9345C21.6794 85.2035 21.4844 90.1575 23.4984 91.8285C26.0344 93.9335 30.4084 92.7025 31.5014 89.5755C33.2334 84.6235 28.4894 81.1445 23.8084 83.9345ZM182.058 87.1725C183.825 88.0655 184.821 89.6805 185.454 92.6775C185.947 95.0105 186.086 97.1845 185.762 97.5075C185.438 97.8315 183.84 97.1475 182.211 95.9875C178.941 93.6585 174.118 93.2185 172.258 95.0785C169.816 97.5205 170.909 100.759 175.058 103.378C177.71 105.052 179.058 106.631 179.058 108.062C179.058 110.982 176.26 113.878 173.438 113.878C170.951 113.878 168.564 117.147 169.42 119.38C170.103 121.159 165.079 122.876 159.159 122.886C155.032 122.892 154.103 123.356 150.138 127.393C144.525 133.109 137.135 136.61 128.901 137.453C122.469 138.112 122.421 138.098 119.592 134.747C116.208 130.737 113.111 124.26 113.08 121.128C113.044 117.419 109.633 114.878 104.693 114.878C93.8774 114.878 87.9724 101.602 95.1514 93.4255C99.4934 88.4805 104.657 87.0715 110.403 89.2665C112.828 90.1925 115.613 91.8345 116.591 92.9145C118.836 95.3955 120.531 95.3905 124.039 92.8925C132.742 86.6955 143.035 85.3045 153.082 88.9675C158.688 91.0115 158.886 91.0165 162.185 89.2215C164.04 88.2115 166.458 87.0915 167.558 86.7315C171.022 85.5995 179.455 85.8555 182.058 87.1725ZM40.9404 99.1985C27.9814 104.046 21.0584 113.762 21.0584 127.1C21.0584 134.514 21.0544 134.524 16.6304 139.141C9.98236 146.08 7.79736 151.653 7.71836 161.878C7.66336 168.908 8.06936 171.243 10.0684 175.378C13.5344 182.551 18.5444 187.53 25.7544 190.971C30.8734 193.415 33.3534 193.977 39.0824 193.996C48.5954 194.026 54.5794 191.84 61.2404 185.904C69.9814 178.113 73.9044 165.589 71.2294 154.017C70.2794 149.907 70.4164 149.384 73.6164 144.93C75.7324 141.985 77.5944 137.69 78.5594 133.53C79.9664 127.463 79.9614 126.291 78.5004 120.656C76.1134 111.444 70.8894 104.901 62.5584 100.69C57.4544 98.1105 45.9684 97.3175 40.9404 99.1985ZM52.2974 113.822C54.4054 117.857 55.0584 120.506 55.0584 125.024C55.0584 132.189 53.4434 136.34 48.5444 141.762L44.8364 145.866L46.4474 149.892C50.5774 160.215 46.6974 174.333 37.9544 180.797C35.6164 182.525 34.1004 182.921 31.6064 182.453C24.9904 181.212 17.0584 169.995 17.0584 161.878C17.0584 154.615 20.5584 148.977 29.9894 141.05C33.2614 138.299 33.3614 138.023 32.1424 135.082C30.1864 130.358 30.6104 122.447 33.0544 118.099C35.3254 114.058 40.1204 110.276 44.7064 108.909C48.8054 107.688 49.2404 107.969 52.2974 113.822ZM93.0934 137.812C91.4784 140.83 91.8564 142.7 94.4234 144.382C97.9254 146.676 102.058 144.901 102.058 141.103C102.058 139.549 101.518 137.738 100.858 137.078C98.9574 135.177 94.2664 135.62 93.0934 137.812ZM23.9884 154.009C23.3294 155.241 23.0084 158.986 23.2284 162.882C23.8564 173.996 30.5104 181.283 35.4874 176.307C37.5864 174.207 37.4674 172.213 35.0584 169.151C33.5494 167.233 33.0584 165.094 33.0584 160.443C33.0584 156.981 32.5324 153.752 31.8584 153.078C29.8644 151.084 25.2624 151.628 23.9884 154.009ZM169.558 166.562C162.433 168.172 155.212 173.862 152.078 180.336C149.657 185.337 149.309 197.15 151.433 202.233C155.013 210.802 165.588 217.892 174.746 217.863C181.795 217.841 188.731 215.062 193.405 210.388C194.543 209.25 197.088 208.704 201.875 208.57C207.701 208.406 209.275 207.952 212.473 205.512C218.092 201.224 220.05 197.363 220.054 190.562C220.058 184.031 219.182 181.818 214.723 177.109C210.947 173.12 205.372 171.483 198.491 172.343C193.982 172.906 192.827 172.661 189.567 170.448C183.703 166.469 176.317 165.035 169.558 166.562ZM108.058 174.055C105.14 175.865 102.979 176.238 95.0584 176.302C84.5274 176.386 81.5434 177.459 75.7614 183.242C70.6034 188.4 68.6674 193.332 68.6444 201.378C68.6074 214.358 75.5224 223.219 88.3054 226.572C94.5914 228.22 95.1474 228.216 100.722 226.476C108.236 224.131 113.973 219.417 117.084 213.034C119.048 209.001 120.073 207.941 122.058 207.884C125.576 207.782 132.004 203.024 134.203 198.894C135.428 196.593 136.058 193.331 136.058 189.294C136.058 184.095 135.611 182.562 133.078 179.064C129.095 173.566 125.517 171.877 117.858 171.882C113.14 171.885 110.679 172.43 108.058 174.055ZM179.48 176.978C181.7 177.594 185.08 179.762 187.269 181.972C191.698 186.446 192.448 186.6 196.558 183.878C200.105 181.529 203.924 181.318 206.617 183.323C208.509 184.731 208.488 184.837 205.786 187.573C203.451 189.935 202.188 190.378 197.786 190.378C194.91 190.378 191.658 190.051 190.558 189.65C188.987 189.079 188.095 189.635 186.403 192.241C182.536 198.197 172.654 201.193 164.298 198.943C159.794 197.73 159.414 196.887 159.984 189.378C160.381 184.166 165.189 178.493 170.527 176.94C174.666 175.736 175.012 175.738 179.48 176.978ZM121.14 181.878C123.47 181.878 126.058 186.05 126.058 189.805C126.058 194.635 122.562 197.878 117.357 197.878C112.324 197.878 110.404 199.314 109.716 203.592C108.792 209.337 106.57 211.878 102.469 211.878C95.1254 211.878 88.1394 207.293 84.9484 200.378C82.2654 194.565 82.4864 190.299 85.5724 188.277C89.2964 185.837 95.9494 185.388 100.46 187.273C105.81 189.508 107.589 189.295 110.046 186.128C112.415 183.074 116.841 180.718 118.89 181.421C119.622 181.672 120.635 181.878 121.14 181.878ZM229.108 188.318C227.491 190.266 228.166 194.931 230.255 196.239C233.082 198.008 237.497 195.872 237.88 192.549C238.295 188.955 236.529 186.878 233.058 186.878C231.543 186.878 229.765 187.526 229.108 188.318ZM245.713 192.707C243.309 195.363 243.676 198.581 246.599 200.497C250.402 202.988 254.058 201.078 254.058 196.599C254.058 194.773 253.518 192.738 252.858 192.078C251.091 190.311 247.604 190.618 245.713 192.707Z" fill="#60DAFF"/>
<path fill-rule="evenodd" clip-rule="evenodd" d="M47.5583 1.45047C41.1793 3.73347 38.8573 5.02747 33.8793 9.07447C31.3053 11.1665 28.1943 12.8785 26.9663 12.8785C25.7383 12.8785 22.2773 13.6525 19.2743 14.5995C13.1223 16.5385 4.04834 24.1975 4.07334 27.4295C4.11934 33.2365 9.75134 33.8935 15.1663 28.7245C19.0893 24.9805 24.6303 22.8785 30.5773 22.8785C33.7443 22.8785 35.2203 22.0695 39.5823 17.9435C54.4263 3.90547 77.3693 10.2065 82.5213 29.7375C84.3103 36.5195 84.3473 36.5555 90.1303 37.1115C99.9123 38.0515 104.984 47.3155 99.8583 54.8785C95.6763 61.0465 86.2593 62.0725 81.5533 56.8725C79.1163 54.1795 77.3673 54.3485 70.3863 57.9485C62.1453 62.1985 57.6043 62.6265 49.2463 59.9395L42.4073 57.7395L38.9083 59.8045C36.9843 60.9395 33.3753 62.1475 30.8883 62.4885C22.1873 63.6805 12.3253 56.9545 9.83234 48.1255C7.29634 39.1455 0.0473439 38.4965 0.0683439 47.2505C0.0893439 56.1655 7.23934 65.6635 17.5583 70.4845C22.6063 72.8435 34.8563 72.8635 40.2233 70.5215C43.5003 69.0915 44.3993 69.0775 48.7233 70.3895C51.3823 71.1965 55.3093 71.8615 57.4503 71.8675C61.6833 71.8795 74.6483 68.3515 75.5123 66.9525C75.8063 66.4775 77.7193 66.9415 79.7643 67.9835C84.9643 70.6345 95.0333 70.5535 100.691 67.8145C108.375 64.0945 113.328 53.4635 111.62 44.3565C110.19 36.7335 104.197 30.2045 96.5053 27.8885C93.1003 26.8635 92.2423 25.9805 90.2583 21.4575C87.4323 15.0135 83.5253 10.1665 78.1543 6.44547C69.4803 0.433468 56.3773 -1.70453 47.5583 1.45047ZM192.558 2.75047C184.023 4.98147 176.745 10.8105 173.494 18.0195L171.651 22.1065L169.605 19.6245C168.479 18.2595 165.566 15.8455 163.131 14.2605C159.231 11.7215 157.794 11.3785 151.053 11.3785C144.278 11.3785 142.839 11.7255 138.496 14.4115C131.1 18.9835 127.846 24.5075 127.271 33.4645C126.874 39.6425 127.145 41.4405 129.022 45.0765C133.915 54.5535 139.908 58.2035 151.007 58.4645C157.609 58.6195 158.702 58.9255 160.617 61.1525C161.806 62.5345 164.703 64.9395 167.056 66.4955C170.798 68.9715 172.287 69.3295 178.946 69.3525C185.558 69.3755 187.182 69.0045 191.307 66.5335C193.919 64.9695 196.987 62.3815 198.125 60.7835C199.594 58.7205 201.035 57.8785 203.092 57.8785C206.131 57.8785 212.624 55.2615 214.879 53.1285C215.606 52.4415 216.565 51.8785 217.011 51.8785C218.539 51.8785 223.296 44.6985 225.177 39.5535C231.445 22.4045 219.551 3.81747 201.415 2.41847C198.194 2.16947 194.208 2.31947 192.558 2.75047ZM204.826 13.4265C212.379 16.5815 216.344 22.4175 216.344 30.3785C216.344 38.8345 210.769 46.2125 203.529 47.3385C201.62 47.6355 198.519 48.1175 196.639 48.4085C194.084 48.8045 192.704 49.8135 191.178 52.3995C185.177 62.5695 172.078 62.0615 166.542 51.4435C163.658 45.9105 161.937 45.0895 157.578 47.1675C147.604 51.9235 137.058 45.3525 137.058 34.3815C137.058 27.2775 142.356 21.8355 149.96 21.1275C155.596 20.6035 160.214 23.3945 163.479 29.2975C166.637 35.0065 168.077 35.6105 173.222 33.3815C178.965 30.8935 180.719 29.3215 181.371 26.0775C182.293 21.4865 186.371 16.4795 191.067 14.1695C196.43 11.5325 199.851 11.3475 204.826 13.4265ZM50.5583 19.2785C48.9083 20.0065 46.3213 21.8495 44.8083 23.3765C38.3713 29.8715 44.7593 36.5915 51.4633 30.3785C56.3023 25.8935 63.6523 27.7215 65.5373 33.8785C65.9583 35.2535 66.7533 36.9415 67.3033 37.6285C68.6783 39.3475 72.5473 39.1995 74.0663 37.3685C75.7903 35.2915 74.7673 28.6825 72.1523 25.0115C67.8693 18.9955 57.4663 16.2345 50.5583 19.2785ZM241.713 30.7075C238.406 34.3605 240.256 38.8785 245.058 38.8785C248.247 38.8785 250.058 37.2015 250.058 34.2495C250.058 29.5085 244.813 27.2815 241.713 30.7075ZM234.996 42.1605C229.725 46.2715 234.182 54.0235 240.02 50.8985C242.793 49.4145 242.863 43.3795 240.124 41.9135C237.688 40.6105 236.937 40.6465 234.996 42.1605ZM254.558 54.6895C246.863 57.5695 243.869 59.3835 239.946 63.5465C233.219 70.6825 230.058 78.5685 230.058 88.2175C230.058 96.0695 231.851 102.017 236.22 108.663C239.392 113.487 239.341 113.54 231.004 114.122C217.468 115.067 207.27 124.444 204.079 138.878C201.179 151.993 209.613 166.817 222.846 171.862C237.973 177.63 256.017 170.026 261.543 155.556C262.709 152.502 263.726 151.197 264.658 151.555C265.42 151.847 269.035 151.565 272.693 150.928C284.946 148.794 293.471 140.66 296.671 128.051C298.129 122.305 298.123 121.263 296.591 115.011C294.94 108.277 294.946 108.183 297.215 104.337C299.068 101.196 299.578 98.6095 299.894 90.7645C300.476 76.2555 296.938 67.2885 290.328 66.5205C287.372 66.1775 287.047 66.4195 286.491 69.3815C286.057 71.6985 286.531 73.8625 288.16 76.9985C289.895 80.3355 290.437 83.0455 290.437 88.3785C290.437 95.3465 290.107 96.3165 284.408 106.129C283.495 107.702 283.644 108.957 285.136 112.243C292.363 128.158 279.147 144.867 262.343 141.061C256.822 139.811 255.112 141.105 253.389 147.838C250.861 157.714 245.075 162.734 235.283 163.548C228.281 164.129 222.294 161.414 217.616 155.535C214.794 151.989 214.558 151.089 214.558 143.878C214.558 136.667 214.794 135.767 217.616 132.221C219.298 130.107 222.673 127.331 225.116 126.052C229.029 124.002 230.464 123.795 237.175 124.314C246.011 124.997 246.316 124.792 247.941 117.079C249.504 109.664 249.39 108.765 246.463 105.378C242.453 100.738 240.883 97.0465 240.337 90.9665C239.696 83.8205 241.276 78.0585 245.335 72.7405C251.17 65.0975 263.464 61.0425 272.131 63.9025C275.621 65.0545 276.269 64.9975 278.054 63.3825C280.808 60.8905 280.602 57.2805 277.593 55.3095C273.673 52.7415 260.697 52.3915 254.558 54.6895ZM254.058 72.5875C249.728 73.5775 245.495 85.4485 247.036 92.2815C247.99 96.5115 249.355 97.8395 252.773 97.8635C255.692 97.8835 257.299 94.6775 256.501 90.4245C256.032 87.9265 256.452 85.8095 258.05 82.6095C259.255 80.1955 260.088 77.1795 259.9 75.9085C259.552 73.5525 256.765 71.9685 254.058 72.5875ZM36.0583 77.8785C31.4903 82.4465 36.0743 87.7285 42.4763 85.2715C44.8363 84.3665 44.5773 78.2265 42.1243 76.9135C39.3763 75.4435 38.3273 75.6095 36.0583 77.8785ZM164.636 76.9415C162.479 77.4785 160.117 78.4145 159.387 79.0205C158.412 79.8295 157.198 79.7585 154.809 78.7505C152.785 77.8965 147.785 77.3785 141.558 77.3785C132.697 77.3785 130.927 77.6885 126.021 80.1005L120.484 82.8225L115.602 80.3505C109.845 77.4355 103.125 77.1185 97.4303 79.4925C87.5693 83.6045 83.0123 89.7905 82.2773 100.064C81.8553 105.952 82.1413 107.527 84.5033 112.356C87.5963 118.677 91.3013 121.805 98.8083 124.435C101.696 125.446 104.058 126.818 104.058 127.483C104.058 128.149 105.283 131.054 106.78 133.94C113.754 147.381 130.136 157.509 132.559 149.876C133.599 146.599 132.139 143.96 128.167 141.934C121.223 138.391 113.14 127.243 113.08 121.128C113.044 117.419 109.633 114.878 104.693 114.878C93.8773 114.878 87.9723 101.602 95.1513 93.4255C99.4933 88.4805 104.657 87.0715 110.403 89.2665C112.828 90.1925 115.613 91.8345 116.591 92.9145C118.836 95.3955 120.531 95.3905 124.039 92.8925C132.772 86.6735 143.031 85.3025 153.168 88.9995L158.984 91.1195L162.771 88.8725C168.319 85.5815 177.361 85.0525 183.099 87.6815C194.452 92.8845 199.698 104.997 195.41 116.108C191.899 125.207 183.76 130.817 174.016 130.856C168.76 130.877 168.245 131.114 164.016 135.461C159.118 140.495 154.795 143.064 148.258 144.824C143.159 146.197 141.149 149.311 143.059 152.881C144.152 154.921 144.788 155.083 149.731 154.572C157.064 153.816 162.311 151.1 169.637 144.272C172.226 141.859 174.164 141.044 178.331 140.614C189 139.512 198.453 132.815 203.779 122.584C206.142 118.045 206.488 116.226 206.481 108.378C206.474 100.07 206.218 98.9175 203.159 93.3785C196.909 82.0615 188.443 76.7015 176.092 76.2435C171.948 76.0895 166.793 76.4035 164.636 76.9415ZM23.8083 83.9345C21.6793 85.2035 21.4843 90.1575 23.4983 91.8285C26.0343 93.9335 30.4083 92.7025 31.5013 89.5755C33.2333 84.6235 28.4893 81.1445 23.8083 83.9345ZM172.258 95.0785C169.816 97.5205 170.909 100.759 175.058 103.378C177.86 105.147 179.058 106.602 179.058 108.236C179.058 111.09 176.167 113.878 173.208 113.878C170.268 113.878 168.422 117.822 169.99 120.752C170.868 122.392 172.07 122.878 175.249 122.878C185.125 122.878 192.187 110.83 187.559 101.88C184.356 95.6875 175.56 91.7765 172.258 95.0785ZM40.9403 99.1985C27.9813 104.046 21.0583 113.762 21.0583 127.1C21.0583 134.514 21.0543 134.524 16.6303 139.141C9.98234 146.08 7.79734 151.653 7.71834 161.878C7.66334 168.908 8.06934 171.243 10.0683 175.378C13.5343 182.551 18.5443 187.53 25.7543 190.971C30.8733 193.415 33.3533 193.977 39.0823 193.996C48.5953 194.026 54.5793 191.84 61.2403 185.904C69.9813 178.113 73.9043 165.589 71.2293 154.017C70.2793 149.907 70.4163 149.384 73.6163 144.93C75.7323 141.985 77.5943 137.69 78.5593 133.53C79.9663 127.463 79.9613 126.291 78.5003 120.656C76.1133 111.444 70.8893 104.901 62.5583 100.69C57.4543 98.1105 45.9683 97.3175 40.9403 99.1985ZM58.0383 110.128C60.4603 111.366 63.7903 114.072 65.4373 116.143C71.2483 123.448 69.7793 136.377 62.4853 142.114C58.2423 145.452 57.8373 147.242 60.0513 152.861C62.8403 159.935 62.6273 165.398 59.3083 171.942C54.2853 181.848 43.9663 186.072 32.5793 182.884C24.5903 180.647 17.0583 170.454 17.0583 161.878C17.0583 154.615 20.5583 148.977 29.9893 141.05C33.2613 138.299 33.3613 138.023 32.1423 135.082C31.4403 133.386 30.8833 129.716 30.9043 126.926C31.0123 113.031 45.8013 103.876 58.0383 110.128ZM93.0933 137.812C91.4783 140.83 91.8563 142.7 94.4233 144.382C97.9253 146.676 102.058 144.901 102.058 141.103C102.058 139.549 101.518 137.738 100.858 137.078C98.9573 135.177 94.2663 135.62 93.0933 137.812ZM23.9883 154.009C23.3293 155.241 23.0083 158.986 23.2283 162.882C23.8563 173.996 30.5103 181.283 35.4873 176.307C37.5863 174.207 37.4673 172.213 35.0583 169.151C33.5493 167.233 33.0583 165.094 33.0583 160.443C33.0583 156.981 32.5323 153.752 31.8583 153.078C29.8643 151.084 25.2623 151.628 23.9883 154.009ZM169.558 166.562C162.433 168.172 155.212 173.862 152.078 180.336C149.657 185.337 149.309 197.15 151.433 202.233C155.013 210.802 165.588 217.892 174.746 217.863C181.795 217.841 188.731 215.062 193.405 210.388C194.543 209.25 197.088 208.704 201.875 208.57C207.701 208.406 209.275 207.952 212.473 205.512C218.092 201.224 220.05 197.363 220.054 190.562C220.058 184.031 219.182 181.818 214.723 177.109C210.947 173.12 205.372 171.483 198.491 172.343C193.982 172.906 192.827 172.661 189.567 170.448C183.703 166.469 176.317 165.035 169.558 166.562ZM108.058 174.055C105.14 175.865 102.979 176.238 95.0583 176.302C84.5273 176.386 81.5433 177.459 75.7613 183.242C70.6033 188.4 68.6673 193.332 68.6443 201.378C68.6073 214.358 75.5223 223.219 88.3053 226.572C94.5913 228.22 95.1473 228.216 100.722 226.476C108.236 224.131 113.973 219.417 117.084 213.034C119.048 209.001 120.073 207.941 122.058 207.884C125.576 207.782 132.004 203.024 134.203 198.894C135.428 196.593 136.058 193.331 136.058 189.294C136.058 184.095 135.611 182.562 133.078 179.064C129.095 173.566 125.517 171.877 117.858 171.882C113.14 171.885 110.679 172.43 108.058 174.055ZM179.48 176.978C181.7 177.594 185.08 179.762 187.269 181.972C191.698 186.446 192.448 186.6 196.558 183.878C202.895 179.681 210.058 183.13 210.058 190.378C210.058 197.302 202.551 201.213 196.664 197.355C193.64 195.374 192.194 196.025 187.716 201.382C181.895 208.346 174.093 209.638 166.357 204.919C155.818 198.491 158.509 180.436 170.527 176.94C174.666 175.736 175.012 175.738 179.48 176.978ZM121.14 181.878C123.47 181.878 126.058 186.05 126.058 189.805C126.058 194.635 122.562 197.878 117.357 197.878C112.801 197.878 110.058 199.464 110.058 202.097C110.058 205.334 106.363 212.136 103.465 214.234C97.8573 218.293 88.1843 217.585 83.2423 212.754C76.6923 206.349 76.5653 197.135 82.9403 190.76C87.3853 186.315 92.5663 184.998 98.5183 186.8C106.794 189.304 107.612 189.263 109.973 186.22C112.406 183.086 116.819 180.71 118.89 181.421C119.622 181.672 120.635 181.878 121.14 181.878ZM229.108 188.318C227.491 190.266 228.166 194.931 230.255 196.239C233.082 198.008 237.497 195.872 237.88 192.549C238.295 188.955 236.529 186.878 233.058 186.878C231.543 186.878 229.765 187.526 229.108 188.318ZM245.713 192.707C243.309 195.363 243.676 198.581 246.599 200.497C250.402 202.988 254.058 201.078 254.058 196.599C254.058 194.773 253.518 192.738 252.858 192.078C251.091 190.311 247.604 190.618 245.713 192.707Z" fill="#85C4D4"/>
<path fill-rule="evenodd" clip-rule="evenodd" d="M47.5583 1.45047C41.1793 3.73347 38.8573 5.02747 33.8793 9.07447C31.3053 11.1665 28.1233 12.8785 26.8073 12.8785C22.5333 12.8785 14.6573 16.0805 10.3073 19.5875C5.18933 23.7125 3.68734 26.2655 4.49234 29.4715C5.36834 32.9605 10.8303 32.8335 14.1343 29.2465C17.5483 25.5395 23.7563 22.9265 29.2073 22.9005C33.4073 22.8805 34.3343 22.4095 38.8173 18.0205C46.7143 10.2875 56.3163 8.04346 66.5623 11.5345C72.8853 13.6885 79.2413 20.0465 81.4783 26.4525C84.7083 35.7025 85.2233 36.3285 90.0933 36.9255C95.3963 37.5745 98.2463 39.2335 100.442 42.9505C105.58 51.6485 96.7503 62.5655 86.7993 59.8175C84.9063 59.2945 82.5463 57.9695 81.5533 56.8725C79.1113 54.1745 77.3683 54.3475 70.3083 57.9895C62.1453 62.1985 56.6173 62.7145 49.0883 59.9695L43.1343 57.7985L39.0993 59.8575C32.1893 63.3835 26.9523 63.5505 20.6123 60.4485C14.5313 57.4735 11.4163 53.8285 9.58034 47.5385C8.75034 44.6985 7.50634 42.9565 5.66034 42.0495C1.91034 40.2065 0.0553357 41.9325 0.0683357 47.2505C0.0893357 56.1655 7.23934 65.6635 17.5583 70.4845C22.6063 72.8435 34.8563 72.8635 40.2233 70.5215C43.5003 69.0915 44.3993 69.0775 48.7233 70.3895C51.3823 71.1965 55.3093 71.8615 57.4503 71.8675C61.6833 71.8795 74.6483 68.3515 75.5123 66.9525C75.8063 66.4775 77.7193 66.9415 79.7643 67.9835C84.9643 70.6345 95.0333 70.5535 100.691 67.8145C108.375 64.0945 113.328 53.4635 111.62 44.3565C110.19 36.7335 104.197 30.2045 96.5053 27.8885C93.1003 26.8635 92.2423 25.9805 90.2583 21.4575C87.4323 15.0135 83.5253 10.1665 78.1543 6.44547C69.4803 0.433468 56.3773 -1.70453 47.5583 1.45047ZM192.558 2.75047C184.023 4.98147 176.745 10.8105 173.494 18.0195L171.651 22.1065L169.605 19.6245C168.479 18.2595 165.566 15.8455 163.131 14.2605C159.231 11.7215 157.794 11.3785 151.053 11.3785C144.278 11.3785 142.839 11.7255 138.496 14.4115C131.1 18.9835 127.846 24.5075 127.271 33.4645C126.874 39.6425 127.145 41.4405 129.022 45.0765C133.915 54.5535 139.908 58.2035 151.007 58.4645C157.609 58.6195 158.702 58.9255 160.617 61.1525C161.806 62.5345 164.703 64.9395 167.056 66.4955C170.798 68.9715 172.287 69.3295 178.946 69.3525C185.558 69.3755 187.182 69.0045 191.307 66.5335C193.919 64.9695 196.987 62.3815 198.125 60.7835C199.594 58.7205 201.035 57.8785 203.092 57.8785C206.131 57.8785 212.624 55.2615 214.879 53.1285C215.606 52.4415 216.565 51.8785 217.011 51.8785C218.539 51.8785 223.296 44.6985 225.177 39.5535C231.445 22.4045 219.551 3.81747 201.415 2.41847C198.194 2.16947 194.208 2.31947 192.558 2.75047ZM206.808 13.9995C214.686 17.8125 218.883 27.8185 216.119 36.1935C213.882 42.9725 204.904 48.8565 196.774 48.8725C194.687 48.8775 193.502 49.7055 192.039 52.1865C189.627 56.2735 183.432 59.8785 178.82 59.8785C174.284 59.8785 169.074 56.2985 166.542 51.4435C163.658 45.9105 161.937 45.0895 157.578 47.1675C152.915 49.3915 148.862 49.3325 144.268 46.9735C137.226 43.3585 134.851 34.1855 139.155 27.2225C141.817 22.9135 145.756 20.8785 151.432 20.8785C156.705 20.8785 161.045 23.9725 164.059 29.8805C165.112 31.9435 166.675 33.9015 167.533 34.2305C168.882 34.7485 172.635 33.5605 178.047 30.9055C178.866 30.5035 180.306 28.0235 181.246 25.3955C185.374 13.8575 196.38 8.95147 206.808 13.9995ZM50.0783 20.1285C44.6733 22.8905 41.5873 26.8205 42.5193 29.7565C43.5133 32.8885 47.6763 33.5845 50.3633 31.0675C51.5703 29.9365 53.8213 28.5335 55.3643 27.9485C58.9843 26.5775 63.6993 28.8415 65.2083 32.6765C67.2153 37.7745 67.7823 38.3785 70.5583 38.3785C79.0923 38.3785 74.5853 24.2935 64.5993 19.7585C59.2243 17.3165 55.3903 17.4145 50.0783 20.1285ZM241.713 30.7075C238.406 34.3605 240.256 38.8785 245.058 38.8785C248.247 38.8785 250.058 37.2015 250.058 34.2495C250.058 29.5085 244.813 27.2815 241.713 30.7075ZM234.996 42.1605C229.725 46.2715 234.182 54.0235 240.02 50.8985C242.793 49.4145 242.863 43.3795 240.124 41.9135C237.688 40.6105 236.937 40.6465 234.996 42.1605ZM254.558 54.6895C246.863 57.5695 243.869 59.3835 239.946 63.5465C233.219 70.6825 230.058 78.5685 230.058 88.2175C230.058 96.0695 231.851 102.017 236.22 108.663C239.392 113.487 239.341 113.54 231.004 114.122C217.468 115.067 207.27 124.444 204.079 138.878C201.179 151.993 209.613 166.817 222.846 171.862C237.973 177.63 256.017 170.026 261.543 155.556C262.709 152.502 263.726 151.197 264.658 151.555C265.42 151.847 269.035 151.565 272.693 150.928C284.946 148.794 293.471 140.66 296.671 128.051C298.129 122.305 298.123 121.263 296.591 115.011C294.94 108.277 294.946 108.183 297.215 104.337C299.068 101.196 299.578 98.6095 299.894 90.7645C300.476 76.2555 296.938 67.2885 290.328 66.5205C287.372 66.1775 287.047 66.4195 286.491 69.3815C286.057 71.6985 286.531 73.8625 288.16 76.9985C291.301 83.0425 291.349 93.6245 288.262 99.5605C287.065 101.86 285.63 104.024 285.072 104.369C283.614 105.27 283.823 109.071 285.558 113.224C286.383 115.198 287.051 119.191 287.042 122.096C287.021 128.79 284.066 134.223 278.211 138.336C274.16 141.182 273.299 141.378 264.832 141.378C254.728 141.378 255.022 141.182 252.952 149.308C249.268 163.779 230.841 168.64 219.719 158.075C215.461 154.03 213.745 149.984 213.698 143.878C213.651 137.672 215.52 133.365 220.202 128.89C224.463 124.819 229.13 123.51 237.032 124.173C240.688 124.479 244.217 124.398 244.875 123.991C246.085 123.243 249.058 113.288 249.058 109.984C249.058 108.996 248.094 107.331 246.916 106.283C243.108 102.895 240.078 94.9625 240.078 88.3785C240.078 77.6345 245.613 69.1725 255.502 64.7995C259.823 62.8885 261.51 62.6955 268.881 63.2615C278.097 63.9705 280.058 63.2715 280.058 59.2795C280.058 55.6035 276.149 53.7515 267.343 53.2565C261.366 52.9195 258.397 53.2525 254.558 54.6895ZM251.751 74.6655C245.441 81.6375 245.645 97.8785 252.043 97.8785C255.503 97.8785 257.063 95.1965 256.404 90.3835C255.931 86.9365 256.262 85.1975 257.929 82.3725C259.1 80.3875 260.058 77.9795 260.058 77.0215C260.058 72.9565 254.678 71.4305 251.751 74.6655ZM36.0583 77.8785C31.4903 82.4465 36.0743 87.7285 42.4763 85.2715C44.8363 84.3665 44.5773 78.2265 42.1243 76.9135C39.3763 75.4435 38.3273 75.6095 36.0583 77.8785ZM164.636 76.9415C162.479 77.4785 160.117 78.4145 159.387 79.0205C158.412 79.8295 157.198 79.7585 154.809 78.7505C152.785 77.8965 147.785 77.3785 141.558 77.3785C132.697 77.3785 130.927 77.6885 126.021 80.1005L120.484 82.8225L115.602 80.3505C109.845 77.4355 103.125 77.1185 97.4303 79.4925C87.5693 83.6045 83.0123 89.7905 82.2773 100.064C81.8553 105.952 82.1413 107.527 84.5033 112.356C87.5963 118.677 91.3013 121.805 98.8083 124.435C101.696 125.446 104.058 126.818 104.058 127.483C104.058 128.149 105.283 131.054 106.78 133.94C113.754 147.381 130.136 157.509 132.559 149.876C133.631 146.496 132.264 144.526 126.137 140.626C119.203 136.211 114.666 129.941 113.091 122.597C111.845 116.785 110.951 115.915 106.209 115.893C98.2533 115.857 92.0583 109.757 92.0583 101.96C92.0583 93.7755 97.7093 87.8845 105.558 87.8875C109.315 87.8885 110.902 88.6055 117.446 93.2525C120.061 95.1095 120.12 95.1035 123.958 92.5635C133.186 86.4565 143.441 85.1325 153.096 88.8005L158.155 90.7235L163.731 88.1705C169.715 85.4315 177.305 84.8605 182.3 86.7735C187.092 88.6075 193.788 95.6395 195.484 100.615C197.465 106.429 197.473 110.45 195.515 115.999C192.368 124.92 183.836 130.817 174.02 130.856C168.73 130.877 168.269 131.095 163.689 135.745C159.072 140.432 152.619 144.092 146.773 145.34C143.357 146.068 141.52 150.003 143.162 153.073C144.135 154.891 144.915 155.069 149.731 154.572C157.064 153.816 162.311 151.1 169.637 144.272C172.226 141.859 174.164 141.044 178.331 140.614C189 139.512 198.453 132.815 203.779 122.584C206.142 118.045 206.488 116.226 206.481 108.378C206.474 100.07 206.218 98.9175 203.159 93.3785C196.909 82.0615 188.443 76.7015 176.092 76.2435C171.948 76.0895 166.793 76.4035 164.636 76.9415ZM23.8083 83.9345C21.6793 85.2035 21.4843 90.1575 23.4983 91.8285C26.0343 93.9335 30.4083 92.7025 31.5013 89.5755C33.2333 84.6235 28.4893 81.1445 23.8083 83.9345ZM172.623 95.8065C170.266 98.4105 171.321 101.156 175.43 103.116C181.02 105.781 180.814 112.377 175.105 113.519C171.252 114.289 169.833 116.052 170.236 119.568C170.523 122.071 170.999 122.41 174.591 122.675C181.818 123.207 189.055 116.053 189.055 108.378C189.055 104.046 186.078 98.7655 182.16 96.1485C178.002 93.3705 174.927 93.2605 172.623 95.8065ZM40.9403 99.1985C27.9813 104.046 21.0583 113.762 21.0583 127.1C21.0583 134.514 21.0543 134.524 16.6303 139.141C9.98234 146.08 7.79734 151.653 7.71834 161.878C7.66334 168.908 8.06934 171.243 10.0683 175.378C13.5343 182.551 18.5443 187.53 25.7543 190.971C30.8733 193.415 33.3533 193.977 39.0823 193.996C48.5953 194.026 54.5793 191.84 61.2403 185.904C69.9813 178.113 73.9043 165.589 71.2293 154.017C70.2793 149.907 70.4163 149.384 73.6163 144.93C75.7323 141.985 77.5943 137.69 78.5593 133.53C79.9663 127.463 79.9613 126.291 78.5003 120.656C76.1133 111.444 70.8893 104.901 62.5583 100.69C57.4543 98.1105 45.9683 97.3175 40.9403 99.1985ZM57.5583 109.774C62.2143 111.929 66.4823 116.191 67.9943 120.193C70.6893 127.324 67.8553 138.816 62.5443 142.295C58.3583 145.038 57.9233 147.022 60.2043 152.985C61.7403 157.001 62.1403 159.808 61.7713 163.976C59.8023 186.206 29.9183 191.879 19.8083 171.942C16.3413 165.104 16.2293 159.201 19.4363 152.313C21.6013 147.663 22.9103 146.256 29.9773 140.989C32.3363 139.231 32.3653 139.037 31.1553 133.282C28.9443 122.77 32.6313 114.278 41.2623 110.006C46.5233 107.402 52.2583 107.32 57.5583 109.774ZM93.0933 137.812C91.4783 140.83 91.8563 142.7 94.4233 144.382C97.9253 146.676 102.058 144.901 102.058 141.103C102.058 139.549 101.518 137.738 100.858 137.078C98.9573 135.177 94.2663 135.62 93.0933 137.812ZM24.6153 154.101C21.3613 158.746 23.3383 170.354 28.2803 175.614C31.0373 178.549 33.6133 178.486 35.6113 175.437C37.1223 173.131 37.0603 172.738 34.5063 168.38C32.2823 164.584 31.9073 162.998 32.3943 159.444C32.8603 156.046 32.6033 154.776 31.1933 153.5C28.7223 151.264 26.4573 151.47 24.6153 154.101ZM169.558 166.562C162.433 168.172 155.212 173.862 152.078 180.336C149.657 185.337 149.309 197.15 151.433 202.233C155.013 210.802 165.588 217.892 174.746 217.863C181.795 217.841 188.731 215.062 193.405 210.388C194.543 209.25 197.088 208.704 201.875 208.57C207.701 208.406 209.275 207.952 212.473 205.512C218.092 201.224 220.05 197.363 220.054 190.562C220.058 184.031 219.182 181.818 214.723 177.109C210.947 173.12 205.372 171.483 198.491 172.343C193.982 172.906 192.827 172.661 189.567 170.448C183.703 166.469 176.317 165.035 169.558 166.562ZM108.058 174.055C105.14 175.865 102.979 176.238 95.0583 176.302C84.5273 176.386 81.5433 177.459 75.7613 183.242C70.6033 188.4 68.6673 193.332 68.6443 201.378C68.6073 214.358 75.5223 223.219 88.3053 226.572C94.5913 228.22 95.1473 228.216 100.722 226.476C108.236 224.131 113.973 219.417 117.084 213.034C119.048 209.001 120.073 207.941 122.058 207.884C125.576 207.782 132.004 203.024 134.203 198.894C135.428 196.593 136.058 193.331 136.058 189.294C136.058 184.095 135.611 182.562 133.078 179.064C129.095 173.566 125.517 171.877 117.858 171.882C113.14 171.885 110.679 172.43 108.058 174.055ZM180.682 176.925C182.197 177.501 185.333 179.721 187.651 181.857C191.994 185.86 194.668 186.258 197.148 183.27C199.055 180.972 204.829 181.558 207.603 184.333C214.897 191.626 205.32 203.027 196.664 197.355C193.646 195.378 192.193 196.026 187.759 201.331C183.437 206.501 178.771 208.362 172.49 207.42C166.895 206.581 161.75 201.921 160.011 196.115C156.345 183.879 168.731 172.381 180.682 176.925ZM122.899 182.479C130.571 187.853 125.227 199.971 115.966 198.201C112.882 197.611 110.058 200.008 110.058 203.215C110.058 206.558 106.949 211.545 103.114 214.355C98.6223 217.645 90.4023 217.872 85.4973 214.84C81.7663 212.535 78.0583 205.745 78.0583 201.22C78.0583 196.662 82.0963 189.863 86.0673 187.733C90.2363 185.497 97.4893 185.333 101.422 187.384C105.69 189.61 107.005 189.268 111.058 184.878C115.158 180.436 118.9 179.678 122.899 182.479ZM229.108 188.318C227.491 190.266 228.166 194.931 230.255 196.239C233.082 198.008 237.497 195.872 237.88 192.549C238.295 188.955 236.529 186.878 233.058 186.878C231.543 186.878 229.765 187.526 229.108 188.318ZM245.713 192.707C243.309 195.363 243.676 198.581 246.599 200.497C250.402 202.988 254.058 201.078 254.058 196.599C254.058 194.773 253.518 192.738 252.858 192.078C251.091 190.311 247.604 190.618 245.713 192.707Z" fill="#47A2BD"/>
<path fill-rule="evenodd" clip-rule="evenodd" d="M47.5584 1.45047C41.1794 3.73347 38.8574 5.02747 33.8794 9.07447C31.3054 11.1665 28.1234 12.8785 26.8074 12.8785C22.5334 12.8785 14.6574 16.0805 10.3074 19.5875C5.18936 23.7125 3.68736 26.2655 4.49236 29.4715C5.36236 32.9395 10.8194 32.8325 14.1344 29.2815C17.8934 25.2535 23.3994 22.8785 28.9784 22.8785C33.5244 22.8785 34.3124 22.5165 37.6624 18.8955C46.0284 9.85447 58.4714 7.28947 68.8594 12.4665C75.1374 15.5945 80.7244 21.8425 82.1554 27.3335C84.1654 35.0475 85.2264 36.3295 90.0934 36.9245C95.8474 37.6275 98.6724 39.2315 100.548 42.8585C103.134 47.8595 102.5 52.4255 98.6354 56.6435C95.5774 59.9805 94.6914 60.3785 90.3264 60.3785C86.4564 60.3785 84.7624 59.8075 82.1734 57.6285C78.1774 54.2665 77.0324 54.2255 72.2874 57.2735C64.6054 62.2085 57.4204 62.9265 46.7364 59.8245C42.3634 58.5555 41.6214 58.5925 38.7804 60.2235C34.5954 62.6255 27.1804 63.4045 22.6704 61.9155C15.8804 59.6745 10.5694 53.4825 8.67236 45.5935C7.87936 42.2955 3.61936 40.1675 1.43636 41.9795C-0.680641 43.7365 -0.188641 50.8055 2.44436 56.4595C4.98236 61.9105 10.8394 67.3455 17.5584 70.4845C22.6064 72.8435 34.8564 72.8635 40.2234 70.5215C43.5004 69.0915 44.3994 69.0775 48.7234 70.3895C51.3824 71.1965 55.3094 71.8615 57.4504 71.8675C61.6834 71.8795 74.6484 68.3515 75.5124 66.9525C75.8064 66.4775 77.7194 66.9415 79.7644 67.9835C84.9644 70.6345 95.0334 70.5535 100.691 67.8145C108.375 64.0945 113.328 53.4635 111.62 44.3565C110.19 36.7335 104.197 30.2045 96.5054 27.8885C93.1004 26.8635 92.2424 25.9805 90.2584 21.4575C87.4324 15.0135 83.5254 10.1665 78.1544 6.44547C69.4804 0.433468 56.3774 -1.70453 47.5584 1.45047ZM192.558 2.75047C184.023 4.98147 176.745 10.8105 173.494 18.0195L171.651 22.1065L169.605 19.6245C168.479 18.2595 165.566 15.8455 163.131 14.2605C159.231 11.7215 157.794 11.3785 151.053 11.3785C144.278 11.3785 142.839 11.7255 138.496 14.4115C131.1 18.9835 127.846 24.5075 127.271 33.4645C126.874 39.6425 127.145 41.4405 129.022 45.0765C133.915 54.5535 139.908 58.2035 151.007 58.4645C157.609 58.6195 158.702 58.9255 160.617 61.1525C161.806 62.5345 164.703 64.9395 167.056 66.4955C170.798 68.9715 172.287 69.3295 178.946 69.3525C185.558 69.3755 187.182 69.0045 191.307 66.5335C193.919 64.9695 196.987 62.3815 198.125 60.7835C199.594 58.7205 201.035 57.8785 203.092 57.8785C206.131 57.8785 212.624 55.2615 214.879 53.1285C215.606 52.4415 216.565 51.8785 217.011 51.8785C218.539 51.8785 223.296 44.6985 225.177 39.5535C231.445 22.4045 219.551 3.81747 201.415 2.41847C198.194 2.16947 194.208 2.31947 192.558 2.75047ZM206.637 13.7745C213.757 17.0085 217.719 24.3185 216.795 32.5155C215.776 41.5615 208.922 47.6975 198.736 48.6815C194.443 49.0955 193.648 49.5675 191.491 52.9845C185.343 62.7235 171.605 62.1175 166.451 51.8785C163.648 46.3125 162.129 45.5335 157.693 47.3865C141.799 54.0275 129.461 36.2755 141.561 24.1755C144.45 21.2865 145.505 20.8785 150.09 20.8785C156.894 20.8785 161.201 23.5235 163.962 29.3975C166.409 34.6025 168.25 35.0115 175.421 31.9375C179.305 30.2725 180.105 29.4165 181.046 25.9245C182.344 21.1025 187.311 15.1145 191.539 13.2725C195.811 11.4105 201.876 11.6125 206.637 13.7745ZM52.8494 18.8235C46.3944 20.8735 41.4074 26.2535 42.5694 29.9135C43.6524 33.3265 47.7854 33.5135 51.1374 30.3035C56.5444 25.1225 63.6544 27.0955 66.0824 34.4515C67.3344 38.2455 69.9914 39.5195 73.1394 37.8355C77.6414 35.4255 73.0274 23.9825 66.1114 20.4065C62.3854 18.4785 56.2424 17.7455 52.8494 18.8235ZM241.713 30.7075C238.406 34.3605 240.256 38.8785 245.058 38.8785C248.247 38.8785 250.058 37.2015 250.058 34.2495C250.058 29.5085 244.813 27.2815 241.713 30.7075ZM234.996 42.1605C229.725 46.2715 234.182 54.0235 240.02 50.8985C242.793 49.4145 242.863 43.3795 240.124 41.9135C237.688 40.6105 236.937 40.6465 234.996 42.1605ZM254.558 54.6895C246.863 57.5695 243.869 59.3835 239.946 63.5465C233.219 70.6825 230.058 78.5685 230.058 88.2175C230.058 96.0695 231.851 102.017 236.22 108.663C239.392 113.487 239.341 113.54 231.004 114.122C217.468 115.067 207.27 124.444 204.079 138.878C201.179 151.993 209.613 166.817 222.846 171.862C237.973 177.63 256.017 170.026 261.543 155.556C262.709 152.502 263.726 151.197 264.658 151.555C265.42 151.847 269.035 151.565 272.693 150.928C284.946 148.794 293.471 140.66 296.671 128.051C298.129 122.305 298.123 121.263 296.591 115.011C294.937 108.264 294.942 108.189 297.242 104.297C299.303 100.81 299.558 99.1085 299.558 88.8565C299.558 78.5295 299.299 76.8305 297.058 72.4705C294.192 66.8985 291.33 65.2995 288.173 67.5105C285.506 69.3785 285.515 71.1245 288.219 76.7115C292.35 85.2445 291.621 96.0165 286.436 103.043C284.008 106.334 283.316 110.302 284.99 111.336C285.503 111.653 286.46 114.316 287.118 117.253C288.722 124.424 286.549 131.298 281.129 136.195C275.915 140.905 271.345 142.249 263.423 141.4C256.203 140.627 254.058 141.573 254.058 145.533C254.058 148.814 251.435 154.845 248.76 157.712C242.767 164.137 232.014 165.801 223.965 161.55C210.29 154.328 210.115 134.203 223.658 126.267C227.828 123.823 228.849 123.646 235.991 124.136C240.273 124.429 244.341 124.321 245.03 123.896C245.718 123.47 246.635 121.379 247.067 119.25C247.499 117.12 248.162 114.004 248.541 112.325C249.119 109.762 248.667 108.599 245.72 105.072C241.346 99.8365 239.64 94.9535 239.716 87.8785C239.823 77.8155 245.837 68.9405 255.31 64.8655C259.893 62.8935 261.613 62.6895 269.125 63.2225C278.384 63.8795 280.058 63.2645 280.058 59.2015C280.058 55.6105 276.074 53.7475 267.343 53.2565C261.366 52.9195 258.397 53.2525 254.558 54.6895ZM250.656 76.5675C245.905 83.7795 245.945 94.9585 250.729 97.1385C254.432 98.8255 257.079 95.4525 256.345 89.9815C255.96 87.1125 256.439 84.8345 258.146 81.4155C260.808 76.0865 260.094 73.5865 255.762 73.0675C253.698 72.8195 252.654 73.5355 250.656 76.5675ZM36.0584 77.8785C31.4904 82.4465 36.0744 87.7285 42.4764 85.2715C44.8364 84.3665 44.5774 78.2265 42.1244 76.9135C39.3764 75.4435 38.3274 75.6095 36.0584 77.8785ZM164.636 76.9415C162.479 77.4785 160.117 78.4145 159.387 79.0205C158.412 79.8295 157.198 79.7585 154.809 78.7505C152.785 77.8965 147.785 77.3785 141.558 77.3785C132.697 77.3785 130.927 77.6885 126.021 80.1005L120.484 82.8225L115.602 80.3505C109.845 77.4355 103.125 77.1185 97.4304 79.4925C87.5694 83.6045 83.0124 89.7905 82.2774 100.064C81.8554 105.952 82.1414 107.527 84.5034 112.356C87.5964 118.677 91.3014 121.805 98.8084 124.435C101.696 125.446 104.058 126.818 104.058 127.483C104.058 128.149 105.283 131.054 106.78 133.94C113.797 147.465 130.684 157.844 132.26 149.601C132.942 146.036 132.265 145.072 126.494 141.38C119.921 137.176 115.524 131.315 113.411 123.942C112.534 120.882 111.413 117.872 110.919 117.253C110.425 116.635 107.837 115.919 105.167 115.663C98.7994 115.051 94.6484 111.989 92.4764 106.304C90.8054 101.927 90.8124 101.578 92.6724 97.0905C95.0544 91.3425 99.7864 87.8785 105.256 87.8785C109.39 87.8785 113.851 89.7185 116.003 92.3125C117.493 94.1085 122.606 94.4185 123.622 92.7755C123.996 92.1695 126.61 90.5985 129.431 89.2855C135.58 86.4215 146.968 85.9785 152.712 88.3785C157.235 90.2685 160.044 90.2775 162.708 88.4115C166.401 85.8245 173.96 84.6535 179.014 85.8855C193.815 89.4935 201.197 105.179 194.458 118.702C190.408 126.831 178.977 133.151 171.651 131.312C169.767 130.839 168.198 131.805 163.675 136.22C160.146 139.666 156.275 142.348 153.301 143.406C150.693 144.335 147.366 145.531 145.909 146.065C142.887 147.174 141.683 150.983 143.548 153.534C145.807 156.623 158.25 153.735 164.738 148.615C165.6 147.934 167.804 145.981 169.637 144.272C172.226 141.859 174.164 141.044 178.331 140.614C189 139.512 198.453 132.815 203.779 122.584C206.142 118.045 206.488 116.226 206.481 108.378C206.474 100.07 206.218 98.9175 203.159 93.3785C196.909 82.0615 188.443 76.7015 176.092 76.2435C171.948 76.0895 166.793 76.4035 164.636 76.9415ZM23.8084 83.9345C21.6794 85.2035 21.4844 90.1575 23.4984 91.8285C26.0344 93.9335 30.4084 92.7025 31.5014 89.5755C33.2334 84.6235 28.4894 81.1445 23.8084 83.9345ZM172.732 95.9335C170.779 98.7225 171.884 101.22 176.017 103.357C177.611 104.181 179.21 105.783 179.57 106.916C180.467 109.741 177.593 113.878 174.735 113.878C171.891 113.878 170.058 115.641 170.058 118.378C170.058 126.27 183.112 123.38 187.094 114.607C189.45 109.417 189.492 108.004 187.444 102.885C184.583 95.7345 175.784 91.5765 172.732 95.9335ZM40.9404 99.1985C27.9814 104.046 21.0584 113.762 21.0584 127.1C21.0584 134.514 21.0544 134.524 16.6304 139.141C9.98236 146.08 7.79736 151.653 7.71836 161.878C7.66336 168.908 8.06936 171.243 10.0684 175.378C13.5344 182.551 18.5444 187.53 25.7544 190.971C30.8734 193.415 33.3534 193.977 39.0824 193.996C48.5954 194.026 54.5794 191.84 61.2404 185.904C69.9814 178.113 73.9044 165.589 71.2294 154.017C70.2794 149.907 70.4164 149.384 73.6164 144.93C75.7324 141.985 77.5944 137.69 78.5594 133.53C79.9664 127.463 79.9614 126.291 78.5004 120.656C76.1134 111.444 70.8894 104.901 62.5584 100.69C57.4544 98.1105 45.9684 97.3175 40.9404 99.1985ZM58.7794 109.985C70.9014 115.853 73.2364 131.753 63.4184 141.57C58.6654 146.323 58.2994 147.817 60.5584 153.224C62.4994 157.869 62.4744 165.946 60.5054 170.66C54.0374 186.143 32.8724 189.175 22.1344 176.157C17.2694 170.26 15.8664 162.711 18.1234 154.584C19.1634 150.838 25.2484 143.739 29.9564 140.778C32.3164 139.293 32.3344 139.171 31.0854 132.824C30.1114 127.869 30.0834 125.406 30.9644 122.173C34.1964 110.32 47.4634 104.507 58.7794 109.985ZM93.0934 137.812C91.4784 140.83 91.8564 142.7 94.4234 144.382C97.9254 146.676 102.058 144.901 102.058 141.103C102.058 139.549 101.518 137.738 100.858 137.078C98.9574 135.177 94.2664 135.62 93.0934 137.812ZM25.0304 153.411C23.2054 155.611 22.6244 164.031 24.0084 168.226C25.2534 172 30.0964 177.878 31.9594 177.878C32.5644 177.878 33.9614 176.975 35.0644 175.872L37.0714 173.865L34.4384 168.831C32.4344 164.998 31.9304 162.868 32.3274 159.91C33.1814 153.539 28.4344 149.31 25.0304 153.411ZM169.558 166.562C162.433 168.172 155.212 173.862 152.078 180.336C149.657 185.337 149.309 197.15 151.433 202.233C155.013 210.802 165.588 217.892 174.746 217.863C181.795 217.841 188.731 215.062 193.405 210.388C194.543 209.25 197.088 208.704 201.875 208.57C207.701 208.406 209.275 207.952 212.473 205.512C218.092 201.224 220.05 197.363 220.054 190.562C220.058 184.031 219.182 181.818 214.723 177.109C210.947 173.12 205.372 171.483 198.491 172.343C193.982 172.906 192.827 172.661 189.567 170.448C183.703 166.469 176.317 165.035 169.558 166.562ZM108.058 174.055C105.14 175.865 102.979 176.238 95.0584 176.302C84.5274 176.386 81.5434 177.459 75.7614 183.242C70.6034 188.4 68.6674 193.332 68.6444 201.378C68.6074 214.358 75.5224 223.219 88.3054 226.572C94.5914 228.22 95.1474 228.216 100.722 226.476C108.236 224.131 113.973 219.417 117.084 213.034C119.048 209.001 120.073 207.941 122.058 207.884C125.576 207.782 132.004 203.024 134.203 198.894C135.428 196.593 136.058 193.331 136.058 189.294C136.058 184.095 135.611 182.562 133.078 179.064C129.095 173.566 125.517 171.877 117.858 171.882C113.14 171.885 110.679 172.43 108.058 174.055ZM182.382 177.788C184.443 178.839 187.046 180.864 188.166 182.288C190.444 185.184 193.7 185.616 196.617 183.41C197.684 182.602 200.167 181.927 202.134 181.91C209.596 181.843 213.243 190.859 208.008 196.431C205.466 199.137 203.524 199.268 194.447 197.35C191.652 196.759 191.109 197.06 189.096 200.316C184.652 207.507 173.689 210.148 167.048 205.628C161.398 201.783 159.558 198.429 159.558 191.977C159.558 187.177 160.036 185.596 162.437 182.448C167.381 175.966 175.217 174.135 182.382 177.788ZM123.346 182.89C126.377 185.274 127.53 189.507 126.142 193.156C124.862 196.523 119.784 199.196 116.174 198.404C112.762 197.654 110.577 199.895 109.645 205.099C108.769 209.988 103.652 215.32 98.2954 216.925C85.2104 220.845 73.7314 206.799 79.7144 194.19C83.2674 186.703 94.1584 183.293 101.835 187.263C106.242 189.542 106.913 189.368 111.058 184.878C115.322 180.259 119.204 179.631 123.346 182.89ZM229.108 188.318C227.491 190.266 228.166 194.931 230.255 196.239C233.082 198.008 237.497 195.872 237.88 192.549C238.295 188.955 236.529 186.878 233.058 186.878C231.543 186.878 229.765 187.526 229.108 188.318ZM245.713 192.707C243.309 195.363 243.676 198.581 246.599 200.497C250.402 202.988 254.058 201.078 254.058 196.599C254.058 194.773 253.518 192.738 252.858 192.078C251.091 190.311 247.604 190.618 245.713 192.707Z" fill="#3A849A"/>
<path fill-rule="evenodd" clip-rule="evenodd" d="M47.5583 1.45047C41.1793 3.73347 38.8573 5.02747 33.8793 9.07447C31.3053 11.1665 28.1233 12.8785 26.8073 12.8785C22.5333 12.8785 14.6573 16.0805 10.3073 19.5875C5.18934 23.7125 3.68734 26.2655 4.49234 29.4715C5.42634 33.1915 10.8073 32.8105 14.6213 28.7555C18.4363 24.6995 22.8353 22.8785 28.8233 22.8785C33.1743 22.8785 34.0443 22.4705 37.6053 18.7585C52.3323 3.41147 77.0683 8.94847 82.6943 28.8515C84.5493 35.4145 86.1283 36.8785 91.3493 36.8785C94.4613 36.8785 95.9513 37.5715 98.6583 40.2785C101.432 43.0525 102.058 44.4425 102.058 47.8285C102.058 55.6785 97.1913 60.8835 89.8583 60.8745C86.9053 60.8715 84.4563 59.7125 78.8113 55.6505C77.3923 54.6285 76.6433 54.6665 74.8113 55.8515C65.2363 62.0505 56.1383 63.6095 48.4043 60.3785C43.7073 58.4165 42.2573 58.4825 37.5583 60.8785C26.6723 66.4285 12.2373 59.5905 9.17634 47.4315C8.41834 44.4215 7.36634 42.8845 5.47534 42.0225C1.80834 40.3515 0.0553396 42.0465 0.0683396 47.2505C0.0893396 56.1655 7.23934 65.6635 17.5583 70.4845C22.6063 72.8435 34.8563 72.8635 40.2233 70.5215C43.5003 69.0915 44.3993 69.0775 48.7233 70.3895C51.3823 71.1965 55.3093 71.8615 57.4503 71.8675C61.6833 71.8795 74.6483 68.3515 75.5123 66.9525C75.8063 66.4775 77.7193 66.9415 79.7643 67.9835C84.9643 70.6345 95.0333 70.5535 100.691 67.8145C108.375 64.0945 113.328 53.4635 111.62 44.3565C110.19 36.7335 104.197 30.2045 96.5053 27.8885C93.1003 26.8635 92.2423 25.9805 90.2583 21.4575C87.4323 15.0135 83.5253 10.1665 78.1543 6.44547C69.4803 0.433468 56.3773 -1.70453 47.5583 1.45047ZM192.558 2.75047C184.023 4.98147 176.745 10.8105 173.494 18.0195L171.651 22.1065L169.605 19.6245C168.479 18.2595 165.566 15.8455 163.131 14.2605C159.231 11.7215 157.794 11.3785 151.053 11.3785C144.278 11.3785 142.839 11.7255 138.496 14.4115C131.1 18.9835 127.846 24.5075 127.271 33.4645C126.874 39.6425 127.145 41.4405 129.022 45.0765C133.915 54.5535 139.908 58.2035 151.007 58.4645C157.609 58.6195 158.702 58.9255 160.617 61.1525C161.806 62.5345 164.703 64.9395 167.056 66.4955C170.798 68.9715 172.287 69.3295 178.946 69.3525C185.558 69.3755 187.182 69.0045 191.307 66.5335C193.919 64.9695 196.987 62.3815 198.125 60.7835C199.594 58.7205 201.035 57.8785 203.092 57.8785C206.131 57.8785 212.624 55.2615 214.879 53.1285C215.606 52.4415 216.565 51.8785 217.011 51.8785C218.539 51.8785 223.296 44.6985 225.177 39.5535C231.445 22.4045 219.551 3.81747 201.415 2.41847C198.194 2.16947 194.208 2.31947 192.558 2.75047ZM209.469 15.2435C223.447 25.9045 217.093 47.2155 199.503 48.6745C194.583 49.0825 193.865 49.4545 191.918 52.6045C188.985 57.3515 184.525 59.8715 179.058 59.8715C173.009 59.8715 168.581 57.0075 165.811 51.3065C163.648 46.8545 163.474 46.7365 160.069 47.4105C158.138 47.7935 153.774 48.1675 150.372 48.2425C144.789 48.3655 143.886 48.0905 141.1 45.4205C128.644 33.4815 142.834 14.5055 158.255 22.4805C159.819 23.2895 162.327 26.1785 163.829 28.9005C166.869 34.4145 168.089 34.7955 174.655 32.2885C178.529 30.8085 181.058 27.7575 181.058 24.5635C181.058 21.9275 186.172 16.0285 190.255 13.9535C196.307 10.8785 204.465 11.4265 209.469 15.2435ZM53.9713 18.9015C49.6213 19.6405 44.9743 22.7995 43.1083 26.2845C41.8913 28.5595 41.9423 29.0925 43.5493 30.8685C45.9803 33.5545 47.1083 33.4155 51.5583 29.8785C53.6343 28.2285 56.3623 26.8785 57.6193 26.8785C60.4793 26.8785 66.0583 31.4625 66.0583 33.8125C66.0583 36.4715 69.5493 39.1745 71.9843 38.4015C75.0303 37.4355 75.5203 33.7115 73.2703 28.6255C70.0113 21.2585 62.4683 17.4575 53.9713 18.9015ZM241.713 30.7075C238.406 34.3605 240.256 38.8785 245.058 38.8785C248.247 38.8785 250.058 37.2015 250.058 34.2495C250.058 29.5085 244.813 27.2815 241.713 30.7075ZM234.996 42.1605C229.725 46.2715 234.182 54.0235 240.02 50.8985C242.793 49.4145 242.863 43.3795 240.124 41.9135C237.688 40.6105 236.937 40.6465 234.996 42.1605ZM254.558 54.6895C246.863 57.5695 243.869 59.3835 239.946 63.5465C233.219 70.6825 230.058 78.5685 230.058 88.2175C230.058 96.0695 231.851 102.017 236.22 108.663C239.392 113.487 239.341 113.54 231.004 114.122C217.468 115.067 207.27 124.444 204.079 138.878C201.179 151.993 209.613 166.817 222.846 171.862C237.973 177.63 256.017 170.026 261.543 155.556C262.709 152.502 263.726 151.197 264.658 151.555C265.42 151.847 269.035 151.565 272.693 150.928C284.946 148.794 293.471 140.66 296.671 128.051C298.129 122.305 298.123 121.263 296.591 115.011C294.937 108.264 294.942 108.189 297.242 104.297C299.303 100.81 299.558 99.1085 299.558 88.8565C299.558 78.5295 299.299 76.8305 297.058 72.4705C294.192 66.8985 291.33 65.2995 288.173 67.5105C285.464 69.4085 285.499 71.8195 288.308 76.5715C290.142 79.6745 290.558 81.8735 290.558 88.4665C290.558 95.9135 290.291 96.9845 287.188 101.966C284.111 106.907 283.925 107.639 285.044 110.378C287.322 115.956 288.335 121.587 287.684 125.057C286.796 129.789 282.611 135.962 278.284 138.919C275.095 141.099 273.626 141.378 265.338 141.378C255.348 141.378 254.105 141.963 254.073 146.678C254.032 152.935 246.835 161.273 239.631 163.412C228.188 166.81 217.065 160.409 213.909 148.61C210.02 134.072 223.668 120.541 238.799 123.932C244.534 125.217 245.513 124.391 247.557 116.545C249.464 109.222 249.515 109.701 246.461 106.284C237.286 96.0215 237.171 81.1355 246.19 71.3515C253.102 63.8525 260.084 61.6455 271.663 63.2975C275.75 63.8815 277.095 63.6985 278.413 62.3805C280.772 60.0215 280.442 57.1765 277.593 55.3095C273.673 52.7415 260.697 52.3915 254.558 54.6895ZM252.536 74.5435C246.187 80.8925 245.233 95.5295 251.049 97.3755C254.492 98.4685 256.058 96.2265 256.058 90.2045C256.058 86.4035 256.733 83.5975 258.308 80.8485C260.073 77.7695 260.32 76.5415 259.456 75.1505C257.936 72.7065 254.66 72.4195 252.536 74.5435ZM36.0583 77.8785C31.4903 82.4465 36.0743 87.7285 42.4763 85.2715C44.8363 84.3665 44.5773 78.2265 42.1243 76.9135C39.3763 75.4435 38.3273 75.6095 36.0583 77.8785ZM164.636 76.9415C162.479 77.4785 160.117 78.4145 159.387 79.0205C158.412 79.8295 157.198 79.7585 154.809 78.7505C152.785 77.8965 147.785 77.3785 141.558 77.3785C132.697 77.3785 130.927 77.6885 126.021 80.1005L120.484 82.8225L115.602 80.3505C109.845 77.4355 103.125 77.1185 97.4303 79.4925C87.5693 83.6045 83.0123 89.7905 82.2773 100.064C81.8553 105.952 82.1413 107.527 84.5033 112.356C87.5963 118.677 91.3013 121.805 98.8083 124.435C101.696 125.446 104.058 126.818 104.058 127.483C104.058 129.952 109.631 139.322 113.53 143.408C118.965 149.104 126.35 153.272 129.574 152.463C131.632 151.947 132.058 151.235 132.058 148.312C132.058 145.378 131.526 144.499 128.893 143.081C120.653 138.647 114.124 130.076 112.535 121.608C111.673 117.015 110.701 116.262 104.822 115.633C98.5763 114.965 95.2953 112.667 92.9193 107.296C90.4013 101.604 91.2423 96.7405 95.5563 92.0315C98.4033 88.9255 99.4493 88.4775 104.754 88.0945C110.319 87.6915 110.991 87.8805 114.281 90.7695C118.04 94.0695 122.062 94.7835 123.967 92.4885C125.654 90.4555 133.869 87.1555 139.058 86.4255C141.988 86.0135 145.477 86.3545 149.058 87.4025C158.01 90.0235 159.684 90.1685 162.195 88.5405C163.495 87.6985 166.678 86.4805 169.269 85.8345C179.247 83.3485 189.799 88.5615 194.583 98.3405C196.952 103.182 197.258 104.803 196.822 110.226C195.785 123.151 185.678 131.878 171.745 131.878C168.316 131.878 167.261 132.449 164.296 135.912C160.656 140.165 155.344 143.343 148.621 145.29C143.908 146.654 141.565 150.088 143.227 153.194C144.125 154.872 145.009 155.06 149.731 154.572C157.064 153.816 162.311 151.1 169.637 144.272C172.226 141.859 174.164 141.044 178.331 140.614C189 139.512 198.453 132.815 203.779 122.584C206.142 118.045 206.488 116.226 206.481 108.378C206.474 100.07 206.218 98.9175 203.159 93.3785C196.909 82.0615 188.443 76.7015 176.092 76.2435C171.948 76.0895 166.793 76.4035 164.636 76.9415ZM23.8083 83.9345C21.6793 85.2035 21.4843 90.1575 23.4983 91.8285C26.0343 93.9335 30.4083 92.7025 31.5013 89.5755C33.2333 84.6235 28.4893 81.1445 23.8083 83.9345ZM173.104 95.3235C171.18 97.6405 172.281 101.227 175.367 102.702C181.667 105.712 180.928 112.026 174.014 114.261C171.59 115.045 170.46 116.066 170.231 117.683C169.501 122.833 174.318 124.326 180.848 120.973C190.846 115.84 190.94 101.552 181.012 95.9725C176.624 93.5065 174.74 93.3515 173.104 95.3235ZM40.9403 99.1985C27.9813 104.046 21.0583 113.762 21.0583 127.1C21.0583 134.514 21.0543 134.524 16.6303 139.141C9.98234 146.08 7.79734 151.653 7.71834 161.878C7.66334 168.908 8.06934 171.243 10.0683 175.378C13.5343 182.551 18.5443 187.53 25.7543 190.971C30.8733 193.415 33.3533 193.977 39.0823 193.996C48.5953 194.026 54.5793 191.84 61.2403 185.904C69.9813 178.113 73.9043 165.589 71.2293 154.017C70.2793 149.907 70.4163 149.384 73.6163 144.93C75.7323 141.985 77.5943 137.69 78.5593 133.53C79.9663 127.463 79.9613 126.291 78.5003 120.656C76.1133 111.444 70.8893 104.901 62.5583 100.69C57.4543 98.1105 45.9683 97.3175 40.9403 99.1985ZM59.0403 109.869C61.1863 110.964 64.0313 113.326 65.3623 115.119C72.0583 124.138 71.3593 133.84 63.4433 141.756C58.6083 146.591 58.2683 147.987 60.7253 152.912C64.4023 160.284 62.1813 171.601 55.8053 177.978C50.9843 182.798 47.2213 184.311 40.0583 184.307C26.5303 184.3 17.0253 174.932 17.0803 161.66C17.1163 152.984 19.4773 149.132 30.0173 140.551C31.7323 139.155 32.1123 138.093 31.6283 136.051C31.2803 134.581 30.7253 131.46 30.3953 129.116C29.3143 121.439 33.8493 113.448 41.5583 109.447C45.8093 107.241 54.2903 107.446 59.0403 109.869ZM93.0933 137.812C91.4783 140.83 91.8563 142.7 94.4233 144.382C97.9253 146.676 102.058 144.901 102.058 141.103C102.058 139.549 101.518 137.738 100.858 137.078C98.9573 135.177 94.2663 135.62 93.0933 137.812ZM25.4993 153.297C23.9313 154.444 23.5593 155.932 23.5623 161.047C23.5673 171.292 29.0133 179.578 33.9913 176.914C36.5963 175.52 36.6223 172.249 34.0583 168.378C32.6603 166.267 32.0693 163.684 32.0653 159.663C32.0593 155.041 31.6883 153.751 30.1243 152.913C27.6943 151.613 27.8173 151.602 25.4993 153.297ZM169.558 166.562C162.433 168.172 155.212 173.862 152.078 180.336C149.657 185.337 149.309 197.15 151.433 202.233C155.013 210.802 165.588 217.892 174.746 217.863C181.795 217.841 188.731 215.062 193.405 210.388C194.543 209.25 197.088 208.704 201.875 208.57C207.701 208.406 209.275 207.952 212.473 205.512C218.092 201.224 220.05 197.363 220.054 190.562C220.058 184.031 219.182 181.818 214.723 177.109C210.947 173.12 205.372 171.483 198.491 172.343C193.982 172.906 192.827 172.661 189.567 170.448C183.703 166.469 176.317 165.035 169.558 166.562ZM108.058 174.055C105.14 175.865 102.979 176.238 95.0583 176.302C84.5273 176.386 81.5433 177.459 75.7613 183.242C70.6033 188.4 68.6673 193.332 68.6443 201.378C68.6073 214.358 75.5223 223.219 88.3053 226.572C94.5913 228.22 95.1473 228.216 100.722 226.476C108.236 224.131 113.973 219.417 117.084 213.034C119.048 209.001 120.073 207.941 122.058 207.884C125.576 207.782 132.004 203.024 134.203 198.894C135.428 196.593 136.058 193.331 136.058 189.294C136.058 184.095 135.611 182.562 133.078 179.064C129.095 173.566 125.517 171.877 117.858 171.882C113.14 171.885 110.679 172.43 108.058 174.055ZM182.677 177.501C184.558 178.394 187.019 180.419 188.146 182.001C190.407 185.177 193.435 185.664 196.499 183.346C201.212 179.782 209.21 182.65 210.659 188.425C211.422 191.465 209.432 196.607 206.987 197.916C204.588 199.2 199.409 199.136 196.899 197.793C193.895 196.185 190.83 197.414 188.403 201.199C184.166 207.808 173.501 210.02 167.048 205.628C161.37 201.763 159.558 198.438 159.558 191.878C159.558 185.318 161.37 181.993 167.048 178.128C171.042 175.41 177.706 175.142 182.677 177.501ZM124.258 183.924C126.881 186.547 127.222 187.478 126.713 190.615C125.866 195.834 123.106 198.165 117.391 198.488C112.275 198.776 110.058 200.57 110.058 204.421C110.058 207.153 106.413 212.561 102.735 215.286C100.626 216.849 98.4313 217.378 94.0583 217.378C87.4983 217.378 84.1733 215.566 80.3083 209.888C77.3613 205.558 77.2423 197.729 80.0533 193.119C84.0423 186.575 92.0303 183.781 99.2143 186.417C101.603 187.293 104.29 188.244 105.186 188.529C106.209 188.855 108.313 187.532 110.857 184.963C115.996 179.772 119.81 179.477 124.258 183.924ZM229.108 188.318C227.491 190.266 228.166 194.931 230.255 196.239C233.082 198.008 237.497 195.872 237.88 192.549C238.295 188.955 236.529 186.878 233.058 186.878C231.543 186.878 229.765 187.526 229.108 188.318ZM245.713 192.707C243.309 195.363 243.676 198.581 246.599 200.497C250.402 202.988 254.058 201.078 254.058 196.599C254.058 194.773 253.518 192.738 252.858 192.078C251.091 190.311 247.604 190.618 245.713 192.707Z" fill="#426169"/>
<path fill-rule="evenodd" clip-rule="evenodd" d="M47.5583 1.45047C41.1793 3.73347 38.8573 5.02747 33.8793 9.07447C31.3053 11.1665 28.1233 12.8785 26.8073 12.8785C22.5333 12.8785 14.6573 16.0805 10.3073 19.5875C5.18934 23.7125 3.68734 26.2655 4.49234 29.4715C5.27734 32.6015 9.93734 32.7745 12.6523 29.7745C16.3073 25.7355 22.6883 22.7835 28.5153 22.4365C33.5763 22.1345 34.5763 21.6675 38.9813 17.5475C45.2773 11.6585 49.7013 9.87347 57.9303 9.90047C71.1003 9.94447 79.4713 16.8025 83.6893 31.0065C85.0023 35.4285 85.4123 35.8785 88.1293 35.8785C96.1463 35.8785 102.058 41.3595 102.058 48.7905C102.058 59.6975 91.5873 64.3135 81.7003 57.7645L77.0003 54.6515L73.2793 57.0945C65.5573 62.1655 56.5223 63.2785 47.6413 60.2525C43.0263 58.6795 42.7093 58.7005 38.0573 60.8795C26.0383 66.5085 12.4913 60.2735 8.96034 47.4875C7.72534 43.0145 3.78334 40.0315 1.55334 41.8825C-0.684656 43.7395 -0.261657 50.6485 2.44434 56.4595C4.98234 61.9105 10.8393 67.3455 17.5583 70.4845C22.6063 72.8435 34.8563 72.8635 40.2233 70.5215C43.5003 69.0915 44.3993 69.0775 48.7233 70.3895C51.3823 71.1965 55.3093 71.8615 57.4503 71.8675C61.6833 71.8795 74.6483 68.3515 75.5123 66.9525C75.8063 66.4775 77.7193 66.9415 79.7643 67.9835C84.9643 70.6345 95.0333 70.5535 100.691 67.8145C108.375 64.0945 113.328 53.4635 111.62 44.3565C110.19 36.7335 104.197 30.2045 96.5053 27.8885C93.1003 26.8635 92.2423 25.9805 90.2583 21.4575C87.4323 15.0135 83.5253 10.1665 78.1543 6.44547C69.4803 0.433468 56.3773 -1.70453 47.5583 1.45047ZM192.558 2.75047C184.023 4.98147 176.745 10.8105 173.494 18.0195L171.651 22.1065L169.605 19.6245C168.479 18.2595 165.566 15.8455 163.131 14.2605C159.231 11.7215 157.794 11.3785 151.053 11.3785C144.278 11.3785 142.839 11.7255 138.496 14.4115C131.1 18.9835 127.846 24.5075 127.271 33.4645C126.874 39.6425 127.145 41.4405 129.022 45.0765C133.915 54.5535 139.908 58.2035 151.007 58.4645C157.609 58.6195 158.702 58.9255 160.617 61.1525C161.806 62.5345 164.703 64.9395 167.056 66.4955C170.798 68.9715 172.287 69.3295 178.946 69.3525C185.558 69.3755 187.182 69.0045 191.307 66.5335C193.919 64.9695 196.987 62.3815 198.125 60.7835C199.594 58.7205 201.035 57.8785 203.092 57.8785C206.131 57.8785 212.624 55.2615 214.879 53.1285C215.606 52.4415 216.565 51.8785 217.011 51.8785C218.539 51.8785 223.296 44.6985 225.177 39.5535C231.445 22.4045 219.551 3.81747 201.415 2.41847C198.194 2.16947 194.208 2.31947 192.558 2.75047ZM206.858 13.2895C209.969 14.9145 214.28 19.3415 215.993 22.6705C217.51 25.6155 217.553 33.5195 216.074 37.3785C213.619 43.7845 206.118 48.8785 199.137 48.8785C196.937 48.8785 194.685 49.4415 194.132 50.1285C188.311 57.3715 186.498 58.9525 182.902 59.9205C175.863 61.8155 169.549 58.7175 165.906 51.5795C163.42 46.7085 162.106 46.2775 155.765 48.2565C147.842 50.7285 142.383 48.7425 138.188 41.8605C131.942 31.6145 141.36 18.4025 153.453 20.4455C157.842 21.1865 162.29 25.0335 165.261 30.6555C167.264 34.4445 168.946 34.6065 174.953 31.5875C178.582 29.7625 179.662 28.5275 181.159 24.4895C184.354 15.8645 189.873 11.9395 198.858 11.9015C201.772 11.8885 205.372 12.5135 206.858 13.2895ZM50.5583 20.0425C44.0333 23.6425 41.0183 29.7595 44.8083 31.7085C46.9473 32.8085 48.9893 32.1965 51.3363 29.7535C55.9333 24.9665 63.2263 26.7715 66.0673 33.3995C68.2003 38.3755 70.1883 39.4035 73.1053 37.0415C75.0423 35.4725 75.1423 34.9215 74.1373 31.3415C71.9853 23.6805 65.5683 18.8695 57.5583 18.9125C54.8083 18.9275 51.6583 19.4355 50.5583 20.0425ZM241.713 30.7075C238.406 34.3605 240.256 38.8785 245.058 38.8785C248.247 38.8785 250.058 37.2015 250.058 34.2495C250.058 29.5085 244.813 27.2815 241.713 30.7075ZM234.996 42.1605C229.725 46.2715 234.182 54.0235 240.02 50.8985C242.793 49.4145 242.863 43.3795 240.124 41.9135C237.688 40.6105 236.937 40.6465 234.996 42.1605ZM254.558 54.6895C246.863 57.5695 243.869 59.3835 239.946 63.5465C233.219 70.6825 230.058 78.5685 230.058 88.2175C230.058 96.0695 231.851 102.017 236.22 108.663C239.392 113.487 239.341 113.54 231.004 114.122C217.468 115.067 207.27 124.444 204.079 138.878C201.179 151.993 209.613 166.817 222.846 171.862C237.973 177.63 256.017 170.026 261.543 155.556C262.709 152.502 263.726 151.197 264.658 151.555C265.42 151.847 269.035 151.565 272.693 150.928C284.946 148.794 293.471 140.66 296.671 128.051C298.129 122.305 298.123 121.263 296.591 115.011C294.937 108.264 294.942 108.189 297.242 104.297C299.302 100.811 299.558 99.1075 299.558 88.8785C299.558 78.7905 299.266 76.7855 297.18 72.5495C294.692 67.4955 291.719 65.5065 288.876 66.9955C286.011 68.4955 285.911 71.3645 288.527 76.9835C292.37 85.2385 292.06 92.8105 287.524 101.513L283.99 108.293L286.142 113.295C290.469 123.354 286.627 134.5 277.058 139.643C273.083 141.78 271.653 142.004 264.799 141.564C257.715 141.109 256.91 141.251 255.549 143.194C254.729 144.365 254.058 146.421 254.058 147.763C254.058 151.763 249.362 158.616 244.781 161.3C236.403 166.21 227.188 165.565 220.388 159.594C204.413 145.568 216.829 119.823 237.754 123.584C243.142 124.552 246.058 123.8 246.058 121.443C246.058 120.709 246.793 117.83 247.692 115.047L249.327 109.986L246.645 106.799C240.398 99.3755 237.843 90.0825 239.926 82.3635C243.667 68.4945 256.65 60.1935 270.403 62.8765C275.545 63.8795 276.477 63.8095 278.153 62.2925C283.194 57.7305 278.598 53.8895 267.343 53.2565C261.366 52.9195 258.397 53.2525 254.558 54.6895ZM252.606 74.4735C248.291 78.7885 246.352 86.5445 248.031 92.7785C249.094 96.7275 249.371 96.9775 252.363 96.6875C255.541 96.3805 255.561 96.3435 256.058 89.8285C256.347 86.0385 257.295 82.1565 258.308 80.6145C260.46 77.3355 260.486 76.4495 258.487 74.4495C256.485 72.4485 254.623 72.4565 252.606 74.4735ZM36.0583 77.8785C31.4903 82.4465 36.0743 87.7285 42.4763 85.2715C44.8363 84.3665 44.5773 78.2265 42.1243 76.9135C39.3763 75.4435 38.3273 75.6095 36.0583 77.8785ZM164.636 76.9415C162.479 77.4785 160.117 78.4145 159.387 79.0205C158.412 79.8295 157.198 79.7585 154.809 78.7505C152.785 77.8965 147.785 77.3785 141.558 77.3785C132.697 77.3785 130.927 77.6885 126.021 80.1005L120.484 82.8225L115.602 80.3505C109.845 77.4355 103.125 77.1185 97.4303 79.4925C87.5693 83.6045 83.0123 89.7905 82.2773 100.064C81.8553 105.952 82.1413 107.527 84.5033 112.356C87.5963 118.677 91.3013 121.805 98.8083 124.435C101.696 125.446 104.058 126.818 104.058 127.483C104.058 129.952 109.631 139.322 113.53 143.408C118.965 149.104 126.35 153.272 129.574 152.463C131.607 151.953 132.058 151.226 132.058 148.454C132.058 145.51 131.484 144.732 127.657 142.489C119.552 137.739 112.058 126.808 112.058 119.735C112.058 117.459 109.117 115.879 104.874 115.874C100.978 115.87 95.8263 112.98 93.5673 109.532C88.9473 102.482 91.8023 92.6325 99.5533 88.8815C105.728 85.8915 109.447 86.7285 118.297 93.1025C119.728 94.1325 120.526 94.0355 122.797 92.5565C132.965 85.9365 141.634 84.5265 151.898 87.8265L158.805 90.0485L162.928 87.9445C172.141 83.2445 181.927 84.3705 189.453 90.9945C199.977 100.258 200 116.478 189.502 125.718C184.679 129.964 179.518 131.878 172.895 131.878C169.029 131.878 167.96 132.396 164.511 135.941C159.434 141.16 155.101 143.819 149.247 145.311C143.883 146.679 141.447 149.868 143.227 153.194C144.125 154.872 145.009 155.06 149.731 154.572C157.064 153.816 162.311 151.1 169.637 144.272C172.226 141.859 174.164 141.044 178.331 140.614C189 139.512 198.453 132.815 203.779 122.584C206.142 118.045 206.488 116.226 206.481 108.378C206.474 100.07 206.218 98.9175 203.159 93.3785C196.909 82.0615 188.443 76.7015 176.092 76.2435C171.948 76.0895 166.793 76.4035 164.636 76.9415ZM23.8083 83.9345C21.6793 85.2035 21.4843 90.1575 23.4983 91.8285C26.0343 93.9335 30.4083 92.7025 31.5013 89.5755C33.2333 84.6235 28.4893 81.1445 23.8083 83.9345ZM174.303 94.9835C170.704 96.3155 171.353 100.265 175.582 102.76C179.598 105.129 180.532 106.853 179.666 110.303C179.245 111.98 177.909 113.098 175.308 113.945C171.263 115.264 170.097 116.41 170.073 119.093C170.028 124.157 179.312 123.353 184.6 117.835C187.245 115.074 187.558 114.072 187.558 108.378C187.558 102.718 187.236 101.674 184.668 98.9935C181.176 95.3485 177.334 93.8625 174.303 94.9835ZM40.9403 99.1985C27.9813 104.046 21.0583 113.762 21.0583 127.1C21.0583 134.514 21.0543 134.524 16.6303 139.141C9.98234 146.08 7.79734 151.653 7.71834 161.878C7.66334 168.908 8.06934 171.243 10.0683 175.378C13.5343 182.551 18.5443 187.53 25.7543 190.971C30.8733 193.415 33.3533 193.977 39.0823 193.996C48.5953 194.026 54.5793 191.84 61.2403 185.904C69.9813 178.113 73.9043 165.589 71.2293 154.017C70.2793 149.907 70.4163 149.384 73.6163 144.93C75.7323 141.985 77.5943 137.69 78.5593 133.53C79.9663 127.463 79.9613 126.291 78.5003 120.656C76.1133 111.444 70.8893 104.901 62.5583 100.69C57.4543 98.1105 45.9683 97.3175 40.9403 99.1985ZM57.4713 108.845C61.3293 110.312 66.2843 115.167 68.1783 119.337C71.8263 127.367 69.9983 135.279 62.7943 142.636C58.7313 146.787 58.6593 146.976 59.9633 150.136C62.8013 157.017 63.4623 162.364 62.0843 167.287C58.9133 178.609 49.2073 185.623 38.1013 184.616C29.1163 183.801 23.0173 179.639 18.8563 171.482C17.2623 168.357 16.9333 166.12 17.2403 160.469C17.6943 152.09 20.6543 146.761 27.0383 142.829C31.6433 139.993 32.5103 138.197 31.0833 134.445C30.5193 132.962 30.0583 129.738 30.0583 127.281C30.0583 113.269 44.1613 103.785 57.4713 108.845ZM93.0933 137.812C91.4783 140.83 91.8563 142.7 94.4233 144.382C97.9253 146.676 102.058 144.901 102.058 141.103C102.058 139.549 101.518 137.738 100.858 137.078C98.9573 135.177 94.2663 135.62 93.0933 137.812ZM24.9893 154.461C22.4823 157.482 23.2033 166.744 26.3673 172.142C28.6783 176.086 29.6343 176.878 32.0813 176.878C35.9393 176.878 37.0303 173.288 34.3933 169.272C33.2923 167.594 32.3583 163.858 32.0583 159.928C31.5893 153.78 31.3993 153.36 28.9723 153.077C27.4623 152.902 25.8053 153.478 24.9893 154.461ZM169.558 166.562C162.433 168.172 155.212 173.862 152.078 180.336C149.657 185.337 149.309 197.15 151.433 202.233C155.013 210.802 165.588 217.892 174.746 217.863C181.795 217.841 188.731 215.062 193.405 210.388C194.543 209.25 197.088 208.704 201.875 208.57C207.701 208.406 209.275 207.952 212.473 205.512C218.092 201.224 220.05 197.363 220.054 190.562C220.058 184.031 219.182 181.818 214.723 177.109C210.947 173.12 205.372 171.483 198.491 172.343C193.982 172.906 192.827 172.661 189.567 170.448C183.703 166.469 176.317 165.035 169.558 166.562ZM108.058 174.055C105.14 175.865 102.979 176.238 95.0583 176.302C84.5273 176.386 81.5433 177.459 75.7613 183.242C70.6033 188.4 68.6673 193.332 68.6443 201.378C68.6073 214.358 75.5223 223.219 88.3053 226.572C94.5913 228.22 95.1473 228.216 100.722 226.476C108.236 224.131 113.973 219.417 117.084 213.034C119.048 209.001 120.073 207.941 122.058 207.884C125.576 207.782 132.004 203.024 134.203 198.894C135.428 196.593 136.058 193.331 136.058 189.294C136.058 184.095 135.611 182.562 133.078 179.064C129.095 173.566 125.517 171.877 117.858 171.882C113.14 171.885 110.679 172.43 108.058 174.055ZM182.858 177.277C184.343 178.047 186.799 180.072 188.316 181.777C191.27 185.099 194.104 185.733 195.966 183.489C198.82 180.05 206.713 181.176 209.492 185.418C214.629 193.257 206.297 202.638 197.913 198.456C196.174 197.588 194.285 196.878 193.715 196.878C193.145 196.878 190.627 199.086 188.118 201.786C180.372 210.122 170.969 210.723 163.599 203.352C156.093 195.847 157.999 182.782 167.351 177.628C171.181 175.518 179.116 175.338 182.858 177.277ZM124.603 183.333C127.866 186.595 127.898 191.79 124.678 195.533C122.802 197.715 121.169 198.414 116.958 198.839L111.618 199.378L110.237 204.378C107.948 212.663 101.499 217.878 93.5403 217.878C86.7023 217.878 79.7923 212.209 78.3023 205.378C75.2773 191.508 88.4053 180.886 101.306 186.763C105.707 188.768 109.058 188.752 109.058 186.726C109.058 186.209 110.163 184.683 111.513 183.333C113.319 181.526 115.048 180.878 118.058 180.878C121.068 180.878 122.797 181.526 124.603 183.333ZM229.108 188.318C227.491 190.266 228.166 194.931 230.255 196.239C233.082 198.008 237.497 195.872 237.88 192.549C238.295 188.955 236.529 186.878 233.058 186.878C231.543 186.878 229.765 187.526 229.108 188.318ZM245.713 192.707C243.309 195.363 243.676 198.581 246.599 200.497C250.402 202.988 254.058 201.078 254.058 196.599C254.058 194.773 253.518 192.738 252.858 192.078C251.091 190.311 247.604 190.618 245.713 192.707Z" fill="#1C2A2D"/>
<path fill-rule="evenodd" clip-rule="evenodd" d="M47.5583 1.45047C41.1793 3.73347 38.8573 5.02747 33.8793 9.07447C31.3053 11.1665 28.1233 12.8785 26.8073 12.8785C20.1273 12.8785 7.80835 19.7395 4.97235 25.0395C3.24135 28.2735 4.54335 31.3535 7.71835 31.5355C9.62535 31.6445 11.8143 30.5025 14.8883 27.7975C19.6433 23.6115 24.1973 21.8925 30.5583 21.8845C33.8713 21.8795 35.0053 21.3185 37.1593 18.6185C38.5903 16.8255 42.1903 14.0155 45.1593 12.3755C49.7013 9.86547 51.6703 9.39047 57.5583 9.38547C63.5463 9.37947 65.3533 9.82747 70.0583 12.4805C76.4493 16.0855 81.5303 22.1875 83.1233 28.1695C84.8643 34.7095 85.4413 35.3405 90.1863 35.8995C101.69 37.2555 106.783 49.1205 99.2883 57.1055C94.2133 62.5125 86.0573 62.8495 81.5243 57.8405C79.1013 55.1635 77.3783 55.3565 70.5113 59.0755C63.2213 63.0235 54.1303 63.5655 47.2453 60.4625C43.0303 58.5625 42.9633 58.5635 39.2763 60.5805C34.0863 63.4205 29.8223 64.0215 23.8843 62.7475C17.2703 61.3295 11.0103 55.3535 8.99735 48.5375C6.38235 39.6815 0.0483456 38.7695 0.0683456 47.2505C0.0893456 56.1655 7.23935 65.6635 17.5583 70.4845C22.6063 72.8435 34.8563 72.8635 40.2233 70.5215C43.5003 69.0915 44.3993 69.0775 48.7233 70.3895C51.3823 71.1965 55.3093 71.8615 57.4503 71.8675C61.6833 71.8795 74.6483 68.3515 75.5123 66.9525C75.8063 66.4775 77.7193 66.9415 79.7643 67.9835C84.9643 70.6345 95.0333 70.5535 100.691 67.8145C108.375 64.0945 113.328 53.4635 111.62 44.3565C110.19 36.7335 104.197 30.2045 96.5053 27.8885C93.1003 26.8635 92.2423 25.9805 90.2583 21.4575C87.4323 15.0135 83.5253 10.1665 78.1543 6.44547C69.4803 0.433468 56.3773 -1.70453 47.5583 1.45047ZM192.558 2.75047C184.023 4.98147 176.745 10.8105 173.494 18.0195L171.651 22.1065L169.605 19.6245C168.479 18.2595 165.566 15.8455 163.131 14.2605C159.231 11.7215 157.794 11.3785 151.053 11.3785C144.278 11.3785 142.839 11.7255 138.496 14.4115C131.1 18.9835 127.846 24.5075 127.271 33.4645C126.874 39.6425 127.145 41.4405 129.022 45.0765C133.915 54.5535 139.908 58.2035 151.007 58.4645C157.609 58.6195 158.702 58.9255 160.617 61.1525C161.806 62.5345 164.703 64.9395 167.056 66.4955C170.798 68.9715 172.287 69.3295 178.946 69.3525C185.558 69.3755 187.182 69.0045 191.307 66.5335C193.919 64.9695 196.987 62.3815 198.125 60.7835C199.594 58.7205 201.035 57.8785 203.092 57.8785C206.131 57.8785 212.624 55.2615 214.879 53.1285C215.606 52.4415 216.565 51.8785 217.011 51.8785C218.539 51.8785 223.296 44.6985 225.177 39.5535C231.445 22.4045 219.551 3.81747 201.415 2.41847C198.194 2.16947 194.208 2.31947 192.558 2.75047ZM208.872 14.0875C217.28 19.2465 220.336 32.1245 215.035 40.0615C211.37 45.5505 205.646 48.8785 199.872 48.8785C195.383 48.8785 194.92 49.1305 192.392 52.9505C185.548 63.2915 173.156 63.2135 166.325 52.7865C162.856 47.4915 161.942 46.6665 160.189 47.2495C148.539 51.1205 143.846 50.3295 139.029 43.6795C130.045 31.2775 143.6 14.4195 156.989 21.3425C160.175 22.9905 164.61 27.8925 165.527 30.7805C166.434 33.6395 168.361 33.9315 173.702 32.0205C178.072 30.4575 178.698 29.8275 180.346 25.3365C184.933 12.8395 198.267 7.58047 208.872 14.0875ZM50.3863 20.8165C45.5163 23.0275 42.6023 26.8655 43.5423 29.8295C44.4263 32.6135 47.6183 32.4265 51.2403 29.3785C55.5113 25.7855 60.4263 25.9905 64.0923 29.9145C65.6523 31.5845 67.0703 33.9475 67.2433 35.1645C67.4653 36.7215 68.3543 37.4705 70.2413 37.6885C74.0203 38.1255 75.2453 35.4615 73.5423 30.5095C71.7893 25.4115 67.8413 21.4295 63.1423 20.0215C57.8853 18.4465 55.2433 18.6115 50.3863 20.8165ZM241.713 30.7075C238.406 34.3605 240.256 38.8785 245.058 38.8785C248.247 38.8785 250.058 37.2015 250.058 34.2495C250.058 29.5085 244.813 27.2815 241.713 30.7075ZM234.996 42.1605C229.725 46.2715 234.182 54.0235 240.02 50.8985C242.793 49.4145 242.863 43.3795 240.124 41.9135C237.688 40.6105 236.937 40.6465 234.996 42.1605ZM254.558 54.6895C246.863 57.5695 243.869 59.3835 239.946 63.5465C233.219 70.6825 230.058 78.5685 230.058 88.2175C230.058 96.0695 231.851 102.017 236.22 108.663C239.392 113.487 239.341 113.54 231.004 114.122C217.468 115.067 207.27 124.444 204.079 138.878C201.179 151.993 209.613 166.817 222.846 171.862C237.973 177.63 256.017 170.026 261.543 155.556C262.709 152.502 263.726 151.197 264.658 151.555C265.42 151.847 269.035 151.565 272.693 150.928C284.946 148.794 293.471 140.66 296.671 128.051C298.129 122.305 298.123 121.263 296.591 115.011C294.937 108.264 294.942 108.189 297.242 104.297C299.302 100.811 299.558 99.1075 299.558 88.8785C299.558 78.7905 299.266 76.7855 297.18 72.5495C293.912 65.9095 289.477 64.3835 287.344 69.1635C286.607 70.8145 286.96 72.6085 288.821 76.6725C293.336 86.5345 292.794 94.1725 286.922 103.431L284.055 107.952L286.057 111.875C288.701 117.06 288.729 125.643 286.117 130.763C281.623 139.572 272.114 144.158 262.799 142.008C256.691 140.598 256.137 140.997 254.321 148.128C252.652 154.678 248.76 159.689 243 162.701C239.368 164.6 237.464 164.942 232.558 164.577C225.246 164.032 220.332 161.324 216.422 155.682C213.878 152.011 213.558 150.692 213.558 143.878C213.558 137.055 213.876 135.748 216.437 132.053C218.319 129.337 221.175 126.989 224.687 125.271C229.593 122.871 230.709 122.704 237.557 123.346C243.419 123.895 245.135 123.757 245.421 122.713C245.622 121.979 246.235 119.578 246.784 117.378C247.334 115.178 248.099 112.64 248.486 111.737C248.953 110.645 248.165 108.931 246.131 106.614C238.801 98.2665 236.976 86.8915 241.432 77.3225C246.694 66.0215 260.408 59.5375 272.011 62.8645C278.564 64.7445 282.944 58.8155 277.593 55.3095C273.673 52.7415 260.697 52.3915 254.558 54.6895ZM251.359 76.5485C248.869 79.8095 248.558 81.0465 248.558 87.6785C248.558 93.6935 248.897 95.3555 250.308 96.2545C253.569 98.3305 255.547 95.8625 255.647 89.5905C255.7 86.2165 256.39 83.0205 257.397 81.4845C259.356 78.4945 259.527 75.7475 257.858 74.0785C255.873 72.0935 254.303 72.6905 251.359 76.5485ZM36.0583 77.8785C31.4903 82.4465 36.0743 87.7285 42.4763 85.2715C44.8363 84.3665 44.5773 78.2265 42.1243 76.9135C39.3763 75.4435 38.3273 75.6095 36.0583 77.8785ZM164.636 76.9415C162.479 77.4785 160.117 78.4145 159.387 79.0205C158.412 79.8295 157.198 79.7585 154.809 78.7505C152.785 77.8965 147.785 77.3785 141.558 77.3785C132.697 77.3785 130.927 77.6885 126.021 80.1005L120.484 82.8225L115.602 80.3505C109.845 77.4355 103.125 77.1185 97.4303 79.4925C87.5693 83.6045 83.0123 89.7905 82.2773 100.064C81.8553 105.952 82.1413 107.527 84.5033 112.356C87.5963 118.677 91.3013 121.805 98.8083 124.435C101.696 125.446 104.058 126.818 104.058 127.483C104.058 128.149 105.283 131.054 106.78 133.94C114.036 147.925 132.058 158.588 132.058 148.896C132.058 146.433 131.12 145.314 126.308 142.041C119.434 137.365 114.569 130.918 112.888 124.257C111.276 117.869 110.437 116.878 106.647 116.878C104.906 116.878 101.507 115.865 99.0943 114.628C85.3193 107.565 90.2163 87.3785 105.705 87.3785C110.016 87.3785 111.509 87.9065 114.897 90.6285C117.121 92.4155 119.395 93.8785 119.949 93.8785C120.504 93.8785 122.915 92.5575 125.306 90.9435C133.37 85.5015 146.004 84.3865 154.408 88.3745C157.933 90.0465 158.117 90.0285 163.229 87.4805C177.016 80.6105 193.018 87.8745 197.046 102.833C200.988 117.475 189.587 131.795 173.938 131.856C168.641 131.877 168.138 132.099 165.187 135.72C161.821 139.849 155.087 143.94 148.41 145.909C143.566 147.339 141.416 150.618 143.476 153.435C144.535 154.883 145.688 155.082 150.043 154.566C157.257 153.712 162.419 151 169.637 144.272C172.226 141.859 174.164 141.044 178.331 140.614C189 139.512 198.453 132.815 203.779 122.584C206.142 118.045 206.488 116.226 206.481 108.378C206.474 100.07 206.218 98.9175 203.159 93.3785C196.909 82.0615 188.443 76.7015 176.092 76.2435C171.948 76.0895 166.793 76.4035 164.636 76.9415ZM23.8083 83.9345C21.6793 85.2035 21.4843 90.1575 23.4983 91.8285C26.0343 93.9335 30.4083 92.7025 31.5013 89.5755C33.2333 84.6235 28.4893 81.1445 23.8083 83.9345ZM173.098 96.3305C171.294 98.5045 172.678 101.349 176.32 102.953C178.987 104.127 179.611 105.01 179.859 107.964C180.185 111.862 179.225 113.072 174.629 114.553C168.595 116.498 169.036 121.878 175.23 121.878C185.046 121.878 191.373 109.827 186.098 101.177C182.862 95.8695 175.697 93.1985 173.098 96.3305ZM40.9403 99.1985C27.9813 104.046 21.0583 113.762 21.0583 127.1C21.0583 134.514 21.0543 134.524 16.6303 139.141C9.98235 146.08 7.79735 151.653 7.71835 161.878C7.66335 168.908 8.06935 171.243 10.0683 175.378C13.5343 182.551 18.5443 187.53 25.7543 190.971C30.8733 193.415 33.3533 193.977 39.0823 193.996C48.5953 194.026 54.5793 191.84 61.2403 185.904C69.9813 178.113 73.9043 165.589 71.2293 154.017C70.2793 149.907 70.4163 149.384 73.6163 144.93C75.7323 141.985 77.5943 137.69 78.5593 133.53C79.9663 127.463 79.9613 126.291 78.5003 120.656C76.1133 111.444 70.8893 104.901 62.5583 100.69C57.4543 98.1105 45.9683 97.3175 40.9403 99.1985ZM58.5613 109.227C71.2563 115.139 74.1573 133.776 63.7363 142.474C59.0883 146.353 58.8513 147.229 61.0573 152.375C64.7553 161.003 63.2233 170.137 56.8643 177.361C51.8043 183.109 46.1993 185.247 37.6223 184.701C29.6403 184.193 24.1103 180.75 19.6263 173.497C17.1003 169.412 16.6463 167.663 16.6463 162.015C16.6463 153.612 19.5813 147.854 26.4003 142.884L31.2093 139.378L30.4573 134.878C29.1813 127.245 29.7993 121.995 32.5223 117.35C38.2063 107.65 48.3683 104.481 58.5613 109.227ZM93.0933 137.812C91.4783 140.83 91.8563 142.7 94.4233 144.382C97.9253 146.676 102.058 144.901 102.058 141.103C102.058 139.549 101.518 137.738 100.858 137.078C98.9573 135.177 94.2663 135.62 93.0933 137.812ZM25.2583 154.078C23.4953 155.841 23.7713 166.411 25.6793 170.178C29.0823 176.898 32.9293 178.857 35.0263 174.937C35.8373 173.423 35.4993 171.941 33.4893 168.187C31.4773 164.432 31.0453 162.532 31.5153 159.516C32.3893 153.91 28.6643 150.672 25.2583 154.078ZM169.558 166.562C162.433 168.172 155.212 173.862 152.078 180.336C149.657 185.337 149.309 197.15 151.433 202.233C155.013 210.802 165.588 217.892 174.746 217.863C181.795 217.841 188.731 215.062 193.405 210.388C194.543 209.25 197.088 208.704 201.875 208.57C207.701 208.406 209.275 207.952 212.473 205.512C218.092 201.224 220.05 197.363 220.054 190.562C220.058 184.031 219.182 181.818 214.723 177.109C210.947 173.12 205.372 171.483 198.491 172.343C193.982 172.906 192.827 172.661 189.567 170.448C183.703 166.469 176.317 165.035 169.558 166.562ZM108.058 174.055C105.14 175.865 102.979 176.238 95.0583 176.302C84.5273 176.386 81.5433 177.459 75.7613 183.242C70.6033 188.4 68.6673 193.332 68.6443 201.378C68.6073 214.358 75.5223 223.219 88.3053 226.572C94.5913 228.22 95.1473 228.216 100.722 226.476C108.236 224.131 113.973 219.417 117.084 213.034C119.048 209.001 120.073 207.941 122.058 207.884C125.576 207.782 132.004 203.024 134.203 198.894C135.428 196.593 136.058 193.331 136.058 189.294C136.058 184.095 135.611 182.562 133.078 179.064C129.095 173.566 125.517 171.877 117.858 171.882C113.14 171.885 110.679 172.43 108.058 174.055ZM180.014 175.865C181.907 176.408 185.398 178.758 187.771 181.087L192.085 185.321L196.42 182.953C203.899 178.868 211.058 182.541 211.058 190.463C211.058 193.997 210.53 195.145 207.876 197.377C205.328 199.522 204.034 199.937 201.376 199.466C199.551 199.143 196.568 198.614 194.747 198.291C191.78 197.764 191.182 198.078 188.997 201.305C186.206 205.428 179.921 208.878 175.202 208.878C171.107 208.878 164.862 205.716 162.152 202.271C155.263 193.512 158.265 181.414 168.479 176.774C173.162 174.648 175.206 174.487 180.014 175.865ZM122.078 181.388C125.704 183.264 127.058 185.702 127.058 190.358C127.058 195.617 123.486 198.878 117.726 198.878C112.759 198.878 111.907 199.63 110.234 205.493C107.847 213.851 102.321 217.878 93.2383 217.878C86.9803 217.878 82.3493 214.897 79.2433 208.87C73.5013 197.725 81.5243 184.866 94.2093 184.884C96.6013 184.888 99.8473 185.563 101.422 186.384C105.66 188.594 107.673 188.227 110.114 184.8C113.543 179.984 117.293 178.914 122.078 181.388ZM229.108 188.318C227.491 190.266 228.166 194.931 230.255 196.239C233.082 198.008 237.497 195.872 237.88 192.549C238.295 188.955 236.529 186.878 233.058 186.878C231.543 186.878 229.765 187.526 229.108 188.318ZM245.713 192.707C243.309 195.363 243.676 198.581 246.599 200.497C250.402 202.988 254.058 201.078 254.058 196.599C254.058 194.773 253.518 192.738 252.858 192.078C251.091 190.311 247.604 190.618 245.713 192.707Z" fill="black"/>
</svg>
