<svg width="300" height="238" viewBox="0 0 300 238" fill="none" xmlns="http://www.w3.org/2000/svg">
<path fill-rule="evenodd" clip-rule="evenodd" d="M223.136 0.916215C222.614 1.42321 220.611 2.23921 218.686 2.72921C215.985 3.41721 215.072 4.23821 214.686 6.32321C214.085 9.57221 208.938 12.9942 204.652 12.9942C202.822 12.9942 200.993 13.8162 199.926 15.1172C198.969 16.2842 197.491 17.9722 196.64 18.8672C195.79 19.7622 194.601 21.6482 193.996 23.0592C193.134 25.0722 191.691 25.9132 187.292 26.9692C184.209 27.7082 181.686 28.6092 181.686 28.9702C181.686 29.3302 179.886 30.6372 177.686 31.8742C175.486 33.1102 173.686 34.4582 173.686 34.8682C173.686 35.2792 172.392 36.9382 170.81 38.5562C166.786 42.6722 164.685 49.6162 164.692 58.7792C164.698 67.5432 166.01 73.3182 168.577 75.8852C169.546 76.8542 170.628 78.4002 170.981 79.3202C171.546 80.7932 170.728 80.9942 164.168 80.9942H156.713L155.181 77.3272C153.069 72.2722 147.517 67.1562 142.166 65.3332C138.524 64.0912 137.686 63.3562 137.686 61.4002C137.686 60.0772 137.236 58.9942 136.686 58.9942C136.136 58.9942 135.682 58.2072 135.676 57.2442C135.658 54.0172 130.98 45.5322 126.993 41.4942C120.955 35.3802 118.579 33.5932 113.686 31.4872C111.211 30.4212 108.922 29.1802 108.6 28.7282C106.867 26.2992 80.3235 26.4452 78.7195 28.8922C78.4265 29.3392 76.5285 30.2452 74.5025 30.9052C69.6955 32.4712 58.2395 43.0682 56.0935 47.9322C54.5865 51.3472 53.8415 51.8772 48.8655 53.0712C45.8145 53.8032 42.6255 55.2102 41.7795 56.1982C40.9345 57.1862 39.7175 57.9942 39.0755 57.9942C37.1255 57.9942 30.0415 66.8892 28.6615 71.0692C27.6455 74.1482 26.8625 74.9942 25.0265 74.9942C23.7395 74.9942 22.6865 75.4442 22.6865 75.9942C22.6865 76.5442 22.0605 76.9942 21.2955 76.9942C15.7105 76.9942 5.53147 85.5072 2.18647 92.9762C-0.79553 99.6342 -0.70853 117.817 2.33247 123.494C4.38947 127.335 10.9215 134.994 12.1395 134.994C12.4625 134.994 14.6295 136.231 16.9565 137.744C20.8555 140.279 21.9695 140.494 31.1865 140.494C39.7475 140.494 41.8955 140.145 46.1095 138.071C48.8175 136.738 51.7725 134.938 52.6785 134.071C58.5735 128.422 59.7255 128.237 63.8585 132.28C65.4365 133.823 69.9305 135.621 74.4365 136.511C76.7525 136.968 77.6865 137.705 77.6865 139.073C77.6865 140.13 78.5865 141.894 79.6865 142.994C80.7865 144.094 81.6865 145.36 81.6865 145.806C81.6865 147.201 93.5555 157.994 95.0885 157.994C95.8885 157.994 97.1505 158.601 97.8925 159.343C99.7555 161.206 105.051 162.735 112.318 163.51C118.673 164.187 118.976 164.064 122.111 159.533C123.282 157.84 124.543 157.593 131.327 157.729L139.186 157.887L145.782 151.16C152.44 144.37 156.686 136.308 156.686 130.456C156.686 129.102 157.136 127.994 157.686 127.994C158.236 127.994 158.686 126.194 158.686 123.994V119.994H163.186C166.353 119.994 168.279 119.401 169.686 117.994C174.271 113.409 170.588 109.251 161.485 108.736C158.021 108.54 162.06 108.293 170.461 108.187C185.572 107.996 185.745 107.968 186.645 105.601C187.903 102.294 186.915 99.2902 184.344 98.6002C183.157 98.2822 176.448 98.0152 169.436 98.0082C157.357 97.9952 156.686 97.8892 156.686 95.9942C156.686 94.8942 157.136 93.9942 157.686 93.9942C158.236 93.9942 158.686 93.3192 158.686 92.4942C158.686 91.1772 166.071 90.9942 219.149 90.9942C277.957 90.9942 279.756 90.9372 284.869 88.9222C291.09 86.4702 296.881 80.6232 298.525 75.1352C300.249 69.3832 299.967 58.2492 297.955 52.6372C296.684 49.0922 295.061 46.9522 291.95 44.7172C289.605 43.0332 287.686 41.3352 287.686 40.9432C287.686 40.5522 285.758 39.7462 283.401 39.1522C279.175 38.0882 279.098 37.9902 277.771 32.0082C276.231 25.0672 272.299 18.6232 265.741 12.2942C261.012 7.73021 250.46 1.99421 246.793 1.99421C245.634 1.99421 244.686 1.54421 244.686 0.994214C244.686 -0.280786 224.445 -0.353785 223.136 0.916215ZM155.365 29.9542C154.157 31.1772 153.652 32.9112 153.865 35.1142C154.133 37.8842 154.719 38.5832 157.416 39.3512C161.536 40.5262 163.698 38.8872 163.654 34.6222C163.593 28.5952 159.171 26.1052 155.365 29.9542ZM223.437 98.6832C219.65 99.6732 220.071 107.327 223.969 108.372C225.188 108.699 237.704 108.973 251.781 108.98C275.317 108.993 277.509 108.847 279.031 107.165C281.336 104.619 281.095 101.394 278.463 99.5512C276.582 98.2332 272.33 98.0122 250.713 98.1102C236.673 98.1742 224.399 98.4322 223.437 98.6832ZM209.936 129.6C209.249 129.908 208.686 130.798 208.686 131.577C208.686 133.559 200.327 133.492 198.329 131.494C196.282 129.447 192.853 129.612 187.922 131.994C185.645 133.094 183.345 133.994 182.811 133.994C182.277 133.994 180.568 135.258 179.013 136.802C177.458 138.346 175.392 139.91 174.421 140.276C173.45 140.643 172.247 142.018 171.748 143.332C171.248 144.646 170.176 145.976 169.366 146.286C168.556 146.597 167.128 148.588 166.191 150.71C164.713 154.06 163.865 154.716 159.74 155.696C154.176 157.017 143.686 163.417 143.686 165.49C143.686 166.278 142.791 167.402 141.698 167.988C140.604 168.573 139.444 170.11 139.12 171.403C138.609 173.438 137.722 173.845 132.516 174.434C129.208 174.808 125.077 175.794 123.335 176.624C120.066 178.183 112.686 187.19 112.686 189.621C112.686 190.695 110.478 190.994 102.546 190.994C91.4235 190.994 89.7825 191.784 89.7185 197.173C89.6615 201.99 91.8285 202.994 102.282 202.994C111.51 202.994 111.759 203.055 112.711 205.559C113.247 206.97 113.686 208.32 113.686 208.559C113.686 208.798 102.281 208.994 88.3415 208.994C65.0575 208.994 62.8615 209.143 61.3415 210.823C58.8015 213.63 59.2285 217.464 62.2335 218.833C64.1165 219.691 92.8965 219.994 172.552 219.994C290.905 219.994 287.051 220.185 293.513 214.009C297.924 209.793 299.686 204.899 299.686 196.861C299.686 184.566 294.3 177.482 282.964 174.868C278.822 173.913 276.552 173.929 271.996 174.949L266.25 176.235L263.718 173.231C262.267 171.509 258.945 169.437 255.936 168.376C252.561 167.186 250.686 165.953 250.686 164.924C250.686 161.427 246.561 151.051 243.952 147.986C237.079 139.912 232.83 136.263 226.738 133.203C220.506 130.072 212.641 128.385 209.936 129.6ZM70.4005 147.614C69.2435 148.77 69.5835 154.491 70.8865 155.794C72.5365 157.444 77.1855 157.303 78.6325 155.559C79.2875 154.77 79.6795 152.633 79.5045 150.809C79.2075 147.714 78.9185 147.474 75.1505 147.197C72.9305 147.034 70.7925 147.221 70.4005 147.614ZM142.436 227.077C140.072 229.666 140.232 232.866 142.839 235.127C145.724 237.629 159.694 237.843 162.115 235.423C164.019 233.518 164.109 229.136 162.294 226.744C160.279 224.089 144.929 224.347 142.436 227.077ZM172.222 226.954C170.107 229.291 170.806 235.442 173.295 236.397C175.537 237.258 212.976 237.104 214.286 236.229C216.238 234.926 217.698 231.19 216.988 229.316C215.413 225.157 214.542 224.994 193.912 224.994C175.401 224.994 173.871 225.132 172.222 226.954Z" fill="#A0ECFF"/>
<path fill-rule="evenodd" clip-rule="evenodd" d="M223.136 0.916215C222.614 1.42321 220.611 2.23621 218.686 2.72321C215.709 3.47721 215.139 4.08721 214.873 6.80221C214.7 8.55721 214.122 9.99421 213.587 9.99421C213.053 9.99421 211.433 10.7692 209.987 11.7162C208.542 12.6632 206.105 13.3072 204.573 13.1462C202.674 12.9472 201.213 13.5522 199.986 15.0472C198.996 16.2532 197.491 17.9722 196.64 18.8672C195.79 19.7622 194.601 21.6482 193.996 23.0592C193.134 25.0722 191.691 25.9132 187.292 26.9692C184.209 27.7082 181.686 28.6092 181.686 28.9702C181.686 29.3302 179.886 30.6372 177.686 31.8742C175.486 33.1102 173.686 34.4582 173.686 34.8682C173.686 35.2792 172.392 36.9382 170.81 38.5562C166.786 42.6722 164.685 49.6162 164.692 58.7792C164.698 67.5432 166.01 73.3182 168.577 75.8852C169.546 76.8542 170.628 78.4002 170.981 79.3202C171.546 80.7932 170.728 80.9942 164.168 80.9942H156.713L155.181 77.3272C153.069 72.2722 147.517 67.1562 142.166 65.3332C138.524 64.0912 137.686 63.3562 137.686 61.4002C137.686 60.0772 137.236 58.9942 136.686 58.9942C136.136 58.9942 135.682 58.2072 135.676 57.2442C135.658 54.0172 130.98 45.5322 126.993 41.4942C120.955 35.3802 118.579 33.5932 113.686 31.4872C111.211 30.4212 108.922 29.1802 108.6 28.7282C106.867 26.2992 80.3235 26.4452 78.7195 28.8922C78.4265 29.3392 76.5285 30.2452 74.5025 30.9052C69.6955 32.4712 58.2395 43.0682 56.0935 47.9322C54.5865 51.3472 53.8415 51.8772 48.8655 53.0712C45.8145 53.8032 42.6255 55.2102 41.7795 56.1982C40.9345 57.1862 39.7175 57.9942 39.0755 57.9942C37.1255 57.9942 30.0415 66.8892 28.6615 71.0692C27.6455 74.1482 26.8625 74.9942 25.0265 74.9942C23.7395 74.9942 22.6865 75.4442 22.6865 75.9942C22.6865 76.5442 22.0605 76.9942 21.2955 76.9942C15.7105 76.9942 5.53147 85.5072 2.18647 92.9762C-0.79553 99.6342 -0.70853 117.817 2.33247 123.494C4.38947 127.335 10.9215 134.994 12.1395 134.994C12.4625 134.994 14.6295 136.231 16.9565 137.744C20.8555 140.279 21.9695 140.494 31.1865 140.494C39.7475 140.494 41.8955 140.145 46.1095 138.071C48.8175 136.738 51.7725 134.938 52.6785 134.071C58.5735 128.422 59.7255 128.237 63.8585 132.28C65.4365 133.823 69.9305 135.621 74.4365 136.511C76.7525 136.968 77.6865 137.705 77.6865 139.073C77.6865 140.13 78.5865 141.894 79.6865 142.994C80.7865 144.094 81.6865 145.36 81.6865 145.806C81.6865 147.201 93.5555 157.994 95.0885 157.994C95.8885 157.994 97.1505 158.601 97.8925 159.343C99.7555 161.206 105.051 162.735 112.318 163.51C118.673 164.187 118.976 164.064 122.111 159.533C123.282 157.84 124.543 157.593 131.327 157.729L139.186 157.887L145.782 151.16C152.44 144.37 156.686 136.308 156.686 130.456C156.686 129.102 157.136 127.994 157.686 127.994C158.236 127.994 158.686 126.194 158.686 123.994V119.994H163.186C166.353 119.994 168.279 119.401 169.686 117.994C174.271 113.409 170.588 109.251 161.485 108.736C158.021 108.54 162.06 108.293 170.461 108.187C185.572 107.996 185.745 107.968 186.645 105.601C187.903 102.294 186.915 99.2902 184.344 98.6002C183.157 98.2822 176.448 98.0152 169.436 98.0082C157.357 97.9952 156.686 97.8892 156.686 95.9942C156.686 94.8942 157.136 93.9942 157.686 93.9942C158.236 93.9942 158.686 93.3192 158.686 92.4942C158.686 91.1772 166.071 90.9942 219.149 90.9942C277.957 90.9942 279.756 90.9372 284.869 88.9222C291.09 86.4702 296.881 80.6232 298.525 75.1352C300.249 69.3832 299.967 58.2492 297.955 52.6372C296.684 49.0922 295.061 46.9522 291.95 44.7172C289.605 43.0332 287.686 41.3352 287.686 40.9432C287.686 40.5522 285.758 39.7462 283.401 39.1522C279.175 38.0882 279.098 37.9902 277.771 32.0082C276.231 25.0672 272.299 18.6232 265.741 12.2942C261.012 7.73021 250.46 1.99421 246.793 1.99421C245.634 1.99421 244.686 1.54421 244.686 0.994214C244.686 -0.280786 224.445 -0.353785 223.136 0.916215ZM229.9 20.3002C241.288 25.5492 250.443 36.8342 252.757 48.4752C253.848 53.9652 254.379 54.9972 256.119 55.0162C259.698 55.0542 266.083 58.5432 269.319 62.2292C272.751 66.1382 275.279 74.4962 274.258 78.5622L273.622 81.0952L231.904 80.7952C185.387 80.4592 186.887 80.6782 180.339 73.2802C168.157 59.5172 176.468 38.9052 195.236 36.3322C199.332 35.7712 199.999 35.2932 201.853 31.6012C202.987 29.3422 204.988 26.0622 206.3 24.3112C207.612 22.5602 208.686 20.1402 208.686 18.9322C208.686 16.8212 208.982 16.7552 216.436 17.2022C221.949 17.5332 225.835 18.4272 229.9 20.3002ZM155.365 29.9542C154.157 31.1772 153.652 32.9112 153.865 35.1142C154.133 37.8842 154.719 38.5832 157.416 39.3512C161.536 40.5262 163.698 38.8872 163.654 34.6222C163.593 28.5952 159.171 26.1052 155.365 29.9542ZM83.4665 43.9802C88.7485 46.3782 97.7405 55.2192 100.602 60.8292C101.776 63.1312 103.321 67.5842 104.034 70.7242C105.273 76.1812 105.497 76.4692 109.068 77.2112C111.124 77.6382 113.703 78.4682 114.799 79.0552C116.74 80.0932 116.725 80.1762 114.24 82.1302C109.021 86.2352 111.983 90.9942 119.757 90.9942H124.686V96.5052C124.686 99.9782 123.927 103.631 122.634 106.382L120.582 110.747L122.634 116.839C126.291 127.695 124.947 140.468 119.24 149.091C117.001 152.476 116.162 152.993 112.922 152.984C103.827 152.96 90.6425 142.863 87.0875 133.201C86.1355 130.612 85.0455 128.132 84.6655 127.688C84.2865 127.245 81.1455 126.483 77.6855 125.994C72.5885 125.273 70.7455 124.478 67.9645 121.799C66.0765 119.981 63.7945 117.256 62.8935 115.743C59.4845 110.021 56.2175 110.975 51.1605 119.167C48.1405 124.061 46.4655 125.654 42.3105 127.589C34.8495 131.064 31.5455 131.44 25.6545 129.483C15.5715 126.134 9.73047 118.251 9.73047 107.994C9.73047 98.5432 15.8445 89.0232 22.9255 87.4492C24.4315 87.1142 25.9205 86.4252 26.2345 85.9172C26.5475 85.4092 28.2405 84.9802 29.9955 84.9622C33.5395 84.9272 36.6815 83.0152 36.6965 80.8842C36.7015 80.1192 37.7665 77.2172 39.0625 74.4342C41.8985 68.3432 48.6975 63.5202 55.9385 62.4612C60.4975 61.7952 60.8185 61.5272 63.8285 55.8782C67.2435 49.4722 74.5845 41.9812 77.4145 42.0162C78.3885 42.0282 81.1125 42.9122 83.4665 43.9802ZM223.437 98.6832C219.65 99.6732 220.071 107.327 223.969 108.372C225.188 108.699 237.704 108.973 251.781 108.98C275.317 108.993 277.509 108.847 279.031 107.165C281.336 104.619 281.095 101.394 278.463 99.5512C276.582 98.2332 272.33 98.0122 250.713 98.1102C236.673 98.1742 224.399 98.4322 223.437 98.6832ZM209.936 129.6C209.249 129.908 208.686 130.798 208.686 131.577C208.686 133.559 200.327 133.492 198.329 131.494C196.282 129.447 192.853 129.612 187.922 131.994C185.645 133.094 183.345 133.994 182.811 133.994C182.277 133.994 180.568 135.258 179.013 136.802C177.458 138.346 175.392 139.91 174.421 140.276C173.45 140.643 172.247 142.018 171.748 143.332C171.248 144.646 170.176 145.976 169.366 146.286C168.556 146.597 167.128 148.588 166.191 150.71C164.713 154.06 163.865 154.716 159.74 155.696C154.176 157.017 143.686 163.417 143.686 165.49C143.686 166.278 142.791 167.402 141.698 167.988C140.604 168.573 139.444 170.11 139.12 171.403C138.609 173.438 137.722 173.845 132.516 174.434C129.208 174.808 125.077 175.794 123.335 176.624C120.066 178.183 112.686 187.19 112.686 189.621C112.686 190.695 110.478 190.994 102.546 190.994C91.4235 190.994 89.7825 191.784 89.7185 197.173C89.6615 201.99 91.8285 202.994 102.282 202.994C111.51 202.994 111.759 203.055 112.711 205.559C113.247 206.97 113.686 208.32 113.686 208.559C113.686 208.798 102.281 208.994 88.3415 208.994C65.0575 208.994 62.8615 209.143 61.3415 210.823C58.8015 213.63 59.2285 217.464 62.2335 218.833C64.1165 219.691 92.8965 219.994 172.552 219.994C290.905 219.994 287.051 220.185 293.513 214.009C297.924 209.793 299.686 204.899 299.686 196.861C299.686 184.566 294.3 177.482 282.964 174.868C278.822 173.913 276.552 173.929 271.996 174.949L266.25 176.235L263.718 173.231C262.267 171.509 258.945 169.437 255.936 168.376C252.561 167.186 250.686 165.953 250.686 164.924C250.686 161.427 246.561 151.051 243.952 147.986C237.079 139.912 232.83 136.263 226.738 133.203C220.506 130.072 212.641 128.385 209.936 129.6ZM70.4005 147.614C69.2435 148.77 69.5835 154.491 70.8865 155.794C72.5365 157.444 77.1855 157.303 78.6325 155.559C79.2875 154.77 79.6795 152.633 79.5045 150.809C79.2075 147.714 78.9185 147.474 75.1505 147.197C72.9305 147.034 70.7925 147.221 70.4005 147.614ZM203.43 149.414C219.187 153.609 229.522 163.902 233.284 179.15C234.851 185.498 234.97 185.655 239.035 186.743C243.917 188.049 250.021 192.46 251.836 195.994C252.542 197.369 253.221 198.656 253.345 198.853C253.469 199.051 255.059 198.151 256.878 196.853C261.901 193.271 271.018 193.484 276.023 197.302C279.703 200.109 284.154 207.193 282.976 208.37C282.633 208.713 247.996 208.994 206.005 208.994H129.657L125.921 205.571C122.565 202.495 122.186 201.642 122.186 197.165C122.186 192.7 122.585 191.794 126.026 188.453C129.863 184.726 129.87 184.724 136.526 185.334C140.189 185.67 143.802 185.558 144.555 185.087C145.308 184.615 146.883 181.831 148.055 178.9C150.528 172.716 157.898 166.37 163.686 165.441C171.449 164.194 171.611 164.085 174.658 158.049C178.079 151.272 178.365 151.036 185.15 149.388C191.944 147.737 197.16 147.744 203.43 149.414ZM142.436 227.077C140.072 229.666 140.232 232.866 142.839 235.127C145.724 237.629 159.694 237.843 162.115 235.423C164.019 233.518 164.109 229.136 162.294 226.744C160.279 224.089 144.929 224.347 142.436 227.077ZM172.222 226.954C170.107 229.291 170.806 235.442 173.295 236.397C175.537 237.258 212.976 237.104 214.286 236.229C216.238 234.926 217.698 231.19 216.988 229.316C215.413 225.157 214.542 224.994 193.912 224.994C175.401 224.994 173.871 225.132 172.222 226.954Z" fill="#60DAFF"/>
<path fill-rule="evenodd" clip-rule="evenodd" d="M223.136 0.916215C222.614 1.42321 220.611 2.23621 218.686 2.72321C215.774 3.46121 215.136 4.11222 214.887 6.60322C214.684 8.64222 215.256 10.2002 216.682 11.4912C218.603 13.2292 219.162 13.2732 223.481 12.0232C231.881 9.59321 236.564 9.60721 244.628 12.0862C251.359 14.1562 252.909 15.1362 258.789 21.0452C265.364 27.6532 268.686 33.9222 268.686 39.7222C268.686 41.0262 269.345 43.3672 270.15 44.9252C271.318 47.1842 272.53 47.8942 276.145 48.4362C284.238 49.6492 289.686 56.1362 289.686 64.5582C289.686 70.2612 286.713 75.9382 282.342 78.5842C279.362 80.3872 276.726 80.4942 235.154 80.4942C185.477 80.4942 185.878 80.5492 179.675 72.8302C168.59 59.0372 176.615 39.2682 194.456 36.4152C199.693 35.5772 200.007 35.3202 202.977 29.4312C204.381 26.6472 206.24 23.7792 207.108 23.0592C208.914 21.5602 209.168 17.7622 207.651 14.9282C206.271 12.3502 202.112 12.4512 199.926 15.1172C198.969 16.2842 197.491 17.9722 196.64 18.8672C195.79 19.7622 194.601 21.6482 193.996 23.0592C193.134 25.0722 191.691 25.9132 187.292 26.9692C184.209 27.7082 181.686 28.6092 181.686 28.9702C181.686 29.3302 179.886 30.6372 177.686 31.8742C175.486 33.1102 173.686 34.4582 173.686 34.8682C173.686 35.2792 172.392 36.9382 170.81 38.5562C166.786 42.6722 164.685 49.6162 164.692 58.7792C164.698 67.5432 166.01 73.3182 168.577 75.8852C169.546 76.8542 170.628 78.4002 170.981 79.3202C171.546 80.7932 170.728 80.9942 164.168 80.9942H156.713L155.181 77.3272C153.069 72.2722 147.517 67.1562 142.166 65.3332C138.524 64.0912 137.686 63.3562 137.686 61.4002C137.686 60.0772 137.236 58.9942 136.686 58.9942C136.136 58.9942 135.682 58.2072 135.676 57.2442C135.658 54.0172 130.98 45.5322 126.993 41.4942C120.955 35.3802 118.579 33.5932 113.686 31.4872C111.211 30.4212 108.922 29.1802 108.6 28.7282C106.867 26.2992 80.3235 26.4452 78.7195 28.8922C78.4265 29.3392 76.5285 30.2452 74.5025 30.9052C69.6955 32.4712 58.2395 43.0682 56.0935 47.9322C54.5865 51.3472 53.8415 51.8772 48.8655 53.0712C45.8145 53.8032 42.6255 55.2102 41.7795 56.1982C40.9345 57.1862 39.7175 57.9942 39.0755 57.9942C37.1255 57.9942 30.0415 66.8892 28.6615 71.0692C27.6455 74.1482 26.8625 74.9942 25.0265 74.9942C23.7395 74.9942 22.6865 75.4442 22.6865 75.9942C22.6865 76.5442 22.0605 76.9942 21.2955 76.9942C15.7105 76.9942 5.53147 85.5072 2.18647 92.9762C-0.79553 99.6342 -0.70853 117.817 2.33247 123.494C4.38947 127.335 10.9215 134.994 12.1395 134.994C12.4625 134.994 14.6295 136.231 16.9565 137.744C20.8555 140.279 21.9695 140.494 31.1865 140.494C39.7475 140.494 41.8955 140.145 46.1095 138.071C48.8175 136.738 51.7725 134.938 52.6785 134.071C58.5735 128.422 59.7255 128.237 63.8585 132.28C65.4365 133.823 69.9305 135.621 74.4365 136.511C76.7525 136.968 77.6865 137.705 77.6865 139.073C77.6865 140.13 78.5865 141.894 79.6865 142.994C80.7865 144.094 81.6865 145.36 81.6865 145.806C81.6865 147.201 93.5555 157.994 95.0885 157.994C95.8885 157.994 97.1505 158.601 97.8925 159.343C99.7535 161.203 105.049 162.735 112.284 163.506C119.511 164.275 122.285 162.594 121.204 158.1C120.331 154.473 118 152.994 113.155 152.994C108.304 152.994 97.9945 148.215 94.4935 144.343C93.2245 142.94 91.4595 140.997 90.5705 140.026C89.6815 139.056 88.1605 136.183 87.1895 133.642C84.9455 127.764 84.1075 127.12 77.2595 126.006C70.8915 124.969 68.0615 123.082 63.0685 116.543C58.1135 110.053 56.5375 110.477 50.6695 119.876C47.9115 124.293 46.2225 125.771 41.2475 128.125C33.8935 131.604 29.7535 131.715 23.1865 128.611C11.8085 123.232 7.12647 112.27 10.8695 99.7772C12.9915 92.6942 23.1295 85.0502 30.5195 84.9622C34.2295 84.9182 36.2955 83.0612 37.1755 78.9802C39.0365 70.3512 45.3515 64.4932 54.6585 62.7622C60.4935 61.6772 60.6325 61.5732 63.5715 56.0772C65.2145 53.0062 68.2745 48.8302 70.3725 46.7962C78.1625 39.2442 92.3945 35.1872 101.33 37.9702C114.455 42.0582 122.382 49.6302 125.702 61.2512C128.724 71.8302 129.693 73.3772 133.718 74.0532C138.157 74.8002 143.275 77.4802 144.033 79.4572C144.548 80.7972 142.725 80.9942 129.81 80.9942C116.728 80.9942 114.802 81.2082 113.341 82.8232C111.19 85.2002 111.246 87.2852 113.515 89.3392C115.053 90.7312 117.836 90.9942 131.015 90.9942C148.718 90.9942 148.411 90.8222 144.54 98.5712L142.395 102.867L144.728 109.106C149.523 121.929 147.04 134.84 138.067 143.742C135.155 146.631 132.339 148.994 131.809 148.994C130.225 148.994 129.371 154.91 130.72 156.535C131.386 157.337 133.546 157.994 135.52 157.994C138.634 157.994 139.988 157.096 145.744 151.214C152.439 144.371 156.686 136.314 156.686 130.456C156.686 129.102 157.136 127.994 157.686 127.994C158.236 127.994 158.686 126.194 158.686 123.994V119.994H163.186C166.353 119.994 168.279 119.401 169.686 117.994C174.271 113.409 170.588 109.251 161.485 108.736C158.021 108.54 162.06 108.293 170.461 108.187C185.572 107.996 185.745 107.968 186.645 105.601C187.903 102.294 186.915 99.2902 184.344 98.6002C183.157 98.2822 176.448 98.0152 169.436 98.0082C157.357 97.9952 156.686 97.8892 156.686 95.9942C156.686 94.8942 157.136 93.9942 157.686 93.9942C158.236 93.9942 158.686 93.3192 158.686 92.4942C158.686 91.1772 166.071 90.9942 219.149 90.9942C277.957 90.9942 279.756 90.9372 284.869 88.9222C291.09 86.4702 296.881 80.6232 298.525 75.1352C300.249 69.3832 299.967 58.2492 297.955 52.6372C296.684 49.0922 295.061 46.9522 291.95 44.7172C289.605 43.0332 287.686 41.3352 287.686 40.9432C287.686 40.5522 285.758 39.7462 283.401 39.1522C279.175 38.0882 279.098 37.9902 277.771 32.0082C276.231 25.0672 272.299 18.6232 265.741 12.2942C261.012 7.73021 250.46 1.99421 246.793 1.99421C245.634 1.99421 244.686 1.54421 244.686 0.994214C244.686 -0.280786 224.445 -0.353785 223.136 0.916215ZM155.365 29.9542C154.157 31.1772 153.652 32.9112 153.865 35.1142C154.133 37.8842 154.719 38.5832 157.416 39.3512C161.536 40.5262 163.698 38.8872 163.654 34.6222C163.593 28.5952 159.171 26.1052 155.365 29.9542ZM223.437 98.6832C219.65 99.6732 220.071 107.327 223.969 108.372C225.188 108.699 237.704 108.973 251.781 108.98C275.317 108.993 277.509 108.847 279.031 107.165C281.336 104.619 281.095 101.394 278.463 99.5512C276.582 98.2332 272.33 98.0122 250.713 98.1102C236.673 98.1742 224.399 98.4322 223.437 98.6832ZM209.936 129.6C209.249 129.908 208.686 131.643 208.686 133.455C208.686 137.417 209.379 138.007 217.529 140.988C230.487 145.727 240.657 158.577 240.68 170.244C240.688 173.808 243.924 176.994 247.538 176.994C251.375 176.994 256.528 180.628 259.981 185.77C263.294 190.703 265.581 191.101 269.868 187.494C273.397 184.525 280.883 184.043 284.469 186.555C289.363 189.983 291.055 197.447 288.192 202.983C284.9 209.348 289.748 208.994 205.949 208.994H129.657L125.921 205.571C122.534 202.466 122.186 201.668 122.186 196.994C122.186 192.285 122.521 191.533 126.068 188.283C129.9 184.771 130.035 184.733 136.717 185.293C144.649 185.958 145.675 185.381 148.044 178.914C148.966 176.395 150.951 173.179 152.454 171.766C156.214 168.233 162.615 164.994 165.839 164.994C170.349 164.994 171.673 163.961 174.647 158.118C178.159 151.22 183.577 145.867 190.186 142.765C197.911 139.139 199.686 137.722 199.686 135.182C199.686 129.931 194.886 128.63 187.922 131.994C185.645 133.094 183.345 133.994 182.811 133.994C182.277 133.994 180.568 135.258 179.013 136.802C177.458 138.346 175.392 139.91 174.421 140.276C173.45 140.643 172.247 142.018 171.748 143.332C171.248 144.646 170.176 145.976 169.366 146.286C168.556 146.597 167.128 148.588 166.191 150.71C164.713 154.06 163.865 154.716 159.74 155.696C154.176 157.017 143.686 163.417 143.686 165.49C143.686 166.278 142.791 167.402 141.698 167.988C140.604 168.573 139.444 170.11 139.12 171.403C138.609 173.438 137.722 173.845 132.516 174.434C129.208 174.808 125.077 175.794 123.335 176.624C120.066 178.183 112.686 187.19 112.686 189.621C112.686 190.695 110.478 190.994 102.546 190.994C91.4235 190.994 89.7825 191.784 89.7185 197.173C89.6615 201.99 91.8285 202.994 102.282 202.994C111.51 202.994 111.759 203.055 112.711 205.559C113.247 206.97 113.686 208.32 113.686 208.559C113.686 208.798 102.281 208.994 88.3415 208.994C65.0575 208.994 62.8615 209.143 61.3415 210.823C58.8015 213.63 59.2285 217.464 62.2335 218.833C64.1165 219.691 92.8965 219.994 172.552 219.994C290.905 219.994 287.051 220.185 293.513 214.009C297.924 209.793 299.686 204.899 299.686 196.861C299.686 184.566 294.3 177.482 282.964 174.868C278.822 173.913 276.552 173.929 271.996 174.949L266.25 176.235L263.718 173.231C262.267 171.509 258.945 169.437 255.936 168.376C252.561 167.186 250.686 165.953 250.686 164.924C250.686 161.427 246.561 151.051 243.952 147.986C237.079 139.912 232.83 136.263 226.738 133.203C220.506 130.072 212.641 128.385 209.936 129.6ZM70.4005 147.614C69.2435 148.77 69.5835 154.491 70.8865 155.794C72.5365 157.444 77.1855 157.303 78.6325 155.559C79.2875 154.77 79.6795 152.633 79.5045 150.809C79.2075 147.714 78.9185 147.474 75.1505 147.197C72.9305 147.034 70.7925 147.221 70.4005 147.614ZM142.436 227.077C140.072 229.666 140.232 232.866 142.839 235.127C145.724 237.629 159.694 237.843 162.115 235.423C164.019 233.518 164.109 229.136 162.294 226.744C160.279 224.089 144.929 224.347 142.436 227.077ZM172.222 226.954C170.107 229.291 170.806 235.442 173.295 236.397C175.537 237.258 212.976 237.104 214.286 236.229C216.238 234.926 217.698 231.19 216.988 229.316C215.413 225.157 214.542 224.994 193.912 224.994C175.401 224.994 173.871 225.132 172.222 226.954Z" fill="#78B2BF"/>
<path fill-rule="evenodd" clip-rule="evenodd" d="M223.136 0.916215C222.614 1.42321 220.611 2.23621 218.686 2.72321C215.728 3.47221 215.138 4.09421 214.877 6.74021C214.635 9.19321 215.127 10.2372 217.147 11.5612C219.545 13.1322 220.026 13.1362 223.99 11.6222C230.496 9.13721 238.949 9.52822 246.995 12.6852C259.16 17.4582 267.16 27.6002 269.296 40.9582C270.038 45.5962 271.903 47.4772 276.65 48.3752C284.394 49.8392 290.255 57.0852 290.049 64.9412C289.894 70.8532 286.204 76.8562 281.377 79.0472C277.465 80.8232 274.319 80.9502 234.186 80.9502C194.439 80.9502 190.883 80.8102 187.186 79.0982C176.176 74.0012 171.29 59.6412 176.736 48.3902C179.925 41.8022 188.811 35.9942 195.7 35.9942C198.122 35.9942 199.142 35.3252 200.483 32.8572C201.419 31.1322 203.649 27.4872 205.436 24.7572C208.928 19.4232 209.262 17.9402 207.651 14.9282C206.271 12.3502 202.112 12.4512 199.926 15.1172C198.969 16.2842 197.491 17.9722 196.64 18.8672C195.79 19.7622 194.601 21.6482 193.996 23.0592C193.134 25.0722 191.691 25.9132 187.292 26.9692C184.209 27.7082 181.686 28.6092 181.686 28.9702C181.686 29.3302 179.886 30.6372 177.686 31.8742C175.486 33.1102 173.686 34.4582 173.686 34.8682C173.686 35.2792 172.392 36.9382 170.81 38.5562C166.786 42.6722 164.685 49.6162 164.692 58.7792C164.698 67.5432 166.01 73.3182 168.577 75.8852C169.546 76.8542 170.628 78.4002 170.981 79.3202C171.546 80.7932 170.728 80.9942 164.168 80.9942H156.713L155.181 77.3272C153.069 72.2722 147.517 67.1562 142.166 65.3332C138.524 64.0912 137.686 63.3562 137.686 61.4002C137.686 60.0772 137.236 58.9942 136.686 58.9942C136.136 58.9942 135.682 58.2072 135.676 57.2442C135.658 54.0172 130.98 45.5322 126.993 41.4942C120.955 35.3802 118.579 33.5932 113.686 31.4872C111.211 30.4212 108.922 29.1802 108.6 28.7282C106.867 26.2992 80.3235 26.4452 78.7195 28.8922C78.4265 29.3392 76.5285 30.2452 74.5025 30.9052C69.6955 32.4712 58.2395 43.0682 56.0935 47.9322C54.5865 51.3472 53.8415 51.8772 48.8655 53.0712C45.8145 53.8032 42.6255 55.2102 41.7795 56.1982C40.9345 57.1862 39.7175 57.9942 39.0755 57.9942C37.1255 57.9942 30.0415 66.8892 28.6615 71.0692C27.6455 74.1482 26.8625 74.9942 25.0265 74.9942C23.7395 74.9942 22.6865 75.4442 22.6865 75.9942C22.6865 76.5442 22.0605 76.9942 21.2955 76.9942C15.7105 76.9942 5.53147 85.5072 2.18647 92.9762C-0.79553 99.6342 -0.70853 117.817 2.33247 123.494C4.38947 127.335 10.9215 134.994 12.1395 134.994C12.4625 134.994 14.6295 136.231 16.9565 137.744C20.8555 140.279 21.9695 140.494 31.1865 140.494C39.7475 140.494 41.8955 140.145 46.1095 138.071C48.8175 136.738 51.7725 134.938 52.6785 134.071C58.5735 128.422 59.7255 128.237 63.8585 132.28C65.4365 133.823 69.9305 135.621 74.4365 136.511C76.7525 136.968 77.6865 137.705 77.6865 139.073C77.6865 140.13 78.5865 141.894 79.6865 142.994C80.7865 144.094 81.6865 145.36 81.6865 145.806C81.6865 147.201 93.5555 157.994 95.0885 157.994C95.8885 157.994 97.1505 158.601 97.8925 159.343C99.7535 161.203 105.049 162.735 112.284 163.506C119.521 164.276 122.296 162.591 121.188 158.1C120.25 154.302 119.579 153.911 112.502 153.033C108.971 152.595 104.162 151.257 101.813 150.059C95.9595 147.072 89.2665 139.822 87.1585 134.182C84.8535 128.016 83.9525 126.995 80.8145 126.988C73.5385 126.973 65.2465 121.853 61.7925 115.244C60.2695 112.33 55.1075 112.091 54.2185 114.893C53.0505 118.572 47.6475 124.994 43.4415 127.701C39.8445 130.017 38.0935 130.444 32.1125 130.467C25.9595 130.491 24.4015 130.1 20.1395 127.468C17.0975 125.589 14.0915 122.584 12.2125 119.546C9.63047 115.368 9.19147 113.686 9.22347 108.072C9.26347 100.952 11.4965 95.3112 15.8395 91.3572C19.3575 88.1542 26.2135 84.9942 29.6465 84.9942C32.8975 84.9942 36.6865 82.0122 36.6865 79.4542C36.6865 76.6662 40.5065 70.3592 44.1145 67.1912C47.4175 64.2912 51.7435 62.5712 57.6425 61.8112C59.2815 61.5992 60.7345 60.2842 62.0095 57.8572C68.9815 44.5822 79.0705 37.8172 92.8825 37.1562C99.8715 36.8212 101.227 37.0862 107.648 40.0462C111.93 42.0202 116.204 44.9192 118.487 47.3992C122.413 51.6652 127.121 61.7982 128.165 68.2322C128.821 72.2712 130.191 73.3712 135.835 74.3892C139.527 75.0542 144.686 78.3642 144.686 80.0672C144.686 80.5932 138.502 80.9942 130.375 80.9942C117.354 80.9942 115.866 81.1782 113.875 83.0332C111.174 85.5492 111.146 86.4542 113.686 88.9942C115.519 90.8272 117.019 90.9942 131.686 90.9942C140.486 90.9942 147.686 91.3252 147.686 91.7302C147.686 92.1342 146.495 94.8202 145.039 97.6972L142.392 102.928L144.625 108.211C145.853 111.117 147.099 116.001 147.394 119.066C148.397 129.464 142.783 142.017 134.755 147.33C130.349 150.246 129.062 152.96 130.666 155.956C131.46 157.439 132.757 157.994 135.433 157.994C138.655 157.994 139.931 157.155 145.744 151.214C152.439 144.371 156.686 136.314 156.686 130.456C156.686 129.102 157.136 127.994 157.686 127.994C158.236 127.994 158.686 126.194 158.686 123.994V119.994H163.186C166.353 119.994 168.279 119.401 169.686 117.994C174.271 113.409 170.588 109.251 161.485 108.736C158.021 108.54 162.06 108.293 170.461 108.187C185.572 107.996 185.745 107.968 186.645 105.601C187.903 102.294 186.915 99.2902 184.344 98.6002C183.157 98.2822 176.448 98.0152 169.436 98.0082C157.357 97.9952 156.686 97.8892 156.686 95.9942C156.686 94.8942 157.136 93.9942 157.686 93.9942C158.236 93.9942 158.686 93.3192 158.686 92.4942C158.686 91.1772 166.071 90.9942 219.149 90.9942C277.957 90.9942 279.756 90.9372 284.869 88.9222C291.09 86.4702 296.881 80.6232 298.525 75.1352C300.249 69.3832 299.967 58.2492 297.955 52.6372C296.684 49.0922 295.061 46.9522 291.95 44.7172C289.605 43.0332 287.686 41.3352 287.686 40.9432C287.686 40.5522 285.758 39.7462 283.401 39.1522C279.175 38.0882 279.098 37.9902 277.771 32.0082C276.231 25.0672 272.299 18.6232 265.741 12.2942C261.012 7.73021 250.46 1.99421 246.793 1.99421C245.634 1.99421 244.686 1.54421 244.686 0.994214C244.686 -0.280786 224.445 -0.353785 223.136 0.916215ZM155.365 29.9542C154.157 31.1772 153.652 32.9112 153.865 35.1142C154.133 37.8842 154.719 38.5832 157.416 39.3512C161.536 40.5262 163.698 38.8872 163.654 34.6222C163.593 28.5952 159.171 26.1052 155.365 29.9542ZM223.437 98.6832C219.65 99.6732 220.071 107.327 223.969 108.372C225.188 108.699 237.704 108.973 251.781 108.98C275.317 108.993 277.509 108.847 279.031 107.165C281.336 104.619 281.095 101.394 278.463 99.5512C276.582 98.2332 272.33 98.0122 250.713 98.1102C236.673 98.1742 224.399 98.4322 223.437 98.6832ZM209.936 129.6C208.577 130.209 208.265 134.785 209.455 136.654C209.861 137.293 212.552 138.711 215.435 139.806C223.581 142.902 229.233 146.605 233.199 151.444C237.265 156.407 240.686 164.451 240.686 169.05C240.686 173.107 244.254 176.509 249.367 177.327C253.51 177.989 256.77 180.556 261.512 186.888C264.326 190.645 265.316 190.718 269.686 187.494C273.388 184.763 279.71 184.137 283.974 186.079C289.328 188.519 291.585 197.42 288.408 203.565C285.215 209.739 288.627 209.494 205.784 209.494C133.184 209.494 130.075 209.419 127.385 207.596C115.198 199.336 123.856 181.49 138.287 185.124C143.688 186.484 145.728 185.137 147.569 178.991C149.624 172.131 158.624 164.994 165.22 164.994C169.344 164.994 171.504 163.287 174.259 157.85C177.616 151.225 183.395 145.833 191.576 141.692C198.954 137.958 201.311 134.476 198.419 131.584C196.285 129.45 192.915 129.581 187.922 131.994C185.645 133.094 183.345 133.994 182.811 133.994C182.277 133.994 180.568 135.258 179.013 136.802C177.458 138.346 175.392 139.91 174.421 140.276C173.45 140.643 172.247 142.018 171.748 143.332C171.248 144.646 170.176 145.976 169.366 146.286C168.556 146.597 167.128 148.588 166.191 150.71C164.713 154.06 163.865 154.716 159.74 155.696C154.176 157.017 143.686 163.417 143.686 165.49C143.686 166.278 142.791 167.402 141.698 167.988C140.604 168.573 139.444 170.11 139.12 171.403C138.609 173.438 137.722 173.845 132.516 174.434C129.208 174.808 125.077 175.794 123.335 176.624C120.066 178.183 112.686 187.19 112.686 189.621C112.686 190.695 110.478 190.994 102.546 190.994C91.4235 190.994 89.7825 191.784 89.7185 197.173C89.6615 201.99 91.8285 202.994 102.282 202.994C111.51 202.994 111.759 203.055 112.711 205.559C113.247 206.97 113.686 208.32 113.686 208.559C113.686 208.798 102.281 208.994 88.3415 208.994C65.0575 208.994 62.8615 209.143 61.3415 210.823C58.8015 213.63 59.2285 217.464 62.2335 218.833C64.1165 219.691 92.8965 219.994 172.552 219.994C290.905 219.994 287.051 220.185 293.513 214.009C297.924 209.793 299.686 204.899 299.686 196.861C299.686 184.566 294.3 177.482 282.964 174.868C278.822 173.913 276.552 173.929 271.996 174.949L266.25 176.235L263.718 173.231C262.267 171.509 258.945 169.437 255.936 168.376C252.561 167.186 250.686 165.953 250.686 164.924C250.686 161.427 246.561 151.051 243.952 147.986C237.079 139.912 232.83 136.263 226.738 133.203C220.506 130.072 212.641 128.385 209.936 129.6ZM70.4005 147.614C69.2435 148.77 69.5835 154.491 70.8865 155.794C72.5365 157.444 77.1855 157.303 78.6325 155.559C79.2875 154.77 79.6795 152.633 79.5045 150.809C79.2075 147.714 78.9185 147.474 75.1505 147.197C72.9305 147.034 70.7925 147.221 70.4005 147.614ZM142.436 227.077C140.072 229.666 140.232 232.866 142.839 235.127C145.724 237.629 159.694 237.843 162.115 235.423C164.019 233.518 164.109 229.136 162.294 226.744C160.279 224.089 144.929 224.347 142.436 227.077ZM172.222 226.954C170.107 229.291 170.806 235.442 173.295 236.397C175.537 237.258 212.976 237.104 214.286 236.229C216.238 234.926 217.698 231.19 216.988 229.316C215.413 225.157 214.542 224.994 193.912 224.994C175.401 224.994 173.871 225.132 172.222 226.954Z" fill="#6493A0"/>
<path fill-rule="evenodd" clip-rule="evenodd" d="M223.136 0.916215C222.614 1.42321 220.611 2.23621 218.686 2.72321C215.775 3.46021 215.144 4.10421 214.935 6.55221C214.752 8.69721 215.339 9.96421 217.103 11.2292C219.31 12.8112 219.89 12.8332 223.729 11.4792C234.733 7.59721 249.687 11.2292 258.652 19.9612C264.261 25.4242 267.254 30.8142 268.789 38.2112C270.168 44.8582 272.125 47.9942 274.893 47.9942C278.649 47.9942 285.532 52.0092 287.65 55.4352C292.869 63.8802 290.247 74.2382 281.686 78.9942L277.186 81.4942H234.186C191.878 81.4942 191.122 81.4592 187.186 79.3122C178.103 74.3562 174.384 68.3202 174.361 58.4942C174.35 54.2802 174.99 51.2442 176.511 48.2942C179.487 42.5202 186.608 37.2582 192.515 36.4692C199.266 35.5672 199.128 35.6622 202.168 29.8342C203.699 26.8972 205.792 23.4212 206.819 22.1092C208.822 19.5512 209.326 15.9942 207.686 15.9942C207.136 15.9942 206.686 15.3192 206.686 14.4942C206.686 12.2142 201.948 12.6502 199.926 15.1172C198.969 16.2842 197.491 17.9722 196.64 18.8672C195.79 19.7622 194.601 21.6482 193.996 23.0592C193.134 25.0722 191.691 25.9132 187.292 26.9692C184.209 27.7082 181.686 28.6092 181.686 28.9702C181.686 29.3302 179.886 30.6372 177.686 31.8742C175.486 33.1102 173.686 34.4582 173.686 34.8682C173.686 35.2792 172.392 36.9382 170.81 38.5562C166.786 42.6722 164.685 49.6162 164.692 58.7792C164.698 67.5432 166.01 73.3182 168.577 75.8852C169.546 76.8542 170.628 78.4002 170.981 79.3202C171.546 80.7932 170.728 80.9942 164.168 80.9942H156.713L155.181 77.3272C153.069 72.2722 147.517 67.1562 142.166 65.3332C138.524 64.0912 137.686 63.3562 137.686 61.4002C137.686 60.0772 137.236 58.9942 136.686 58.9942C136.136 58.9942 135.682 58.2072 135.676 57.2442C135.658 54.0172 130.98 45.5322 126.993 41.4942C120.955 35.3802 118.579 33.5932 113.686 31.4872C111.211 30.4212 108.922 29.1802 108.6 28.7282C106.867 26.2992 80.3235 26.4452 78.7195 28.8922C78.4265 29.3392 76.5285 30.2452 74.5025 30.9052C69.6955 32.4712 58.2395 43.0682 56.0935 47.9322C54.5865 51.3472 53.8415 51.8772 48.8655 53.0712C45.8145 53.8032 42.6255 55.2102 41.7795 56.1982C40.9345 57.1862 39.7175 57.9942 39.0755 57.9942C37.1255 57.9942 30.0415 66.8892 28.6615 71.0692C27.6455 74.1482 26.8625 74.9942 25.0265 74.9942C23.7395 74.9942 22.6865 75.4442 22.6865 75.9942C22.6865 76.5442 22.0605 76.9942 21.2955 76.9942C15.7105 76.9942 5.53147 85.5072 2.18647 92.9762C-0.79553 99.6342 -0.70853 117.817 2.33247 123.494C4.38947 127.335 10.9215 134.994 12.1395 134.994C12.4625 134.994 14.6295 136.231 16.9565 137.744C20.8555 140.279 21.9695 140.494 31.1865 140.494C39.7475 140.494 41.8955 140.145 46.1095 138.071C48.8175 136.738 51.7725 134.938 52.6785 134.071C58.5735 128.422 59.7255 128.237 63.8585 132.28C65.4365 133.823 69.9305 135.621 74.4365 136.511C76.7525 136.968 77.6865 137.705 77.6865 139.073C77.6865 140.13 78.5865 141.894 79.6865 142.994C80.7865 144.094 81.6865 145.36 81.6865 145.806C81.6865 147.201 93.5555 157.994 95.0885 157.994C95.8885 157.994 97.1505 158.601 97.8925 159.343C99.7535 161.203 105.049 162.735 112.284 163.506C117.222 164.032 118.696 163.841 120.034 162.503C122.067 160.47 122.113 159.048 120.23 156.361C119.15 154.819 116.85 153.972 111.312 153.079C99.4395 151.164 91.1725 144.548 86.6125 133.311C84.9105 129.118 83.8805 127.863 81.8155 127.467C70.2775 125.252 65.6015 122.475 62.0755 115.744C60.0115 111.802 56.1285 111.999 53.8895 116.159C52.9535 117.9 50.6955 121.024 48.8725 123.101C37.5215 136.037 17.5325 132.686 10.6525 116.693C4.64847 102.737 13.3535 87.8412 29.3935 84.6192C34.9645 83.5002 35.0055 83.4652 36.6275 78.4692C37.5245 75.7052 38.9485 72.4592 39.7905 71.2552C43.2235 66.3542 51.1185 61.9942 56.5585 61.9942C59.0715 61.9942 59.9385 61.2092 62.5605 56.5642C67.0705 48.5722 70.8695 44.7082 77.9015 40.9602C83.1895 38.1412 85.4865 37.5412 92.3765 37.1802C99.9515 36.7822 101.078 36.9882 107.376 39.9292C114.652 43.3262 119.842 47.6392 122.497 52.4942C125.086 57.2282 127.684 64.2972 127.685 66.6092C127.686 69.9902 131.441 73.9942 134.611 73.9942C137.541 73.9942 143.746 77.6232 144.442 79.7442C144.757 80.7042 141.633 80.9942 130.992 80.9942C116.235 80.9942 112.686 81.9632 112.686 85.9942C112.686 90.1152 116.153 90.9942 132.409 90.9942C142.875 90.9942 147.686 91.3412 147.686 92.0972C147.686 92.7032 146.48 95.3442 145.007 97.9662L142.327 102.732L144.651 108.113C150.866 122.507 146.658 139.198 134.729 147.464C130.155 150.634 129.405 152.126 130.689 155.503C131.466 157.544 132.311 157.994 135.373 157.994C138.669 157.994 139.892 157.194 145.744 151.214C152.439 144.371 156.686 136.314 156.686 130.456C156.686 129.102 157.136 127.994 157.686 127.994C158.236 127.994 158.686 126.194 158.686 123.994V119.994H163.186C166.353 119.994 168.279 119.401 169.686 117.994C174.271 113.409 170.588 109.251 161.485 108.736C158.021 108.54 162.06 108.293 170.461 108.187C185.572 107.996 185.745 107.968 186.645 105.601C187.903 102.294 186.915 99.2902 184.344 98.6002C183.157 98.2822 176.448 98.0152 169.436 98.0082C157.357 97.9952 156.686 97.8892 156.686 95.9942C156.686 94.8942 157.136 93.9942 157.686 93.9942C158.236 93.9942 158.686 93.3192 158.686 92.4942C158.686 91.1772 166.071 90.9942 219.149 90.9942C277.957 90.9942 279.756 90.9372 284.869 88.9222C291.09 86.4702 296.881 80.6232 298.525 75.1352C300.249 69.3832 299.967 58.2492 297.955 52.6372C296.684 49.0922 295.061 46.9522 291.95 44.7172C289.605 43.0332 287.686 41.3352 287.686 40.9432C287.686 40.5522 285.758 39.7462 283.401 39.1522C279.175 38.0882 279.098 37.9902 277.771 32.0082C276.231 25.0672 272.299 18.6232 265.741 12.2942C261.012 7.73021 250.46 1.99421 246.793 1.99421C245.634 1.99421 244.686 1.54421 244.686 0.994214C244.686 -0.280786 224.445 -0.353785 223.136 0.916215ZM155.365 29.9542C154.157 31.1772 153.652 32.9112 153.865 35.1142C154.133 37.8842 154.719 38.5832 157.416 39.3512C161.536 40.5262 163.698 38.8872 163.654 34.6222C163.593 28.5952 159.171 26.1052 155.365 29.9542ZM223.437 98.6832C219.65 99.6732 220.071 107.327 223.969 108.372C225.188 108.699 237.704 108.973 251.781 108.98C275.317 108.993 277.509 108.847 279.031 107.165C281.336 104.619 281.095 101.394 278.463 99.5512C276.582 98.2332 272.33 98.0122 250.713 98.1102C236.673 98.1742 224.399 98.4322 223.437 98.6832ZM209.801 129.839C208.845 130.488 208.637 131.663 209.131 133.631C210.116 137.557 211.303 138.753 215.005 139.552C216.755 139.93 220.211 141.348 222.686 142.705C232.335 147.992 238.657 156.744 240.593 167.494C241.772 174.037 244.185 176.994 248.346 176.994C252.361 176.994 256.234 179.626 260.064 184.958C262.054 187.728 264.143 189.994 264.706 189.994C265.268 189.994 267.522 188.808 269.713 187.358C276.821 182.654 285.238 184.235 288.645 190.914C291.187 195.896 291.203 198.06 288.736 202.896C284.947 210.324 288.777 209.994 206.253 209.994C127.463 209.994 128.681 210.068 124.186 205.027C121.101 201.567 121.356 192.039 124.626 188.558C127.986 184.981 133.284 183.513 138.067 184.834C140.14 185.406 142.498 185.62 143.307 185.309C144.117 184.998 146.064 181.91 147.635 178.446C150.869 171.314 156.478 166.431 162.554 165.46C164.552 165.14 167.166 164.679 168.363 164.436C169.744 164.155 171.727 161.89 173.785 158.243C178.158 150.497 182.732 146.183 191.071 141.94C196.164 139.348 198.298 137.658 198.951 135.699C200.775 130.226 195.352 128.404 187.922 131.994C185.645 133.094 183.345 133.994 182.811 133.994C182.277 133.994 180.568 135.258 179.013 136.802C177.458 138.346 175.392 139.91 174.421 140.276C173.45 140.643 172.247 142.018 171.748 143.332C171.248 144.646 170.176 145.976 169.366 146.286C168.556 146.597 167.128 148.588 166.191 150.71C164.713 154.06 163.865 154.716 159.74 155.696C154.176 157.017 143.686 163.417 143.686 165.49C143.686 166.278 142.791 167.402 141.698 167.988C140.604 168.573 139.444 170.11 139.12 171.403C138.609 173.438 137.722 173.845 132.516 174.434C129.208 174.808 125.077 175.794 123.335 176.624C120.066 178.183 112.686 187.19 112.686 189.621C112.686 190.695 110.478 190.994 102.546 190.994C91.4235 190.994 89.7825 191.784 89.7185 197.173C89.6615 201.99 91.8285 202.994 102.282 202.994C111.51 202.994 111.759 203.055 112.711 205.559C113.247 206.97 113.686 208.32 113.686 208.559C113.686 208.798 102.281 208.994 88.3415 208.994C65.0575 208.994 62.8615 209.143 61.3415 210.823C58.8015 213.63 59.2285 217.464 62.2335 218.833C64.1165 219.691 92.8965 219.994 172.552 219.994C290.905 219.994 287.051 220.185 293.513 214.009C297.924 209.793 299.686 204.899 299.686 196.861C299.686 184.566 294.3 177.482 282.964 174.868C278.822 173.913 276.552 173.929 271.996 174.949L266.25 176.235L263.718 173.231C262.267 171.509 258.945 169.437 255.936 168.376C252.561 167.186 250.686 165.953 250.686 164.924C250.686 161.427 246.561 151.051 243.952 147.986C237.079 139.912 232.83 136.263 226.738 133.203C219.895 129.765 212.169 128.231 209.801 129.839ZM70.4005 147.614C69.2435 148.77 69.5835 154.491 70.8865 155.794C72.5365 157.444 77.1855 157.303 78.6325 155.559C79.2875 154.77 79.6795 152.633 79.5045 150.809C79.2075 147.714 78.9185 147.474 75.1505 147.197C72.9305 147.034 70.7925 147.221 70.4005 147.614ZM142.436 227.077C140.072 229.666 140.232 232.866 142.839 235.127C145.724 237.629 159.694 237.843 162.115 235.423C164.019 233.518 164.109 229.136 162.294 226.744C160.279 224.089 144.929 224.347 142.436 227.077ZM172.222 226.954C170.107 229.291 170.806 235.442 173.295 236.397C175.537 237.258 212.976 237.104 214.286 236.229C216.238 234.926 217.698 231.19 216.988 229.316C215.413 225.157 214.542 224.994 193.912 224.994C175.401 224.994 173.871 225.132 172.222 226.954Z" fill="#3C89A0"/>
<path fill-rule="evenodd" clip-rule="evenodd" d="M223.136 0.916215C222.614 1.42321 220.611 2.23621 218.686 2.72421C214.4 3.80921 213.415 7.53421 216.643 10.4552C218.508 12.1432 219.178 12.1952 224.017 11.0352C246.203 5.71221 266.408 19.1862 270.167 41.8112C270.926 46.3772 270.937 46.3862 279.594 49.1082C286.064 51.1422 289.945 56.3732 290.464 63.7592C290.825 68.9072 290.552 69.9252 287.796 73.7082C281.997 81.6672 283.317 81.4532 237.686 81.8172C193.95 82.1652 189.973 81.8272 183.239 77.1882C174.547 71.2012 171.461 57.4382 176.702 48.0412C179.765 42.5492 186.497 37.2742 191.46 36.4772C198.687 35.3162 199.559 34.9712 200.179 33.0172C200.523 31.9312 202.567 28.4062 204.72 25.1812C208.358 19.7332 208.55 19.0952 207.441 16.1562C206.008 12.3582 202.577 11.8842 199.926 15.1172C198.969 16.2842 197.491 17.9722 196.64 18.8672C195.79 19.7622 194.601 21.6482 193.996 23.0592C193.134 25.0722 191.691 25.9132 187.292 26.9692C184.209 27.7082 181.686 28.6092 181.686 28.9702C181.686 29.3302 179.886 30.6372 177.686 31.8742C175.486 33.1102 173.686 34.4582 173.686 34.8682C173.686 35.2792 172.392 36.9382 170.81 38.5562C166.786 42.6722 164.685 49.6162 164.692 58.7792C164.698 67.5432 166.01 73.3182 168.577 75.8852C169.546 76.8542 170.628 78.4002 170.981 79.3202C171.546 80.7932 170.728 80.9942 164.168 80.9942H156.713L155.181 77.3272C153.069 72.2722 147.517 67.1562 142.166 65.3332C138.524 64.0912 137.686 63.3562 137.686 61.4002C137.686 60.0772 137.236 58.9942 136.686 58.9942C136.136 58.9942 135.682 58.2072 135.676 57.2442C135.658 54.0172 130.98 45.5322 126.993 41.4942C120.955 35.3802 118.579 33.5932 113.686 31.4872C111.211 30.4212 108.922 29.1802 108.6 28.7282C106.867 26.2992 80.3235 26.4452 78.7195 28.8922C78.4265 29.3392 76.5285 30.2452 74.5025 30.9052C69.6955 32.4712 58.2395 43.0682 56.0935 47.9322C54.5865 51.3472 53.8415 51.8772 48.8655 53.0712C45.8145 53.8032 42.6255 55.2102 41.7795 56.1982C40.9345 57.1862 39.7175 57.9942 39.0755 57.9942C37.1255 57.9942 30.0415 66.8892 28.6615 71.0692C27.6455 74.1482 26.8625 74.9942 25.0265 74.9942C23.7395 74.9942 22.6865 75.4442 22.6865 75.9942C22.6865 76.5442 22.0605 76.9942 21.2955 76.9942C15.7105 76.9942 5.53147 85.5072 2.18647 92.9762C-0.79553 99.6342 -0.70853 117.817 2.33247 123.494C4.38947 127.335 10.9215 134.994 12.1395 134.994C12.4625 134.994 14.6295 136.231 16.9565 137.744C20.8555 140.279 21.9695 140.494 31.1865 140.494C39.7475 140.494 41.8955 140.145 46.1095 138.071C48.8175 136.738 51.7725 134.938 52.6785 134.071C58.5735 128.422 59.7255 128.237 63.8585 132.28C65.4365 133.823 69.9305 135.621 74.4365 136.511C76.7525 136.968 77.6865 137.705 77.6865 139.073C77.6865 140.13 78.5865 141.894 79.6865 142.994C80.7865 144.094 81.6865 145.36 81.6865 145.806C81.6865 147.201 93.5555 157.994 95.0885 157.994C95.8885 157.994 97.1505 158.601 97.8925 159.343C99.7535 161.203 105.049 162.735 112.284 163.506C117.222 164.032 118.696 163.841 120.034 162.503C122.072 160.465 122.113 159.048 120.212 156.335C119.136 154.799 117.18 154.041 112.962 153.527C101.2 152.095 92.2825 145.732 87.5935 135.427C84.2355 128.049 83.4665 127.392 77.4135 126.745C71.4535 126.108 65.7965 122.314 62.7665 116.923C60.8865 113.577 60.0375 112.933 57.8435 113.187C55.9605 113.405 54.7305 114.477 53.5965 116.889C52.7185 118.756 50.2865 122.007 48.1925 124.114C34.0925 138.298 10.1255 129.253 8.85347 109.268C8.06947 96.9612 16.0105 87.1142 28.6095 84.7712L34.5375 83.6692L36.6965 77.7472C40.3005 67.8612 45.0065 64.2382 57.6865 61.5832C59.4725 61.2102 61.0025 59.4892 63.0445 55.5552C68.1435 45.7332 77.5345 38.8302 88.0355 37.1832C99.2475 35.4252 108.822 38.3912 117.37 46.2702C122.723 51.2052 125.516 56.2552 127.681 64.9162C129.38 71.7182 129.825 72.1812 136.299 73.9002C140.145 74.9212 145.686 79.1892 145.686 81.1302C145.686 81.6052 138.801 81.9942 130.386 81.9942C114.69 81.9942 112.686 82.4562 112.686 86.0722C112.686 89.7842 115.464 90.4782 132.397 90.9942L148.809 91.4942L145.75 97.2212L142.691 102.947L145.335 108.721C151.299 121.744 147.714 136.689 136.283 146.455C131.348 150.672 130.624 151.738 130.885 154.409C131.158 157.211 131.543 157.523 135.08 157.813C138.73 158.112 139.397 157.701 145.676 151.283C152.44 144.37 156.686 136.338 156.686 130.456C156.686 129.102 157.136 127.994 157.686 127.994C158.236 127.994 158.686 126.194 158.686 123.994V119.994H163.186C166.353 119.994 168.279 119.401 169.686 117.994C174.271 113.409 170.588 109.251 161.485 108.736C158.021 108.54 162.06 108.293 170.461 108.187C185.572 107.996 185.745 107.968 186.645 105.601C187.903 102.294 186.915 99.2902 184.344 98.6002C183.157 98.2822 176.448 98.0152 169.436 98.0082C157.357 97.9952 156.686 97.8892 156.686 95.9942C156.686 94.8942 157.136 93.9942 157.686 93.9942C158.236 93.9942 158.686 93.3192 158.686 92.4942C158.686 91.1772 166.071 90.9942 219.149 90.9942C277.957 90.9942 279.756 90.9372 284.869 88.9222C291.09 86.4702 296.881 80.6232 298.525 75.1352C300.249 69.3832 299.967 58.2492 297.955 52.6372C296.684 49.0922 295.061 46.9522 291.95 44.7172C289.605 43.0332 287.686 41.3352 287.686 40.9432C287.686 40.5522 285.758 39.7462 283.401 39.1522C279.175 38.0882 279.098 37.9902 277.771 32.0082C276.231 25.0672 272.299 18.6232 265.741 12.2942C261.012 7.73021 250.46 1.99421 246.793 1.99421C245.634 1.99421 244.686 1.54421 244.686 0.994214C244.686 -0.280786 224.445 -0.353785 223.136 0.916215ZM155.365 29.9542C154.157 31.1772 153.652 32.9112 153.865 35.1142C154.133 37.8842 154.719 38.5832 157.416 39.3512C161.536 40.5262 163.698 38.8872 163.654 34.6222C163.593 28.5952 159.171 26.1052 155.365 29.9542ZM223.437 98.6832C219.65 99.6732 220.071 107.327 223.969 108.372C225.188 108.699 237.704 108.973 251.781 108.98C275.317 108.993 277.509 108.847 279.031 107.165C281.336 104.619 281.095 101.394 278.463 99.5512C276.582 98.2332 272.33 98.0122 250.713 98.1102C236.673 98.1742 224.399 98.4322 223.437 98.6832ZM209.924 129.762C208.465 130.762 209.267 136.454 211.057 137.796C211.678 138.263 214.179 139.215 216.614 139.913C222.555 141.614 229.841 146.657 234.172 152.063C237.333 156.009 240.183 163.229 242.111 172.173C242.59 174.394 243.603 175.119 248.03 176.406C254.211 178.203 258.104 180.968 260.224 185.068C262.268 189.02 265.804 189.758 269.635 187.031C281.492 178.587 296.154 191.514 288.66 203.804C284.771 210.184 287.325 209.994 205.468 209.99C133.604 209.987 131.082 209.923 127.99 208.038C122.924 204.949 121.356 201.778 121.932 195.787C122.746 187.312 129.729 182.525 138.041 184.743C140.228 185.327 142.544 185.602 143.189 185.355C143.833 185.107 145.663 182.18 147.255 178.85C151.634 169.687 156.249 166.326 166.898 164.54C170.192 163.988 170.967 163.248 173.788 157.954C177.801 150.425 184.101 144.587 192.156 140.935C197.447 138.536 198.513 137.628 198.867 135.214C199.659 129.82 195.161 128.497 187.922 131.994C185.645 133.094 183.345 133.994 182.811 133.994C182.277 133.994 180.568 135.258 179.013 136.802C177.458 138.346 175.392 139.91 174.421 140.276C173.45 140.643 172.247 142.018 171.748 143.332C171.248 144.646 170.176 145.976 169.366 146.286C168.556 146.597 167.128 148.588 166.191 150.71C164.713 154.06 163.865 154.716 159.74 155.696C154.176 157.017 143.686 163.417 143.686 165.49C143.686 166.278 142.791 167.402 141.698 167.988C140.604 168.573 139.444 170.11 139.12 171.403C138.609 173.438 137.722 173.845 132.516 174.434C129.208 174.808 125.077 175.794 123.335 176.624C120.066 178.183 112.686 187.19 112.686 189.621C112.686 190.695 110.478 190.994 102.546 190.994C91.4235 190.994 89.7825 191.784 89.7185 197.173C89.6615 201.99 91.8285 202.994 102.282 202.994C111.51 202.994 111.759 203.055 112.711 205.559C113.247 206.97 113.686 208.32 113.686 208.559C113.686 208.798 102.281 208.994 88.3415 208.994C65.0575 208.994 62.8615 209.143 61.3415 210.823C58.8015 213.63 59.2285 217.464 62.2335 218.833C64.1165 219.691 92.8965 219.994 172.552 219.994C290.905 219.994 287.051 220.185 293.513 214.009C297.924 209.793 299.686 204.899 299.686 196.861C299.686 184.566 294.3 177.482 282.964 174.868C278.822 173.913 276.552 173.929 271.996 174.949L266.25 176.235L263.718 173.231C262.267 171.509 258.945 169.437 255.936 168.376C252.561 167.186 250.686 165.953 250.686 164.924C250.686 161.427 246.561 151.051 243.952 147.986C237.079 139.912 232.83 136.263 226.738 133.203C220.025 129.831 212.171 128.224 209.924 129.762ZM70.4005 147.614C69.2435 148.77 69.5835 154.491 70.8865 155.794C72.5365 157.444 77.1855 157.303 78.6325 155.559C79.2875 154.77 79.6795 152.633 79.5045 150.809C79.2075 147.714 78.9185 147.474 75.1505 147.197C72.9305 147.034 70.7925 147.221 70.4005 147.614ZM142.436 227.077C140.072 229.666 140.232 232.866 142.839 235.127C145.724 237.629 159.694 237.843 162.115 235.423C164.019 233.518 164.109 229.136 162.294 226.744C160.279 224.089 144.929 224.347 142.436 227.077ZM172.222 226.954C170.107 229.291 170.806 235.442 173.295 236.397C175.537 237.258 212.976 237.104 214.286 236.229C216.238 234.926 217.698 231.19 216.988 229.316C215.413 225.157 214.542 224.994 193.912 224.994C175.401 224.994 173.871 225.132 172.222 226.954Z" fill="#3C595F"/>
<path fill-rule="evenodd" clip-rule="evenodd" d="M223.136 0.916215C222.614 1.42321 220.611 2.23721 218.686 2.72521C216.158 3.36621 215.095 4.23921 214.858 5.86821C214.468 8.54721 218.332 12.3442 220.573 11.4842C221.401 11.1662 225.252 10.4172 229.132 9.81921C237.925 8.46321 246.124 10.2942 254.094 15.3922C262.085 20.5032 268.883 30.8962 270.297 40.1612C271.077 45.2632 272.228 46.9942 274.842 46.9942C278.332 46.9942 286.152 51.8022 288.575 55.4382C292.101 60.7302 292.023 68.4582 288.388 73.7022C286.887 75.8692 283.916 78.6212 281.786 79.8182C277.976 81.9592 277.224 81.9942 234.865 81.9942C207.01 81.9942 190.834 81.6212 189.033 80.9362C184.297 79.1352 178.284 73.4822 175.787 68.4812C168.935 54.7632 177.757 38.0122 192.82 36.1362L197.976 35.4942L202.854 27.6282C207.016 20.9192 207.64 19.2652 207.098 16.3782C206.586 13.6502 205.999 12.9942 204.065 12.9942C202.746 12.9942 200.883 13.9492 199.926 15.1172C198.969 16.2842 197.491 17.9722 196.64 18.8672C195.79 19.7622 194.601 21.6482 193.996 23.0592C193.134 25.0722 191.691 25.9132 187.292 26.9692C184.209 27.7082 181.686 28.6092 181.686 28.9702C181.686 29.3302 179.886 30.6372 177.686 31.8742C175.486 33.1102 173.686 34.4582 173.686 34.8682C173.686 35.2792 172.392 36.9382 170.81 38.5562C166.786 42.6722 164.685 49.6162 164.692 58.7792C164.698 67.5432 166.01 73.3182 168.577 75.8852C169.546 76.8542 170.628 78.4002 170.981 79.3202C171.546 80.7932 170.728 80.9942 164.168 80.9942H156.713L155.181 77.3272C153.069 72.2722 147.517 67.1562 142.166 65.3332C138.524 64.0912 137.686 63.3562 137.686 61.4002C137.686 60.0772 137.236 58.9942 136.686 58.9942C136.136 58.9942 135.682 58.2072 135.676 57.2442C135.658 54.0172 130.98 45.5322 126.993 41.4942C120.955 35.3802 118.579 33.5932 113.686 31.4872C111.211 30.4212 108.922 29.1802 108.6 28.7282C106.867 26.2992 80.3235 26.4452 78.7195 28.8922C78.4265 29.3392 76.5285 30.2452 74.5025 30.9052C69.6955 32.4712 58.2395 43.0682 56.0935 47.9322C54.5865 51.3472 53.8415 51.8772 48.8655 53.0712C45.8145 53.8032 42.6255 55.2102 41.7795 56.1982C40.9345 57.1862 39.7175 57.9942 39.0755 57.9942C37.1255 57.9942 30.0415 66.8892 28.6615 71.0692C27.6455 74.1482 26.8625 74.9942 25.0265 74.9942C23.7395 74.9942 22.6865 75.4442 22.6865 75.9942C22.6865 76.5442 22.0605 76.9942 21.2955 76.9942C15.7105 76.9942 5.53147 85.5072 2.18647 92.9762C-0.79553 99.6342 -0.70853 117.817 2.33247 123.494C4.38947 127.335 10.9215 134.994 12.1395 134.994C12.4625 134.994 14.6295 136.231 16.9565 137.744C20.8555 140.279 21.9695 140.494 31.1865 140.494C39.7475 140.494 41.8955 140.145 46.1095 138.071C48.8175 136.738 51.7725 134.938 52.6785 134.071C58.5735 128.422 59.7255 128.237 63.8585 132.28C65.4365 133.823 69.9305 135.621 74.4365 136.511C76.7525 136.968 77.6865 137.705 77.6865 139.073C77.6865 140.13 78.5865 141.894 79.6865 142.994C80.7865 144.094 81.6865 145.36 81.6865 145.806C81.6865 147.201 93.5555 157.994 95.0885 157.994C95.8885 157.994 97.1505 158.601 97.8925 159.343C99.7535 161.203 105.049 162.735 112.284 163.506C117.222 164.032 118.696 163.841 120.034 162.503C122.25 160.287 122.124 159.341 119.231 156.449C117.758 154.975 115.622 153.994 113.887 153.994C108.784 153.994 100.156 150.486 95.2925 146.433C92.0425 143.726 89.4415 140.227 86.9735 135.244C83.6745 128.584 83.1305 127.993 80.2845 127.984C78.5805 127.979 74.9075 126.913 72.1215 125.616C67.4715 123.451 66.0635 122.14 60.7995 115.077C58.5645 112.079 56.2615 112.762 53.8995 117.124C48.7655 126.608 41.8825 131.095 32.2455 131.241C23.9725 131.367 17.7055 128.369 13.1605 122.114C2.29647 107.162 10.0275 88.1602 28.4725 84.4772C34.1775 83.3382 35.1495 82.4932 36.1265 77.8232C37.6155 70.7022 46.6295 63.2822 56.1765 61.3162C59.5045 60.6302 60.5005 59.8222 62.1765 56.4402C65.4785 49.7802 68.8585 45.9732 75.0685 41.9202C82.1435 37.3022 89.5445 35.5492 97.8805 36.5162C104.642 37.3012 113.445 41.4482 118.326 46.1492C122.799 50.4572 126.926 58.5272 128.182 65.4232C129.323 71.6872 129.41 71.7672 136.918 73.4212C139.733 74.0412 146.686 79.5062 146.686 81.0982C146.686 81.5912 139.743 81.9942 131.257 81.9942C118.565 81.9942 115.55 82.2732 114.257 83.5652C112.398 85.4252 112.382 85.5582 113.721 88.0602C114.682 89.8552 115.972 89.9942 131.721 89.9942C150.806 89.9942 150.269 89.7192 146.186 97.3982C143.128 103.15 143.113 103.842 145.936 109.213C147.761 112.685 148.184 115.1 148.175 121.994C148.164 129.926 147.918 130.928 144.493 136.994C142.147 141.15 138.982 144.936 135.716 147.494C131.347 150.915 130.65 151.928 130.897 154.494C131.158 157.199 131.568 157.525 135.08 157.813C138.73 158.112 139.397 157.701 145.676 151.283C152.44 144.37 156.686 136.338 156.686 130.456C156.686 129.102 157.136 127.994 157.686 127.994C158.236 127.994 158.686 126.194 158.686 123.994V119.994H163.186C166.353 119.994 168.279 119.401 169.686 117.994C174.271 113.409 170.588 109.251 161.485 108.736C158.021 108.54 162.06 108.293 170.461 108.187C185.572 107.996 185.745 107.968 186.645 105.601C187.903 102.294 186.915 99.2902 184.344 98.6002C183.157 98.2822 176.448 98.0152 169.436 98.0082C157.357 97.9952 156.686 97.8892 156.686 95.9942C156.686 94.8942 157.136 93.9942 157.686 93.9942C158.236 93.9942 158.686 93.3192 158.686 92.4942C158.686 91.1772 166.071 90.9942 219.149 90.9942C277.957 90.9942 279.756 90.9372 284.869 88.9222C291.09 86.4702 296.881 80.6232 298.525 75.1352C300.249 69.3832 299.967 58.2492 297.955 52.6372C296.684 49.0922 295.061 46.9522 291.95 44.7172C289.605 43.0332 287.686 41.3352 287.686 40.9432C287.686 40.5522 285.758 39.7462 283.401 39.1522C279.175 38.0882 279.098 37.9902 277.771 32.0082C276.231 25.0672 272.299 18.6232 265.741 12.2942C261.012 7.73021 250.46 1.99421 246.793 1.99421C245.634 1.99421 244.686 1.54421 244.686 0.994214C244.686 -0.280786 224.445 -0.353785 223.136 0.916215ZM155.365 29.9542C154.157 31.1772 153.652 32.9112 153.865 35.1142C154.133 37.8842 154.719 38.5832 157.416 39.3512C161.536 40.5262 163.698 38.8872 163.654 34.6222C163.593 28.5952 159.171 26.1052 155.365 29.9542ZM223.437 98.6832C219.65 99.6732 220.071 107.327 223.969 108.372C225.188 108.699 237.704 108.973 251.781 108.98C275.317 108.993 277.509 108.847 279.031 107.165C281.336 104.619 281.095 101.394 278.463 99.5512C276.582 98.2332 272.33 98.0122 250.713 98.1102C236.673 98.1742 224.399 98.4322 223.437 98.6832ZM209.819 129.827C208.716 130.577 208.677 131.437 209.618 134.287C210.745 137.703 212.297 138.994 215.279 138.994C218.003 138.994 225.641 143.202 230.2 147.215C235.559 151.933 239.427 158.917 241.691 167.968C243.257 174.227 243.445 174.481 247.332 175.607C253.867 177.498 257.356 179.724 259.679 183.482C263.068 188.966 264.938 189.517 270.03 186.533C276.215 182.908 281.589 183.092 286.137 187.085C290.669 191.064 292.307 196.572 290.351 201.254C288.799 204.969 283.687 209.712 280.359 210.526C279.164 210.819 244.886 210.931 204.186 210.776L130.186 210.494L126.867 208.126C116.63 200.826 121.855 183.317 134.08 183.956C135.788 184.046 138.705 184.203 140.562 184.306C144.12 184.504 144.362 184.266 147.265 177.717C150.572 170.258 159.735 163.994 167.341 163.994C168.778 163.994 170.265 162.963 171.307 161.244C177.279 151.397 180.432 147.661 185.798 144.078C189.028 141.921 193.021 139.86 194.67 139.498C196.963 138.994 197.863 138.092 198.494 135.666C199.996 129.888 195.508 128.329 187.922 131.994C185.645 133.094 183.345 133.994 182.811 133.994C182.277 133.994 180.568 135.258 179.013 136.802C177.458 138.346 175.392 139.91 174.421 140.276C173.45 140.643 172.247 142.018 171.748 143.332C171.248 144.646 170.176 145.976 169.366 146.286C168.556 146.597 167.128 148.588 166.191 150.71C164.713 154.06 163.865 154.716 159.74 155.696C154.176 157.017 143.686 163.417 143.686 165.49C143.686 166.278 142.791 167.402 141.698 167.988C140.604 168.573 139.444 170.11 139.12 171.403C138.609 173.438 137.722 173.845 132.516 174.434C129.208 174.808 125.077 175.794 123.335 176.624C120.066 178.183 112.686 187.19 112.686 189.621C112.686 190.695 110.478 190.994 102.546 190.994C91.4235 190.994 89.7825 191.784 89.7185 197.173C89.6615 201.99 91.8285 202.994 102.282 202.994C111.51 202.994 111.759 203.055 112.711 205.559C113.247 206.97 113.686 208.32 113.686 208.559C113.686 208.798 102.281 208.994 88.3415 208.994C65.0575 208.994 62.8615 209.143 61.3415 210.823C58.8015 213.63 59.2285 217.464 62.2335 218.833C64.1165 219.691 92.8965 219.994 172.552 219.994C290.905 219.994 287.051 220.185 293.513 214.009C297.924 209.793 299.686 204.899 299.686 196.861C299.686 184.566 294.3 177.482 282.964 174.868C278.822 173.913 276.552 173.929 271.996 174.949L266.25 176.235L263.718 173.231C262.267 171.509 258.945 169.437 255.936 168.376C252.561 167.186 250.686 165.953 250.686 164.924C250.686 161.427 246.561 151.051 243.952 147.986C237.079 139.912 232.83 136.263 226.738 133.203C219.914 129.775 212.17 128.23 209.819 129.827ZM70.4005 147.614C69.2435 148.77 69.5835 154.491 70.8865 155.794C72.5365 157.444 77.1855 157.303 78.6325 155.559C79.2875 154.77 79.6795 152.633 79.5045 150.809C79.2075 147.714 78.9185 147.474 75.1505 147.197C72.9305 147.034 70.7925 147.221 70.4005 147.614ZM142.436 227.077C140.072 229.666 140.232 232.866 142.839 235.127C145.724 237.629 159.694 237.843 162.115 235.423C164.019 233.518 164.109 229.136 162.294 226.744C160.279 224.089 144.929 224.347 142.436 227.077ZM172.222 226.954C170.107 229.291 170.806 235.442 173.295 236.397C175.537 237.258 212.976 237.104 214.286 236.229C216.238 234.926 217.698 231.19 216.988 229.316C215.413 225.157 214.542 224.994 193.912 224.994C175.401 224.994 173.871 225.132 172.222 226.954Z" fill="#0D1E23"/>
<path fill-rule="evenodd" clip-rule="evenodd" d="M223.136 0.916215C222.614 1.42321 220.611 2.23621 218.686 2.72421C215.996 3.40521 215.117 4.18721 214.888 6.10721C214.394 10.2562 218.08 11.5242 226.189 9.99321C232.832 8.74021 239.983 9.08522 246.749 10.9842C252.206 12.5162 260.775 19.4572 264.865 25.6582C268.079 30.5302 269.218 33.7472 271.251 43.7002C271.586 45.3362 272.67 46.0792 275.444 46.5722C286.89 48.6082 293.976 59.4062 290.807 69.9842C289.574 74.0992 283.189 80.5842 279.461 81.5062C278.21 81.8162 257.122 81.9402 232.599 81.7822L188.013 81.4942L183.704 78.5072C171.849 70.2902 169.449 54.4732 178.459 43.9462C182.35 39.4002 188.483 36.0512 192.981 36.0162C196.256 35.9902 198.724 33.5672 203.838 25.3572C206.705 20.7552 207.379 18.7952 206.974 16.2442C206.559 13.6252 205.994 12.9942 204.063 12.9942C202.745 12.9942 200.883 13.9492 199.926 15.1172C198.969 16.2842 197.491 17.9722 196.64 18.8672C195.79 19.7622 194.601 21.6482 193.996 23.0592C193.134 25.0722 191.691 25.9132 187.292 26.9692C184.209 27.7082 181.686 28.6092 181.686 28.9702C181.686 29.3302 179.886 30.6372 177.686 31.8742C175.486 33.1102 173.686 34.4582 173.686 34.8682C173.686 35.2792 172.392 36.9382 170.81 38.5562C166.786 42.6722 164.685 49.6162 164.692 58.7792C164.698 67.5432 166.01 73.3182 168.577 75.8852C169.546 76.8542 170.628 78.4002 170.981 79.3202C171.546 80.7932 170.728 80.9942 164.168 80.9942H156.713L155.181 77.3272C153.069 72.2722 147.517 67.1562 142.166 65.3332C138.524 64.0912 137.686 63.3562 137.686 61.4002C137.686 60.0772 137.236 58.9942 136.686 58.9942C136.136 58.9942 135.682 58.2072 135.676 57.2442C135.658 54.0172 130.98 45.5322 126.993 41.4942C120.955 35.3802 118.579 33.5932 113.686 31.4872C111.211 30.4212 108.922 29.1802 108.6 28.7282C106.867 26.2992 80.3235 26.4452 78.7195 28.8922C78.4265 29.3392 76.5285 30.2452 74.5025 30.9052C69.6955 32.4712 58.2395 43.0682 56.0935 47.9322C54.5865 51.3472 53.8415 51.8772 48.8655 53.0712C45.8145 53.8032 42.6255 55.2102 41.7795 56.1982C40.9345 57.1862 39.7175 57.9942 39.0755 57.9942C37.1255 57.9942 30.0415 66.8892 28.6615 71.0692C27.6455 74.1482 26.8625 74.9942 25.0265 74.9942C23.7395 74.9942 22.6865 75.4442 22.6865 75.9942C22.6865 76.5442 22.0605 76.9942 21.2955 76.9942C15.7105 76.9942 5.53147 85.5072 2.18647 92.9762C-0.79553 99.6342 -0.70853 117.817 2.33247 123.494C4.38947 127.335 10.9215 134.994 12.1395 134.994C12.4625 134.994 14.6295 136.231 16.9565 137.744C20.8555 140.279 21.9695 140.494 31.1865 140.494C39.7475 140.494 41.8955 140.145 46.1095 138.071C48.8175 136.738 51.7725 134.938 52.6785 134.071C58.5735 128.422 59.7255 128.237 63.8585 132.28C65.4365 133.823 69.9305 135.621 74.4365 136.511C76.7525 136.968 77.6865 137.705 77.6865 139.073C77.6865 140.13 78.5865 141.894 79.6865 142.994C80.7865 144.094 81.6865 145.36 81.6865 145.806C81.6865 147.201 93.5555 157.994 95.0885 157.994C95.8885 157.994 97.1505 158.601 97.8925 159.343C100.544 161.995 115.228 164.874 118.906 163.463C123.397 161.74 119.993 154.994 114.631 154.994C109.108 154.994 98.3675 150.038 93.4365 145.215C90.8235 142.66 88.6865 139.99 88.6865 139.282C88.6865 138.573 88.2715 137.994 87.7645 137.994C87.2565 137.994 86.2985 136.307 85.6335 134.244C83.9045 128.876 83.2075 128.298 77.8355 127.782C72.5375 127.273 64.2565 122.365 63.2275 119.124C62.2745 116.12 59.0485 113.744 56.8655 114.437C55.7855 114.78 54.3105 116.508 53.5885 118.277C50.5675 125.674 40.4765 131.994 31.6865 131.994C23.3425 131.994 14.0545 126.264 10.0285 118.631C7.89047 114.578 7.25547 106.276 8.67947 100.994C11.0335 92.2632 21.8145 84.0182 30.9015 84.0002C33.8545 83.9942 35.0395 82.4182 36.0345 77.1762C37.4005 69.9742 48.1425 60.9942 55.3915 60.9942C58.6355 60.9942 60.1605 59.5512 63.1535 53.6492C65.6015 48.8232 73.8595 41.2832 79.4105 38.8082C89.6115 34.2572 103.851 35.5852 113.425 41.9792C121.964 47.6822 127.088 55.6762 128.499 65.4942C129.231 70.5902 129.862 71.1932 136.233 72.8802C140.393 73.9832 146.686 78.7702 146.686 80.8332C146.686 81.6642 142.332 81.9942 131.386 81.9942C115.611 81.9942 113.686 82.4472 113.686 86.1592C113.686 89.3062 117.171 89.9942 133.12 89.9942C148.599 89.9942 148.686 90.0072 148.674 92.2442C148.667 93.4812 147.582 96.3822 146.263 98.6892L143.865 102.884L146.252 108.689C149.116 115.654 149.451 125.054 147.116 132.917C145.868 137.119 144.142 139.607 138.693 145.055C134.106 149.643 131.732 152.832 131.513 154.701C131.21 157.292 131.467 157.517 135.08 157.813C138.73 158.112 139.397 157.701 145.676 151.283C152.44 144.37 156.686 136.338 156.686 130.456C156.686 129.102 157.136 127.994 157.686 127.994C158.236 127.994 158.686 126.194 158.686 123.994V119.994H163.186C166.353 119.994 168.279 119.401 169.686 117.994C174.271 113.409 170.588 109.251 161.485 108.736C158.021 108.54 162.06 108.293 170.461 108.187C185.572 107.996 185.745 107.968 186.645 105.601C187.903 102.294 186.915 99.2902 184.344 98.6002C183.157 98.2822 176.448 98.0152 169.436 98.0082C157.357 97.9952 156.686 97.8892 156.686 95.9942C156.686 94.8942 157.136 93.9942 157.686 93.9942C158.236 93.9942 158.686 93.3192 158.686 92.4942C158.686 91.1772 166.071 90.9942 219.149 90.9942C277.957 90.9942 279.756 90.9372 284.869 88.9222C291.09 86.4702 296.881 80.6232 298.525 75.1352C300.249 69.3832 299.967 58.2492 297.955 52.6372C296.684 49.0922 295.061 46.9522 291.95 44.7172C289.605 43.0332 287.686 41.3352 287.686 40.9432C287.686 40.5522 285.758 39.7462 283.401 39.1522C279.175 38.0882 279.098 37.9902 277.771 32.0082C276.231 25.0672 272.299 18.6232 265.741 12.2942C261.012 7.73021 250.46 1.99421 246.793 1.99421C245.634 1.99421 244.686 1.54421 244.686 0.994214C244.686 -0.280786 224.445 -0.353785 223.136 0.916215ZM155.365 29.9542C154.157 31.1772 153.652 32.9112 153.865 35.1142C154.133 37.8842 154.719 38.5832 157.416 39.3512C161.536 40.5262 163.698 38.8872 163.654 34.6222C163.593 28.5952 159.171 26.1052 155.365 29.9542ZM223.437 98.6832C219.65 99.6732 220.071 107.327 223.969 108.372C225.188 108.699 237.704 108.973 251.781 108.98C275.317 108.993 277.509 108.847 279.031 107.165C281.336 104.619 281.095 101.394 278.463 99.5512C276.582 98.2332 272.33 98.0122 250.713 98.1102C236.673 98.1742 224.399 98.4322 223.437 98.6832ZM209.723 129.887C208.444 130.751 208.461 131.298 209.851 134.214C211.171 136.981 212.447 137.865 217.314 139.379C229.559 143.189 239.387 154.153 242.053 166.974C243.549 174.168 243.902 174.613 248.706 175.381C253.024 176.072 261.057 182.438 262.215 186.086C263.052 188.723 266.007 188.472 270.704 185.364C284.342 176.338 298.878 195.66 287.065 207.111L283.576 210.494L208.381 210.794C158.035 210.994 132.029 210.747 129.686 210.046C127.438 209.374 125.202 207.6 123.436 205.087C118.504 198.07 120.443 189.779 128.128 185.03C131.246 183.103 132.578 182.875 137.284 183.463C143.212 184.204 145.686 183.173 145.686 179.961C145.686 177.123 152.971 168.702 157.498 166.31C159.77 165.108 163.619 163.827 166.05 163.462C170.027 162.866 170.656 162.385 172.328 158.67C175.231 152.217 184.724 143.161 191.445 140.433C195.619 138.738 197.494 137.352 198.315 135.355C200.506 130.023 195.411 128.376 187.922 131.994C185.645 133.094 183.345 133.994 182.811 133.994C182.277 133.994 180.568 135.258 179.013 136.802C177.458 138.346 175.392 139.91 174.421 140.276C173.45 140.643 172.247 142.018 171.748 143.332C171.248 144.646 170.176 145.976 169.366 146.286C168.556 146.597 167.128 148.588 166.191 150.71C164.713 154.06 163.865 154.716 159.74 155.696C154.176 157.017 143.686 163.417 143.686 165.49C143.686 166.278 142.791 167.402 141.698 167.988C140.604 168.573 139.444 170.11 139.12 171.403C138.609 173.438 137.722 173.845 132.516 174.434C129.208 174.808 125.077 175.794 123.335 176.624C120.066 178.183 112.686 187.19 112.686 189.621C112.686 190.695 110.478 190.994 102.546 190.994C91.4235 190.994 89.7825 191.784 89.7185 197.173C89.6615 201.99 91.8285 202.994 102.282 202.994C111.51 202.994 111.759 203.055 112.711 205.559C113.247 206.97 113.686 208.32 113.686 208.559C113.686 208.798 102.281 208.994 88.3415 208.994C65.0575 208.994 62.8615 209.143 61.3415 210.823C58.8015 213.63 59.2285 217.464 62.2335 218.833C64.1165 219.691 92.8965 219.994 172.552 219.994C290.905 219.994 287.051 220.185 293.513 214.009C297.924 209.793 299.686 204.899 299.686 196.861C299.686 184.566 294.3 177.482 282.964 174.868C278.822 173.913 276.552 173.929 271.996 174.949L266.25 176.235L263.718 173.231C262.267 171.509 258.945 169.437 255.936 168.376C252.561 167.186 250.686 165.953 250.686 164.924C250.686 161.427 246.561 151.051 243.952 147.986C237.079 139.912 232.83 136.263 226.738 133.203C219.817 129.726 212.167 128.235 209.723 129.887ZM70.4005 147.614C69.2435 148.77 69.5835 154.491 70.8865 155.794C72.5365 157.444 77.1855 157.303 78.6325 155.559C79.2875 154.77 79.6795 152.633 79.5045 150.809C79.2075 147.714 78.9185 147.474 75.1505 147.197C72.9305 147.034 70.7925 147.221 70.4005 147.614ZM142.436 227.077C140.072 229.666 140.232 232.866 142.839 235.127C145.724 237.629 159.694 237.843 162.115 235.423C164.019 233.518 164.109 229.136 162.294 226.744C160.279 224.089 144.929 224.347 142.436 227.077ZM172.222 226.954C170.107 229.291 170.806 235.442 173.295 236.397C175.537 237.258 212.976 237.104 214.286 236.229C216.238 234.926 217.698 231.19 216.988 229.316C215.413 225.157 214.542 224.994 193.912 224.994C175.401 224.994 173.871 225.132 172.222 226.954Z" fill="black"/>
</svg>
