<svg width="299" height="188" viewBox="0 0 299 188" fill="none" xmlns="http://www.w3.org/2000/svg">
<path fill-rule="evenodd" clip-rule="evenodd" d="M150.34 1.42612C146.692 2.15312 141.067 3.97612 137.84 5.47712C131.446 8.45112 118.477 16.6621 118.466 17.7441C118.462 18.1141 117 19.3871 115.216 20.5731C112.418 22.4331 110.215 22.7831 99.1573 23.1211C92.1083 23.3361 86.0333 23.9481 85.6573 24.4801C85.2813 25.0121 81.7013 26.4821 77.7023 27.7471C73.7033 29.0111 69.6533 30.8181 68.7023 31.7621C67.7513 32.7061 65.6863 34.1291 64.1143 34.9251C60.7563 36.6241 50.6333 46.8511 48.4733 50.7261C47.6483 52.2061 46.4513 53.7541 45.8133 54.1661C45.1763 54.5781 43.6083 57.8301 42.3313 61.3931C40.1453 67.4871 39.7173 67.9961 35.1073 69.9791C32.4123 71.1391 29.2823 72.9491 28.1513 74.0021C27.0213 75.0551 25.6233 75.9171 25.0453 75.9171C24.0663 75.9171 23.0083 76.8181 16.4733 83.2161C9.99634 89.5571 5.18134 97.0041 2.24134 105.224C0.33534 110.554 0.0233406 113.507 0.00034063 126.417C-0.0266594 141.656 1.55134 150.808 4.77534 154.106C5.48134 154.827 6.70134 156.992 7.48734 158.917C8.74634 161.999 11.9773 166.077 16.9953 170.917C22.7133 176.432 25.6063 178.544 30.4673 180.749C33.4953 182.122 36.1983 183.562 36.4733 183.947C36.7483 184.332 39.9273 185.383 43.5373 186.282C49.3913 187.74 60.8483 187.917 149.473 187.917C238.098 187.917 249.555 187.74 255.409 186.282C259.019 185.383 262.198 184.332 262.473 183.947C262.748 183.562 265.604 182.052 268.821 180.592C272.037 179.132 275.557 176.808 276.643 175.428C277.729 174.047 279.276 172.917 280.079 172.917C280.883 172.917 282.446 171.382 283.553 169.506C284.66 167.63 286.218 165.845 287.016 165.539C287.814 165.232 289.481 162.83 290.72 160.199C291.959 157.569 293.531 154.827 294.213 154.106C297.41 150.724 298.973 141.58 298.946 126.417C298.923 113.31 298.627 110.597 296.601 104.918C295.327 101.343 293.937 98.1931 293.513 97.9181C293.089 97.6421 291.78 95.5201 290.604 93.2001C289.428 90.8811 287.568 88.5031 286.47 87.9151C285.372 87.3281 284.473 86.1981 284.473 85.4051C284.473 84.6121 283.235 83.1681 281.723 82.1951C280.211 81.2231 278.153 79.4121 277.15 78.1721C276.148 76.9321 274.686 75.9171 273.9 75.9171C273.115 75.9171 271.532 74.9761 270.383 73.8271C267.991 71.4351 255.512 66.9171 251.298 66.9171C249.744 66.9171 248.473 66.4671 248.473 65.9171C248.473 65.3671 247.378 64.9171 246.04 64.9171C243.363 64.9171 243.178 64.5281 241.4 55.1671C240.747 51.7301 239.844 48.9171 239.394 48.9171C238.944 48.9171 237.793 46.4371 236.838 43.4061C235.882 40.3751 234.332 37.0701 233.393 36.0621C232.454 35.0541 230.965 32.8361 230.085 31.1341C229.205 29.4311 227.666 27.4491 226.666 26.7281C225.666 26.0071 223.779 23.9541 222.473 22.1671C221.166 20.3801 219.766 18.9171 219.362 18.9171C218.958 18.9171 217.285 17.6801 215.644 16.1671C210.627 11.5411 206.989 9.10612 202.382 7.29112C199.957 6.33612 197.731 5.20212 197.436 4.77212C197.141 4.34112 193.091 3.07612 188.436 1.96012C178.493 -0.423881 160.866 -0.670881 150.34 1.42612Z" fill="#EDEBED"/>
<path fill-rule="evenodd" clip-rule="evenodd" d="M150.34 1.42612C146.692 2.15312 141.067 3.97612 137.84 5.47712C131.446 8.45112 118.477 16.6621 118.466 17.7441C118.462 18.1141 117 19.3871 115.216 20.5731C112.418 22.4331 110.215 22.7831 99.1573 23.1211C92.1083 23.3361 86.0333 23.9481 85.6573 24.4801C85.2813 25.0121 81.7013 26.4821 77.7023 27.7471C73.7033 29.0111 69.6533 30.8181 68.7023 31.7621C67.7513 32.7061 65.6863 34.1291 64.1143 34.9251C60.7563 36.6241 50.6333 46.8511 48.4733 50.7261C47.6483 52.2061 46.4513 53.7541 45.8133 54.1661C45.1763 54.5781 43.6083 57.8301 42.3313 61.3931C40.1453 67.4871 39.7173 67.9961 35.1073 69.9791C32.4123 71.1391 29.2823 72.9491 28.1513 74.0021C27.0213 75.0551 25.6233 75.9171 25.0453 75.9171C24.0663 75.9171 23.0083 76.8181 16.4733 83.2161C9.99634 89.5571 5.18134 97.0041 2.24134 105.224C0.33534 110.554 0.0233406 113.507 0.00034063 126.417C-0.0266594 141.656 1.55134 150.808 4.77534 154.106C5.48134 154.827 6.70134 156.992 7.48734 158.917C8.74634 161.999 11.9773 166.077 16.9953 170.917C22.7133 176.432 25.6063 178.544 30.4673 180.749C33.4953 182.122 36.1983 183.562 36.4733 183.947C36.7483 184.332 39.9273 185.383 43.5373 186.282C49.3913 187.74 60.8483 187.917 149.473 187.917C238.098 187.917 249.555 187.74 255.409 186.282C259.019 185.383 262.198 184.332 262.473 183.947C262.748 183.562 265.604 182.052 268.821 180.592C272.037 179.132 275.557 176.808 276.643 175.428C277.729 174.047 279.276 172.917 280.079 172.917C280.883 172.917 282.446 171.382 283.553 169.506C284.66 167.63 286.218 165.845 287.016 165.539C287.814 165.232 289.481 162.83 290.72 160.199C291.959 157.569 293.531 154.827 294.213 154.106C297.41 150.724 298.973 141.58 298.946 126.417C298.923 113.31 298.627 110.597 296.601 104.918C295.327 101.343 293.937 98.1931 293.513 97.9181C293.089 97.6421 291.78 95.5201 290.604 93.2001C289.428 90.8811 287.568 88.5031 286.47 87.9151C285.372 87.3281 284.473 86.1981 284.473 85.4051C284.473 84.6121 283.235 83.1681 281.723 82.1951C280.211 81.2231 278.153 79.4121 277.15 78.1721C276.148 76.9321 274.686 75.9171 273.9 75.9171C273.115 75.9171 271.532 74.9761 270.383 73.8271C267.991 71.4351 255.512 66.9171 251.298 66.9171C249.744 66.9171 248.473 66.4671 248.473 65.9171C248.473 65.3671 247.378 64.9171 246.04 64.9171C243.363 64.9171 243.178 64.5281 241.4 55.1671C240.747 51.7301 239.844 48.9171 239.394 48.9171C238.944 48.9171 237.793 46.4371 236.838 43.4061C235.882 40.3751 234.332 37.0701 233.393 36.0621C232.454 35.0541 230.965 32.8361 230.085 31.1341C229.205 29.4311 227.666 27.4491 226.666 26.7281C225.666 26.0071 223.779 23.9541 222.473 22.1671C221.166 20.3801 219.766 18.9171 219.362 18.9171C218.958 18.9171 217.285 17.6801 215.644 16.1671C210.627 11.5411 206.989 9.10612 202.382 7.29112C199.957 6.33612 197.731 5.20212 197.436 4.77212C197.141 4.34112 193.091 3.07612 188.436 1.96012C178.493 -0.423881 160.866 -0.670881 150.34 1.42612ZM180.143 10.9331C186.919 12.0331 201.611 18.3541 206.011 22.0621C214.258 29.0151 215.969 30.7141 220.016 35.9721C228.635 47.1741 233.473 61.4481 233.473 75.6771C233.473 82.4251 234.966 84.9171 239.009 84.9171C241.689 84.9171 243.473 82.3561 243.473 78.5081C243.473 76.1891 243.756 76.0181 246.723 76.5491C262.477 79.3691 274.613 87.6381 282.486 100.917C289.215 112.266 291.172 126.087 287.972 139.658C283.664 157.929 266.264 174.069 247.785 176.937C243.25 177.64 208.878 177.897 144.973 177.705L48.9733 177.417L42.9733 174.556C39.6733 172.983 36.0733 171.336 34.9733 170.897C29.8123 168.836 19.0293 158.011 16.8123 152.667C15.9563 150.605 14.9143 148.917 14.4963 148.917C13.1573 148.917 10.2723 136.76 9.76134 128.965C8.06534 103.096 27.4033 79.9881 53.7203 76.4361C58.5953 75.7781 60.4733 74.0261 60.4733 70.1381C60.4733 67.7801 57.7273 65.2131 54.7183 64.7581C52.5263 64.4261 52.5713 64.2591 56.3633 58.6871C64.1013 47.3161 75.4133 39.0731 87.0933 36.2921C90.8773 35.3911 94.7543 34.2631 95.7093 33.7851C98.0923 32.5941 106.214 32.6891 106.973 33.9171C107.313 34.4671 109.027 34.9131 110.782 34.9091C112.537 34.9041 117.052 35.6891 120.815 36.6541L127.657 38.4071L129.607 36.0001C132.122 32.8941 131.678 30.9211 127.911 28.4521L124.872 26.4601L129.422 22.8841C135.302 18.2641 146.365 13.0911 153.973 11.4051C161.295 9.78312 171.879 9.59212 180.143 10.9331ZM71.2233 67.9971C70.1113 68.6451 69.4733 70.2301 69.4733 72.3451C69.4733 75.0471 69.9913 75.8791 72.2233 76.7611C78.1913 79.1201 80.2223 79.1681 82.3863 77.0041C85.9113 73.4791 84.9343 70.8431 79.2203 68.4561C74.9513 66.6721 73.6283 66.5961 71.2233 67.9971ZM231.076 95.8031C230.09 96.8931 228.683 99.5021 227.95 101.601C226.246 106.476 227.806 109.417 232.095 109.417C234.54 109.417 235.335 108.687 237.379 104.563C239.261 100.768 239.584 99.1311 238.861 97.0631C237.677 93.6741 233.599 93.0151 231.076 95.8031Z" fill="#BFBDC0"/>
<path fill-rule="evenodd" clip-rule="evenodd" d="M150.34 1.42612C146.692 2.15312 141.067 3.97612 137.84 5.47712C131.446 8.45112 118.477 16.6621 118.466 17.7441C118.462 18.1141 117 19.3871 115.216 20.5731C112.418 22.4331 110.215 22.7831 99.1573 23.1211C92.1083 23.3361 86.0333 23.9481 85.6573 24.4801C85.2813 25.0121 81.7013 26.4821 77.7023 27.7471C73.7033 29.0111 69.6533 30.8181 68.7023 31.7621C67.7513 32.7061 65.6863 34.1291 64.1143 34.9251C60.7563 36.6241 50.6333 46.8511 48.4733 50.7261C47.6483 52.2061 46.4513 53.7541 45.8133 54.1661C45.1763 54.5781 43.6083 57.8301 42.3313 61.3931C40.1453 67.4871 39.7173 67.9961 35.1073 69.9791C32.4123 71.1391 29.2823 72.9491 28.1513 74.0021C27.0213 75.0551 25.6233 75.9171 25.0453 75.9171C24.0663 75.9171 23.0083 76.8181 16.4733 83.2161C9.99634 89.5571 5.18134 97.0041 2.24134 105.224C0.33534 110.554 0.0233406 113.507 0.00034063 126.417C-0.0266594 141.656 1.55134 150.808 4.77534 154.106C5.48134 154.827 6.70134 156.992 7.48734 158.917C8.74634 161.999 11.9773 166.077 16.9953 170.917C22.7133 176.432 25.6063 178.544 30.4673 180.749C33.4953 182.122 36.1983 183.562 36.4733 183.947C36.7483 184.332 39.9273 185.383 43.5373 186.282C49.3913 187.74 60.8483 187.917 149.473 187.917C238.098 187.917 249.555 187.74 255.409 186.282C259.019 185.383 262.198 184.332 262.473 183.947C262.748 183.562 265.604 182.052 268.821 180.592C272.037 179.132 275.557 176.808 276.643 175.428C277.729 174.047 279.276 172.917 280.079 172.917C280.883 172.917 282.446 171.382 283.553 169.506C284.66 167.63 286.218 165.845 287.016 165.539C287.814 165.232 289.481 162.83 290.72 160.199C291.959 157.569 293.531 154.827 294.213 154.106C297.41 150.724 298.973 141.58 298.946 126.417C298.923 113.31 298.627 110.597 296.601 104.918C295.327 101.343 293.937 98.1931 293.513 97.9181C293.089 97.6421 291.78 95.5201 290.604 93.2001C289.428 90.8811 287.568 88.5031 286.47 87.9151C285.372 87.3281 284.473 86.1981 284.473 85.4051C284.473 84.6121 283.235 83.1681 281.723 82.1951C280.211 81.2231 278.153 79.4121 277.15 78.1721C276.148 76.9321 274.686 75.9171 273.9 75.9171C273.115 75.9171 271.532 74.9761 270.383 73.8271C267.991 71.4351 255.512 66.9171 251.298 66.9171C249.744 66.9171 248.473 66.4671 248.473 65.9171C248.473 65.3671 247.378 64.9171 246.04 64.9171C243.363 64.9171 243.178 64.5281 241.4 55.1671C240.747 51.7301 239.844 48.9171 239.394 48.9171C238.944 48.9171 237.793 46.4371 236.838 43.4061C235.882 40.3751 234.332 37.0701 233.393 36.0621C232.454 35.0541 230.965 32.8361 230.085 31.1341C229.205 29.4311 227.666 27.4491 226.666 26.7281C225.666 26.0071 223.779 23.9541 222.473 22.1671C221.166 20.3801 219.766 18.9171 219.362 18.9171C218.958 18.9171 217.285 17.6801 215.644 16.1671C210.627 11.5411 206.989 9.10612 202.382 7.29112C199.957 6.33612 197.731 5.20212 197.436 4.77212C197.141 4.34112 193.091 3.07612 188.436 1.96012C178.493 -0.423881 160.866 -0.670881 150.34 1.42612ZM183.158 11.3551C195.582 13.9771 208.898 22.2861 218.102 33.1601C227.854 44.6821 233.429 59.3881 233.458 73.6671C233.47 79.5711 233.844 81.2881 235.473 82.9171C236.573 84.0171 238 84.9171 238.644 84.9171C240.895 84.9171 243.473 81.5831 243.473 78.6741C243.473 75.7841 243.534 75.7511 247.667 76.4501C266.621 79.6521 282.682 93.9881 287.961 112.417C290.229 120.332 290.221 132.675 287.942 140.917C284.591 153.041 274.577 165.62 263.416 171.723C251.726 178.117 255.369 177.918 149.829 177.902C43.7433 177.886 47.3033 178.088 35.4223 171.406C23.6413 164.781 15.2163 154.465 11.4443 142.046C9.61134 136.012 9.32434 133.144 9.70334 124.62C10.3393 110.333 13.8413 101.657 22.9443 91.8181C30.2853 83.8841 45.7733 75.9171 53.8563 75.9171C56.8533 75.9171 60.4733 73.1901 60.4733 70.9321C60.4733 68.3271 57.7953 65.9171 54.9023 65.9171C50.4673 65.9171 52.5883 61.3101 61.5093 51.5601C69.0613 43.3081 75.4553 39.3281 86.9093 35.7501C95.7613 32.9851 97.7363 32.7091 105.016 33.2231C109.51 33.5401 115.991 34.7441 119.417 35.8981C126.18 38.1761 129.027 37.8981 129.989 34.8661C130.951 31.8361 129.561 28.9011 126.637 27.7891L123.973 26.7751L127.473 23.8121C132.686 19.3971 145.991 12.9011 152.896 11.3981C161.077 9.61812 174.833 9.59812 183.158 11.3551ZM71.5503 68.5761C68.4473 70.7491 68.8723 74.5551 72.4233 76.3911C78.1853 79.3711 83.4733 77.9101 83.4733 73.3391C83.4733 70.6401 82.0173 69.4101 77.3003 68.1231C74.4483 67.3451 73.1633 67.4461 71.5503 68.5761ZM231.72 95.1671C229.651 97.7601 227.473 102.905 227.473 105.198C227.473 106.681 228.369 108.059 229.848 108.85C233.317 110.706 235.963 108.862 237.873 103.257C239.838 97.4891 239.838 97.4251 237.902 95.4881C236.013 93.6001 233.092 93.4481 231.72 95.1671Z" fill="#A8A6A8"/>
<path fill-rule="evenodd" clip-rule="evenodd" d="M150.34 1.42612C146.692 2.15312 141.067 3.97612 137.84 5.47712C131.446 8.45112 118.477 16.6621 118.466 17.7441C118.462 18.1141 117 19.3871 115.216 20.5731C112.418 22.4331 110.215 22.7831 99.1573 23.1211C92.1083 23.3361 86.0333 23.9481 85.6573 24.4801C85.2813 25.0121 81.7013 26.4821 77.7023 27.7471C73.7033 29.0111 69.6533 30.8181 68.7023 31.7621C67.7513 32.7061 65.6863 34.1291 64.1143 34.9251C60.7563 36.6241 50.6333 46.8511 48.4733 50.7261C47.6483 52.2061 46.4513 53.7541 45.8133 54.1661C45.1763 54.5781 43.6083 57.8301 42.3313 61.3931C40.1453 67.4871 39.7173 67.9961 35.1073 69.9791C32.4123 71.1391 29.2823 72.9491 28.1513 74.0021C27.0213 75.0551 25.6233 75.9171 25.0453 75.9171C24.0663 75.9171 23.0083 76.8181 16.4733 83.2161C9.99634 89.5571 5.18134 97.0041 2.24134 105.224C0.33534 110.554 0.0233406 113.507 0.00034063 126.417C-0.0266594 141.656 1.55134 150.808 4.77534 154.106C5.48134 154.827 6.70134 156.992 7.48734 158.917C8.74634 161.999 11.9773 166.077 16.9953 170.917C22.7133 176.432 25.6063 178.544 30.4673 180.749C33.4953 182.122 36.1983 183.562 36.4733 183.947C36.7483 184.332 39.9273 185.383 43.5373 186.282C49.3913 187.74 60.8483 187.917 149.473 187.917C238.098 187.917 249.555 187.74 255.409 186.282C259.019 185.383 262.198 184.332 262.473 183.947C262.748 183.562 265.604 182.052 268.821 180.592C272.037 179.132 275.557 176.808 276.643 175.428C277.729 174.047 279.276 172.917 280.079 172.917C280.883 172.917 282.446 171.382 283.553 169.506C284.66 167.63 286.218 165.845 287.016 165.539C287.814 165.232 289.481 162.83 290.72 160.199C291.959 157.569 293.531 154.827 294.213 154.106C297.41 150.724 298.973 141.58 298.946 126.417C298.923 113.31 298.627 110.597 296.601 104.918C295.327 101.343 293.937 98.1931 293.513 97.9181C293.089 97.6421 291.78 95.5201 290.604 93.2001C289.428 90.8811 287.568 88.5031 286.47 87.9151C285.372 87.3281 284.473 86.1981 284.473 85.4051C284.473 84.6121 283.235 83.1681 281.723 82.1951C280.211 81.2231 278.153 79.4121 277.15 78.1721C276.148 76.9321 274.686 75.9171 273.9 75.9171C273.115 75.9171 271.532 74.9761 270.383 73.8271C267.991 71.4351 255.512 66.9171 251.298 66.9171C249.744 66.9171 248.473 66.4671 248.473 65.9171C248.473 65.3671 247.378 64.9171 246.04 64.9171C243.363 64.9171 243.178 64.5281 241.4 55.1671C240.747 51.7301 239.844 48.9171 239.394 48.9171C238.944 48.9171 237.793 46.4371 236.838 43.4061C235.882 40.3751 234.332 37.0701 233.393 36.0621C232.454 35.0541 230.965 32.8361 230.085 31.1341C229.205 29.4311 227.666 27.4491 226.666 26.7281C225.666 26.0071 223.779 23.9541 222.473 22.1671C221.166 20.3801 219.766 18.9171 219.362 18.9171C218.958 18.9171 217.285 17.6801 215.644 16.1671C210.627 11.5411 206.989 9.10612 202.382 7.29112C199.957 6.33612 197.731 5.20212 197.436 4.77212C197.141 4.34112 193.091 3.07612 188.436 1.96012C178.493 -0.423881 160.866 -0.670881 150.34 1.42612ZM184.233 11.4231C197.012 14.4361 210.606 23.2591 219.242 34.1471C228.94 46.3731 233.431 58.6981 233.458 73.1671C233.47 79.5711 233.82 81.2641 235.473 82.9171C236.573 84.0171 237.923 84.9171 238.473 84.9171C240.512 84.9171 243.473 80.8241 243.473 78.0061V75.0941L249.232 76.4381C259.83 78.9101 270.635 84.9501 277.153 92.0441C280.857 96.0771 286.33 105.927 288.133 111.809C290.643 119.993 290.444 133.558 287.683 142.484C282.805 158.256 268.224 172.336 252.566 176.393C243.67 178.698 55.2183 178.683 46.3163 176.376C30.7873 172.352 16.2003 158.185 11.3513 142.417C5.95334 124.863 9.89234 106.133 21.9433 92.0441C28.1483 84.7911 40.5583 78.1731 52.2623 75.8761C58.8913 74.5751 61.1313 72.5651 59.9833 68.9491C59.3643 66.9981 54.3143 65.2791 52.4973 66.4021C49.8453 68.0411 53.3333 61.2221 58.8413 53.9981C67.5813 42.5361 84.0313 34.0081 99.0643 33.1471C107.023 32.6901 112.366 33.4441 121.685 36.3361C126.007 37.6781 126.579 37.6521 128.586 36.0271C131.681 33.5201 130.547 29.4871 126.334 28.0181L123.182 26.9201L127.577 23.5991C134.421 18.4301 143.357 13.8621 150.473 11.8941C158.708 9.61812 175.579 9.38212 184.233 11.4231ZM70.6733 69.1171C67.4613 72.3291 72.1043 77.9171 77.9853 77.9171C81.9773 77.9171 83.9133 75.8081 83.0573 72.3951C82.0753 68.4841 73.5603 66.2301 70.6733 69.1171ZM230.492 97.1271C227.237 102.479 226.885 106.022 229.405 108.063C233.643 111.495 238.723 106.096 238.723 98.1601C238.723 93.1241 233.337 92.4481 230.492 97.1271Z" fill="#89888A"/>
<path fill-rule="evenodd" clip-rule="evenodd" d="M150.34 1.42612C146.692 2.15312 141.067 3.97612 137.84 5.47712C131.446 8.45112 118.477 16.6621 118.466 17.7441C118.462 18.1141 117 19.3871 115.216 20.5731C112.418 22.4331 110.215 22.7831 99.1573 23.1211C92.1083 23.3361 86.0333 23.9481 85.6573 24.4801C85.2813 25.0121 81.7013 26.4821 77.7023 27.7471C73.7033 29.0111 69.6533 30.8181 68.7023 31.7621C67.7513 32.7061 65.6863 34.1291 64.1143 34.9251C60.7563 36.6241 50.6333 46.8511 48.4733 50.7261C47.6483 52.2061 46.4513 53.7541 45.8133 54.1661C45.1763 54.5781 43.6083 57.8301 42.3313 61.3931C40.1453 67.4871 39.7173 67.9961 35.1073 69.9791C32.4123 71.1391 29.2823 72.9491 28.1513 74.0021C27.0213 75.0551 25.6233 75.9171 25.0453 75.9171C24.0663 75.9171 23.0083 76.8181 16.4733 83.2161C9.99634 89.5571 5.18134 97.0041 2.24134 105.224C0.33534 110.554 0.0233406 113.507 0.00034063 126.417C-0.0266594 141.656 1.55134 150.808 4.77534 154.106C5.48134 154.827 6.70134 156.992 7.48734 158.917C8.74634 161.999 11.9773 166.077 16.9953 170.917C22.7133 176.432 25.6063 178.544 30.4673 180.749C33.4953 182.122 36.1983 183.562 36.4733 183.947C36.7483 184.332 39.9273 185.383 43.5373 186.282C49.3913 187.74 60.8483 187.917 149.473 187.917C238.098 187.917 249.555 187.74 255.409 186.282C259.019 185.383 262.198 184.332 262.473 183.947C262.748 183.562 265.604 182.052 268.821 180.592C272.037 179.132 275.557 176.808 276.643 175.428C277.729 174.047 279.276 172.917 280.079 172.917C280.883 172.917 282.446 171.382 283.553 169.506C284.66 167.63 286.218 165.845 287.016 165.539C287.814 165.232 289.481 162.83 290.72 160.199C291.959 157.569 293.531 154.827 294.213 154.106C297.41 150.724 298.973 141.58 298.946 126.417C298.923 113.31 298.627 110.597 296.601 104.918C295.327 101.343 293.937 98.1931 293.513 97.9181C293.089 97.6421 291.78 95.5201 290.604 93.2001C289.428 90.8811 287.568 88.5031 286.47 87.9151C285.372 87.3281 284.473 86.1981 284.473 85.4051C284.473 84.6121 283.235 83.1681 281.723 82.1951C280.211 81.2231 278.153 79.4121 277.15 78.1721C276.148 76.9321 274.686 75.9171 273.9 75.9171C273.115 75.9171 271.532 74.9761 270.383 73.8271C267.991 71.4351 255.512 66.9171 251.298 66.9171C249.744 66.9171 248.473 66.4671 248.473 65.9171C248.473 65.3671 247.378 64.9171 246.04 64.9171C243.363 64.9171 243.178 64.5281 241.4 55.1671C240.747 51.7301 239.844 48.9171 239.394 48.9171C238.944 48.9171 237.793 46.4371 236.838 43.4061C235.882 40.3751 234.332 37.0701 233.393 36.0621C232.454 35.0541 230.965 32.8361 230.085 31.1341C229.205 29.4311 227.666 27.4491 226.666 26.7281C225.666 26.0071 223.779 23.9541 222.473 22.1671C221.166 20.3801 219.766 18.9171 219.362 18.9171C218.958 18.9171 217.285 17.6801 215.644 16.1671C210.627 11.5411 206.989 9.10612 202.382 7.29112C199.957 6.33612 197.731 5.20212 197.436 4.77212C197.141 4.34112 193.091 3.07612 188.436 1.96012C178.493 -0.423881 160.866 -0.670881 150.34 1.42612ZM185.463 11.4151C201.912 15.6771 219.279 30.0261 227.222 45.9171C231.611 54.6991 234.473 66.9071 234.473 76.8481C234.473 81.7711 235.731 83.9171 238.616 83.9171C240.81 83.9171 243.473 80.2061 243.473 77.1491C243.473 75.0171 243.781 74.8791 247.223 75.4701C264.36 78.4121 280.35 91.3381 286.626 107.324C292.798 123.042 291.482 139.184 282.859 153.558C276.331 164.438 267.127 171.799 254.663 176.105L247.973 178.417H149.973C57.2423 178.417 51.6503 178.317 45.9733 176.557C29.7673 171.532 18.8073 161.478 12.2183 145.594C9.86934 139.929 9.13634 136.415 8.74234 128.917C8.29834 120.478 8.54234 118.524 10.9253 111.417C14.3063 101.339 18.0773 95.4251 25.5163 88.5381C32.2143 82.3361 39.4753 78.5751 49.2153 76.2611C57.9613 74.1831 58.9043 73.6791 59.3183 70.8711C59.7503 67.9401 56.9673 65.7551 53.8113 66.5471C50.3523 67.4151 50.8173 65.1271 55.5393 58.0561C62.9813 46.9121 75.7803 37.7851 88.8453 34.3061C95.7883 32.4581 109.704 32.5731 116.473 34.5351C125.93 37.2761 128.159 37.3721 129.381 35.0891C130.846 32.3511 129.83 30.1531 126.24 28.2961L123.249 26.7501L126.611 23.8331C131.709 19.4111 147.105 12.1481 154.973 10.4541C163.385 8.64212 176.34 9.05012 185.463 11.4151ZM71.1043 69.7721C68.8383 72.2761 69.9553 74.6741 74.2163 76.4541C78.9313 78.4241 80.7553 78.2971 82.2553 75.8941C85.5383 70.6381 75.3713 65.0571 71.1043 69.7721ZM232.762 94.7171C232.096 95.1411 230.615 97.6031 229.47 100.19C227.03 105.706 227.956 108.917 231.985 108.917C234.93 108.917 237.324 105.612 238.174 100.373C238.654 97.4121 238.392 96.3311 236.937 95.2671C234.816 93.7161 234.42 93.6641 232.762 94.7171Z" fill="#4E4E4E"/>
<path fill-rule="evenodd" clip-rule="evenodd" d="M150.34 1.42612C146.692 2.15312 141.067 3.97612 137.84 5.47712C131.446 8.45112 118.477 16.6621 118.466 17.7441C118.462 18.1141 117 19.3871 115.216 20.5731C112.418 22.4331 110.215 22.7831 99.1573 23.1211C92.1083 23.3361 86.0333 23.9481 85.6573 24.4801C85.2813 25.0121 81.7013 26.4821 77.7023 27.7471C73.7033 29.0111 69.6533 30.8181 68.7023 31.7621C67.7513 32.7061 65.6863 34.1291 64.1143 34.9251C60.7563 36.6241 50.6333 46.8511 48.4733 50.7261C47.6483 52.2061 46.4513 53.7541 45.8133 54.1661C45.1763 54.5781 43.6083 57.8301 42.3313 61.3931C40.1453 67.4871 39.7173 67.9961 35.1073 69.9791C32.4123 71.1391 29.2823 72.9491 28.1513 74.0021C27.0213 75.0551 25.6233 75.9171 25.0453 75.9171C24.0663 75.9171 23.0083 76.8181 16.4733 83.2161C9.99634 89.5571 5.18134 97.0041 2.24134 105.224C0.33534 110.554 0.0233406 113.507 0.00034063 126.417C-0.0266594 141.656 1.55134 150.808 4.77534 154.106C5.48134 154.827 6.70134 156.992 7.48734 158.917C8.74634 161.999 11.9773 166.077 16.9953 170.917C22.7133 176.432 25.6063 178.544 30.4673 180.749C33.4953 182.122 36.1983 183.562 36.4733 183.947C36.7483 184.332 39.9273 185.383 43.5373 186.282C49.3913 187.74 60.8483 187.917 149.473 187.917C238.098 187.917 249.555 187.74 255.409 186.282C259.019 185.383 262.198 184.332 262.473 183.947C262.748 183.562 265.604 182.052 268.821 180.592C272.037 179.132 275.557 176.808 276.643 175.428C277.729 174.047 279.276 172.917 280.079 172.917C280.883 172.917 282.446 171.382 283.553 169.506C284.66 167.63 286.218 165.845 287.016 165.539C287.814 165.232 289.481 162.83 290.72 160.199C291.959 157.569 293.531 154.827 294.213 154.106C297.41 150.724 298.973 141.58 298.946 126.417C298.923 113.31 298.627 110.597 296.601 104.918C295.327 101.343 293.937 98.1931 293.513 97.9181C293.089 97.6421 291.78 95.5201 290.604 93.2001C289.428 90.8811 287.568 88.5031 286.47 87.9151C285.372 87.3281 284.473 86.1981 284.473 85.4051C284.473 84.6121 283.235 83.1681 281.723 82.1951C280.211 81.2231 278.153 79.4121 277.15 78.1721C276.148 76.9321 274.686 75.9171 273.9 75.9171C273.115 75.9171 271.532 74.9761 270.383 73.8271C267.991 71.4351 255.512 66.9171 251.298 66.9171C249.744 66.9171 248.473 66.4671 248.473 65.9171C248.473 65.3671 247.378 64.9171 246.04 64.9171C243.363 64.9171 243.178 64.5281 241.4 55.1671C240.747 51.7301 239.844 48.9171 239.394 48.9171C238.944 48.9171 237.793 46.4371 236.838 43.4061C235.882 40.3751 234.332 37.0701 233.393 36.0621C232.454 35.0541 230.965 32.8361 230.085 31.1341C229.205 29.4311 227.666 27.4491 226.666 26.7281C225.666 26.0071 223.779 23.9541 222.473 22.1671C221.166 20.3801 219.766 18.9171 219.362 18.9171C218.958 18.9171 217.285 17.6801 215.644 16.1671C210.627 11.5411 206.989 9.10612 202.382 7.29112C199.957 6.33612 197.731 5.20212 197.436 4.77212C197.141 4.34112 193.091 3.07612 188.436 1.96012C178.493 -0.423881 160.866 -0.670881 150.34 1.42612ZM185.989 11.4501C213.206 19.3371 232.359 42.8171 234.091 70.4171C234.746 80.8561 235.139 82.5751 237.037 83.3031C239.693 84.3221 242.323 82.1531 242.66 78.6661C242.969 75.4551 243.029 75.4201 247.778 75.6651C255.36 76.0561 267.734 82.4891 275.272 89.9571C295.432 109.931 296.165 141.014 276.965 161.752C269.89 169.394 263.634 173.382 253.849 176.488L246.047 178.964L147.51 178.675L48.9733 178.386L42.4713 175.871C23.5553 168.551 10.9253 152.557 8.55534 132.917C5.79434 110.042 18.1503 88.7401 39.8993 78.8781C43.6373 77.1831 48.8953 75.5361 51.5833 75.2181C58.0233 74.4551 59.9623 73.0001 59.1013 69.5731C58.5203 67.2551 57.9293 66.9171 54.4543 66.9171C52.2643 66.9171 50.4733 66.6381 50.4733 66.2981C50.4733 64.3281 58.3353 53.2721 63.1853 48.4221C69.3763 42.2311 81.0263 35.7041 89.1683 33.8651C97.2613 32.0361 111.462 32.5311 119.49 34.9221C127.295 37.2471 129.473 36.7001 129.473 32.4161C129.473 30.8521 128.553 29.7781 126.473 28.9171C124.823 28.2341 123.473 27.3191 123.473 26.8851C123.473 25.4711 129.277 21.1651 136.704 17.0691C151.875 8.70012 169.548 6.68512 185.989 11.4501ZM72.2233 69.0051C70.1883 70.1811 69.9173 73.2371 71.7233 74.6491C74.1863 76.5751 79.0883 77.7121 80.7993 76.7551C83.3053 75.3521 82.9363 71.0411 80.2233 70.0261C75.3983 68.2211 73.9103 68.0311 72.2233 69.0051ZM230.129 99.1491C228.094 104.476 228.051 106.322 229.925 107.877C232.206 109.77 235.034 108.217 236.919 104.036C239.423 98.4851 238.738 95.4921 234.879 95.1151C232.055 94.8401 231.639 95.1931 230.129 99.1491Z" fill="#2C2C2C"/>
<path fill-rule="evenodd" clip-rule="evenodd" d="M150.34 1.42612C146.692 2.15312 141.067 3.97612 137.84 5.47712C131.446 8.45112 118.477 16.6621 118.466 17.7441C118.462 18.1141 117 19.3871 115.216 20.5731C112.418 22.4331 110.215 22.7831 99.1573 23.1211C92.1083 23.3361 86.0333 23.9481 85.6573 24.4801C85.2813 25.0121 81.7013 26.4821 77.7023 27.7471C73.7033 29.0111 69.6533 30.8181 68.7023 31.7621C67.7513 32.7061 65.6863 34.1291 64.1143 34.9251C60.7563 36.6241 50.6333 46.8511 48.4733 50.7261C47.6483 52.2061 46.4513 53.7541 45.8133 54.1661C45.1763 54.5781 43.6083 57.8301 42.3313 61.3931C40.1453 67.4871 39.7173 67.9961 35.1073 69.9791C32.4123 71.1391 29.2823 72.9491 28.1513 74.0021C27.0213 75.0551 25.6233 75.9171 25.0453 75.9171C24.0663 75.9171 23.0083 76.8181 16.4733 83.2161C9.99634 89.5571 5.18134 97.0041 2.24134 105.224C0.33534 110.554 0.0233406 113.507 0.00034063 126.417C-0.0266594 141.656 1.55134 150.808 4.77534 154.106C5.48134 154.827 6.70134 156.992 7.48734 158.917C8.74634 161.999 11.9773 166.077 16.9953 170.917C22.7133 176.432 25.6063 178.544 30.4673 180.749C33.4953 182.122 36.1983 183.562 36.4733 183.947C36.7483 184.332 39.9273 185.383 43.5373 186.282C49.3913 187.74 60.8483 187.917 149.473 187.917C238.098 187.917 249.555 187.74 255.409 186.282C259.019 185.383 262.198 184.332 262.473 183.947C262.748 183.562 265.604 182.052 268.821 180.592C272.037 179.132 275.557 176.808 276.643 175.428C277.729 174.047 279.276 172.917 280.079 172.917C280.883 172.917 282.446 171.382 283.553 169.506C284.66 167.63 286.218 165.845 287.016 165.539C287.814 165.232 289.481 162.83 290.72 160.199C291.959 157.569 293.531 154.827 294.213 154.106C297.41 150.724 298.973 141.58 298.946 126.417C298.923 113.31 298.627 110.597 296.601 104.918C295.327 101.343 293.937 98.1931 293.513 97.9181C293.089 97.6421 291.78 95.5201 290.604 93.2001C289.428 90.8811 287.568 88.5031 286.47 87.9151C285.372 87.3281 284.473 86.1981 284.473 85.4051C284.473 84.6121 283.235 83.1681 281.723 82.1951C280.211 81.2231 278.153 79.4121 277.15 78.1721C276.148 76.9321 274.686 75.9171 273.9 75.9171C273.115 75.9171 271.532 74.9761 270.383 73.8271C267.991 71.4351 255.512 66.9171 251.298 66.9171C249.744 66.9171 248.473 66.4671 248.473 65.9171C248.473 65.3671 247.378 64.9171 246.04 64.9171C243.363 64.9171 243.178 64.5281 241.4 55.1671C240.747 51.7301 239.844 48.9171 239.394 48.9171C238.944 48.9171 237.793 46.4371 236.838 43.4061C235.882 40.3751 234.332 37.0701 233.393 36.0621C232.454 35.0541 230.965 32.8361 230.085 31.1341C229.205 29.4311 227.666 27.4491 226.666 26.7281C225.666 26.0071 223.779 23.9541 222.473 22.1671C221.166 20.3801 219.766 18.9171 219.362 18.9171C218.958 18.9171 217.285 17.6801 215.644 16.1671C210.627 11.5411 206.989 9.10612 202.382 7.29112C199.957 6.33612 197.731 5.20212 197.436 4.77212C197.141 4.34112 193.091 3.07612 188.436 1.96012C178.493 -0.423881 160.866 -0.670881 150.34 1.42612ZM187.008 11.4901C213.169 19.3481 234.473 46.0541 234.473 70.9911C234.473 79.6941 235.654 82.9171 238.841 82.9171C241.407 82.9171 242.473 81.2791 242.473 77.3351C242.473 75.3091 242.965 74.9171 245.505 74.9171C249.798 74.9171 260.088 78.5441 265.973 82.1311C273.684 86.8311 282.204 96.3601 286.092 104.632C295.249 124.112 291.222 147.856 276.176 163.097C269.837 169.518 264.558 172.881 254.749 176.747L247.973 179.417H149.473H50.9733L44.1973 176.747C28.8763 170.709 19.5903 162.462 13.2313 149.245C3.45434 128.927 7.19134 106.24 22.9163 90.4371C30.0523 83.2661 41.4793 76.7141 48.9733 75.4981C56.9943 74.1961 58.3173 73.7671 58.8863 72.2831C59.9753 69.4461 57.6423 66.9171 53.9383 66.9171C52.0323 66.9171 50.4733 66.4721 50.4733 65.9271C50.4733 63.4371 59.7713 50.8171 64.7213 46.5881C71.5133 40.7861 81.2073 35.6021 88.4733 33.8881C96.2443 32.0551 109.64 32.2891 118.601 34.4151C122.796 35.4111 126.99 35.9331 127.921 35.5751C130.175 34.7101 129.567 30.7711 126.973 29.4421C122.464 27.1301 122.414 26.9081 125.742 23.9881C129.298 20.8681 134.099 17.8471 139.473 15.3491C156.039 7.64712 170.346 6.48612 187.008 11.4901ZM71.6073 70.2551C68.7893 73.6511 75.9593 78.4791 80.9653 76.5581C82.8663 75.8291 82.9233 72.5351 81.0623 70.9911C78.6343 68.9761 73.0313 68.5401 71.6073 70.2551ZM230.351 99.4591C228.102 104.544 228.179 106.702 230.664 108.268C232.96 109.713 235.76 107.107 237.467 101.935C238.524 98.7341 238.53 97.6901 237.5 96.4491C235.087 93.5421 232.484 94.6381 230.351 99.4591Z" fill="#171717"/>
<path fill-rule="evenodd" clip-rule="evenodd" d="M150.34 1.42612C146.692 2.15312 141.067 3.97612 137.84 5.47712C131.446 8.45112 118.477 16.6621 118.466 17.7441C118.462 18.1141 117 19.3871 115.216 20.5731C112.418 22.4331 110.215 22.7831 99.1573 23.1211C92.1083 23.3361 86.0333 23.9481 85.6573 24.4801C85.2813 25.0121 81.7013 26.4821 77.7023 27.7471C73.7033 29.0111 69.6533 30.8181 68.7023 31.7621C67.7513 32.7061 65.6863 34.1291 64.1143 34.9251C60.7563 36.6241 50.6333 46.8511 48.4733 50.7261C47.6483 52.2061 46.4513 53.7541 45.8133 54.1661C45.1763 54.5781 43.6083 57.8301 42.3313 61.3931C40.1453 67.4871 39.7173 67.9961 35.1073 69.9791C32.4123 71.1391 29.2823 72.9491 28.1513 74.0021C27.0213 75.0551 25.6233 75.9171 25.0453 75.9171C24.0663 75.9171 23.0083 76.8181 16.4733 83.2161C9.99634 89.5571 5.18134 97.0041 2.24134 105.224C0.33534 110.554 0.0233406 113.507 0.00034063 126.417C-0.0266594 141.656 1.55134 150.808 4.77534 154.106C5.48134 154.827 6.70134 156.992 7.48734 158.917C8.74634 161.999 11.9773 166.077 16.9953 170.917C22.7133 176.432 25.6063 178.544 30.4673 180.749C33.4953 182.122 36.1983 183.562 36.4733 183.947C36.7483 184.332 39.9273 185.383 43.5373 186.282C49.3913 187.74 60.8483 187.917 149.473 187.917C238.098 187.917 249.555 187.74 255.409 186.282C259.019 185.383 262.198 184.332 262.473 183.947C262.748 183.562 265.604 182.052 268.821 180.592C272.037 179.132 275.557 176.808 276.643 175.428C277.729 174.047 279.276 172.917 280.079 172.917C280.883 172.917 282.446 171.382 283.553 169.506C284.66 167.63 286.218 165.845 287.016 165.539C287.814 165.232 289.481 162.83 290.72 160.199C291.959 157.569 293.531 154.827 294.213 154.106C297.41 150.724 298.973 141.58 298.946 126.417C298.923 113.31 298.627 110.597 296.601 104.918C295.327 101.343 293.937 98.1931 293.513 97.9181C293.089 97.6421 291.78 95.5201 290.604 93.2001C289.428 90.8811 287.568 88.5031 286.47 87.9151C285.372 87.3281 284.473 86.1981 284.473 85.4051C284.473 84.6121 283.235 83.1681 281.723 82.1951C280.211 81.2231 278.153 79.4121 277.15 78.1721C276.148 76.9321 274.686 75.9171 273.9 75.9171C273.115 75.9171 271.532 74.9761 270.383 73.8271C267.991 71.4351 255.512 66.9171 251.298 66.9171C249.744 66.9171 248.473 66.4671 248.473 65.9171C248.473 65.3671 247.378 64.9171 246.04 64.9171C243.363 64.9171 243.178 64.5281 241.4 55.1671C240.747 51.7301 239.844 48.9171 239.394 48.9171C238.944 48.9171 237.793 46.4371 236.838 43.4061C235.882 40.3751 234.332 37.0701 233.393 36.0621C232.454 35.0541 230.965 32.8361 230.085 31.1341C229.205 29.4311 227.666 27.4491 226.666 26.7281C225.666 26.0071 223.779 23.9541 222.473 22.1671C221.166 20.3801 219.766 18.9171 219.362 18.9171C218.958 18.9171 217.285 17.6801 215.644 16.1671C210.627 11.5411 206.989 9.10612 202.382 7.29112C199.957 6.33612 197.731 5.20212 197.436 4.77212C197.141 4.34112 193.091 3.07612 188.436 1.96012C178.493 -0.423881 160.866 -0.670881 150.34 1.42612ZM178.58 9.00212C182.425 9.59812 186.786 10.7201 188.272 11.4951C189.757 12.2711 191.537 12.9071 192.227 12.9111C193.752 12.9181 198.12 15.2661 205.596 20.0971C211.96 24.2081 220.813 32.9311 223.176 37.4171C224.045 39.0671 225.564 41.4551 226.553 42.7241C227.541 43.9921 229.112 47.3671 230.044 50.2241C230.975 53.0801 232.098 55.8761 232.538 56.4381C233.32 57.4361 235.202 70.4581 235.715 78.4171C235.943 81.9481 236.266 82.4171 238.473 82.4171C240.568 82.4171 241.054 81.8501 241.473 78.9171C241.916 75.8181 242.348 75.3811 245.244 75.1021C251.884 74.4631 265.041 79.7731 271.863 85.8451C283.143 95.8861 288.858 105.914 290.564 118.658C292.99 136.79 287.827 152.067 275.129 164.324C270.628 168.669 265.932 172.124 262.473 173.636C259.448 174.958 256.174 176.473 255.197 177.003C250.358 179.628 234.74 180.01 143.973 179.719L49.9733 179.417L41.7043 176.072C34.5643 173.184 30.6263 170.683 23.4733 164.496C16.2693 158.265 9.72934 145.23 8.24934 134.153C5.71834 115.216 11.7363 100.032 27.6353 85.2421C31.8923 81.2821 43.6213 76.0001 49.6803 75.3141C56.9713 74.4891 58.9903 73.1131 58.1013 69.5731C57.5183 67.2461 56.9343 66.9171 53.3923 66.9171H49.3483L52.1613 61.7071C58.6453 49.6941 72.9463 38.1071 85.9733 34.3111C94.2163 31.9091 109.747 31.9401 119.09 34.3771C126.914 36.4181 129.473 36.0531 129.473 32.8971C129.473 31.4631 128.384 30.3601 125.973 29.3531C124.048 28.5481 122.473 27.5251 122.473 27.0781C122.473 24.7941 137.709 14.9091 144.352 12.8821C146.343 12.2751 148.887 11.3361 150.003 10.7961C155.399 8.18712 168.163 7.38512 178.58 9.00212ZM72.2073 69.5161C71.8033 69.9201 71.4733 71.2561 71.4733 72.4861C71.4733 74.7401 75.4433 76.9171 79.5553 76.9171C81.8863 76.9171 83.1043 73.1071 81.3263 71.3781C79.7033 69.8011 73.2423 68.4811 72.2073 69.5161ZM233.283 95.6541C232.288 95.8811 230.904 98.1131 229.919 101.079C228.427 105.57 228.409 106.282 229.754 107.626C230.774 108.646 231.782 108.844 232.868 108.236C234.58 107.278 238.473 100.335 238.473 98.2411C238.473 96.6421 235.481 95.1501 233.283 95.6541Z" fill="black"/>
</svg>
