<svg width="300" height="248" viewBox="0 0 300 248" fill="none" xmlns="http://www.w3.org/2000/svg">
<path fill-rule="evenodd" clip-rule="evenodd" d="M36.7989 1.49618C33.8189 2.52418 30.1459 5.04218 26.7989 8.35018C19.4549 15.6112 18.9489 16.3492 16.9909 22.6772C15.5569 27.3132 14.7769 28.4072 12.4689 29.0242C8.53587 30.0762 2.16687 36.6282 1.00187 40.8202C-0.590129 46.5512 -0.151129 53.6122 2.12587 58.9062C3.76187 62.7092 5.41087 64.5702 9.37587 67.0912L14.5089 70.3552L33.2449 70.6832L51.9809 71.0102L53.1559 68.4332C54.1509 66.2482 54.9809 65.8552 58.6019 65.8552C61.9939 65.8552 63.0049 66.2662 63.5079 67.8532C63.8569 68.9512 65.1249 70.0912 66.3259 70.3862C67.5259 70.6802 118.647 70.7942 179.926 70.6382C270.899 70.4072 291.423 70.1142 291.781 69.0402C292.022 68.3172 293.284 67.3212 294.586 66.8262C301.239 64.2962 301.819 43.5992 295.304 41.1532C294.317 40.7822 293 39.7992 292.377 38.9682C291.549 37.8632 288.665 37.3452 281.627 37.0372C273.283 36.6722 272.009 36.3842 272.009 34.8612C272.009 32.1302 269.103 24.4672 267.646 23.3552C266.925 22.8052 265.815 21.3782 265.179 20.1842C264.543 18.9902 261.432 16.5432 258.266 14.7472C252.944 11.7292 251.807 11.4772 243.224 11.4192C237.525 11.3802 233.663 11.7782 233.224 12.4512C232.831 13.0542 231.384 13.8312 230.009 14.1782C227.3 14.8622 221.913 19.5452 219.368 23.4302C217.984 25.5422 217.019 25.8552 211.894 25.8552C208.637 25.8552 206.009 26.3022 206.009 26.8552C206.009 27.4052 205.257 27.8552 204.338 27.8552C203.418 27.8552 200.726 29.8802 198.354 32.3552L194.043 36.8552H184.004C174.541 36.8552 173.907 36.7252 172.933 34.5872C171.842 32.1942 166.212 27.8552 164.197 27.8552C163.544 27.8552 163.009 27.4052 163.009 26.8552C163.009 26.3002 160.359 25.8552 157.059 25.8552C152.4 25.8552 149.997 26.4692 145.986 28.6852C143.168 30.2422 140.32 32.6042 139.657 33.9352C138.463 36.3332 138.301 36.3572 121.684 36.6292C103.034 36.9352 103.907 37.2182 100.217 29.6622C98.2989 25.7352 96.9289 24.4712 91.8079 21.9122C88.4429 20.2312 84.9409 18.8552 84.0269 18.8552C83.0559 18.8552 81.4319 16.9892 80.1269 14.3762C78.8969 11.9132 76.5669 9.11618 74.9499 8.16118C73.3319 7.20518 72.0089 6.08218 72.0089 5.66418C72.0089 5.24718 69.8709 3.90618 67.2589 2.68418C60.9039 -0.286819 43.8909 -0.949819 36.7989 1.49618ZM111.259 74.3512C109.516 76.3312 109.698 81.4012 111.58 83.2842C112.925 84.6282 116.716 84.8532 137.83 84.8412C151.404 84.8342 163.51 84.5592 164.734 84.2312C167.856 83.3942 168.937 77.5382 166.473 74.8152C164.796 72.9622 163.278 72.8572 138.604 72.8932C117.353 72.9242 112.277 73.1952 111.259 74.3512ZM172.25 74.8412C170.545 77.5722 170.695 81.3982 172.58 83.2842C174.749 85.4522 185.269 85.4522 187.438 83.2842C189.342 81.3792 189.432 76.9972 187.617 74.6052C185.576 71.9172 173.964 72.0952 172.25 74.8412ZM235.123 81.8542C228.548 85.0172 221.503 91.2662 219.06 96.1052C218.296 97.6182 216.868 98.8552 215.887 98.8552C214.137 98.8552 208.994 100.804 208.009 101.84C207.734 102.13 205.934 103.539 204.009 104.972C202.002 106.465 199.916 109.236 199.118 111.466C197.467 116.082 196.536 116.819 192.338 116.84C189.668 116.853 189.07 116.41 188.548 114.035C187.73 110.307 181.396 103.882 177.837 103.171C176.282 102.86 175.009 102.211 175.009 101.73C175.009 101.249 172.759 100.855 170.009 100.855C167.259 100.855 165.009 101.305 165.009 101.855C165.009 102.405 164.209 102.855 163.232 102.855C162.254 102.855 160.383 103.605 159.073 104.523C157.41 105.688 155 106.121 151.077 105.961C147.989 105.835 144.348 106.157 142.986 106.676C139.96 107.829 133.009 114.068 133.009 115.631C133.009 116.254 131.322 117.048 129.259 117.394C121.618 118.677 119.355 119.87 116.488 124.129C114.19 127.544 113.648 129.434 113.666 133.975C113.678 137.067 114.215 140.217 114.859 140.975C115.504 141.734 116.895 143.512 117.952 144.926C121.487 149.657 124.009 149.855 180.867 149.855C232.909 149.855 234.018 149.814 235.241 147.855C236.979 145.072 243.244 145.117 245.865 147.931C247.719 149.921 248.626 149.994 267.654 149.681C286.591 149.37 287.698 149.243 291.597 146.926C297.247 143.569 300.024 137.358 299.964 128.213C299.895 117.74 295.585 111.195 286.799 108.221C285.797 107.882 284.46 105.477 283.568 102.41C282.731 99.5322 280.658 95.4182 278.96 93.2662C275.383 88.7342 268.313 82.8552 266.44 82.8552C265.731 82.8552 264.401 82.1042 263.483 81.1872C262.203 79.9062 259.454 79.4332 251.662 79.1512C242.009 78.8012 241.194 78.9342 235.123 81.8542ZM46.2589 92.9742C44.4709 93.4902 43.0089 94.3252 43.0089 94.8292C43.0089 95.3332 41.7849 96.3332 40.2879 97.0502C38.7919 97.7682 37.0429 99.4082 36.4019 100.694C35.4569 102.59 34.2899 103.099 30.2409 103.378C21.6199 103.975 14.2019 109.805 14.0509 116.105C14.0249 117.189 13.2289 117.855 11.9589 117.855C5.65687 117.855 0.0088706 125.252 0.0088706 133.507C0.0088706 139.811 2.67087 144.749 7.61287 147.612C11.5019 149.865 11.5819 149.869 51.5089 149.612C87.5629 149.38 91.8279 149.181 94.7419 147.588C99.1279 145.191 101.209 140.771 101.209 133.855C101.209 123.655 96.5309 118.652 85.7589 117.33C80.3939 116.672 80.0089 116.448 80.0029 113.99C79.9949 109.801 78.0159 103.795 76.4469 103.193C75.6559 102.889 75.0089 102.047 75.0089 101.321C75.0089 100.594 73.7719 99.0722 72.2589 97.9382C70.7459 96.8052 68.9579 95.4152 68.2849 94.8512C64.7289 91.8702 53.4189 90.9062 46.2589 92.9742ZM43.0089 162.855C43.0089 163.405 42.1659 163.855 41.1359 163.855C35.9039 163.855 21.0089 173.933 21.0089 177.473C21.0089 178.115 20.3649 178.888 19.5769 179.191C18.7889 179.493 17.3899 182.43 16.4679 185.717C15.1329 190.475 14.3069 191.814 12.4179 192.288C9.00787 193.144 2.93787 198.781 1.35987 202.557C-0.713129 207.519 -0.363129 218.149 2.04887 223.442C3.66487 226.99 5.06687 228.38 8.79887 230.137C11.3889 231.357 13.6589 232.692 13.8419 233.105C14.0259 233.518 42.6409 233.855 77.4319 233.855H140.688L141.827 231.355C142.769 229.288 143.667 228.855 147.009 228.855C150.351 228.855 151.249 229.288 152.191 231.355L153.33 233.855H221.212C267.573 233.855 289.476 233.519 290.301 232.796C290.965 232.213 292.882 230.924 294.56 229.931C299.761 226.855 301.711 215.749 298.257 208.875C295.383 203.154 290.91 200.857 282.611 200.841L275.509 200.828L271.658 196.368C269.018 193.311 266.737 191.707 264.408 191.27C262.538 190.919 261.009 190.232 261.009 189.744C261.009 189.255 260.127 188.855 259.049 188.855C257.971 188.855 254.985 186.605 252.412 183.855C249.84 181.105 247.154 178.855 246.444 178.855C245.733 178.855 244.489 178.192 243.678 177.381C240.201 173.904 223.091 173.066 219.713 176.207C219.034 176.838 216.72 178.255 214.57 179.355C210.765 181.301 205.009 187.931 205.009 190.366C205.009 191.082 202.865 191.826 199.759 192.187C195.24 192.712 194.013 193.358 190.947 196.826L187.385 200.855H173.774H160.163L157.096 197.788C153.65 194.343 149.505 192.855 143.347 192.855C138.383 192.855 136.009 192.077 136.009 190.451C136.009 189.796 134.277 187.57 132.16 185.502C123.528 177.074 106.172 177.082 98.2879 185.518L96.0679 187.895L91.2879 185.383C88.6599 184.002 85.3739 182.468 83.9879 181.975C82.6009 181.482 80.8159 179.791 80.0209 178.217C77.4419 173.111 70.0809 167.148 64.0869 165.309C61.0189 164.368 58.0819 163.206 57.5589 162.726C56.2279 161.506 43.0089 161.622 43.0089 162.855ZM43.2589 238.351C41.9259 239.865 41.6169 243.671 42.6159 246.273C43.0869 247.5 44.7419 247.855 49.9949 247.855C56.5729 247.855 56.8019 247.77 58.0069 244.861C59.0519 242.337 58.9889 241.473 57.6049 239.361C56.1629 237.16 55.2659 236.86 50.2359 236.893C46.5839 236.917 44.0559 237.445 43.2589 238.351ZM63.2589 238.351C61.9259 239.865 61.6169 243.671 62.6159 246.273C63.1499 247.664 66.6379 247.855 91.5089 247.855C122.428 247.855 121.009 248.138 121.009 241.973C121.009 236.925 120.584 236.852 91.5589 236.893C69.4829 236.924 64.2789 237.192 63.2589 238.351Z" fill="#DDE9ED"/>
<path fill-rule="evenodd" clip-rule="evenodd" d="M36.7989 1.49618C33.8189 2.52418 30.1459 5.04218 26.7989 8.35018C19.4549 15.6112 18.9489 16.3492 16.9909 22.6772C15.5569 27.3132 14.7769 28.4072 12.4689 29.0242C8.53587 30.0762 2.16687 36.6282 1.00187 40.8202C-0.590129 46.5512 -0.151129 53.6122 2.12587 58.9062C3.76187 62.7092 5.41087 64.5702 9.37587 67.0912L14.5089 70.3552L32.9619 70.6872C49.7039 70.9892 51.5359 70.8552 52.7119 69.2462C54.4689 66.8442 54.3459 63.3342 52.4379 61.4262C51.1389 60.1282 48.0589 59.8542 34.6879 59.8512C20.2819 59.8482 18.1499 59.6292 15.2339 57.8512C11.3419 55.4782 9.64287 51.6372 10.3959 46.9152C11.1059 42.4642 13.9279 39.7202 19.7119 37.8552C24.6009 36.2792 25.1649 35.4252 26.4639 27.6482C27.4129 21.9712 33.7729 14.6332 40.1069 11.9082C44.4869 10.0242 46.6729 9.70018 52.4689 10.0762C62.9799 10.7582 66.9809 13.3122 73.6629 23.6052C75.8509 26.9772 77.7679 28.8552 79.0189 28.8552C82.5619 28.8552 89.0049 32.0392 90.8829 34.7192C91.8999 36.1692 93.2939 39.1552 93.9809 41.3552C94.6679 43.5552 95.9409 45.9182 96.8099 46.6052C97.9669 47.5202 104.318 47.8552 120.478 47.8552C138.849 47.8552 142.938 47.5932 144.786 46.2982C146.009 45.4422 147.009 44.0722 147.009 43.2532C147.009 40.2962 151.705 36.8552 155.741 36.8552C160.565 36.8552 163.545 38.9202 164.975 43.2532C165.668 45.3522 166.935 46.8692 168.302 47.2362C171.173 48.0062 197.845 48.0062 200.716 47.2362C202.083 46.8692 203.35 45.3522 204.043 43.2532C204.658 41.3872 206.128 39.1852 207.308 38.3582C209.728 36.6632 215.244 36.3752 217.913 37.8042C220.614 39.2492 223.777 37.9592 224.812 34.9912C227.62 26.9362 243.651 17.2302 246.509 21.8552C246.849 22.4052 247.933 22.8552 248.918 22.8552C249.903 22.8552 252.509 24.1592 254.71 25.7532C259.175 28.9882 262 34.7322 262.024 40.6252C262.051 47.0332 262.607 47.3202 275.721 47.6692C288.562 48.0102 290.009 48.6442 290.009 53.9242C290.009 59.6232 295.941 59.3132 176.509 59.8552C85.1269 60.2702 66.0329 60.5892 64.6619 61.7272C62.5649 63.4692 62.5349 67.2382 64.6009 69.3042C66.0419 70.7452 76.9059 70.8712 178.768 70.6262C270.706 70.4052 291.423 70.1142 291.781 69.0402C292.022 68.3172 293.284 67.3212 294.586 66.8262C301.239 64.2962 301.819 43.5992 295.304 41.1532C294.317 40.7822 293 39.7992 292.377 38.9682C291.549 37.8632 288.665 37.3452 281.627 37.0372C273.283 36.6722 272.009 36.3842 272.009 34.8612C272.009 32.1302 269.103 24.4672 267.646 23.3552C266.925 22.8052 265.815 21.3782 265.179 20.1842C264.543 18.9902 261.432 16.5432 258.266 14.7472C252.944 11.7292 251.807 11.4772 243.224 11.4192C237.525 11.3802 233.663 11.7782 233.224 12.4512C232.831 13.0542 231.384 13.8312 230.009 14.1782C227.3 14.8622 221.913 19.5452 219.368 23.4302C217.984 25.5422 217.019 25.8552 211.894 25.8552C208.637 25.8552 206.009 26.3022 206.009 26.8552C206.009 27.4052 205.257 27.8552 204.338 27.8552C203.418 27.8552 200.726 29.8802 198.354 32.3552L194.043 36.8552H184.004C174.541 36.8552 173.907 36.7252 172.933 34.5872C171.842 32.1942 166.212 27.8552 164.197 27.8552C163.544 27.8552 163.009 27.4052 163.009 26.8552C163.009 26.3002 160.359 25.8552 157.059 25.8552C152.4 25.8552 149.997 26.4692 145.986 28.6852C143.168 30.2422 140.32 32.6042 139.657 33.9352C138.463 36.3332 138.301 36.3572 121.684 36.6292C103.034 36.9352 103.907 37.2182 100.217 29.6622C98.2989 25.7352 96.9289 24.4712 91.8079 21.9122C88.4429 20.2312 84.9409 18.8552 84.0269 18.8552C83.0559 18.8552 81.4319 16.9892 80.1269 14.3762C78.8969 11.9132 76.5669 9.11618 74.9499 8.16118C73.3319 7.20518 72.0089 6.08218 72.0089 5.66418C72.0089 5.24718 69.8709 3.90618 67.2589 2.68418C60.9039 -0.286819 43.8909 -0.949819 36.7989 1.49618ZM111.259 74.3512C109.516 76.3312 109.698 81.4012 111.58 83.2842C112.925 84.6282 116.716 84.8532 137.83 84.8412C151.404 84.8342 163.51 84.5592 164.734 84.2312C167.856 83.3942 168.937 77.5382 166.473 74.8152C164.796 72.9622 163.278 72.8572 138.604 72.8932C117.353 72.9242 112.277 73.1952 111.259 74.3512ZM172.25 74.8412C170.545 77.5722 170.695 81.3982 172.58 83.2842C174.749 85.4522 185.269 85.4522 187.438 83.2842C189.342 81.3792 189.432 76.9972 187.617 74.6052C185.576 71.9172 173.964 72.0952 172.25 74.8412ZM235.123 81.8542C228.548 85.0172 221.503 91.2662 219.06 96.1052C218.296 97.6182 216.868 98.8552 215.887 98.8552C214.137 98.8552 208.994 100.804 208.009 101.84C207.734 102.13 205.934 103.539 204.009 104.972C202.002 106.465 199.916 109.236 199.118 111.466C197.467 116.082 196.536 116.819 192.338 116.84C189.668 116.853 189.07 116.41 188.548 114.035C187.73 110.307 181.396 103.882 177.837 103.171C176.282 102.86 175.009 102.211 175.009 101.73C175.009 101.249 172.759 100.855 170.009 100.855C167.259 100.855 165.009 101.305 165.009 101.855C165.009 102.405 164.209 102.855 163.232 102.855C162.254 102.855 160.383 103.605 159.073 104.523C157.41 105.688 155 106.121 151.077 105.961C147.989 105.835 144.348 106.157 142.986 106.676C139.96 107.829 133.009 114.068 133.009 115.631C133.009 116.254 131.322 117.048 129.259 117.394C121.618 118.677 119.355 119.87 116.488 124.129C114.19 127.544 113.648 129.434 113.666 133.975C113.678 137.067 114.215 140.217 114.859 140.975C115.504 141.734 116.895 143.512 117.952 144.926C121.487 149.657 124.009 149.855 180.867 149.855C232.909 149.855 234.018 149.814 235.241 147.855C236.979 145.072 243.244 145.117 245.865 147.931C247.719 149.921 248.626 149.994 267.654 149.681C286.591 149.37 287.698 149.243 291.597 146.926C297.247 143.569 300.024 137.358 299.964 128.213C299.895 117.74 295.585 111.195 286.799 108.221C285.797 107.882 284.46 105.477 283.568 102.41C282.731 99.5322 280.658 95.4182 278.96 93.2662C275.383 88.7342 268.313 82.8552 266.44 82.8552C265.731 82.8552 264.401 82.1042 263.483 81.1872C262.203 79.9062 259.454 79.4332 251.662 79.1512C242.009 78.8012 241.194 78.9342 235.123 81.8542ZM46.2589 92.9742C44.4709 93.4902 43.0089 94.3252 43.0089 94.8292C43.0089 95.3332 41.7849 96.3332 40.2879 97.0502C38.7919 97.7682 37.0429 99.4082 36.4019 100.694C35.4569 102.59 34.2899 103.099 30.2409 103.378C21.6199 103.975 14.2019 109.805 14.0509 116.105C14.0249 117.189 13.2289 117.855 11.9589 117.855C5.65687 117.855 0.0088706 125.252 0.0088706 133.507C0.0088706 139.811 2.67087 144.749 7.61287 147.612C11.5019 149.865 11.5819 149.869 51.5089 149.612C87.5629 149.38 91.8279 149.181 94.7419 147.588C99.1279 145.191 101.209 140.771 101.209 133.855C101.209 123.655 96.5309 118.652 85.7589 117.33C80.3939 116.672 80.0089 116.448 80.0029 113.99C79.9949 109.801 78.0159 103.795 76.4469 103.193C75.6559 102.889 75.0089 102.047 75.0089 101.321C75.0089 100.594 73.7719 99.0722 72.2589 97.9382C70.7459 96.8052 68.9579 95.4152 68.2849 94.8512C64.7289 91.8702 53.4189 90.9062 46.2589 92.9742ZM64.4569 105.51C68.5479 108.893 70.3719 114.254 69.4729 120.248C68.5189 126.607 70.2269 127.855 79.8889 127.855C89.2339 127.855 91.3049 128.994 90.8379 133.876C90.2779 139.724 89.5909 139.824 49.7589 139.84C15.3319 139.854 13.9349 139.781 12.0089 137.855C8.27187 134.118 10.6019 127.855 15.7299 127.855C19.8639 127.855 21.9429 126.004 23.1379 121.258C24.6079 115.418 27.1589 113.744 34.2319 113.975C40.0269 114.164 42.0089 113.531 42.0089 111.492C42.0089 109.823 47.8889 104.224 51.0089 102.922C54.9679 101.271 60.6549 102.366 64.4569 105.51ZM43.0089 162.855C43.0089 163.405 42.1659 163.855 41.1359 163.855C35.9039 163.855 21.0089 173.933 21.0089 177.473C21.0089 178.115 20.3649 178.888 19.5769 179.191C18.7889 179.493 17.3899 182.43 16.4679 185.717C15.1329 190.475 14.3069 191.814 12.4179 192.288C9.00787 193.144 2.93787 198.781 1.35987 202.557C-0.713129 207.519 -0.363129 218.149 2.04887 223.442C3.66487 226.99 5.06687 228.38 8.79887 230.137C11.3889 231.357 13.6589 232.692 13.8419 233.105C14.0259 233.518 42.6409 233.855 77.4319 233.855H140.688L141.827 231.355C142.769 229.288 143.667 228.855 147.009 228.855C150.351 228.855 151.249 229.288 152.191 231.355L153.33 233.855H221.212C267.573 233.855 289.476 233.519 290.301 232.796C290.965 232.213 292.882 230.924 294.56 229.931C299.761 226.855 301.711 215.749 298.257 208.875C295.383 203.154 290.91 200.857 282.611 200.841L275.509 200.828L271.658 196.368C269.018 193.311 266.737 191.707 264.408 191.27C262.538 190.919 261.009 190.232 261.009 189.744C261.009 189.255 260.127 188.855 259.049 188.855C257.971 188.855 254.985 186.605 252.412 183.855C249.84 181.105 247.154 178.855 246.444 178.855C245.733 178.855 244.489 178.192 243.678 177.381C240.201 173.904 223.091 173.066 219.713 176.207C219.034 176.838 216.72 178.255 214.57 179.355C210.765 181.301 205.009 187.931 205.009 190.366C205.009 191.082 202.865 191.826 199.759 192.187C195.24 192.712 194.013 193.358 190.947 196.826L187.385 200.855H173.774H160.163L157.096 197.788C153.65 194.343 149.505 192.855 143.347 192.855C138.383 192.855 136.009 192.077 136.009 190.451C136.009 189.796 134.277 187.57 132.16 185.502C123.528 177.074 106.172 177.082 98.2879 185.518L96.0679 187.895L91.2879 185.383C88.6599 184.002 85.3739 182.468 83.9879 181.975C82.6009 181.482 80.8159 179.791 80.0209 178.217C77.4419 173.111 70.0809 167.148 64.0869 165.309C61.0189 164.368 58.0819 163.206 57.5589 162.726C56.2279 161.506 43.0089 161.622 43.0089 162.855ZM43.2589 238.351C41.9259 239.865 41.6169 243.671 42.6159 246.273C43.0869 247.5 44.7419 247.855 49.9949 247.855C56.5729 247.855 56.8019 247.77 58.0069 244.861C59.0519 242.337 58.9889 241.473 57.6049 239.361C56.1629 237.16 55.2659 236.86 50.2359 236.893C46.5839 236.917 44.0559 237.445 43.2589 238.351ZM63.2589 238.351C61.9259 239.865 61.6169 243.671 62.6159 246.273C63.1499 247.664 66.6379 247.855 91.5089 247.855C122.428 247.855 121.009 248.138 121.009 241.973C121.009 236.925 120.584 236.852 91.5589 236.893C69.4829 236.924 64.2789 237.192 63.2589 238.351Z" fill="#A0ECFF"/>
<path fill-rule="evenodd" clip-rule="evenodd" d="M36.7989 1.49618C33.8189 2.52418 30.1459 5.04218 26.7989 8.35018C19.4549 15.6112 18.9489 16.3492 16.9909 22.6772C15.5569 27.3132 14.7769 28.4072 12.4689 29.0242C8.53587 30.0762 2.16687 36.6282 1.00187 40.8202C-0.590129 46.5512 -0.151129 53.6122 2.12587 58.9062C3.76187 62.7092 5.41087 64.5702 9.37587 67.0912L14.5089 70.3552L32.9619 70.6872C49.7039 70.9892 51.5359 70.8552 52.7119 69.2462C54.4689 66.8442 54.3459 63.3342 52.4379 61.4262C51.1389 60.1282 48.0589 59.8542 34.6879 59.8512C20.2819 59.8482 18.1499 59.6292 15.2339 57.8512C11.3419 55.4782 9.64287 51.6372 10.3959 46.9152C11.1059 42.4642 13.9279 39.7202 19.7119 37.8552C24.6009 36.2792 25.1649 35.4252 26.4639 27.6482C27.4129 21.9712 33.7729 14.6332 40.1069 11.9082C44.4869 10.0242 46.6729 9.70018 52.4689 10.0762C62.9799 10.7582 66.9809 13.3122 73.6629 23.6052C75.8509 26.9772 77.7679 28.8552 79.0189 28.8552C82.5619 28.8552 89.0049 32.0392 90.8829 34.7192C91.8999 36.1692 93.2939 39.1552 93.9809 41.3552C94.6679 43.5552 95.9409 45.9182 96.8099 46.6052C97.9669 47.5202 104.318 47.8552 120.478 47.8552C138.849 47.8552 142.938 47.5932 144.786 46.2982C146.009 45.4422 147.009 44.0722 147.009 43.2532C147.009 40.2962 151.705 36.8552 155.741 36.8552C160.565 36.8552 163.545 38.9202 164.975 43.2532C165.668 45.3522 166.935 46.8692 168.302 47.2362C171.173 48.0062 197.845 48.0062 200.716 47.2362C202.083 46.8692 203.35 45.3522 204.043 43.2532C204.658 41.3872 206.128 39.1852 207.308 38.3582C209.728 36.6632 215.244 36.3752 217.913 37.8042C220.614 39.2492 223.777 37.9592 224.812 34.9912C226.932 28.9092 237.359 20.8552 243.113 20.8552C245.502 20.8552 254.109 24.6362 256.365 26.6762C259.5 29.5112 262.009 35.5492 262.009 40.2582C262.009 46.9052 263.907 47.8552 277.196 47.8552C287.002 47.8552 288.034 48.0342 289.035 49.9042C290.765 53.1372 289.827 57.1492 287.009 58.5672C285.046 59.5552 261.176 59.8292 175.982 59.8402C79.3899 59.8532 67.2099 60.0262 65.2319 61.4122C62.6299 63.2342 62.3269 67.0302 64.6009 69.3042C66.0419 70.7452 76.9059 70.8712 178.768 70.6262C270.706 70.4052 291.423 70.1142 291.781 69.0402C292.022 68.3172 293.284 67.3212 294.586 66.8262C301.239 64.2962 301.819 43.5992 295.304 41.1532C294.317 40.7822 293 39.7992 292.377 38.9682C291.549 37.8632 288.665 37.3452 281.627 37.0372C273.283 36.6722 272.009 36.3842 272.009 34.8612C272.009 32.1302 269.103 24.4672 267.646 23.3552C266.925 22.8052 265.815 21.3782 265.179 20.1842C264.543 18.9902 261.432 16.5432 258.266 14.7472C252.944 11.7292 251.807 11.4772 243.224 11.4192C237.525 11.3802 233.663 11.7782 233.224 12.4512C232.831 13.0542 231.384 13.8312 230.009 14.1782C227.3 14.8622 221.913 19.5452 219.368 23.4302C217.984 25.5422 217.019 25.8552 211.894 25.8552C208.637 25.8552 206.009 26.3022 206.009 26.8552C206.009 27.4052 205.257 27.8552 204.338 27.8552C203.418 27.8552 200.726 29.8802 198.354 32.3552L194.043 36.8552H184.004C174.541 36.8552 173.907 36.7252 172.933 34.5872C171.842 32.1942 166.212 27.8552 164.197 27.8552C163.544 27.8552 163.009 27.4052 163.009 26.8552C163.009 26.3002 160.359 25.8552 157.059 25.8552C152.4 25.8552 149.997 26.4692 145.986 28.6852C143.168 30.2422 140.32 32.6042 139.657 33.9352C138.463 36.3332 138.301 36.3572 121.684 36.6292C103.034 36.9352 103.907 37.2182 100.217 29.6622C98.2989 25.7352 96.9289 24.4712 91.8079 21.9122C88.4429 20.2312 84.9409 18.8552 84.0269 18.8552C83.0559 18.8552 81.4319 16.9892 80.1269 14.3762C78.8969 11.9132 76.5669 9.11618 74.9499 8.16118C73.3319 7.20518 72.0089 6.08218 72.0089 5.66418C72.0089 5.24718 69.8709 3.90618 67.2589 2.68418C60.9039 -0.286819 43.8909 -0.949819 36.7989 1.49618ZM111.259 74.3512C109.516 76.3312 109.698 81.4012 111.58 83.2842C112.925 84.6282 116.716 84.8532 137.83 84.8412C151.404 84.8342 163.51 84.5592 164.734 84.2312C167.856 83.3942 168.937 77.5382 166.473 74.8152C164.796 72.9622 163.278 72.8572 138.604 72.8932C117.353 72.9242 112.277 73.1952 111.259 74.3512ZM172.25 74.8412C170.545 77.5722 170.695 81.3982 172.58 83.2842C174.749 85.4522 185.269 85.4522 187.438 83.2842C189.342 81.3792 189.432 76.9972 187.617 74.6052C185.576 71.9172 173.964 72.0952 172.25 74.8412ZM235.123 81.8542C228.548 85.0172 221.503 91.2662 219.06 96.1052C218.296 97.6182 216.868 98.8552 215.887 98.8552C214.137 98.8552 208.994 100.804 208.009 101.84C207.734 102.13 205.934 103.539 204.009 104.972C202.002 106.465 199.916 109.236 199.118 111.466C197.467 116.082 196.536 116.819 192.338 116.84C189.668 116.853 189.07 116.41 188.548 114.035C187.73 110.307 181.396 103.882 177.837 103.171C176.282 102.86 175.009 102.211 175.009 101.73C175.009 101.249 172.759 100.855 170.009 100.855C167.259 100.855 165.009 101.305 165.009 101.855C165.009 102.405 164.209 102.855 163.232 102.855C162.254 102.855 160.383 103.605 159.073 104.523C157.41 105.688 155 106.121 151.077 105.961C147.989 105.835 144.348 106.157 142.986 106.676C139.96 107.829 133.009 114.068 133.009 115.631C133.009 116.254 131.322 117.048 129.259 117.394C121.618 118.677 119.355 119.87 116.488 124.129C114.19 127.544 113.648 129.434 113.666 133.975C113.678 137.067 114.215 140.217 114.859 140.975C115.504 141.734 116.895 143.512 117.952 144.926C119.009 146.341 121.643 148.028 123.807 148.676C129.472 150.374 233.11 150.354 234.809 148.655C235.469 147.995 236.009 146.285 236.009 144.855C236.009 143.425 235.469 141.715 234.809 141.055C233.907 140.153 220.89 139.855 182.374 139.855C152.355 139.855 130.102 139.461 128.635 138.903C124.948 137.501 123.616 134.45 125.221 131.086C126.318 128.787 127.234 128.313 131.016 128.091C138.834 127.632 139.933 127.084 141.65 122.793C144.059 116.774 150.33 114.118 154.568 117.323C157.462 119.512 159.327 119.177 162.462 115.904C165.811 112.408 169.589 111.365 173.504 112.853C177.269 114.285 178.938 116.649 178.977 120.605C179.035 126.527 181.592 127.855 192.936 127.855C202.47 127.855 202.946 127.75 204.936 125.22C206.076 123.771 207.009 121.468 207.009 120.102C207.009 117.011 213.579 110.209 217.326 109.42C218.802 109.109 221.043 108.644 222.307 108.387C223.679 108.107 225.519 106.292 226.873 103.884C228.87 100.33 229.459 99.9272 231.824 100.495C241.512 102.825 250.597 111.427 252.944 120.489C253.637 123.166 254.362 125.892 254.554 126.549C254.746 127.206 256.762 128.3 259.033 128.98C261.584 129.745 264.279 131.573 266.086 133.764C270.813 139.499 270.357 139.854 258.259 139.861L247.509 139.868L245.773 142.918C244.111 145.838 244.117 146.055 245.918 147.988C247.705 149.906 248.799 149.991 267.654 149.681C286.591 149.37 287.698 149.243 291.597 146.926C297.247 143.569 300.024 137.358 299.964 128.213C299.895 117.74 295.585 111.195 286.799 108.221C285.797 107.882 284.46 105.477 283.568 102.41C282.731 99.5322 280.658 95.4182 278.96 93.2662C275.383 88.7342 268.313 82.8552 266.44 82.8552C265.731 82.8552 264.401 82.1042 263.483 81.1872C262.203 79.9062 259.454 79.4332 251.662 79.1512C242.009 78.8012 241.194 78.9342 235.123 81.8542ZM46.2589 92.9742C44.4709 93.4902 43.0089 94.3252 43.0089 94.8292C43.0089 95.3332 41.7849 96.3332 40.2879 97.0502C38.7919 97.7682 37.0429 99.4082 36.4019 100.694C35.4569 102.59 34.2899 103.099 30.2409 103.378C21.6199 103.975 14.2019 109.805 14.0509 116.105C14.0249 117.189 13.2289 117.855 11.9589 117.855C5.65687 117.855 0.0088706 125.252 0.0088706 133.507C0.0088706 139.811 2.67087 144.749 7.61287 147.612C11.5019 149.865 11.5819 149.869 51.5089 149.612C87.5629 149.38 91.8279 149.181 94.7419 147.588C99.1279 145.191 101.209 140.771 101.209 133.855C101.209 123.655 96.5309 118.652 85.7589 117.33C80.3939 116.672 80.0089 116.448 80.0029 113.99C79.9949 109.801 78.0159 103.795 76.4469 103.193C75.6559 102.889 75.0089 102.047 75.0089 101.321C75.0089 100.594 73.7719 99.0722 72.2589 97.9382C70.7459 96.8052 68.9579 95.4152 68.2849 94.8512C64.7289 91.8702 53.4189 90.9062 46.2589 92.9742ZM64.4569 105.51C68.5479 108.893 70.3719 114.254 69.4729 120.248C68.5189 126.607 70.2269 127.855 79.8889 127.855C89.2339 127.855 91.3049 128.994 90.8379 133.876C90.2779 139.724 89.5909 139.824 49.7589 139.84C15.3319 139.854 13.9349 139.781 12.0089 137.855C8.27187 134.118 10.6019 127.855 15.7299 127.855C19.8639 127.855 21.9429 126.004 23.1379 121.258C24.6079 115.418 27.1589 113.744 34.2319 113.975C40.0269 114.164 42.0089 113.531 42.0089 111.492C42.0089 109.823 47.8889 104.224 51.0089 102.922C54.9679 101.271 60.6549 102.366 64.4569 105.51ZM43.0089 162.855C43.0089 163.405 42.1659 163.855 41.1359 163.855C35.9039 163.855 21.0089 173.933 21.0089 177.473C21.0089 178.115 20.3649 178.888 19.5769 179.191C18.7889 179.493 17.3899 182.43 16.4679 185.717C15.1329 190.475 14.3069 191.814 12.4179 192.288C9.00787 193.144 2.93787 198.781 1.35987 202.557C-0.713129 207.519 -0.363129 218.149 2.04887 223.442C3.66487 226.99 5.06687 228.38 8.79887 230.137C11.3889 231.357 13.6589 232.692 13.8419 233.105C14.0259 233.518 42.6829 233.855 77.5249 233.855H140.874L141.633 231.605C142.697 228.453 142.103 225.531 140.161 224.355C139.131 223.732 115.209 223.167 76.6719 222.855L14.8349 222.355L12.4219 219.549C10.6639 217.505 10.0089 215.552 10.0089 212.355C10.0089 206.763 12.9019 203.287 18.9989 201.551C23.7199 200.207 23.8709 199.985 26.0279 191.167C26.5909 188.864 28.8159 184.749 30.9699 182.023C35.8699 175.825 41.7139 173.32 51.0089 173.436C60.8389 173.559 66.3739 176.919 72.5449 186.509C75.0919 190.467 76.6329 191.83 79.1849 192.381C84.6559 193.563 89.8739 196.693 91.4479 199.738C94.0389 204.748 100.305 204.509 101.6 199.35C101.937 198.004 104.024 195.267 106.237 193.268C110.102 189.777 110.499 189.65 116.3 190.07C121.873 190.473 122.594 190.809 125.644 194.431C127.461 196.589 129.239 199.705 129.594 201.355C129.949 203.005 130.693 204.918 131.247 205.605C132.409 207.047 137.009 207.308 137.009 205.933C137.009 204.468 143.553 202.702 146.364 203.408C147.77 203.761 150.095 205.59 151.53 207.472L154.141 210.894L175.302 210.625L196.462 210.355L197.472 207.355C198.804 203.4 200.586 202.355 205.999 202.355C210.389 202.355 210.55 202.239 213.312 197.105C215.161 193.667 216.778 191.855 217.995 191.855C220.642 191.855 228.077 197.771 230.927 202.144C232.786 204.999 234.005 205.855 236.209 205.855C241.046 205.855 245.73 208.477 248.576 212.776L251.275 216.855L258.392 216.857C263.187 216.858 266.632 217.429 268.949 218.607C277.175 222.787 276.297 222.855 214.247 222.855C159.388 222.855 155.211 222.976 153.754 224.605C151.787 226.805 151.408 228.739 152.38 231.605L153.144 233.855H221.119C267.545 233.855 289.476 233.519 290.301 232.796C290.965 232.213 292.882 230.924 294.56 229.931C299.761 226.855 301.711 215.749 298.257 208.875C295.383 203.154 290.91 200.857 282.611 200.841L275.509 200.828L271.658 196.368C269.018 193.311 266.737 191.707 264.408 191.27C262.538 190.919 261.009 190.232 261.009 189.744C261.009 189.255 260.127 188.855 259.049 188.855C257.971 188.855 254.985 186.605 252.412 183.855C249.84 181.105 247.154 178.855 246.444 178.855C245.733 178.855 244.489 178.192 243.678 177.381C240.201 173.904 223.091 173.066 219.713 176.207C219.034 176.838 216.72 178.255 214.57 179.355C210.765 181.301 205.009 187.931 205.009 190.366C205.009 191.082 202.865 191.826 199.759 192.187C195.24 192.712 194.013 193.358 190.947 196.826L187.385 200.855H173.774H160.163L157.096 197.788C153.65 194.343 149.505 192.855 143.347 192.855C138.383 192.855 136.009 192.077 136.009 190.451C136.009 189.796 134.277 187.57 132.16 185.502C123.528 177.074 106.172 177.082 98.2879 185.518L96.0679 187.895L91.2879 185.383C88.6599 184.002 85.3739 182.468 83.9879 181.975C82.6009 181.482 80.8159 179.791 80.0209 178.217C77.4419 173.111 70.0809 167.148 64.0869 165.309C61.0189 164.368 58.0819 163.206 57.5589 162.726C56.2279 161.506 43.0089 161.622 43.0089 162.855ZM43.2589 238.351C41.9259 239.865 41.6169 243.671 42.6159 246.273C43.0869 247.5 44.7419 247.855 49.9949 247.855C56.5729 247.855 56.8019 247.77 58.0069 244.861C59.0519 242.337 58.9889 241.473 57.6049 239.361C56.1629 237.16 55.2659 236.86 50.2359 236.893C46.5839 236.917 44.0559 237.445 43.2589 238.351ZM63.2589 238.351C61.9259 239.865 61.6169 243.671 62.6159 246.273C63.1499 247.664 66.6379 247.855 91.5089 247.855C122.428 247.855 121.009 248.138 121.009 241.973C121.009 236.925 120.584 236.852 91.5589 236.893C69.4829 236.924 64.2789 237.192 63.2589 238.351Z" fill="#60DAFF"/>
<path fill-rule="evenodd" clip-rule="evenodd" d="M36.7989 1.49618C33.8189 2.52418 30.1459 5.04218 26.7989 8.35018C19.4549 15.6112 18.9489 16.3492 16.9909 22.6772C15.5569 27.3132 14.7769 28.4072 12.4689 29.0242C8.53587 30.0762 2.16687 36.6282 1.00187 40.8202C-0.590129 46.5512 -0.151129 53.6122 2.12587 58.9062C3.76187 62.7092 5.41087 64.5702 9.37587 67.0912L14.5089 70.3552L32.9619 70.6872C49.7039 70.9892 51.5359 70.8552 52.7119 69.2462C54.4689 66.8442 54.3459 63.3342 52.4379 61.4262C51.1389 60.1282 48.0589 59.8542 34.6879 59.8512C20.2819 59.8482 18.1499 59.6292 15.2339 57.8512C11.3419 55.4782 9.64287 51.6372 10.3959 46.9152C11.1059 42.4642 13.9279 39.7202 19.7119 37.8552C24.6009 36.2792 25.1649 35.4252 26.4639 27.6482C27.4129 21.9712 33.7729 14.6332 40.1069 11.9082C44.4869 10.0242 46.6729 9.70018 52.4689 10.0762C62.9799 10.7582 66.9809 13.3122 73.6629 23.6052C75.8509 26.9772 77.7679 28.8552 79.0189 28.8552C82.5619 28.8552 89.0049 32.0392 90.8829 34.7192C91.8999 36.1692 93.2939 39.1552 93.9809 41.3552C94.6679 43.5552 95.9409 45.9182 96.8099 46.6052C97.9669 47.5202 104.318 47.8552 120.478 47.8552C138.849 47.8552 142.938 47.5932 144.786 46.2982C146.009 45.4422 147.009 44.0722 147.009 43.2532C147.009 40.2962 151.705 36.8552 155.741 36.8552C160.565 36.8552 163.545 38.9202 164.975 43.2532C165.668 45.3522 166.935 46.8692 168.302 47.2362C171.173 48.0062 197.845 48.0062 200.716 47.2362C202.083 46.8692 203.35 45.3522 204.043 43.2532C204.658 41.3872 206.128 39.1852 207.308 38.3582C209.728 36.6632 215.244 36.3752 217.913 37.8042C220.614 39.2492 223.777 37.9592 224.812 34.9912C226.932 28.9092 237.359 20.8552 243.113 20.8552C245.502 20.8552 254.109 24.6362 256.365 26.6762C259.5 29.5112 262.009 35.5492 262.009 40.2582C262.009 46.9052 263.907 47.8552 277.196 47.8552C287.002 47.8552 288.034 48.0342 289.035 49.9042C290.765 53.1372 289.827 57.1492 287.009 58.5672C285.046 59.5552 261.176 59.8292 175.982 59.8402C79.3899 59.8532 67.2099 60.0262 65.2319 61.4122C62.6299 63.2342 62.3269 67.0302 64.6009 69.3042C66.0419 70.7452 76.9059 70.8712 178.768 70.6262C270.706 70.4052 291.423 70.1142 291.781 69.0402C292.022 68.3172 293.284 67.3212 294.586 66.8262C301.239 64.2962 301.819 43.5992 295.304 41.1532C294.317 40.7822 293 39.7992 292.377 38.9682C291.549 37.8632 288.665 37.3452 281.627 37.0372C273.283 36.6722 272.009 36.3842 272.009 34.8612C272.009 32.1302 269.103 24.4672 267.646 23.3552C266.925 22.8052 265.815 21.3782 265.179 20.1842C264.543 18.9902 261.432 16.5432 258.266 14.7472C252.944 11.7292 251.807 11.4772 243.224 11.4192C237.525 11.3802 233.663 11.7782 233.224 12.4512C232.831 13.0542 231.384 13.8312 230.009 14.1782C227.3 14.8622 221.913 19.5452 219.368 23.4302C217.984 25.5422 217.019 25.8552 211.894 25.8552C208.637 25.8552 206.009 26.3022 206.009 26.8552C206.009 27.4052 205.257 27.8552 204.338 27.8552C203.418 27.8552 200.726 29.8802 198.354 32.3552L194.043 36.8552H184.004C174.541 36.8552 173.907 36.7252 172.933 34.5872C171.842 32.1942 166.212 27.8552 164.197 27.8552C163.544 27.8552 163.009 27.4052 163.009 26.8552C163.009 26.3002 160.359 25.8552 157.059 25.8552C152.4 25.8552 149.997 26.4692 145.986 28.6852C143.168 30.2422 140.32 32.6042 139.657 33.9352C138.463 36.3332 138.301 36.3572 121.684 36.6292C103.034 36.9352 103.907 37.2182 100.217 29.6622C98.2989 25.7352 96.9289 24.4712 91.8079 21.9122C88.4429 20.2312 84.9409 18.8552 84.0269 18.8552C83.0559 18.8552 81.4319 16.9892 80.1269 14.3762C78.8969 11.9132 76.5669 9.11618 74.9499 8.16118C73.3319 7.20518 72.0089 6.08218 72.0089 5.66418C72.0089 5.24718 69.8709 3.90618 67.2589 2.68418C60.9039 -0.286819 43.8909 -0.949819 36.7989 1.49618ZM111.259 74.3512C109.516 76.3312 109.698 81.4012 111.58 83.2842C112.925 84.6282 116.716 84.8532 137.83 84.8412C151.404 84.8342 163.51 84.5592 164.734 84.2312C167.856 83.3942 168.937 77.5382 166.473 74.8152C164.796 72.9622 163.278 72.8572 138.604 72.8932C117.353 72.9242 112.277 73.1952 111.259 74.3512ZM172.25 74.8412C170.545 77.5722 170.695 81.3982 172.58 83.2842C174.749 85.4522 185.269 85.4522 187.438 83.2842C189.342 81.3792 189.432 76.9972 187.617 74.6052C185.576 71.9172 173.964 72.0952 172.25 74.8412ZM235.123 81.8542C228.548 85.0172 221.503 91.2662 219.06 96.1052C218.296 97.6182 216.868 98.8552 215.887 98.8552C214.137 98.8552 208.994 100.804 208.009 101.84C207.734 102.13 205.934 103.539 204.009 104.972C202.002 106.465 199.916 109.236 199.118 111.466C197.467 116.082 196.536 116.819 192.338 116.84C189.668 116.853 189.07 116.41 188.548 114.035C187.73 110.307 181.396 103.882 177.837 103.171C176.282 102.86 175.009 102.211 175.009 101.73C175.009 101.249 172.759 100.855 170.009 100.855C167.259 100.855 165.009 101.305 165.009 101.855C165.009 102.405 164.209 102.855 163.232 102.855C162.254 102.855 160.383 103.605 159.073 104.523C157.41 105.688 155 106.121 151.077 105.961C147.989 105.835 144.348 106.157 142.986 106.676C139.96 107.829 133.009 114.068 133.009 115.631C133.009 116.254 131.322 117.048 129.259 117.394C121.618 118.677 119.355 119.87 116.488 124.129C114.19 127.544 113.648 129.434 113.666 133.975C113.678 137.067 114.215 140.217 114.859 140.975C115.504 141.734 116.895 143.512 117.952 144.926C119.009 146.341 121.643 148.028 123.807 148.676C129.472 150.374 233.11 150.354 234.809 148.655C235.469 147.995 236.009 146.285 236.009 144.855C236.009 143.425 235.469 141.715 234.809 141.055C233.907 140.153 220.89 139.855 182.374 139.855C152.355 139.855 130.102 139.461 128.635 138.903C124.948 137.501 123.616 134.45 125.221 131.086C126.318 128.787 127.234 128.313 131.016 128.091C138.834 127.632 139.933 127.084 141.65 122.793C144.059 116.774 150.33 114.118 154.568 117.323C157.462 119.512 159.327 119.177 162.462 115.904C165.811 112.408 169.589 111.365 173.504 112.853C177.269 114.285 178.938 116.649 178.977 120.605C179.035 126.527 181.592 127.855 192.936 127.855C202.47 127.855 202.946 127.75 204.936 125.22C206.076 123.771 207.009 121.468 207.009 120.102C207.009 117.011 213.579 110.209 217.326 109.42C218.802 109.109 221.021 108.632 222.259 108.359C223.645 108.053 226.045 105.463 228.509 101.613C231.852 96.3902 233.549 94.8292 238.846 92.1092C247.222 87.8092 252.251 87.7812 260.626 91.9892C268.093 95.7412 272.464 101.231 274.18 109.014C275.665 115.752 276.334 116.596 281.237 117.916C288.769 119.945 292.152 127.058 288.938 134.112C286.784 138.84 284.706 139.333 265.483 139.681L247.458 140.008L245.747 142.988C244.117 145.828 244.125 146.064 245.918 147.988C247.705 149.906 248.799 149.991 267.654 149.681C286.591 149.37 287.698 149.243 291.597 146.926C297.247 143.569 300.024 137.358 299.964 128.213C299.895 117.74 295.585 111.195 286.799 108.221C285.797 107.882 284.46 105.477 283.568 102.41C282.731 99.5322 280.658 95.4182 278.96 93.2662C275.383 88.7342 268.313 82.8552 266.44 82.8552C265.731 82.8552 264.401 82.1042 263.483 81.1872C262.203 79.9062 259.454 79.4332 251.662 79.1512C242.009 78.8012 241.194 78.9342 235.123 81.8542ZM46.2589 92.9742C44.4709 93.4902 43.0089 94.3252 43.0089 94.8292C43.0089 95.3332 41.7849 96.3332 40.2879 97.0502C38.7919 97.7682 37.0429 99.4082 36.4019 100.694C35.4569 102.59 34.2899 103.099 30.2409 103.378C21.6199 103.975 14.2019 109.805 14.0509 116.105C14.0249 117.189 13.2289 117.855 11.9589 117.855C5.65687 117.855 0.0088706 125.252 0.0088706 133.507C0.0088706 139.811 2.67087 144.749 7.61287 147.612C11.5019 149.865 11.5819 149.869 51.5089 149.612C87.5629 149.38 91.8279 149.181 94.7419 147.588C99.1279 145.191 101.209 140.771 101.209 133.855C101.209 123.655 96.5309 118.652 85.7589 117.33C80.3939 116.672 80.0089 116.448 80.0029 113.99C79.9949 109.801 78.0159 103.795 76.4469 103.193C75.6559 102.889 75.0089 102.047 75.0089 101.321C75.0089 100.594 73.7719 99.0722 72.2589 97.9382C70.7459 96.8052 68.9579 95.4152 68.2849 94.8512C64.7289 91.8702 53.4189 90.9062 46.2589 92.9742ZM247.209 96.0552C245.62 97.6442 245.68 101.337 247.317 102.695C248.036 103.292 250.323 104.36 252.4 105.068C255.889 106.257 257.091 107.644 260.017 113.855C261.802 117.645 269.015 115.301 269 110.936C268.994 109.516 267.669 106.051 266.054 103.235C263.815 99.3312 262.15 97.7282 259.043 96.4852C254.239 94.5632 248.895 94.3692 247.209 96.0552ZM64.4569 105.51C68.5479 108.893 70.3719 114.254 69.4729 120.248C68.5189 126.607 70.2269 127.855 79.8889 127.855C89.2339 127.855 91.3049 128.994 90.8379 133.876C90.2779 139.724 89.5909 139.824 49.7589 139.84C15.3319 139.854 13.9349 139.781 12.0089 137.855C8.27187 134.118 10.6019 127.855 15.7299 127.855C19.8639 127.855 21.9429 126.004 23.1379 121.258C24.6079 115.418 27.1589 113.744 34.2319 113.975C40.0269 114.164 42.0089 113.531 42.0089 111.492C42.0089 109.823 47.8889 104.224 51.0089 102.922C54.9679 101.271 60.6549 102.366 64.4569 105.51ZM43.0089 162.855C43.0089 163.405 42.1659 163.855 41.1359 163.855C35.9039 163.855 21.0089 173.933 21.0089 177.473C21.0089 178.115 20.3649 178.888 19.5769 179.191C18.7889 179.493 17.3899 182.43 16.4679 185.717C15.1329 190.475 14.3069 191.814 12.4179 192.288C9.00787 193.144 2.93787 198.781 1.35987 202.557C-0.713129 207.519 -0.363129 218.149 2.04887 223.442C3.66487 226.99 5.06687 228.38 8.79887 230.137C11.3889 231.357 13.6589 232.692 13.8419 233.105C14.0259 233.518 42.6829 233.855 77.5249 233.855H140.874L141.633 231.605C142.697 228.453 142.103 225.531 140.161 224.355C139.131 223.732 115.209 223.167 76.6719 222.855L14.8349 222.355L12.4219 219.549C10.6639 217.505 10.0089 215.552 10.0089 212.355C10.0089 206.763 12.9019 203.287 18.9989 201.551C23.7199 200.207 23.8709 199.985 26.0279 191.167C26.5909 188.864 28.8159 184.749 30.9699 182.023C35.8699 175.825 41.7139 173.32 51.0089 173.436C60.8389 173.559 66.3739 176.919 72.5449 186.509C75.0919 190.467 76.6329 191.83 79.1849 192.381C84.6559 193.563 89.8739 196.693 91.4479 199.738C94.0389 204.748 100.305 204.509 101.6 199.35C101.937 198.004 104.024 195.267 106.237 193.268C110.102 189.777 110.499 189.65 116.3 190.07C121.873 190.473 122.594 190.809 125.644 194.431C127.461 196.589 129.239 199.705 129.594 201.355C129.949 203.005 130.693 204.918 131.247 205.605C132.409 207.047 137.009 207.308 137.009 205.933C137.009 204.468 143.553 202.702 146.364 203.408C147.77 203.761 150.095 205.59 151.53 207.472L154.141 210.894L175.302 210.625L196.462 210.355L197.472 207.355C198.804 203.399 200.586 202.355 206.009 202.355H210.509L213.822 196.09C216.613 190.812 217.942 189.416 222.255 187.23C226.302 185.18 228.38 184.732 232.168 185.096C237.877 185.645 244.274 189.553 246.976 194.145C250.152 199.541 252.027 200.855 256.549 200.855C261.199 200.855 266.009 203.841 266.009 206.728C266.009 210.052 268.181 210.855 277.17 210.855C284.895 210.855 286.172 211.114 287.97 213.044C290.547 215.809 290.559 218.305 288.009 220.855C286.05 222.814 284.676 222.855 220.664 222.855C159.693 222.855 155.214 222.972 153.754 224.605C151.787 226.805 151.408 228.739 152.38 231.605L153.144 233.855H221.119C267.545 233.855 289.476 233.519 290.301 232.796C290.965 232.213 292.882 230.924 294.56 229.931C299.761 226.855 301.711 215.749 298.257 208.875C295.383 203.154 290.91 200.857 282.611 200.841L275.509 200.828L271.658 196.368C269.018 193.311 266.737 191.707 264.408 191.27C262.538 190.919 261.009 190.232 261.009 189.744C261.009 189.255 260.127 188.855 259.049 188.855C257.971 188.855 254.985 186.605 252.412 183.855C249.84 181.105 247.154 178.855 246.444 178.855C245.733 178.855 244.489 178.192 243.678 177.381C240.201 173.904 223.091 173.066 219.713 176.207C219.034 176.838 216.72 178.255 214.57 179.355C210.765 181.301 205.009 187.931 205.009 190.366C205.009 191.082 202.865 191.826 199.759 192.187C195.24 192.712 194.013 193.358 190.947 196.826L187.385 200.855H173.774H160.163L157.096 197.788C153.65 194.343 149.505 192.855 143.347 192.855C138.383 192.855 136.009 192.077 136.009 190.451C136.009 189.796 134.277 187.57 132.16 185.502C123.528 177.074 106.172 177.082 98.2879 185.518L96.0679 187.895L91.2879 185.383C88.6599 184.002 85.3739 182.468 83.9879 181.975C82.6009 181.482 80.8159 179.791 80.0209 178.217C77.4419 173.111 70.0809 167.148 64.0869 165.309C61.0189 164.368 58.0819 163.206 57.5589 162.726C56.2279 161.506 43.0089 161.622 43.0089 162.855ZM43.2589 238.351C41.9259 239.865 41.6169 243.671 42.6159 246.273C43.0869 247.5 44.7419 247.855 49.9949 247.855C56.5729 247.855 56.8019 247.77 58.0069 244.861C59.0519 242.337 58.9889 241.473 57.6049 239.361C56.1629 237.16 55.2659 236.86 50.2359 236.893C46.5839 236.917 44.0559 237.445 43.2589 238.351ZM63.2589 238.351C61.9259 239.865 61.6169 243.671 62.6159 246.273C63.1499 247.664 66.6379 247.855 91.5089 247.855C122.428 247.855 121.009 248.138 121.009 241.973C121.009 236.925 120.584 236.852 91.5589 236.893C69.4829 236.924 64.2789 237.192 63.2589 238.351Z" fill="#80BDCC"/>
<path fill-rule="evenodd" clip-rule="evenodd" d="M36.7989 1.49618C33.8189 2.52418 30.1459 5.04218 26.7989 8.35018C19.4549 15.6112 18.9489 16.3492 16.9909 22.6772C15.5569 27.3132 14.7769 28.4072 12.4689 29.0242C8.53587 30.0762 2.16687 36.6282 1.00187 40.8202C-0.590129 46.5512 -0.151129 53.6122 2.12587 58.9062C3.76187 62.7092 5.41087 64.5702 9.37587 67.0912L14.5089 70.3552L32.9619 70.6872C49.7039 70.9892 51.5359 70.8552 52.7119 69.2462C54.6739 66.5642 54.2709 63.1522 51.7859 61.4122C49.9949 60.1572 46.3909 59.8552 33.1859 59.8552H16.8089L13.4089 56.4552C10.7839 53.8302 10.0089 52.2232 10.0089 49.4052C10.0089 42.8402 14.2789 37.8552 19.9009 37.8552C22.5299 37.8552 24.5669 35.0112 25.9209 29.4542C27.5699 22.6792 29.2309 19.7912 33.9029 15.5702C38.8039 11.1422 47.4229 8.34618 53.2819 9.28318C63.0079 10.8382 69.8179 15.7812 74.3729 24.5912C75.3739 26.5262 77.0419 28.0332 78.5269 28.3412C79.8919 28.6232 82.0989 29.0802 83.4319 29.3552C87.7079 30.2372 91.8399 34.6852 94.0739 40.8122C95.9049 45.8352 96.6199 46.7272 99.2289 47.2492C103.326 48.0682 139.874 47.8312 143.009 46.9652C144.538 46.5422 146.178 44.8632 147.231 42.6412C151.435 33.7712 160.976 33.7462 164.674 42.5952C165.456 44.4672 167.177 46.3482 168.602 46.8902C171.899 48.1442 197.119 48.1442 200.416 46.8902C201.875 46.3362 203.228 44.8312 203.599 43.3512C203.955 41.9352 205.765 39.6182 207.622 38.2012C210.322 36.1412 211.649 35.7612 214.253 36.3022C220.801 37.6602 223.219 37.4342 224.355 35.3552C228.413 27.9362 230.407 25.6872 234.98 23.3702C240.889 20.3762 245.097 20.2242 250.509 22.8112C258.494 26.6272 262.009 31.6102 262.009 39.1142C262.009 46.6212 263.117 47.2822 276.668 47.8552L288.49 48.3552L289.859 51.2202C291.082 53.7802 291.019 54.3652 289.261 56.7202L287.293 59.3552L176.57 59.8552C68.4229 60.3432 65.8139 60.4002 64.4279 62.2962C62.5689 64.8392 62.6309 67.3342 64.6009 69.3042C66.0419 70.7452 76.9059 70.8712 178.768 70.6262C270.706 70.4052 291.423 70.1142 291.781 69.0402C292.022 68.3172 293.284 67.3212 294.586 66.8262C301.239 64.2962 301.819 43.5992 295.304 41.1532C294.317 40.7822 293 39.7992 292.377 38.9682C291.549 37.8632 288.665 37.3452 281.627 37.0372C273.283 36.6722 272.009 36.3842 272.009 34.8612C272.009 32.1302 269.103 24.4672 267.646 23.3552C266.925 22.8052 265.815 21.3782 265.179 20.1842C264.543 18.9902 261.432 16.5432 258.266 14.7472C252.944 11.7292 251.807 11.4772 243.224 11.4192C237.525 11.3802 233.663 11.7782 233.224 12.4512C232.831 13.0542 231.384 13.8312 230.009 14.1782C227.3 14.8622 221.913 19.5452 219.368 23.4302C217.984 25.5422 217.019 25.8552 211.894 25.8552C208.637 25.8552 206.009 26.3022 206.009 26.8552C206.009 27.4052 205.257 27.8552 204.338 27.8552C203.418 27.8552 200.726 29.8802 198.354 32.3552L194.043 36.8552H184.004C174.541 36.8552 173.907 36.7252 172.933 34.5872C171.842 32.1942 166.212 27.8552 164.197 27.8552C163.544 27.8552 163.009 27.4052 163.009 26.8552C163.009 26.3002 160.359 25.8552 157.059 25.8552C152.4 25.8552 149.997 26.4692 145.986 28.6852C143.168 30.2422 140.32 32.6042 139.657 33.9352C138.463 36.3332 138.301 36.3572 121.684 36.6292C103.034 36.9352 103.907 37.2182 100.217 29.6622C98.2989 25.7352 96.9289 24.4712 91.8079 21.9122C88.4429 20.2312 84.9409 18.8552 84.0269 18.8552C83.0559 18.8552 81.4319 16.9892 80.1269 14.3762C78.8969 11.9132 76.5669 9.11618 74.9499 8.16118C73.3319 7.20518 72.0089 6.08218 72.0089 5.66418C72.0089 5.24718 69.8709 3.90618 67.2589 2.68418C60.9039 -0.286819 43.8909 -0.949819 36.7989 1.49618ZM111.259 74.3512C109.516 76.3312 109.698 81.4012 111.58 83.2842C112.925 84.6282 116.716 84.8532 137.83 84.8412C151.404 84.8342 163.51 84.5592 164.734 84.2312C167.856 83.3942 168.937 77.5382 166.473 74.8152C164.796 72.9622 163.278 72.8572 138.604 72.8932C117.353 72.9242 112.277 73.1952 111.259 74.3512ZM172.25 74.8412C170.545 77.5722 170.695 81.3982 172.58 83.2842C174.749 85.4522 185.269 85.4522 187.438 83.2842C189.342 81.3792 189.432 76.9972 187.617 74.6052C185.576 71.9172 173.964 72.0952 172.25 74.8412ZM235.123 81.8542C228.548 85.0172 221.503 91.2662 219.06 96.1052C218.296 97.6182 216.868 98.8552 215.887 98.8552C214.137 98.8552 208.994 100.804 208.009 101.84C207.734 102.13 205.934 103.539 204.009 104.972C202.002 106.465 199.916 109.236 199.118 111.466C197.467 116.082 196.536 116.819 192.338 116.84C189.668 116.853 189.07 116.41 188.548 114.035C187.73 110.307 181.396 103.882 177.837 103.171C176.282 102.86 175.009 102.211 175.009 101.73C175.009 101.249 172.759 100.855 170.009 100.855C167.259 100.855 165.009 101.305 165.009 101.855C165.009 102.405 164.209 102.855 163.232 102.855C162.254 102.855 160.383 103.605 159.073 104.523C157.41 105.688 155 106.121 151.077 105.961C147.989 105.835 144.348 106.157 142.986 106.676C139.96 107.829 133.009 114.068 133.009 115.631C133.009 116.254 131.322 117.048 129.259 117.394C121.618 118.677 119.355 119.87 116.488 124.129C114.19 127.544 113.648 129.434 113.666 133.975C113.678 137.067 114.215 140.217 114.859 140.975C115.504 141.734 116.895 143.512 117.952 144.926C119.009 146.341 121.643 148.028 123.807 148.676C129.472 150.374 233.11 150.354 234.809 148.655C236.576 146.888 236.269 143.401 234.18 141.51C232.528 140.015 227.338 139.855 180.403 139.855C122.447 139.855 124.009 140.036 124.009 133.333C124.009 129.165 126.153 127.792 133.978 126.949C139.151 126.392 139.607 126.122 141.249 122.631C144.334 116.071 147.642 114.98 157.161 117.382C159.116 117.875 160.351 117.513 161.858 116.006C162.983 114.881 165.271 113.254 166.943 112.389C169.623 111.003 170.389 110.987 173.415 112.251C177.317 113.882 179.009 116.417 179.009 120.634C179.009 125.978 181.401 126.961 193.627 126.64L204.509 126.355L205.984 121.438C207.732 115.609 212.454 110.23 216.563 109.386C222.541 108.159 224.491 107.276 225.503 105.338C231.032 94.7602 239.808 88.8552 250.001 88.8552C256.001 88.8552 262.949 91.7042 267.891 96.1922C270.682 98.7262 274.985 107.402 274.999 110.523C275.017 114.384 276.143 115.814 279.981 116.848C288.467 119.133 292.597 126.118 289.643 133.189C287.234 138.954 283.961 139.852 265.291 139.87C256.611 139.879 248.917 140.261 248.193 140.72C247.47 141.179 246.315 142.639 245.627 143.966C244.568 146.006 244.641 146.657 246.098 148.192C247.672 149.85 249.546 149.979 267.665 149.681C286.591 149.37 287.698 149.243 291.597 146.926C297.247 143.569 300.024 137.358 299.964 128.213C299.895 117.74 295.585 111.195 286.799 108.221C285.797 107.882 284.46 105.477 283.568 102.41C282.731 99.5322 280.658 95.4182 278.96 93.2662C275.383 88.7342 268.313 82.8552 266.44 82.8552C265.731 82.8552 264.401 82.1042 263.483 81.1872C262.203 79.9062 259.454 79.4332 251.662 79.1512C242.009 78.8012 241.194 78.9342 235.123 81.8542ZM46.2589 92.9742C44.4709 93.4902 43.0089 94.3252 43.0089 94.8292C43.0089 95.3332 41.7849 96.3332 40.2879 97.0502C38.7919 97.7682 37.0429 99.4082 36.4019 100.694C35.4569 102.59 34.2899 103.099 30.2409 103.378C21.6199 103.975 14.2019 109.805 14.0509 116.105C14.0249 117.189 13.2289 117.855 11.9589 117.855C5.65687 117.855 0.0088706 125.252 0.0088706 133.507C0.0088706 139.811 2.67087 144.749 7.61287 147.612C11.5019 149.865 11.5819 149.869 51.5089 149.612C87.5629 149.38 91.8279 149.181 94.7419 147.588C99.1279 145.191 101.209 140.771 101.209 133.855C101.209 123.655 96.5309 118.652 85.7589 117.33C80.3939 116.672 80.0089 116.448 80.0029 113.99C79.9949 109.801 78.0159 103.795 76.4469 103.193C75.6559 102.889 75.0089 102.047 75.0089 101.321C75.0089 100.594 73.7719 99.0722 72.2589 97.9382C70.7459 96.8052 68.9579 95.4152 68.2849 94.8512C64.7289 91.8702 53.4189 90.9062 46.2589 92.9742ZM247.052 96.7752C245.263 100.117 246.669 102.686 250.911 103.828C255.282 105.005 258.029 107.682 259.483 112.181C261.588 118.694 269.93 115.553 268.039 108.959C265.6 100.455 260.556 95.8062 252.979 95.0782C248.857 94.6822 248.048 94.9142 247.052 96.7752ZM63.8729 104.566C68.2109 107.744 70.2069 112.594 69.5789 118.43C68.7479 126.152 70.0049 127.252 80.1699 127.699C84.7559 127.9 89.0719 128.523 89.7589 129.083C91.5449 130.536 91.3029 135.873 89.3539 138.026C87.8079 139.734 85.2859 139.855 51.0769 139.855C10.6509 139.855 10.0089 139.761 10.0089 133.87C10.0089 130.112 12.2459 128.001 17.0399 127.234C20.6199 126.662 21.0539 126.234 22.5099 121.851C24.8619 114.772 26.8809 113.386 34.5169 113.613C39.7629 113.768 40.9949 113.496 41.4759 112.078C42.3459 109.516 46.6429 104.935 49.7639 103.242C53.2879 101.331 60.3639 101.995 63.8729 104.566ZM43.0089 162.855C43.0089 163.405 42.1659 163.855 41.1359 163.855C35.9039 163.855 21.0089 173.933 21.0089 177.473C21.0089 178.115 20.3649 178.888 19.5769 179.191C18.7889 179.493 17.3899 182.43 16.4679 185.717C15.1329 190.475 14.3069 191.814 12.4179 192.288C9.00787 193.144 2.93787 198.781 1.35987 202.557C-0.713129 207.519 -0.363129 218.149 2.04887 223.442C3.66487 226.99 5.06687 228.38 8.79887 230.137C11.3889 231.357 13.6589 232.692 13.8419 233.105C14.0259 233.518 42.6409 233.855 77.4319 233.855H140.688L141.762 231.498C142.546 229.777 142.514 228.495 141.643 226.748L140.451 224.355L78.2949 223.855L16.1389 223.355L13.0869 220.43C6.57087 214.186 8.65987 204.633 17.1579 201.811C22.9709 199.881 25.0089 198.22 25.0089 195.411C25.0089 187.668 32.2149 177.959 40.6919 174.282C51.1259 169.755 64.0279 173.757 70.9829 183.677C76.5919 191.678 76.3829 191.499 81.0059 192.238C84.2559 192.758 86.2719 194.018 90.0349 197.881C95.7399 203.739 98.3739 204.191 100.806 199.729C104.01 193.848 106.914 191.122 111.109 190.057C113.384 189.48 115.754 189.161 116.377 189.348C116.999 189.535 118.727 189.954 120.216 190.28C123.708 191.043 128.772 196.473 129.596 200.339C130.814 206.045 133.298 207.149 138.645 204.361C140.22 203.54 142.5 202.865 143.712 202.861C146.172 202.854 151.009 204.82 151.009 205.827C151.009 206.185 151.927 207.463 153.048 208.666C155.013 210.776 155.799 210.854 174.798 210.84C185.639 210.831 195.011 210.494 195.624 210.09C196.238 209.686 197.08 208.23 197.497 206.855C198.87 202.322 199.988 201.664 205.125 202.371L209.881 203.025L212.71 197.288C216.823 188.949 221.466 185.548 229.432 185.041C234.957 184.689 236.383 184.99 240.428 187.361C242.985 188.859 245.79 191.495 246.663 193.22C249.429 198.683 251.004 199.855 255.587 199.855C258.72 199.855 260.674 200.544 262.932 202.444C264.624 203.868 266.009 205.636 266.009 206.372C266.009 209.728 269.006 210.855 277.925 210.855C285.155 210.855 286.99 211.177 288.354 212.684C290.849 215.44 290.424 219.383 287.374 221.782C284.77 223.831 283.98 223.855 220.065 223.855C153.033 223.855 152.585 223.881 151.882 227.855C151.736 228.68 151.96 230.367 152.38 231.605L153.144 233.855H221.119C267.545 233.855 289.476 233.519 290.301 232.796C290.965 232.213 292.882 230.924 294.56 229.931C299.761 226.855 301.711 215.749 298.257 208.875C295.383 203.154 290.91 200.857 282.611 200.841L275.509 200.828L271.658 196.368C269.018 193.311 266.737 191.707 264.408 191.27C262.538 190.919 261.009 190.232 261.009 189.744C261.009 189.255 260.127 188.855 259.049 188.855C257.971 188.855 254.985 186.605 252.412 183.855C249.84 181.105 247.154 178.855 246.444 178.855C245.733 178.855 244.489 178.192 243.678 177.381C240.201 173.904 223.091 173.066 219.713 176.207C219.034 176.838 216.72 178.255 214.57 179.355C210.765 181.301 205.009 187.931 205.009 190.366C205.009 191.082 202.865 191.826 199.759 192.187C195.24 192.712 194.013 193.358 190.947 196.826L187.385 200.855H173.774H160.163L157.096 197.788C153.65 194.343 149.505 192.855 143.347 192.855C138.383 192.855 136.009 192.077 136.009 190.451C136.009 189.796 134.277 187.57 132.16 185.502C123.528 177.074 106.172 177.082 98.2879 185.518L96.0679 187.895L91.2879 185.383C88.6599 184.002 85.3739 182.468 83.9879 181.975C82.6009 181.482 80.8159 179.791 80.0209 178.217C77.4419 173.111 70.0809 167.148 64.0869 165.309C61.0189 164.368 58.0819 163.206 57.5589 162.726C56.2279 161.506 43.0089 161.622 43.0089 162.855ZM43.2589 238.351C41.9259 239.865 41.6169 243.671 42.6159 246.273C43.0869 247.5 44.7419 247.855 49.9949 247.855C56.5729 247.855 56.8019 247.77 58.0069 244.861C59.0519 242.337 58.9889 241.473 57.6049 239.361C56.1629 237.16 55.2659 236.86 50.2359 236.893C46.5839 236.917 44.0559 237.445 43.2589 238.351ZM63.2589 238.351C61.9259 239.865 61.6169 243.671 62.6159 246.273C63.1499 247.664 66.6379 247.855 91.5089 247.855C122.428 247.855 121.009 248.138 121.009 241.973C121.009 236.925 120.584 236.852 91.5589 236.893C69.4829 236.924 64.2789 237.192 63.2589 238.351Z" fill="#8E9598"/>
<path fill-rule="evenodd" clip-rule="evenodd" d="M36.7989 1.49618C33.8189 2.52418 30.1459 5.04218 26.7989 8.35018C19.4549 15.6112 18.9489 16.3492 16.9909 22.6772C15.5569 27.3132 14.7769 28.4072 12.4689 29.0242C8.53587 30.0762 2.16687 36.6282 1.00187 40.8202C-0.590129 46.5512 -0.151129 53.6122 2.12587 58.9062C3.76187 62.7092 5.41087 64.5702 9.37587 67.0912L14.5089 70.3552L33.2449 70.6832L51.9809 71.0102L53.1559 68.4332C54.0399 66.4922 54.0489 65.2372 53.1909 63.3552L52.0519 60.8552H35.9979C24.5819 60.8552 18.9869 60.4552 16.6289 59.4702C12.8979 57.9102 9.00887 52.3822 9.00887 48.6352C9.00887 44.1912 13.0499 39.6292 18.9969 37.3602C24.0899 35.4162 24.5149 34.9992 25.1549 31.3132C26.7909 21.8942 31.2969 15.5542 39.1969 11.5572C52.1739 4.99118 69.0389 11.1102 74.5909 24.3982C75.7069 27.0692 76.6189 27.6962 80.2159 28.2682C82.5769 28.6442 85.9479 29.9342 87.7059 31.1362C91.1819 33.5122 95.0089 39.4882 95.0089 42.5412C95.0089 46.6162 96.4359 46.8552 120.756 46.8552H144.102L145.806 43.6682C148.85 37.9722 151.563 35.8552 155.818 35.8552C159.904 35.8552 165.009 39.3532 165.009 42.1522C165.009 42.9182 165.832 44.2902 166.838 45.2002C168.38 46.5962 171.162 46.8532 184.588 46.8402C193.344 46.8312 200.985 46.4942 201.566 46.0902C202.147 45.6862 203.222 43.8752 203.954 42.0652C204.686 40.2562 206.223 38.1182 207.369 37.3152C209.874 35.5612 214.965 35.4222 218.458 37.0142C220.577 37.9792 221.335 37.8702 223.005 36.3592C224.107 35.3612 225.009 33.9302 225.009 33.1782C225.009 30.8062 233.018 23.0072 236.701 21.7922C242.534 19.8662 250.435 21.0492 254.769 24.4962C259.476 28.2402 263.009 35.0452 263.009 40.3672C263.009 42.6152 263.549 44.9952 264.209 45.6552C264.98 46.4262 268.935 46.8552 275.275 46.8552C287.791 46.8552 290.961 48.3032 290.994 54.0322C291.003 55.7462 290.061 57.4562 288.374 58.7822C285.745 60.8512 285.507 60.8552 175.897 60.8552H66.0549L64.4489 63.3062C62.4689 66.3272 63.3519 69.6572 66.3259 70.3862C67.5259 70.6802 118.647 70.7942 179.926 70.6382C270.899 70.4072 291.423 70.1142 291.781 69.0402C292.022 68.3172 293.284 67.3212 294.586 66.8262C301.239 64.2962 301.819 43.5992 295.304 41.1532C294.317 40.7822 293 39.7992 292.377 38.9682C291.549 37.8632 288.665 37.3452 281.627 37.0372C273.283 36.6722 272.009 36.3842 272.009 34.8612C272.009 32.1302 269.103 24.4672 267.646 23.3552C266.925 22.8052 265.815 21.3782 265.179 20.1842C264.543 18.9902 261.432 16.5432 258.266 14.7472C252.944 11.7292 251.807 11.4772 243.224 11.4192C237.525 11.3802 233.663 11.7782 233.224 12.4512C232.831 13.0542 231.384 13.8312 230.009 14.1782C227.3 14.8622 221.913 19.5452 219.368 23.4302C217.984 25.5422 217.019 25.8552 211.894 25.8552C208.637 25.8552 206.009 26.3022 206.009 26.8552C206.009 27.4052 205.257 27.8552 204.338 27.8552C203.418 27.8552 200.726 29.8802 198.354 32.3552L194.043 36.8552H184.004C174.541 36.8552 173.907 36.7252 172.933 34.5872C171.842 32.1942 166.212 27.8552 164.197 27.8552C163.544 27.8552 163.009 27.4052 163.009 26.8552C163.009 26.3002 160.359 25.8552 157.059 25.8552C152.4 25.8552 149.997 26.4692 145.986 28.6852C143.168 30.2422 140.32 32.6042 139.657 33.9352C138.463 36.3332 138.301 36.3572 121.684 36.6292C103.034 36.9352 103.907 37.2182 100.217 29.6622C98.2989 25.7352 96.9289 24.4712 91.8079 21.9122C88.4429 20.2312 84.9409 18.8552 84.0269 18.8552C83.0559 18.8552 81.4319 16.9892 80.1269 14.3762C78.8969 11.9132 76.5669 9.11618 74.9499 8.16118C73.3319 7.20518 72.0089 6.08218 72.0089 5.66418C72.0089 5.24718 69.8709 3.90618 67.2589 2.68418C60.9039 -0.286819 43.8909 -0.949819 36.7989 1.49618ZM111.259 74.3512C109.516 76.3312 109.698 81.4012 111.58 83.2842C112.925 84.6282 116.716 84.8532 137.83 84.8412C151.404 84.8342 163.51 84.5592 164.734 84.2312C167.856 83.3942 168.937 77.5382 166.473 74.8152C164.796 72.9622 163.278 72.8572 138.604 72.8932C117.353 72.9242 112.277 73.1952 111.259 74.3512ZM172.25 74.8412C170.545 77.5722 170.695 81.3982 172.58 83.2842C174.749 85.4522 185.269 85.4522 187.438 83.2842C189.342 81.3792 189.432 76.9972 187.617 74.6052C185.576 71.9172 173.964 72.0952 172.25 74.8412ZM235.123 81.8542C228.548 85.0172 221.503 91.2662 219.06 96.1052C218.296 97.6182 216.868 98.8552 215.887 98.8552C214.137 98.8552 208.994 100.804 208.009 101.84C207.734 102.13 205.934 103.539 204.009 104.972C202.002 106.465 199.916 109.236 199.118 111.466C197.467 116.082 196.536 116.819 192.338 116.84C189.668 116.853 189.07 116.41 188.548 114.035C187.73 110.307 181.396 103.882 177.837 103.171C176.282 102.86 175.009 102.211 175.009 101.73C175.009 101.249 172.759 100.855 170.009 100.855C167.259 100.855 165.009 101.305 165.009 101.855C165.009 102.405 164.209 102.855 163.232 102.855C162.254 102.855 160.383 103.605 159.073 104.523C157.41 105.688 155 106.121 151.077 105.961C147.989 105.835 144.348 106.157 142.986 106.676C139.96 107.829 133.009 114.068 133.009 115.631C133.009 116.254 131.322 117.048 129.259 117.394C121.618 118.677 119.355 119.87 116.488 124.129C114.19 127.544 113.648 129.434 113.666 133.975C113.678 137.067 114.215 140.217 114.859 140.975C115.504 141.734 116.895 143.512 117.952 144.926C121.486 149.656 124.016 149.855 180.753 149.855C239.068 149.855 237.508 150.021 235.407 144.045L234.462 141.355L181.148 140.855L127.835 140.355L125.422 137.549C122.379 134.011 122.388 132.386 125.464 129.31C127.381 127.392 128.968 126.852 132.714 126.84C138.582 126.821 139.189 126.442 141.887 121.121C144.758 115.458 147.079 114.892 157.182 117.396C159.222 117.902 160.287 117.542 161.682 115.878C163.938 113.186 168.236 110.855 170.944 110.855C174.378 110.855 179.008 115.888 179.682 120.355C180.628 126.619 181.097 126.855 192.575 126.855C202.106 126.855 203.015 126.685 204.452 124.632C205.308 123.41 206.009 121.386 206.009 120.135C206.009 118.884 207.613 116.085 209.574 113.915C212.373 110.817 214.321 109.705 218.642 108.738C223.51 107.648 224.37 107.067 226.084 103.707C228.737 98.5072 233.876 93.5822 239.478 90.8702C243.422 88.9612 245.311 88.6762 251.422 89.0682C257.516 89.4592 259.426 90.0462 263.315 92.7222C269.791 97.1772 272.749 101.48 274.66 109.225C276.302 115.877 276.324 115.905 280.659 116.997C283.538 117.722 286.064 119.292 288.122 121.636C290.852 124.746 291.172 125.718 290.737 129.579C289.698 138.793 284.665 140.855 263.211 140.855H248.145L246.215 143.605C244.367 146.236 244.36 146.434 246.053 148.181C247.671 149.852 249.512 149.98 267.665 149.681C286.591 149.37 287.698 149.243 291.597 146.926C297.247 143.569 300.024 137.358 299.964 128.213C299.895 117.74 295.585 111.195 286.799 108.221C285.797 107.882 284.46 105.477 283.568 102.41C282.731 99.5322 280.658 95.4182 278.96 93.2662C275.383 88.7342 268.313 82.8552 266.44 82.8552C265.731 82.8552 264.401 82.1042 263.483 81.1872C262.203 79.9062 259.454 79.4332 251.662 79.1512C242.009 78.8012 241.194 78.9342 235.123 81.8542ZM46.2589 92.9742C44.4709 93.4902 43.0089 94.3252 43.0089 94.8292C43.0089 95.3332 41.7849 96.3332 40.2879 97.0502C38.7919 97.7682 37.0429 99.4082 36.4019 100.694C35.4569 102.59 34.2899 103.099 30.2409 103.378C21.6199 103.975 14.2019 109.805 14.0509 116.105C14.0249 117.189 13.2289 117.855 11.9589 117.855C5.65687 117.855 0.0088706 125.252 0.0088706 133.507C0.0088706 139.811 2.67087 144.749 7.61287 147.612C11.5019 149.865 11.5819 149.869 51.5089 149.612C87.5629 149.38 91.8279 149.181 94.7419 147.588C99.1279 145.191 101.209 140.771 101.209 133.855C101.209 123.655 96.5309 118.652 85.7589 117.33C80.3939 116.672 80.0089 116.448 80.0029 113.99C79.9949 109.801 78.0159 103.795 76.4469 103.193C75.6559 102.889 75.0089 102.047 75.0089 101.321C75.0089 100.594 73.7719 99.0722 72.2589 97.9382C70.7459 96.8052 68.9579 95.4152 68.2849 94.8512C64.7289 91.8702 53.4189 90.9062 46.2589 92.9742ZM247.58 96.4262C246.716 97.2912 246.009 98.5712 246.009 99.2712C246.009 101.123 249.351 103.855 251.615 103.855C254.879 103.855 257.895 106.718 259.016 110.882C260.296 115.633 264.364 117.458 266.665 114.311C268.577 111.696 268.338 108.931 265.759 103.817C262.193 96.7452 251.577 92.4292 247.58 96.4262ZM62.3579 103.388C67.6409 105.958 69.4949 109.457 69.6129 117.076C69.7539 126.18 70.4749 126.855 80.0589 126.855C87.2999 126.855 88.0139 127.045 89.9359 129.49C92.6579 132.95 92.5529 135.402 89.5539 138.4L87.0999 140.855H50.6999H14.3009L11.6549 138.403C10.1999 137.054 9.00887 135.009 9.00887 133.857C9.00887 130.775 13.3939 126.855 16.8409 126.855C20.3219 126.855 21.5319 125.546 22.3839 120.855C22.8349 118.379 24.0299 116.668 26.4719 115.005C29.4209 112.998 30.6479 112.755 34.8969 113.34C39.6399 113.992 39.9389 113.892 41.3499 111.189C42.9759 108.077 47.6509 103.417 50.0089 102.559C53.0039 101.469 59.2789 101.89 62.3579 103.388ZM43.0089 162.855C43.0089 163.405 42.1659 163.855 41.1359 163.855C35.9039 163.855 21.0089 173.933 21.0089 177.473C21.0089 178.115 20.3649 178.888 19.5769 179.191C18.7889 179.493 17.3899 182.43 16.4679 185.717C15.1329 190.475 14.3069 191.814 12.4179 192.288C9.00787 193.144 2.93787 198.781 1.35987 202.557C-0.713129 207.519 -0.363129 218.149 2.04887 223.442C3.66487 226.99 5.06687 228.38 8.79887 230.137C11.3889 231.357 13.6589 232.692 13.8419 233.105C14.0259 233.518 42.6409 233.855 77.4319 233.855H140.688L141.713 231.605C142.564 229.737 142.018 225.605 140.791 224.631C140.636 224.508 112.299 224.17 77.8209 223.881L15.1329 223.355L12.0709 219.925C9.63387 217.195 9.00887 215.592 9.00887 212.075C9.00887 208.382 9.56787 207.096 12.4089 204.255C14.4819 202.182 16.7949 200.855 18.3359 200.855C21.2419 200.855 24.9969 196.712 25.0309 193.47C25.0609 190.569 28.6619 182.86 31.3209 180.006C38.6659 172.12 53.2869 169.856 62.2659 175.214C66.9819 178.029 73.9949 185.228 74.0239 187.285C74.0589 189.718 76.0249 191.116 80.6149 191.974C84.5049 192.7 86.4979 193.894 90.6199 197.965C93.9259 201.23 96.4369 202.921 97.6379 202.694C98.6719 202.498 100.587 200.223 101.918 197.61C106.251 189.103 116.496 186.505 124.169 191.969C127.38 194.255 130.009 198.693 130.009 201.827C130.009 205.057 134.035 206.41 137.821 204.452C143.316 201.611 147.576 202.332 152.009 206.855L155.93 210.855H174.969C192.676 210.855 194.149 210.715 196.009 208.855C197.109 207.755 198.009 205.971 198.009 204.89C198.009 201.915 201.545 200.42 205.101 201.893C208.661 203.368 210.416 202.21 212.62 196.935C215.976 188.9 222.616 184.514 231.302 184.593C238.049 184.655 244.08 187.949 246.847 193.084C249.799 198.562 251.652 199.855 256.554 199.855C260.047 199.855 261.668 200.423 263.554 202.31C264.904 203.66 266.009 205.427 266.009 206.238C266.009 209.741 268.904 210.855 278.008 210.855C286.384 210.855 286.976 210.998 288.936 213.49C291.622 216.904 291.549 218.406 288.554 221.4L286.1 223.855L220.804 223.87C184.892 223.879 155.021 224.216 154.424 224.62C152.118 226.181 151.192 229.164 152.276 231.541L153.33 233.855H221.212C267.573 233.855 289.476 233.519 290.301 232.796C290.965 232.213 292.882 230.924 294.56 229.931C299.761 226.855 301.711 215.749 298.257 208.875C295.383 203.154 290.91 200.857 282.611 200.841L275.509 200.828L271.658 196.368C269.018 193.311 266.737 191.707 264.408 191.27C262.538 190.919 261.009 190.232 261.009 189.744C261.009 189.255 260.127 188.855 259.049 188.855C257.971 188.855 254.985 186.605 252.412 183.855C249.84 181.105 247.154 178.855 246.444 178.855C245.733 178.855 244.489 178.192 243.678 177.381C240.201 173.904 223.091 173.066 219.713 176.207C219.034 176.838 216.72 178.255 214.57 179.355C210.765 181.301 205.009 187.931 205.009 190.366C205.009 191.082 202.865 191.826 199.759 192.187C195.24 192.712 194.013 193.358 190.947 196.826L187.385 200.855H173.774H160.163L157.096 197.788C153.65 194.343 149.505 192.855 143.347 192.855C138.383 192.855 136.009 192.077 136.009 190.451C136.009 189.796 134.277 187.57 132.16 185.502C123.528 177.074 106.172 177.082 98.2879 185.518L96.0679 187.895L91.2879 185.383C88.6599 184.002 85.3739 182.468 83.9879 181.975C82.6009 181.482 80.8159 179.791 80.0209 178.217C77.4419 173.111 70.0809 167.148 64.0869 165.309C61.0189 164.368 58.0819 163.206 57.5589 162.726C56.2279 161.506 43.0089 161.622 43.0089 162.855ZM43.2589 238.351C41.9259 239.865 41.6169 243.671 42.6159 246.273C43.0869 247.5 44.7419 247.855 49.9949 247.855C56.5729 247.855 56.8019 247.77 58.0069 244.861C59.0519 242.337 58.9889 241.473 57.6049 239.361C56.1629 237.16 55.2659 236.86 50.2359 236.893C46.5839 236.917 44.0559 237.445 43.2589 238.351ZM63.2589 238.351C61.9259 239.865 61.6169 243.671 62.6159 246.273C63.1499 247.664 66.6379 247.855 91.5089 247.855C122.428 247.855 121.009 248.138 121.009 241.973C121.009 236.925 120.584 236.852 91.5589 236.893C69.4829 236.924 64.2789 237.192 63.2589 238.351Z" fill="#39555B"/>
<path fill-rule="evenodd" clip-rule="evenodd" d="M36.7989 1.49618C33.8189 2.52418 30.1459 5.04218 26.7989 8.35018C19.4549 15.6112 18.9489 16.3492 16.9909 22.6772C15.5569 27.3132 14.7769 28.4072 12.4689 29.0242C8.53587 30.0762 2.16687 36.6282 1.00187 40.8202C-0.590129 46.5512 -0.151129 53.6122 2.12587 58.9062C3.76187 62.7092 5.41087 64.5702 9.37587 67.0912L14.5089 70.3552L33.2449 70.6832L51.9809 71.0102L53.1369 68.4742C54.0729 66.4192 53.9839 65.4662 52.6699 63.4612C51.0599 61.0032 50.9169 60.9822 33.4489 60.6702L15.8509 60.3552L12.4299 56.6202C9.73387 53.6762 9.00887 52.0412 9.00887 48.9042C9.00887 43.7722 13.3789 38.5652 19.2579 36.6912C23.3289 35.3942 23.5079 35.1522 25.4339 28.3552C27.0909 22.5102 28.2699 20.5002 32.5819 16.1712C45.8839 2.81818 66.0059 6.57818 74.8999 24.0802C76.2349 26.7072 77.4099 27.4462 81.8029 28.4172C88.9989 30.0092 95.0089 36.0312 95.0089 41.6502C95.0089 42.6922 95.8319 44.2902 96.8379 45.2002C98.4259 46.6372 101.644 46.8552 121.317 46.8552H143.968L145.882 43.1052C148.74 37.5062 151.346 35.5822 156.074 35.5822C160.593 35.5822 162.601 37.0902 165.762 42.8552L167.681 46.3552H184.587H201.493L203.143 42.8552C206.408 35.9292 209.578 34.5922 218.68 36.3022L222.851 37.0852L225.046 32.7202C227.921 27.0062 229.728 25.0412 234.219 22.7492C238.967 20.3262 248.291 20.2742 252.639 22.6472C258.442 25.8142 263.009 32.6752 263.009 38.2242C263.009 40.1502 263.448 42.8792 263.984 44.2902C264.949 46.8272 265.078 46.8552 275.873 46.8552C284.99 46.8552 287.162 47.1592 289.065 48.6992C292.161 51.2062 292.161 56.5042 289.065 59.0112C286.882 60.7782 282.189 60.8552 176.424 60.8552H66.0599L64.5419 63.7922C62.7449 67.2672 63.4099 69.6712 66.3689 70.3972C67.5459 70.6852 118.647 70.7942 179.926 70.6382C270.899 70.4072 291.423 70.1142 291.781 69.0402C292.022 68.3172 293.284 67.3212 294.586 66.8262C301.239 64.2962 301.819 43.5992 295.304 41.1532C294.317 40.7822 293 39.7992 292.377 38.9682C291.549 37.8632 288.665 37.3452 281.627 37.0372C273.283 36.6722 272.009 36.3842 272.009 34.8612C272.009 32.1302 269.103 24.4672 267.646 23.3552C266.925 22.8052 265.815 21.3782 265.179 20.1842C264.543 18.9902 261.432 16.5432 258.266 14.7472C252.944 11.7292 251.807 11.4772 243.224 11.4192C237.525 11.3802 233.663 11.7782 233.224 12.4512C232.831 13.0542 231.384 13.8312 230.009 14.1782C227.3 14.8622 221.913 19.5452 219.368 23.4302C217.984 25.5422 217.019 25.8552 211.894 25.8552C208.637 25.8552 206.009 26.3022 206.009 26.8552C206.009 27.4052 205.257 27.8552 204.338 27.8552C203.418 27.8552 200.726 29.8802 198.354 32.3552L194.043 36.8552H184.004C174.541 36.8552 173.907 36.7252 172.933 34.5872C171.842 32.1942 166.212 27.8552 164.197 27.8552C163.544 27.8552 163.009 27.4052 163.009 26.8552C163.009 26.3002 160.359 25.8552 157.059 25.8552C152.4 25.8552 149.997 26.4692 145.986 28.6852C143.168 30.2422 140.32 32.6042 139.657 33.9352C138.463 36.3332 138.301 36.3572 121.684 36.6292C103.034 36.9352 103.907 37.2182 100.217 29.6622C98.2989 25.7352 96.9289 24.4712 91.8079 21.9122C88.4429 20.2312 84.9409 18.8552 84.0269 18.8552C83.0559 18.8552 81.4319 16.9892 80.1269 14.3762C78.8969 11.9132 76.5669 9.11618 74.9499 8.16118C73.3319 7.20518 72.0089 6.08218 72.0089 5.66418C72.0089 5.24718 69.8709 3.90618 67.2589 2.68418C60.9039 -0.286819 43.8909 -0.949819 36.7989 1.49618ZM111.259 74.3512C109.516 76.3312 109.698 81.4012 111.58 83.2842C112.925 84.6282 116.716 84.8532 137.83 84.8412C151.404 84.8342 163.51 84.5592 164.734 84.2312C167.856 83.3942 168.937 77.5382 166.473 74.8152C164.796 72.9622 163.278 72.8572 138.604 72.8932C117.353 72.9242 112.277 73.1952 111.259 74.3512ZM172.25 74.8412C170.545 77.5722 170.695 81.3982 172.58 83.2842C174.749 85.4522 185.269 85.4522 187.438 83.2842C189.342 81.3792 189.432 76.9972 187.617 74.6052C185.576 71.9172 173.964 72.0952 172.25 74.8412ZM235.123 81.8542C228.548 85.0172 221.503 91.2662 219.06 96.1052C218.296 97.6182 216.868 98.8552 215.887 98.8552C214.137 98.8552 208.994 100.804 208.009 101.84C207.734 102.13 205.934 103.539 204.009 104.972C202.002 106.465 199.916 109.236 199.118 111.466C197.467 116.082 196.536 116.819 192.338 116.84C189.668 116.853 189.07 116.41 188.548 114.035C187.73 110.307 181.396 103.882 177.837 103.171C176.282 102.86 175.009 102.211 175.009 101.73C175.009 101.249 172.759 100.855 170.009 100.855C167.259 100.855 165.009 101.305 165.009 101.855C165.009 102.405 164.209 102.855 163.232 102.855C162.254 102.855 160.383 103.605 159.073 104.523C157.41 105.688 155 106.121 151.077 105.961C147.989 105.835 144.348 106.157 142.986 106.676C139.96 107.829 133.009 114.068 133.009 115.631C133.009 116.254 131.322 117.048 129.259 117.394C121.618 118.677 119.355 119.87 116.488 124.129C114.19 127.544 113.648 129.434 113.666 133.975C113.678 137.067 114.215 140.217 114.859 140.975C115.504 141.734 116.895 143.512 117.952 144.926C121.486 149.656 124.016 149.855 180.753 149.855C228.063 149.855 233.907 149.683 235.088 148.26C236.192 146.93 236.165 146.223 234.923 144.01L233.433 141.355L180.132 140.855L126.831 140.355L124.92 137.994C120.875 132.997 124.37 126.855 131.258 126.855C136.506 126.855 139.865 125.278 140.566 122.485C140.903 121.143 142.23 119.056 143.516 117.848C145.525 115.961 146.605 115.733 151.182 116.229C159.735 117.156 159.947 117.116 163.595 113.913C167.245 110.709 171.471 109.962 175.064 111.885C177.343 113.104 180.009 117.914 180.009 120.805C180.009 125.157 183.359 126.855 191.944 126.855C202.507 126.855 204.576 125.986 205.468 121.177C206.828 113.85 211.998 109.589 222.148 107.433C223.843 107.073 225.002 106.018 225.387 104.484C226.357 100.619 234.585 92.2422 239.242 90.3782C244.93 88.1022 255.695 88.1252 260.138 90.4212C266.642 93.7842 270.785 97.9662 273.413 103.82C274.841 107.002 276.009 110.529 276.009 111.659C276.009 114.4 278.605 116.855 281.504 116.855C284.832 116.855 289.78 121.365 290.899 125.419C292.199 130.125 290.649 134.781 286.76 137.855C283.715 140.261 282.921 140.374 265.553 140.855C248.027 141.341 247.481 141.42 246.522 143.605C245.979 144.843 245.174 145.855 244.733 145.855C244.292 145.855 244.802 146.789 245.865 147.931C247.719 149.921 248.626 149.994 267.654 149.681C286.591 149.37 287.698 149.243 291.597 146.926C297.247 143.569 300.024 137.358 299.964 128.213C299.895 117.74 295.585 111.195 286.799 108.221C285.797 107.882 284.46 105.477 283.568 102.41C282.731 99.5322 280.658 95.4182 278.96 93.2662C275.383 88.7342 268.313 82.8552 266.44 82.8552C265.731 82.8552 264.401 82.1042 263.483 81.1872C262.203 79.9062 259.454 79.4332 251.662 79.1512C242.009 78.8012 241.194 78.9342 235.123 81.8542ZM46.2589 92.9742C44.4709 93.4902 43.0089 94.3252 43.0089 94.8292C43.0089 95.3332 41.7849 96.3332 40.2879 97.0502C38.7919 97.7682 37.0429 99.4082 36.4019 100.694C35.4569 102.59 34.2899 103.099 30.2409 103.378C21.6199 103.975 14.2019 109.805 14.0509 116.105C14.0249 117.189 13.2289 117.855 11.9589 117.855C5.65687 117.855 0.0088706 125.252 0.0088706 133.507C0.0088706 139.811 2.67087 144.749 7.61287 147.612C11.5019 149.865 11.5819 149.869 51.5089 149.612C87.5629 149.38 91.8279 149.181 94.7419 147.588C99.1279 145.191 101.209 140.771 101.209 133.855C101.209 123.655 96.5309 118.652 85.7589 117.33C80.3939 116.672 80.0089 116.448 80.0029 113.99C79.9949 109.801 78.0159 103.795 76.4469 103.193C75.6559 102.889 75.0089 102.047 75.0089 101.321C75.0089 100.594 73.7719 99.0722 72.2589 97.9382C70.7459 96.8052 68.9579 95.4152 68.2849 94.8512C64.7289 91.8702 53.4189 90.9062 46.2589 92.9742ZM248.615 96.1542C247.518 96.9562 246.953 98.4022 247.164 99.8712C247.433 101.743 248.476 102.555 251.877 103.536C256.608 104.901 258.551 106.843 259.396 111.051C259.694 112.533 260.936 114.281 262.156 114.934C264.058 115.952 264.633 115.802 266.185 113.886C268.059 111.572 267.905 108.791 265.637 103.946C262.878 98.0542 252.509 93.3072 248.615 96.1542ZM63.7099 103.815C68.4399 106.698 70.4109 111.187 70.2189 118.639C70.0669 124.516 70.2219 124.985 72.5979 125.889C73.9959 126.42 78.1899 126.855 81.9189 126.855C87.1239 126.855 89.0559 127.262 90.2359 128.605C93.1749 131.952 93.2329 134.435 90.4509 137.741L87.8309 140.855H50.7349C14.0229 140.855 13.6139 140.832 11.3229 138.681C6.48587 134.136 9.67087 127.412 17.2349 126.203C20.3059 125.712 21.1429 125.091 21.5919 122.975C23.3019 114.911 26.7829 112.238 35.0929 112.607C40.5729 112.851 40.8079 112.755 42.0349 109.793C45.0229 102.579 56.4949 99.4152 63.7099 103.815ZM43.0089 162.855C43.0089 163.405 42.1659 163.855 41.1359 163.855C35.9039 163.855 21.0089 173.933 21.0089 177.473C21.0089 178.115 20.3649 178.888 19.5769 179.191C18.7889 179.493 17.3899 182.43 16.4679 185.717C15.1329 190.475 14.3069 191.814 12.4179 192.288C9.00787 193.144 2.93787 198.781 1.35987 202.557C-0.713129 207.519 -0.363129 218.149 2.04887 223.442C3.66487 226.99 5.06687 228.38 8.79887 230.137C11.3889 231.357 13.6589 232.692 13.8419 233.105C14.0259 233.518 42.6409 233.855 77.4319 233.855H140.688L141.79 231.437C142.723 229.389 142.526 228.626 140.498 226.437L138.104 223.855H77.0919H16.0789L12.6699 220.862C8.87587 217.531 7.65187 213.586 8.97787 208.963C10.0569 205.2 14.4739 201.18 18.5089 200.287C22.6409 199.374 24.0069 198.058 24.0189 194.983C24.0479 187.06 33.9129 175.262 42.5229 172.851C55.3549 169.258 67.8809 175.037 74.3419 187.532C75.7259 190.209 76.8459 190.887 81.4689 191.847C86.0509 192.798 87.6079 193.728 90.9249 197.497C95.9559 203.213 98.3779 203.087 101.976 196.921C103.399 194.483 105.901 191.703 107.536 190.744C111.747 188.275 118.724 188.384 122.991 190.985C127.398 193.671 128.621 195.347 129.927 200.484C131.224 205.585 133.988 206.649 138.576 203.813C143.511 200.764 146.666 201.277 151.265 205.875L155.285 209.896L175.331 209.625L195.377 209.355L197.479 205.355C199.56 201.394 199.632 201.358 204.794 201.635L210.008 201.915L212.358 196.6C215.052 190.508 219.43 186.388 224.79 184.899C234.466 182.212 241.918 185.175 247.945 194.105C250.936 198.537 251.439 198.855 255.445 198.855C260.536 198.855 264.412 201.489 266.431 206.324L267.804 209.607L277.35 210.025C284.853 210.353 287.336 210.841 288.952 212.304C291.575 214.677 291.602 219.262 289.009 221.855C287.05 223.814 285.676 223.855 221.461 223.855H155.914L153.52 226.437C151.492 228.626 151.295 229.389 152.228 231.437L153.33 233.855H221.212C267.573 233.855 289.476 233.519 290.301 232.796C290.965 232.213 292.882 230.924 294.56 229.931C299.761 226.855 301.711 215.749 298.257 208.875C295.383 203.154 290.91 200.857 282.611 200.841L275.509 200.828L271.658 196.368C269.018 193.311 266.737 191.707 264.408 191.27C262.538 190.919 261.009 190.232 261.009 189.744C261.009 189.255 260.127 188.855 259.049 188.855C257.971 188.855 254.985 186.605 252.412 183.855C249.84 181.105 247.154 178.855 246.444 178.855C245.733 178.855 244.489 178.192 243.678 177.381C240.201 173.904 223.091 173.066 219.713 176.207C219.034 176.838 216.72 178.255 214.57 179.355C210.765 181.301 205.009 187.931 205.009 190.366C205.009 191.082 202.865 191.826 199.759 192.187C195.24 192.712 194.013 193.358 190.947 196.826L187.385 200.855H173.774H160.163L157.096 197.788C153.65 194.343 149.505 192.855 143.347 192.855C138.383 192.855 136.009 192.077 136.009 190.451C136.009 189.796 134.277 187.57 132.16 185.502C123.528 177.074 106.172 177.082 98.2879 185.518L96.0679 187.895L91.2879 185.383C88.6599 184.002 85.3739 182.468 83.9879 181.975C82.6009 181.482 80.8159 179.791 80.0209 178.217C77.4419 173.111 70.0809 167.148 64.0869 165.309C61.0189 164.368 58.0819 163.206 57.5589 162.726C56.2279 161.506 43.0089 161.622 43.0089 162.855ZM43.2589 238.351C41.9259 239.865 41.6169 243.671 42.6159 246.273C43.0869 247.5 44.7419 247.855 49.9949 247.855C56.5729 247.855 56.8019 247.77 58.0069 244.861C59.0519 242.337 58.9889 241.473 57.6049 239.361C56.1629 237.16 55.2659 236.86 50.2359 236.893C46.5839 236.917 44.0559 237.445 43.2589 238.351ZM63.2589 238.351C61.9259 239.865 61.6169 243.671 62.6159 246.273C63.1499 247.664 66.6379 247.855 91.5089 247.855C122.428 247.855 121.009 248.138 121.009 241.973C121.009 236.925 120.584 236.852 91.5589 236.893C69.4829 236.924 64.2789 237.192 63.2589 238.351Z" fill="#202F33"/>
<path fill-rule="evenodd" clip-rule="evenodd" d="M36.7989 1.49618C33.8189 2.52418 30.1459 5.04218 26.7989 8.35018C19.4549 15.6112 18.9489 16.3492 16.9909 22.6772C15.5569 27.3132 14.7769 28.4072 12.4689 29.0242C8.53587 30.0762 2.16687 36.6282 1.00187 40.8202C-0.590129 46.5512 -0.151129 53.6122 2.12587 58.9062C3.76187 62.7092 5.41087 64.5702 9.37587 67.0912L14.5089 70.3552L33.1829 70.6822C51.2319 70.9982 51.8929 70.9392 52.9679 68.9322C54.1239 66.7712 52.9709 63.1972 50.6089 61.6202C50.0039 61.2162 41.9269 60.8792 32.6589 60.8702L15.8089 60.8552L12.4089 57.4552C9.44487 54.4912 9.00887 53.4112 9.00887 49.0322C9.00887 42.5342 12.2889 38.3172 18.5739 36.7342C22.9849 35.6242 23.2769 35.2482 24.5199 29.0782C25.5979 23.7232 29.7439 17.3292 34.5799 13.5612C47.4549 3.53018 66.8689 7.79318 74.2019 22.2602C76.6679 27.1252 77.1109 27.4562 82.2509 28.2782C88.4549 29.2702 92.7559 33.1762 94.5889 39.4832C95.4829 42.5562 96.9669 45.2972 98.0519 45.8782C99.2179 46.5022 108.345 46.7902 121.711 46.6252L143.472 46.3552L145.854 42.0352C150.624 33.3852 159.827 32.4672 164.72 40.1542C168.996 46.8712 168.949 46.8552 184.509 46.8552C200.069 46.8552 200.022 46.8712 204.298 40.1542C207.423 35.2452 211.661 33.8772 217.358 35.9372C221.627 37.4802 222.958 36.6412 225.944 30.5242C229.838 22.5492 239.5 18.8032 249.507 21.3902C257.632 23.4912 263.987 32.2642 264.003 41.4052C264.012 46.3042 265.347 46.8552 277.209 46.8552C286.676 46.8552 288.256 47.1022 290.009 48.8552C292.697 51.5432 292.379 56.4062 289.29 59.8552C289.044 60.1302 238.867 60.5802 177.785 60.8552C68.0249 61.3492 66.7139 61.3782 65.6179 63.3552C65.0079 64.4552 64.1559 65.6162 63.7249 65.9352C62.3879 66.9242 64.1189 69.8452 66.3689 70.3972C67.5459 70.6852 118.647 70.7942 179.926 70.6382C270.899 70.4072 291.423 70.1142 291.781 69.0402C292.022 68.3172 293.284 67.3212 294.586 66.8262C301.239 64.2962 301.819 43.5992 295.304 41.1532C294.317 40.7822 293 39.7992 292.377 38.9682C291.549 37.8632 288.665 37.3452 281.627 37.0372C273.283 36.6722 272.009 36.3842 272.009 34.8612C272.009 32.1302 269.103 24.4672 267.646 23.3552C266.925 22.8052 265.815 21.3782 265.179 20.1842C264.543 18.9902 261.432 16.5432 258.266 14.7472C252.944 11.7292 251.807 11.4772 243.224 11.4192C237.525 11.3802 233.663 11.7782 233.224 12.4512C232.831 13.0542 231.384 13.8312 230.009 14.1782C227.3 14.8622 221.913 19.5452 219.368 23.4302C217.984 25.5422 217.019 25.8552 211.894 25.8552C208.637 25.8552 206.009 26.3022 206.009 26.8552C206.009 27.4052 205.257 27.8552 204.338 27.8552C203.418 27.8552 200.726 29.8802 198.354 32.3552L194.043 36.8552H184.004C174.541 36.8552 173.907 36.7252 172.933 34.5872C171.842 32.1942 166.212 27.8552 164.197 27.8552C163.544 27.8552 163.009 27.4052 163.009 26.8552C163.009 26.3002 160.359 25.8552 157.059 25.8552C152.4 25.8552 149.997 26.4692 145.986 28.6852C143.168 30.2422 140.32 32.6042 139.657 33.9352C138.463 36.3332 138.301 36.3572 121.684 36.6292C103.034 36.9352 103.907 37.2182 100.217 29.6622C98.2989 25.7352 96.9289 24.4712 91.8079 21.9122C88.4429 20.2312 84.9409 18.8552 84.0269 18.8552C83.0559 18.8552 81.4319 16.9892 80.1269 14.3762C78.8969 11.9132 76.5669 9.11618 74.9499 8.16118C73.3319 7.20518 72.0089 6.08218 72.0089 5.66418C72.0089 5.24718 69.8709 3.90618 67.2589 2.68418C60.9039 -0.286819 43.8909 -0.949819 36.7989 1.49618ZM111.259 74.3512C109.516 76.3312 109.698 81.4012 111.58 83.2842C112.925 84.6282 116.716 84.8532 137.83 84.8412C151.404 84.8342 163.51 84.5592 164.734 84.2312C167.856 83.3942 168.937 77.5382 166.473 74.8152C164.796 72.9622 163.278 72.8572 138.604 72.8932C117.353 72.9242 112.277 73.1952 111.259 74.3512ZM172.25 74.8412C170.545 77.5722 170.695 81.3982 172.58 83.2842C174.749 85.4522 185.269 85.4522 187.438 83.2842C189.342 81.3792 189.432 76.9972 187.617 74.6052C185.576 71.9172 173.964 72.0952 172.25 74.8412ZM235.123 81.8542C228.548 85.0172 221.503 91.2662 219.06 96.1052C218.296 97.6182 216.868 98.8552 215.887 98.8552C214.137 98.8552 208.994 100.804 208.009 101.84C207.734 102.13 205.934 103.539 204.009 104.972C202.002 106.465 199.916 109.236 199.118 111.466C197.467 116.082 196.536 116.819 192.338 116.84C189.668 116.853 189.07 116.41 188.548 114.035C187.73 110.307 181.396 103.882 177.837 103.171C176.282 102.86 175.009 102.211 175.009 101.73C175.009 101.249 172.759 100.855 170.009 100.855C167.259 100.855 165.009 101.305 165.009 101.855C165.009 102.405 164.209 102.855 163.232 102.855C162.254 102.855 160.383 103.605 159.073 104.523C157.41 105.688 155 106.121 151.077 105.961C147.989 105.835 144.348 106.157 142.986 106.676C139.96 107.829 133.009 114.068 133.009 115.631C133.009 116.254 131.322 117.048 129.259 117.394C121.618 118.677 119.355 119.87 116.488 124.129C114.19 127.544 113.648 129.434 113.666 133.975C113.678 137.067 114.215 140.217 114.859 140.975C115.504 141.734 116.895 143.512 117.952 144.926C121.486 149.656 124.016 149.855 180.753 149.855C238.31 149.855 237.692 149.914 234.929 144.669C234.258 143.396 233.214 142.024 232.609 141.62C232.004 141.216 207.997 140.879 179.259 140.87C128.353 140.855 126.958 140.804 125.009 138.855C122.488 136.334 122.441 131.778 124.904 128.736C126.376 126.919 128.105 126.28 132.645 125.875C137.937 125.404 138.626 125.071 139.913 122.355C142.625 116.632 148.01 114.328 154.573 116.083C158.653 117.175 158.977 117.09 162.453 114.038C169.894 107.505 179.623 111.221 180.941 121.1L181.509 125.355L191.863 125.641C198.185 125.816 202.72 125.51 203.508 124.856C204.219 124.266 205.09 122.238 205.444 120.349C206.639 113.98 212.59 108.775 220.337 107.321C223.519 106.724 224.463 105.905 226.484 101.986C234.407 86.6192 256.932 83.4112 268.659 95.9792C272.402 99.9912 276.004 106.526 276.023 109.34C276.055 114.132 277.188 115.798 280.869 116.469C291.901 118.479 295.636 130.585 287.443 137.779L283.939 140.855H266.64H249.34L246.869 143.628C244.529 146.254 244.489 146.497 246.11 148.204C247.669 149.846 249.592 149.978 267.665 149.681C286.591 149.37 287.698 149.243 291.597 146.926C297.247 143.569 300.024 137.358 299.964 128.213C299.895 117.74 295.585 111.195 286.799 108.221C285.797 107.882 284.46 105.477 283.568 102.41C282.731 99.5322 280.658 95.4182 278.96 93.2662C275.383 88.7342 268.313 82.8552 266.44 82.8552C265.731 82.8552 264.401 82.1042 263.483 81.1872C262.203 79.9062 259.454 79.4332 251.662 79.1512C242.009 78.8012 241.194 78.9342 235.123 81.8542ZM46.2589 92.9742C44.4709 93.4902 43.0089 94.3252 43.0089 94.8292C43.0089 95.3332 41.7849 96.3332 40.2879 97.0502C38.7919 97.7682 37.0429 99.4082 36.4019 100.694C35.4569 102.59 34.2899 103.099 30.2409 103.378C21.6199 103.975 14.2019 109.805 14.0509 116.105C14.0249 117.189 13.2289 117.855 11.9589 117.855C5.65687 117.855 0.0088706 125.252 0.0088706 133.507C0.0088706 139.811 2.67087 144.749 7.61287 147.612C11.5019 149.865 11.5819 149.869 51.5089 149.612C87.5629 149.38 91.8279 149.181 94.7419 147.588C99.1279 145.191 101.209 140.771 101.209 133.855C101.209 123.655 96.5309 118.652 85.7589 117.33C80.3939 116.672 80.0089 116.448 80.0029 113.99C79.9949 109.801 78.0159 103.795 76.4469 103.193C75.6559 102.889 75.0089 102.047 75.0089 101.321C75.0089 100.594 73.7719 99.0722 72.2589 97.9382C70.7459 96.8052 68.9579 95.4152 68.2849 94.8512C64.7289 91.8702 53.4189 90.9062 46.2589 92.9742ZM248.129 97.6312C246.735 100.236 248.456 102.529 252.358 103.261C256.24 103.989 258.563 106.192 259.529 110.064C260.422 113.643 262.417 115.178 265.079 114.333C267.001 113.723 267.186 113.121 266.723 109C266.277 105.039 265.509 103.729 261.508 100.105C257.689 96.6462 256.095 95.8552 252.947 95.8552C250.266 95.8552 248.788 96.4002 248.129 97.6312ZM62.0169 102.475C67.7609 104.773 71.1939 110.819 70.8989 118.115C70.7789 121.085 71.0059 124.041 71.4039 124.685C71.8539 125.413 75.0109 125.855 79.7629 125.855C86.6879 125.855 87.6609 126.105 90.2039 128.542C93.5389 131.737 93.7579 134.633 90.9359 138.22L88.8639 140.855H50.9359C14.3419 140.855 12.9389 140.785 11.0089 138.855C8.03087 135.877 8.34187 130.525 11.6439 127.928C13.0929 126.788 15.4779 125.855 16.9439 125.855C20.2389 125.855 22.0089 124.189 22.0089 121.089C22.0089 115.142 27.1299 111.64 35.1899 112.076C40.2059 112.347 40.4139 112.249 42.2799 108.755C44.3779 104.828 50.6719 101.021 55.2389 100.917C56.7399 100.883 59.7899 101.584 62.0169 102.475ZM43.0089 162.855C43.0089 163.405 42.1659 163.855 41.1359 163.855C35.9039 163.855 21.0089 173.933 21.0089 177.473C21.0089 178.115 20.3649 178.888 19.5769 179.191C18.7889 179.493 17.3899 182.43 16.4679 185.717C15.1329 190.475 14.3069 191.814 12.4179 192.288C9.00787 193.144 2.93787 198.781 1.35987 202.557C-0.713129 207.519 -0.363129 218.149 2.04887 223.442C3.66487 226.99 5.06687 228.38 8.79887 230.137C11.3889 231.357 13.6589 232.692 13.8419 233.105C14.0259 233.518 42.6409 233.855 77.4319 233.855H140.688L141.827 231.355C142.454 229.98 142.556 228.855 142.055 228.855C141.554 228.855 140.858 227.955 140.509 226.855C139.884 224.885 138.971 224.854 79.6919 224.799C35.7959 224.757 18.5709 224.419 16.0439 223.549C4.50487 219.574 6.23587 202.502 18.4199 200.104C22.1709 199.366 22.5789 198.972 23.3539 195.327C25.5019 185.223 32.9579 175.748 40.9079 173.021C45.5649 171.424 56.3539 171.554 60.4309 173.258C65.3469 175.312 71.5819 181.342 74.0399 186.419C75.2969 189.017 76.8759 190.857 77.8479 190.861C82.6649 190.877 87.7689 193.358 91.6449 197.569C94.8969 201.102 96.2319 201.919 97.8949 201.391C99.0579 201.022 100.009 200.294 100.009 199.774C100.009 197.316 104.949 191.741 108.856 189.789C117.385 185.529 126.235 189.46 129.82 199.102C131.985 204.922 134.342 206.136 138.216 203.423C142.318 200.549 147.112 201.402 151.887 205.855L156.177 209.855H174.659C184.824 209.855 193.951 209.421 194.943 208.891C195.934 208.36 197.02 206.549 197.357 204.866C198.072 201.289 201.297 199.653 204.931 201.023C208.417 202.338 209.825 201.449 211.896 196.626C212.904 194.277 215.231 190.889 217.067 189.097C226.508 179.881 244.437 183.474 249.54 195.605C250.802 198.605 251.262 198.855 255.524 198.855C261.463 198.855 263.551 200.037 265.963 204.765C268.354 209.451 269.32 209.855 278.14 209.855C287.638 209.855 291.014 211.635 290.994 216.631C290.975 221.22 290.241 222.436 286.674 223.792C284.805 224.503 262.382 224.855 219.011 224.855C155.022 224.855 154.135 224.882 153.509 226.855C153.16 227.955 152.464 228.855 151.963 228.855C151.462 228.855 151.564 229.98 152.191 231.355L153.33 233.855H221.212C267.573 233.855 289.476 233.519 290.301 232.796C290.965 232.213 292.882 230.924 294.56 229.931C299.761 226.855 301.711 215.749 298.257 208.875C295.383 203.154 290.91 200.857 282.611 200.841L275.509 200.828L271.658 196.368C269.018 193.311 266.737 191.707 264.408 191.27C262.538 190.919 261.009 190.232 261.009 189.744C261.009 189.255 260.127 188.855 259.049 188.855C257.971 188.855 254.985 186.605 252.412 183.855C249.84 181.105 247.154 178.855 246.444 178.855C245.733 178.855 244.489 178.192 243.678 177.381C240.201 173.904 223.091 173.066 219.713 176.207C219.034 176.838 216.72 178.255 214.57 179.355C210.765 181.301 205.009 187.931 205.009 190.366C205.009 191.082 202.865 191.826 199.759 192.187C195.24 192.712 194.013 193.358 190.947 196.826L187.385 200.855H173.774H160.163L157.096 197.788C153.65 194.343 149.505 192.855 143.347 192.855C138.383 192.855 136.009 192.077 136.009 190.451C136.009 189.796 134.277 187.57 132.16 185.502C123.528 177.074 106.172 177.082 98.2879 185.518L96.0679 187.895L91.2879 185.383C88.6599 184.002 85.3739 182.468 83.9879 181.975C82.6009 181.482 80.8159 179.791 80.0209 178.217C77.4419 173.111 70.0809 167.148 64.0869 165.309C61.0189 164.368 58.0819 163.206 57.5589 162.726C56.2279 161.506 43.0089 161.622 43.0089 162.855ZM43.2589 238.351C41.9259 239.865 41.6169 243.671 42.6159 246.273C43.0869 247.5 44.7419 247.855 49.9949 247.855C56.5729 247.855 56.8019 247.77 58.0069 244.861C59.0519 242.337 58.9889 241.473 57.6049 239.361C56.1629 237.16 55.2659 236.86 50.2359 236.893C46.5839 236.917 44.0559 237.445 43.2589 238.351ZM63.2589 238.351C61.9259 239.865 61.6169 243.671 62.6159 246.273C63.1499 247.664 66.6379 247.855 91.5089 247.855C122.428 247.855 121.009 248.138 121.009 241.973C121.009 236.925 120.584 236.852 91.5589 236.893C69.4829 236.924 64.2789 237.192 63.2589 238.351Z" fill="black"/>
</svg>
