<svg width="8" height="8" viewBox="0 0 8 8" fill="none" xmlns="http://www.w3.org/2000/svg">
<g clip-path="url(#clip0)">
<path d="M4.15625 6.57812C4.15625 6.66443 4.0863 6.73438 4 6.73438C3.9137 6.73438 3.84375 6.66443 3.84375 6.57812C3.84375 6.49182 3.9137 6.42188 4 6.42188C4.0863 6.42188 4.15625 6.49182 4.15625 6.57812Z" fill="black"/>
<path d="M7.84375 6.42188H6.81573C6.99243 5.92896 7.38306 5.26831 7.82501 5.12933C7.82513 5.12933 7.82526 5.12927 7.82538 5.12921C7.82837 5.1283 7.83118 5.12714 7.83405 5.12604C7.83685 5.125 7.8396 5.12396 7.84229 5.12274C7.84418 5.12195 7.84619 5.12134 7.84802 5.12048C7.9256 5.08264 7.95782 4.98907 7.91998 4.9115C7.88818 4.84637 7.81714 4.81323 7.74921 4.82672C7.66968 4.84125 6.38269 5.09613 5.60413 6.42188H5.57697C6.01813 4.5058 6.86554 3.21954 6.88763 3.17572C6.96454 3.02356 6.77802 2.87817 6.64874 2.9848C6.63593 2.99536 5.44696 3.98889 4.60358 5.71729C4.51239 4.13611 4.15875 1.43066 4.15497 1.40155C4.14471 1.32379 4.07843 1.26562 4 1.26562C3.92157 1.26562 3.85529 1.32379 3.84509 1.40155C3.84125 1.43066 3.48773 4.13623 3.39642 5.71716C2.56396 4.00879 1.40424 3.02881 1.35181 2.98505C1.28638 2.93042 1.18744 2.93811 1.13177 3.00488C1.0849 3.06104 1.08502 3.13934 1.1239 3.19501C1.13245 3.20721 1.95844 4.40387 2.4231 6.42188H2.39594C1.60968 5.08313 0.305054 4.83636 0.24884 4.82635C0.248108 4.82623 0.247375 4.82617 0.246582 4.82605C0.24231 4.82532 0.237976 4.82477 0.233643 4.8244C0.233215 4.82434 0.232788 4.82434 0.232361 4.82428C0.170349 4.81958 0.108948 4.85223 0.0800171 4.9115C0.0421753 4.98907 0.0744019 5.08258 0.151978 5.12042C0.160034 5.12439 0.168579 5.12762 0.177368 5.13013C0.642639 5.29156 1.01483 5.94922 1.18427 6.42188H0.15625C0.0699463 6.42188 0 6.49182 0 6.57812C0 6.66443 0.0699463 6.73438 0.15625 6.73438H3.29688C3.38318 6.73438 3.45312 6.66443 3.45312 6.57812C3.45312 6.49182 3.38318 6.42188 3.29688 6.42188H2.74353C2.52234 5.43549 2.21417 4.63293 1.94659 4.05511C2.37366 4.5686 2.89185 5.30603 3.28662 6.22803C3.33112 6.33197 3.46881 6.3562 3.54572 6.27179L3.65253 6.1546C3.67743 6.12726 3.69183 6.09192 3.69318 6.05493C3.72443 5.17877 3.87836 3.73975 4 2.70172C4.1217 3.73969 4.27563 5.17847 4.30676 6.05487C4.30811 6.09186 4.32251 6.1272 4.34747 6.1546L4.45422 6.27173C4.53064 6.35547 4.66858 6.33246 4.71332 6.22797C5.10974 5.30219 5.62811 4.56464 6.05481 4.05212C5.78693 4.63013 5.47803 5.43378 5.25653 6.42188H4.70312C4.61682 6.42188 4.54688 6.49182 4.54688 6.57812C4.54688 6.66443 4.61682 6.73438 4.70312 6.73438H7.84375C7.93005 6.73438 8 6.66443 8 6.57812C8 6.49182 7.93005 6.42188 7.84375 6.42188ZM1.05774 5.48828C1.37659 5.68268 1.73175 5.97791 2.02753 6.42188H1.51477C1.38226 6.01923 1.22052 5.71588 1.05774 5.48828ZM6.94226 5.48822C6.77948 5.71582 6.61774 6.01923 6.48523 6.42188H5.97247C6.26825 5.97791 6.62347 5.68262 6.94226 5.48822Z" fill="black"/>
</g>
<defs>
<clipPath id="clip0">
<rect width="8" height="8" fill="white"/>
</clipPath>
</defs>
</svg>
