<svg width="140" height="139" viewBox="0 0 140 139" fill="none" xmlns="http://www.w3.org/2000/svg">
<path fill-rule="evenodd" clip-rule="evenodd" d="M57 1.02194C47.09 2.96194 46 3.25594 46 3.98594C46 4.40294 44.238 5.02594 42.084 5.37094C39.93 5.71494 38.017 6.33494 37.834 6.74794C37.65 7.16194 35.711 8.39994 33.524 9.49994C31.338 10.5999 28.273 12.6249 26.713 13.9999C21.172 18.8849 18 22.1659 18 23.0099C18 23.4799 17.205 24.1179 16.233 24.4259C15.261 24.7349 13.348 27.1139 11.983 29.7139C10.617 32.3129 8.735 35.3019 7.8 36.3549C6.865 37.4089 5.816 39.5589 5.47 41.1349C5.124 42.7109 4.449 43.9999 3.97 43.9999C3.491 43.9999 2.794 46.6999 2.42 49.9999C2.047 53.2999 1.35 55.9999 0.871 55.9999C0.392 55.9999 0 62.5249 0 70.4999C0 78.4749 0.398 84.9999 0.885 84.9999C1.371 84.9999 2.079 87.4749 2.457 90.4999C2.835 93.5249 3.541 95.9999 4.027 95.9999C4.512 95.9999 5.205 97.5749 5.566 99.4999C5.927 101.425 6.623 103 7.111 103C7.6 103 8 103.675 8 104.5C8 105.325 8.45 106 9 106C9.55 106 10 106.679 10 107.51C10 108.34 10.9 109.79 12 110.732C13.1 111.674 14 112.814 14 113.266C14 114.222 24.522 125 25.455 125C25.801 125 26.628 125.458 27.292 126.019C32.219 130.173 33.524 131 35.153 131C36.169 131 37 131.45 37 132C37 132.55 37.675 133 38.5 133C39.325 133 40 133.43 40 133.955C40 134.48 41.688 135.22 43.75 135.599C45.813 135.978 47.821 136.786 48.214 137.394C49.207 138.934 88.793 138.934 89.786 137.394C90.179 136.786 92.188 135.978 94.25 135.599C96.313 135.22 98 134.48 98 133.955C98 133.43 98.639 133 99.419 133C101.331 133 107.305 129.805 108.3 128.25C108.74 127.563 109.549 127 110.1 127C111.695 127 126.665 111.632 127.436 109.203C127.82 107.991 128.554 107 129.067 107C129.58 107 130 106.325 130 105.5C130 104.675 130.414 104 130.921 104C131.427 104 132.138 102.65 132.5 101C132.862 99.3499 133.531 97.9999 133.986 97.9999C134.44 97.9999 135.122 95.7499 135.5 92.9999C135.878 90.2499 136.595 87.9999 137.094 87.9999C137.592 87.9999 138 86.0019 138 83.5589C138 81.1159 138.45 78.8399 139 78.4999C139.55 78.1599 140 74.3349 140 69.9999C140 65.6649 139.55 61.8399 139 61.4999C138.45 61.1599 138 58.8839 138 56.4409C138 53.9979 137.601 51.9999 137.114 51.9999C136.626 51.9999 135.923 49.9749 135.552 47.4999C135.181 45.0249 134.455 42.9999 133.939 42.9999C133.422 42.9999 133 42.5529 133 42.0069C133 40.2989 129.567 32.9999 128.764 32.9999C128.344 32.9999 128 32.3209 128 31.4899C128 30.6599 127.1 29.2099 126 28.2679C124.9 27.3259 124 26.1989 124 25.7629C124 24.6159 115.461 15.9999 114.325 15.9999C113.799 15.9999 111.97 14.4209 110.261 12.4899C108.521 10.5249 105.8 8.70994 104.077 8.36494C102.385 8.02694 101 7.36194 101 6.88694C101 6.41194 99.2 5.73594 97 5.38394C94.8 5.03194 93 4.35194 93 3.87194C93 3.39194 91.965 2.99994 90.7 2.99994C89.435 2.99994 87.882 2.48194 87.248 1.84794C85.806 0.405943 63.289 -0.209056 57 1.02194ZM67 35.9999V66.9999L35.25 66.9849C17.788 66.9759 3.994 66.6389 4.599 66.2349C5.203 65.8309 6.002 62.1439 6.375 58.0429C6.748 53.9409 7.426 50.3409 7.882 50.0429C8.338 49.7439 9.022 47.8129 9.401 45.7499C9.78 43.6879 10.52 41.9999 11.045 41.9999C11.57 41.9999 12 41.3249 12 40.4999C12 39.6749 12.42 38.9999 12.933 38.9999C13.446 38.9999 14.18 38.0079 14.565 36.7969C14.949 35.5849 15.879 33.9779 16.632 33.2249C17.384 32.4729 18.012 31.3269 18.028 30.6789C18.043 30.0299 19.608 28.3749 21.507 26.9999C23.405 25.6249 25.197 23.7929 25.49 22.9279C25.782 22.0629 27.817 20.3469 30.011 19.1139C32.205 17.8809 34 16.4509 34 15.9359C34 15.4209 34.9 14.9999 36 14.9999C37.1 14.9999 38 14.5859 38 14.0789C38 13.5729 39.35 12.8619 41 12.4999C42.65 12.1379 44 11.4319 44 10.9319C44 10.4329 45.8 9.73594 48 9.38394C50.2 9.03194 52 8.35194 52 7.87194C52 7.39194 53.8 6.99994 56 6.99994C58.2 6.99994 60 6.54994 60 5.99994C60 5.44994 61.575 4.99994 63.5 4.99994H67V35.9999ZM67 102.832V134.665L61.25 134.198C58.088 133.942 55.275 133.41 55 133.015C54.725 132.621 53.375 132.034 52 131.71C47.484 130.649 42 128.524 42 127.835C42 127.463 40.65 126.862 39 126.5C37.35 126.138 36 125.427 36 124.921C36 124.414 35.489 124 34.865 124C34.24 124 32.735 122.928 31.521 121.617C30.306 120.306 28.454 118.961 27.405 118.628C26.355 118.295 24.373 116.611 22.999 114.885C21.624 113.158 19.263 110.438 17.75 108.839C16.237 107.239 15 105.453 15 104.87C15 103.515 11.74 97.6069 10.75 97.1669C10.337 96.9829 9.997 96.3079 9.994 95.6669C9.99 95.0249 9.313 93.2069 8.489 91.6269C7.665 90.0469 6.702 85.6449 6.349 81.8459C5.996 78.0459 5.323 74.6999 4.853 74.4089C4.384 74.1189 4 73.2339 4 72.4409C4 71.2169 8.74 70.9999 35.5 70.9999H67V102.832Z" fill="black"/>
<path fill-rule="evenodd" clip-rule="evenodd" d="M57 1.02194C47.09 2.96194 46 3.25594 46 3.98594C46 4.40294 44.238 5.02594 42.084 5.37094C39.93 5.71494 38.017 6.33494 37.834 6.74794C37.65 7.16194 35.711 8.39994 33.524 9.49994C31.338 10.5999 28.273 12.6249 26.713 13.9999C21.172 18.8849 18 22.1659 18 23.0099C18 23.4799 17.205 24.1179 16.233 24.4259C15.261 24.7349 13.348 27.1139 11.983 29.7139C10.617 32.3129 8.735 35.3019 7.8 36.3549C6.865 37.4089 5.816 39.5589 5.47 41.1349C5.124 42.7109 4.449 43.9999 3.97 43.9999C3.491 43.9999 2.794 46.6999 2.42 49.9999C2.047 53.2999 1.35 55.9999 0.871 55.9999C0.392 55.9999 0 62.5249 0 70.4999C0 78.4749 0.398 84.9999 0.885 84.9999C1.371 84.9999 2.079 87.4749 2.457 90.4999C2.835 93.5249 3.541 95.9999 4.027 95.9999C4.512 95.9999 5.205 97.5749 5.566 99.4999C5.927 101.425 6.623 103 7.111 103C7.6 103 8 103.675 8 104.5C8 105.325 8.45 106 9 106C9.55 106 10 106.679 10 107.51C10 108.34 10.9 109.79 12 110.732C13.1 111.674 14 112.814 14 113.266C14 114.222 24.522 125 25.455 125C25.801 125 26.628 125.458 27.292 126.019C32.219 130.173 33.524 131 35.153 131C36.169 131 37 131.45 37 132C37 132.55 37.675 133 38.5 133C39.325 133 40 133.43 40 133.955C40 134.48 41.688 135.22 43.75 135.599C45.813 135.978 47.821 136.786 48.214 137.394C49.207 138.934 88.793 138.934 89.786 137.394C90.179 136.786 92.188 135.978 94.25 135.599C96.313 135.22 98 134.48 98 133.955C98 133.43 98.639 133 99.419 133C101.331 133 107.305 129.805 108.3 128.25C108.74 127.563 109.549 127 110.1 127C111.695 127 126.665 111.632 127.436 109.203C127.82 107.991 128.554 107 129.067 107C129.58 107 130 106.325 130 105.5C130 104.675 130.414 104 130.921 104C131.427 104 132.138 102.65 132.5 101C132.862 99.3499 133.531 97.9999 133.986 97.9999C134.44 97.9999 135.122 95.7499 135.5 92.9999C135.878 90.2499 136.595 87.9999 137.094 87.9999C137.592 87.9999 138 86.0019 138 83.5589C138 81.1159 138.45 78.8399 139 78.4999C139.55 78.1599 140 74.3349 140 69.9999C140 65.6649 139.55 61.8399 139 61.4999C138.45 61.1599 138 58.8839 138 56.4409C138 53.9979 137.601 51.9999 137.114 51.9999C136.626 51.9999 135.923 49.9749 135.552 47.4999C135.181 45.0249 134.455 42.9999 133.939 42.9999C133.422 42.9999 133 42.5529 133 42.0069C133 40.2989 129.567 32.9999 128.764 32.9999C128.344 32.9999 128 32.3209 128 31.4899C128 30.6599 127.1 29.2099 126 28.2679C124.9 27.3259 124 26.1989 124 25.7629C124 24.6159 115.461 15.9999 114.325 15.9999C113.799 15.9999 111.97 14.4209 110.261 12.4899C108.521 10.5249 105.8 8.70994 104.077 8.36494C102.385 8.02694 101 7.36194 101 6.88694C101 6.41194 99.2 5.73594 97 5.38394C94.8 5.03194 93 4.35194 93 3.87194C93 3.39194 91.965 2.99994 90.7 2.99994C89.435 2.99994 87.882 2.48194 87.248 1.84794C85.806 0.405943 63.289 -0.209056 57 1.02194ZM67 35.9999V66.9999L35.25 66.9849C17.788 66.9759 3.994 66.6389 4.599 66.2349C5.203 65.8309 6.002 62.1439 6.375 58.0429C6.748 53.9409 7.426 50.3409 7.882 50.0429C8.338 49.7439 9.022 47.8129 9.401 45.7499C9.78 43.6879 10.52 41.9999 11.045 41.9999C11.57 41.9999 12 41.3249 12 40.4999C12 39.6749 12.42 38.9999 12.933 38.9999C13.446 38.9999 14.18 38.0079 14.565 36.7969C14.949 35.5849 15.879 33.9779 16.632 33.2249C17.384 32.4729 18.012 31.3269 18.028 30.6789C18.043 30.0299 19.608 28.3749 21.507 26.9999C23.405 25.6249 25.197 23.7929 25.49 22.9279C25.782 22.0629 27.817 20.3469 30.011 19.1139C32.205 17.8809 34 16.4509 34 15.9359C34 15.4209 34.9 14.9999 36 14.9999C37.1 14.9999 38 14.5859 38 14.0789C38 13.5729 39.35 12.8619 41 12.4999C42.65 12.1379 44 11.4319 44 10.9319C44 10.4329 45.8 9.73594 48 9.38394C50.2 9.03194 52 8.35194 52 7.87194C52 7.39194 53.8 6.99994 56 6.99994C58.2 6.99994 60 6.54994 60 5.99994C60 5.44994 61.575 4.99994 63.5 4.99994H67V35.9999ZM67 102.832V134.665L61.25 134.198C58.088 133.942 55.275 133.41 55 133.015C54.725 132.621 53.375 132.034 52 131.71C47.484 130.649 42 128.524 42 127.835C42 127.463 40.65 126.862 39 126.5C37.35 126.138 36 125.427 36 124.921C36 124.414 35.489 124 34.865 124C34.24 124 32.735 122.928 31.521 121.617C30.306 120.306 28.454 118.961 27.405 118.628C26.355 118.295 24.373 116.611 22.999 114.885C21.624 113.158 19.263 110.438 17.75 108.839C16.237 107.239 15 105.453 15 104.87C15 103.515 11.74 97.6069 10.75 97.1669C10.337 96.9829 9.997 96.3079 9.994 95.6669C9.99 95.0249 9.313 93.2069 8.489 91.6269C7.665 90.0469 6.702 85.6449 6.349 81.8459C5.996 78.0459 5.323 74.6999 4.853 74.4089C4.384 74.1189 4 73.2339 4 72.4409C4 71.2169 8.74 70.9999 35.5 70.9999H67V102.832Z" fill="black"/>
<path fill-rule="evenodd" clip-rule="evenodd" d="M57 1.02194C47.09 2.96194 46 3.25594 46 3.98594C46 4.40294 44.238 5.02594 42.084 5.37094C39.93 5.71494 38.017 6.33494 37.834 6.74794C37.65 7.16194 35.711 8.39994 33.524 9.49994C31.338 10.5999 28.273 12.6249 26.713 13.9999C21.172 18.8849 18 22.1659 18 23.0099C18 23.4799 17.205 24.1179 16.233 24.4259C15.261 24.7349 13.348 27.1139 11.983 29.7139C10.617 32.3129 8.735 35.3019 7.8 36.3549C6.865 37.4089 5.816 39.5589 5.47 41.1349C5.124 42.7109 4.449 43.9999 3.97 43.9999C3.491 43.9999 2.794 46.6999 2.42 49.9999C2.047 53.2999 1.35 55.9999 0.871 55.9999C0.392 55.9999 0 62.5249 0 70.4999C0 78.4749 0.398 84.9999 0.885 84.9999C1.371 84.9999 2.079 87.4749 2.457 90.4999C2.835 93.5249 3.541 95.9999 4.027 95.9999C4.512 95.9999 5.205 97.5749 5.566 99.4999C5.927 101.425 6.623 103 7.111 103C7.6 103 8 103.675 8 104.5C8 105.325 8.45 106 9 106C9.55 106 10 106.679 10 107.51C10 108.34 10.9 109.79 12 110.732C13.1 111.674 14 112.814 14 113.266C14 114.222 24.522 125 25.455 125C25.801 125 26.628 125.458 27.292 126.019C32.219 130.173 33.524 131 35.153 131C36.169 131 37 131.45 37 132C37 132.55 37.675 133 38.5 133C39.325 133 40 133.43 40 133.955C40 134.48 41.688 135.22 43.75 135.599C45.813 135.978 47.821 136.786 48.214 137.394C49.207 138.934 88.793 138.934 89.786 137.394C90.179 136.786 92.188 135.978 94.25 135.599C96.313 135.22 98 134.48 98 133.955C98 133.43 98.639 133 99.419 133C101.331 133 107.305 129.805 108.3 128.25C108.74 127.563 109.549 127 110.1 127C111.695 127 126.665 111.632 127.436 109.203C127.82 107.991 128.554 107 129.067 107C129.58 107 130 106.325 130 105.5C130 104.675 130.414 104 130.921 104C131.427 104 132.138 102.65 132.5 101C132.862 99.3499 133.531 97.9999 133.986 97.9999C134.44 97.9999 135.122 95.7499 135.5 92.9999C135.878 90.2499 136.595 87.9999 137.094 87.9999C137.592 87.9999 138 86.0019 138 83.5589C138 81.1159 138.45 78.8399 139 78.4999C139.55 78.1599 140 74.3349 140 69.9999C140 65.6649 139.55 61.8399 139 61.4999C138.45 61.1599 138 58.8839 138 56.4409C138 53.9979 137.601 51.9999 137.114 51.9999C136.626 51.9999 135.923 49.9749 135.552 47.4999C135.181 45.0249 134.455 42.9999 133.939 42.9999C133.422 42.9999 133 42.5529 133 42.0069C133 40.2989 129.567 32.9999 128.764 32.9999C128.344 32.9999 128 32.3209 128 31.4899C128 30.6599 127.1 29.2099 126 28.2679C124.9 27.3259 124 26.1989 124 25.7629C124 24.6159 115.461 15.9999 114.325 15.9999C113.799 15.9999 111.97 14.4209 110.261 12.4899C108.521 10.5249 105.8 8.70994 104.077 8.36494C102.385 8.02694 101 7.36194 101 6.88694C101 6.41194 99.2 5.73594 97 5.38394C94.8 5.03194 93 4.35194 93 3.87194C93 3.39194 91.965 2.99994 90.7 2.99994C89.435 2.99994 87.882 2.48194 87.248 1.84794C85.806 0.405943 63.289 -0.209056 57 1.02194ZM67 35.9999V66.9999L35.25 66.9849C17.788 66.9759 3.994 66.6389 4.599 66.2349C5.203 65.8309 6.002 62.1439 6.375 58.0429C6.748 53.9409 7.426 50.3409 7.882 50.0429C8.338 49.7439 9.022 47.8129 9.401 45.7499C9.78 43.6879 10.52 41.9999 11.045 41.9999C11.57 41.9999 12 41.3249 12 40.4999C12 39.6749 12.42 38.9999 12.933 38.9999C13.446 38.9999 14.18 38.0079 14.565 36.7969C14.949 35.5849 15.879 33.9779 16.632 33.2249C17.384 32.4729 18.012 31.3269 18.028 30.6789C18.043 30.0299 19.608 28.3749 21.507 26.9999C23.405 25.6249 25.197 23.7929 25.49 22.9279C25.782 22.0629 27.817 20.3469 30.011 19.1139C32.205 17.8809 34 16.4509 34 15.9359C34 15.4209 34.9 14.9999 36 14.9999C37.1 14.9999 38 14.5859 38 14.0789C38 13.5729 39.35 12.8619 41 12.4999C42.65 12.1379 44 11.4319 44 10.9319C44 10.4329 45.8 9.73594 48 9.38394C50.2 9.03194 52 8.35194 52 7.87194C52 7.39194 53.8 6.99994 56 6.99994C58.2 6.99994 60 6.54994 60 5.99994C60 5.44994 61.575 4.99994 63.5 4.99994H67V35.9999ZM67 102.832V134.665L61.25 134.198C58.088 133.942 55.275 133.41 55 133.015C54.725 132.621 53.375 132.034 52 131.71C47.484 130.649 42 128.524 42 127.835C42 127.463 40.65 126.862 39 126.5C37.35 126.138 36 125.427 36 124.921C36 124.414 35.489 124 34.865 124C34.24 124 32.735 122.928 31.521 121.617C30.306 120.306 28.454 118.961 27.405 118.628C26.355 118.295 24.373 116.611 22.999 114.885C21.624 113.158 19.263 110.438 17.75 108.839C16.237 107.239 15 105.453 15 104.87C15 103.515 11.74 97.6069 10.75 97.1669C10.337 96.9829 9.997 96.3079 9.994 95.6669C9.99 95.0249 9.313 93.2069 8.489 91.6269C7.665 90.0469 6.702 85.6449 6.349 81.8459C5.996 78.0459 5.323 74.6999 4.853 74.4089C4.384 74.1189 4 73.2339 4 72.4409C4 71.2169 8.74 70.9999 35.5 70.9999H67V102.832Z" fill="black"/>
<path fill-rule="evenodd" clip-rule="evenodd" d="M57 1.02194C47.09 2.96194 46 3.25594 46 3.98594C46 4.40294 44.238 5.02594 42.084 5.37094C39.93 5.71494 38.017 6.33494 37.834 6.74794C37.65 7.16194 35.711 8.39994 33.524 9.49994C31.338 10.5999 28.273 12.6249 26.713 13.9999C21.172 18.8849 18 22.1659 18 23.0099C18 23.4799 17.205 24.1179 16.233 24.4259C15.261 24.7349 13.348 27.1139 11.983 29.7139C10.617 32.3129 8.735 35.3019 7.8 36.3549C6.865 37.4089 5.816 39.5589 5.47 41.1349C5.124 42.7109 4.449 43.9999 3.97 43.9999C3.491 43.9999 2.794 46.6999 2.42 49.9999C2.047 53.2999 1.35 55.9999 0.871 55.9999C0.392 55.9999 0 62.5249 0 70.4999C0 78.4749 0.398 84.9999 0.885 84.9999C1.371 84.9999 2.079 87.4749 2.457 90.4999C2.835 93.5249 3.541 95.9999 4.027 95.9999C4.512 95.9999 5.205 97.5749 5.566 99.4999C5.927 101.425 6.623 103 7.111 103C7.6 103 8 103.675 8 104.5C8 105.325 8.45 106 9 106C9.55 106 10 106.679 10 107.51C10 108.34 10.9 109.79 12 110.732C13.1 111.674 14 112.814 14 113.266C14 114.222 24.522 125 25.455 125C25.801 125 26.628 125.458 27.292 126.019C32.219 130.173 33.524 131 35.153 131C36.169 131 37 131.45 37 132C37 132.55 37.675 133 38.5 133C39.325 133 40 133.43 40 133.955C40 134.48 41.688 135.22 43.75 135.599C45.813 135.978 47.821 136.786 48.214 137.394C49.207 138.934 88.793 138.934 89.786 137.394C90.179 136.786 92.188 135.978 94.25 135.599C96.313 135.22 98 134.48 98 133.955C98 133.43 98.639 133 99.419 133C101.331 133 107.305 129.805 108.3 128.25C108.74 127.563 109.549 127 110.1 127C111.695 127 126.665 111.632 127.436 109.203C127.82 107.991 128.554 107 129.067 107C129.58 107 130 106.325 130 105.5C130 104.675 130.414 104 130.921 104C131.427 104 132.138 102.65 132.5 101C132.862 99.3499 133.531 97.9999 133.986 97.9999C134.44 97.9999 135.122 95.7499 135.5 92.9999C135.878 90.2499 136.595 87.9999 137.094 87.9999C137.592 87.9999 138 86.0019 138 83.5589C138 81.1159 138.45 78.8399 139 78.4999C139.55 78.1599 140 74.3349 140 69.9999C140 65.6649 139.55 61.8399 139 61.4999C138.45 61.1599 138 58.8839 138 56.4409C138 53.9979 137.601 51.9999 137.114 51.9999C136.626 51.9999 135.923 49.9749 135.552 47.4999C135.181 45.0249 134.455 42.9999 133.939 42.9999C133.422 42.9999 133 42.5529 133 42.0069C133 40.2989 129.567 32.9999 128.764 32.9999C128.344 32.9999 128 32.3209 128 31.4899C128 30.6599 127.1 29.2099 126 28.2679C124.9 27.3259 124 26.1989 124 25.7629C124 24.6159 115.461 15.9999 114.325 15.9999C113.799 15.9999 111.97 14.4209 110.261 12.4899C108.521 10.5249 105.8 8.70994 104.077 8.36494C102.385 8.02694 101 7.36194 101 6.88694C101 6.41194 99.2 5.73594 97 5.38394C94.8 5.03194 93 4.35194 93 3.87194C93 3.39194 91.965 2.99994 90.7 2.99994C89.435 2.99994 87.882 2.48194 87.248 1.84794C85.806 0.405943 63.289 -0.209056 57 1.02194ZM67 35.9999V66.9999L35.25 66.9849C17.788 66.9759 3.994 66.6389 4.599 66.2349C5.203 65.8309 6.002 62.1439 6.375 58.0429C6.748 53.9409 7.426 50.3409 7.882 50.0429C8.338 49.7439 9.022 47.8129 9.401 45.7499C9.78 43.6879 10.52 41.9999 11.045 41.9999C11.57 41.9999 12 41.3249 12 40.4999C12 39.6749 12.42 38.9999 12.933 38.9999C13.446 38.9999 14.18 38.0079 14.565 36.7969C14.949 35.5849 15.879 33.9779 16.632 33.2249C17.384 32.4729 18.012 31.3269 18.028 30.6789C18.043 30.0299 19.608 28.3749 21.507 26.9999C23.405 25.6249 25.197 23.7929 25.49 22.9279C25.782 22.0629 27.817 20.3469 30.011 19.1139C32.205 17.8809 34 16.4509 34 15.9359C34 15.4209 34.9 14.9999 36 14.9999C37.1 14.9999 38 14.5859 38 14.0789C38 13.5729 39.35 12.8619 41 12.4999C42.65 12.1379 44 11.4319 44 10.9319C44 10.4329 45.8 9.73594 48 9.38394C50.2 9.03194 52 8.35194 52 7.87194C52 7.39194 53.8 6.99994 56 6.99994C58.2 6.99994 60 6.54994 60 5.99994C60 5.44994 61.575 4.99994 63.5 4.99994H67V35.9999ZM67 102.832V134.665L61.25 134.198C58.088 133.942 55.275 133.41 55 133.015C54.725 132.621 53.375 132.034 52 131.71C47.484 130.649 42 128.524 42 127.835C42 127.463 40.65 126.862 39 126.5C37.35 126.138 36 125.427 36 124.921C36 124.414 35.489 124 34.865 124C34.24 124 32.735 122.928 31.521 121.617C30.306 120.306 28.454 118.961 27.405 118.628C26.355 118.295 24.373 116.611 22.999 114.885C21.624 113.158 19.263 110.438 17.75 108.839C16.237 107.239 15 105.453 15 104.87C15 103.515 11.74 97.6069 10.75 97.1669C10.337 96.9829 9.997 96.3079 9.994 95.6669C9.99 95.0249 9.313 93.2069 8.489 91.6269C7.665 90.0469 6.702 85.6449 6.349 81.8459C5.996 78.0459 5.323 74.6999 4.853 74.4089C4.384 74.1189 4 73.2339 4 72.4409C4 71.2169 8.74 70.9999 35.5 70.9999H67V102.832Z" fill="black"/>
<path fill-rule="evenodd" clip-rule="evenodd" d="M57 1.02194C47.09 2.96194 46 3.25594 46 3.98594C46 4.40294 44.238 5.02594 42.084 5.37094C39.93 5.71494 38.017 6.33494 37.834 6.74794C37.65 7.16194 35.711 8.39994 33.524 9.49994C31.338 10.5999 28.273 12.6249 26.713 13.9999C21.172 18.8849 18 22.1659 18 23.0099C18 23.4799 17.205 24.1179 16.233 24.4259C15.261 24.7349 13.348 27.1139 11.983 29.7139C10.617 32.3129 8.735 35.3019 7.8 36.3549C6.865 37.4089 5.816 39.5589 5.47 41.1349C5.124 42.7109 4.449 43.9999 3.97 43.9999C3.491 43.9999 2.794 46.6999 2.42 49.9999C2.047 53.2999 1.35 55.9999 0.871 55.9999C0.392 55.9999 0 62.5249 0 70.4999C0 78.4749 0.398 84.9999 0.885 84.9999C1.371 84.9999 2.079 87.4749 2.457 90.4999C2.835 93.5249 3.541 95.9999 4.027 95.9999C4.512 95.9999 5.205 97.5749 5.566 99.4999C5.927 101.425 6.623 103 7.111 103C7.6 103 8 103.675 8 104.5C8 105.325 8.45 106 9 106C9.55 106 10 106.679 10 107.51C10 108.34 10.9 109.79 12 110.732C13.1 111.674 14 112.814 14 113.266C14 114.222 24.522 125 25.455 125C25.801 125 26.628 125.458 27.292 126.019C32.219 130.173 33.524 131 35.153 131C36.169 131 37 131.45 37 132C37 132.55 37.675 133 38.5 133C39.325 133 40 133.43 40 133.955C40 134.48 41.688 135.22 43.75 135.599C45.813 135.978 47.821 136.786 48.214 137.394C49.207 138.934 88.793 138.934 89.786 137.394C90.179 136.786 92.188 135.978 94.25 135.599C96.313 135.22 98 134.48 98 133.955C98 133.43 98.639 133 99.419 133C101.331 133 107.305 129.805 108.3 128.25C108.74 127.563 109.549 127 110.1 127C111.695 127 126.665 111.632 127.436 109.203C127.82 107.991 128.554 107 129.067 107C129.58 107 130 106.325 130 105.5C130 104.675 130.414 104 130.921 104C131.427 104 132.138 102.65 132.5 101C132.862 99.3499 133.531 97.9999 133.986 97.9999C134.44 97.9999 135.122 95.7499 135.5 92.9999C135.878 90.2499 136.595 87.9999 137.094 87.9999C137.592 87.9999 138 86.0019 138 83.5589C138 81.1159 138.45 78.8399 139 78.4999C139.55 78.1599 140 74.3349 140 69.9999C140 65.6649 139.55 61.8399 139 61.4999C138.45 61.1599 138 58.8839 138 56.4409C138 53.9979 137.601 51.9999 137.114 51.9999C136.626 51.9999 135.923 49.9749 135.552 47.4999C135.181 45.0249 134.455 42.9999 133.939 42.9999C133.422 42.9999 133 42.5529 133 42.0069C133 40.2989 129.567 32.9999 128.764 32.9999C128.344 32.9999 128 32.3209 128 31.4899C128 30.6599 127.1 29.2099 126 28.2679C124.9 27.3259 124 26.1989 124 25.7629C124 24.6159 115.461 15.9999 114.325 15.9999C113.799 15.9999 111.97 14.4209 110.261 12.4899C108.521 10.5249 105.8 8.70994 104.077 8.36494C102.385 8.02694 101 7.36194 101 6.88694C101 6.41194 99.2 5.73594 97 5.38394C94.8 5.03194 93 4.35194 93 3.87194C93 3.39194 91.965 2.99994 90.7 2.99994C89.435 2.99994 87.882 2.48194 87.248 1.84794C85.806 0.405943 63.289 -0.209056 57 1.02194ZM67 35.9999V66.9999L35.25 66.9849C17.788 66.9759 3.994 66.6389 4.599 66.2349C5.203 65.8309 6.002 62.1439 6.375 58.0429C6.748 53.9409 7.426 50.3409 7.882 50.0429C8.338 49.7439 9.022 47.8129 9.401 45.7499C9.78 43.6879 10.52 41.9999 11.045 41.9999C11.57 41.9999 12 41.3249 12 40.4999C12 39.6749 12.42 38.9999 12.933 38.9999C13.446 38.9999 14.18 38.0079 14.565 36.7969C14.949 35.5849 15.879 33.9779 16.632 33.2249C17.384 32.4729 18.012 31.3269 18.028 30.6789C18.043 30.0299 19.608 28.3749 21.507 26.9999C23.405 25.6249 25.197 23.7929 25.49 22.9279C25.782 22.0629 27.817 20.3469 30.011 19.1139C32.205 17.8809 34 16.4509 34 15.9359C34 15.4209 34.9 14.9999 36 14.9999C37.1 14.9999 38 14.5859 38 14.0789C38 13.5729 39.35 12.8619 41 12.4999C42.65 12.1379 44 11.4319 44 10.9319C44 10.4329 45.8 9.73594 48 9.38394C50.2 9.03194 52 8.35194 52 7.87194C52 7.39194 53.8 6.99994 56 6.99994C58.2 6.99994 60 6.54994 60 5.99994C60 5.44994 61.575 4.99994 63.5 4.99994H67V35.9999ZM67 102.832V134.665L61.25 134.198C58.088 133.942 55.275 133.41 55 133.015C54.725 132.621 53.375 132.034 52 131.71C47.484 130.649 42 128.524 42 127.835C42 127.463 40.65 126.862 39 126.5C37.35 126.138 36 125.427 36 124.921C36 124.414 35.489 124 34.865 124C34.24 124 32.735 122.928 31.521 121.617C30.306 120.306 28.454 118.961 27.405 118.628C26.355 118.295 24.373 116.611 22.999 114.885C21.624 113.158 19.263 110.438 17.75 108.839C16.237 107.239 15 105.453 15 104.87C15 103.515 11.74 97.6069 10.75 97.1669C10.337 96.9829 9.997 96.3079 9.994 95.6669C9.99 95.0249 9.313 93.2069 8.489 91.6269C7.665 90.0469 6.702 85.6449 6.349 81.8459C5.996 78.0459 5.323 74.6999 4.853 74.4089C4.384 74.1189 4 73.2339 4 72.4409C4 71.2169 8.74 70.9999 35.5 70.9999H67V102.832Z" fill="black"/>
</svg>
