<svg width="140" height="140" viewBox="0 0 140 140" fill="none" xmlns="http://www.w3.org/2000/svg">
<path fill-rule="evenodd" clip-rule="evenodd" d="M61 0.871C61 1.35 57.86 2.051 54.023 2.429C50.186 2.807 46.784 3.54 46.464 4.058C46.144 4.576 45.009 5 43.941 5C42.873 5 42 5.4 42 5.889C42 6.377 40.425 7.073 38.5 7.434C36.575 7.795 35 8.531 35 9.07C35 9.609 33.987 10.45 32.75 10.938C29.764 12.118 27.124 14.265 19.429 21.773C15.893 25.224 13 28.663 13 29.416C13 30.17 12.325 31.045 11.5 31.362C10.675 31.678 10 32.626 10 33.469C10 34.311 9.57 35 9.045 35C8.52 35 7.795 36.575 7.434 38.5C7.073 40.425 6.377 42 5.889 42C5.4 42 5 42.675 5 43.5C5 44.325 4.582 45 4.072 45C3.562 45 2.835 47.475 2.457 50.5C2.079 53.525 1.371 56 0.885 56C0.398 56 0 62.75 0 71C0 79.25 0.398 86 0.885 86C1.371 86 2.079 88.475 2.457 91.5C2.835 94.525 3.562 97 4.072 97C4.582 97 5 97.675 5 98.5C5 99.325 5.414 100 5.921 100C6.427 100 7.138 101.35 7.5 103C7.862 104.65 8.573 106 9.079 106C9.586 106 10 106.655 10 107.455C10 108.255 11.125 110.034 12.5 111.409C13.875 112.784 15 114.28 15 114.732C15 115.185 15.788 116.308 16.75 117.227C17.712 118.147 19.009 119.426 19.631 120.069C23.419 123.987 26.977 127 27.816 127C28.35 127 29.045 127.675 29.362 128.5C29.678 129.325 30.851 130 31.969 130C33.086 130 34 130.414 34 130.921C34 131.427 35.35 132.138 37 132.5C38.65 132.862 40 133.573 40 134.079C40 134.586 40.675 135 41.5 135C42.325 135 43 135.418 43 135.928C43 136.438 45.475 137.165 48.5 137.543C51.525 137.921 54 138.629 54 139.115C54 139.602 60.975 140 69.5 140C78.025 140 85 139.608 85 139.129C85 138.65 87.25 137.959 90 137.594C92.75 137.23 95 136.497 95 135.966C95 135.435 96.125 135 97.5 135C98.875 135 100 134.55 100 134C100 133.45 100.643 133 101.429 133C102.214 133 103.473 132.384 104.225 131.632C104.978 130.879 106.544 129.962 107.706 129.593C110.427 128.73 127 112.409 127 110.593C127 109.835 127.675 108.955 128.5 108.638C129.325 108.322 130 107.374 130 106.531C130 105.689 130.43 105 130.955 105C131.48 105 132.205 103.425 132.566 101.5C132.927 99.575 133.623 98 134.111 98C134.6 98 135 97.19 135 96.2C135 95.21 135.498 93.902 136.108 93.292C136.717 92.683 137.454 89.218 137.745 85.592C138.036 81.967 138.662 79 139.137 79C140.313 79 140.236 63.404 139.049 61.236C138.526 60.281 137.819 56.912 137.477 53.75C137.136 50.588 136.438 48 135.928 48C135.418 48 135 46.875 135 45.5C135 44.125 134.586 43 134.079 43C133.573 43 132.862 41.65 132.5 40C132.138 38.35 131.476 37 131.029 37C130.582 37 129.925 35.836 129.568 34.414C129.211 32.992 127.924 30.804 126.709 29.552C125.494 28.3 123.825 26.272 123 25.045C120.563 21.419 118.707 19.549 115 16.98C113.075 15.646 110.609 13.737 109.52 12.738C108.431 11.74 106.518 10.666 105.27 10.353C104.021 10.04 103 9.418 103 8.971C103 8.524 101.65 7.862 100 7.5C98.35 7.138 97 6.427 97 5.921C97 5.414 95.912 5 94.583 5C93.254 5 92.014 4.543 91.828 3.985C91.642 3.427 88.455 2.687 84.745 2.341C81.035 1.994 78 1.326 78 0.855C78 0.385 74.175 0 69.5 0C64.825 0 61 0.392 61 0.871ZM85.817 7.95C86.009 8.527 87.254 9 88.583 9C89.912 9 91 9.401 91 9.892C91 10.382 92.237 11.073 93.75 11.426C100.53 13.011 104.756 15.903 114.426 25.574C122.813 33.96 124.575 36.086 125.466 38.893C125.834 40.052 126.515 41 126.979 41C127.444 41 128.128 42.8 128.5 45C128.872 47.2 129.524 49 129.95 49C130.376 49 131.287 51.813 131.975 55.25C133.593 63.334 134.425 80 133.211 80C132.702 80 131.994 82.787 131.638 86.194C131.281 89.601 130.578 92.643 130.074 92.954C129.571 93.265 128.849 94.753 128.471 96.26C128.093 97.767 127.418 99 126.971 99C126.524 99 125.882 100.263 125.543 101.806C125.204 103.349 124.043 105.248 122.963 106.027C121.883 106.805 121 108.004 121 108.692C121 110.09 108.187 123 106.8 123C105.978 123 104.861 123.788 101.659 126.628C100.959 127.249 98.95 128.072 97.193 128.458C95.437 128.843 94 129.573 94 130.079C94 130.586 92.912 131 91.583 131C90.254 131 89.002 131.494 88.801 132.098C88.6 132.701 85.412 133.438 81.717 133.735C78.023 134.031 75 134.662 75 135.137C75 135.612 72.3 136 69 136C65.7 136 63 135.608 63 135.129C63 134.65 59.85 133.948 56 133.569C52.15 133.189 49 132.456 49 131.939C49 131.423 48.493 131 47.873 131C45.478 131 33.367 124.344 30.239 121.31C28.431 119.555 26.085 117.844 25.027 117.508C23.968 117.173 22.824 116.021 22.484 114.949C22.144 113.877 21.446 113 20.933 113C20.42 113 20 112.388 20 111.64C20 110.892 18.89 109.446 17.533 108.427C16.176 107.408 14.79 105.32 14.453 103.787C14.117 102.254 13.427 101 12.921 101C12.414 101 12 100.506 12 99.901C12 98.443 8.82 91.65 7.806 90.943C7.366 90.637 6.713 86.909 6.354 82.66C5.995 78.41 5.318 74.697 4.85 74.408C3.737 73.72 3.743 66 4.856 66C5.327 66 6.015 62.737 6.384 58.75C6.753 54.763 7.493 51.35 8.027 51.167C8.562 50.983 9 49.746 9 48.417C9 47.088 9.43 46 9.955 46C10.48 46 11.199 44.456 11.553 42.569C11.907 40.682 12.827 38.896 13.598 38.601C14.369 38.305 15 37.473 15 36.752C15 36.031 15.9 34.793 17 34C18.1 33.207 19 32.028 19 31.381C19 29.963 28.586 20 29.95 20C30.477 20 32.016 18.893 33.368 17.541C34.721 16.188 36.992 14.789 38.414 14.432C39.836 14.075 41 13.402 41 12.937C41 12.471 42.58 11.794 44.511 11.432C46.442 11.07 48.269 10.374 48.57 9.887C48.871 9.399 50.216 9 51.559 9C52.902 9 54 8.579 54 8.063C54 6.591 59.486 6.151 72.983 6.54C80.499 6.756 85.606 7.317 85.817 7.95Z" fill="black"/>
<path fill-rule="evenodd" clip-rule="evenodd" d="M61 0.871C61 1.35 57.86 2.051 54.023 2.429C50.186 2.807 46.784 3.54 46.464 4.058C46.144 4.576 45.009 5 43.941 5C42.873 5 42 5.4 42 5.889C42 6.377 40.425 7.073 38.5 7.434C36.575 7.795 35 8.531 35 9.07C35 9.609 33.987 10.45 32.75 10.938C29.764 12.118 27.124 14.265 19.429 21.773C15.893 25.224 13 28.663 13 29.416C13 30.17 12.325 31.045 11.5 31.362C10.675 31.678 10 32.626 10 33.469C10 34.311 9.57 35 9.045 35C8.52 35 7.795 36.575 7.434 38.5C7.073 40.425 6.377 42 5.889 42C5.4 42 5 42.675 5 43.5C5 44.325 4.582 45 4.072 45C3.562 45 2.835 47.475 2.457 50.5C2.079 53.525 1.371 56 0.885 56C0.398 56 0 62.75 0 71C0 79.25 0.398 86 0.885 86C1.371 86 2.079 88.475 2.457 91.5C2.835 94.525 3.562 97 4.072 97C4.582 97 5 97.675 5 98.5C5 99.325 5.414 100 5.921 100C6.427 100 7.138 101.35 7.5 103C7.862 104.65 8.573 106 9.079 106C9.586 106 10 106.655 10 107.455C10 108.255 11.125 110.034 12.5 111.409C13.875 112.784 15 114.28 15 114.732C15 115.185 15.788 116.308 16.75 117.227C17.712 118.147 19.009 119.426 19.631 120.069C23.419 123.987 26.977 127 27.816 127C28.35 127 29.045 127.675 29.362 128.5C29.678 129.325 30.851 130 31.969 130C33.086 130 34 130.414 34 130.921C34 131.427 35.35 132.138 37 132.5C38.65 132.862 40 133.573 40 134.079C40 134.586 40.675 135 41.5 135C42.325 135 43 135.418 43 135.928C43 136.438 45.475 137.165 48.5 137.543C51.525 137.921 54 138.629 54 139.115C54 139.602 60.975 140 69.5 140C78.025 140 85 139.608 85 139.129C85 138.65 87.25 137.959 90 137.594C92.75 137.23 95 136.497 95 135.966C95 135.435 96.125 135 97.5 135C98.875 135 100 134.55 100 134C100 133.45 100.643 133 101.429 133C102.214 133 103.473 132.384 104.225 131.632C104.978 130.879 106.544 129.962 107.706 129.593C110.427 128.73 127 112.409 127 110.593C127 109.835 127.675 108.955 128.5 108.638C129.325 108.322 130 107.374 130 106.531C130 105.689 130.43 105 130.955 105C131.48 105 132.205 103.425 132.566 101.5C132.927 99.575 133.623 98 134.111 98C134.6 98 135 97.19 135 96.2C135 95.21 135.498 93.902 136.108 93.292C136.717 92.683 137.454 89.218 137.745 85.592C138.036 81.967 138.662 79 139.137 79C140.313 79 140.236 63.404 139.049 61.236C138.526 60.281 137.819 56.912 137.477 53.75C137.136 50.588 136.438 48 135.928 48C135.418 48 135 46.875 135 45.5C135 44.125 134.586 43 134.079 43C133.573 43 132.862 41.65 132.5 40C132.138 38.35 131.476 37 131.029 37C130.582 37 129.925 35.836 129.568 34.414C129.211 32.992 127.924 30.804 126.709 29.552C125.494 28.3 123.825 26.272 123 25.045C120.563 21.419 118.707 19.549 115 16.98C113.075 15.646 110.609 13.737 109.52 12.738C108.431 11.74 106.518 10.666 105.27 10.353C104.021 10.04 103 9.418 103 8.971C103 8.524 101.65 7.862 100 7.5C98.35 7.138 97 6.427 97 5.921C97 5.414 95.912 5 94.583 5C93.254 5 92.014 4.543 91.828 3.985C91.642 3.427 88.455 2.687 84.745 2.341C81.035 1.994 78 1.326 78 0.855C78 0.385 74.175 0 69.5 0C64.825 0 61 0.392 61 0.871ZM85.817 7.95C86.009 8.527 87.254 9 88.583 9C89.912 9 91 9.401 91 9.892C91 10.382 92.237 11.073 93.75 11.426C100.53 13.011 104.756 15.903 114.426 25.574C122.813 33.96 124.575 36.086 125.466 38.893C125.834 40.052 126.515 41 126.979 41C127.444 41 128.128 42.8 128.5 45C128.872 47.2 129.524 49 129.95 49C130.376 49 131.287 51.813 131.975 55.25C133.593 63.334 134.425 80 133.211 80C132.702 80 131.994 82.787 131.638 86.194C131.281 89.601 130.578 92.643 130.074 92.954C129.571 93.265 128.849 94.753 128.471 96.26C128.093 97.767 127.418 99 126.971 99C126.524 99 125.882 100.263 125.543 101.806C125.204 103.349 124.043 105.248 122.963 106.027C121.883 106.805 121 108.004 121 108.692C121 110.09 108.187 123 106.8 123C105.978 123 104.861 123.788 101.659 126.628C100.959 127.249 98.95 128.072 97.193 128.458C95.437 128.843 94 129.573 94 130.079C94 130.586 92.912 131 91.583 131C90.254 131 89.002 131.494 88.801 132.098C88.6 132.701 85.412 133.438 81.717 133.735C78.023 134.031 75 134.662 75 135.137C75 135.612 72.3 136 69 136C65.7 136 63 135.608 63 135.129C63 134.65 59.85 133.948 56 133.569C52.15 133.189 49 132.456 49 131.939C49 131.423 48.493 131 47.873 131C45.478 131 33.367 124.344 30.239 121.31C28.431 119.555 26.085 117.844 25.027 117.508C23.968 117.173 22.824 116.021 22.484 114.949C22.144 113.877 21.446 113 20.933 113C20.42 113 20 112.388 20 111.64C20 110.892 18.89 109.446 17.533 108.427C16.176 107.408 14.79 105.32 14.453 103.787C14.117 102.254 13.427 101 12.921 101C12.414 101 12 100.506 12 99.901C12 98.443 8.82 91.65 7.806 90.943C7.366 90.637 6.713 86.909 6.354 82.66C5.995 78.41 5.318 74.697 4.85 74.408C3.737 73.72 3.743 66 4.856 66C5.327 66 6.015 62.737 6.384 58.75C6.753 54.763 7.493 51.35 8.027 51.167C8.562 50.983 9 49.746 9 48.417C9 47.088 9.43 46 9.955 46C10.48 46 11.199 44.456 11.553 42.569C11.907 40.682 12.827 38.896 13.598 38.601C14.369 38.305 15 37.473 15 36.752C15 36.031 15.9 34.793 17 34C18.1 33.207 19 32.028 19 31.381C19 29.963 28.586 20 29.95 20C30.477 20 32.016 18.893 33.368 17.541C34.721 16.188 36.992 14.789 38.414 14.432C39.836 14.075 41 13.402 41 12.937C41 12.471 42.58 11.794 44.511 11.432C46.442 11.07 48.269 10.374 48.57 9.887C48.871 9.399 50.216 9 51.559 9C52.902 9 54 8.579 54 8.063C54 6.591 59.486 6.151 72.983 6.54C80.499 6.756 85.606 7.317 85.817 7.95Z" fill="black"/>
<path fill-rule="evenodd" clip-rule="evenodd" d="M61 0.871C61 1.35 57.86 2.051 54.023 2.429C50.186 2.807 46.784 3.54 46.464 4.058C46.144 4.576 45.009 5 43.941 5C42.873 5 42 5.4 42 5.889C42 6.377 40.425 7.073 38.5 7.434C36.575 7.795 35 8.531 35 9.07C35 9.609 33.987 10.45 32.75 10.938C29.764 12.118 27.124 14.265 19.429 21.773C15.893 25.224 13 28.663 13 29.416C13 30.17 12.325 31.045 11.5 31.362C10.675 31.678 10 32.626 10 33.469C10 34.311 9.57 35 9.045 35C8.52 35 7.795 36.575 7.434 38.5C7.073 40.425 6.377 42 5.889 42C5.4 42 5 42.675 5 43.5C5 44.325 4.582 45 4.072 45C3.562 45 2.835 47.475 2.457 50.5C2.079 53.525 1.371 56 0.885 56C0.398 56 0 62.75 0 71C0 79.25 0.398 86 0.885 86C1.371 86 2.079 88.475 2.457 91.5C2.835 94.525 3.562 97 4.072 97C4.582 97 5 97.675 5 98.5C5 99.325 5.414 100 5.921 100C6.427 100 7.138 101.35 7.5 103C7.862 104.65 8.573 106 9.079 106C9.586 106 10 106.655 10 107.455C10 108.255 11.125 110.034 12.5 111.409C13.875 112.784 15 114.28 15 114.732C15 115.185 15.788 116.308 16.75 117.227C17.712 118.147 19.009 119.426 19.631 120.069C23.419 123.987 26.977 127 27.816 127C28.35 127 29.045 127.675 29.362 128.5C29.678 129.325 30.851 130 31.969 130C33.086 130 34 130.414 34 130.921C34 131.427 35.35 132.138 37 132.5C38.65 132.862 40 133.573 40 134.079C40 134.586 40.675 135 41.5 135C42.325 135 43 135.418 43 135.928C43 136.438 45.475 137.165 48.5 137.543C51.525 137.921 54 138.629 54 139.115C54 139.602 60.975 140 69.5 140C78.025 140 85 139.608 85 139.129C85 138.65 87.25 137.959 90 137.594C92.75 137.23 95 136.497 95 135.966C95 135.435 96.125 135 97.5 135C98.875 135 100 134.55 100 134C100 133.45 100.643 133 101.429 133C102.214 133 103.473 132.384 104.225 131.632C104.978 130.879 106.544 129.962 107.706 129.593C110.427 128.73 127 112.409 127 110.593C127 109.835 127.675 108.955 128.5 108.638C129.325 108.322 130 107.374 130 106.531C130 105.689 130.43 105 130.955 105C131.48 105 132.205 103.425 132.566 101.5C132.927 99.575 133.623 98 134.111 98C134.6 98 135 97.19 135 96.2C135 95.21 135.498 93.902 136.108 93.292C136.717 92.683 137.454 89.218 137.745 85.592C138.036 81.967 138.662 79 139.137 79C140.313 79 140.236 63.404 139.049 61.236C138.526 60.281 137.819 56.912 137.477 53.75C137.136 50.588 136.438 48 135.928 48C135.418 48 135 46.875 135 45.5C135 44.125 134.586 43 134.079 43C133.573 43 132.862 41.65 132.5 40C132.138 38.35 131.476 37 131.029 37C130.582 37 129.925 35.836 129.568 34.414C129.211 32.992 127.924 30.804 126.709 29.552C125.494 28.3 123.825 26.272 123 25.045C120.563 21.419 118.707 19.549 115 16.98C113.075 15.646 110.609 13.737 109.52 12.738C108.431 11.74 106.518 10.666 105.27 10.353C104.021 10.04 103 9.418 103 8.971C103 8.524 101.65 7.862 100 7.5C98.35 7.138 97 6.427 97 5.921C97 5.414 95.912 5 94.583 5C93.254 5 92.014 4.543 91.828 3.985C91.642 3.427 88.455 2.687 84.745 2.341C81.035 1.994 78 1.326 78 0.855C78 0.385 74.175 0 69.5 0C64.825 0 61 0.392 61 0.871ZM85.817 7.95C86.009 8.527 87.254 9 88.583 9C89.912 9 91 9.401 91 9.892C91 10.382 92.237 11.073 93.75 11.426C100.53 13.011 104.756 15.903 114.426 25.574C122.813 33.96 124.575 36.086 125.466 38.893C125.834 40.052 126.515 41 126.979 41C127.444 41 128.128 42.8 128.5 45C128.872 47.2 129.524 49 129.95 49C130.376 49 131.287 51.813 131.975 55.25C133.593 63.334 134.425 80 133.211 80C132.702 80 131.994 82.787 131.638 86.194C131.281 89.601 130.578 92.643 130.074 92.954C129.571 93.265 128.849 94.753 128.471 96.26C128.093 97.767 127.418 99 126.971 99C126.524 99 125.882 100.263 125.543 101.806C125.204 103.349 124.043 105.248 122.963 106.027C121.883 106.805 121 108.004 121 108.692C121 110.09 108.187 123 106.8 123C105.978 123 104.861 123.788 101.659 126.628C100.959 127.249 98.95 128.072 97.193 128.458C95.437 128.843 94 129.573 94 130.079C94 130.586 92.912 131 91.583 131C90.254 131 89.002 131.494 88.801 132.098C88.6 132.701 85.412 133.438 81.717 133.735C78.023 134.031 75 134.662 75 135.137C75 135.612 72.3 136 69 136C65.7 136 63 135.608 63 135.129C63 134.65 59.85 133.948 56 133.569C52.15 133.189 49 132.456 49 131.939C49 131.423 48.493 131 47.873 131C45.478 131 33.367 124.344 30.239 121.31C28.431 119.555 26.085 117.844 25.027 117.508C23.968 117.173 22.824 116.021 22.484 114.949C22.144 113.877 21.446 113 20.933 113C20.42 113 20 112.388 20 111.64C20 110.892 18.89 109.446 17.533 108.427C16.176 107.408 14.79 105.32 14.453 103.787C14.117 102.254 13.427 101 12.921 101C12.414 101 12 100.506 12 99.901C12 98.443 8.82 91.65 7.806 90.943C7.366 90.637 6.713 86.909 6.354 82.66C5.995 78.41 5.318 74.697 4.85 74.408C3.737 73.72 3.743 66 4.856 66C5.327 66 6.015 62.737 6.384 58.75C6.753 54.763 7.493 51.35 8.027 51.167C8.562 50.983 9 49.746 9 48.417C9 47.088 9.43 46 9.955 46C10.48 46 11.199 44.456 11.553 42.569C11.907 40.682 12.827 38.896 13.598 38.601C14.369 38.305 15 37.473 15 36.752C15 36.031 15.9 34.793 17 34C18.1 33.207 19 32.028 19 31.381C19 29.963 28.586 20 29.95 20C30.477 20 32.016 18.893 33.368 17.541C34.721 16.188 36.992 14.789 38.414 14.432C39.836 14.075 41 13.402 41 12.937C41 12.471 42.58 11.794 44.511 11.432C46.442 11.07 48.269 10.374 48.57 9.887C48.871 9.399 50.216 9 51.559 9C52.902 9 54 8.579 54 8.063C54 6.591 59.486 6.151 72.983 6.54C80.499 6.756 85.606 7.317 85.817 7.95Z" fill="black"/>
<path fill-rule="evenodd" clip-rule="evenodd" d="M61 0.871C61 1.35 57.86 2.051 54.023 2.429C50.186 2.807 46.784 3.54 46.464 4.058C46.144 4.576 45.009 5 43.941 5C42.873 5 42 5.4 42 5.889C42 6.377 40.425 7.073 38.5 7.434C36.575 7.795 35 8.531 35 9.07C35 9.609 33.987 10.45 32.75 10.938C29.764 12.118 27.124 14.265 19.429 21.773C15.893 25.224 13 28.663 13 29.416C13 30.17 12.325 31.045 11.5 31.362C10.675 31.678 10 32.626 10 33.469C10 34.311 9.57 35 9.045 35C8.52 35 7.795 36.575 7.434 38.5C7.073 40.425 6.377 42 5.889 42C5.4 42 5 42.675 5 43.5C5 44.325 4.582 45 4.072 45C3.562 45 2.835 47.475 2.457 50.5C2.079 53.525 1.371 56 0.885 56C0.398 56 0 62.75 0 71C0 79.25 0.398 86 0.885 86C1.371 86 2.079 88.475 2.457 91.5C2.835 94.525 3.562 97 4.072 97C4.582 97 5 97.675 5 98.5C5 99.325 5.414 100 5.921 100C6.427 100 7.138 101.35 7.5 103C7.862 104.65 8.573 106 9.079 106C9.586 106 10 106.655 10 107.455C10 108.255 11.125 110.034 12.5 111.409C13.875 112.784 15 114.28 15 114.732C15 115.185 15.788 116.308 16.75 117.227C17.712 118.147 19.009 119.426 19.631 120.069C23.419 123.987 26.977 127 27.816 127C28.35 127 29.045 127.675 29.362 128.5C29.678 129.325 30.851 130 31.969 130C33.086 130 34 130.414 34 130.921C34 131.427 35.35 132.138 37 132.5C38.65 132.862 40 133.573 40 134.079C40 134.586 40.675 135 41.5 135C42.325 135 43 135.418 43 135.928C43 136.438 45.475 137.165 48.5 137.543C51.525 137.921 54 138.629 54 139.115C54 139.602 60.975 140 69.5 140C78.025 140 85 139.608 85 139.129C85 138.65 87.25 137.959 90 137.594C92.75 137.23 95 136.497 95 135.966C95 135.435 96.125 135 97.5 135C98.875 135 100 134.55 100 134C100 133.45 100.643 133 101.429 133C102.214 133 103.473 132.384 104.225 131.632C104.978 130.879 106.544 129.962 107.706 129.593C110.427 128.73 127 112.409 127 110.593C127 109.835 127.675 108.955 128.5 108.638C129.325 108.322 130 107.374 130 106.531C130 105.689 130.43 105 130.955 105C131.48 105 132.205 103.425 132.566 101.5C132.927 99.575 133.623 98 134.111 98C134.6 98 135 97.19 135 96.2C135 95.21 135.498 93.902 136.108 93.292C136.717 92.683 137.454 89.218 137.745 85.592C138.036 81.967 138.662 79 139.137 79C140.313 79 140.236 63.404 139.049 61.236C138.526 60.281 137.819 56.912 137.477 53.75C137.136 50.588 136.438 48 135.928 48C135.418 48 135 46.875 135 45.5C135 44.125 134.586 43 134.079 43C133.573 43 132.862 41.65 132.5 40C132.138 38.35 131.476 37 131.029 37C130.582 37 129.925 35.836 129.568 34.414C129.211 32.992 127.924 30.804 126.709 29.552C125.494 28.3 123.825 26.272 123 25.045C120.563 21.419 118.707 19.549 115 16.98C113.075 15.646 110.609 13.737 109.52 12.738C108.431 11.74 106.518 10.666 105.27 10.353C104.021 10.04 103 9.418 103 8.971C103 8.524 101.65 7.862 100 7.5C98.35 7.138 97 6.427 97 5.921C97 5.414 95.912 5 94.583 5C93.254 5 92.014 4.543 91.828 3.985C91.642 3.427 88.455 2.687 84.745 2.341C81.035 1.994 78 1.326 78 0.855C78 0.385 74.175 0 69.5 0C64.825 0 61 0.392 61 0.871ZM85.817 7.95C86.009 8.527 87.254 9 88.583 9C89.912 9 91 9.401 91 9.892C91 10.382 92.237 11.073 93.75 11.426C100.53 13.011 104.756 15.903 114.426 25.574C122.813 33.96 124.575 36.086 125.466 38.893C125.834 40.052 126.515 41 126.979 41C127.444 41 128.128 42.8 128.5 45C128.872 47.2 129.524 49 129.95 49C130.376 49 131.287 51.813 131.975 55.25C133.593 63.334 134.425 80 133.211 80C132.702 80 131.994 82.787 131.638 86.194C131.281 89.601 130.578 92.643 130.074 92.954C129.571 93.265 128.849 94.753 128.471 96.26C128.093 97.767 127.418 99 126.971 99C126.524 99 125.882 100.263 125.543 101.806C125.204 103.349 124.043 105.248 122.963 106.027C121.883 106.805 121 108.004 121 108.692C121 110.09 108.187 123 106.8 123C105.978 123 104.861 123.788 101.659 126.628C100.959 127.249 98.95 128.072 97.193 128.458C95.437 128.843 94 129.573 94 130.079C94 130.586 92.912 131 91.583 131C90.254 131 89.002 131.494 88.801 132.098C88.6 132.701 85.412 133.438 81.717 133.735C78.023 134.031 75 134.662 75 135.137C75 135.612 72.3 136 69 136C65.7 136 63 135.608 63 135.129C63 134.65 59.85 133.948 56 133.569C52.15 133.189 49 132.456 49 131.939C49 131.423 48.493 131 47.873 131C45.478 131 33.367 124.344 30.239 121.31C28.431 119.555 26.085 117.844 25.027 117.508C23.968 117.173 22.824 116.021 22.484 114.949C22.144 113.877 21.446 113 20.933 113C20.42 113 20 112.388 20 111.64C20 110.892 18.89 109.446 17.533 108.427C16.176 107.408 14.79 105.32 14.453 103.787C14.117 102.254 13.427 101 12.921 101C12.414 101 12 100.506 12 99.901C12 98.443 8.82 91.65 7.806 90.943C7.366 90.637 6.713 86.909 6.354 82.66C5.995 78.41 5.318 74.697 4.85 74.408C3.737 73.72 3.743 66 4.856 66C5.327 66 6.015 62.737 6.384 58.75C6.753 54.763 7.493 51.35 8.027 51.167C8.562 50.983 9 49.746 9 48.417C9 47.088 9.43 46 9.955 46C10.48 46 11.199 44.456 11.553 42.569C11.907 40.682 12.827 38.896 13.598 38.601C14.369 38.305 15 37.473 15 36.752C15 36.031 15.9 34.793 17 34C18.1 33.207 19 32.028 19 31.381C19 29.963 28.586 20 29.95 20C30.477 20 32.016 18.893 33.368 17.541C34.721 16.188 36.992 14.789 38.414 14.432C39.836 14.075 41 13.402 41 12.937C41 12.471 42.58 11.794 44.511 11.432C46.442 11.07 48.269 10.374 48.57 9.887C48.871 9.399 50.216 9 51.559 9C52.902 9 54 8.579 54 8.063C54 6.591 59.486 6.151 72.983 6.54C80.499 6.756 85.606 7.317 85.817 7.95Z" fill="black"/>
<path fill-rule="evenodd" clip-rule="evenodd" d="M61 0.871C61 1.35 57.86 2.051 54.023 2.429C50.186 2.807 46.784 3.54 46.464 4.058C46.144 4.576 45.009 5 43.941 5C42.873 5 42 5.4 42 5.889C42 6.377 40.425 7.073 38.5 7.434C36.575 7.795 35 8.531 35 9.07C35 9.609 33.987 10.45 32.75 10.938C29.764 12.118 27.124 14.265 19.429 21.773C15.893 25.224 13 28.663 13 29.416C13 30.17 12.325 31.045 11.5 31.362C10.675 31.678 10 32.626 10 33.469C10 34.311 9.57 35 9.045 35C8.52 35 7.795 36.575 7.434 38.5C7.073 40.425 6.377 42 5.889 42C5.4 42 5 42.675 5 43.5C5 44.325 4.582 45 4.072 45C3.562 45 2.835 47.475 2.457 50.5C2.079 53.525 1.371 56 0.885 56C0.398 56 0 62.75 0 71C0 79.25 0.398 86 0.885 86C1.371 86 2.079 88.475 2.457 91.5C2.835 94.525 3.562 97 4.072 97C4.582 97 5 97.675 5 98.5C5 99.325 5.414 100 5.921 100C6.427 100 7.138 101.35 7.5 103C7.862 104.65 8.573 106 9.079 106C9.586 106 10 106.655 10 107.455C10 108.255 11.125 110.034 12.5 111.409C13.875 112.784 15 114.28 15 114.732C15 115.185 15.788 116.308 16.75 117.227C17.712 118.147 19.009 119.426 19.631 120.069C23.419 123.987 26.977 127 27.816 127C28.35 127 29.045 127.675 29.362 128.5C29.678 129.325 30.851 130 31.969 130C33.086 130 34 130.414 34 130.921C34 131.427 35.35 132.138 37 132.5C38.65 132.862 40 133.573 40 134.079C40 134.586 40.675 135 41.5 135C42.325 135 43 135.418 43 135.928C43 136.438 45.475 137.165 48.5 137.543C51.525 137.921 54 138.629 54 139.115C54 139.602 60.975 140 69.5 140C78.025 140 85 139.608 85 139.129C85 138.65 87.25 137.959 90 137.594C92.75 137.23 95 136.497 95 135.966C95 135.435 96.125 135 97.5 135C98.875 135 100 134.55 100 134C100 133.45 100.643 133 101.429 133C102.214 133 103.473 132.384 104.225 131.632C104.978 130.879 106.544 129.962 107.706 129.593C110.427 128.73 127 112.409 127 110.593C127 109.835 127.675 108.955 128.5 108.638C129.325 108.322 130 107.374 130 106.531C130 105.689 130.43 105 130.955 105C131.48 105 132.205 103.425 132.566 101.5C132.927 99.575 133.623 98 134.111 98C134.6 98 135 97.19 135 96.2C135 95.21 135.498 93.902 136.108 93.292C136.717 92.683 137.454 89.218 137.745 85.592C138.036 81.967 138.662 79 139.137 79C140.313 79 140.236 63.404 139.049 61.236C138.526 60.281 137.819 56.912 137.477 53.75C137.136 50.588 136.438 48 135.928 48C135.418 48 135 46.875 135 45.5C135 44.125 134.586 43 134.079 43C133.573 43 132.862 41.65 132.5 40C132.138 38.35 131.476 37 131.029 37C130.582 37 129.925 35.836 129.568 34.414C129.211 32.992 127.924 30.804 126.709 29.552C125.494 28.3 123.825 26.272 123 25.045C120.563 21.419 118.707 19.549 115 16.98C113.075 15.646 110.609 13.737 109.52 12.738C108.431 11.74 106.518 10.666 105.27 10.353C104.021 10.04 103 9.418 103 8.971C103 8.524 101.65 7.862 100 7.5C98.35 7.138 97 6.427 97 5.921C97 5.414 95.912 5 94.583 5C93.254 5 92.014 4.543 91.828 3.985C91.642 3.427 88.455 2.687 84.745 2.341C81.035 1.994 78 1.326 78 0.855C78 0.385 74.175 0 69.5 0C64.825 0 61 0.392 61 0.871ZM85.817 7.95C86.009 8.527 87.254 9 88.583 9C89.912 9 91 9.401 91 9.892C91 10.382 92.237 11.073 93.75 11.426C100.53 13.011 104.756 15.903 114.426 25.574C122.813 33.96 124.575 36.086 125.466 38.893C125.834 40.052 126.515 41 126.979 41C127.444 41 128.128 42.8 128.5 45C128.872 47.2 129.524 49 129.95 49C130.376 49 131.287 51.813 131.975 55.25C133.593 63.334 134.425 80 133.211 80C132.702 80 131.994 82.787 131.638 86.194C131.281 89.601 130.578 92.643 130.074 92.954C129.571 93.265 128.849 94.753 128.471 96.26C128.093 97.767 127.418 99 126.971 99C126.524 99 125.882 100.263 125.543 101.806C125.204 103.349 124.043 105.248 122.963 106.027C121.883 106.805 121 108.004 121 108.692C121 110.09 108.187 123 106.8 123C105.978 123 104.861 123.788 101.659 126.628C100.959 127.249 98.95 128.072 97.193 128.458C95.437 128.843 94 129.573 94 130.079C94 130.586 92.912 131 91.583 131C90.254 131 89.002 131.494 88.801 132.098C88.6 132.701 85.412 133.438 81.717 133.735C78.023 134.031 75 134.662 75 135.137C75 135.612 72.3 136 69 136C65.7 136 63 135.608 63 135.129C63 134.65 59.85 133.948 56 133.569C52.15 133.189 49 132.456 49 131.939C49 131.423 48.493 131 47.873 131C45.478 131 33.367 124.344 30.239 121.31C28.431 119.555 26.085 117.844 25.027 117.508C23.968 117.173 22.824 116.021 22.484 114.949C22.144 113.877 21.446 113 20.933 113C20.42 113 20 112.388 20 111.64C20 110.892 18.89 109.446 17.533 108.427C16.176 107.408 14.79 105.32 14.453 103.787C14.117 102.254 13.427 101 12.921 101C12.414 101 12 100.506 12 99.901C12 98.443 8.82 91.65 7.806 90.943C7.366 90.637 6.713 86.909 6.354 82.66C5.995 78.41 5.318 74.697 4.85 74.408C3.737 73.72 3.743 66 4.856 66C5.327 66 6.015 62.737 6.384 58.75C6.753 54.763 7.493 51.35 8.027 51.167C8.562 50.983 9 49.746 9 48.417C9 47.088 9.43 46 9.955 46C10.48 46 11.199 44.456 11.553 42.569C11.907 40.682 12.827 38.896 13.598 38.601C14.369 38.305 15 37.473 15 36.752C15 36.031 15.9 34.793 17 34C18.1 33.207 19 32.028 19 31.381C19 29.963 28.586 20 29.95 20C30.477 20 32.016 18.893 33.368 17.541C34.721 16.188 36.992 14.789 38.414 14.432C39.836 14.075 41 13.402 41 12.937C41 12.471 42.58 11.794 44.511 11.432C46.442 11.07 48.269 10.374 48.57 9.887C48.871 9.399 50.216 9 51.559 9C52.902 9 54 8.579 54 8.063C54 6.591 59.486 6.151 72.983 6.54C80.499 6.756 85.606 7.317 85.817 7.95Z" fill="black"/>
<path fill-rule="evenodd" clip-rule="evenodd" d="M61 0.871C61 1.35 57.86 2.051 54.023 2.429C50.186 2.807 46.784 3.54 46.464 4.058C46.144 4.576 45.009 5 43.941 5C42.873 5 42 5.4 42 5.889C42 6.377 40.425 7.073 38.5 7.434C36.575 7.795 35 8.531 35 9.07C35 9.609 33.987 10.45 32.75 10.938C29.764 12.118 27.124 14.265 19.429 21.773C15.893 25.224 13 28.663 13 29.416C13 30.17 12.325 31.045 11.5 31.362C10.675 31.678 10 32.626 10 33.469C10 34.311 9.57 35 9.045 35C8.52 35 7.795 36.575 7.434 38.5C7.073 40.425 6.377 42 5.889 42C5.4 42 5 42.675 5 43.5C5 44.325 4.582 45 4.072 45C3.562 45 2.835 47.475 2.457 50.5C2.079 53.525 1.371 56 0.885 56C0.398 56 0 62.75 0 71C0 79.25 0.398 86 0.885 86C1.371 86 2.079 88.475 2.457 91.5C2.835 94.525 3.562 97 4.072 97C4.582 97 5 97.675 5 98.5C5 99.325 5.414 100 5.921 100C6.427 100 7.138 101.35 7.5 103C7.862 104.65 8.573 106 9.079 106C9.586 106 10 106.655 10 107.455C10 108.255 11.125 110.034 12.5 111.409C13.875 112.784 15 114.28 15 114.732C15 115.185 15.788 116.308 16.75 117.227C17.712 118.147 19.009 119.426 19.631 120.069C23.419 123.987 26.977 127 27.816 127C28.35 127 29.045 127.675 29.362 128.5C29.678 129.325 30.851 130 31.969 130C33.086 130 34 130.414 34 130.921C34 131.427 35.35 132.138 37 132.5C38.65 132.862 40 133.573 40 134.079C40 134.586 40.675 135 41.5 135C42.325 135 43 135.418 43 135.928C43 136.438 45.475 137.165 48.5 137.543C51.525 137.921 54 138.629 54 139.115C54 139.602 60.975 140 69.5 140C78.025 140 85 139.608 85 139.129C85 138.65 87.25 137.959 90 137.594C92.75 137.23 95 136.497 95 135.966C95 135.435 96.125 135 97.5 135C98.875 135 100 134.55 100 134C100 133.45 100.643 133 101.429 133C102.214 133 103.473 132.384 104.225 131.632C104.978 130.879 106.544 129.962 107.706 129.593C110.427 128.73 127 112.409 127 110.593C127 109.835 127.675 108.955 128.5 108.638C129.325 108.322 130 107.374 130 106.531C130 105.689 130.43 105 130.955 105C131.48 105 132.205 103.425 132.566 101.5C132.927 99.575 133.623 98 134.111 98C134.6 98 135 97.19 135 96.2C135 95.21 135.498 93.902 136.108 93.292C136.717 92.683 137.454 89.218 137.745 85.592C138.036 81.967 138.662 79 139.137 79C140.313 79 140.236 63.404 139.049 61.236C138.526 60.281 137.819 56.912 137.477 53.75C137.136 50.588 136.438 48 135.928 48C135.418 48 135 46.875 135 45.5C135 44.125 134.586 43 134.079 43C133.573 43 132.862 41.65 132.5 40C132.138 38.35 131.476 37 131.029 37C130.582 37 129.925 35.836 129.568 34.414C129.211 32.992 127.924 30.804 126.709 29.552C125.494 28.3 123.825 26.272 123 25.045C120.563 21.419 118.707 19.549 115 16.98C113.075 15.646 110.609 13.737 109.52 12.738C108.431 11.74 106.518 10.666 105.27 10.353C104.021 10.04 103 9.418 103 8.971C103 8.524 101.65 7.862 100 7.5C98.35 7.138 97 6.427 97 5.921C97 5.414 95.912 5 94.583 5C93.254 5 92.014 4.543 91.828 3.985C91.642 3.427 88.455 2.687 84.745 2.341C81.035 1.994 78 1.326 78 0.855C78 0.385 74.175 0 69.5 0C64.825 0 61 0.392 61 0.871ZM85.817 7.95C86.009 8.527 87.254 9 88.583 9C89.912 9 91 9.401 91 9.892C91 10.382 92.237 11.073 93.75 11.426C100.53 13.011 104.756 15.903 114.426 25.574C122.813 33.96 124.575 36.086 125.466 38.893C125.834 40.052 126.515 41 126.979 41C127.444 41 128.128 42.8 128.5 45C128.872 47.2 129.524 49 129.95 49C130.376 49 131.287 51.813 131.975 55.25C133.593 63.334 134.425 80 133.211 80C132.702 80 131.994 82.787 131.638 86.194C131.281 89.601 130.578 92.643 130.074 92.954C129.571 93.265 128.849 94.753 128.471 96.26C128.093 97.767 127.418 99 126.971 99C126.524 99 125.882 100.263 125.543 101.806C125.204 103.349 124.043 105.248 122.963 106.027C121.883 106.805 121 108.004 121 108.692C121 110.09 108.187 123 106.8 123C105.978 123 104.861 123.788 101.659 126.628C100.959 127.249 98.95 128.072 97.193 128.458C95.437 128.843 94 129.573 94 130.079C94 130.586 92.912 131 91.583 131C90.254 131 89.002 131.494 88.801 132.098C88.6 132.701 85.412 133.438 81.717 133.735C78.023 134.031 75 134.662 75 135.137C75 135.612 72.3 136 69 136C65.7 136 63 135.608 63 135.129C63 134.65 59.85 133.948 56 133.569C52.15 133.189 49 132.456 49 131.939C49 131.423 48.493 131 47.873 131C45.478 131 33.367 124.344 30.239 121.31C28.431 119.555 26.085 117.844 25.027 117.508C23.968 117.173 22.824 116.021 22.484 114.949C22.144 113.877 21.446 113 20.933 113C20.42 113 20 112.388 20 111.64C20 110.892 18.89 109.446 17.533 108.427C16.176 107.408 14.79 105.32 14.453 103.787C14.117 102.254 13.427 101 12.921 101C12.414 101 12 100.506 12 99.901C12 98.443 8.82 91.65 7.806 90.943C7.366 90.637 6.713 86.909 6.354 82.66C5.995 78.41 5.318 74.697 4.85 74.408C3.737 73.72 3.743 66 4.856 66C5.327 66 6.015 62.737 6.384 58.75C6.753 54.763 7.493 51.35 8.027 51.167C8.562 50.983 9 49.746 9 48.417C9 47.088 9.43 46 9.955 46C10.48 46 11.199 44.456 11.553 42.569C11.907 40.682 12.827 38.896 13.598 38.601C14.369 38.305 15 37.473 15 36.752C15 36.031 15.9 34.793 17 34C18.1 33.207 19 32.028 19 31.381C19 29.963 28.586 20 29.95 20C30.477 20 32.016 18.893 33.368 17.541C34.721 16.188 36.992 14.789 38.414 14.432C39.836 14.075 41 13.402 41 12.937C41 12.471 42.58 11.794 44.511 11.432C46.442 11.07 48.269 10.374 48.57 9.887C48.871 9.399 50.216 9 51.559 9C52.902 9 54 8.579 54 8.063C54 6.591 59.486 6.151 72.983 6.54C80.499 6.756 85.606 7.317 85.817 7.95Z" fill="black"/>
<path fill-rule="evenodd" clip-rule="evenodd" d="M61 0.871C61 1.35 57.86 2.051 54.023 2.429C50.186 2.807 46.784 3.54 46.464 4.058C46.144 4.576 45.009 5 43.941 5C42.873 5 42 5.4 42 5.889C42 6.377 40.425 7.073 38.5 7.434C36.575 7.795 35 8.531 35 9.07C35 9.609 33.987 10.45 32.75 10.938C29.764 12.118 27.124 14.265 19.429 21.773C15.893 25.224 13 28.663 13 29.416C13 30.17 12.325 31.045 11.5 31.362C10.675 31.678 10 32.626 10 33.469C10 34.311 9.57 35 9.045 35C8.52 35 7.795 36.575 7.434 38.5C7.073 40.425 6.377 42 5.889 42C5.4 42 5 42.675 5 43.5C5 44.325 4.582 45 4.072 45C3.562 45 2.835 47.475 2.457 50.5C2.079 53.525 1.371 56 0.885 56C0.398 56 0 62.75 0 71C0 79.25 0.398 86 0.885 86C1.371 86 2.079 88.475 2.457 91.5C2.835 94.525 3.562 97 4.072 97C4.582 97 5 97.675 5 98.5C5 99.325 5.414 100 5.921 100C6.427 100 7.138 101.35 7.5 103C7.862 104.65 8.573 106 9.079 106C9.586 106 10 106.655 10 107.455C10 108.255 11.125 110.034 12.5 111.409C13.875 112.784 15 114.28 15 114.732C15 115.185 15.788 116.308 16.75 117.227C17.712 118.147 19.009 119.426 19.631 120.069C23.419 123.987 26.977 127 27.816 127C28.35 127 29.045 127.675 29.362 128.5C29.678 129.325 30.851 130 31.969 130C33.086 130 34 130.414 34 130.921C34 131.427 35.35 132.138 37 132.5C38.65 132.862 40 133.573 40 134.079C40 134.586 40.675 135 41.5 135C42.325 135 43 135.418 43 135.928C43 136.438 45.475 137.165 48.5 137.543C51.525 137.921 54 138.629 54 139.115C54 139.602 60.975 140 69.5 140C78.025 140 85 139.608 85 139.129C85 138.65 87.25 137.959 90 137.594C92.75 137.23 95 136.497 95 135.966C95 135.435 96.125 135 97.5 135C98.875 135 100 134.55 100 134C100 133.45 100.643 133 101.429 133C102.214 133 103.473 132.384 104.225 131.632C104.978 130.879 106.544 129.962 107.706 129.593C110.427 128.73 127 112.409 127 110.593C127 109.835 127.675 108.955 128.5 108.638C129.325 108.322 130 107.374 130 106.531C130 105.689 130.43 105 130.955 105C131.48 105 132.205 103.425 132.566 101.5C132.927 99.575 133.623 98 134.111 98C134.6 98 135 97.19 135 96.2C135 95.21 135.498 93.902 136.108 93.292C136.717 92.683 137.454 89.218 137.745 85.592C138.036 81.967 138.662 79 139.137 79C140.313 79 140.236 63.404 139.049 61.236C138.526 60.281 137.819 56.912 137.477 53.75C137.136 50.588 136.438 48 135.928 48C135.418 48 135 46.875 135 45.5C135 44.125 134.586 43 134.079 43C133.573 43 132.862 41.65 132.5 40C132.138 38.35 131.476 37 131.029 37C130.582 37 129.925 35.836 129.568 34.414C129.211 32.992 127.924 30.804 126.709 29.552C125.494 28.3 123.825 26.272 123 25.045C120.563 21.419 118.707 19.549 115 16.98C113.075 15.646 110.609 13.737 109.52 12.738C108.431 11.74 106.518 10.666 105.27 10.353C104.021 10.04 103 9.418 103 8.971C103 8.524 101.65 7.862 100 7.5C98.35 7.138 97 6.427 97 5.921C97 5.414 95.912 5 94.583 5C93.254 5 92.014 4.543 91.828 3.985C91.642 3.427 88.455 2.687 84.745 2.341C81.035 1.994 78 1.326 78 0.855C78 0.385 74.175 0 69.5 0C64.825 0 61 0.392 61 0.871ZM85.817 7.95C86.009 8.527 87.254 9 88.583 9C89.912 9 91 9.401 91 9.892C91 10.382 92.237 11.073 93.75 11.426C100.53 13.011 104.756 15.903 114.426 25.574C122.813 33.96 124.575 36.086 125.466 38.893C125.834 40.052 126.515 41 126.979 41C127.444 41 128.128 42.8 128.5 45C128.872 47.2 129.524 49 129.95 49C130.376 49 131.287 51.813 131.975 55.25C133.593 63.334 134.425 80 133.211 80C132.702 80 131.994 82.787 131.638 86.194C131.281 89.601 130.578 92.643 130.074 92.954C129.571 93.265 128.849 94.753 128.471 96.26C128.093 97.767 127.418 99 126.971 99C126.524 99 125.882 100.263 125.543 101.806C125.204 103.349 124.043 105.248 122.963 106.027C121.883 106.805 121 108.004 121 108.692C121 110.09 108.187 123 106.8 123C105.978 123 104.861 123.788 101.659 126.628C100.959 127.249 98.95 128.072 97.193 128.458C95.437 128.843 94 129.573 94 130.079C94 130.586 92.912 131 91.583 131C90.254 131 89.002 131.494 88.801 132.098C88.6 132.701 85.412 133.438 81.717 133.735C78.023 134.031 75 134.662 75 135.137C75 135.612 72.3 136 69 136C65.7 136 63 135.608 63 135.129C63 134.65 59.85 133.948 56 133.569C52.15 133.189 49 132.456 49 131.939C49 131.423 48.493 131 47.873 131C45.478 131 33.367 124.344 30.239 121.31C28.431 119.555 26.085 117.844 25.027 117.508C23.968 117.173 22.824 116.021 22.484 114.949C22.144 113.877 21.446 113 20.933 113C20.42 113 20 112.388 20 111.64C20 110.892 18.89 109.446 17.533 108.427C16.176 107.408 14.79 105.32 14.453 103.787C14.117 102.254 13.427 101 12.921 101C12.414 101 12 100.506 12 99.901C12 98.443 8.82 91.65 7.806 90.943C7.366 90.637 6.713 86.909 6.354 82.66C5.995 78.41 5.318 74.697 4.85 74.408C3.737 73.72 3.743 66 4.856 66C5.327 66 6.015 62.737 6.384 58.75C6.753 54.763 7.493 51.35 8.027 51.167C8.562 50.983 9 49.746 9 48.417C9 47.088 9.43 46 9.955 46C10.48 46 11.199 44.456 11.553 42.569C11.907 40.682 12.827 38.896 13.598 38.601C14.369 38.305 15 37.473 15 36.752C15 36.031 15.9 34.793 17 34C18.1 33.207 19 32.028 19 31.381C19 29.963 28.586 20 29.95 20C30.477 20 32.016 18.893 33.368 17.541C34.721 16.188 36.992 14.789 38.414 14.432C39.836 14.075 41 13.402 41 12.937C41 12.471 42.58 11.794 44.511 11.432C46.442 11.07 48.269 10.374 48.57 9.887C48.871 9.399 50.216 9 51.559 9C52.902 9 54 8.579 54 8.063C54 6.591 59.486 6.151 72.983 6.54C80.499 6.756 85.606 7.317 85.817 7.95Z" fill="black"/>
<path fill-rule="evenodd" clip-rule="evenodd" d="M61 0.871C61 1.35 57.86 2.051 54.023 2.429C50.186 2.807 46.784 3.54 46.464 4.058C46.144 4.576 45.009 5 43.941 5C42.873 5 42 5.4 42 5.889C42 6.377 40.425 7.073 38.5 7.434C36.575 7.795 35 8.531 35 9.07C35 9.609 33.987 10.45 32.75 10.938C29.764 12.118 27.124 14.265 19.429 21.773C15.893 25.224 13 28.663 13 29.416C13 30.17 12.325 31.045 11.5 31.362C10.675 31.678 10 32.626 10 33.469C10 34.311 9.57 35 9.045 35C8.52 35 7.795 36.575 7.434 38.5C7.073 40.425 6.377 42 5.889 42C5.4 42 5 42.675 5 43.5C5 44.325 4.582 45 4.072 45C3.562 45 2.835 47.475 2.457 50.5C2.079 53.525 1.371 56 0.885 56C0.398 56 0 62.75 0 71C0 79.25 0.398 86 0.885 86C1.371 86 2.079 88.475 2.457 91.5C2.835 94.525 3.562 97 4.072 97C4.582 97 5 97.675 5 98.5C5 99.325 5.414 100 5.921 100C6.427 100 7.138 101.35 7.5 103C7.862 104.65 8.573 106 9.079 106C9.586 106 10 106.655 10 107.455C10 108.255 11.125 110.034 12.5 111.409C13.875 112.784 15 114.28 15 114.732C15 115.185 15.788 116.308 16.75 117.227C17.712 118.147 19.009 119.426 19.631 120.069C23.419 123.987 26.977 127 27.816 127C28.35 127 29.045 127.675 29.362 128.5C29.678 129.325 30.851 130 31.969 130C33.086 130 34 130.414 34 130.921C34 131.427 35.35 132.138 37 132.5C38.65 132.862 40 133.573 40 134.079C40 134.586 40.675 135 41.5 135C42.325 135 43 135.418 43 135.928C43 136.438 45.475 137.165 48.5 137.543C51.525 137.921 54 138.629 54 139.115C54 139.602 60.975 140 69.5 140C78.025 140 85 139.608 85 139.129C85 138.65 87.25 137.959 90 137.594C92.75 137.23 95 136.497 95 135.966C95 135.435 96.125 135 97.5 135C98.875 135 100 134.55 100 134C100 133.45 100.643 133 101.429 133C102.214 133 103.473 132.384 104.225 131.632C104.978 130.879 106.544 129.962 107.706 129.593C110.427 128.73 127 112.409 127 110.593C127 109.835 127.675 108.955 128.5 108.638C129.325 108.322 130 107.374 130 106.531C130 105.689 130.43 105 130.955 105C131.48 105 132.205 103.425 132.566 101.5C132.927 99.575 133.623 98 134.111 98C134.6 98 135 97.19 135 96.2C135 95.21 135.498 93.902 136.108 93.292C136.717 92.683 137.454 89.218 137.745 85.592C138.036 81.967 138.662 79 139.137 79C140.313 79 140.236 63.404 139.049 61.236C138.526 60.281 137.819 56.912 137.477 53.75C137.136 50.588 136.438 48 135.928 48C135.418 48 135 46.875 135 45.5C135 44.125 134.586 43 134.079 43C133.573 43 132.862 41.65 132.5 40C132.138 38.35 131.476 37 131.029 37C130.582 37 129.925 35.836 129.568 34.414C129.211 32.992 127.924 30.804 126.709 29.552C125.494 28.3 123.825 26.272 123 25.045C120.563 21.419 118.707 19.549 115 16.98C113.075 15.646 110.609 13.737 109.52 12.738C108.431 11.74 106.518 10.666 105.27 10.353C104.021 10.04 103 9.418 103 8.971C103 8.524 101.65 7.862 100 7.5C98.35 7.138 97 6.427 97 5.921C97 5.414 95.912 5 94.583 5C93.254 5 92.014 4.543 91.828 3.985C91.642 3.427 88.455 2.687 84.745 2.341C81.035 1.994 78 1.326 78 0.855C78 0.385 74.175 0 69.5 0C64.825 0 61 0.392 61 0.871ZM85.817 7.95C86.009 8.527 87.254 9 88.583 9C89.912 9 91 9.401 91 9.892C91 10.382 92.237 11.073 93.75 11.426C100.53 13.011 104.756 15.903 114.426 25.574C122.813 33.96 124.575 36.086 125.466 38.893C125.834 40.052 126.515 41 126.979 41C127.444 41 128.128 42.8 128.5 45C128.872 47.2 129.524 49 129.95 49C130.376 49 131.287 51.813 131.975 55.25C133.593 63.334 134.425 80 133.211 80C132.702 80 131.994 82.787 131.638 86.194C131.281 89.601 130.578 92.643 130.074 92.954C129.571 93.265 128.849 94.753 128.471 96.26C128.093 97.767 127.418 99 126.971 99C126.524 99 125.882 100.263 125.543 101.806C125.204 103.349 124.043 105.248 122.963 106.027C121.883 106.805 121 108.004 121 108.692C121 110.09 108.187 123 106.8 123C105.978 123 104.861 123.788 101.659 126.628C100.959 127.249 98.95 128.072 97.193 128.458C95.437 128.843 94 129.573 94 130.079C94 130.586 92.912 131 91.583 131C90.254 131 89.002 131.494 88.801 132.098C88.6 132.701 85.412 133.438 81.717 133.735C78.023 134.031 75 134.662 75 135.137C75 135.612 72.3 136 69 136C65.7 136 63 135.608 63 135.129C63 134.65 59.85 133.948 56 133.569C52.15 133.189 49 132.456 49 131.939C49 131.423 48.493 131 47.873 131C45.478 131 33.367 124.344 30.239 121.31C28.431 119.555 26.085 117.844 25.027 117.508C23.968 117.173 22.824 116.021 22.484 114.949C22.144 113.877 21.446 113 20.933 113C20.42 113 20 112.388 20 111.64C20 110.892 18.89 109.446 17.533 108.427C16.176 107.408 14.79 105.32 14.453 103.787C14.117 102.254 13.427 101 12.921 101C12.414 101 12 100.506 12 99.901C12 98.443 8.82 91.65 7.806 90.943C7.366 90.637 6.713 86.909 6.354 82.66C5.995 78.41 5.318 74.697 4.85 74.408C3.737 73.72 3.743 66 4.856 66C5.327 66 6.015 62.737 6.384 58.75C6.753 54.763 7.493 51.35 8.027 51.167C8.562 50.983 9 49.746 9 48.417C9 47.088 9.43 46 9.955 46C10.48 46 11.199 44.456 11.553 42.569C11.907 40.682 12.827 38.896 13.598 38.601C14.369 38.305 15 37.473 15 36.752C15 36.031 15.9 34.793 17 34C18.1 33.207 19 32.028 19 31.381C19 29.963 28.586 20 29.95 20C30.477 20 32.016 18.893 33.368 17.541C34.721 16.188 36.992 14.789 38.414 14.432C39.836 14.075 41 13.402 41 12.937C41 12.471 42.58 11.794 44.511 11.432C46.442 11.07 48.269 10.374 48.57 9.887C48.871 9.399 50.216 9 51.559 9C52.902 9 54 8.579 54 8.063C54 6.591 59.486 6.151 72.983 6.54C80.499 6.756 85.606 7.317 85.817 7.95Z" fill="black"/>
</svg>
