<svg width="140" height="141" viewBox="0 0 140 141" fill="none" xmlns="http://www.w3.org/2000/svg">
<path fill-rule="evenodd" clip-rule="evenodd" d="M64 0.866C64 1.342 60.917 1.952 57.148 2.221C50.272 2.713 36.765 7.1 34.179 9.681C33.452 10.407 32.214 11 31.429 11C30.643 11 30 11.464 30 12.031C30 12.599 29.212 13.349 28.25 13.7C26.022 14.51 13 27.522 13 28.938C13 29.522 12.559 30 12.019 30C11.48 30 10.756 31.125 10.411 32.5C10.066 33.875 9.382 35 8.892 35C8.401 35 8 35.675 8 36.5C8 37.325 7.6 38 7.111 38C6.623 38 5.927 39.575 5.566 41.5C5.205 43.425 4.512 45 4.027 45C3.541 45 2.835 47.475 2.457 50.5C2.079 53.525 1.371 56 0.885 56C0.398 56 0 62.525 0 70.5C0 78.475 0.392 85 0.871 85C1.35 85 2.047 87.7 2.42 91C2.794 94.3 3.491 97 3.97 97C4.449 97 5.138 98.35 5.5 100C5.862 101.65 6.573 103 7.079 103C7.586 103 8 103.675 8 104.5C8 105.325 8.45 106 9 106C9.55 106 10 106.643 10 107.429C10 108.214 10.616 109.473 11.368 110.225C12.121 110.978 13.044 112.562 13.419 113.745C13.795 114.929 14.979 116.176 16.051 116.516C17.123 116.856 18 117.538 18 118.03C18 119.412 26.233 127 27.733 127C28.464 127 29.322 127.675 29.638 128.5C29.955 129.325 30.841 130 31.607 130C32.373 130 33 130.43 33 130.955C33 131.48 34.575 132.205 36.5 132.566C38.425 132.927 40 133.617 40 134.099C40 134.582 41.8 135.264 44 135.616C46.2 135.968 48 136.648 48 137.128C48 137.608 49.088 138 50.417 138C51.746 138 53.004 138.511 53.212 139.136C53.743 140.729 84.257 140.729 84.788 139.136C84.996 138.511 86.704 138 88.583 138C90.462 138 92 137.59 92 137.088C92 136.586 93.8 135.872 96 135.5C98.2 135.128 100 134.45 100 133.992C100 133.534 101.263 132.882 102.806 132.543C104.349 132.204 106.248 131.043 107.027 129.963C107.805 128.883 108.905 127.992 109.471 127.983C110.037 127.973 111.604 126.802 112.953 125.381C114.302 123.959 116.44 122.403 117.703 121.923C118.966 121.442 120.012 120.251 120.028 119.275C120.043 118.299 121.605 116.375 123.5 115C125.395 113.625 126.957 111.735 126.972 110.8C126.988 109.865 127.587 108.74 128.304 108.3C129.684 107.453 133 100.957 133 99.099C133 98.494 133.399 98 133.886 98C134.374 98 135.077 95.975 135.448 93.5C135.819 91.025 136.545 89 137.061 89C137.578 89 138 86.75 138 84C138 81.25 138.45 79 139 79C139.588 79 140 75.5 140 70.5C140 65.5 139.588 62 139 62C138.45 62 138 59.975 138 57.5C138 55.025 137.592 53 137.094 53C136.595 53 135.878 50.75 135.5 48C135.122 45.25 134.44 43 133.986 43C133.531 43 132.862 41.65 132.5 40C132.138 38.35 131.427 37 130.921 37C130.414 37 130 36.325 130 35.5C130 34.675 129.55 34 129 34C128.45 34 128 33.375 128 32.611C128 29.984 111.667 13 109.14 13C108.513 13 108 12.58 108 12.067C108 11.554 106.988 10.819 105.75 10.433C104.512 10.046 103.275 9.43 103 9.063C102.196 7.991 95.338 5 93.682 5C92.849 5 92.017 4.56 91.833 4.023C91.65 3.485 87.563 2.744 82.75 2.375C77.938 2.007 74 1.321 74 0.852C74 0.384 71.75 0 69 0C66.25 0 64 0.39 64 0.866ZM67 36.5V67L35.25 66.985C17.788 66.976 4.004 66.639 4.619 66.235C5.234 65.831 6.06 62.013 6.454 57.75C6.848 53.487 7.577 50 8.074 50C8.57 50 9.264 48.2 9.616 46C9.968 43.8 10.648 42 11.128 42C11.608 42 12 41.373 12 40.607C12 39.841 12.675 38.955 13.5 38.638C14.325 38.322 15 37.149 15 36.031C15 34.914 15.464 34 16.031 34C16.599 34 17.364 33.214 17.733 32.253C18.747 29.61 28.246 20.374 30.776 19.571C31.999 19.183 33 18.446 33 17.933C33 17.42 33.675 17 34.5 17C35.325 17 36 16.559 36 16.019C36 15.48 37.125 14.756 38.5 14.411C39.875 14.066 41 13.387 41 12.903C41 12.42 42.8 11.736 45 11.384C47.2 11.032 49 10.352 49 9.872C49 9.392 49.9 9 51 9C52.1 9 53 8.576 53 8.057C53 7.21 56.089 6.693 64.25 6.175L67 6V36.5Z" fill="black"/>
<path fill-rule="evenodd" clip-rule="evenodd" d="M64 0.866C64 1.342 60.917 1.952 57.148 2.221C50.272 2.713 36.765 7.1 34.179 9.681C33.452 10.407 32.214 11 31.429 11C30.643 11 30 11.464 30 12.031C30 12.599 29.212 13.349 28.25 13.7C26.022 14.51 13 27.522 13 28.938C13 29.522 12.559 30 12.019 30C11.48 30 10.756 31.125 10.411 32.5C10.066 33.875 9.382 35 8.892 35C8.401 35 8 35.675 8 36.5C8 37.325 7.6 38 7.111 38C6.623 38 5.927 39.575 5.566 41.5C5.205 43.425 4.512 45 4.027 45C3.541 45 2.835 47.475 2.457 50.5C2.079 53.525 1.371 56 0.885 56C0.398 56 0 62.525 0 70.5C0 78.475 0.392 85 0.871 85C1.35 85 2.047 87.7 2.42 91C2.794 94.3 3.491 97 3.97 97C4.449 97 5.138 98.35 5.5 100C5.862 101.65 6.573 103 7.079 103C7.586 103 8 103.675 8 104.5C8 105.325 8.45 106 9 106C9.55 106 10 106.643 10 107.429C10 108.214 10.616 109.473 11.368 110.225C12.121 110.978 13.044 112.562 13.419 113.745C13.795 114.929 14.979 116.176 16.051 116.516C17.123 116.856 18 117.538 18 118.03C18 119.412 26.233 127 27.733 127C28.464 127 29.322 127.675 29.638 128.5C29.955 129.325 30.841 130 31.607 130C32.373 130 33 130.43 33 130.955C33 131.48 34.575 132.205 36.5 132.566C38.425 132.927 40 133.617 40 134.099C40 134.582 41.8 135.264 44 135.616C46.2 135.968 48 136.648 48 137.128C48 137.608 49.088 138 50.417 138C51.746 138 53.004 138.511 53.212 139.136C53.743 140.729 84.257 140.729 84.788 139.136C84.996 138.511 86.704 138 88.583 138C90.462 138 92 137.59 92 137.088C92 136.586 93.8 135.872 96 135.5C98.2 135.128 100 134.45 100 133.992C100 133.534 101.263 132.882 102.806 132.543C104.349 132.204 106.248 131.043 107.027 129.963C107.805 128.883 108.905 127.992 109.471 127.983C110.037 127.973 111.604 126.802 112.953 125.381C114.302 123.959 116.44 122.403 117.703 121.923C118.966 121.442 120.012 120.251 120.028 119.275C120.043 118.299 121.605 116.375 123.5 115C125.395 113.625 126.957 111.735 126.972 110.8C126.988 109.865 127.587 108.74 128.304 108.3C129.684 107.453 133 100.957 133 99.099C133 98.494 133.399 98 133.886 98C134.374 98 135.077 95.975 135.448 93.5C135.819 91.025 136.545 89 137.061 89C137.578 89 138 86.75 138 84C138 81.25 138.45 79 139 79C139.588 79 140 75.5 140 70.5C140 65.5 139.588 62 139 62C138.45 62 138 59.975 138 57.5C138 55.025 137.592 53 137.094 53C136.595 53 135.878 50.75 135.5 48C135.122 45.25 134.44 43 133.986 43C133.531 43 132.862 41.65 132.5 40C132.138 38.35 131.427 37 130.921 37C130.414 37 130 36.325 130 35.5C130 34.675 129.55 34 129 34C128.45 34 128 33.375 128 32.611C128 29.984 111.667 13 109.14 13C108.513 13 108 12.58 108 12.067C108 11.554 106.988 10.819 105.75 10.433C104.512 10.046 103.275 9.43 103 9.063C102.196 7.991 95.338 5 93.682 5C92.849 5 92.017 4.56 91.833 4.023C91.65 3.485 87.563 2.744 82.75 2.375C77.938 2.007 74 1.321 74 0.852C74 0.384 71.75 0 69 0C66.25 0 64 0.39 64 0.866ZM67 36.5V67L35.25 66.985C17.788 66.976 4.004 66.639 4.619 66.235C5.234 65.831 6.06 62.013 6.454 57.75C6.848 53.487 7.577 50 8.074 50C8.57 50 9.264 48.2 9.616 46C9.968 43.8 10.648 42 11.128 42C11.608 42 12 41.373 12 40.607C12 39.841 12.675 38.955 13.5 38.638C14.325 38.322 15 37.149 15 36.031C15 34.914 15.464 34 16.031 34C16.599 34 17.364 33.214 17.733 32.253C18.747 29.61 28.246 20.374 30.776 19.571C31.999 19.183 33 18.446 33 17.933C33 17.42 33.675 17 34.5 17C35.325 17 36 16.559 36 16.019C36 15.48 37.125 14.756 38.5 14.411C39.875 14.066 41 13.387 41 12.903C41 12.42 42.8 11.736 45 11.384C47.2 11.032 49 10.352 49 9.872C49 9.392 49.9 9 51 9C52.1 9 53 8.576 53 8.057C53 7.21 56.089 6.693 64.25 6.175L67 6V36.5Z" fill="black"/>
<path fill-rule="evenodd" clip-rule="evenodd" d="M64 0.866C64 1.342 60.917 1.952 57.148 2.221C50.272 2.713 36.765 7.1 34.179 9.681C33.452 10.407 32.214 11 31.429 11C30.643 11 30 11.464 30 12.031C30 12.599 29.212 13.349 28.25 13.7C26.022 14.51 13 27.522 13 28.938C13 29.522 12.559 30 12.019 30C11.48 30 10.756 31.125 10.411 32.5C10.066 33.875 9.382 35 8.892 35C8.401 35 8 35.675 8 36.5C8 37.325 7.6 38 7.111 38C6.623 38 5.927 39.575 5.566 41.5C5.205 43.425 4.512 45 4.027 45C3.541 45 2.835 47.475 2.457 50.5C2.079 53.525 1.371 56 0.885 56C0.398 56 0 62.525 0 70.5C0 78.475 0.392 85 0.871 85C1.35 85 2.047 87.7 2.42 91C2.794 94.3 3.491 97 3.97 97C4.449 97 5.138 98.35 5.5 100C5.862 101.65 6.573 103 7.079 103C7.586 103 8 103.675 8 104.5C8 105.325 8.45 106 9 106C9.55 106 10 106.643 10 107.429C10 108.214 10.616 109.473 11.368 110.225C12.121 110.978 13.044 112.562 13.419 113.745C13.795 114.929 14.979 116.176 16.051 116.516C17.123 116.856 18 117.538 18 118.03C18 119.412 26.233 127 27.733 127C28.464 127 29.322 127.675 29.638 128.5C29.955 129.325 30.841 130 31.607 130C32.373 130 33 130.43 33 130.955C33 131.48 34.575 132.205 36.5 132.566C38.425 132.927 40 133.617 40 134.099C40 134.582 41.8 135.264 44 135.616C46.2 135.968 48 136.648 48 137.128C48 137.608 49.088 138 50.417 138C51.746 138 53.004 138.511 53.212 139.136C53.743 140.729 84.257 140.729 84.788 139.136C84.996 138.511 86.704 138 88.583 138C90.462 138 92 137.59 92 137.088C92 136.586 93.8 135.872 96 135.5C98.2 135.128 100 134.45 100 133.992C100 133.534 101.263 132.882 102.806 132.543C104.349 132.204 106.248 131.043 107.027 129.963C107.805 128.883 108.905 127.992 109.471 127.983C110.037 127.973 111.604 126.802 112.953 125.381C114.302 123.959 116.44 122.403 117.703 121.923C118.966 121.442 120.012 120.251 120.028 119.275C120.043 118.299 121.605 116.375 123.5 115C125.395 113.625 126.957 111.735 126.972 110.8C126.988 109.865 127.587 108.74 128.304 108.3C129.684 107.453 133 100.957 133 99.099C133 98.494 133.399 98 133.886 98C134.374 98 135.077 95.975 135.448 93.5C135.819 91.025 136.545 89 137.061 89C137.578 89 138 86.75 138 84C138 81.25 138.45 79 139 79C139.588 79 140 75.5 140 70.5C140 65.5 139.588 62 139 62C138.45 62 138 59.975 138 57.5C138 55.025 137.592 53 137.094 53C136.595 53 135.878 50.75 135.5 48C135.122 45.25 134.44 43 133.986 43C133.531 43 132.862 41.65 132.5 40C132.138 38.35 131.427 37 130.921 37C130.414 37 130 36.325 130 35.5C130 34.675 129.55 34 129 34C128.45 34 128 33.375 128 32.611C128 29.984 111.667 13 109.14 13C108.513 13 108 12.58 108 12.067C108 11.554 106.988 10.819 105.75 10.433C104.512 10.046 103.275 9.43 103 9.063C102.196 7.991 95.338 5 93.682 5C92.849 5 92.017 4.56 91.833 4.023C91.65 3.485 87.563 2.744 82.75 2.375C77.938 2.007 74 1.321 74 0.852C74 0.384 71.75 0 69 0C66.25 0 64 0.39 64 0.866ZM67 36.5V67L35.25 66.985C17.788 66.976 4.004 66.639 4.619 66.235C5.234 65.831 6.06 62.013 6.454 57.75C6.848 53.487 7.577 50 8.074 50C8.57 50 9.264 48.2 9.616 46C9.968 43.8 10.648 42 11.128 42C11.608 42 12 41.373 12 40.607C12 39.841 12.675 38.955 13.5 38.638C14.325 38.322 15 37.149 15 36.031C15 34.914 15.464 34 16.031 34C16.599 34 17.364 33.214 17.733 32.253C18.747 29.61 28.246 20.374 30.776 19.571C31.999 19.183 33 18.446 33 17.933C33 17.42 33.675 17 34.5 17C35.325 17 36 16.559 36 16.019C36 15.48 37.125 14.756 38.5 14.411C39.875 14.066 41 13.387 41 12.903C41 12.42 42.8 11.736 45 11.384C47.2 11.032 49 10.352 49 9.872C49 9.392 49.9 9 51 9C52.1 9 53 8.576 53 8.057C53 7.21 56.089 6.693 64.25 6.175L67 6V36.5Z" fill="black"/>
</svg>
