<svg width="140" height="141" viewBox="0 0 140 141" fill="none" xmlns="http://www.w3.org/2000/svg">
<path fill-rule="evenodd" clip-rule="evenodd" d="M63 1.355C63 1.825 59.743 2.483 55.763 2.817C51.782 3.15 48.37 3.891 48.179 4.462C47.989 5.033 46.971 5.5 45.917 5.5C44.862 5.5 44 5.9 44 6.389C44 6.877 42.425 7.573 40.5 7.934C38.575 8.295 37 8.984 37 9.466C37 9.947 35.746 10.617 34.213 10.953C32.68 11.29 30.592 12.676 29.573 14.033C28.554 15.39 27.216 16.5 26.6 16.5C24.938 16.5 21.25 20.254 13.924 29.403C12.866 30.725 12 32.412 12 33.153C12 33.894 11.55 34.5 11 34.5C10.45 34.5 10 35.175 10 36C10 36.825 9.58604 37.5 9.07904 37.5C8.57304 37.5 7.86204 38.85 7.50004 40.5C7.13804 42.15 6.44204 43.5 5.95504 43.5C5.46804 43.5 4.77004 45.75 4.40604 48.5C4.04104 51.25 3.35004 53.5 2.87104 53.5C2.39204 53.5 2.00004 55.3 2.00004 57.5C2.00004 59.7 1.51904 61.5 0.931042 61.5C0.214042 61.5 0.0280418 64.54 0.366042 70.75C1.00604 82.506 1.98404 89.5 2.98704 89.5C3.41904 89.5 4.07704 91.525 4.44804 94C4.81904 96.475 5.49504 98.5 5.95004 98.5C6.40504 98.5 7.07304 100.075 7.43404 102C7.79504 103.925 8.52004 105.5 9.04504 105.5C9.57004 105.5 10 106.175 10 107C10 107.825 10.42 108.5 10.933 108.5C11.446 108.5 12.156 109.416 12.511 110.536C13.6 113.967 29.862 129.522 33.021 130.154C34.589 130.468 36.112 131.349 36.405 132.112C36.698 132.875 37.851 133.5 38.969 133.5C40.086 133.5 41 133.95 41 134.5C41 135.05 41.9 135.5 43 135.5C44.1 135.5 45 135.908 45 136.406C45 136.905 47.25 137.622 50 138C52.75 138.378 55 139.095 55 139.594C55 140.096 61.903 140.5 70.5 140.5C79.025 140.5 86 140.102 86 139.615C86 139.129 88.475 138.421 91.5 138.043C94.525 137.665 97 136.938 97 136.428C97 135.918 97.675 135.5 98.5 135.5C99.325 135.5 100 135.07 100 134.545C100 134.02 101.575 133.295 103.5 132.934C105.425 132.573 107 131.877 107 131.389C107 130.9 107.689 130.5 108.531 130.5C109.374 130.5 110.315 129.842 110.624 129.038C110.932 128.234 112.074 127.294 113.16 126.949C115.382 126.244 126 116.13 126 114.718C126 114.216 126.9 112.768 128 111.5C129.1 110.232 130 108.588 130 107.847C130 107.106 130.45 106.5 131 106.5C131.55 106.5 132 105.825 132 105C132 104.175 132.45 103.5 133 103.5C133.55 103.5 134.003 102.938 134.006 102.25C134.01 101.563 134.706 99.67 135.553 98.045C136.401 96.419 137.359 93.157 137.683 90.795C138.007 88.433 138.661 86.5 139.136 86.5C139.611 86.5 140 79.75 140 71.5C140 63.25 139.602 56.5 139.115 56.5C138.629 56.5 137.921 54.025 137.543 51C137.165 47.975 136.474 45.5 136.007 45.5C135.541 45.5 134.862 44.15 134.5 42.5C134.138 40.85 133.427 39.5 132.921 39.5C132.414 39.5 132 38.6 132 37.5C132 36.4 131.55 35.5 131 35.5C130.45 35.5 130 34.811 130 33.969C130 33.126 129.325 32.178 128.5 31.862C127.675 31.545 127 30.618 127 29.8C127 28.207 114.798 15.5 113.267 15.5C112.762 15.5 111.292 14.375 110 13C108.708 11.625 107.055 10.5 106.326 10.5C105.597 10.5 105 10.086 105 9.579C105 9.073 103.655 8.364 102.011 8.003C100.368 7.642 98.766 6.931 98.452 6.423C98.139 5.915 97.009 5.5 95.941 5.5C94.873 5.5 94 5.088 94 4.585C94 4.082 90.625 3.354 86.5 2.968C82.375 2.581 79 1.868 79 1.383C79 0.897 75.4 0.5 71 0.5C66.6 0.5 63 0.885 63 1.355ZM80 7.362C80 7.837 82.418 8.509 85.374 8.856C88.33 9.204 92.042 10.163 93.624 10.988C95.206 11.813 97.063 12.49 97.75 12.494C98.438 12.497 99 12.844 99 13.264C99 13.684 100.8 14.808 103 15.761C105.2 16.714 107 17.915 107 18.43C107 18.944 107.978 19.676 109.173 20.055C110.368 20.434 112.178 21.519 113.194 22.466C115.143 24.282 115.865 23.478 83.769 55.256C83.071 55.947 80.078 58.985 77.119 62.006C74.159 65.028 71.35 67.5 70.877 67.5C70.403 67.5 68.774 66.083 67.258 64.351C65.741 62.619 63.909 60.706 63.187 60.101C62.465 59.495 60.665 57.695 59.187 56.101C57.709 54.506 55.923 52.706 55.218 52.101C54.513 51.495 52.595 49.65 50.957 48C49.318 46.35 47.527 44.55 46.977 44C46.427 43.45 44.686 41.709 43.108 40.131C41.53 38.553 39.732 36.753 39.113 36.131C38.494 35.509 35.515 32.578 32.493 29.618L26.999 24.237L30.499 20.936C32.424 19.12 35.012 17.315 36.25 16.924C37.487 16.534 39.175 15.439 40.001 14.491C40.826 13.544 43.076 12.426 45.001 12.009C46.925 11.591 48.75 10.857 49.056 10.379C49.362 9.901 52.399 9.219 55.806 8.862C59.213 8.506 62 7.829 62 7.358C62 6.886 66.05 6.5 71 6.5C75.95 6.5 80 6.888 80 7.362ZM24.59 29.75C25.418 30.438 26.637 31.577 27.298 32.282C27.959 32.987 29.791 34.846 31.369 36.413C32.947 37.98 34.688 39.712 35.238 40.262C35.788 40.812 37.588 42.612 39.238 44.262C43.126 48.149 42.659 47.677 55.739 60.919L66.977 72.297L45.913 93.398C34.328 105.004 24.518 114.5 24.113 114.5C22.801 114.5 19 110.462 19 109.068C19 108.323 18.325 107.455 17.5 107.138C16.675 106.822 16 105.649 16 104.531C16 103.414 15.586 102.5 15.079 102.5C14.573 102.5 13.862 101.15 13.5 99.5C13.138 97.85 12.427 96.5 11.921 96.5C11.414 96.5 11 95.862 11 95.083C11 94.304 10.554 93.517 10.01 93.333C9.46504 93.15 8.72604 90.188 8.36704 86.75C8.00904 83.313 7.32904 80.5 6.85804 80.5C6.38604 80.5 6.00004 76 6.00004 70.5C6.00004 65 6.39804 60.5 6.88504 60.5C7.37104 60.5 8.07904 58.025 8.45704 55C8.83504 51.975 9.56204 49.5 10.072 49.5C10.582 49.5 11 48.413 11 47.083C11 45.754 11.337 44.517 11.75 44.333C12.163 44.15 13.625 41.76 15 39.021C17.07 34.899 21.656 28.735 22.792 28.548C22.953 28.522 23.762 29.063 24.59 29.75ZM120.439 29.797C121.153 30.51 122.051 32.085 122.435 33.297C122.82 34.508 123.554 35.5 124.067 35.5C124.58 35.5 125 36.189 125 37.031C125 37.874 125.675 38.822 126.5 39.138C127.325 39.455 128 40.566 128 41.607C128 42.648 128.4 43.5 128.889 43.5C129.377 43.5 130.094 45.186 130.48 47.248C130.867 49.309 131.6 51.253 132.109 51.567C132.618 51.882 133.319 55.821 133.666 60.32C134.013 64.819 134.68 68.5 135.148 68.5C136.259 68.5 136.258 73.223 135.147 73.909C134.677 74.199 134.032 77.894 133.712 82.119C133.393 86.344 132.693 90.072 132.158 90.403C131.622 90.734 130.867 92.691 130.48 94.752C130.094 96.814 129.377 98.5 128.889 98.5C128.4 98.5 128 99.175 128 100C128 100.825 127.599 101.5 127.108 101.5C126.618 101.5 125.92 102.683 125.557 104.128C125.194 105.574 123.61 108.044 122.035 109.619C120.461 111.193 118.96 113.048 118.699 113.74C118.165 115.158 117.97 114.993 105.977 103C105.427 102.45 103.627 100.65 101.977 99C100.327 97.35 98.645 95.66 98.238 95.244C97.832 94.829 92.445 89.499 86.267 83.4L75.033 72.311L96.767 50.469C108.72 38.457 118.645 28.599 118.821 28.564C118.998 28.529 119.726 29.083 120.439 29.797ZM74.065 79.25C75.667 80.763 77.486 82.509 78.108 83.131C78.73 83.753 80.588 85.612 82.238 87.262C83.888 88.912 85.688 90.712 86.238 91.262C86.788 91.812 88.588 93.612 90.238 95.262C91.888 96.912 93.63 98.653 94.109 99.131C105.667 110.67 113.862 119.5 113.015 119.5C112.42 119.5 110.629 120.834 109.036 122.464C107.442 124.093 104.982 125.717 103.569 126.072C102.156 126.427 101 127.082 101 127.529C101 127.976 99.65 128.638 98 129C96.35 129.362 95 130.073 95 130.579C95 131.086 94.1 131.5 93 131.5C91.9 131.5 91 131.914 91 132.42C91 132.927 87.963 133.623 84.25 133.968C80.537 134.313 76.719 135.023 75.764 135.547C73.605 136.732 65 136.809 65 135.645C65 135.174 61.965 134.506 58.255 134.159C54.545 133.813 51.358 133.073 51.172 132.515C50.986 131.957 49.746 131.5 48.417 131.5C47.088 131.5 46 131.086 46 130.579C46 130.073 44.65 129.362 43 129C41.35 128.638 40 127.927 40 127.421C40 126.914 39.086 126.5 37.969 126.5C36.851 126.5 35.685 125.842 35.376 125.038C35.068 124.234 34.069 123.322 33.158 123.011C32.246 122.701 30.662 121.81 29.638 121.031C27.905 119.714 29.253 118.13 49.138 98.117C60.887 86.292 70.647 76.591 70.827 76.559C71.007 76.526 72.464 77.737 74.065 79.25Z" fill="black"/>
<path fill-rule="evenodd" clip-rule="evenodd" d="M63 1.355C63 1.825 59.743 2.483 55.763 2.817C51.782 3.15 48.37 3.891 48.179 4.462C47.989 5.033 46.971 5.5 45.917 5.5C44.862 5.5 44 5.9 44 6.389C44 6.877 42.425 7.573 40.5 7.934C38.575 8.295 37 8.984 37 9.466C37 9.947 35.746 10.617 34.213 10.953C32.68 11.29 30.592 12.676 29.573 14.033C28.554 15.39 27.216 16.5 26.6 16.5C24.938 16.5 21.25 20.254 13.924 29.403C12.866 30.725 12 32.412 12 33.153C12 33.894 11.55 34.5 11 34.5C10.45 34.5 10 35.175 10 36C10 36.825 9.58604 37.5 9.07904 37.5C8.57304 37.5 7.86204 38.85 7.50004 40.5C7.13804 42.15 6.44204 43.5 5.95504 43.5C5.46804 43.5 4.77004 45.75 4.40604 48.5C4.04104 51.25 3.35004 53.5 2.87104 53.5C2.39204 53.5 2.00004 55.3 2.00004 57.5C2.00004 59.7 1.51904 61.5 0.931042 61.5C0.214042 61.5 0.0280418 64.54 0.366042 70.75C1.00604 82.506 1.98404 89.5 2.98704 89.5C3.41904 89.5 4.07704 91.525 4.44804 94C4.81904 96.475 5.49504 98.5 5.95004 98.5C6.40504 98.5 7.07304 100.075 7.43404 102C7.79504 103.925 8.52004 105.5 9.04504 105.5C9.57004 105.5 10 106.175 10 107C10 107.825 10.42 108.5 10.933 108.5C11.446 108.5 12.156 109.416 12.511 110.536C13.6 113.967 29.862 129.522 33.021 130.154C34.589 130.468 36.112 131.349 36.405 132.112C36.698 132.875 37.851 133.5 38.969 133.5C40.086 133.5 41 133.95 41 134.5C41 135.05 41.9 135.5 43 135.5C44.1 135.5 45 135.908 45 136.406C45 136.905 47.25 137.622 50 138C52.75 138.378 55 139.095 55 139.594C55 140.096 61.903 140.5 70.5 140.5C79.025 140.5 86 140.102 86 139.615C86 139.129 88.475 138.421 91.5 138.043C94.525 137.665 97 136.938 97 136.428C97 135.918 97.675 135.5 98.5 135.5C99.325 135.5 100 135.07 100 134.545C100 134.02 101.575 133.295 103.5 132.934C105.425 132.573 107 131.877 107 131.389C107 130.9 107.689 130.5 108.531 130.5C109.374 130.5 110.315 129.842 110.624 129.038C110.932 128.234 112.074 127.294 113.16 126.949C115.382 126.244 126 116.13 126 114.718C126 114.216 126.9 112.768 128 111.5C129.1 110.232 130 108.588 130 107.847C130 107.106 130.45 106.5 131 106.5C131.55 106.5 132 105.825 132 105C132 104.175 132.45 103.5 133 103.5C133.55 103.5 134.003 102.938 134.006 102.25C134.01 101.563 134.706 99.67 135.553 98.045C136.401 96.419 137.359 93.157 137.683 90.795C138.007 88.433 138.661 86.5 139.136 86.5C139.611 86.5 140 79.75 140 71.5C140 63.25 139.602 56.5 139.115 56.5C138.629 56.5 137.921 54.025 137.543 51C137.165 47.975 136.474 45.5 136.007 45.5C135.541 45.5 134.862 44.15 134.5 42.5C134.138 40.85 133.427 39.5 132.921 39.5C132.414 39.5 132 38.6 132 37.5C132 36.4 131.55 35.5 131 35.5C130.45 35.5 130 34.811 130 33.969C130 33.126 129.325 32.178 128.5 31.862C127.675 31.545 127 30.618 127 29.8C127 28.207 114.798 15.5 113.267 15.5C112.762 15.5 111.292 14.375 110 13C108.708 11.625 107.055 10.5 106.326 10.5C105.597 10.5 105 10.086 105 9.579C105 9.073 103.655 8.364 102.011 8.003C100.368 7.642 98.766 6.931 98.452 6.423C98.139 5.915 97.009 5.5 95.941 5.5C94.873 5.5 94 5.088 94 4.585C94 4.082 90.625 3.354 86.5 2.968C82.375 2.581 79 1.868 79 1.383C79 0.897 75.4 0.5 71 0.5C66.6 0.5 63 0.885 63 1.355ZM80 7.362C80 7.837 82.418 8.509 85.374 8.856C88.33 9.204 92.042 10.163 93.624 10.988C95.206 11.813 97.063 12.49 97.75 12.494C98.438 12.497 99 12.844 99 13.264C99 13.684 100.8 14.808 103 15.761C105.2 16.714 107 17.915 107 18.43C107 18.944 107.978 19.676 109.173 20.055C110.368 20.434 112.178 21.519 113.194 22.466C115.143 24.282 115.865 23.478 83.769 55.256C83.071 55.947 80.078 58.985 77.119 62.006C74.159 65.028 71.35 67.5 70.877 67.5C70.403 67.5 68.774 66.083 67.258 64.351C65.741 62.619 63.909 60.706 63.187 60.101C62.465 59.495 60.665 57.695 59.187 56.101C57.709 54.506 55.923 52.706 55.218 52.101C54.513 51.495 52.595 49.65 50.957 48C49.318 46.35 47.527 44.55 46.977 44C46.427 43.45 44.686 41.709 43.108 40.131C41.53 38.553 39.732 36.753 39.113 36.131C38.494 35.509 35.515 32.578 32.493 29.618L26.999 24.237L30.499 20.936C32.424 19.12 35.012 17.315 36.25 16.924C37.487 16.534 39.175 15.439 40.001 14.491C40.826 13.544 43.076 12.426 45.001 12.009C46.925 11.591 48.75 10.857 49.056 10.379C49.362 9.901 52.399 9.219 55.806 8.862C59.213 8.506 62 7.829 62 7.358C62 6.886 66.05 6.5 71 6.5C75.95 6.5 80 6.888 80 7.362ZM24.59 29.75C25.418 30.438 26.637 31.577 27.298 32.282C27.959 32.987 29.791 34.846 31.369 36.413C32.947 37.98 34.688 39.712 35.238 40.262C35.788 40.812 37.588 42.612 39.238 44.262C43.126 48.149 42.659 47.677 55.739 60.919L66.977 72.297L45.913 93.398C34.328 105.004 24.518 114.5 24.113 114.5C22.801 114.5 19 110.462 19 109.068C19 108.323 18.325 107.455 17.5 107.138C16.675 106.822 16 105.649 16 104.531C16 103.414 15.586 102.5 15.079 102.5C14.573 102.5 13.862 101.15 13.5 99.5C13.138 97.85 12.427 96.5 11.921 96.5C11.414 96.5 11 95.862 11 95.083C11 94.304 10.554 93.517 10.01 93.333C9.46504 93.15 8.72604 90.188 8.36704 86.75C8.00904 83.313 7.32904 80.5 6.85804 80.5C6.38604 80.5 6.00004 76 6.00004 70.5C6.00004 65 6.39804 60.5 6.88504 60.5C7.37104 60.5 8.07904 58.025 8.45704 55C8.83504 51.975 9.56204 49.5 10.072 49.5C10.582 49.5 11 48.413 11 47.083C11 45.754 11.337 44.517 11.75 44.333C12.163 44.15 13.625 41.76 15 39.021C17.07 34.899 21.656 28.735 22.792 28.548C22.953 28.522 23.762 29.063 24.59 29.75ZM120.439 29.797C121.153 30.51 122.051 32.085 122.435 33.297C122.82 34.508 123.554 35.5 124.067 35.5C124.58 35.5 125 36.189 125 37.031C125 37.874 125.675 38.822 126.5 39.138C127.325 39.455 128 40.566 128 41.607C128 42.648 128.4 43.5 128.889 43.5C129.377 43.5 130.094 45.186 130.48 47.248C130.867 49.309 131.6 51.253 132.109 51.567C132.618 51.882 133.319 55.821 133.666 60.32C134.013 64.819 134.68 68.5 135.148 68.5C136.259 68.5 136.258 73.223 135.147 73.909C134.677 74.199 134.032 77.894 133.712 82.119C133.393 86.344 132.693 90.072 132.158 90.403C131.622 90.734 130.867 92.691 130.48 94.752C130.094 96.814 129.377 98.5 128.889 98.5C128.4 98.5 128 99.175 128 100C128 100.825 127.599 101.5 127.108 101.5C126.618 101.5 125.92 102.683 125.557 104.128C125.194 105.574 123.61 108.044 122.035 109.619C120.461 111.193 118.96 113.048 118.699 113.74C118.165 115.158 117.97 114.993 105.977 103C105.427 102.45 103.627 100.65 101.977 99C100.327 97.35 98.645 95.66 98.238 95.244C97.832 94.829 92.445 89.499 86.267 83.4L75.033 72.311L96.767 50.469C108.72 38.457 118.645 28.599 118.821 28.564C118.998 28.529 119.726 29.083 120.439 29.797ZM74.065 79.25C75.667 80.763 77.486 82.509 78.108 83.131C78.73 83.753 80.588 85.612 82.238 87.262C83.888 88.912 85.688 90.712 86.238 91.262C86.788 91.812 88.588 93.612 90.238 95.262C91.888 96.912 93.63 98.653 94.109 99.131C105.667 110.67 113.862 119.5 113.015 119.5C112.42 119.5 110.629 120.834 109.036 122.464C107.442 124.093 104.982 125.717 103.569 126.072C102.156 126.427 101 127.082 101 127.529C101 127.976 99.65 128.638 98 129C96.35 129.362 95 130.073 95 130.579C95 131.086 94.1 131.5 93 131.5C91.9 131.5 91 131.914 91 132.42C91 132.927 87.963 133.623 84.25 133.968C80.537 134.313 76.719 135.023 75.764 135.547C73.605 136.732 65 136.809 65 135.645C65 135.174 61.965 134.506 58.255 134.159C54.545 133.813 51.358 133.073 51.172 132.515C50.986 131.957 49.746 131.5 48.417 131.5C47.088 131.5 46 131.086 46 130.579C46 130.073 44.65 129.362 43 129C41.35 128.638 40 127.927 40 127.421C40 126.914 39.086 126.5 37.969 126.5C36.851 126.5 35.685 125.842 35.376 125.038C35.068 124.234 34.069 123.322 33.158 123.011C32.246 122.701 30.662 121.81 29.638 121.031C27.905 119.714 29.253 118.13 49.138 98.117C60.887 86.292 70.647 76.591 70.827 76.559C71.007 76.526 72.464 77.737 74.065 79.25Z" fill="black"/>
<path fill-rule="evenodd" clip-rule="evenodd" d="M63 1.355C63 1.825 59.743 2.483 55.763 2.817C51.782 3.15 48.37 3.891 48.179 4.462C47.989 5.033 46.971 5.5 45.917 5.5C44.862 5.5 44 5.9 44 6.389C44 6.877 42.425 7.573 40.5 7.934C38.575 8.295 37 8.984 37 9.466C37 9.947 35.746 10.617 34.213 10.953C32.68 11.29 30.592 12.676 29.573 14.033C28.554 15.39 27.216 16.5 26.6 16.5C24.938 16.5 21.25 20.254 13.924 29.403C12.866 30.725 12 32.412 12 33.153C12 33.894 11.55 34.5 11 34.5C10.45 34.5 10 35.175 10 36C10 36.825 9.58604 37.5 9.07904 37.5C8.57304 37.5 7.86204 38.85 7.50004 40.5C7.13804 42.15 6.44204 43.5 5.95504 43.5C5.46804 43.5 4.77004 45.75 4.40604 48.5C4.04104 51.25 3.35004 53.5 2.87104 53.5C2.39204 53.5 2.00004 55.3 2.00004 57.5C2.00004 59.7 1.51904 61.5 0.931042 61.5C0.214042 61.5 0.0280418 64.54 0.366042 70.75C1.00604 82.506 1.98404 89.5 2.98704 89.5C3.41904 89.5 4.07704 91.525 4.44804 94C4.81904 96.475 5.49504 98.5 5.95004 98.5C6.40504 98.5 7.07304 100.075 7.43404 102C7.79504 103.925 8.52004 105.5 9.04504 105.5C9.57004 105.5 10 106.175 10 107C10 107.825 10.42 108.5 10.933 108.5C11.446 108.5 12.156 109.416 12.511 110.536C13.6 113.967 29.862 129.522 33.021 130.154C34.589 130.468 36.112 131.349 36.405 132.112C36.698 132.875 37.851 133.5 38.969 133.5C40.086 133.5 41 133.95 41 134.5C41 135.05 41.9 135.5 43 135.5C44.1 135.5 45 135.908 45 136.406C45 136.905 47.25 137.622 50 138C52.75 138.378 55 139.095 55 139.594C55 140.096 61.903 140.5 70.5 140.5C79.025 140.5 86 140.102 86 139.615C86 139.129 88.475 138.421 91.5 138.043C94.525 137.665 97 136.938 97 136.428C97 135.918 97.675 135.5 98.5 135.5C99.325 135.5 100 135.07 100 134.545C100 134.02 101.575 133.295 103.5 132.934C105.425 132.573 107 131.877 107 131.389C107 130.9 107.689 130.5 108.531 130.5C109.374 130.5 110.315 129.842 110.624 129.038C110.932 128.234 112.074 127.294 113.16 126.949C115.382 126.244 126 116.13 126 114.718C126 114.216 126.9 112.768 128 111.5C129.1 110.232 130 108.588 130 107.847C130 107.106 130.45 106.5 131 106.5C131.55 106.5 132 105.825 132 105C132 104.175 132.45 103.5 133 103.5C133.55 103.5 134.003 102.938 134.006 102.25C134.01 101.563 134.706 99.67 135.553 98.045C136.401 96.419 137.359 93.157 137.683 90.795C138.007 88.433 138.661 86.5 139.136 86.5C139.611 86.5 140 79.75 140 71.5C140 63.25 139.602 56.5 139.115 56.5C138.629 56.5 137.921 54.025 137.543 51C137.165 47.975 136.474 45.5 136.007 45.5C135.541 45.5 134.862 44.15 134.5 42.5C134.138 40.85 133.427 39.5 132.921 39.5C132.414 39.5 132 38.6 132 37.5C132 36.4 131.55 35.5 131 35.5C130.45 35.5 130 34.811 130 33.969C130 33.126 129.325 32.178 128.5 31.862C127.675 31.545 127 30.618 127 29.8C127 28.207 114.798 15.5 113.267 15.5C112.762 15.5 111.292 14.375 110 13C108.708 11.625 107.055 10.5 106.326 10.5C105.597 10.5 105 10.086 105 9.579C105 9.073 103.655 8.364 102.011 8.003C100.368 7.642 98.766 6.931 98.452 6.423C98.139 5.915 97.009 5.5 95.941 5.5C94.873 5.5 94 5.088 94 4.585C94 4.082 90.625 3.354 86.5 2.968C82.375 2.581 79 1.868 79 1.383C79 0.897 75.4 0.5 71 0.5C66.6 0.5 63 0.885 63 1.355ZM80 7.362C80 7.837 82.418 8.509 85.374 8.856C88.33 9.204 92.042 10.163 93.624 10.988C95.206 11.813 97.063 12.49 97.75 12.494C98.438 12.497 99 12.844 99 13.264C99 13.684 100.8 14.808 103 15.761C105.2 16.714 107 17.915 107 18.43C107 18.944 107.978 19.676 109.173 20.055C110.368 20.434 112.178 21.519 113.194 22.466C115.143 24.282 115.865 23.478 83.769 55.256C83.071 55.947 80.078 58.985 77.119 62.006C74.159 65.028 71.35 67.5 70.877 67.5C70.403 67.5 68.774 66.083 67.258 64.351C65.741 62.619 63.909 60.706 63.187 60.101C62.465 59.495 60.665 57.695 59.187 56.101C57.709 54.506 55.923 52.706 55.218 52.101C54.513 51.495 52.595 49.65 50.957 48C49.318 46.35 47.527 44.55 46.977 44C46.427 43.45 44.686 41.709 43.108 40.131C41.53 38.553 39.732 36.753 39.113 36.131C38.494 35.509 35.515 32.578 32.493 29.618L26.999 24.237L30.499 20.936C32.424 19.12 35.012 17.315 36.25 16.924C37.487 16.534 39.175 15.439 40.001 14.491C40.826 13.544 43.076 12.426 45.001 12.009C46.925 11.591 48.75 10.857 49.056 10.379C49.362 9.901 52.399 9.219 55.806 8.862C59.213 8.506 62 7.829 62 7.358C62 6.886 66.05 6.5 71 6.5C75.95 6.5 80 6.888 80 7.362ZM24.59 29.75C25.418 30.438 26.637 31.577 27.298 32.282C27.959 32.987 29.791 34.846 31.369 36.413C32.947 37.98 34.688 39.712 35.238 40.262C35.788 40.812 37.588 42.612 39.238 44.262C43.126 48.149 42.659 47.677 55.739 60.919L66.977 72.297L45.913 93.398C34.328 105.004 24.518 114.5 24.113 114.5C22.801 114.5 19 110.462 19 109.068C19 108.323 18.325 107.455 17.5 107.138C16.675 106.822 16 105.649 16 104.531C16 103.414 15.586 102.5 15.079 102.5C14.573 102.5 13.862 101.15 13.5 99.5C13.138 97.85 12.427 96.5 11.921 96.5C11.414 96.5 11 95.862 11 95.083C11 94.304 10.554 93.517 10.01 93.333C9.46504 93.15 8.72604 90.188 8.36704 86.75C8.00904 83.313 7.32904 80.5 6.85804 80.5C6.38604 80.5 6.00004 76 6.00004 70.5C6.00004 65 6.39804 60.5 6.88504 60.5C7.37104 60.5 8.07904 58.025 8.45704 55C8.83504 51.975 9.56204 49.5 10.072 49.5C10.582 49.5 11 48.413 11 47.083C11 45.754 11.337 44.517 11.75 44.333C12.163 44.15 13.625 41.76 15 39.021C17.07 34.899 21.656 28.735 22.792 28.548C22.953 28.522 23.762 29.063 24.59 29.75ZM120.439 29.797C121.153 30.51 122.051 32.085 122.435 33.297C122.82 34.508 123.554 35.5 124.067 35.5C124.58 35.5 125 36.189 125 37.031C125 37.874 125.675 38.822 126.5 39.138C127.325 39.455 128 40.566 128 41.607C128 42.648 128.4 43.5 128.889 43.5C129.377 43.5 130.094 45.186 130.48 47.248C130.867 49.309 131.6 51.253 132.109 51.567C132.618 51.882 133.319 55.821 133.666 60.32C134.013 64.819 134.68 68.5 135.148 68.5C136.259 68.5 136.258 73.223 135.147 73.909C134.677 74.199 134.032 77.894 133.712 82.119C133.393 86.344 132.693 90.072 132.158 90.403C131.622 90.734 130.867 92.691 130.48 94.752C130.094 96.814 129.377 98.5 128.889 98.5C128.4 98.5 128 99.175 128 100C128 100.825 127.599 101.5 127.108 101.5C126.618 101.5 125.92 102.683 125.557 104.128C125.194 105.574 123.61 108.044 122.035 109.619C120.461 111.193 118.96 113.048 118.699 113.74C118.165 115.158 117.97 114.993 105.977 103C105.427 102.45 103.627 100.65 101.977 99C100.327 97.35 98.645 95.66 98.238 95.244C97.832 94.829 92.445 89.499 86.267 83.4L75.033 72.311L96.767 50.469C108.72 38.457 118.645 28.599 118.821 28.564C118.998 28.529 119.726 29.083 120.439 29.797ZM74.065 79.25C75.667 80.763 77.486 82.509 78.108 83.131C78.73 83.753 80.588 85.612 82.238 87.262C83.888 88.912 85.688 90.712 86.238 91.262C86.788 91.812 88.588 93.612 90.238 95.262C91.888 96.912 93.63 98.653 94.109 99.131C105.667 110.67 113.862 119.5 113.015 119.5C112.42 119.5 110.629 120.834 109.036 122.464C107.442 124.093 104.982 125.717 103.569 126.072C102.156 126.427 101 127.082 101 127.529C101 127.976 99.65 128.638 98 129C96.35 129.362 95 130.073 95 130.579C95 131.086 94.1 131.5 93 131.5C91.9 131.5 91 131.914 91 132.42C91 132.927 87.963 133.623 84.25 133.968C80.537 134.313 76.719 135.023 75.764 135.547C73.605 136.732 65 136.809 65 135.645C65 135.174 61.965 134.506 58.255 134.159C54.545 133.813 51.358 133.073 51.172 132.515C50.986 131.957 49.746 131.5 48.417 131.5C47.088 131.5 46 131.086 46 130.579C46 130.073 44.65 129.362 43 129C41.35 128.638 40 127.927 40 127.421C40 126.914 39.086 126.5 37.969 126.5C36.851 126.5 35.685 125.842 35.376 125.038C35.068 124.234 34.069 123.322 33.158 123.011C32.246 122.701 30.662 121.81 29.638 121.031C27.905 119.714 29.253 118.13 49.138 98.117C60.887 86.292 70.647 76.591 70.827 76.559C71.007 76.526 72.464 77.737 74.065 79.25Z" fill="black"/>
</svg>
