<svg width="140" height="139" viewBox="0 0 140 139" fill="none" xmlns="http://www.w3.org/2000/svg">
<path fill-rule="evenodd" clip-rule="evenodd" d="M51.233 0.410285C49.446 0.662285 47.983 1.23229 47.983 1.67729C47.983 2.12129 46.183 2.77329 43.983 3.12529C41.783 3.47729 39.983 4.20928 39.983 4.75328C39.983 5.29628 39.308 5.74128 38.483 5.74128C37.658 5.74128 36.983 6.14228 36.983 6.63328C36.983 7.12328 35.819 7.81628 34.397 8.17328C31.967 8.78328 30.925 9.43728 27.52 12.4913C26.753 13.1793 25.756 13.7483 25.304 13.7563C24.193 13.7753 13.983 24.2803 13.983 25.4043C13.983 25.8953 13.083 27.0673 11.983 28.0093C10.883 28.9513 9.98301 30.4013 9.98301 31.2313C9.98301 32.0623 9.56901 32.7413 9.06201 32.7413C8.55601 32.7413 7.84501 34.0913 7.48301 35.7413C7.12101 37.3913 6.41001 38.7413 5.90401 38.7413C5.39701 38.7413 4.98301 39.6033 4.98301 40.6583C4.98301 41.7123 4.52501 42.7273 3.96501 42.9143C3.40501 43.1003 2.66701 45.6133 2.32501 48.4973C1.98401 51.3813 1.31701 53.7413 0.844008 53.7413C-0.285992 53.7413 -0.278992 82.4613 0.851008 83.1603C1.32901 83.4553 2.01901 85.9563 2.38601 88.7193C2.75201 91.4813 3.48601 93.7413 4.01701 93.7413C4.54801 93.7413 4.98301 94.2653 4.98301 94.9053C4.98301 96.6463 8.26201 103.741 9.06701 103.741C9.45201 103.741 10.052 104.88 10.402 106.273C11.051 108.859 26.805 125.741 28.569 125.741C29.104 125.741 30.178 126.624 30.956 127.704C31.735 128.784 33.634 129.945 35.177 130.284C36.72 130.623 37.983 131.264 37.983 131.709C37.983 132.154 39.669 132.835 41.731 133.221C43.792 133.608 45.743 134.353 46.067 134.877C46.391 135.401 49.88 136.1 53.82 136.431C57.759 136.761 60.983 137.416 60.983 137.886C60.983 138.356 65.033 138.741 69.983 138.741C74.933 138.741 78.983 138.355 78.983 137.883C78.983 137.412 81.749 136.737 85.131 136.383C88.512 136.03 91.774 135.343 92.381 134.856C92.987 134.37 94.946 133.659 96.733 133.277C98.52 132.895 99.983 132.204 99.983 131.741C99.983 131.278 101.333 130.603 102.983 130.241C104.633 129.879 105.983 129.168 105.983 128.662C105.983 128.155 106.453 127.741 107.027 127.741C107.601 127.741 109.284 126.616 110.766 125.241C112.249 123.866 113.854 122.741 114.333 122.741C115.477 122.741 123.983 114.099 123.983 112.937C123.983 112.442 125.333 110.625 126.983 108.898C128.633 107.172 129.983 104.855 129.983 103.75C129.983 102.645 130.397 101.741 130.904 101.741C131.41 101.741 132.121 100.391 132.483 98.7413C132.845 97.0913 133.541 95.7413 134.028 95.7413C134.515 95.7413 135.213 93.4913 135.577 90.7413C135.942 87.9913 136.633 85.7413 137.112 85.7413C137.591 85.7413 137.983 84.1663 137.983 82.2413C137.983 80.3163 138.433 78.7413 138.983 78.7413C139.579 78.7413 139.983 74.9083 139.983 69.2413C139.983 63.5743 139.579 59.7413 138.983 59.7413C138.433 59.7413 137.983 57.7163 137.983 55.2413C137.983 52.7663 137.575 50.7413 137.077 50.7413C136.578 50.7413 135.861 48.4913 135.483 45.7413C135.105 42.9913 134.423 40.7413 133.969 40.7413C133.514 40.7413 132.845 39.3913 132.483 37.7413C132.121 36.0913 131.459 34.7413 131.012 34.7413C130.565 34.7413 129.917 33.6163 129.572 32.2413C129.227 30.8663 128.503 29.7413 127.964 29.7413C127.424 29.7413 126.983 29.2873 126.983 28.7323C126.983 27.7433 122.746 22.5143 120.185 20.3423C118.568 18.9703 117.591 17.9623 114.515 14.4913C113.175 12.9793 111.404 11.7413 110.58 11.7413C109.757 11.7413 108.723 11.1793 108.283 10.4913C107.288 8.93628 101.314 5.74128 99.402 5.74128C98.622 5.74128 97.983 5.31128 97.983 4.78628C97.983 4.26128 96.296 3.52128 94.233 3.14228C92.171 2.76328 90.167 1.96428 89.781 1.36628C89.068 0.261284 57.802 -0.513715 51.233 0.410285ZM100.496 70.7413H133.983V73.7553C133.983 75.4123 133.556 77.5503 133.034 78.5053C132.512 79.4603 131.81 82.3793 131.473 84.9913C131.136 87.6033 130.496 89.7413 130.05 89.7413C129.604 89.7413 128.951 91.5413 128.599 93.7413C128.247 95.9413 127.617 97.7413 127.199 97.7413C126.78 97.7413 125.549 99.4293 124.463 101.491C123.377 103.554 121.924 105.836 121.235 106.562C120.547 107.289 119.983 108.271 119.983 108.745C119.983 109.219 119.106 109.885 118.034 110.225C116.962 110.565 115.798 111.748 115.447 112.853C115.097 113.959 113.732 115.354 112.415 115.954C111.099 116.554 109.765 117.853 109.451 118.842C109.137 119.83 107.912 120.946 106.728 121.322C105.545 121.697 103.961 122.62 103.208 123.373C102.456 124.125 101.197 124.741 100.412 124.741C99.626 124.741 98.983 125.191 98.983 125.741C98.983 126.291 98.308 126.741 97.483 126.741C96.658 126.741 95.983 127.14 95.983 127.627C95.983 128.115 93.845 128.834 91.233 129.225C88.621 129.617 86.162 130.455 85.769 131.089C84.794 132.661 53.209 132.704 52.196 131.135C51.804 130.527 49.796 129.719 47.733 129.34C45.671 128.961 43.983 128.221 43.983 127.696C43.983 127.171 43.308 126.741 42.483 126.741C41.658 126.741 40.983 126.311 40.983 125.786C40.983 125.261 39.439 124.542 37.552 124.188C35.665 123.834 33.879 122.914 33.584 122.143C33.288 121.372 32.602 120.741 32.059 120.741C30.707 120.741 18.983 109.245 18.983 107.92C18.983 107.334 18.148 106.266 17.126 105.548C16.105 104.829 14.95 103.228 14.559 101.991C14.168 100.754 13.464 99.7413 12.995 99.7413C12.526 99.7413 11.845 98.3913 11.483 96.7413C11.121 95.0913 10.41 93.7413 9.90401 93.7413C9.39701 93.7413 8.98301 92.6533 8.98301 91.3243C8.98301 89.9953 8.53601 88.7583 7.99101 88.5743C7.44501 88.3913 6.70401 84.7543 6.34401 80.4913C5.98401 76.2283 5.30601 72.7413 4.83601 72.7413C3.72401 72.7413 3.72301 65.0203 4.83501 64.3323C5.30401 64.0423 5.96801 60.8063 6.31001 57.1413C6.91201 50.6983 8.75501 44.7413 10.148 44.7413C10.52 44.7413 11.121 43.3913 11.483 41.7413C11.845 40.0913 12.506 38.7413 12.951 38.7413C13.396 38.7413 14.048 37.2793 14.399 35.4913C14.814 33.3773 16.241 31.3673 18.483 29.7413C20.378 28.3663 21.94 26.5543 21.955 25.7133C21.988 23.9173 24.912 21.2163 27.825 20.2913C28.956 19.9323 30.159 18.7633 30.498 17.6923C30.838 16.6223 32.211 15.4713 33.55 15.1353C34.888 14.7993 35.983 14.1593 35.983 13.7123C35.983 13.2653 37.333 12.6033 38.983 12.2413C40.633 11.8793 41.983 11.1683 41.983 10.6623C41.983 10.1553 42.883 9.74128 43.983 9.74128C45.083 9.74128 45.983 9.31929 45.983 8.80229C45.983 8.28629 48.008 7.56028 50.483 7.18928C52.958 6.81828 54.983 6.13729 54.983 5.67729C54.983 5.21729 57.571 4.70628 60.733 4.54128L66.483 4.24128L66.746 37.4913L67.01 70.7413H100.496Z" fill="black"/>
<path fill-rule="evenodd" clip-rule="evenodd" d="M51.233 0.410285C49.446 0.662285 47.983 1.23229 47.983 1.67729C47.983 2.12129 46.183 2.77329 43.983 3.12529C41.783 3.47729 39.983 4.20928 39.983 4.75328C39.983 5.29628 39.308 5.74128 38.483 5.74128C37.658 5.74128 36.983 6.14228 36.983 6.63328C36.983 7.12328 35.819 7.81628 34.397 8.17328C31.967 8.78328 30.925 9.43728 27.52 12.4913C26.753 13.1793 25.756 13.7483 25.304 13.7563C24.193 13.7753 13.983 24.2803 13.983 25.4043C13.983 25.8953 13.083 27.0673 11.983 28.0093C10.883 28.9513 9.98301 30.4013 9.98301 31.2313C9.98301 32.0623 9.56901 32.7413 9.06201 32.7413C8.55601 32.7413 7.84501 34.0913 7.48301 35.7413C7.12101 37.3913 6.41001 38.7413 5.90401 38.7413C5.39701 38.7413 4.98301 39.6033 4.98301 40.6583C4.98301 41.7123 4.52501 42.7273 3.96501 42.9143C3.40501 43.1003 2.66701 45.6133 2.32501 48.4973C1.98401 51.3813 1.31701 53.7413 0.844008 53.7413C-0.285992 53.7413 -0.278992 82.4613 0.851008 83.1603C1.32901 83.4553 2.01901 85.9563 2.38601 88.7193C2.75201 91.4813 3.48601 93.7413 4.01701 93.7413C4.54801 93.7413 4.98301 94.2653 4.98301 94.9053C4.98301 96.6463 8.26201 103.741 9.06701 103.741C9.45201 103.741 10.052 104.88 10.402 106.273C11.051 108.859 26.805 125.741 28.569 125.741C29.104 125.741 30.178 126.624 30.956 127.704C31.735 128.784 33.634 129.945 35.177 130.284C36.72 130.623 37.983 131.264 37.983 131.709C37.983 132.154 39.669 132.835 41.731 133.221C43.792 133.608 45.743 134.353 46.067 134.877C46.391 135.401 49.88 136.1 53.82 136.431C57.759 136.761 60.983 137.416 60.983 137.886C60.983 138.356 65.033 138.741 69.983 138.741C74.933 138.741 78.983 138.355 78.983 137.883C78.983 137.412 81.749 136.737 85.131 136.383C88.512 136.03 91.774 135.343 92.381 134.856C92.987 134.37 94.946 133.659 96.733 133.277C98.52 132.895 99.983 132.204 99.983 131.741C99.983 131.278 101.333 130.603 102.983 130.241C104.633 129.879 105.983 129.168 105.983 128.662C105.983 128.155 106.453 127.741 107.027 127.741C107.601 127.741 109.284 126.616 110.766 125.241C112.249 123.866 113.854 122.741 114.333 122.741C115.477 122.741 123.983 114.099 123.983 112.937C123.983 112.442 125.333 110.625 126.983 108.898C128.633 107.172 129.983 104.855 129.983 103.75C129.983 102.645 130.397 101.741 130.904 101.741C131.41 101.741 132.121 100.391 132.483 98.7413C132.845 97.0913 133.541 95.7413 134.028 95.7413C134.515 95.7413 135.213 93.4913 135.577 90.7413C135.942 87.9913 136.633 85.7413 137.112 85.7413C137.591 85.7413 137.983 84.1663 137.983 82.2413C137.983 80.3163 138.433 78.7413 138.983 78.7413C139.579 78.7413 139.983 74.9083 139.983 69.2413C139.983 63.5743 139.579 59.7413 138.983 59.7413C138.433 59.7413 137.983 57.7163 137.983 55.2413C137.983 52.7663 137.575 50.7413 137.077 50.7413C136.578 50.7413 135.861 48.4913 135.483 45.7413C135.105 42.9913 134.423 40.7413 133.969 40.7413C133.514 40.7413 132.845 39.3913 132.483 37.7413C132.121 36.0913 131.459 34.7413 131.012 34.7413C130.565 34.7413 129.917 33.6163 129.572 32.2413C129.227 30.8663 128.503 29.7413 127.964 29.7413C127.424 29.7413 126.983 29.2873 126.983 28.7323C126.983 27.7433 122.746 22.5143 120.185 20.3423C118.568 18.9703 117.591 17.9623 114.515 14.4913C113.175 12.9793 111.404 11.7413 110.58 11.7413C109.757 11.7413 108.723 11.1793 108.283 10.4913C107.288 8.93628 101.314 5.74128 99.402 5.74128C98.622 5.74128 97.983 5.31128 97.983 4.78628C97.983 4.26128 96.296 3.52128 94.233 3.14228C92.171 2.76328 90.167 1.96428 89.781 1.36628C89.068 0.261284 57.802 -0.513715 51.233 0.410285ZM100.496 70.7413H133.983V73.7553C133.983 75.4123 133.556 77.5503 133.034 78.5053C132.512 79.4603 131.81 82.3793 131.473 84.9913C131.136 87.6033 130.496 89.7413 130.05 89.7413C129.604 89.7413 128.951 91.5413 128.599 93.7413C128.247 95.9413 127.617 97.7413 127.199 97.7413C126.78 97.7413 125.549 99.4293 124.463 101.491C123.377 103.554 121.924 105.836 121.235 106.562C120.547 107.289 119.983 108.271 119.983 108.745C119.983 109.219 119.106 109.885 118.034 110.225C116.962 110.565 115.798 111.748 115.447 112.853C115.097 113.959 113.732 115.354 112.415 115.954C111.099 116.554 109.765 117.853 109.451 118.842C109.137 119.83 107.912 120.946 106.728 121.322C105.545 121.697 103.961 122.62 103.208 123.373C102.456 124.125 101.197 124.741 100.412 124.741C99.626 124.741 98.983 125.191 98.983 125.741C98.983 126.291 98.308 126.741 97.483 126.741C96.658 126.741 95.983 127.14 95.983 127.627C95.983 128.115 93.845 128.834 91.233 129.225C88.621 129.617 86.162 130.455 85.769 131.089C84.794 132.661 53.209 132.704 52.196 131.135C51.804 130.527 49.796 129.719 47.733 129.34C45.671 128.961 43.983 128.221 43.983 127.696C43.983 127.171 43.308 126.741 42.483 126.741C41.658 126.741 40.983 126.311 40.983 125.786C40.983 125.261 39.439 124.542 37.552 124.188C35.665 123.834 33.879 122.914 33.584 122.143C33.288 121.372 32.602 120.741 32.059 120.741C30.707 120.741 18.983 109.245 18.983 107.92C18.983 107.334 18.148 106.266 17.126 105.548C16.105 104.829 14.95 103.228 14.559 101.991C14.168 100.754 13.464 99.7413 12.995 99.7413C12.526 99.7413 11.845 98.3913 11.483 96.7413C11.121 95.0913 10.41 93.7413 9.90401 93.7413C9.39701 93.7413 8.98301 92.6533 8.98301 91.3243C8.98301 89.9953 8.53601 88.7583 7.99101 88.5743C7.44501 88.3913 6.70401 84.7543 6.34401 80.4913C5.98401 76.2283 5.30601 72.7413 4.83601 72.7413C3.72401 72.7413 3.72301 65.0203 4.83501 64.3323C5.30401 64.0423 5.96801 60.8063 6.31001 57.1413C6.91201 50.6983 8.75501 44.7413 10.148 44.7413C10.52 44.7413 11.121 43.3913 11.483 41.7413C11.845 40.0913 12.506 38.7413 12.951 38.7413C13.396 38.7413 14.048 37.2793 14.399 35.4913C14.814 33.3773 16.241 31.3673 18.483 29.7413C20.378 28.3663 21.94 26.5543 21.955 25.7133C21.988 23.9173 24.912 21.2163 27.825 20.2913C28.956 19.9323 30.159 18.7633 30.498 17.6923C30.838 16.6223 32.211 15.4713 33.55 15.1353C34.888 14.7993 35.983 14.1593 35.983 13.7123C35.983 13.2653 37.333 12.6033 38.983 12.2413C40.633 11.8793 41.983 11.1683 41.983 10.6623C41.983 10.1553 42.883 9.74128 43.983 9.74128C45.083 9.74128 45.983 9.31929 45.983 8.80229C45.983 8.28629 48.008 7.56028 50.483 7.18928C52.958 6.81828 54.983 6.13729 54.983 5.67729C54.983 5.21729 57.571 4.70628 60.733 4.54128L66.483 4.24128L66.746 37.4913L67.01 70.7413H100.496Z" fill="black"/>
<path fill-rule="evenodd" clip-rule="evenodd" d="M51.233 0.410285C49.446 0.662285 47.983 1.23229 47.983 1.67729C47.983 2.12129 46.183 2.77329 43.983 3.12529C41.783 3.47729 39.983 4.20928 39.983 4.75328C39.983 5.29628 39.308 5.74128 38.483 5.74128C37.658 5.74128 36.983 6.14228 36.983 6.63328C36.983 7.12328 35.819 7.81628 34.397 8.17328C31.967 8.78328 30.925 9.43728 27.52 12.4913C26.753 13.1793 25.756 13.7483 25.304 13.7563C24.193 13.7753 13.983 24.2803 13.983 25.4043C13.983 25.8953 13.083 27.0673 11.983 28.0093C10.883 28.9513 9.98301 30.4013 9.98301 31.2313C9.98301 32.0623 9.56901 32.7413 9.06201 32.7413C8.55601 32.7413 7.84501 34.0913 7.48301 35.7413C7.12101 37.3913 6.41001 38.7413 5.90401 38.7413C5.39701 38.7413 4.98301 39.6033 4.98301 40.6583C4.98301 41.7123 4.52501 42.7273 3.96501 42.9143C3.40501 43.1003 2.66701 45.6133 2.32501 48.4973C1.98401 51.3813 1.31701 53.7413 0.844008 53.7413C-0.285992 53.7413 -0.278992 82.4613 0.851008 83.1603C1.32901 83.4553 2.01901 85.9563 2.38601 88.7193C2.75201 91.4813 3.48601 93.7413 4.01701 93.7413C4.54801 93.7413 4.98301 94.2653 4.98301 94.9053C4.98301 96.6463 8.26201 103.741 9.06701 103.741C9.45201 103.741 10.052 104.88 10.402 106.273C11.051 108.859 26.805 125.741 28.569 125.741C29.104 125.741 30.178 126.624 30.956 127.704C31.735 128.784 33.634 129.945 35.177 130.284C36.72 130.623 37.983 131.264 37.983 131.709C37.983 132.154 39.669 132.835 41.731 133.221C43.792 133.608 45.743 134.353 46.067 134.877C46.391 135.401 49.88 136.1 53.82 136.431C57.759 136.761 60.983 137.416 60.983 137.886C60.983 138.356 65.033 138.741 69.983 138.741C74.933 138.741 78.983 138.355 78.983 137.883C78.983 137.412 81.749 136.737 85.131 136.383C88.512 136.03 91.774 135.343 92.381 134.856C92.987 134.37 94.946 133.659 96.733 133.277C98.52 132.895 99.983 132.204 99.983 131.741C99.983 131.278 101.333 130.603 102.983 130.241C104.633 129.879 105.983 129.168 105.983 128.662C105.983 128.155 106.453 127.741 107.027 127.741C107.601 127.741 109.284 126.616 110.766 125.241C112.249 123.866 113.854 122.741 114.333 122.741C115.477 122.741 123.983 114.099 123.983 112.937C123.983 112.442 125.333 110.625 126.983 108.898C128.633 107.172 129.983 104.855 129.983 103.75C129.983 102.645 130.397 101.741 130.904 101.741C131.41 101.741 132.121 100.391 132.483 98.7413C132.845 97.0913 133.541 95.7413 134.028 95.7413C134.515 95.7413 135.213 93.4913 135.577 90.7413C135.942 87.9913 136.633 85.7413 137.112 85.7413C137.591 85.7413 137.983 84.1663 137.983 82.2413C137.983 80.3163 138.433 78.7413 138.983 78.7413C139.579 78.7413 139.983 74.9083 139.983 69.2413C139.983 63.5743 139.579 59.7413 138.983 59.7413C138.433 59.7413 137.983 57.7163 137.983 55.2413C137.983 52.7663 137.575 50.7413 137.077 50.7413C136.578 50.7413 135.861 48.4913 135.483 45.7413C135.105 42.9913 134.423 40.7413 133.969 40.7413C133.514 40.7413 132.845 39.3913 132.483 37.7413C132.121 36.0913 131.459 34.7413 131.012 34.7413C130.565 34.7413 129.917 33.6163 129.572 32.2413C129.227 30.8663 128.503 29.7413 127.964 29.7413C127.424 29.7413 126.983 29.2873 126.983 28.7323C126.983 27.7433 122.746 22.5143 120.185 20.3423C118.568 18.9703 117.591 17.9623 114.515 14.4913C113.175 12.9793 111.404 11.7413 110.58 11.7413C109.757 11.7413 108.723 11.1793 108.283 10.4913C107.288 8.93628 101.314 5.74128 99.402 5.74128C98.622 5.74128 97.983 5.31128 97.983 4.78628C97.983 4.26128 96.296 3.52128 94.233 3.14228C92.171 2.76328 90.167 1.96428 89.781 1.36628C89.068 0.261284 57.802 -0.513715 51.233 0.410285ZM100.496 70.7413H133.983V73.7553C133.983 75.4123 133.556 77.5503 133.034 78.5053C132.512 79.4603 131.81 82.3793 131.473 84.9913C131.136 87.6033 130.496 89.7413 130.05 89.7413C129.604 89.7413 128.951 91.5413 128.599 93.7413C128.247 95.9413 127.617 97.7413 127.199 97.7413C126.78 97.7413 125.549 99.4293 124.463 101.491C123.377 103.554 121.924 105.836 121.235 106.562C120.547 107.289 119.983 108.271 119.983 108.745C119.983 109.219 119.106 109.885 118.034 110.225C116.962 110.565 115.798 111.748 115.447 112.853C115.097 113.959 113.732 115.354 112.415 115.954C111.099 116.554 109.765 117.853 109.451 118.842C109.137 119.83 107.912 120.946 106.728 121.322C105.545 121.697 103.961 122.62 103.208 123.373C102.456 124.125 101.197 124.741 100.412 124.741C99.626 124.741 98.983 125.191 98.983 125.741C98.983 126.291 98.308 126.741 97.483 126.741C96.658 126.741 95.983 127.14 95.983 127.627C95.983 128.115 93.845 128.834 91.233 129.225C88.621 129.617 86.162 130.455 85.769 131.089C84.794 132.661 53.209 132.704 52.196 131.135C51.804 130.527 49.796 129.719 47.733 129.34C45.671 128.961 43.983 128.221 43.983 127.696C43.983 127.171 43.308 126.741 42.483 126.741C41.658 126.741 40.983 126.311 40.983 125.786C40.983 125.261 39.439 124.542 37.552 124.188C35.665 123.834 33.879 122.914 33.584 122.143C33.288 121.372 32.602 120.741 32.059 120.741C30.707 120.741 18.983 109.245 18.983 107.92C18.983 107.334 18.148 106.266 17.126 105.548C16.105 104.829 14.95 103.228 14.559 101.991C14.168 100.754 13.464 99.7413 12.995 99.7413C12.526 99.7413 11.845 98.3913 11.483 96.7413C11.121 95.0913 10.41 93.7413 9.90401 93.7413C9.39701 93.7413 8.98301 92.6533 8.98301 91.3243C8.98301 89.9953 8.53601 88.7583 7.99101 88.5743C7.44501 88.3913 6.70401 84.7543 6.34401 80.4913C5.98401 76.2283 5.30601 72.7413 4.83601 72.7413C3.72401 72.7413 3.72301 65.0203 4.83501 64.3323C5.30401 64.0423 5.96801 60.8063 6.31001 57.1413C6.91201 50.6983 8.75501 44.7413 10.148 44.7413C10.52 44.7413 11.121 43.3913 11.483 41.7413C11.845 40.0913 12.506 38.7413 12.951 38.7413C13.396 38.7413 14.048 37.2793 14.399 35.4913C14.814 33.3773 16.241 31.3673 18.483 29.7413C20.378 28.3663 21.94 26.5543 21.955 25.7133C21.988 23.9173 24.912 21.2163 27.825 20.2913C28.956 19.9323 30.159 18.7633 30.498 17.6923C30.838 16.6223 32.211 15.4713 33.55 15.1353C34.888 14.7993 35.983 14.1593 35.983 13.7123C35.983 13.2653 37.333 12.6033 38.983 12.2413C40.633 11.8793 41.983 11.1683 41.983 10.6623C41.983 10.1553 42.883 9.74128 43.983 9.74128C45.083 9.74128 45.983 9.31929 45.983 8.80229C45.983 8.28629 48.008 7.56028 50.483 7.18928C52.958 6.81828 54.983 6.13729 54.983 5.67729C54.983 5.21729 57.571 4.70628 60.733 4.54128L66.483 4.24128L66.746 37.4913L67.01 70.7413H100.496Z" fill="black"/>
<path fill-rule="evenodd" clip-rule="evenodd" d="M51.233 0.410285C49.446 0.662285 47.983 1.23229 47.983 1.67729C47.983 2.12129 46.183 2.77329 43.983 3.12529C41.783 3.47729 39.983 4.20928 39.983 4.75328C39.983 5.29628 39.308 5.74128 38.483 5.74128C37.658 5.74128 36.983 6.14228 36.983 6.63328C36.983 7.12328 35.819 7.81628 34.397 8.17328C31.967 8.78328 30.925 9.43728 27.52 12.4913C26.753 13.1793 25.756 13.7483 25.304 13.7563C24.193 13.7753 13.983 24.2803 13.983 25.4043C13.983 25.8953 13.083 27.0673 11.983 28.0093C10.883 28.9513 9.98301 30.4013 9.98301 31.2313C9.98301 32.0623 9.56901 32.7413 9.06201 32.7413C8.55601 32.7413 7.84501 34.0913 7.48301 35.7413C7.12101 37.3913 6.41001 38.7413 5.90401 38.7413C5.39701 38.7413 4.98301 39.6033 4.98301 40.6583C4.98301 41.7123 4.52501 42.7273 3.96501 42.9143C3.40501 43.1003 2.66701 45.6133 2.32501 48.4973C1.98401 51.3813 1.31701 53.7413 0.844008 53.7413C-0.285992 53.7413 -0.278992 82.4613 0.851008 83.1603C1.32901 83.4553 2.01901 85.9563 2.38601 88.7193C2.75201 91.4813 3.48601 93.7413 4.01701 93.7413C4.54801 93.7413 4.98301 94.2653 4.98301 94.9053C4.98301 96.6463 8.26201 103.741 9.06701 103.741C9.45201 103.741 10.052 104.88 10.402 106.273C11.051 108.859 26.805 125.741 28.569 125.741C29.104 125.741 30.178 126.624 30.956 127.704C31.735 128.784 33.634 129.945 35.177 130.284C36.72 130.623 37.983 131.264 37.983 131.709C37.983 132.154 39.669 132.835 41.731 133.221C43.792 133.608 45.743 134.353 46.067 134.877C46.391 135.401 49.88 136.1 53.82 136.431C57.759 136.761 60.983 137.416 60.983 137.886C60.983 138.356 65.033 138.741 69.983 138.741C74.933 138.741 78.983 138.355 78.983 137.883C78.983 137.412 81.749 136.737 85.131 136.383C88.512 136.03 91.774 135.343 92.381 134.856C92.987 134.37 94.946 133.659 96.733 133.277C98.52 132.895 99.983 132.204 99.983 131.741C99.983 131.278 101.333 130.603 102.983 130.241C104.633 129.879 105.983 129.168 105.983 128.662C105.983 128.155 106.453 127.741 107.027 127.741C107.601 127.741 109.284 126.616 110.766 125.241C112.249 123.866 113.854 122.741 114.333 122.741C115.477 122.741 123.983 114.099 123.983 112.937C123.983 112.442 125.333 110.625 126.983 108.898C128.633 107.172 129.983 104.855 129.983 103.75C129.983 102.645 130.397 101.741 130.904 101.741C131.41 101.741 132.121 100.391 132.483 98.7413C132.845 97.0913 133.541 95.7413 134.028 95.7413C134.515 95.7413 135.213 93.4913 135.577 90.7413C135.942 87.9913 136.633 85.7413 137.112 85.7413C137.591 85.7413 137.983 84.1663 137.983 82.2413C137.983 80.3163 138.433 78.7413 138.983 78.7413C139.579 78.7413 139.983 74.9083 139.983 69.2413C139.983 63.5743 139.579 59.7413 138.983 59.7413C138.433 59.7413 137.983 57.7163 137.983 55.2413C137.983 52.7663 137.575 50.7413 137.077 50.7413C136.578 50.7413 135.861 48.4913 135.483 45.7413C135.105 42.9913 134.423 40.7413 133.969 40.7413C133.514 40.7413 132.845 39.3913 132.483 37.7413C132.121 36.0913 131.459 34.7413 131.012 34.7413C130.565 34.7413 129.917 33.6163 129.572 32.2413C129.227 30.8663 128.503 29.7413 127.964 29.7413C127.424 29.7413 126.983 29.2873 126.983 28.7323C126.983 27.7433 122.746 22.5143 120.185 20.3423C118.568 18.9703 117.591 17.9623 114.515 14.4913C113.175 12.9793 111.404 11.7413 110.58 11.7413C109.757 11.7413 108.723 11.1793 108.283 10.4913C107.288 8.93628 101.314 5.74128 99.402 5.74128C98.622 5.74128 97.983 5.31128 97.983 4.78628C97.983 4.26128 96.296 3.52128 94.233 3.14228C92.171 2.76328 90.167 1.96428 89.781 1.36628C89.068 0.261284 57.802 -0.513715 51.233 0.410285ZM100.496 70.7413H133.983V73.7553C133.983 75.4123 133.556 77.5503 133.034 78.5053C132.512 79.4603 131.81 82.3793 131.473 84.9913C131.136 87.6033 130.496 89.7413 130.05 89.7413C129.604 89.7413 128.951 91.5413 128.599 93.7413C128.247 95.9413 127.617 97.7413 127.199 97.7413C126.78 97.7413 125.549 99.4293 124.463 101.491C123.377 103.554 121.924 105.836 121.235 106.562C120.547 107.289 119.983 108.271 119.983 108.745C119.983 109.219 119.106 109.885 118.034 110.225C116.962 110.565 115.798 111.748 115.447 112.853C115.097 113.959 113.732 115.354 112.415 115.954C111.099 116.554 109.765 117.853 109.451 118.842C109.137 119.83 107.912 120.946 106.728 121.322C105.545 121.697 103.961 122.62 103.208 123.373C102.456 124.125 101.197 124.741 100.412 124.741C99.626 124.741 98.983 125.191 98.983 125.741C98.983 126.291 98.308 126.741 97.483 126.741C96.658 126.741 95.983 127.14 95.983 127.627C95.983 128.115 93.845 128.834 91.233 129.225C88.621 129.617 86.162 130.455 85.769 131.089C84.794 132.661 53.209 132.704 52.196 131.135C51.804 130.527 49.796 129.719 47.733 129.34C45.671 128.961 43.983 128.221 43.983 127.696C43.983 127.171 43.308 126.741 42.483 126.741C41.658 126.741 40.983 126.311 40.983 125.786C40.983 125.261 39.439 124.542 37.552 124.188C35.665 123.834 33.879 122.914 33.584 122.143C33.288 121.372 32.602 120.741 32.059 120.741C30.707 120.741 18.983 109.245 18.983 107.92C18.983 107.334 18.148 106.266 17.126 105.548C16.105 104.829 14.95 103.228 14.559 101.991C14.168 100.754 13.464 99.7413 12.995 99.7413C12.526 99.7413 11.845 98.3913 11.483 96.7413C11.121 95.0913 10.41 93.7413 9.90401 93.7413C9.39701 93.7413 8.98301 92.6533 8.98301 91.3243C8.98301 89.9953 8.53601 88.7583 7.99101 88.5743C7.44501 88.3913 6.70401 84.7543 6.34401 80.4913C5.98401 76.2283 5.30601 72.7413 4.83601 72.7413C3.72401 72.7413 3.72301 65.0203 4.83501 64.3323C5.30401 64.0423 5.96801 60.8063 6.31001 57.1413C6.91201 50.6983 8.75501 44.7413 10.148 44.7413C10.52 44.7413 11.121 43.3913 11.483 41.7413C11.845 40.0913 12.506 38.7413 12.951 38.7413C13.396 38.7413 14.048 37.2793 14.399 35.4913C14.814 33.3773 16.241 31.3673 18.483 29.7413C20.378 28.3663 21.94 26.5543 21.955 25.7133C21.988 23.9173 24.912 21.2163 27.825 20.2913C28.956 19.9323 30.159 18.7633 30.498 17.6923C30.838 16.6223 32.211 15.4713 33.55 15.1353C34.888 14.7993 35.983 14.1593 35.983 13.7123C35.983 13.2653 37.333 12.6033 38.983 12.2413C40.633 11.8793 41.983 11.1683 41.983 10.6623C41.983 10.1553 42.883 9.74128 43.983 9.74128C45.083 9.74128 45.983 9.31929 45.983 8.80229C45.983 8.28629 48.008 7.56028 50.483 7.18928C52.958 6.81828 54.983 6.13729 54.983 5.67729C54.983 5.21729 57.571 4.70628 60.733 4.54128L66.483 4.24128L66.746 37.4913L67.01 70.7413H100.496Z" fill="black"/>
<path fill-rule="evenodd" clip-rule="evenodd" d="M51.233 0.410285C49.446 0.662285 47.983 1.23229 47.983 1.67729C47.983 2.12129 46.183 2.77329 43.983 3.12529C41.783 3.47729 39.983 4.20928 39.983 4.75328C39.983 5.29628 39.308 5.74128 38.483 5.74128C37.658 5.74128 36.983 6.14228 36.983 6.63328C36.983 7.12328 35.819 7.81628 34.397 8.17328C31.967 8.78328 30.925 9.43728 27.52 12.4913C26.753 13.1793 25.756 13.7483 25.304 13.7563C24.193 13.7753 13.983 24.2803 13.983 25.4043C13.983 25.8953 13.083 27.0673 11.983 28.0093C10.883 28.9513 9.98301 30.4013 9.98301 31.2313C9.98301 32.0623 9.56901 32.7413 9.06201 32.7413C8.55601 32.7413 7.84501 34.0913 7.48301 35.7413C7.12101 37.3913 6.41001 38.7413 5.90401 38.7413C5.39701 38.7413 4.98301 39.6033 4.98301 40.6583C4.98301 41.7123 4.52501 42.7273 3.96501 42.9143C3.40501 43.1003 2.66701 45.6133 2.32501 48.4973C1.98401 51.3813 1.31701 53.7413 0.844008 53.7413C-0.285992 53.7413 -0.278992 82.4613 0.851008 83.1603C1.32901 83.4553 2.01901 85.9563 2.38601 88.7193C2.75201 91.4813 3.48601 93.7413 4.01701 93.7413C4.54801 93.7413 4.98301 94.2653 4.98301 94.9053C4.98301 96.6463 8.26201 103.741 9.06701 103.741C9.45201 103.741 10.052 104.88 10.402 106.273C11.051 108.859 26.805 125.741 28.569 125.741C29.104 125.741 30.178 126.624 30.956 127.704C31.735 128.784 33.634 129.945 35.177 130.284C36.72 130.623 37.983 131.264 37.983 131.709C37.983 132.154 39.669 132.835 41.731 133.221C43.792 133.608 45.743 134.353 46.067 134.877C46.391 135.401 49.88 136.1 53.82 136.431C57.759 136.761 60.983 137.416 60.983 137.886C60.983 138.356 65.033 138.741 69.983 138.741C74.933 138.741 78.983 138.355 78.983 137.883C78.983 137.412 81.749 136.737 85.131 136.383C88.512 136.03 91.774 135.343 92.381 134.856C92.987 134.37 94.946 133.659 96.733 133.277C98.52 132.895 99.983 132.204 99.983 131.741C99.983 131.278 101.333 130.603 102.983 130.241C104.633 129.879 105.983 129.168 105.983 128.662C105.983 128.155 106.453 127.741 107.027 127.741C107.601 127.741 109.284 126.616 110.766 125.241C112.249 123.866 113.854 122.741 114.333 122.741C115.477 122.741 123.983 114.099 123.983 112.937C123.983 112.442 125.333 110.625 126.983 108.898C128.633 107.172 129.983 104.855 129.983 103.75C129.983 102.645 130.397 101.741 130.904 101.741C131.41 101.741 132.121 100.391 132.483 98.7413C132.845 97.0913 133.541 95.7413 134.028 95.7413C134.515 95.7413 135.213 93.4913 135.577 90.7413C135.942 87.9913 136.633 85.7413 137.112 85.7413C137.591 85.7413 137.983 84.1663 137.983 82.2413C137.983 80.3163 138.433 78.7413 138.983 78.7413C139.579 78.7413 139.983 74.9083 139.983 69.2413C139.983 63.5743 139.579 59.7413 138.983 59.7413C138.433 59.7413 137.983 57.7163 137.983 55.2413C137.983 52.7663 137.575 50.7413 137.077 50.7413C136.578 50.7413 135.861 48.4913 135.483 45.7413C135.105 42.9913 134.423 40.7413 133.969 40.7413C133.514 40.7413 132.845 39.3913 132.483 37.7413C132.121 36.0913 131.459 34.7413 131.012 34.7413C130.565 34.7413 129.917 33.6163 129.572 32.2413C129.227 30.8663 128.503 29.7413 127.964 29.7413C127.424 29.7413 126.983 29.2873 126.983 28.7323C126.983 27.7433 122.746 22.5143 120.185 20.3423C118.568 18.9703 117.591 17.9623 114.515 14.4913C113.175 12.9793 111.404 11.7413 110.58 11.7413C109.757 11.7413 108.723 11.1793 108.283 10.4913C107.288 8.93628 101.314 5.74128 99.402 5.74128C98.622 5.74128 97.983 5.31128 97.983 4.78628C97.983 4.26128 96.296 3.52128 94.233 3.14228C92.171 2.76328 90.167 1.96428 89.781 1.36628C89.068 0.261284 57.802 -0.513715 51.233 0.410285ZM100.496 70.7413H133.983V73.7553C133.983 75.4123 133.556 77.5503 133.034 78.5053C132.512 79.4603 131.81 82.3793 131.473 84.9913C131.136 87.6033 130.496 89.7413 130.05 89.7413C129.604 89.7413 128.951 91.5413 128.599 93.7413C128.247 95.9413 127.617 97.7413 127.199 97.7413C126.78 97.7413 125.549 99.4293 124.463 101.491C123.377 103.554 121.924 105.836 121.235 106.562C120.547 107.289 119.983 108.271 119.983 108.745C119.983 109.219 119.106 109.885 118.034 110.225C116.962 110.565 115.798 111.748 115.447 112.853C115.097 113.959 113.732 115.354 112.415 115.954C111.099 116.554 109.765 117.853 109.451 118.842C109.137 119.83 107.912 120.946 106.728 121.322C105.545 121.697 103.961 122.62 103.208 123.373C102.456 124.125 101.197 124.741 100.412 124.741C99.626 124.741 98.983 125.191 98.983 125.741C98.983 126.291 98.308 126.741 97.483 126.741C96.658 126.741 95.983 127.14 95.983 127.627C95.983 128.115 93.845 128.834 91.233 129.225C88.621 129.617 86.162 130.455 85.769 131.089C84.794 132.661 53.209 132.704 52.196 131.135C51.804 130.527 49.796 129.719 47.733 129.34C45.671 128.961 43.983 128.221 43.983 127.696C43.983 127.171 43.308 126.741 42.483 126.741C41.658 126.741 40.983 126.311 40.983 125.786C40.983 125.261 39.439 124.542 37.552 124.188C35.665 123.834 33.879 122.914 33.584 122.143C33.288 121.372 32.602 120.741 32.059 120.741C30.707 120.741 18.983 109.245 18.983 107.92C18.983 107.334 18.148 106.266 17.126 105.548C16.105 104.829 14.95 103.228 14.559 101.991C14.168 100.754 13.464 99.7413 12.995 99.7413C12.526 99.7413 11.845 98.3913 11.483 96.7413C11.121 95.0913 10.41 93.7413 9.90401 93.7413C9.39701 93.7413 8.98301 92.6533 8.98301 91.3243C8.98301 89.9953 8.53601 88.7583 7.99101 88.5743C7.44501 88.3913 6.70401 84.7543 6.34401 80.4913C5.98401 76.2283 5.30601 72.7413 4.83601 72.7413C3.72401 72.7413 3.72301 65.0203 4.83501 64.3323C5.30401 64.0423 5.96801 60.8063 6.31001 57.1413C6.91201 50.6983 8.75501 44.7413 10.148 44.7413C10.52 44.7413 11.121 43.3913 11.483 41.7413C11.845 40.0913 12.506 38.7413 12.951 38.7413C13.396 38.7413 14.048 37.2793 14.399 35.4913C14.814 33.3773 16.241 31.3673 18.483 29.7413C20.378 28.3663 21.94 26.5543 21.955 25.7133C21.988 23.9173 24.912 21.2163 27.825 20.2913C28.956 19.9323 30.159 18.7633 30.498 17.6923C30.838 16.6223 32.211 15.4713 33.55 15.1353C34.888 14.7993 35.983 14.1593 35.983 13.7123C35.983 13.2653 37.333 12.6033 38.983 12.2413C40.633 11.8793 41.983 11.1683 41.983 10.6623C41.983 10.1553 42.883 9.74128 43.983 9.74128C45.083 9.74128 45.983 9.31929 45.983 8.80229C45.983 8.28629 48.008 7.56028 50.483 7.18928C52.958 6.81828 54.983 6.13729 54.983 5.67729C54.983 5.21729 57.571 4.70628 60.733 4.54128L66.483 4.24128L66.746 37.4913L67.01 70.7413H100.496Z" fill="black"/>
<path fill-rule="evenodd" clip-rule="evenodd" d="M51.233 0.410285C49.446 0.662285 47.983 1.23229 47.983 1.67729C47.983 2.12129 46.183 2.77329 43.983 3.12529C41.783 3.47729 39.983 4.20928 39.983 4.75328C39.983 5.29628 39.308 5.74128 38.483 5.74128C37.658 5.74128 36.983 6.14228 36.983 6.63328C36.983 7.12328 35.819 7.81628 34.397 8.17328C31.967 8.78328 30.925 9.43728 27.52 12.4913C26.753 13.1793 25.756 13.7483 25.304 13.7563C24.193 13.7753 13.983 24.2803 13.983 25.4043C13.983 25.8953 13.083 27.0673 11.983 28.0093C10.883 28.9513 9.98301 30.4013 9.98301 31.2313C9.98301 32.0623 9.56901 32.7413 9.06201 32.7413C8.55601 32.7413 7.84501 34.0913 7.48301 35.7413C7.12101 37.3913 6.41001 38.7413 5.90401 38.7413C5.39701 38.7413 4.98301 39.6033 4.98301 40.6583C4.98301 41.7123 4.52501 42.7273 3.96501 42.9143C3.40501 43.1003 2.66701 45.6133 2.32501 48.4973C1.98401 51.3813 1.31701 53.7413 0.844008 53.7413C-0.285992 53.7413 -0.278992 82.4613 0.851008 83.1603C1.32901 83.4553 2.01901 85.9563 2.38601 88.7193C2.75201 91.4813 3.48601 93.7413 4.01701 93.7413C4.54801 93.7413 4.98301 94.2653 4.98301 94.9053C4.98301 96.6463 8.26201 103.741 9.06701 103.741C9.45201 103.741 10.052 104.88 10.402 106.273C11.051 108.859 26.805 125.741 28.569 125.741C29.104 125.741 30.178 126.624 30.956 127.704C31.735 128.784 33.634 129.945 35.177 130.284C36.72 130.623 37.983 131.264 37.983 131.709C37.983 132.154 39.669 132.835 41.731 133.221C43.792 133.608 45.743 134.353 46.067 134.877C46.391 135.401 49.88 136.1 53.82 136.431C57.759 136.761 60.983 137.416 60.983 137.886C60.983 138.356 65.033 138.741 69.983 138.741C74.933 138.741 78.983 138.355 78.983 137.883C78.983 137.412 81.749 136.737 85.131 136.383C88.512 136.03 91.774 135.343 92.381 134.856C92.987 134.37 94.946 133.659 96.733 133.277C98.52 132.895 99.983 132.204 99.983 131.741C99.983 131.278 101.333 130.603 102.983 130.241C104.633 129.879 105.983 129.168 105.983 128.662C105.983 128.155 106.453 127.741 107.027 127.741C107.601 127.741 109.284 126.616 110.766 125.241C112.249 123.866 113.854 122.741 114.333 122.741C115.477 122.741 123.983 114.099 123.983 112.937C123.983 112.442 125.333 110.625 126.983 108.898C128.633 107.172 129.983 104.855 129.983 103.75C129.983 102.645 130.397 101.741 130.904 101.741C131.41 101.741 132.121 100.391 132.483 98.7413C132.845 97.0913 133.541 95.7413 134.028 95.7413C134.515 95.7413 135.213 93.4913 135.577 90.7413C135.942 87.9913 136.633 85.7413 137.112 85.7413C137.591 85.7413 137.983 84.1663 137.983 82.2413C137.983 80.3163 138.433 78.7413 138.983 78.7413C139.579 78.7413 139.983 74.9083 139.983 69.2413C139.983 63.5743 139.579 59.7413 138.983 59.7413C138.433 59.7413 137.983 57.7163 137.983 55.2413C137.983 52.7663 137.575 50.7413 137.077 50.7413C136.578 50.7413 135.861 48.4913 135.483 45.7413C135.105 42.9913 134.423 40.7413 133.969 40.7413C133.514 40.7413 132.845 39.3913 132.483 37.7413C132.121 36.0913 131.459 34.7413 131.012 34.7413C130.565 34.7413 129.917 33.6163 129.572 32.2413C129.227 30.8663 128.503 29.7413 127.964 29.7413C127.424 29.7413 126.983 29.2873 126.983 28.7323C126.983 27.7433 122.746 22.5143 120.185 20.3423C118.568 18.9703 117.591 17.9623 114.515 14.4913C113.175 12.9793 111.404 11.7413 110.58 11.7413C109.757 11.7413 108.723 11.1793 108.283 10.4913C107.288 8.93628 101.314 5.74128 99.402 5.74128C98.622 5.74128 97.983 5.31128 97.983 4.78628C97.983 4.26128 96.296 3.52128 94.233 3.14228C92.171 2.76328 90.167 1.96428 89.781 1.36628C89.068 0.261284 57.802 -0.513715 51.233 0.410285ZM100.496 70.7413H133.983V73.7553C133.983 75.4123 133.556 77.5503 133.034 78.5053C132.512 79.4603 131.81 82.3793 131.473 84.9913C131.136 87.6033 130.496 89.7413 130.05 89.7413C129.604 89.7413 128.951 91.5413 128.599 93.7413C128.247 95.9413 127.617 97.7413 127.199 97.7413C126.78 97.7413 125.549 99.4293 124.463 101.491C123.377 103.554 121.924 105.836 121.235 106.562C120.547 107.289 119.983 108.271 119.983 108.745C119.983 109.219 119.106 109.885 118.034 110.225C116.962 110.565 115.798 111.748 115.447 112.853C115.097 113.959 113.732 115.354 112.415 115.954C111.099 116.554 109.765 117.853 109.451 118.842C109.137 119.83 107.912 120.946 106.728 121.322C105.545 121.697 103.961 122.62 103.208 123.373C102.456 124.125 101.197 124.741 100.412 124.741C99.626 124.741 98.983 125.191 98.983 125.741C98.983 126.291 98.308 126.741 97.483 126.741C96.658 126.741 95.983 127.14 95.983 127.627C95.983 128.115 93.845 128.834 91.233 129.225C88.621 129.617 86.162 130.455 85.769 131.089C84.794 132.661 53.209 132.704 52.196 131.135C51.804 130.527 49.796 129.719 47.733 129.34C45.671 128.961 43.983 128.221 43.983 127.696C43.983 127.171 43.308 126.741 42.483 126.741C41.658 126.741 40.983 126.311 40.983 125.786C40.983 125.261 39.439 124.542 37.552 124.188C35.665 123.834 33.879 122.914 33.584 122.143C33.288 121.372 32.602 120.741 32.059 120.741C30.707 120.741 18.983 109.245 18.983 107.92C18.983 107.334 18.148 106.266 17.126 105.548C16.105 104.829 14.95 103.228 14.559 101.991C14.168 100.754 13.464 99.7413 12.995 99.7413C12.526 99.7413 11.845 98.3913 11.483 96.7413C11.121 95.0913 10.41 93.7413 9.90401 93.7413C9.39701 93.7413 8.98301 92.6533 8.98301 91.3243C8.98301 89.9953 8.53601 88.7583 7.99101 88.5743C7.44501 88.3913 6.70401 84.7543 6.34401 80.4913C5.98401 76.2283 5.30601 72.7413 4.83601 72.7413C3.72401 72.7413 3.72301 65.0203 4.83501 64.3323C5.30401 64.0423 5.96801 60.8063 6.31001 57.1413C6.91201 50.6983 8.75501 44.7413 10.148 44.7413C10.52 44.7413 11.121 43.3913 11.483 41.7413C11.845 40.0913 12.506 38.7413 12.951 38.7413C13.396 38.7413 14.048 37.2793 14.399 35.4913C14.814 33.3773 16.241 31.3673 18.483 29.7413C20.378 28.3663 21.94 26.5543 21.955 25.7133C21.988 23.9173 24.912 21.2163 27.825 20.2913C28.956 19.9323 30.159 18.7633 30.498 17.6923C30.838 16.6223 32.211 15.4713 33.55 15.1353C34.888 14.7993 35.983 14.1593 35.983 13.7123C35.983 13.2653 37.333 12.6033 38.983 12.2413C40.633 11.8793 41.983 11.1683 41.983 10.6623C41.983 10.1553 42.883 9.74128 43.983 9.74128C45.083 9.74128 45.983 9.31929 45.983 8.80229C45.983 8.28629 48.008 7.56028 50.483 7.18928C52.958 6.81828 54.983 6.13729 54.983 5.67729C54.983 5.21729 57.571 4.70628 60.733 4.54128L66.483 4.24128L66.746 37.4913L67.01 70.7413H100.496Z" fill="black"/>
<path fill-rule="evenodd" clip-rule="evenodd" d="M51.233 0.410285C49.446 0.662285 47.983 1.23229 47.983 1.67729C47.983 2.12129 46.183 2.77329 43.983 3.12529C41.783 3.47729 39.983 4.20928 39.983 4.75328C39.983 5.29628 39.308 5.74128 38.483 5.74128C37.658 5.74128 36.983 6.14228 36.983 6.63328C36.983 7.12328 35.819 7.81628 34.397 8.17328C31.967 8.78328 30.925 9.43728 27.52 12.4913C26.753 13.1793 25.756 13.7483 25.304 13.7563C24.193 13.7753 13.983 24.2803 13.983 25.4043C13.983 25.8953 13.083 27.0673 11.983 28.0093C10.883 28.9513 9.98301 30.4013 9.98301 31.2313C9.98301 32.0623 9.56901 32.7413 9.06201 32.7413C8.55601 32.7413 7.84501 34.0913 7.48301 35.7413C7.12101 37.3913 6.41001 38.7413 5.90401 38.7413C5.39701 38.7413 4.98301 39.6033 4.98301 40.6583C4.98301 41.7123 4.52501 42.7273 3.96501 42.9143C3.40501 43.1003 2.66701 45.6133 2.32501 48.4973C1.98401 51.3813 1.31701 53.7413 0.844008 53.7413C-0.285992 53.7413 -0.278992 82.4613 0.851008 83.1603C1.32901 83.4553 2.01901 85.9563 2.38601 88.7193C2.75201 91.4813 3.48601 93.7413 4.01701 93.7413C4.54801 93.7413 4.98301 94.2653 4.98301 94.9053C4.98301 96.6463 8.26201 103.741 9.06701 103.741C9.45201 103.741 10.052 104.88 10.402 106.273C11.051 108.859 26.805 125.741 28.569 125.741C29.104 125.741 30.178 126.624 30.956 127.704C31.735 128.784 33.634 129.945 35.177 130.284C36.72 130.623 37.983 131.264 37.983 131.709C37.983 132.154 39.669 132.835 41.731 133.221C43.792 133.608 45.743 134.353 46.067 134.877C46.391 135.401 49.88 136.1 53.82 136.431C57.759 136.761 60.983 137.416 60.983 137.886C60.983 138.356 65.033 138.741 69.983 138.741C74.933 138.741 78.983 138.355 78.983 137.883C78.983 137.412 81.749 136.737 85.131 136.383C88.512 136.03 91.774 135.343 92.381 134.856C92.987 134.37 94.946 133.659 96.733 133.277C98.52 132.895 99.983 132.204 99.983 131.741C99.983 131.278 101.333 130.603 102.983 130.241C104.633 129.879 105.983 129.168 105.983 128.662C105.983 128.155 106.453 127.741 107.027 127.741C107.601 127.741 109.284 126.616 110.766 125.241C112.249 123.866 113.854 122.741 114.333 122.741C115.477 122.741 123.983 114.099 123.983 112.937C123.983 112.442 125.333 110.625 126.983 108.898C128.633 107.172 129.983 104.855 129.983 103.75C129.983 102.645 130.397 101.741 130.904 101.741C131.41 101.741 132.121 100.391 132.483 98.7413C132.845 97.0913 133.541 95.7413 134.028 95.7413C134.515 95.7413 135.213 93.4913 135.577 90.7413C135.942 87.9913 136.633 85.7413 137.112 85.7413C137.591 85.7413 137.983 84.1663 137.983 82.2413C137.983 80.3163 138.433 78.7413 138.983 78.7413C139.579 78.7413 139.983 74.9083 139.983 69.2413C139.983 63.5743 139.579 59.7413 138.983 59.7413C138.433 59.7413 137.983 57.7163 137.983 55.2413C137.983 52.7663 137.575 50.7413 137.077 50.7413C136.578 50.7413 135.861 48.4913 135.483 45.7413C135.105 42.9913 134.423 40.7413 133.969 40.7413C133.514 40.7413 132.845 39.3913 132.483 37.7413C132.121 36.0913 131.459 34.7413 131.012 34.7413C130.565 34.7413 129.917 33.6163 129.572 32.2413C129.227 30.8663 128.503 29.7413 127.964 29.7413C127.424 29.7413 126.983 29.2873 126.983 28.7323C126.983 27.7433 122.746 22.5143 120.185 20.3423C118.568 18.9703 117.591 17.9623 114.515 14.4913C113.175 12.9793 111.404 11.7413 110.58 11.7413C109.757 11.7413 108.723 11.1793 108.283 10.4913C107.288 8.93628 101.314 5.74128 99.402 5.74128C98.622 5.74128 97.983 5.31128 97.983 4.78628C97.983 4.26128 96.296 3.52128 94.233 3.14228C92.171 2.76328 90.167 1.96428 89.781 1.36628C89.068 0.261284 57.802 -0.513715 51.233 0.410285ZM100.496 70.7413H133.983V73.7553C133.983 75.4123 133.556 77.5503 133.034 78.5053C132.512 79.4603 131.81 82.3793 131.473 84.9913C131.136 87.6033 130.496 89.7413 130.05 89.7413C129.604 89.7413 128.951 91.5413 128.599 93.7413C128.247 95.9413 127.617 97.7413 127.199 97.7413C126.78 97.7413 125.549 99.4293 124.463 101.491C123.377 103.554 121.924 105.836 121.235 106.562C120.547 107.289 119.983 108.271 119.983 108.745C119.983 109.219 119.106 109.885 118.034 110.225C116.962 110.565 115.798 111.748 115.447 112.853C115.097 113.959 113.732 115.354 112.415 115.954C111.099 116.554 109.765 117.853 109.451 118.842C109.137 119.83 107.912 120.946 106.728 121.322C105.545 121.697 103.961 122.62 103.208 123.373C102.456 124.125 101.197 124.741 100.412 124.741C99.626 124.741 98.983 125.191 98.983 125.741C98.983 126.291 98.308 126.741 97.483 126.741C96.658 126.741 95.983 127.14 95.983 127.627C95.983 128.115 93.845 128.834 91.233 129.225C88.621 129.617 86.162 130.455 85.769 131.089C84.794 132.661 53.209 132.704 52.196 131.135C51.804 130.527 49.796 129.719 47.733 129.34C45.671 128.961 43.983 128.221 43.983 127.696C43.983 127.171 43.308 126.741 42.483 126.741C41.658 126.741 40.983 126.311 40.983 125.786C40.983 125.261 39.439 124.542 37.552 124.188C35.665 123.834 33.879 122.914 33.584 122.143C33.288 121.372 32.602 120.741 32.059 120.741C30.707 120.741 18.983 109.245 18.983 107.92C18.983 107.334 18.148 106.266 17.126 105.548C16.105 104.829 14.95 103.228 14.559 101.991C14.168 100.754 13.464 99.7413 12.995 99.7413C12.526 99.7413 11.845 98.3913 11.483 96.7413C11.121 95.0913 10.41 93.7413 9.90401 93.7413C9.39701 93.7413 8.98301 92.6533 8.98301 91.3243C8.98301 89.9953 8.53601 88.7583 7.99101 88.5743C7.44501 88.3913 6.70401 84.7543 6.34401 80.4913C5.98401 76.2283 5.30601 72.7413 4.83601 72.7413C3.72401 72.7413 3.72301 65.0203 4.83501 64.3323C5.30401 64.0423 5.96801 60.8063 6.31001 57.1413C6.91201 50.6983 8.75501 44.7413 10.148 44.7413C10.52 44.7413 11.121 43.3913 11.483 41.7413C11.845 40.0913 12.506 38.7413 12.951 38.7413C13.396 38.7413 14.048 37.2793 14.399 35.4913C14.814 33.3773 16.241 31.3673 18.483 29.7413C20.378 28.3663 21.94 26.5543 21.955 25.7133C21.988 23.9173 24.912 21.2163 27.825 20.2913C28.956 19.9323 30.159 18.7633 30.498 17.6923C30.838 16.6223 32.211 15.4713 33.55 15.1353C34.888 14.7993 35.983 14.1593 35.983 13.7123C35.983 13.2653 37.333 12.6033 38.983 12.2413C40.633 11.8793 41.983 11.1683 41.983 10.6623C41.983 10.1553 42.883 9.74128 43.983 9.74128C45.083 9.74128 45.983 9.31929 45.983 8.80229C45.983 8.28629 48.008 7.56028 50.483 7.18928C52.958 6.81828 54.983 6.13729 54.983 5.67729C54.983 5.21729 57.571 4.70628 60.733 4.54128L66.483 4.24128L66.746 37.4913L67.01 70.7413H100.496Z" fill="black"/>
<path fill-rule="evenodd" clip-rule="evenodd" d="M51.233 0.410285C49.446 0.662285 47.983 1.23229 47.983 1.67729C47.983 2.12129 46.183 2.77329 43.983 3.12529C41.783 3.47729 39.983 4.20928 39.983 4.75328C39.983 5.29628 39.308 5.74128 38.483 5.74128C37.658 5.74128 36.983 6.14228 36.983 6.63328C36.983 7.12328 35.819 7.81628 34.397 8.17328C31.967 8.78328 30.925 9.43728 27.52 12.4913C26.753 13.1793 25.756 13.7483 25.304 13.7563C24.193 13.7753 13.983 24.2803 13.983 25.4043C13.983 25.8953 13.083 27.0673 11.983 28.0093C10.883 28.9513 9.98301 30.4013 9.98301 31.2313C9.98301 32.0623 9.56901 32.7413 9.06201 32.7413C8.55601 32.7413 7.84501 34.0913 7.48301 35.7413C7.12101 37.3913 6.41001 38.7413 5.90401 38.7413C5.39701 38.7413 4.98301 39.6033 4.98301 40.6583C4.98301 41.7123 4.52501 42.7273 3.96501 42.9143C3.40501 43.1003 2.66701 45.6133 2.32501 48.4973C1.98401 51.3813 1.31701 53.7413 0.844008 53.7413C-0.285992 53.7413 -0.278992 82.4613 0.851008 83.1603C1.32901 83.4553 2.01901 85.9563 2.38601 88.7193C2.75201 91.4813 3.48601 93.7413 4.01701 93.7413C4.54801 93.7413 4.98301 94.2653 4.98301 94.9053C4.98301 96.6463 8.26201 103.741 9.06701 103.741C9.45201 103.741 10.052 104.88 10.402 106.273C11.051 108.859 26.805 125.741 28.569 125.741C29.104 125.741 30.178 126.624 30.956 127.704C31.735 128.784 33.634 129.945 35.177 130.284C36.72 130.623 37.983 131.264 37.983 131.709C37.983 132.154 39.669 132.835 41.731 133.221C43.792 133.608 45.743 134.353 46.067 134.877C46.391 135.401 49.88 136.1 53.82 136.431C57.759 136.761 60.983 137.416 60.983 137.886C60.983 138.356 65.033 138.741 69.983 138.741C74.933 138.741 78.983 138.355 78.983 137.883C78.983 137.412 81.749 136.737 85.131 136.383C88.512 136.03 91.774 135.343 92.381 134.856C92.987 134.37 94.946 133.659 96.733 133.277C98.52 132.895 99.983 132.204 99.983 131.741C99.983 131.278 101.333 130.603 102.983 130.241C104.633 129.879 105.983 129.168 105.983 128.662C105.983 128.155 106.453 127.741 107.027 127.741C107.601 127.741 109.284 126.616 110.766 125.241C112.249 123.866 113.854 122.741 114.333 122.741C115.477 122.741 123.983 114.099 123.983 112.937C123.983 112.442 125.333 110.625 126.983 108.898C128.633 107.172 129.983 104.855 129.983 103.75C129.983 102.645 130.397 101.741 130.904 101.741C131.41 101.741 132.121 100.391 132.483 98.7413C132.845 97.0913 133.541 95.7413 134.028 95.7413C134.515 95.7413 135.213 93.4913 135.577 90.7413C135.942 87.9913 136.633 85.7413 137.112 85.7413C137.591 85.7413 137.983 84.1663 137.983 82.2413C137.983 80.3163 138.433 78.7413 138.983 78.7413C139.579 78.7413 139.983 74.9083 139.983 69.2413C139.983 63.5743 139.579 59.7413 138.983 59.7413C138.433 59.7413 137.983 57.7163 137.983 55.2413C137.983 52.7663 137.575 50.7413 137.077 50.7413C136.578 50.7413 135.861 48.4913 135.483 45.7413C135.105 42.9913 134.423 40.7413 133.969 40.7413C133.514 40.7413 132.845 39.3913 132.483 37.7413C132.121 36.0913 131.459 34.7413 131.012 34.7413C130.565 34.7413 129.917 33.6163 129.572 32.2413C129.227 30.8663 128.503 29.7413 127.964 29.7413C127.424 29.7413 126.983 29.2873 126.983 28.7323C126.983 27.7433 122.746 22.5143 120.185 20.3423C118.568 18.9703 117.591 17.9623 114.515 14.4913C113.175 12.9793 111.404 11.7413 110.58 11.7413C109.757 11.7413 108.723 11.1793 108.283 10.4913C107.288 8.93628 101.314 5.74128 99.402 5.74128C98.622 5.74128 97.983 5.31128 97.983 4.78628C97.983 4.26128 96.296 3.52128 94.233 3.14228C92.171 2.76328 90.167 1.96428 89.781 1.36628C89.068 0.261284 57.802 -0.513715 51.233 0.410285ZM100.496 70.7413H133.983V73.7553C133.983 75.4123 133.556 77.5503 133.034 78.5053C132.512 79.4603 131.81 82.3793 131.473 84.9913C131.136 87.6033 130.496 89.7413 130.05 89.7413C129.604 89.7413 128.951 91.5413 128.599 93.7413C128.247 95.9413 127.617 97.7413 127.199 97.7413C126.78 97.7413 125.549 99.4293 124.463 101.491C123.377 103.554 121.924 105.836 121.235 106.562C120.547 107.289 119.983 108.271 119.983 108.745C119.983 109.219 119.106 109.885 118.034 110.225C116.962 110.565 115.798 111.748 115.447 112.853C115.097 113.959 113.732 115.354 112.415 115.954C111.099 116.554 109.765 117.853 109.451 118.842C109.137 119.83 107.912 120.946 106.728 121.322C105.545 121.697 103.961 122.62 103.208 123.373C102.456 124.125 101.197 124.741 100.412 124.741C99.626 124.741 98.983 125.191 98.983 125.741C98.983 126.291 98.308 126.741 97.483 126.741C96.658 126.741 95.983 127.14 95.983 127.627C95.983 128.115 93.845 128.834 91.233 129.225C88.621 129.617 86.162 130.455 85.769 131.089C84.794 132.661 53.209 132.704 52.196 131.135C51.804 130.527 49.796 129.719 47.733 129.34C45.671 128.961 43.983 128.221 43.983 127.696C43.983 127.171 43.308 126.741 42.483 126.741C41.658 126.741 40.983 126.311 40.983 125.786C40.983 125.261 39.439 124.542 37.552 124.188C35.665 123.834 33.879 122.914 33.584 122.143C33.288 121.372 32.602 120.741 32.059 120.741C30.707 120.741 18.983 109.245 18.983 107.92C18.983 107.334 18.148 106.266 17.126 105.548C16.105 104.829 14.95 103.228 14.559 101.991C14.168 100.754 13.464 99.7413 12.995 99.7413C12.526 99.7413 11.845 98.3913 11.483 96.7413C11.121 95.0913 10.41 93.7413 9.90401 93.7413C9.39701 93.7413 8.98301 92.6533 8.98301 91.3243C8.98301 89.9953 8.53601 88.7583 7.99101 88.5743C7.44501 88.3913 6.70401 84.7543 6.34401 80.4913C5.98401 76.2283 5.30601 72.7413 4.83601 72.7413C3.72401 72.7413 3.72301 65.0203 4.83501 64.3323C5.30401 64.0423 5.96801 60.8063 6.31001 57.1413C6.91201 50.6983 8.75501 44.7413 10.148 44.7413C10.52 44.7413 11.121 43.3913 11.483 41.7413C11.845 40.0913 12.506 38.7413 12.951 38.7413C13.396 38.7413 14.048 37.2793 14.399 35.4913C14.814 33.3773 16.241 31.3673 18.483 29.7413C20.378 28.3663 21.94 26.5543 21.955 25.7133C21.988 23.9173 24.912 21.2163 27.825 20.2913C28.956 19.9323 30.159 18.7633 30.498 17.6923C30.838 16.6223 32.211 15.4713 33.55 15.1353C34.888 14.7993 35.983 14.1593 35.983 13.7123C35.983 13.2653 37.333 12.6033 38.983 12.2413C40.633 11.8793 41.983 11.1683 41.983 10.6623C41.983 10.1553 42.883 9.74128 43.983 9.74128C45.083 9.74128 45.983 9.31929 45.983 8.80229C45.983 8.28629 48.008 7.56028 50.483 7.18928C52.958 6.81828 54.983 6.13729 54.983 5.67729C54.983 5.21729 57.571 4.70628 60.733 4.54128L66.483 4.24128L66.746 37.4913L67.01 70.7413H100.496Z" fill="black"/>
</svg>
