<svg width="140" height="141" viewBox="0 0 140 141" fill="none" xmlns="http://www.w3.org/2000/svg">
<path fill-rule="evenodd" clip-rule="evenodd" d="M60.25 0.130263C56.263 0.316263 53 0.856264 53 1.33026C53 1.80426 50.75 2.50226 48 2.88026C45.25 3.25826 43 3.97526 43 4.47426C43 4.97226 42.325 5.38026 41.5 5.38026C40.675 5.38026 40 5.83026 40 6.38026C40 6.93026 39.132 7.38026 38.071 7.38026C37.011 7.38026 35.468 8.05526 34.643 8.88026C33.818 9.70526 32.422 10.3803 31.54 10.3803C30.658 10.3803 29.678 11.0553 29.362 11.8803C29.045 12.7053 28.365 13.3803 27.851 13.3803C25.928 13.3803 13 25.9473 13 27.8163C13 28.5593 12.325 29.4253 11.5 29.7423C10.675 30.0583 10 31.2313 10 32.3493C10 33.4663 9.586 34.3803 9.079 34.3803C8.573 34.3803 7.862 35.7303 7.5 37.3803C7.138 39.0303 6.427 40.3803 5.921 40.3803C5.414 40.3803 5 41.0553 5 41.8803C5 42.7053 4.582 43.3803 4.072 43.3803C3.562 43.3803 2.835 45.8553 2.457 48.8803C2.079 51.9053 1.371 54.3803 0.885 54.3803C0.398 54.3803 0 61.1303 0 69.3803C0 77.6303 0.398 84.3803 0.885 84.3803C1.371 84.3803 2.079 86.8553 2.457 89.8803C2.835 92.9053 3.562 95.3803 4.072 95.3803C4.582 95.3803 5 96.0553 5 96.8803C5 97.7053 5.43 98.3803 5.955 98.3803C6.48 98.3803 7.205 99.9553 7.566 101.88C7.927 103.805 8.623 105.38 9.111 105.38C9.6 105.38 10 106.069 10 106.911C10 107.754 10.675 108.702 11.5 109.018C12.325 109.335 13 110.258 13 111.069C13 112.899 25.592 125.38 27.439 125.38C28.18 125.38 29.048 126.062 29.367 126.895C29.687 127.728 31.085 128.842 32.474 129.37C33.863 129.898 35 130.752 35 131.267C35 131.783 36.8 132.508 39 132.88C41.2 133.252 43 133.966 43 134.468C43 134.97 43.862 135.38 44.917 135.38C45.971 135.38 46.985 135.836 47.171 136.392C47.356 136.949 51.219 137.691 55.754 138.041C60.289 138.39 64 139.06 64 139.528C64 139.997 66.25 140.38 69 140.38C71.75 140.38 74 139.996 74 139.528C74 139.059 77.938 138.373 82.75 138.005C87.563 137.636 91.65 136.895 91.833 136.357C92.017 135.82 93.254 135.38 94.583 135.38C95.912 135.38 97 134.966 97 134.459C97 133.953 98.35 133.242 100 132.88C101.65 132.518 103 131.856 103 131.409C103 130.962 104.125 130.314 105.5 129.969C106.875 129.624 108 128.9 108 128.361C108 127.821 108.511 127.38 109.135 127.38C109.76 127.38 111.313 126.255 112.588 124.88C113.862 123.505 115.358 122.38 115.912 122.38C117.011 122.38 122 117.325 122 116.211C122 115.832 123.585 113.842 125.522 111.788C127.459 109.734 129.308 107.002 129.63 105.717C129.953 104.432 130.582 103.38 131.029 103.38C131.476 103.38 132.138 102.03 132.5 100.38C132.862 98.7303 133.531 97.3803 133.986 97.3803C134.44 97.3803 135.122 95.1303 135.5 92.3803C135.878 89.6303 136.595 87.3803 137.094 87.3803C137.592 87.3803 138 85.6073 138 83.4393C138 81.2713 138.45 79.2203 139 78.8803C139.55 78.5403 140 74.4643 140 69.8213C140 64.8603 139.588 61.3803 139 61.3803C138.45 61.3803 138 59.1303 138 56.3803C138 53.6303 137.601 51.3803 137.114 51.3803C136.626 51.3803 135.923 49.3553 135.552 46.8803C135.181 44.4053 134.505 42.3803 134.05 42.3803C133.595 42.3803 132.927 40.8053 132.566 38.8803C132.205 36.9553 131.532 35.3803 131.071 35.3803C130.61 35.3803 129.969 34.5923 129.646 33.6303C128.616 30.5633 126.69 28.2053 118.342 19.7943C113.855 15.2723 109.243 11.2753 108.092 10.9093C106.942 10.5443 106 9.86126 106 9.39226C106 8.92326 104.65 8.24226 103 7.88026C101.35 7.51826 100 6.89626 100 6.49826C100 5.43926 90.942 2.36926 87.833 2.37526C86.367 2.37826 85.017 1.99826 84.833 1.53226C84.424 0.489263 70.082 -0.327737 60.25 0.130263ZM67 69.3803V134.38H64.559C63.216 134.38 61.877 133.989 61.581 133.512C61.286 133.034 58.335 132.337 55.022 131.962C51.71 131.587 49 130.911 49 130.458C49 130.006 47.2 129.348 45 128.996C42.8 128.644 41 127.96 41 127.477C41 126.993 39.875 126.314 38.5 125.969C37.125 125.624 36 124.9 36 124.361C36 123.821 35.325 123.38 34.5 123.38C33.675 123.38 33 122.96 33 122.447C33 121.934 32.054 121.214 30.897 120.847C28.402 120.055 19 110.693 19 108.999C19 108.352 18.1 107.173 17 106.38C15.9 105.587 15 104.349 15 103.628C15 102.907 14.325 102.058 13.5 101.742C12.675 101.425 11.997 100.427 11.994 99.5233C11.99 98.6193 11.315 96.5913 10.494 95.0163C9.672 93.4403 9 91.5653 9 90.8493C9 90.1333 8.553 89.3973 8.008 89.2133C7.462 89.0303 6.721 85.3933 6.361 81.1303C6.001 76.8683 5.323 73.3803 4.853 73.3803C4.384 73.3803 4 71.5803 4 69.3803C4 67.1803 4.384 65.3803 4.853 65.3803C5.323 65.3803 5.999 61.9183 6.357 57.6873C6.715 53.4563 7.343 49.7433 7.754 49.4373C8.868 48.6063 12 41.5313 12 39.8463C12 39.0403 12.441 38.3803 12.981 38.3803C13.52 38.3803 14.223 37.3413 14.541 36.0723C14.86 34.8033 16.218 32.9403 17.56 31.9323C18.902 30.9243 20 29.6813 20 29.1683C20 28.6563 20.562 27.6103 21.25 26.8433C21.938 26.0773 23.002 24.8713 23.616 24.1653C24.23 23.4583 25.754 22.2053 27.004 21.3803C28.253 20.5553 30.264 18.9213 31.473 17.7503C32.681 16.5783 34.644 15.3103 35.835 14.9323C37.026 14.5543 38 13.8613 38 13.3923C38 12.9233 39.35 12.2423 41 11.8803C42.65 11.5183 44 10.8073 44 10.3013C44 9.79426 45.088 9.38026 46.417 9.38026C47.746 9.38026 48.986 8.92326 49.172 8.36526C49.358 7.80726 52.545 7.06726 56.255 6.72126C59.965 6.37426 63 5.70626 63 5.23526C63 4.76526 63.9 4.38026 65 4.38026C66.979 4.38026 67 5.04726 67 69.3803ZM77 5.24026C77 5.71326 79.539 6.36226 82.642 6.68326C85.746 7.00326 88.761 7.74126 89.342 8.32226C89.924 8.90426 91.21 9.38026 92.2 9.38026C93.19 9.38026 94 9.81026 94 10.3353C94 10.8603 95.575 11.5853 97.5 11.9463C99.425 12.3073 101 13.0033 101 13.4913C101 13.9803 101.689 14.3803 102.531 14.3803C103.374 14.3803 104.322 15.0553 104.638 15.8803C104.955 16.7053 105.828 17.3803 106.579 17.3803C108.328 17.3803 121 30.2603 121 32.0383C121 32.7763 121.441 33.3803 121.981 33.3803C122.52 33.3803 123.244 34.5053 123.589 35.8803C123.934 37.2553 124.618 38.3803 125.108 38.3803C125.599 38.3803 126 39.0553 126 39.8803C126 40.7053 126.401 41.3803 126.892 41.3803C127.382 41.3803 128.093 42.6133 128.471 44.1203C128.849 45.6273 129.571 47.1153 130.074 47.4263C130.578 47.7373 131.281 50.7793 131.638 54.1863C131.994 57.5933 132.671 60.3803 133.142 60.3803C134.27 60.3803 134.259 78.1023 133.132 78.7993C132.654 79.0943 131.957 82.0453 131.582 85.3583C131.207 88.6703 130.493 91.3803 129.996 91.3803C129.498 91.3803 128.795 92.9553 128.434 94.8803C128.073 96.8053 127.377 98.3803 126.889 98.3803C126.4 98.3803 126 99.0553 126 99.8803C126 100.705 125.602 101.38 125.117 101.38C124.631 101.38 123.949 102.167 123.601 103.13C123.253 104.093 122.413 105.78 121.734 106.88C119.825 109.973 108.375 121.38 107.179 121.38C106.593 121.38 105.485 122.277 104.718 123.373C103.95 124.469 101.899 125.65 100.161 125.998C98.422 126.346 97 126.988 97 127.426C97 127.863 95.65 128.518 94 128.88C92.35 129.242 91 129.926 91 130.399C91 130.872 87.85 131.569 84 131.949C80.15 132.328 77 133.03 77 133.509C77 133.988 75.65 134.38 74 134.38H71V69.3803V4.38026H74C75.65 4.38026 77 4.76726 77 5.24026Z" fill="black"/>
<path fill-rule="evenodd" clip-rule="evenodd" d="M60.25 0.130263C56.263 0.316263 53 0.856264 53 1.33026C53 1.80426 50.75 2.50226 48 2.88026C45.25 3.25826 43 3.97526 43 4.47426C43 4.97226 42.325 5.38026 41.5 5.38026C40.675 5.38026 40 5.83026 40 6.38026C40 6.93026 39.132 7.38026 38.071 7.38026C37.011 7.38026 35.468 8.05526 34.643 8.88026C33.818 9.70526 32.422 10.3803 31.54 10.3803C30.658 10.3803 29.678 11.0553 29.362 11.8803C29.045 12.7053 28.365 13.3803 27.851 13.3803C25.928 13.3803 13 25.9473 13 27.8163C13 28.5593 12.325 29.4253 11.5 29.7423C10.675 30.0583 10 31.2313 10 32.3493C10 33.4663 9.586 34.3803 9.079 34.3803C8.573 34.3803 7.862 35.7303 7.5 37.3803C7.138 39.0303 6.427 40.3803 5.921 40.3803C5.414 40.3803 5 41.0553 5 41.8803C5 42.7053 4.582 43.3803 4.072 43.3803C3.562 43.3803 2.835 45.8553 2.457 48.8803C2.079 51.9053 1.371 54.3803 0.885 54.3803C0.398 54.3803 0 61.1303 0 69.3803C0 77.6303 0.398 84.3803 0.885 84.3803C1.371 84.3803 2.079 86.8553 2.457 89.8803C2.835 92.9053 3.562 95.3803 4.072 95.3803C4.582 95.3803 5 96.0553 5 96.8803C5 97.7053 5.43 98.3803 5.955 98.3803C6.48 98.3803 7.205 99.9553 7.566 101.88C7.927 103.805 8.623 105.38 9.111 105.38C9.6 105.38 10 106.069 10 106.911C10 107.754 10.675 108.702 11.5 109.018C12.325 109.335 13 110.258 13 111.069C13 112.899 25.592 125.38 27.439 125.38C28.18 125.38 29.048 126.062 29.367 126.895C29.687 127.728 31.085 128.842 32.474 129.37C33.863 129.898 35 130.752 35 131.267C35 131.783 36.8 132.508 39 132.88C41.2 133.252 43 133.966 43 134.468C43 134.97 43.862 135.38 44.917 135.38C45.971 135.38 46.985 135.836 47.171 136.392C47.356 136.949 51.219 137.691 55.754 138.041C60.289 138.39 64 139.06 64 139.528C64 139.997 66.25 140.38 69 140.38C71.75 140.38 74 139.996 74 139.528C74 139.059 77.938 138.373 82.75 138.005C87.563 137.636 91.65 136.895 91.833 136.357C92.017 135.82 93.254 135.38 94.583 135.38C95.912 135.38 97 134.966 97 134.459C97 133.953 98.35 133.242 100 132.88C101.65 132.518 103 131.856 103 131.409C103 130.962 104.125 130.314 105.5 129.969C106.875 129.624 108 128.9 108 128.361C108 127.821 108.511 127.38 109.135 127.38C109.76 127.38 111.313 126.255 112.588 124.88C113.862 123.505 115.358 122.38 115.912 122.38C117.011 122.38 122 117.325 122 116.211C122 115.832 123.585 113.842 125.522 111.788C127.459 109.734 129.308 107.002 129.63 105.717C129.953 104.432 130.582 103.38 131.029 103.38C131.476 103.38 132.138 102.03 132.5 100.38C132.862 98.7303 133.531 97.3803 133.986 97.3803C134.44 97.3803 135.122 95.1303 135.5 92.3803C135.878 89.6303 136.595 87.3803 137.094 87.3803C137.592 87.3803 138 85.6073 138 83.4393C138 81.2713 138.45 79.2203 139 78.8803C139.55 78.5403 140 74.4643 140 69.8213C140 64.8603 139.588 61.3803 139 61.3803C138.45 61.3803 138 59.1303 138 56.3803C138 53.6303 137.601 51.3803 137.114 51.3803C136.626 51.3803 135.923 49.3553 135.552 46.8803C135.181 44.4053 134.505 42.3803 134.05 42.3803C133.595 42.3803 132.927 40.8053 132.566 38.8803C132.205 36.9553 131.532 35.3803 131.071 35.3803C130.61 35.3803 129.969 34.5923 129.646 33.6303C128.616 30.5633 126.69 28.2053 118.342 19.7943C113.855 15.2723 109.243 11.2753 108.092 10.9093C106.942 10.5443 106 9.86126 106 9.39226C106 8.92326 104.65 8.24226 103 7.88026C101.35 7.51826 100 6.89626 100 6.49826C100 5.43926 90.942 2.36926 87.833 2.37526C86.367 2.37826 85.017 1.99826 84.833 1.53226C84.424 0.489263 70.082 -0.327737 60.25 0.130263ZM67 69.3803V134.38H64.559C63.216 134.38 61.877 133.989 61.581 133.512C61.286 133.034 58.335 132.337 55.022 131.962C51.71 131.587 49 130.911 49 130.458C49 130.006 47.2 129.348 45 128.996C42.8 128.644 41 127.96 41 127.477C41 126.993 39.875 126.314 38.5 125.969C37.125 125.624 36 124.9 36 124.361C36 123.821 35.325 123.38 34.5 123.38C33.675 123.38 33 122.96 33 122.447C33 121.934 32.054 121.214 30.897 120.847C28.402 120.055 19 110.693 19 108.999C19 108.352 18.1 107.173 17 106.38C15.9 105.587 15 104.349 15 103.628C15 102.907 14.325 102.058 13.5 101.742C12.675 101.425 11.997 100.427 11.994 99.5233C11.99 98.6193 11.315 96.5913 10.494 95.0163C9.672 93.4403 9 91.5653 9 90.8493C9 90.1333 8.553 89.3973 8.008 89.2133C7.462 89.0303 6.721 85.3933 6.361 81.1303C6.001 76.8683 5.323 73.3803 4.853 73.3803C4.384 73.3803 4 71.5803 4 69.3803C4 67.1803 4.384 65.3803 4.853 65.3803C5.323 65.3803 5.999 61.9183 6.357 57.6873C6.715 53.4563 7.343 49.7433 7.754 49.4373C8.868 48.6063 12 41.5313 12 39.8463C12 39.0403 12.441 38.3803 12.981 38.3803C13.52 38.3803 14.223 37.3413 14.541 36.0723C14.86 34.8033 16.218 32.9403 17.56 31.9323C18.902 30.9243 20 29.6813 20 29.1683C20 28.6563 20.562 27.6103 21.25 26.8433C21.938 26.0773 23.002 24.8713 23.616 24.1653C24.23 23.4583 25.754 22.2053 27.004 21.3803C28.253 20.5553 30.264 18.9213 31.473 17.7503C32.681 16.5783 34.644 15.3103 35.835 14.9323C37.026 14.5543 38 13.8613 38 13.3923C38 12.9233 39.35 12.2423 41 11.8803C42.65 11.5183 44 10.8073 44 10.3013C44 9.79426 45.088 9.38026 46.417 9.38026C47.746 9.38026 48.986 8.92326 49.172 8.36526C49.358 7.80726 52.545 7.06726 56.255 6.72126C59.965 6.37426 63 5.70626 63 5.23526C63 4.76526 63.9 4.38026 65 4.38026C66.979 4.38026 67 5.04726 67 69.3803ZM77 5.24026C77 5.71326 79.539 6.36226 82.642 6.68326C85.746 7.00326 88.761 7.74126 89.342 8.32226C89.924 8.90426 91.21 9.38026 92.2 9.38026C93.19 9.38026 94 9.81026 94 10.3353C94 10.8603 95.575 11.5853 97.5 11.9463C99.425 12.3073 101 13.0033 101 13.4913C101 13.9803 101.689 14.3803 102.531 14.3803C103.374 14.3803 104.322 15.0553 104.638 15.8803C104.955 16.7053 105.828 17.3803 106.579 17.3803C108.328 17.3803 121 30.2603 121 32.0383C121 32.7763 121.441 33.3803 121.981 33.3803C122.52 33.3803 123.244 34.5053 123.589 35.8803C123.934 37.2553 124.618 38.3803 125.108 38.3803C125.599 38.3803 126 39.0553 126 39.8803C126 40.7053 126.401 41.3803 126.892 41.3803C127.382 41.3803 128.093 42.6133 128.471 44.1203C128.849 45.6273 129.571 47.1153 130.074 47.4263C130.578 47.7373 131.281 50.7793 131.638 54.1863C131.994 57.5933 132.671 60.3803 133.142 60.3803C134.27 60.3803 134.259 78.1023 133.132 78.7993C132.654 79.0943 131.957 82.0453 131.582 85.3583C131.207 88.6703 130.493 91.3803 129.996 91.3803C129.498 91.3803 128.795 92.9553 128.434 94.8803C128.073 96.8053 127.377 98.3803 126.889 98.3803C126.4 98.3803 126 99.0553 126 99.8803C126 100.705 125.602 101.38 125.117 101.38C124.631 101.38 123.949 102.167 123.601 103.13C123.253 104.093 122.413 105.78 121.734 106.88C119.825 109.973 108.375 121.38 107.179 121.38C106.593 121.38 105.485 122.277 104.718 123.373C103.95 124.469 101.899 125.65 100.161 125.998C98.422 126.346 97 126.988 97 127.426C97 127.863 95.65 128.518 94 128.88C92.35 129.242 91 129.926 91 130.399C91 130.872 87.85 131.569 84 131.949C80.15 132.328 77 133.03 77 133.509C77 133.988 75.65 134.38 74 134.38H71V69.3803V4.38026H74C75.65 4.38026 77 4.76726 77 5.24026Z" fill="black"/>
<path fill-rule="evenodd" clip-rule="evenodd" d="M60.25 0.130263C56.263 0.316263 53 0.856264 53 1.33026C53 1.80426 50.75 2.50226 48 2.88026C45.25 3.25826 43 3.97526 43 4.47426C43 4.97226 42.325 5.38026 41.5 5.38026C40.675 5.38026 40 5.83026 40 6.38026C40 6.93026 39.132 7.38026 38.071 7.38026C37.011 7.38026 35.468 8.05526 34.643 8.88026C33.818 9.70526 32.422 10.3803 31.54 10.3803C30.658 10.3803 29.678 11.0553 29.362 11.8803C29.045 12.7053 28.365 13.3803 27.851 13.3803C25.928 13.3803 13 25.9473 13 27.8163C13 28.5593 12.325 29.4253 11.5 29.7423C10.675 30.0583 10 31.2313 10 32.3493C10 33.4663 9.586 34.3803 9.079 34.3803C8.573 34.3803 7.862 35.7303 7.5 37.3803C7.138 39.0303 6.427 40.3803 5.921 40.3803C5.414 40.3803 5 41.0553 5 41.8803C5 42.7053 4.582 43.3803 4.072 43.3803C3.562 43.3803 2.835 45.8553 2.457 48.8803C2.079 51.9053 1.371 54.3803 0.885 54.3803C0.398 54.3803 0 61.1303 0 69.3803C0 77.6303 0.398 84.3803 0.885 84.3803C1.371 84.3803 2.079 86.8553 2.457 89.8803C2.835 92.9053 3.562 95.3803 4.072 95.3803C4.582 95.3803 5 96.0553 5 96.8803C5 97.7053 5.43 98.3803 5.955 98.3803C6.48 98.3803 7.205 99.9553 7.566 101.88C7.927 103.805 8.623 105.38 9.111 105.38C9.6 105.38 10 106.069 10 106.911C10 107.754 10.675 108.702 11.5 109.018C12.325 109.335 13 110.258 13 111.069C13 112.899 25.592 125.38 27.439 125.38C28.18 125.38 29.048 126.062 29.367 126.895C29.687 127.728 31.085 128.842 32.474 129.37C33.863 129.898 35 130.752 35 131.267C35 131.783 36.8 132.508 39 132.88C41.2 133.252 43 133.966 43 134.468C43 134.97 43.862 135.38 44.917 135.38C45.971 135.38 46.985 135.836 47.171 136.392C47.356 136.949 51.219 137.691 55.754 138.041C60.289 138.39 64 139.06 64 139.528C64 139.997 66.25 140.38 69 140.38C71.75 140.38 74 139.996 74 139.528C74 139.059 77.938 138.373 82.75 138.005C87.563 137.636 91.65 136.895 91.833 136.357C92.017 135.82 93.254 135.38 94.583 135.38C95.912 135.38 97 134.966 97 134.459C97 133.953 98.35 133.242 100 132.88C101.65 132.518 103 131.856 103 131.409C103 130.962 104.125 130.314 105.5 129.969C106.875 129.624 108 128.9 108 128.361C108 127.821 108.511 127.38 109.135 127.38C109.76 127.38 111.313 126.255 112.588 124.88C113.862 123.505 115.358 122.38 115.912 122.38C117.011 122.38 122 117.325 122 116.211C122 115.832 123.585 113.842 125.522 111.788C127.459 109.734 129.308 107.002 129.63 105.717C129.953 104.432 130.582 103.38 131.029 103.38C131.476 103.38 132.138 102.03 132.5 100.38C132.862 98.7303 133.531 97.3803 133.986 97.3803C134.44 97.3803 135.122 95.1303 135.5 92.3803C135.878 89.6303 136.595 87.3803 137.094 87.3803C137.592 87.3803 138 85.6073 138 83.4393C138 81.2713 138.45 79.2203 139 78.8803C139.55 78.5403 140 74.4643 140 69.8213C140 64.8603 139.588 61.3803 139 61.3803C138.45 61.3803 138 59.1303 138 56.3803C138 53.6303 137.601 51.3803 137.114 51.3803C136.626 51.3803 135.923 49.3553 135.552 46.8803C135.181 44.4053 134.505 42.3803 134.05 42.3803C133.595 42.3803 132.927 40.8053 132.566 38.8803C132.205 36.9553 131.532 35.3803 131.071 35.3803C130.61 35.3803 129.969 34.5923 129.646 33.6303C128.616 30.5633 126.69 28.2053 118.342 19.7943C113.855 15.2723 109.243 11.2753 108.092 10.9093C106.942 10.5443 106 9.86126 106 9.39226C106 8.92326 104.65 8.24226 103 7.88026C101.35 7.51826 100 6.89626 100 6.49826C100 5.43926 90.942 2.36926 87.833 2.37526C86.367 2.37826 85.017 1.99826 84.833 1.53226C84.424 0.489263 70.082 -0.327737 60.25 0.130263ZM67 69.3803V134.38H64.559C63.216 134.38 61.877 133.989 61.581 133.512C61.286 133.034 58.335 132.337 55.022 131.962C51.71 131.587 49 130.911 49 130.458C49 130.006 47.2 129.348 45 128.996C42.8 128.644 41 127.96 41 127.477C41 126.993 39.875 126.314 38.5 125.969C37.125 125.624 36 124.9 36 124.361C36 123.821 35.325 123.38 34.5 123.38C33.675 123.38 33 122.96 33 122.447C33 121.934 32.054 121.214 30.897 120.847C28.402 120.055 19 110.693 19 108.999C19 108.352 18.1 107.173 17 106.38C15.9 105.587 15 104.349 15 103.628C15 102.907 14.325 102.058 13.5 101.742C12.675 101.425 11.997 100.427 11.994 99.5233C11.99 98.6193 11.315 96.5913 10.494 95.0163C9.672 93.4403 9 91.5653 9 90.8493C9 90.1333 8.553 89.3973 8.008 89.2133C7.462 89.0303 6.721 85.3933 6.361 81.1303C6.001 76.8683 5.323 73.3803 4.853 73.3803C4.384 73.3803 4 71.5803 4 69.3803C4 67.1803 4.384 65.3803 4.853 65.3803C5.323 65.3803 5.999 61.9183 6.357 57.6873C6.715 53.4563 7.343 49.7433 7.754 49.4373C8.868 48.6063 12 41.5313 12 39.8463C12 39.0403 12.441 38.3803 12.981 38.3803C13.52 38.3803 14.223 37.3413 14.541 36.0723C14.86 34.8033 16.218 32.9403 17.56 31.9323C18.902 30.9243 20 29.6813 20 29.1683C20 28.6563 20.562 27.6103 21.25 26.8433C21.938 26.0773 23.002 24.8713 23.616 24.1653C24.23 23.4583 25.754 22.2053 27.004 21.3803C28.253 20.5553 30.264 18.9213 31.473 17.7503C32.681 16.5783 34.644 15.3103 35.835 14.9323C37.026 14.5543 38 13.8613 38 13.3923C38 12.9233 39.35 12.2423 41 11.8803C42.65 11.5183 44 10.8073 44 10.3013C44 9.79426 45.088 9.38026 46.417 9.38026C47.746 9.38026 48.986 8.92326 49.172 8.36526C49.358 7.80726 52.545 7.06726 56.255 6.72126C59.965 6.37426 63 5.70626 63 5.23526C63 4.76526 63.9 4.38026 65 4.38026C66.979 4.38026 67 5.04726 67 69.3803ZM77 5.24026C77 5.71326 79.539 6.36226 82.642 6.68326C85.746 7.00326 88.761 7.74126 89.342 8.32226C89.924 8.90426 91.21 9.38026 92.2 9.38026C93.19 9.38026 94 9.81026 94 10.3353C94 10.8603 95.575 11.5853 97.5 11.9463C99.425 12.3073 101 13.0033 101 13.4913C101 13.9803 101.689 14.3803 102.531 14.3803C103.374 14.3803 104.322 15.0553 104.638 15.8803C104.955 16.7053 105.828 17.3803 106.579 17.3803C108.328 17.3803 121 30.2603 121 32.0383C121 32.7763 121.441 33.3803 121.981 33.3803C122.52 33.3803 123.244 34.5053 123.589 35.8803C123.934 37.2553 124.618 38.3803 125.108 38.3803C125.599 38.3803 126 39.0553 126 39.8803C126 40.7053 126.401 41.3803 126.892 41.3803C127.382 41.3803 128.093 42.6133 128.471 44.1203C128.849 45.6273 129.571 47.1153 130.074 47.4263C130.578 47.7373 131.281 50.7793 131.638 54.1863C131.994 57.5933 132.671 60.3803 133.142 60.3803C134.27 60.3803 134.259 78.1023 133.132 78.7993C132.654 79.0943 131.957 82.0453 131.582 85.3583C131.207 88.6703 130.493 91.3803 129.996 91.3803C129.498 91.3803 128.795 92.9553 128.434 94.8803C128.073 96.8053 127.377 98.3803 126.889 98.3803C126.4 98.3803 126 99.0553 126 99.8803C126 100.705 125.602 101.38 125.117 101.38C124.631 101.38 123.949 102.167 123.601 103.13C123.253 104.093 122.413 105.78 121.734 106.88C119.825 109.973 108.375 121.38 107.179 121.38C106.593 121.38 105.485 122.277 104.718 123.373C103.95 124.469 101.899 125.65 100.161 125.998C98.422 126.346 97 126.988 97 127.426C97 127.863 95.65 128.518 94 128.88C92.35 129.242 91 129.926 91 130.399C91 130.872 87.85 131.569 84 131.949C80.15 132.328 77 133.03 77 133.509C77 133.988 75.65 134.38 74 134.38H71V69.3803V4.38026H74C75.65 4.38026 77 4.76726 77 5.24026Z" fill="black"/>
<path fill-rule="evenodd" clip-rule="evenodd" d="M60.25 0.130263C56.263 0.316263 53 0.856264 53 1.33026C53 1.80426 50.75 2.50226 48 2.88026C45.25 3.25826 43 3.97526 43 4.47426C43 4.97226 42.325 5.38026 41.5 5.38026C40.675 5.38026 40 5.83026 40 6.38026C40 6.93026 39.132 7.38026 38.071 7.38026C37.011 7.38026 35.468 8.05526 34.643 8.88026C33.818 9.70526 32.422 10.3803 31.54 10.3803C30.658 10.3803 29.678 11.0553 29.362 11.8803C29.045 12.7053 28.365 13.3803 27.851 13.3803C25.928 13.3803 13 25.9473 13 27.8163C13 28.5593 12.325 29.4253 11.5 29.7423C10.675 30.0583 10 31.2313 10 32.3493C10 33.4663 9.586 34.3803 9.079 34.3803C8.573 34.3803 7.862 35.7303 7.5 37.3803C7.138 39.0303 6.427 40.3803 5.921 40.3803C5.414 40.3803 5 41.0553 5 41.8803C5 42.7053 4.582 43.3803 4.072 43.3803C3.562 43.3803 2.835 45.8553 2.457 48.8803C2.079 51.9053 1.371 54.3803 0.885 54.3803C0.398 54.3803 0 61.1303 0 69.3803C0 77.6303 0.398 84.3803 0.885 84.3803C1.371 84.3803 2.079 86.8553 2.457 89.8803C2.835 92.9053 3.562 95.3803 4.072 95.3803C4.582 95.3803 5 96.0553 5 96.8803C5 97.7053 5.43 98.3803 5.955 98.3803C6.48 98.3803 7.205 99.9553 7.566 101.88C7.927 103.805 8.623 105.38 9.111 105.38C9.6 105.38 10 106.069 10 106.911C10 107.754 10.675 108.702 11.5 109.018C12.325 109.335 13 110.258 13 111.069C13 112.899 25.592 125.38 27.439 125.38C28.18 125.38 29.048 126.062 29.367 126.895C29.687 127.728 31.085 128.842 32.474 129.37C33.863 129.898 35 130.752 35 131.267C35 131.783 36.8 132.508 39 132.88C41.2 133.252 43 133.966 43 134.468C43 134.97 43.862 135.38 44.917 135.38C45.971 135.38 46.985 135.836 47.171 136.392C47.356 136.949 51.219 137.691 55.754 138.041C60.289 138.39 64 139.06 64 139.528C64 139.997 66.25 140.38 69 140.38C71.75 140.38 74 139.996 74 139.528C74 139.059 77.938 138.373 82.75 138.005C87.563 137.636 91.65 136.895 91.833 136.357C92.017 135.82 93.254 135.38 94.583 135.38C95.912 135.38 97 134.966 97 134.459C97 133.953 98.35 133.242 100 132.88C101.65 132.518 103 131.856 103 131.409C103 130.962 104.125 130.314 105.5 129.969C106.875 129.624 108 128.9 108 128.361C108 127.821 108.511 127.38 109.135 127.38C109.76 127.38 111.313 126.255 112.588 124.88C113.862 123.505 115.358 122.38 115.912 122.38C117.011 122.38 122 117.325 122 116.211C122 115.832 123.585 113.842 125.522 111.788C127.459 109.734 129.308 107.002 129.63 105.717C129.953 104.432 130.582 103.38 131.029 103.38C131.476 103.38 132.138 102.03 132.5 100.38C132.862 98.7303 133.531 97.3803 133.986 97.3803C134.44 97.3803 135.122 95.1303 135.5 92.3803C135.878 89.6303 136.595 87.3803 137.094 87.3803C137.592 87.3803 138 85.6073 138 83.4393C138 81.2713 138.45 79.2203 139 78.8803C139.55 78.5403 140 74.4643 140 69.8213C140 64.8603 139.588 61.3803 139 61.3803C138.45 61.3803 138 59.1303 138 56.3803C138 53.6303 137.601 51.3803 137.114 51.3803C136.626 51.3803 135.923 49.3553 135.552 46.8803C135.181 44.4053 134.505 42.3803 134.05 42.3803C133.595 42.3803 132.927 40.8053 132.566 38.8803C132.205 36.9553 131.532 35.3803 131.071 35.3803C130.61 35.3803 129.969 34.5923 129.646 33.6303C128.616 30.5633 126.69 28.2053 118.342 19.7943C113.855 15.2723 109.243 11.2753 108.092 10.9093C106.942 10.5443 106 9.86126 106 9.39226C106 8.92326 104.65 8.24226 103 7.88026C101.35 7.51826 100 6.89626 100 6.49826C100 5.43926 90.942 2.36926 87.833 2.37526C86.367 2.37826 85.017 1.99826 84.833 1.53226C84.424 0.489263 70.082 -0.327737 60.25 0.130263ZM67 69.3803V134.38H64.559C63.216 134.38 61.877 133.989 61.581 133.512C61.286 133.034 58.335 132.337 55.022 131.962C51.71 131.587 49 130.911 49 130.458C49 130.006 47.2 129.348 45 128.996C42.8 128.644 41 127.96 41 127.477C41 126.993 39.875 126.314 38.5 125.969C37.125 125.624 36 124.9 36 124.361C36 123.821 35.325 123.38 34.5 123.38C33.675 123.38 33 122.96 33 122.447C33 121.934 32.054 121.214 30.897 120.847C28.402 120.055 19 110.693 19 108.999C19 108.352 18.1 107.173 17 106.38C15.9 105.587 15 104.349 15 103.628C15 102.907 14.325 102.058 13.5 101.742C12.675 101.425 11.997 100.427 11.994 99.5233C11.99 98.6193 11.315 96.5913 10.494 95.0163C9.672 93.4403 9 91.5653 9 90.8493C9 90.1333 8.553 89.3973 8.008 89.2133C7.462 89.0303 6.721 85.3933 6.361 81.1303C6.001 76.8683 5.323 73.3803 4.853 73.3803C4.384 73.3803 4 71.5803 4 69.3803C4 67.1803 4.384 65.3803 4.853 65.3803C5.323 65.3803 5.999 61.9183 6.357 57.6873C6.715 53.4563 7.343 49.7433 7.754 49.4373C8.868 48.6063 12 41.5313 12 39.8463C12 39.0403 12.441 38.3803 12.981 38.3803C13.52 38.3803 14.223 37.3413 14.541 36.0723C14.86 34.8033 16.218 32.9403 17.56 31.9323C18.902 30.9243 20 29.6813 20 29.1683C20 28.6563 20.562 27.6103 21.25 26.8433C21.938 26.0773 23.002 24.8713 23.616 24.1653C24.23 23.4583 25.754 22.2053 27.004 21.3803C28.253 20.5553 30.264 18.9213 31.473 17.7503C32.681 16.5783 34.644 15.3103 35.835 14.9323C37.026 14.5543 38 13.8613 38 13.3923C38 12.9233 39.35 12.2423 41 11.8803C42.65 11.5183 44 10.8073 44 10.3013C44 9.79426 45.088 9.38026 46.417 9.38026C47.746 9.38026 48.986 8.92326 49.172 8.36526C49.358 7.80726 52.545 7.06726 56.255 6.72126C59.965 6.37426 63 5.70626 63 5.23526C63 4.76526 63.9 4.38026 65 4.38026C66.979 4.38026 67 5.04726 67 69.3803ZM77 5.24026C77 5.71326 79.539 6.36226 82.642 6.68326C85.746 7.00326 88.761 7.74126 89.342 8.32226C89.924 8.90426 91.21 9.38026 92.2 9.38026C93.19 9.38026 94 9.81026 94 10.3353C94 10.8603 95.575 11.5853 97.5 11.9463C99.425 12.3073 101 13.0033 101 13.4913C101 13.9803 101.689 14.3803 102.531 14.3803C103.374 14.3803 104.322 15.0553 104.638 15.8803C104.955 16.7053 105.828 17.3803 106.579 17.3803C108.328 17.3803 121 30.2603 121 32.0383C121 32.7763 121.441 33.3803 121.981 33.3803C122.52 33.3803 123.244 34.5053 123.589 35.8803C123.934 37.2553 124.618 38.3803 125.108 38.3803C125.599 38.3803 126 39.0553 126 39.8803C126 40.7053 126.401 41.3803 126.892 41.3803C127.382 41.3803 128.093 42.6133 128.471 44.1203C128.849 45.6273 129.571 47.1153 130.074 47.4263C130.578 47.7373 131.281 50.7793 131.638 54.1863C131.994 57.5933 132.671 60.3803 133.142 60.3803C134.27 60.3803 134.259 78.1023 133.132 78.7993C132.654 79.0943 131.957 82.0453 131.582 85.3583C131.207 88.6703 130.493 91.3803 129.996 91.3803C129.498 91.3803 128.795 92.9553 128.434 94.8803C128.073 96.8053 127.377 98.3803 126.889 98.3803C126.4 98.3803 126 99.0553 126 99.8803C126 100.705 125.602 101.38 125.117 101.38C124.631 101.38 123.949 102.167 123.601 103.13C123.253 104.093 122.413 105.78 121.734 106.88C119.825 109.973 108.375 121.38 107.179 121.38C106.593 121.38 105.485 122.277 104.718 123.373C103.95 124.469 101.899 125.65 100.161 125.998C98.422 126.346 97 126.988 97 127.426C97 127.863 95.65 128.518 94 128.88C92.35 129.242 91 129.926 91 130.399C91 130.872 87.85 131.569 84 131.949C80.15 132.328 77 133.03 77 133.509C77 133.988 75.65 134.38 74 134.38H71V69.3803V4.38026H74C75.65 4.38026 77 4.76726 77 5.24026Z" fill="black"/>
<path fill-rule="evenodd" clip-rule="evenodd" d="M60.25 0.130263C56.263 0.316263 53 0.856264 53 1.33026C53 1.80426 50.75 2.50226 48 2.88026C45.25 3.25826 43 3.97526 43 4.47426C43 4.97226 42.325 5.38026 41.5 5.38026C40.675 5.38026 40 5.83026 40 6.38026C40 6.93026 39.132 7.38026 38.071 7.38026C37.011 7.38026 35.468 8.05526 34.643 8.88026C33.818 9.70526 32.422 10.3803 31.54 10.3803C30.658 10.3803 29.678 11.0553 29.362 11.8803C29.045 12.7053 28.365 13.3803 27.851 13.3803C25.928 13.3803 13 25.9473 13 27.8163C13 28.5593 12.325 29.4253 11.5 29.7423C10.675 30.0583 10 31.2313 10 32.3493C10 33.4663 9.586 34.3803 9.079 34.3803C8.573 34.3803 7.862 35.7303 7.5 37.3803C7.138 39.0303 6.427 40.3803 5.921 40.3803C5.414 40.3803 5 41.0553 5 41.8803C5 42.7053 4.582 43.3803 4.072 43.3803C3.562 43.3803 2.835 45.8553 2.457 48.8803C2.079 51.9053 1.371 54.3803 0.885 54.3803C0.398 54.3803 0 61.1303 0 69.3803C0 77.6303 0.398 84.3803 0.885 84.3803C1.371 84.3803 2.079 86.8553 2.457 89.8803C2.835 92.9053 3.562 95.3803 4.072 95.3803C4.582 95.3803 5 96.0553 5 96.8803C5 97.7053 5.43 98.3803 5.955 98.3803C6.48 98.3803 7.205 99.9553 7.566 101.88C7.927 103.805 8.623 105.38 9.111 105.38C9.6 105.38 10 106.069 10 106.911C10 107.754 10.675 108.702 11.5 109.018C12.325 109.335 13 110.258 13 111.069C13 112.899 25.592 125.38 27.439 125.38C28.18 125.38 29.048 126.062 29.367 126.895C29.687 127.728 31.085 128.842 32.474 129.37C33.863 129.898 35 130.752 35 131.267C35 131.783 36.8 132.508 39 132.88C41.2 133.252 43 133.966 43 134.468C43 134.97 43.862 135.38 44.917 135.38C45.971 135.38 46.985 135.836 47.171 136.392C47.356 136.949 51.219 137.691 55.754 138.041C60.289 138.39 64 139.06 64 139.528C64 139.997 66.25 140.38 69 140.38C71.75 140.38 74 139.996 74 139.528C74 139.059 77.938 138.373 82.75 138.005C87.563 137.636 91.65 136.895 91.833 136.357C92.017 135.82 93.254 135.38 94.583 135.38C95.912 135.38 97 134.966 97 134.459C97 133.953 98.35 133.242 100 132.88C101.65 132.518 103 131.856 103 131.409C103 130.962 104.125 130.314 105.5 129.969C106.875 129.624 108 128.9 108 128.361C108 127.821 108.511 127.38 109.135 127.38C109.76 127.38 111.313 126.255 112.588 124.88C113.862 123.505 115.358 122.38 115.912 122.38C117.011 122.38 122 117.325 122 116.211C122 115.832 123.585 113.842 125.522 111.788C127.459 109.734 129.308 107.002 129.63 105.717C129.953 104.432 130.582 103.38 131.029 103.38C131.476 103.38 132.138 102.03 132.5 100.38C132.862 98.7303 133.531 97.3803 133.986 97.3803C134.44 97.3803 135.122 95.1303 135.5 92.3803C135.878 89.6303 136.595 87.3803 137.094 87.3803C137.592 87.3803 138 85.6073 138 83.4393C138 81.2713 138.45 79.2203 139 78.8803C139.55 78.5403 140 74.4643 140 69.8213C140 64.8603 139.588 61.3803 139 61.3803C138.45 61.3803 138 59.1303 138 56.3803C138 53.6303 137.601 51.3803 137.114 51.3803C136.626 51.3803 135.923 49.3553 135.552 46.8803C135.181 44.4053 134.505 42.3803 134.05 42.3803C133.595 42.3803 132.927 40.8053 132.566 38.8803C132.205 36.9553 131.532 35.3803 131.071 35.3803C130.61 35.3803 129.969 34.5923 129.646 33.6303C128.616 30.5633 126.69 28.2053 118.342 19.7943C113.855 15.2723 109.243 11.2753 108.092 10.9093C106.942 10.5443 106 9.86126 106 9.39226C106 8.92326 104.65 8.24226 103 7.88026C101.35 7.51826 100 6.89626 100 6.49826C100 5.43926 90.942 2.36926 87.833 2.37526C86.367 2.37826 85.017 1.99826 84.833 1.53226C84.424 0.489263 70.082 -0.327737 60.25 0.130263ZM67 69.3803V134.38H64.559C63.216 134.38 61.877 133.989 61.581 133.512C61.286 133.034 58.335 132.337 55.022 131.962C51.71 131.587 49 130.911 49 130.458C49 130.006 47.2 129.348 45 128.996C42.8 128.644 41 127.96 41 127.477C41 126.993 39.875 126.314 38.5 125.969C37.125 125.624 36 124.9 36 124.361C36 123.821 35.325 123.38 34.5 123.38C33.675 123.38 33 122.96 33 122.447C33 121.934 32.054 121.214 30.897 120.847C28.402 120.055 19 110.693 19 108.999C19 108.352 18.1 107.173 17 106.38C15.9 105.587 15 104.349 15 103.628C15 102.907 14.325 102.058 13.5 101.742C12.675 101.425 11.997 100.427 11.994 99.5233C11.99 98.6193 11.315 96.5913 10.494 95.0163C9.672 93.4403 9 91.5653 9 90.8493C9 90.1333 8.553 89.3973 8.008 89.2133C7.462 89.0303 6.721 85.3933 6.361 81.1303C6.001 76.8683 5.323 73.3803 4.853 73.3803C4.384 73.3803 4 71.5803 4 69.3803C4 67.1803 4.384 65.3803 4.853 65.3803C5.323 65.3803 5.999 61.9183 6.357 57.6873C6.715 53.4563 7.343 49.7433 7.754 49.4373C8.868 48.6063 12 41.5313 12 39.8463C12 39.0403 12.441 38.3803 12.981 38.3803C13.52 38.3803 14.223 37.3413 14.541 36.0723C14.86 34.8033 16.218 32.9403 17.56 31.9323C18.902 30.9243 20 29.6813 20 29.1683C20 28.6563 20.562 27.6103 21.25 26.8433C21.938 26.0773 23.002 24.8713 23.616 24.1653C24.23 23.4583 25.754 22.2053 27.004 21.3803C28.253 20.5553 30.264 18.9213 31.473 17.7503C32.681 16.5783 34.644 15.3103 35.835 14.9323C37.026 14.5543 38 13.8613 38 13.3923C38 12.9233 39.35 12.2423 41 11.8803C42.65 11.5183 44 10.8073 44 10.3013C44 9.79426 45.088 9.38026 46.417 9.38026C47.746 9.38026 48.986 8.92326 49.172 8.36526C49.358 7.80726 52.545 7.06726 56.255 6.72126C59.965 6.37426 63 5.70626 63 5.23526C63 4.76526 63.9 4.38026 65 4.38026C66.979 4.38026 67 5.04726 67 69.3803ZM77 5.24026C77 5.71326 79.539 6.36226 82.642 6.68326C85.746 7.00326 88.761 7.74126 89.342 8.32226C89.924 8.90426 91.21 9.38026 92.2 9.38026C93.19 9.38026 94 9.81026 94 10.3353C94 10.8603 95.575 11.5853 97.5 11.9463C99.425 12.3073 101 13.0033 101 13.4913C101 13.9803 101.689 14.3803 102.531 14.3803C103.374 14.3803 104.322 15.0553 104.638 15.8803C104.955 16.7053 105.828 17.3803 106.579 17.3803C108.328 17.3803 121 30.2603 121 32.0383C121 32.7763 121.441 33.3803 121.981 33.3803C122.52 33.3803 123.244 34.5053 123.589 35.8803C123.934 37.2553 124.618 38.3803 125.108 38.3803C125.599 38.3803 126 39.0553 126 39.8803C126 40.7053 126.401 41.3803 126.892 41.3803C127.382 41.3803 128.093 42.6133 128.471 44.1203C128.849 45.6273 129.571 47.1153 130.074 47.4263C130.578 47.7373 131.281 50.7793 131.638 54.1863C131.994 57.5933 132.671 60.3803 133.142 60.3803C134.27 60.3803 134.259 78.1023 133.132 78.7993C132.654 79.0943 131.957 82.0453 131.582 85.3583C131.207 88.6703 130.493 91.3803 129.996 91.3803C129.498 91.3803 128.795 92.9553 128.434 94.8803C128.073 96.8053 127.377 98.3803 126.889 98.3803C126.4 98.3803 126 99.0553 126 99.8803C126 100.705 125.602 101.38 125.117 101.38C124.631 101.38 123.949 102.167 123.601 103.13C123.253 104.093 122.413 105.78 121.734 106.88C119.825 109.973 108.375 121.38 107.179 121.38C106.593 121.38 105.485 122.277 104.718 123.373C103.95 124.469 101.899 125.65 100.161 125.998C98.422 126.346 97 126.988 97 127.426C97 127.863 95.65 128.518 94 128.88C92.35 129.242 91 129.926 91 130.399C91 130.872 87.85 131.569 84 131.949C80.15 132.328 77 133.03 77 133.509C77 133.988 75.65 134.38 74 134.38H71V69.3803V4.38026H74C75.65 4.38026 77 4.76726 77 5.24026Z" fill="black"/>
<path fill-rule="evenodd" clip-rule="evenodd" d="M60.25 0.130263C56.263 0.316263 53 0.856264 53 1.33026C53 1.80426 50.75 2.50226 48 2.88026C45.25 3.25826 43 3.97526 43 4.47426C43 4.97226 42.325 5.38026 41.5 5.38026C40.675 5.38026 40 5.83026 40 6.38026C40 6.93026 39.132 7.38026 38.071 7.38026C37.011 7.38026 35.468 8.05526 34.643 8.88026C33.818 9.70526 32.422 10.3803 31.54 10.3803C30.658 10.3803 29.678 11.0553 29.362 11.8803C29.045 12.7053 28.365 13.3803 27.851 13.3803C25.928 13.3803 13 25.9473 13 27.8163C13 28.5593 12.325 29.4253 11.5 29.7423C10.675 30.0583 10 31.2313 10 32.3493C10 33.4663 9.586 34.3803 9.079 34.3803C8.573 34.3803 7.862 35.7303 7.5 37.3803C7.138 39.0303 6.427 40.3803 5.921 40.3803C5.414 40.3803 5 41.0553 5 41.8803C5 42.7053 4.582 43.3803 4.072 43.3803C3.562 43.3803 2.835 45.8553 2.457 48.8803C2.079 51.9053 1.371 54.3803 0.885 54.3803C0.398 54.3803 0 61.1303 0 69.3803C0 77.6303 0.398 84.3803 0.885 84.3803C1.371 84.3803 2.079 86.8553 2.457 89.8803C2.835 92.9053 3.562 95.3803 4.072 95.3803C4.582 95.3803 5 96.0553 5 96.8803C5 97.7053 5.43 98.3803 5.955 98.3803C6.48 98.3803 7.205 99.9553 7.566 101.88C7.927 103.805 8.623 105.38 9.111 105.38C9.6 105.38 10 106.069 10 106.911C10 107.754 10.675 108.702 11.5 109.018C12.325 109.335 13 110.258 13 111.069C13 112.899 25.592 125.38 27.439 125.38C28.18 125.38 29.048 126.062 29.367 126.895C29.687 127.728 31.085 128.842 32.474 129.37C33.863 129.898 35 130.752 35 131.267C35 131.783 36.8 132.508 39 132.88C41.2 133.252 43 133.966 43 134.468C43 134.97 43.862 135.38 44.917 135.38C45.971 135.38 46.985 135.836 47.171 136.392C47.356 136.949 51.219 137.691 55.754 138.041C60.289 138.39 64 139.06 64 139.528C64 139.997 66.25 140.38 69 140.38C71.75 140.38 74 139.996 74 139.528C74 139.059 77.938 138.373 82.75 138.005C87.563 137.636 91.65 136.895 91.833 136.357C92.017 135.82 93.254 135.38 94.583 135.38C95.912 135.38 97 134.966 97 134.459C97 133.953 98.35 133.242 100 132.88C101.65 132.518 103 131.856 103 131.409C103 130.962 104.125 130.314 105.5 129.969C106.875 129.624 108 128.9 108 128.361C108 127.821 108.511 127.38 109.135 127.38C109.76 127.38 111.313 126.255 112.588 124.88C113.862 123.505 115.358 122.38 115.912 122.38C117.011 122.38 122 117.325 122 116.211C122 115.832 123.585 113.842 125.522 111.788C127.459 109.734 129.308 107.002 129.63 105.717C129.953 104.432 130.582 103.38 131.029 103.38C131.476 103.38 132.138 102.03 132.5 100.38C132.862 98.7303 133.531 97.3803 133.986 97.3803C134.44 97.3803 135.122 95.1303 135.5 92.3803C135.878 89.6303 136.595 87.3803 137.094 87.3803C137.592 87.3803 138 85.6073 138 83.4393C138 81.2713 138.45 79.2203 139 78.8803C139.55 78.5403 140 74.4643 140 69.8213C140 64.8603 139.588 61.3803 139 61.3803C138.45 61.3803 138 59.1303 138 56.3803C138 53.6303 137.601 51.3803 137.114 51.3803C136.626 51.3803 135.923 49.3553 135.552 46.8803C135.181 44.4053 134.505 42.3803 134.05 42.3803C133.595 42.3803 132.927 40.8053 132.566 38.8803C132.205 36.9553 131.532 35.3803 131.071 35.3803C130.61 35.3803 129.969 34.5923 129.646 33.6303C128.616 30.5633 126.69 28.2053 118.342 19.7943C113.855 15.2723 109.243 11.2753 108.092 10.9093C106.942 10.5443 106 9.86126 106 9.39226C106 8.92326 104.65 8.24226 103 7.88026C101.35 7.51826 100 6.89626 100 6.49826C100 5.43926 90.942 2.36926 87.833 2.37526C86.367 2.37826 85.017 1.99826 84.833 1.53226C84.424 0.489263 70.082 -0.327737 60.25 0.130263ZM67 69.3803V134.38H64.559C63.216 134.38 61.877 133.989 61.581 133.512C61.286 133.034 58.335 132.337 55.022 131.962C51.71 131.587 49 130.911 49 130.458C49 130.006 47.2 129.348 45 128.996C42.8 128.644 41 127.96 41 127.477C41 126.993 39.875 126.314 38.5 125.969C37.125 125.624 36 124.9 36 124.361C36 123.821 35.325 123.38 34.5 123.38C33.675 123.38 33 122.96 33 122.447C33 121.934 32.054 121.214 30.897 120.847C28.402 120.055 19 110.693 19 108.999C19 108.352 18.1 107.173 17 106.38C15.9 105.587 15 104.349 15 103.628C15 102.907 14.325 102.058 13.5 101.742C12.675 101.425 11.997 100.427 11.994 99.5233C11.99 98.6193 11.315 96.5913 10.494 95.0163C9.672 93.4403 9 91.5653 9 90.8493C9 90.1333 8.553 89.3973 8.008 89.2133C7.462 89.0303 6.721 85.3933 6.361 81.1303C6.001 76.8683 5.323 73.3803 4.853 73.3803C4.384 73.3803 4 71.5803 4 69.3803C4 67.1803 4.384 65.3803 4.853 65.3803C5.323 65.3803 5.999 61.9183 6.357 57.6873C6.715 53.4563 7.343 49.7433 7.754 49.4373C8.868 48.6063 12 41.5313 12 39.8463C12 39.0403 12.441 38.3803 12.981 38.3803C13.52 38.3803 14.223 37.3413 14.541 36.0723C14.86 34.8033 16.218 32.9403 17.56 31.9323C18.902 30.9243 20 29.6813 20 29.1683C20 28.6563 20.562 27.6103 21.25 26.8433C21.938 26.0773 23.002 24.8713 23.616 24.1653C24.23 23.4583 25.754 22.2053 27.004 21.3803C28.253 20.5553 30.264 18.9213 31.473 17.7503C32.681 16.5783 34.644 15.3103 35.835 14.9323C37.026 14.5543 38 13.8613 38 13.3923C38 12.9233 39.35 12.2423 41 11.8803C42.65 11.5183 44 10.8073 44 10.3013C44 9.79426 45.088 9.38026 46.417 9.38026C47.746 9.38026 48.986 8.92326 49.172 8.36526C49.358 7.80726 52.545 7.06726 56.255 6.72126C59.965 6.37426 63 5.70626 63 5.23526C63 4.76526 63.9 4.38026 65 4.38026C66.979 4.38026 67 5.04726 67 69.3803ZM77 5.24026C77 5.71326 79.539 6.36226 82.642 6.68326C85.746 7.00326 88.761 7.74126 89.342 8.32226C89.924 8.90426 91.21 9.38026 92.2 9.38026C93.19 9.38026 94 9.81026 94 10.3353C94 10.8603 95.575 11.5853 97.5 11.9463C99.425 12.3073 101 13.0033 101 13.4913C101 13.9803 101.689 14.3803 102.531 14.3803C103.374 14.3803 104.322 15.0553 104.638 15.8803C104.955 16.7053 105.828 17.3803 106.579 17.3803C108.328 17.3803 121 30.2603 121 32.0383C121 32.7763 121.441 33.3803 121.981 33.3803C122.52 33.3803 123.244 34.5053 123.589 35.8803C123.934 37.2553 124.618 38.3803 125.108 38.3803C125.599 38.3803 126 39.0553 126 39.8803C126 40.7053 126.401 41.3803 126.892 41.3803C127.382 41.3803 128.093 42.6133 128.471 44.1203C128.849 45.6273 129.571 47.1153 130.074 47.4263C130.578 47.7373 131.281 50.7793 131.638 54.1863C131.994 57.5933 132.671 60.3803 133.142 60.3803C134.27 60.3803 134.259 78.1023 133.132 78.7993C132.654 79.0943 131.957 82.0453 131.582 85.3583C131.207 88.6703 130.493 91.3803 129.996 91.3803C129.498 91.3803 128.795 92.9553 128.434 94.8803C128.073 96.8053 127.377 98.3803 126.889 98.3803C126.4 98.3803 126 99.0553 126 99.8803C126 100.705 125.602 101.38 125.117 101.38C124.631 101.38 123.949 102.167 123.601 103.13C123.253 104.093 122.413 105.78 121.734 106.88C119.825 109.973 108.375 121.38 107.179 121.38C106.593 121.38 105.485 122.277 104.718 123.373C103.95 124.469 101.899 125.65 100.161 125.998C98.422 126.346 97 126.988 97 127.426C97 127.863 95.65 128.518 94 128.88C92.35 129.242 91 129.926 91 130.399C91 130.872 87.85 131.569 84 131.949C80.15 132.328 77 133.03 77 133.509C77 133.988 75.65 134.38 74 134.38H71V69.3803V4.38026H74C75.65 4.38026 77 4.76726 77 5.24026Z" fill="black"/>
<path fill-rule="evenodd" clip-rule="evenodd" d="M60.25 0.130263C56.263 0.316263 53 0.856264 53 1.33026C53 1.80426 50.75 2.50226 48 2.88026C45.25 3.25826 43 3.97526 43 4.47426C43 4.97226 42.325 5.38026 41.5 5.38026C40.675 5.38026 40 5.83026 40 6.38026C40 6.93026 39.132 7.38026 38.071 7.38026C37.011 7.38026 35.468 8.05526 34.643 8.88026C33.818 9.70526 32.422 10.3803 31.54 10.3803C30.658 10.3803 29.678 11.0553 29.362 11.8803C29.045 12.7053 28.365 13.3803 27.851 13.3803C25.928 13.3803 13 25.9473 13 27.8163C13 28.5593 12.325 29.4253 11.5 29.7423C10.675 30.0583 10 31.2313 10 32.3493C10 33.4663 9.586 34.3803 9.079 34.3803C8.573 34.3803 7.862 35.7303 7.5 37.3803C7.138 39.0303 6.427 40.3803 5.921 40.3803C5.414 40.3803 5 41.0553 5 41.8803C5 42.7053 4.582 43.3803 4.072 43.3803C3.562 43.3803 2.835 45.8553 2.457 48.8803C2.079 51.9053 1.371 54.3803 0.885 54.3803C0.398 54.3803 0 61.1303 0 69.3803C0 77.6303 0.398 84.3803 0.885 84.3803C1.371 84.3803 2.079 86.8553 2.457 89.8803C2.835 92.9053 3.562 95.3803 4.072 95.3803C4.582 95.3803 5 96.0553 5 96.8803C5 97.7053 5.43 98.3803 5.955 98.3803C6.48 98.3803 7.205 99.9553 7.566 101.88C7.927 103.805 8.623 105.38 9.111 105.38C9.6 105.38 10 106.069 10 106.911C10 107.754 10.675 108.702 11.5 109.018C12.325 109.335 13 110.258 13 111.069C13 112.899 25.592 125.38 27.439 125.38C28.18 125.38 29.048 126.062 29.367 126.895C29.687 127.728 31.085 128.842 32.474 129.37C33.863 129.898 35 130.752 35 131.267C35 131.783 36.8 132.508 39 132.88C41.2 133.252 43 133.966 43 134.468C43 134.97 43.862 135.38 44.917 135.38C45.971 135.38 46.985 135.836 47.171 136.392C47.356 136.949 51.219 137.691 55.754 138.041C60.289 138.39 64 139.06 64 139.528C64 139.997 66.25 140.38 69 140.38C71.75 140.38 74 139.996 74 139.528C74 139.059 77.938 138.373 82.75 138.005C87.563 137.636 91.65 136.895 91.833 136.357C92.017 135.82 93.254 135.38 94.583 135.38C95.912 135.38 97 134.966 97 134.459C97 133.953 98.35 133.242 100 132.88C101.65 132.518 103 131.856 103 131.409C103 130.962 104.125 130.314 105.5 129.969C106.875 129.624 108 128.9 108 128.361C108 127.821 108.511 127.38 109.135 127.38C109.76 127.38 111.313 126.255 112.588 124.88C113.862 123.505 115.358 122.38 115.912 122.38C117.011 122.38 122 117.325 122 116.211C122 115.832 123.585 113.842 125.522 111.788C127.459 109.734 129.308 107.002 129.63 105.717C129.953 104.432 130.582 103.38 131.029 103.38C131.476 103.38 132.138 102.03 132.5 100.38C132.862 98.7303 133.531 97.3803 133.986 97.3803C134.44 97.3803 135.122 95.1303 135.5 92.3803C135.878 89.6303 136.595 87.3803 137.094 87.3803C137.592 87.3803 138 85.6073 138 83.4393C138 81.2713 138.45 79.2203 139 78.8803C139.55 78.5403 140 74.4643 140 69.8213C140 64.8603 139.588 61.3803 139 61.3803C138.45 61.3803 138 59.1303 138 56.3803C138 53.6303 137.601 51.3803 137.114 51.3803C136.626 51.3803 135.923 49.3553 135.552 46.8803C135.181 44.4053 134.505 42.3803 134.05 42.3803C133.595 42.3803 132.927 40.8053 132.566 38.8803C132.205 36.9553 131.532 35.3803 131.071 35.3803C130.61 35.3803 129.969 34.5923 129.646 33.6303C128.616 30.5633 126.69 28.2053 118.342 19.7943C113.855 15.2723 109.243 11.2753 108.092 10.9093C106.942 10.5443 106 9.86126 106 9.39226C106 8.92326 104.65 8.24226 103 7.88026C101.35 7.51826 100 6.89626 100 6.49826C100 5.43926 90.942 2.36926 87.833 2.37526C86.367 2.37826 85.017 1.99826 84.833 1.53226C84.424 0.489263 70.082 -0.327737 60.25 0.130263ZM67 69.3803V134.38H64.559C63.216 134.38 61.877 133.989 61.581 133.512C61.286 133.034 58.335 132.337 55.022 131.962C51.71 131.587 49 130.911 49 130.458C49 130.006 47.2 129.348 45 128.996C42.8 128.644 41 127.96 41 127.477C41 126.993 39.875 126.314 38.5 125.969C37.125 125.624 36 124.9 36 124.361C36 123.821 35.325 123.38 34.5 123.38C33.675 123.38 33 122.96 33 122.447C33 121.934 32.054 121.214 30.897 120.847C28.402 120.055 19 110.693 19 108.999C19 108.352 18.1 107.173 17 106.38C15.9 105.587 15 104.349 15 103.628C15 102.907 14.325 102.058 13.5 101.742C12.675 101.425 11.997 100.427 11.994 99.5233C11.99 98.6193 11.315 96.5913 10.494 95.0163C9.672 93.4403 9 91.5653 9 90.8493C9 90.1333 8.553 89.3973 8.008 89.2133C7.462 89.0303 6.721 85.3933 6.361 81.1303C6.001 76.8683 5.323 73.3803 4.853 73.3803C4.384 73.3803 4 71.5803 4 69.3803C4 67.1803 4.384 65.3803 4.853 65.3803C5.323 65.3803 5.999 61.9183 6.357 57.6873C6.715 53.4563 7.343 49.7433 7.754 49.4373C8.868 48.6063 12 41.5313 12 39.8463C12 39.0403 12.441 38.3803 12.981 38.3803C13.52 38.3803 14.223 37.3413 14.541 36.0723C14.86 34.8033 16.218 32.9403 17.56 31.9323C18.902 30.9243 20 29.6813 20 29.1683C20 28.6563 20.562 27.6103 21.25 26.8433C21.938 26.0773 23.002 24.8713 23.616 24.1653C24.23 23.4583 25.754 22.2053 27.004 21.3803C28.253 20.5553 30.264 18.9213 31.473 17.7503C32.681 16.5783 34.644 15.3103 35.835 14.9323C37.026 14.5543 38 13.8613 38 13.3923C38 12.9233 39.35 12.2423 41 11.8803C42.65 11.5183 44 10.8073 44 10.3013C44 9.79426 45.088 9.38026 46.417 9.38026C47.746 9.38026 48.986 8.92326 49.172 8.36526C49.358 7.80726 52.545 7.06726 56.255 6.72126C59.965 6.37426 63 5.70626 63 5.23526C63 4.76526 63.9 4.38026 65 4.38026C66.979 4.38026 67 5.04726 67 69.3803ZM77 5.24026C77 5.71326 79.539 6.36226 82.642 6.68326C85.746 7.00326 88.761 7.74126 89.342 8.32226C89.924 8.90426 91.21 9.38026 92.2 9.38026C93.19 9.38026 94 9.81026 94 10.3353C94 10.8603 95.575 11.5853 97.5 11.9463C99.425 12.3073 101 13.0033 101 13.4913C101 13.9803 101.689 14.3803 102.531 14.3803C103.374 14.3803 104.322 15.0553 104.638 15.8803C104.955 16.7053 105.828 17.3803 106.579 17.3803C108.328 17.3803 121 30.2603 121 32.0383C121 32.7763 121.441 33.3803 121.981 33.3803C122.52 33.3803 123.244 34.5053 123.589 35.8803C123.934 37.2553 124.618 38.3803 125.108 38.3803C125.599 38.3803 126 39.0553 126 39.8803C126 40.7053 126.401 41.3803 126.892 41.3803C127.382 41.3803 128.093 42.6133 128.471 44.1203C128.849 45.6273 129.571 47.1153 130.074 47.4263C130.578 47.7373 131.281 50.7793 131.638 54.1863C131.994 57.5933 132.671 60.3803 133.142 60.3803C134.27 60.3803 134.259 78.1023 133.132 78.7993C132.654 79.0943 131.957 82.0453 131.582 85.3583C131.207 88.6703 130.493 91.3803 129.996 91.3803C129.498 91.3803 128.795 92.9553 128.434 94.8803C128.073 96.8053 127.377 98.3803 126.889 98.3803C126.4 98.3803 126 99.0553 126 99.8803C126 100.705 125.602 101.38 125.117 101.38C124.631 101.38 123.949 102.167 123.601 103.13C123.253 104.093 122.413 105.78 121.734 106.88C119.825 109.973 108.375 121.38 107.179 121.38C106.593 121.38 105.485 122.277 104.718 123.373C103.95 124.469 101.899 125.65 100.161 125.998C98.422 126.346 97 126.988 97 127.426C97 127.863 95.65 128.518 94 128.88C92.35 129.242 91 129.926 91 130.399C91 130.872 87.85 131.569 84 131.949C80.15 132.328 77 133.03 77 133.509C77 133.988 75.65 134.38 74 134.38H71V69.3803V4.38026H74C75.65 4.38026 77 4.76726 77 5.24026Z" fill="black"/>
<path fill-rule="evenodd" clip-rule="evenodd" d="M60.25 0.130263C56.263 0.316263 53 0.856264 53 1.33026C53 1.80426 50.75 2.50226 48 2.88026C45.25 3.25826 43 3.97526 43 4.47426C43 4.97226 42.325 5.38026 41.5 5.38026C40.675 5.38026 40 5.83026 40 6.38026C40 6.93026 39.132 7.38026 38.071 7.38026C37.011 7.38026 35.468 8.05526 34.643 8.88026C33.818 9.70526 32.422 10.3803 31.54 10.3803C30.658 10.3803 29.678 11.0553 29.362 11.8803C29.045 12.7053 28.365 13.3803 27.851 13.3803C25.928 13.3803 13 25.9473 13 27.8163C13 28.5593 12.325 29.4253 11.5 29.7423C10.675 30.0583 10 31.2313 10 32.3493C10 33.4663 9.586 34.3803 9.079 34.3803C8.573 34.3803 7.862 35.7303 7.5 37.3803C7.138 39.0303 6.427 40.3803 5.921 40.3803C5.414 40.3803 5 41.0553 5 41.8803C5 42.7053 4.582 43.3803 4.072 43.3803C3.562 43.3803 2.835 45.8553 2.457 48.8803C2.079 51.9053 1.371 54.3803 0.885 54.3803C0.398 54.3803 0 61.1303 0 69.3803C0 77.6303 0.398 84.3803 0.885 84.3803C1.371 84.3803 2.079 86.8553 2.457 89.8803C2.835 92.9053 3.562 95.3803 4.072 95.3803C4.582 95.3803 5 96.0553 5 96.8803C5 97.7053 5.43 98.3803 5.955 98.3803C6.48 98.3803 7.205 99.9553 7.566 101.88C7.927 103.805 8.623 105.38 9.111 105.38C9.6 105.38 10 106.069 10 106.911C10 107.754 10.675 108.702 11.5 109.018C12.325 109.335 13 110.258 13 111.069C13 112.899 25.592 125.38 27.439 125.38C28.18 125.38 29.048 126.062 29.367 126.895C29.687 127.728 31.085 128.842 32.474 129.37C33.863 129.898 35 130.752 35 131.267C35 131.783 36.8 132.508 39 132.88C41.2 133.252 43 133.966 43 134.468C43 134.97 43.862 135.38 44.917 135.38C45.971 135.38 46.985 135.836 47.171 136.392C47.356 136.949 51.219 137.691 55.754 138.041C60.289 138.39 64 139.06 64 139.528C64 139.997 66.25 140.38 69 140.38C71.75 140.38 74 139.996 74 139.528C74 139.059 77.938 138.373 82.75 138.005C87.563 137.636 91.65 136.895 91.833 136.357C92.017 135.82 93.254 135.38 94.583 135.38C95.912 135.38 97 134.966 97 134.459C97 133.953 98.35 133.242 100 132.88C101.65 132.518 103 131.856 103 131.409C103 130.962 104.125 130.314 105.5 129.969C106.875 129.624 108 128.9 108 128.361C108 127.821 108.511 127.38 109.135 127.38C109.76 127.38 111.313 126.255 112.588 124.88C113.862 123.505 115.358 122.38 115.912 122.38C117.011 122.38 122 117.325 122 116.211C122 115.832 123.585 113.842 125.522 111.788C127.459 109.734 129.308 107.002 129.63 105.717C129.953 104.432 130.582 103.38 131.029 103.38C131.476 103.38 132.138 102.03 132.5 100.38C132.862 98.7303 133.531 97.3803 133.986 97.3803C134.44 97.3803 135.122 95.1303 135.5 92.3803C135.878 89.6303 136.595 87.3803 137.094 87.3803C137.592 87.3803 138 85.6073 138 83.4393C138 81.2713 138.45 79.2203 139 78.8803C139.55 78.5403 140 74.4643 140 69.8213C140 64.8603 139.588 61.3803 139 61.3803C138.45 61.3803 138 59.1303 138 56.3803C138 53.6303 137.601 51.3803 137.114 51.3803C136.626 51.3803 135.923 49.3553 135.552 46.8803C135.181 44.4053 134.505 42.3803 134.05 42.3803C133.595 42.3803 132.927 40.8053 132.566 38.8803C132.205 36.9553 131.532 35.3803 131.071 35.3803C130.61 35.3803 129.969 34.5923 129.646 33.6303C128.616 30.5633 126.69 28.2053 118.342 19.7943C113.855 15.2723 109.243 11.2753 108.092 10.9093C106.942 10.5443 106 9.86126 106 9.39226C106 8.92326 104.65 8.24226 103 7.88026C101.35 7.51826 100 6.89626 100 6.49826C100 5.43926 90.942 2.36926 87.833 2.37526C86.367 2.37826 85.017 1.99826 84.833 1.53226C84.424 0.489263 70.082 -0.327737 60.25 0.130263ZM67 69.3803V134.38H64.559C63.216 134.38 61.877 133.989 61.581 133.512C61.286 133.034 58.335 132.337 55.022 131.962C51.71 131.587 49 130.911 49 130.458C49 130.006 47.2 129.348 45 128.996C42.8 128.644 41 127.96 41 127.477C41 126.993 39.875 126.314 38.5 125.969C37.125 125.624 36 124.9 36 124.361C36 123.821 35.325 123.38 34.5 123.38C33.675 123.38 33 122.96 33 122.447C33 121.934 32.054 121.214 30.897 120.847C28.402 120.055 19 110.693 19 108.999C19 108.352 18.1 107.173 17 106.38C15.9 105.587 15 104.349 15 103.628C15 102.907 14.325 102.058 13.5 101.742C12.675 101.425 11.997 100.427 11.994 99.5233C11.99 98.6193 11.315 96.5913 10.494 95.0163C9.672 93.4403 9 91.5653 9 90.8493C9 90.1333 8.553 89.3973 8.008 89.2133C7.462 89.0303 6.721 85.3933 6.361 81.1303C6.001 76.8683 5.323 73.3803 4.853 73.3803C4.384 73.3803 4 71.5803 4 69.3803C4 67.1803 4.384 65.3803 4.853 65.3803C5.323 65.3803 5.999 61.9183 6.357 57.6873C6.715 53.4563 7.343 49.7433 7.754 49.4373C8.868 48.6063 12 41.5313 12 39.8463C12 39.0403 12.441 38.3803 12.981 38.3803C13.52 38.3803 14.223 37.3413 14.541 36.0723C14.86 34.8033 16.218 32.9403 17.56 31.9323C18.902 30.9243 20 29.6813 20 29.1683C20 28.6563 20.562 27.6103 21.25 26.8433C21.938 26.0773 23.002 24.8713 23.616 24.1653C24.23 23.4583 25.754 22.2053 27.004 21.3803C28.253 20.5553 30.264 18.9213 31.473 17.7503C32.681 16.5783 34.644 15.3103 35.835 14.9323C37.026 14.5543 38 13.8613 38 13.3923C38 12.9233 39.35 12.2423 41 11.8803C42.65 11.5183 44 10.8073 44 10.3013C44 9.79426 45.088 9.38026 46.417 9.38026C47.746 9.38026 48.986 8.92326 49.172 8.36526C49.358 7.80726 52.545 7.06726 56.255 6.72126C59.965 6.37426 63 5.70626 63 5.23526C63 4.76526 63.9 4.38026 65 4.38026C66.979 4.38026 67 5.04726 67 69.3803ZM77 5.24026C77 5.71326 79.539 6.36226 82.642 6.68326C85.746 7.00326 88.761 7.74126 89.342 8.32226C89.924 8.90426 91.21 9.38026 92.2 9.38026C93.19 9.38026 94 9.81026 94 10.3353C94 10.8603 95.575 11.5853 97.5 11.9463C99.425 12.3073 101 13.0033 101 13.4913C101 13.9803 101.689 14.3803 102.531 14.3803C103.374 14.3803 104.322 15.0553 104.638 15.8803C104.955 16.7053 105.828 17.3803 106.579 17.3803C108.328 17.3803 121 30.2603 121 32.0383C121 32.7763 121.441 33.3803 121.981 33.3803C122.52 33.3803 123.244 34.5053 123.589 35.8803C123.934 37.2553 124.618 38.3803 125.108 38.3803C125.599 38.3803 126 39.0553 126 39.8803C126 40.7053 126.401 41.3803 126.892 41.3803C127.382 41.3803 128.093 42.6133 128.471 44.1203C128.849 45.6273 129.571 47.1153 130.074 47.4263C130.578 47.7373 131.281 50.7793 131.638 54.1863C131.994 57.5933 132.671 60.3803 133.142 60.3803C134.27 60.3803 134.259 78.1023 133.132 78.7993C132.654 79.0943 131.957 82.0453 131.582 85.3583C131.207 88.6703 130.493 91.3803 129.996 91.3803C129.498 91.3803 128.795 92.9553 128.434 94.8803C128.073 96.8053 127.377 98.3803 126.889 98.3803C126.4 98.3803 126 99.0553 126 99.8803C126 100.705 125.602 101.38 125.117 101.38C124.631 101.38 123.949 102.167 123.601 103.13C123.253 104.093 122.413 105.78 121.734 106.88C119.825 109.973 108.375 121.38 107.179 121.38C106.593 121.38 105.485 122.277 104.718 123.373C103.95 124.469 101.899 125.65 100.161 125.998C98.422 126.346 97 126.988 97 127.426C97 127.863 95.65 128.518 94 128.88C92.35 129.242 91 129.926 91 130.399C91 130.872 87.85 131.569 84 131.949C80.15 132.328 77 133.03 77 133.509C77 133.988 75.65 134.38 74 134.38H71V69.3803V4.38026H74C75.65 4.38026 77 4.76726 77 5.24026Z" fill="black"/>
</svg>
