<svg width="141" height="141" viewBox="0 0 141 141" fill="none" xmlns="http://www.w3.org/2000/svg">
<path fill-rule="evenodd" clip-rule="evenodd" d="M56.5219 1.00575C56.5219 1.55575 54.9469 2.00575 53.0219 2.00575C51.0969 2.00575 49.5219 2.42775 49.5219 2.94475C49.5219 3.46075 47.4969 4.18675 45.0219 4.55775C42.5469 4.92875 40.5219 5.58275 40.5219 6.01075C40.5219 6.43875 39.3109 7.09275 37.8309 7.46475C36.3509 7.83575 34.4389 8.94475 33.5809 9.92975C32.7239 10.9137 31.0089 12.0397 29.7719 12.4297C28.5349 12.8207 27.5219 13.5597 27.5219 14.0727C27.5219 14.5857 26.9599 15.0127 26.2719 15.0207C24.7509 15.0377 15.132 24.8128 14.23 27.2558C13.875 28.2178 13.169 29.0058 12.662 29.0058C12.154 29.0058 11.456 30.1308 11.111 31.5058C10.766 32.8808 10.0419 34.0057 9.50295 34.0057C8.96295 34.0057 8.52195 34.6807 8.52195 35.5057C8.52195 36.3307 8.10795 37.0057 7.60095 37.0057C7.09495 37.0057 6.37795 38.3858 6.00695 40.0728C5.63695 41.7598 4.70395 44.3478 3.93395 45.8228C3.16395 47.2988 2.53195 49.9677 2.52795 51.7557C2.52495 53.5427 2.07195 55.0057 1.52195 55.0057C0.22595 55.0057 0.17595 83.3968 1.46695 85.7698C1.98695 86.7248 2.68295 89.1938 3.01295 91.2558C3.34295 93.3188 3.98495 95.0058 4.43995 95.0058C4.89395 95.0058 5.55395 96.8058 5.90595 99.0058C6.25795 101.206 6.91895 103.006 7.37595 103.006C7.83295 103.006 9.06495 104.694 10.1149 106.756C11.1639 108.819 13.484 111.99 15.272 113.804C17.06 115.618 18.5219 117.531 18.5219 118.054C18.5219 118.578 18.8999 119.006 19.3629 119.006C19.8249 119.006 22.04 120.806 24.284 123.006C26.529 125.206 28.85 127.006 29.443 127.006C30.037 127.006 30.5219 127.447 30.5219 127.987C30.5219 128.526 31.6469 129.25 33.0219 129.595C34.3969 129.94 35.5219 130.624 35.5219 131.114C35.5219 131.605 36.1969 132.006 37.0219 132.006C37.8469 132.006 38.5219 132.406 38.5219 132.895C38.5219 133.383 40.208 134.1 42.27 134.486C44.331 134.873 46.269 135.596 46.576 136.093C46.883 136.59 49.9209 137.287 53.3279 137.644C56.7349 138 59.5219 138.677 59.5219 139.148C59.5219 139.62 64.2469 140.006 70.0219 140.006C75.7969 140.006 80.5219 139.62 80.5219 139.148C80.5219 138.677 83.3089 138 86.716 137.644C90.123 137.287 93.16 136.613 93.466 136.145C93.772 135.677 95.7099 134.984 97.7719 134.605C99.8339 134.226 101.522 133.486 101.522 132.961C101.522 132.436 102.197 132.006 103.022 132.006C103.847 132.006 104.522 131.565 104.522 131.025C104.522 130.486 105.647 129.762 107.022 129.417C108.397 129.072 109.522 128.418 109.522 127.965C109.522 127.512 110.384 126.867 111.438 126.533C114.083 125.693 125.522 114.422 125.522 112.656C125.522 111.866 126.197 110.961 127.022 110.644C127.847 110.328 128.522 109.417 128.522 108.621C128.522 107.824 128.86 107.023 129.272 106.839C130.426 106.327 133.522 100.386 133.522 98.6848C133.522 97.8528 134.016 97.0078 134.62 96.8068C135.224 96.6048 135.958 94.3178 136.25 91.7228C136.543 89.1288 137.174 87.0058 137.652 87.0058C138.131 87.0058 138.522 85.2058 138.522 83.0058C138.522 80.8058 138.972 79.0058 139.522 79.0058C140.115 79.0058 140.522 75.3388 140.522 70.0058C140.522 64.6728 140.115 61.0057 139.522 61.0057C138.972 61.0057 138.522 59.2327 138.522 57.0647C138.522 54.8967 138.114 52.8717 137.616 52.5637C137.117 52.2557 136.4 49.7537 136.022 47.0047C135.644 44.2547 134.975 42.0057 134.537 42.0057C134.098 42.0057 133.435 40.7947 133.063 39.3147C132.692 37.8347 131.583 35.9227 130.598 35.0647C129.614 34.2077 128.488 32.4928 128.098 31.2558C127.707 30.0188 126.968 29.0058 126.455 29.0058C125.942 29.0058 125.521 28.4438 125.521 27.7558C125.52 27.0688 124.164 25.1558 122.506 23.5058C120.849 21.8558 117.852 18.8188 115.847 16.7558C113.841 14.6938 111.62 13.0057 110.911 13.0057C110.202 13.0057 109.262 12.4187 108.822 11.7017C107.975 10.3217 101.479 7.00575 99.6209 7.00575C99.0159 7.00575 98.5219 6.56075 98.5219 6.01775C98.5219 5.47375 96.7219 4.74175 94.5219 4.38975C92.3219 4.03775 90.5219 3.35775 90.5219 2.87775C90.5219 2.39775 88.9739 2.00575 87.0809 2.00575C85.1879 2.00575 83.3619 1.55575 83.0219 1.00575C82.1929 -0.33525 56.5219 -0.33525 56.5219 1.00575Z" fill="black"/>
<path fill-rule="evenodd" clip-rule="evenodd" d="M56.5219 1.00575C56.5219 1.55575 54.9469 2.00575 53.0219 2.00575C51.0969 2.00575 49.5219 2.42775 49.5219 2.94475C49.5219 3.46075 47.4969 4.18675 45.0219 4.55775C42.5469 4.92875 40.5219 5.58275 40.5219 6.01075C40.5219 6.43875 39.3109 7.09275 37.8309 7.46475C36.3509 7.83575 34.4389 8.94475 33.5809 9.92975C32.7239 10.9137 31.0089 12.0397 29.7719 12.4297C28.5349 12.8207 27.5219 13.5597 27.5219 14.0727C27.5219 14.5857 26.9599 15.0127 26.2719 15.0207C24.7509 15.0377 15.132 24.8128 14.23 27.2558C13.875 28.2178 13.169 29.0058 12.662 29.0058C12.154 29.0058 11.456 30.1308 11.111 31.5058C10.766 32.8808 10.0419 34.0057 9.50295 34.0057C8.96295 34.0057 8.52195 34.6807 8.52195 35.5057C8.52195 36.3307 8.10795 37.0057 7.60095 37.0057C7.09495 37.0057 6.37795 38.3858 6.00695 40.0728C5.63695 41.7598 4.70395 44.3478 3.93395 45.8228C3.16395 47.2988 2.53195 49.9677 2.52795 51.7557C2.52495 53.5427 2.07195 55.0057 1.52195 55.0057C0.22595 55.0057 0.17595 83.3968 1.46695 85.7698C1.98695 86.7248 2.68295 89.1938 3.01295 91.2558C3.34295 93.3188 3.98495 95.0058 4.43995 95.0058C4.89395 95.0058 5.55395 96.8058 5.90595 99.0058C6.25795 101.206 6.91895 103.006 7.37595 103.006C7.83295 103.006 9.06495 104.694 10.1149 106.756C11.1639 108.819 13.484 111.99 15.272 113.804C17.06 115.618 18.5219 117.531 18.5219 118.054C18.5219 118.578 18.8999 119.006 19.3629 119.006C19.8249 119.006 22.04 120.806 24.284 123.006C26.529 125.206 28.85 127.006 29.443 127.006C30.037 127.006 30.5219 127.447 30.5219 127.987C30.5219 128.526 31.6469 129.25 33.0219 129.595C34.3969 129.94 35.5219 130.624 35.5219 131.114C35.5219 131.605 36.1969 132.006 37.0219 132.006C37.8469 132.006 38.5219 132.406 38.5219 132.895C38.5219 133.383 40.208 134.1 42.27 134.486C44.331 134.873 46.269 135.596 46.576 136.093C46.883 136.59 49.9209 137.287 53.3279 137.644C56.7349 138 59.5219 138.677 59.5219 139.148C59.5219 139.62 64.2469 140.006 70.0219 140.006C75.7969 140.006 80.5219 139.62 80.5219 139.148C80.5219 138.677 83.3089 138 86.716 137.644C90.123 137.287 93.16 136.613 93.466 136.145C93.772 135.677 95.7099 134.984 97.7719 134.605C99.8339 134.226 101.522 133.486 101.522 132.961C101.522 132.436 102.197 132.006 103.022 132.006C103.847 132.006 104.522 131.565 104.522 131.025C104.522 130.486 105.647 129.762 107.022 129.417C108.397 129.072 109.522 128.418 109.522 127.965C109.522 127.512 110.384 126.867 111.438 126.533C114.083 125.693 125.522 114.422 125.522 112.656C125.522 111.866 126.197 110.961 127.022 110.644C127.847 110.328 128.522 109.417 128.522 108.621C128.522 107.824 128.86 107.023 129.272 106.839C130.426 106.327 133.522 100.386 133.522 98.6848C133.522 97.8528 134.016 97.0078 134.62 96.8068C135.224 96.6048 135.958 94.3178 136.25 91.7228C136.543 89.1288 137.174 87.0058 137.652 87.0058C138.131 87.0058 138.522 85.2058 138.522 83.0058C138.522 80.8058 138.972 79.0058 139.522 79.0058C140.115 79.0058 140.522 75.3388 140.522 70.0058C140.522 64.6728 140.115 61.0057 139.522 61.0057C138.972 61.0057 138.522 59.2327 138.522 57.0647C138.522 54.8967 138.114 52.8717 137.616 52.5637C137.117 52.2557 136.4 49.7537 136.022 47.0047C135.644 44.2547 134.975 42.0057 134.537 42.0057C134.098 42.0057 133.435 40.7947 133.063 39.3147C132.692 37.8347 131.583 35.9227 130.598 35.0647C129.614 34.2077 128.488 32.4928 128.098 31.2558C127.707 30.0188 126.968 29.0058 126.455 29.0058C125.942 29.0058 125.521 28.4438 125.521 27.7558C125.52 27.0688 124.164 25.1558 122.506 23.5058C120.849 21.8558 117.852 18.8188 115.847 16.7558C113.841 14.6938 111.62 13.0057 110.911 13.0057C110.202 13.0057 109.262 12.4187 108.822 11.7017C107.975 10.3217 101.479 7.00575 99.6209 7.00575C99.0159 7.00575 98.5219 6.56075 98.5219 6.01775C98.5219 5.47375 96.7219 4.74175 94.5219 4.38975C92.3219 4.03775 90.5219 3.35775 90.5219 2.87775C90.5219 2.39775 88.9739 2.00575 87.0809 2.00575C85.1879 2.00575 83.3619 1.55575 83.0219 1.00575C82.1929 -0.33525 56.5219 -0.33525 56.5219 1.00575Z" fill="black"/>
<path fill-rule="evenodd" clip-rule="evenodd" d="M56.5219 1.00575C56.5219 1.55575 54.9469 2.00575 53.0219 2.00575C51.0969 2.00575 49.5219 2.42775 49.5219 2.94475C49.5219 3.46075 47.4969 4.18675 45.0219 4.55775C42.5469 4.92875 40.5219 5.58275 40.5219 6.01075C40.5219 6.43875 39.3109 7.09275 37.8309 7.46475C36.3509 7.83575 34.4389 8.94475 33.5809 9.92975C32.7239 10.9137 31.0089 12.0397 29.7719 12.4297C28.5349 12.8207 27.5219 13.5597 27.5219 14.0727C27.5219 14.5857 26.9599 15.0127 26.2719 15.0207C24.7509 15.0377 15.132 24.8128 14.23 27.2558C13.875 28.2178 13.169 29.0058 12.662 29.0058C12.154 29.0058 11.456 30.1308 11.111 31.5058C10.766 32.8808 10.0419 34.0057 9.50295 34.0057C8.96295 34.0057 8.52195 34.6807 8.52195 35.5057C8.52195 36.3307 8.10795 37.0057 7.60095 37.0057C7.09495 37.0057 6.37795 38.3858 6.00695 40.0728C5.63695 41.7598 4.70395 44.3478 3.93395 45.8228C3.16395 47.2988 2.53195 49.9677 2.52795 51.7557C2.52495 53.5427 2.07195 55.0057 1.52195 55.0057C0.22595 55.0057 0.17595 83.3968 1.46695 85.7698C1.98695 86.7248 2.68295 89.1938 3.01295 91.2558C3.34295 93.3188 3.98495 95.0058 4.43995 95.0058C4.89395 95.0058 5.55395 96.8058 5.90595 99.0058C6.25795 101.206 6.91895 103.006 7.37595 103.006C7.83295 103.006 9.06495 104.694 10.1149 106.756C11.1639 108.819 13.484 111.99 15.272 113.804C17.06 115.618 18.5219 117.531 18.5219 118.054C18.5219 118.578 18.8999 119.006 19.3629 119.006C19.8249 119.006 22.04 120.806 24.284 123.006C26.529 125.206 28.85 127.006 29.443 127.006C30.037 127.006 30.5219 127.447 30.5219 127.987C30.5219 128.526 31.6469 129.25 33.0219 129.595C34.3969 129.94 35.5219 130.624 35.5219 131.114C35.5219 131.605 36.1969 132.006 37.0219 132.006C37.8469 132.006 38.5219 132.406 38.5219 132.895C38.5219 133.383 40.208 134.1 42.27 134.486C44.331 134.873 46.269 135.596 46.576 136.093C46.883 136.59 49.9209 137.287 53.3279 137.644C56.7349 138 59.5219 138.677 59.5219 139.148C59.5219 139.62 64.2469 140.006 70.0219 140.006C75.7969 140.006 80.5219 139.62 80.5219 139.148C80.5219 138.677 83.3089 138 86.716 137.644C90.123 137.287 93.16 136.613 93.466 136.145C93.772 135.677 95.7099 134.984 97.7719 134.605C99.8339 134.226 101.522 133.486 101.522 132.961C101.522 132.436 102.197 132.006 103.022 132.006C103.847 132.006 104.522 131.565 104.522 131.025C104.522 130.486 105.647 129.762 107.022 129.417C108.397 129.072 109.522 128.418 109.522 127.965C109.522 127.512 110.384 126.867 111.438 126.533C114.083 125.693 125.522 114.422 125.522 112.656C125.522 111.866 126.197 110.961 127.022 110.644C127.847 110.328 128.522 109.417 128.522 108.621C128.522 107.824 128.86 107.023 129.272 106.839C130.426 106.327 133.522 100.386 133.522 98.6848C133.522 97.8528 134.016 97.0078 134.62 96.8068C135.224 96.6048 135.958 94.3178 136.25 91.7228C136.543 89.1288 137.174 87.0058 137.652 87.0058C138.131 87.0058 138.522 85.2058 138.522 83.0058C138.522 80.8058 138.972 79.0058 139.522 79.0058C140.115 79.0058 140.522 75.3388 140.522 70.0058C140.522 64.6728 140.115 61.0057 139.522 61.0057C138.972 61.0057 138.522 59.2327 138.522 57.0647C138.522 54.8967 138.114 52.8717 137.616 52.5637C137.117 52.2557 136.4 49.7537 136.022 47.0047C135.644 44.2547 134.975 42.0057 134.537 42.0057C134.098 42.0057 133.435 40.7947 133.063 39.3147C132.692 37.8347 131.583 35.9227 130.598 35.0647C129.614 34.2077 128.488 32.4928 128.098 31.2558C127.707 30.0188 126.968 29.0058 126.455 29.0058C125.942 29.0058 125.521 28.4438 125.521 27.7558C125.52 27.0688 124.164 25.1558 122.506 23.5058C120.849 21.8558 117.852 18.8188 115.847 16.7558C113.841 14.6938 111.62 13.0057 110.911 13.0057C110.202 13.0057 109.262 12.4187 108.822 11.7017C107.975 10.3217 101.479 7.00575 99.6209 7.00575C99.0159 7.00575 98.5219 6.56075 98.5219 6.01775C98.5219 5.47375 96.7219 4.74175 94.5219 4.38975C92.3219 4.03775 90.5219 3.35775 90.5219 2.87775C90.5219 2.39775 88.9739 2.00575 87.0809 2.00575C85.1879 2.00575 83.3619 1.55575 83.0219 1.00575C82.1929 -0.33525 56.5219 -0.33525 56.5219 1.00575Z" fill="black"/>
<path fill-rule="evenodd" clip-rule="evenodd" d="M56.5219 1.00575C56.5219 1.55575 54.9469 2.00575 53.0219 2.00575C51.0969 2.00575 49.5219 2.42775 49.5219 2.94475C49.5219 3.46075 47.4969 4.18675 45.0219 4.55775C42.5469 4.92875 40.5219 5.58275 40.5219 6.01075C40.5219 6.43875 39.3109 7.09275 37.8309 7.46475C36.3509 7.83575 34.4389 8.94475 33.5809 9.92975C32.7239 10.9137 31.0089 12.0397 29.7719 12.4297C28.5349 12.8207 27.5219 13.5597 27.5219 14.0727C27.5219 14.5857 26.9599 15.0127 26.2719 15.0207C24.7509 15.0377 15.132 24.8128 14.23 27.2558C13.875 28.2178 13.169 29.0058 12.662 29.0058C12.154 29.0058 11.456 30.1308 11.111 31.5058C10.766 32.8808 10.0419 34.0057 9.50295 34.0057C8.96295 34.0057 8.52195 34.6807 8.52195 35.5057C8.52195 36.3307 8.10795 37.0057 7.60095 37.0057C7.09495 37.0057 6.37795 38.3858 6.00695 40.0728C5.63695 41.7598 4.70395 44.3478 3.93395 45.8228C3.16395 47.2988 2.53195 49.9677 2.52795 51.7557C2.52495 53.5427 2.07195 55.0057 1.52195 55.0057C0.22595 55.0057 0.17595 83.3968 1.46695 85.7698C1.98695 86.7248 2.68295 89.1938 3.01295 91.2558C3.34295 93.3188 3.98495 95.0058 4.43995 95.0058C4.89395 95.0058 5.55395 96.8058 5.90595 99.0058C6.25795 101.206 6.91895 103.006 7.37595 103.006C7.83295 103.006 9.06495 104.694 10.1149 106.756C11.1639 108.819 13.484 111.99 15.272 113.804C17.06 115.618 18.5219 117.531 18.5219 118.054C18.5219 118.578 18.8999 119.006 19.3629 119.006C19.8249 119.006 22.04 120.806 24.284 123.006C26.529 125.206 28.85 127.006 29.443 127.006C30.037 127.006 30.5219 127.447 30.5219 127.987C30.5219 128.526 31.6469 129.25 33.0219 129.595C34.3969 129.94 35.5219 130.624 35.5219 131.114C35.5219 131.605 36.1969 132.006 37.0219 132.006C37.8469 132.006 38.5219 132.406 38.5219 132.895C38.5219 133.383 40.208 134.1 42.27 134.486C44.331 134.873 46.269 135.596 46.576 136.093C46.883 136.59 49.9209 137.287 53.3279 137.644C56.7349 138 59.5219 138.677 59.5219 139.148C59.5219 139.62 64.2469 140.006 70.0219 140.006C75.7969 140.006 80.5219 139.62 80.5219 139.148C80.5219 138.677 83.3089 138 86.716 137.644C90.123 137.287 93.16 136.613 93.466 136.145C93.772 135.677 95.7099 134.984 97.7719 134.605C99.8339 134.226 101.522 133.486 101.522 132.961C101.522 132.436 102.197 132.006 103.022 132.006C103.847 132.006 104.522 131.565 104.522 131.025C104.522 130.486 105.647 129.762 107.022 129.417C108.397 129.072 109.522 128.418 109.522 127.965C109.522 127.512 110.384 126.867 111.438 126.533C114.083 125.693 125.522 114.422 125.522 112.656C125.522 111.866 126.197 110.961 127.022 110.644C127.847 110.328 128.522 109.417 128.522 108.621C128.522 107.824 128.86 107.023 129.272 106.839C130.426 106.327 133.522 100.386 133.522 98.6848C133.522 97.8528 134.016 97.0078 134.62 96.8068C135.224 96.6048 135.958 94.3178 136.25 91.7228C136.543 89.1288 137.174 87.0058 137.652 87.0058C138.131 87.0058 138.522 85.2058 138.522 83.0058C138.522 80.8058 138.972 79.0058 139.522 79.0058C140.115 79.0058 140.522 75.3388 140.522 70.0058C140.522 64.6728 140.115 61.0057 139.522 61.0057C138.972 61.0057 138.522 59.2327 138.522 57.0647C138.522 54.8967 138.114 52.8717 137.616 52.5637C137.117 52.2557 136.4 49.7537 136.022 47.0047C135.644 44.2547 134.975 42.0057 134.537 42.0057C134.098 42.0057 133.435 40.7947 133.063 39.3147C132.692 37.8347 131.583 35.9227 130.598 35.0647C129.614 34.2077 128.488 32.4928 128.098 31.2558C127.707 30.0188 126.968 29.0058 126.455 29.0058C125.942 29.0058 125.521 28.4438 125.521 27.7558C125.52 27.0688 124.164 25.1558 122.506 23.5058C120.849 21.8558 117.852 18.8188 115.847 16.7558C113.841 14.6938 111.62 13.0057 110.911 13.0057C110.202 13.0057 109.262 12.4187 108.822 11.7017C107.975 10.3217 101.479 7.00575 99.6209 7.00575C99.0159 7.00575 98.5219 6.56075 98.5219 6.01775C98.5219 5.47375 96.7219 4.74175 94.5219 4.38975C92.3219 4.03775 90.5219 3.35775 90.5219 2.87775C90.5219 2.39775 88.9739 2.00575 87.0809 2.00575C85.1879 2.00575 83.3619 1.55575 83.0219 1.00575C82.1929 -0.33525 56.5219 -0.33525 56.5219 1.00575Z" fill="black"/>
<path fill-rule="evenodd" clip-rule="evenodd" d="M56.5219 1.00575C56.5219 1.55575 54.9469 2.00575 53.0219 2.00575C51.0969 2.00575 49.5219 2.42775 49.5219 2.94475C49.5219 3.46075 47.4969 4.18675 45.0219 4.55775C42.5469 4.92875 40.5219 5.58275 40.5219 6.01075C40.5219 6.43875 39.3109 7.09275 37.8309 7.46475C36.3509 7.83575 34.4389 8.94475 33.5809 9.92975C32.7239 10.9137 31.0089 12.0397 29.7719 12.4297C28.5349 12.8207 27.5219 13.5597 27.5219 14.0727C27.5219 14.5857 26.9599 15.0127 26.2719 15.0207C24.7509 15.0377 15.132 24.8128 14.23 27.2558C13.875 28.2178 13.169 29.0058 12.662 29.0058C12.154 29.0058 11.456 30.1308 11.111 31.5058C10.766 32.8808 10.0419 34.0057 9.50295 34.0057C8.96295 34.0057 8.52195 34.6807 8.52195 35.5057C8.52195 36.3307 8.10795 37.0057 7.60095 37.0057C7.09495 37.0057 6.37795 38.3858 6.00695 40.0728C5.63695 41.7598 4.70395 44.3478 3.93395 45.8228C3.16395 47.2988 2.53195 49.9677 2.52795 51.7557C2.52495 53.5427 2.07195 55.0057 1.52195 55.0057C0.22595 55.0057 0.17595 83.3968 1.46695 85.7698C1.98695 86.7248 2.68295 89.1938 3.01295 91.2558C3.34295 93.3188 3.98495 95.0058 4.43995 95.0058C4.89395 95.0058 5.55395 96.8058 5.90595 99.0058C6.25795 101.206 6.91895 103.006 7.37595 103.006C7.83295 103.006 9.06495 104.694 10.1149 106.756C11.1639 108.819 13.484 111.99 15.272 113.804C17.06 115.618 18.5219 117.531 18.5219 118.054C18.5219 118.578 18.8999 119.006 19.3629 119.006C19.8249 119.006 22.04 120.806 24.284 123.006C26.529 125.206 28.85 127.006 29.443 127.006C30.037 127.006 30.5219 127.447 30.5219 127.987C30.5219 128.526 31.6469 129.25 33.0219 129.595C34.3969 129.94 35.5219 130.624 35.5219 131.114C35.5219 131.605 36.1969 132.006 37.0219 132.006C37.8469 132.006 38.5219 132.406 38.5219 132.895C38.5219 133.383 40.208 134.1 42.27 134.486C44.331 134.873 46.269 135.596 46.576 136.093C46.883 136.59 49.9209 137.287 53.3279 137.644C56.7349 138 59.5219 138.677 59.5219 139.148C59.5219 139.62 64.2469 140.006 70.0219 140.006C75.7969 140.006 80.5219 139.62 80.5219 139.148C80.5219 138.677 83.3089 138 86.716 137.644C90.123 137.287 93.16 136.613 93.466 136.145C93.772 135.677 95.7099 134.984 97.7719 134.605C99.8339 134.226 101.522 133.486 101.522 132.961C101.522 132.436 102.197 132.006 103.022 132.006C103.847 132.006 104.522 131.565 104.522 131.025C104.522 130.486 105.647 129.762 107.022 129.417C108.397 129.072 109.522 128.418 109.522 127.965C109.522 127.512 110.384 126.867 111.438 126.533C114.083 125.693 125.522 114.422 125.522 112.656C125.522 111.866 126.197 110.961 127.022 110.644C127.847 110.328 128.522 109.417 128.522 108.621C128.522 107.824 128.86 107.023 129.272 106.839C130.426 106.327 133.522 100.386 133.522 98.6848C133.522 97.8528 134.016 97.0078 134.62 96.8068C135.224 96.6048 135.958 94.3178 136.25 91.7228C136.543 89.1288 137.174 87.0058 137.652 87.0058C138.131 87.0058 138.522 85.2058 138.522 83.0058C138.522 80.8058 138.972 79.0058 139.522 79.0058C140.115 79.0058 140.522 75.3388 140.522 70.0058C140.522 64.6728 140.115 61.0057 139.522 61.0057C138.972 61.0057 138.522 59.2327 138.522 57.0647C138.522 54.8967 138.114 52.8717 137.616 52.5637C137.117 52.2557 136.4 49.7537 136.022 47.0047C135.644 44.2547 134.975 42.0057 134.537 42.0057C134.098 42.0057 133.435 40.7947 133.063 39.3147C132.692 37.8347 131.583 35.9227 130.598 35.0647C129.614 34.2077 128.488 32.4928 128.098 31.2558C127.707 30.0188 126.968 29.0058 126.455 29.0058C125.942 29.0058 125.521 28.4438 125.521 27.7558C125.52 27.0688 124.164 25.1558 122.506 23.5058C120.849 21.8558 117.852 18.8188 115.847 16.7558C113.841 14.6938 111.62 13.0057 110.911 13.0057C110.202 13.0057 109.262 12.4187 108.822 11.7017C107.975 10.3217 101.479 7.00575 99.6209 7.00575C99.0159 7.00575 98.5219 6.56075 98.5219 6.01775C98.5219 5.47375 96.7219 4.74175 94.5219 4.38975C92.3219 4.03775 90.5219 3.35775 90.5219 2.87775C90.5219 2.39775 88.9739 2.00575 87.0809 2.00575C85.1879 2.00575 83.3619 1.55575 83.0219 1.00575C82.1929 -0.33525 56.5219 -0.33525 56.5219 1.00575Z" fill="black"/>
<path fill-rule="evenodd" clip-rule="evenodd" d="M56.5219 1.00575C56.5219 1.55575 54.9469 2.00575 53.0219 2.00575C51.0969 2.00575 49.5219 2.42775 49.5219 2.94475C49.5219 3.46075 47.4969 4.18675 45.0219 4.55775C42.5469 4.92875 40.5219 5.58275 40.5219 6.01075C40.5219 6.43875 39.3109 7.09275 37.8309 7.46475C36.3509 7.83575 34.4389 8.94475 33.5809 9.92975C32.7239 10.9137 31.0089 12.0397 29.7719 12.4297C28.5349 12.8207 27.5219 13.5597 27.5219 14.0727C27.5219 14.5857 26.9599 15.0127 26.2719 15.0207C24.7509 15.0377 15.132 24.8128 14.23 27.2558C13.875 28.2178 13.169 29.0058 12.662 29.0058C12.154 29.0058 11.456 30.1308 11.111 31.5058C10.766 32.8808 10.0419 34.0057 9.50295 34.0057C8.96295 34.0057 8.52195 34.6807 8.52195 35.5057C8.52195 36.3307 8.10795 37.0057 7.60095 37.0057C7.09495 37.0057 6.37795 38.3858 6.00695 40.0728C5.63695 41.7598 4.70395 44.3478 3.93395 45.8228C3.16395 47.2988 2.53195 49.9677 2.52795 51.7557C2.52495 53.5427 2.07195 55.0057 1.52195 55.0057C0.22595 55.0057 0.17595 83.3968 1.46695 85.7698C1.98695 86.7248 2.68295 89.1938 3.01295 91.2558C3.34295 93.3188 3.98495 95.0058 4.43995 95.0058C4.89395 95.0058 5.55395 96.8058 5.90595 99.0058C6.25795 101.206 6.91895 103.006 7.37595 103.006C7.83295 103.006 9.06495 104.694 10.1149 106.756C11.1639 108.819 13.484 111.99 15.272 113.804C17.06 115.618 18.5219 117.531 18.5219 118.054C18.5219 118.578 18.8999 119.006 19.3629 119.006C19.8249 119.006 22.04 120.806 24.284 123.006C26.529 125.206 28.85 127.006 29.443 127.006C30.037 127.006 30.5219 127.447 30.5219 127.987C30.5219 128.526 31.6469 129.25 33.0219 129.595C34.3969 129.94 35.5219 130.624 35.5219 131.114C35.5219 131.605 36.1969 132.006 37.0219 132.006C37.8469 132.006 38.5219 132.406 38.5219 132.895C38.5219 133.383 40.208 134.1 42.27 134.486C44.331 134.873 46.269 135.596 46.576 136.093C46.883 136.59 49.9209 137.287 53.3279 137.644C56.7349 138 59.5219 138.677 59.5219 139.148C59.5219 139.62 64.2469 140.006 70.0219 140.006C75.7969 140.006 80.5219 139.62 80.5219 139.148C80.5219 138.677 83.3089 138 86.716 137.644C90.123 137.287 93.16 136.613 93.466 136.145C93.772 135.677 95.7099 134.984 97.7719 134.605C99.8339 134.226 101.522 133.486 101.522 132.961C101.522 132.436 102.197 132.006 103.022 132.006C103.847 132.006 104.522 131.565 104.522 131.025C104.522 130.486 105.647 129.762 107.022 129.417C108.397 129.072 109.522 128.418 109.522 127.965C109.522 127.512 110.384 126.867 111.438 126.533C114.083 125.693 125.522 114.422 125.522 112.656C125.522 111.866 126.197 110.961 127.022 110.644C127.847 110.328 128.522 109.417 128.522 108.621C128.522 107.824 128.86 107.023 129.272 106.839C130.426 106.327 133.522 100.386 133.522 98.6848C133.522 97.8528 134.016 97.0078 134.62 96.8068C135.224 96.6048 135.958 94.3178 136.25 91.7228C136.543 89.1288 137.174 87.0058 137.652 87.0058C138.131 87.0058 138.522 85.2058 138.522 83.0058C138.522 80.8058 138.972 79.0058 139.522 79.0058C140.115 79.0058 140.522 75.3388 140.522 70.0058C140.522 64.6728 140.115 61.0057 139.522 61.0057C138.972 61.0057 138.522 59.2327 138.522 57.0647C138.522 54.8967 138.114 52.8717 137.616 52.5637C137.117 52.2557 136.4 49.7537 136.022 47.0047C135.644 44.2547 134.975 42.0057 134.537 42.0057C134.098 42.0057 133.435 40.7947 133.063 39.3147C132.692 37.8347 131.583 35.9227 130.598 35.0647C129.614 34.2077 128.488 32.4928 128.098 31.2558C127.707 30.0188 126.968 29.0058 126.455 29.0058C125.942 29.0058 125.521 28.4438 125.521 27.7558C125.52 27.0688 124.164 25.1558 122.506 23.5058C120.849 21.8558 117.852 18.8188 115.847 16.7558C113.841 14.6938 111.62 13.0057 110.911 13.0057C110.202 13.0057 109.262 12.4187 108.822 11.7017C107.975 10.3217 101.479 7.00575 99.6209 7.00575C99.0159 7.00575 98.5219 6.56075 98.5219 6.01775C98.5219 5.47375 96.7219 4.74175 94.5219 4.38975C92.3219 4.03775 90.5219 3.35775 90.5219 2.87775C90.5219 2.39775 88.9739 2.00575 87.0809 2.00575C85.1879 2.00575 83.3619 1.55575 83.0219 1.00575C82.1929 -0.33525 56.5219 -0.33525 56.5219 1.00575Z" fill="black"/>
<path fill-rule="evenodd" clip-rule="evenodd" d="M56.5219 1.00575C56.5219 1.55575 54.9469 2.00575 53.0219 2.00575C51.0969 2.00575 49.5219 2.42775 49.5219 2.94475C49.5219 3.46075 47.4969 4.18675 45.0219 4.55775C42.5469 4.92875 40.5219 5.58275 40.5219 6.01075C40.5219 6.43875 39.3109 7.09275 37.8309 7.46475C36.3509 7.83575 34.4389 8.94475 33.5809 9.92975C32.7239 10.9137 31.0089 12.0397 29.7719 12.4297C28.5349 12.8207 27.5219 13.5597 27.5219 14.0727C27.5219 14.5857 26.9599 15.0127 26.2719 15.0207C24.7509 15.0377 15.132 24.8128 14.23 27.2558C13.875 28.2178 13.169 29.0058 12.662 29.0058C12.154 29.0058 11.456 30.1308 11.111 31.5058C10.766 32.8808 10.0419 34.0057 9.50295 34.0057C8.96295 34.0057 8.52195 34.6807 8.52195 35.5057C8.52195 36.3307 8.10795 37.0057 7.60095 37.0057C7.09495 37.0057 6.37795 38.3858 6.00695 40.0728C5.63695 41.7598 4.70395 44.3478 3.93395 45.8228C3.16395 47.2988 2.53195 49.9677 2.52795 51.7557C2.52495 53.5427 2.07195 55.0057 1.52195 55.0057C0.22595 55.0057 0.17595 83.3968 1.46695 85.7698C1.98695 86.7248 2.68295 89.1938 3.01295 91.2558C3.34295 93.3188 3.98495 95.0058 4.43995 95.0058C4.89395 95.0058 5.55395 96.8058 5.90595 99.0058C6.25795 101.206 6.91895 103.006 7.37595 103.006C7.83295 103.006 9.06495 104.694 10.1149 106.756C11.1639 108.819 13.484 111.99 15.272 113.804C17.06 115.618 18.5219 117.531 18.5219 118.054C18.5219 118.578 18.8999 119.006 19.3629 119.006C19.8249 119.006 22.04 120.806 24.284 123.006C26.529 125.206 28.85 127.006 29.443 127.006C30.037 127.006 30.5219 127.447 30.5219 127.987C30.5219 128.526 31.6469 129.25 33.0219 129.595C34.3969 129.94 35.5219 130.624 35.5219 131.114C35.5219 131.605 36.1969 132.006 37.0219 132.006C37.8469 132.006 38.5219 132.406 38.5219 132.895C38.5219 133.383 40.208 134.1 42.27 134.486C44.331 134.873 46.269 135.596 46.576 136.093C46.883 136.59 49.9209 137.287 53.3279 137.644C56.7349 138 59.5219 138.677 59.5219 139.148C59.5219 139.62 64.2469 140.006 70.0219 140.006C75.7969 140.006 80.5219 139.62 80.5219 139.148C80.5219 138.677 83.3089 138 86.716 137.644C90.123 137.287 93.16 136.613 93.466 136.145C93.772 135.677 95.7099 134.984 97.7719 134.605C99.8339 134.226 101.522 133.486 101.522 132.961C101.522 132.436 102.197 132.006 103.022 132.006C103.847 132.006 104.522 131.565 104.522 131.025C104.522 130.486 105.647 129.762 107.022 129.417C108.397 129.072 109.522 128.418 109.522 127.965C109.522 127.512 110.384 126.867 111.438 126.533C114.083 125.693 125.522 114.422 125.522 112.656C125.522 111.866 126.197 110.961 127.022 110.644C127.847 110.328 128.522 109.417 128.522 108.621C128.522 107.824 128.86 107.023 129.272 106.839C130.426 106.327 133.522 100.386 133.522 98.6848C133.522 97.8528 134.016 97.0078 134.62 96.8068C135.224 96.6048 135.958 94.3178 136.25 91.7228C136.543 89.1288 137.174 87.0058 137.652 87.0058C138.131 87.0058 138.522 85.2058 138.522 83.0058C138.522 80.8058 138.972 79.0058 139.522 79.0058C140.115 79.0058 140.522 75.3388 140.522 70.0058C140.522 64.6728 140.115 61.0057 139.522 61.0057C138.972 61.0057 138.522 59.2327 138.522 57.0647C138.522 54.8967 138.114 52.8717 137.616 52.5637C137.117 52.2557 136.4 49.7537 136.022 47.0047C135.644 44.2547 134.975 42.0057 134.537 42.0057C134.098 42.0057 133.435 40.7947 133.063 39.3147C132.692 37.8347 131.583 35.9227 130.598 35.0647C129.614 34.2077 128.488 32.4928 128.098 31.2558C127.707 30.0188 126.968 29.0058 126.455 29.0058C125.942 29.0058 125.521 28.4438 125.521 27.7558C125.52 27.0688 124.164 25.1558 122.506 23.5058C120.849 21.8558 117.852 18.8188 115.847 16.7558C113.841 14.6938 111.62 13.0057 110.911 13.0057C110.202 13.0057 109.262 12.4187 108.822 11.7017C107.975 10.3217 101.479 7.00575 99.6209 7.00575C99.0159 7.00575 98.5219 6.56075 98.5219 6.01775C98.5219 5.47375 96.7219 4.74175 94.5219 4.38975C92.3219 4.03775 90.5219 3.35775 90.5219 2.87775C90.5219 2.39775 88.9739 2.00575 87.0809 2.00575C85.1879 2.00575 83.3619 1.55575 83.0219 1.00575C82.1929 -0.33525 56.5219 -0.33525 56.5219 1.00575Z" fill="black"/>
</svg>
