<svg width="140" height="140" viewBox="0 0 140 140" fill="none" xmlns="http://www.w3.org/2000/svg">
<path fill-rule="evenodd" clip-rule="evenodd" d="M59 1C59 1.55 57.2 2 55 2C52.8 2 51 2.392 51 2.871C51 3.35 48.75 4.041 46 4.406C43.25 4.77 41 5.468 41 5.955C41 6.442 39.65 7.138 38 7.5C36.35 7.862 35 8.573 35 9.079C35 9.586 34.325 10 33.5 10C32.675 10 32 10.45 32 11C32 11.55 31.363 12 30.584 12C29.428 12 22.812 17.327 19.779 20.699C19.383 21.139 17.358 23.34 15.279 25.59C13.201 27.839 10.642 31.326 9.593 33.34C8.543 35.353 7.311 37 6.854 37C6.397 37 5.736 38.8 5.384 41C5.032 43.2 4.367 45 3.907 45C3.446 45 2.77 47.25 2.406 50C2.041 52.75 1.35 55 0.871 55C0.392 55 0 61.975 0 70.5C0 80.167 0.376 86 1 86C1.55 86 2.003 87.237 2.006 88.75C2.01 90.263 2.642 92.707 3.412 94.183C4.182 95.658 5.115 98.246 5.485 99.933C5.856 101.62 6.573 103 7.079 103C7.586 103 8 103.852 8 104.893C8 105.934 8.675 107.045 9.5 107.362C10.325 107.678 11 108.626 11 109.469C11 110.311 11.353 111 11.784 111C12.216 111 13.425 112.45 14.472 114.221C16.446 117.563 19.274 120.468 24.261 124.276C25.862 125.499 27.715 126.95 28.379 127.5C30.508 129.266 33.452 131.042 35.25 131.646C36.213 131.969 37 132.61 37 133.071C37 133.532 38.688 134.22 40.75 134.599C42.813 134.978 44.759 135.685 45.075 136.171C45.392 136.656 47.979 137.329 50.825 137.666C53.671 138.003 56 138.666 56 139.139C56 139.613 61.85 140 69 140C76.15 140 82 139.613 82 139.14C82 138.667 84.362 138.03 87.25 137.726C90.138 137.421 93.85 136.461 95.5 135.592C97.15 134.723 99.063 134.01 99.75 134.006C100.438 134.003 101 133.55 101 133C101 132.45 101.675 132 102.5 132C103.325 132 104 131.55 104 131C104 130.45 104.914 130 106.031 130C107.149 130 108.322 129.325 108.638 128.5C108.955 127.675 109.816 127 110.551 127C112.294 127 125 114.294 125 112.551C125 111.816 125.675 110.955 126.5 110.638C127.325 110.322 128 109.473 128 108.752C128 108.031 128.883 106.805 129.963 106.027C131.043 105.248 132.204 103.349 132.543 101.806C132.882 100.263 133.551 99 134.03 99C134.509 99 135.206 96.3 135.58 93C135.953 89.7 136.65 87 137.129 87C137.608 87 138 85.2 138 83C138 80.8 138.45 79 139 79C139.593 79 140 75.333 140 70C140 64.667 139.593 61 139 61C138.45 61 138 59.2 138 57C138 54.8 137.55 53 137 53C136.45 53 136 51.831 136 50.401C136 46.744 130.439 34 128.843 34C128.379 34 128 33.357 128 32.571C128 31.786 127.384 30.527 126.632 29.775C125.879 29.022 124.949 27.415 124.565 26.203C124.18 24.992 123.48 24 123.01 24C121.896 24 116 18.104 116 16.99C116 16.52 114.988 15.817 113.75 15.428C112.512 15.04 110.509 13.66 109.298 12.361C108.087 11.062 106.399 10 105.548 10C104.696 10 104 9.586 104 9.079C104 8.573 102.65 7.862 101 7.5C99.35 7.138 98 6.478 98 6.034C98 5.59 95.985 4.925 93.523 4.556C91.061 4.187 88.785 3.46 88.464 2.942C88.144 2.424 86.36 2 84.5 2C82.64 2 80.84 1.55 80.5 1C80.152 0.437 75.323 0 69.441 0C63.147 0 59 0.397 59 1ZM67 70.144V134.288L58.783 133.602C54.264 133.225 50.327 132.551 50.033 132.103C49.74 131.655 47.813 130.978 45.75 130.599C43.688 130.22 42 129.48 42 128.955C42 128.43 41.325 128 40.5 128C39.675 128 39 127.599 39 127.108C39 126.618 37.875 125.934 36.5 125.589C35.125 125.244 34 124.52 34 123.981C34 123.441 33.505 123 32.9 123C31.98 123 27.677 119.318 23.5 114.956C22.95 114.381 21.262 112.645 19.75 111.097C18.237 109.55 17 107.77 17 107.142C17 106.514 16.559 106 16.019 106C15.48 106 14.756 104.875 14.411 103.5C14.066 102.125 13.382 101 12.892 101C12.401 101 12 100.325 12 99.5C12 98.675 11.6 98 11.111 98C10.623 98 9.906 96.314 9.52 94.252C9.133 92.191 8.388 90.24 7.864 89.916C7.34 89.592 6.64 86.089 6.308 82.131C5.976 78.174 5.321 74.698 4.852 74.409C3.739 73.72 3.742 67 4.856 67C5.326 67 5.972 63.557 6.29 59.35C6.608 55.142 7.283 51.429 7.79 51.1C8.297 50.77 9.022 48.813 9.401 46.75C9.78 44.688 10.414 43 10.809 43C11.205 43 12.308 41.2 13.261 39C14.214 36.8 15.445 35 15.997 35C16.549 35 17 34.35 17 33.556C17 31.737 29.643 19 31.449 19C32.184 19 33.045 18.325 33.362 17.5C33.678 16.675 34.601 16 35.412 16C36.223 16 37.49 15.139 38.227 14.086C38.965 13.033 41.24 11.858 43.284 11.475C45.328 11.091 47 10.41 47 9.961C47 9.511 49.475 8.835 52.5 8.457C55.525 8.079 58 7.371 58 6.885C58 6.398 60.025 6 62.5 6H67V70.144Z" fill="black"/>
<path fill-rule="evenodd" clip-rule="evenodd" d="M59 1C59 1.55 57.2 2 55 2C52.8 2 51 2.392 51 2.871C51 3.35 48.75 4.041 46 4.406C43.25 4.77 41 5.468 41 5.955C41 6.442 39.65 7.138 38 7.5C36.35 7.862 35 8.573 35 9.079C35 9.586 34.325 10 33.5 10C32.675 10 32 10.45 32 11C32 11.55 31.363 12 30.584 12C29.428 12 22.812 17.327 19.779 20.699C19.383 21.139 17.358 23.34 15.279 25.59C13.201 27.839 10.642 31.326 9.593 33.34C8.543 35.353 7.311 37 6.854 37C6.397 37 5.736 38.8 5.384 41C5.032 43.2 4.367 45 3.907 45C3.446 45 2.77 47.25 2.406 50C2.041 52.75 1.35 55 0.871 55C0.392 55 0 61.975 0 70.5C0 80.167 0.376 86 1 86C1.55 86 2.003 87.237 2.006 88.75C2.01 90.263 2.642 92.707 3.412 94.183C4.182 95.658 5.115 98.246 5.485 99.933C5.856 101.62 6.573 103 7.079 103C7.586 103 8 103.852 8 104.893C8 105.934 8.675 107.045 9.5 107.362C10.325 107.678 11 108.626 11 109.469C11 110.311 11.353 111 11.784 111C12.216 111 13.425 112.45 14.472 114.221C16.446 117.563 19.274 120.468 24.261 124.276C25.862 125.499 27.715 126.95 28.379 127.5C30.508 129.266 33.452 131.042 35.25 131.646C36.213 131.969 37 132.61 37 133.071C37 133.532 38.688 134.22 40.75 134.599C42.813 134.978 44.759 135.685 45.075 136.171C45.392 136.656 47.979 137.329 50.825 137.666C53.671 138.003 56 138.666 56 139.139C56 139.613 61.85 140 69 140C76.15 140 82 139.613 82 139.14C82 138.667 84.362 138.03 87.25 137.726C90.138 137.421 93.85 136.461 95.5 135.592C97.15 134.723 99.063 134.01 99.75 134.006C100.438 134.003 101 133.55 101 133C101 132.45 101.675 132 102.5 132C103.325 132 104 131.55 104 131C104 130.45 104.914 130 106.031 130C107.149 130 108.322 129.325 108.638 128.5C108.955 127.675 109.816 127 110.551 127C112.294 127 125 114.294 125 112.551C125 111.816 125.675 110.955 126.5 110.638C127.325 110.322 128 109.473 128 108.752C128 108.031 128.883 106.805 129.963 106.027C131.043 105.248 132.204 103.349 132.543 101.806C132.882 100.263 133.551 99 134.03 99C134.509 99 135.206 96.3 135.58 93C135.953 89.7 136.65 87 137.129 87C137.608 87 138 85.2 138 83C138 80.8 138.45 79 139 79C139.593 79 140 75.333 140 70C140 64.667 139.593 61 139 61C138.45 61 138 59.2 138 57C138 54.8 137.55 53 137 53C136.45 53 136 51.831 136 50.401C136 46.744 130.439 34 128.843 34C128.379 34 128 33.357 128 32.571C128 31.786 127.384 30.527 126.632 29.775C125.879 29.022 124.949 27.415 124.565 26.203C124.18 24.992 123.48 24 123.01 24C121.896 24 116 18.104 116 16.99C116 16.52 114.988 15.817 113.75 15.428C112.512 15.04 110.509 13.66 109.298 12.361C108.087 11.062 106.399 10 105.548 10C104.696 10 104 9.586 104 9.079C104 8.573 102.65 7.862 101 7.5C99.35 7.138 98 6.478 98 6.034C98 5.59 95.985 4.925 93.523 4.556C91.061 4.187 88.785 3.46 88.464 2.942C88.144 2.424 86.36 2 84.5 2C82.64 2 80.84 1.55 80.5 1C80.152 0.437 75.323 0 69.441 0C63.147 0 59 0.397 59 1ZM67 70.144V134.288L58.783 133.602C54.264 133.225 50.327 132.551 50.033 132.103C49.74 131.655 47.813 130.978 45.75 130.599C43.688 130.22 42 129.48 42 128.955C42 128.43 41.325 128 40.5 128C39.675 128 39 127.599 39 127.108C39 126.618 37.875 125.934 36.5 125.589C35.125 125.244 34 124.52 34 123.981C34 123.441 33.505 123 32.9 123C31.98 123 27.677 119.318 23.5 114.956C22.95 114.381 21.262 112.645 19.75 111.097C18.237 109.55 17 107.77 17 107.142C17 106.514 16.559 106 16.019 106C15.48 106 14.756 104.875 14.411 103.5C14.066 102.125 13.382 101 12.892 101C12.401 101 12 100.325 12 99.5C12 98.675 11.6 98 11.111 98C10.623 98 9.906 96.314 9.52 94.252C9.133 92.191 8.388 90.24 7.864 89.916C7.34 89.592 6.64 86.089 6.308 82.131C5.976 78.174 5.321 74.698 4.852 74.409C3.739 73.72 3.742 67 4.856 67C5.326 67 5.972 63.557 6.29 59.35C6.608 55.142 7.283 51.429 7.79 51.1C8.297 50.77 9.022 48.813 9.401 46.75C9.78 44.688 10.414 43 10.809 43C11.205 43 12.308 41.2 13.261 39C14.214 36.8 15.445 35 15.997 35C16.549 35 17 34.35 17 33.556C17 31.737 29.643 19 31.449 19C32.184 19 33.045 18.325 33.362 17.5C33.678 16.675 34.601 16 35.412 16C36.223 16 37.49 15.139 38.227 14.086C38.965 13.033 41.24 11.858 43.284 11.475C45.328 11.091 47 10.41 47 9.961C47 9.511 49.475 8.835 52.5 8.457C55.525 8.079 58 7.371 58 6.885C58 6.398 60.025 6 62.5 6H67V70.144Z" fill="black"/>
<path fill-rule="evenodd" clip-rule="evenodd" d="M59 1C59 1.55 57.2 2 55 2C52.8 2 51 2.392 51 2.871C51 3.35 48.75 4.041 46 4.406C43.25 4.77 41 5.468 41 5.955C41 6.442 39.65 7.138 38 7.5C36.35 7.862 35 8.573 35 9.079C35 9.586 34.325 10 33.5 10C32.675 10 32 10.45 32 11C32 11.55 31.363 12 30.584 12C29.428 12 22.812 17.327 19.779 20.699C19.383 21.139 17.358 23.34 15.279 25.59C13.201 27.839 10.642 31.326 9.593 33.34C8.543 35.353 7.311 37 6.854 37C6.397 37 5.736 38.8 5.384 41C5.032 43.2 4.367 45 3.907 45C3.446 45 2.77 47.25 2.406 50C2.041 52.75 1.35 55 0.871 55C0.392 55 0 61.975 0 70.5C0 80.167 0.376 86 1 86C1.55 86 2.003 87.237 2.006 88.75C2.01 90.263 2.642 92.707 3.412 94.183C4.182 95.658 5.115 98.246 5.485 99.933C5.856 101.62 6.573 103 7.079 103C7.586 103 8 103.852 8 104.893C8 105.934 8.675 107.045 9.5 107.362C10.325 107.678 11 108.626 11 109.469C11 110.311 11.353 111 11.784 111C12.216 111 13.425 112.45 14.472 114.221C16.446 117.563 19.274 120.468 24.261 124.276C25.862 125.499 27.715 126.95 28.379 127.5C30.508 129.266 33.452 131.042 35.25 131.646C36.213 131.969 37 132.61 37 133.071C37 133.532 38.688 134.22 40.75 134.599C42.813 134.978 44.759 135.685 45.075 136.171C45.392 136.656 47.979 137.329 50.825 137.666C53.671 138.003 56 138.666 56 139.139C56 139.613 61.85 140 69 140C76.15 140 82 139.613 82 139.14C82 138.667 84.362 138.03 87.25 137.726C90.138 137.421 93.85 136.461 95.5 135.592C97.15 134.723 99.063 134.01 99.75 134.006C100.438 134.003 101 133.55 101 133C101 132.45 101.675 132 102.5 132C103.325 132 104 131.55 104 131C104 130.45 104.914 130 106.031 130C107.149 130 108.322 129.325 108.638 128.5C108.955 127.675 109.816 127 110.551 127C112.294 127 125 114.294 125 112.551C125 111.816 125.675 110.955 126.5 110.638C127.325 110.322 128 109.473 128 108.752C128 108.031 128.883 106.805 129.963 106.027C131.043 105.248 132.204 103.349 132.543 101.806C132.882 100.263 133.551 99 134.03 99C134.509 99 135.206 96.3 135.58 93C135.953 89.7 136.65 87 137.129 87C137.608 87 138 85.2 138 83C138 80.8 138.45 79 139 79C139.593 79 140 75.333 140 70C140 64.667 139.593 61 139 61C138.45 61 138 59.2 138 57C138 54.8 137.55 53 137 53C136.45 53 136 51.831 136 50.401C136 46.744 130.439 34 128.843 34C128.379 34 128 33.357 128 32.571C128 31.786 127.384 30.527 126.632 29.775C125.879 29.022 124.949 27.415 124.565 26.203C124.18 24.992 123.48 24 123.01 24C121.896 24 116 18.104 116 16.99C116 16.52 114.988 15.817 113.75 15.428C112.512 15.04 110.509 13.66 109.298 12.361C108.087 11.062 106.399 10 105.548 10C104.696 10 104 9.586 104 9.079C104 8.573 102.65 7.862 101 7.5C99.35 7.138 98 6.478 98 6.034C98 5.59 95.985 4.925 93.523 4.556C91.061 4.187 88.785 3.46 88.464 2.942C88.144 2.424 86.36 2 84.5 2C82.64 2 80.84 1.55 80.5 1C80.152 0.437 75.323 0 69.441 0C63.147 0 59 0.397 59 1ZM67 70.144V134.288L58.783 133.602C54.264 133.225 50.327 132.551 50.033 132.103C49.74 131.655 47.813 130.978 45.75 130.599C43.688 130.22 42 129.48 42 128.955C42 128.43 41.325 128 40.5 128C39.675 128 39 127.599 39 127.108C39 126.618 37.875 125.934 36.5 125.589C35.125 125.244 34 124.52 34 123.981C34 123.441 33.505 123 32.9 123C31.98 123 27.677 119.318 23.5 114.956C22.95 114.381 21.262 112.645 19.75 111.097C18.237 109.55 17 107.77 17 107.142C17 106.514 16.559 106 16.019 106C15.48 106 14.756 104.875 14.411 103.5C14.066 102.125 13.382 101 12.892 101C12.401 101 12 100.325 12 99.5C12 98.675 11.6 98 11.111 98C10.623 98 9.906 96.314 9.52 94.252C9.133 92.191 8.388 90.24 7.864 89.916C7.34 89.592 6.64 86.089 6.308 82.131C5.976 78.174 5.321 74.698 4.852 74.409C3.739 73.72 3.742 67 4.856 67C5.326 67 5.972 63.557 6.29 59.35C6.608 55.142 7.283 51.429 7.79 51.1C8.297 50.77 9.022 48.813 9.401 46.75C9.78 44.688 10.414 43 10.809 43C11.205 43 12.308 41.2 13.261 39C14.214 36.8 15.445 35 15.997 35C16.549 35 17 34.35 17 33.556C17 31.737 29.643 19 31.449 19C32.184 19 33.045 18.325 33.362 17.5C33.678 16.675 34.601 16 35.412 16C36.223 16 37.49 15.139 38.227 14.086C38.965 13.033 41.24 11.858 43.284 11.475C45.328 11.091 47 10.41 47 9.961C47 9.511 49.475 8.835 52.5 8.457C55.525 8.079 58 7.371 58 6.885C58 6.398 60.025 6 62.5 6H67V70.144Z" fill="black"/>
</svg>
