<svg width="140" height="140" viewBox="0 0 140 140" fill="none" xmlns="http://www.w3.org/2000/svg">
<path fill-rule="evenodd" clip-rule="evenodd" d="M54 0.885C54 1.371 51.525 2.079 48.5 2.457C45.475 2.835 43 3.526 43 3.993C43 4.459 41.65 5.138 40 5.5C38.35 5.862 37 6.573 37 7.079C37 7.586 36.1 8 35 8C33.9 8 33 8.45 33 9C33 9.55 32.311 10 31.469 10C30.626 10 29.685 10.658 29.376 11.462C29.068 12.266 27.927 13.206 26.841 13.551C24.279 14.363 14.363 24.279 13.551 26.841C13.206 27.927 12.266 29.068 11.462 29.376C10.658 29.685 10 30.851 10 31.969C10 33.086 9.55 34 9 34C8.45 34 8 34.675 8 35.5C8 36.325 7.586 37 7.079 37C6.573 37 5.862 38.35 5.5 40C5.138 41.65 4.459 43 3.993 43C3.526 43 2.835 45.475 2.457 48.5C2.079 51.525 1.371 54 0.885 54C0.398 54 0 60.75 0 69C0 77.25 0.398 84 0.885 84C1.371 84 2.079 86.475 2.457 89.5C2.835 92.525 3.456 95 3.837 95C4.219 95 5.33 97.25 6.306 100C7.283 102.75 8.514 105 9.041 105C9.569 105 10 105.689 10 106.531C10 107.374 10.675 108.322 11.5 108.638C12.325 108.955 13 109.893 13 110.723C13 112.677 26.897 126.091 31.476 128.557C33.414 129.601 35 130.802 35 131.227C35 131.652 35.563 132.003 36.25 132.006C36.938 132.01 38.85 132.718 40.5 133.58C42.15 134.442 45.638 135.402 48.25 135.713C50.862 136.024 53 136.666 53 137.139C53 137.613 54.8 138 57 138C59.2 138 61 138.45 61 139C61 139.583 64.333 140 69 140C73.667 140 77 139.583 77 139C77 138.45 79.25 138 82 138C84.75 138 87 137.592 87 137.094C87 136.595 89.25 135.878 92 135.5C94.75 135.122 97 134.44 97 133.986C97 133.531 98.35 132.862 100 132.5C101.65 132.138 103 131.463 103 131C103 130.537 104.254 129.883 105.787 129.547C107.32 129.21 109.408 127.824 110.427 126.467C111.446 125.11 112.784 124 113.4 124C114.769 124 120 119.265 120 118.027C120 117.536 120.9 116.849 122 116.5C123.1 116.151 124 115.289 124 114.586C124 113.882 124.9 112.268 126 111C127.1 109.732 128 108.088 128 107.347C128 106.606 128.45 106 129 106C129.55 106 130 105.325 130 104.5C130 103.675 130.414 103 130.921 103C131.427 103 132.138 101.65 132.5 100C132.862 98.35 133.531 97 133.986 97C134.44 97 135.122 94.75 135.5 92C135.878 89.25 136.55 87 136.993 87C137.961 87 138.934 80.455 139.633 69.25C139.977 63.721 139.793 61 139.073 61C138.452 61 138 58.895 138 56C138 53.25 137.601 51 137.114 51C136.626 51 135.923 48.975 135.552 46.5C135.181 44.025 134.505 42 134.05 42C133.595 42 132.927 40.425 132.566 38.5C132.205 36.575 131.48 35 130.955 35C130.43 35 130 34.325 130 33.5C130 32.675 129.58 32 129.067 32C128.554 32 127.872 31.171 127.55 30.158C126.48 26.785 108.951 10 106.499 10C106.178 10 104.956 9.106 103.783 8.012C102.61 6.919 100.153 5.744 98.325 5.401C96.496 5.058 95 4.42 95 3.983C95 3.545 92.75 2.878 90 2.5C87.25 2.122 85 1.405 85 0.906C85 0.404 78.097 0 69.5 0C60.975 0 54 0.398 54 0.885ZM75 69V134H69H63V69V4H69H75V69Z" fill="#B9B9B9"/>
<path fill-rule="evenodd" clip-rule="evenodd" d="M54 0.885C54 1.371 51.525 2.079 48.5 2.457C45.475 2.835 43 3.526 43 3.993C43 4.459 41.65 5.138 40 5.5C38.35 5.862 37 6.573 37 7.079C37 7.586 36.1 8 35 8C33.9 8 33 8.45 33 9C33 9.55 32.311 10 31.469 10C30.626 10 29.685 10.658 29.376 11.462C29.068 12.266 27.927 13.206 26.841 13.551C24.279 14.363 14.363 24.279 13.551 26.841C13.206 27.927 12.266 29.068 11.462 29.376C10.658 29.685 10 30.851 10 31.969C10 33.086 9.55 34 9 34C8.45 34 8 34.675 8 35.5C8 36.325 7.586 37 7.079 37C6.573 37 5.862 38.35 5.5 40C5.138 41.65 4.459 43 3.993 43C3.526 43 2.835 45.475 2.457 48.5C2.079 51.525 1.371 54 0.885 54C0.398 54 0 60.75 0 69C0 77.25 0.398 84 0.885 84C1.371 84 2.079 86.475 2.457 89.5C2.835 92.525 3.456 95 3.837 95C4.219 95 5.33 97.25 6.306 100C7.283 102.75 8.514 105 9.041 105C9.569 105 10 105.689 10 106.531C10 107.374 10.675 108.322 11.5 108.638C12.325 108.955 13 109.893 13 110.723C13 112.677 26.897 126.091 31.476 128.557C33.414 129.601 35 130.802 35 131.227C35 131.652 35.563 132.003 36.25 132.006C36.938 132.01 38.85 132.718 40.5 133.58C42.15 134.442 45.638 135.402 48.25 135.713C50.862 136.024 53 136.666 53 137.139C53 137.613 54.8 138 57 138C59.2 138 61 138.45 61 139C61 139.583 64.333 140 69 140C73.667 140 77 139.583 77 139C77 138.45 79.25 138 82 138C84.75 138 87 137.592 87 137.094C87 136.595 89.25 135.878 92 135.5C94.75 135.122 97 134.44 97 133.986C97 133.531 98.35 132.862 100 132.5C101.65 132.138 103 131.463 103 131C103 130.537 104.254 129.883 105.787 129.547C107.32 129.21 109.408 127.824 110.427 126.467C111.446 125.11 112.784 124 113.4 124C114.769 124 120 119.265 120 118.027C120 117.536 120.9 116.849 122 116.5C123.1 116.151 124 115.289 124 114.586C124 113.882 124.9 112.268 126 111C127.1 109.732 128 108.088 128 107.347C128 106.606 128.45 106 129 106C129.55 106 130 105.325 130 104.5C130 103.675 130.414 103 130.921 103C131.427 103 132.138 101.65 132.5 100C132.862 98.35 133.531 97 133.986 97C134.44 97 135.122 94.75 135.5 92C135.878 89.25 136.55 87 136.993 87C137.961 87 138.934 80.455 139.633 69.25C139.977 63.721 139.793 61 139.073 61C138.452 61 138 58.895 138 56C138 53.25 137.601 51 137.114 51C136.626 51 135.923 48.975 135.552 46.5C135.181 44.025 134.505 42 134.05 42C133.595 42 132.927 40.425 132.566 38.5C132.205 36.575 131.48 35 130.955 35C130.43 35 130 34.325 130 33.5C130 32.675 129.58 32 129.067 32C128.554 32 127.872 31.171 127.55 30.158C126.48 26.785 108.951 10 106.499 10C106.178 10 104.956 9.106 103.783 8.012C102.61 6.919 100.153 5.744 98.325 5.401C96.496 5.058 95 4.42 95 3.983C95 3.545 92.75 2.878 90 2.5C87.25 2.122 85 1.405 85 0.906C85 0.404 78.097 0 69.5 0C60.975 0 54 0.398 54 0.885ZM75.757 69.25L75.5 134.5H69H62.5L62.243 69.25L61.986 4H69H76.014L75.757 69.25Z" fill="#8F8F8F"/>
<path fill-rule="evenodd" clip-rule="evenodd" d="M54 0.885C54 1.371 51.525 2.079 48.5 2.457C45.475 2.835 43 3.526 43 3.993C43 4.459 41.65 5.138 40 5.5C38.35 5.862 37 6.573 37 7.079C37 7.586 36.1 8 35 8C33.9 8 33 8.45 33 9C33 9.55 32.311 10 31.469 10C30.626 10 29.685 10.658 29.376 11.462C29.068 12.266 27.927 13.206 26.841 13.551C24.279 14.363 14.363 24.279 13.551 26.841C13.206 27.927 12.266 29.068 11.462 29.376C10.658 29.685 10 30.851 10 31.969C10 33.086 9.55 34 9 34C8.45 34 8 34.675 8 35.5C8 36.325 7.586 37 7.079 37C6.573 37 5.862 38.35 5.5 40C5.138 41.65 4.459 43 3.993 43C3.526 43 2.835 45.475 2.457 48.5C2.079 51.525 1.371 54 0.885 54C0.398 54 0 60.75 0 69C0 77.25 0.398 84 0.885 84C1.371 84 2.079 86.475 2.457 89.5C2.835 92.525 3.456 95 3.837 95C4.219 95 5.33 97.25 6.306 100C7.283 102.75 8.514 105 9.041 105C9.569 105 10 105.689 10 106.531C10 107.374 10.675 108.322 11.5 108.638C12.325 108.955 13 109.893 13 110.723C13 112.677 26.897 126.091 31.476 128.557C33.414 129.601 35 130.802 35 131.227C35 131.652 35.563 132.003 36.25 132.006C36.938 132.01 38.85 132.718 40.5 133.58C42.15 134.442 45.638 135.402 48.25 135.713C50.862 136.024 53 136.666 53 137.139C53 137.613 54.8 138 57 138C59.2 138 61 138.45 61 139C61 139.583 64.333 140 69 140C73.667 140 77 139.583 77 139C77 138.45 79.25 138 82 138C84.75 138 87 137.592 87 137.094C87 136.595 89.25 135.878 92 135.5C94.75 135.122 97 134.44 97 133.986C97 133.531 98.35 132.862 100 132.5C101.65 132.138 103 131.463 103 131C103 130.537 104.254 129.883 105.787 129.547C107.32 129.21 109.408 127.824 110.427 126.467C111.446 125.11 112.784 124 113.4 124C114.769 124 120 119.265 120 118.027C120 117.536 120.9 116.849 122 116.5C123.1 116.151 124 115.289 124 114.586C124 113.882 124.9 112.268 126 111C127.1 109.732 128 108.088 128 107.347C128 106.606 128.45 106 129 106C129.55 106 130 105.325 130 104.5C130 103.675 130.414 103 130.921 103C131.427 103 132.138 101.65 132.5 100C132.862 98.35 133.531 97 133.986 97C134.44 97 135.122 94.75 135.5 92C135.878 89.25 136.55 87 136.993 87C137.961 87 138.934 80.455 139.633 69.25C139.977 63.721 139.793 61 139.073 61C138.452 61 138 58.895 138 56C138 53.25 137.601 51 137.114 51C136.626 51 135.923 48.975 135.552 46.5C135.181 44.025 134.505 42 134.05 42C133.595 42 132.927 40.425 132.566 38.5C132.205 36.575 131.48 35 130.955 35C130.43 35 130 34.325 130 33.5C130 32.675 129.58 32 129.067 32C128.554 32 127.872 31.171 127.55 30.158C126.48 26.785 108.951 10 106.499 10C106.178 10 104.956 9.106 103.783 8.012C102.61 6.919 100.153 5.744 98.325 5.401C96.496 5.058 95 4.42 95 3.983C95 3.545 92.75 2.878 90 2.5C87.25 2.122 85 1.405 85 0.906C85 0.404 78.097 0 69.5 0C60.975 0 54 0.398 54 0.885ZM77 68.893C77 141.783 77.821 135 69 135C60.179 135 61 141.783 61 68.893V4H69H77V68.893Z" fill="#777777"/>
<path fill-rule="evenodd" clip-rule="evenodd" d="M54 0.971888C54 1.40989 51.525 2.07889 48.5 2.45689C45.475 2.83489 43 3.52589 43 3.99289C43 4.45889 41.65 5.13789 40 5.49989C38.35 5.86189 37 6.57289 37 7.07889C37 7.58589 36.1 7.99989 35 7.99989C33.9 7.99989 33 8.44989 33 8.99989C33 9.54989 32.311 9.99989 31.469 9.99989C30.626 9.99989 29.685 10.6579 29.376 11.4619C29.068 12.2659 27.927 13.2059 26.841 13.5509C24.279 14.3629 14.363 24.2789 13.551 26.8409C13.206 27.9269 12.266 29.0679 11.462 29.3759C10.658 29.6849 10 30.8509 10 31.9689C10 33.0859 9.55 33.9999 9 33.9999C8.45 33.9999 8 34.6749 8 35.4999C8 36.3249 7.586 36.9999 7.079 36.9999C6.573 36.9999 5.862 38.3499 5.5 39.9999C5.138 41.6499 4.459 42.9999 3.993 42.9999C3.526 42.9999 2.835 45.4749 2.457 48.4999C2.079 51.5249 1.371 53.9999 0.885 53.9999C0.398 53.9999 0 60.7499 0 68.9999C0 77.2499 0.398 83.9999 0.885 83.9999C1.371 83.9999 2.079 86.4749 2.457 89.4999C2.835 92.5249 3.456 94.9999 3.837 94.9999C4.219 94.9999 5.33 97.2499 6.306 99.9999C7.283 102.75 8.514 105 9.041 105C9.569 105 10 105.689 10 106.531C10 107.374 10.675 108.322 11.5 108.638C12.325 108.955 13 109.893 13 110.723C13 112.677 26.897 126.091 31.476 128.557C33.414 129.601 35 130.802 35 131.227C35 131.652 35.563 132.003 36.25 132.006C36.938 132.01 38.85 132.718 40.5 133.58C42.15 134.442 45.638 135.402 48.25 135.713C50.862 136.024 53 136.666 53 137.139C53 137.613 54.8 138 57 138C59.2 138 61 138.45 61 139C61 139.583 64.333 140 69 140C73.667 140 77 139.583 77 139C77 138.45 79.25 138 82 138C84.75 138 87 137.592 87 137.094C87 136.595 89.25 135.878 92 135.5C94.75 135.122 97 134.44 97 133.986C97 133.531 98.35 132.862 100 132.5C101.65 132.138 103 131.463 103 131C103 130.537 104.254 129.883 105.787 129.547C107.32 129.21 109.408 127.824 110.427 126.467C111.446 125.11 112.784 124 113.4 124C114.769 124 120 119.265 120 118.027C120 117.536 120.9 116.849 122 116.5C123.1 116.151 124 115.289 124 114.586C124 113.882 124.9 112.268 126 111C127.1 109.732 128 108.088 128 107.347C128 106.606 128.45 106 129 106C129.55 106 130 105.325 130 104.5C130 103.675 130.414 103 130.921 103C131.427 103 132.138 101.65 132.5 99.9999C132.862 98.3499 133.531 96.9999 133.986 96.9999C134.44 96.9999 135.122 94.7499 135.5 91.9999C135.878 89.2499 136.55 86.9999 136.993 86.9999C137.961 86.9999 138.934 80.4549 139.633 69.2499C139.977 63.7209 139.793 60.9999 139.073 60.9999C138.452 60.9999 138 58.8949 138 55.9999C138 53.2499 137.601 50.9999 137.114 50.9999C136.626 50.9999 135.923 48.9749 135.552 46.4999C135.181 44.0249 134.505 41.9999 134.05 41.9999C133.595 41.9999 132.927 40.4249 132.566 38.4999C132.205 36.5749 131.48 34.9999 130.955 34.9999C130.43 34.9999 130 34.3249 130 33.4999C130 32.6749 129.58 31.9999 129.067 31.9999C128.554 31.9999 127.872 31.1709 127.55 30.1579C126.48 26.7849 108.951 9.99989 106.499 9.99989C106.178 9.99989 104.956 9.10589 103.783 8.01189C102.61 6.91889 100.153 5.74389 98.325 5.40089C96.496 5.05789 95 4.41989 95 3.98289C95 3.54489 92.75 2.87789 90 2.49989C87.25 2.12189 85 1.42789 85 0.957888C85 0.487888 78.025 0.119887 69.5 0.138887C60.975 0.157887 54 0.532888 54 0.971888ZM76.757 69.2129L76.5 134.425L73.255 135.356C71.3 135.917 68.319 135.93 65.755 135.389L61.5 134.491L61.243 69.2459L60.986 3.99989H69H77.014L76.757 69.2129Z" fill="#515151"/>
<path fill-rule="evenodd" clip-rule="evenodd" d="M54 1.13489C54 1.48389 51.525 2.07889 48.5 2.45689C45.475 2.83489 43 3.52589 43 3.99289C43 4.45889 41.65 5.13789 40 5.49989C38.35 5.86189 37 6.57289 37 7.07889C37 7.58589 36.1 7.99989 35 7.99989C33.9 7.99989 33 8.44989 33 8.99989C33 9.54989 32.311 9.99989 31.469 9.99989C30.626 9.99989 29.685 10.6579 29.376 11.4619C29.068 12.2659 27.927 13.2059 26.841 13.5509C24.279 14.3629 14.363 24.2789 13.551 26.8409C13.206 27.9269 12.266 29.0679 11.462 29.3759C10.658 29.6849 10 30.8509 10 31.9689C10 33.0859 9.55 33.9999 9 33.9999C8.45 33.9999 8 34.6749 8 35.4999C8 36.3249 7.586 36.9999 7.079 36.9999C6.573 36.9999 5.862 38.3499 5.5 39.9999C5.138 41.6499 4.459 42.9999 3.993 42.9999C3.526 42.9999 2.835 45.4749 2.457 48.4999C2.079 51.5249 1.371 53.9999 0.885 53.9999C0.398 53.9999 0 60.7499 0 68.9999C0 77.2499 0.398 83.9999 0.885 83.9999C1.371 83.9999 2.079 86.4749 2.457 89.4999C2.835 92.5249 3.456 94.9999 3.837 94.9999C4.219 94.9999 5.33 97.2499 6.306 99.9999C7.283 102.75 8.514 105 9.041 105C9.569 105 10 105.689 10 106.531C10 107.374 10.675 108.322 11.5 108.638C12.325 108.955 13 109.893 13 110.723C13 112.677 26.897 126.091 31.476 128.557C33.414 129.601 35 130.802 35 131.227C35 131.652 35.563 132.003 36.25 132.006C36.938 132.01 38.85 132.718 40.5 133.58C42.15 134.442 45.638 135.402 48.25 135.713C50.862 136.024 53 136.666 53 137.139C53 137.613 54.8 138 57 138C59.2 138 61 138.45 61 139C61 139.583 64.333 140 69 140C73.667 140 77 139.583 77 139C77 138.45 79.25 138 82 138C84.75 138 87 137.592 87 137.094C87 136.595 89.25 135.878 92 135.5C94.75 135.122 97 134.44 97 133.986C97 133.531 98.35 132.862 100 132.5C101.65 132.138 103 131.463 103 131C103 130.537 104.254 129.883 105.787 129.547C107.32 129.21 109.408 127.824 110.427 126.467C111.446 125.11 112.784 124 113.4 124C114.769 124 120 119.265 120 118.027C120 117.536 120.9 116.849 122 116.5C123.1 116.151 124 115.289 124 114.586C124 113.882 124.9 112.268 126 111C127.1 109.732 128 108.088 128 107.347C128 106.606 128.45 106 129 106C129.55 106 130 105.325 130 104.5C130 103.675 130.414 103 130.921 103C131.427 103 132.138 101.65 132.5 99.9999C132.862 98.3499 133.531 96.9999 133.986 96.9999C134.44 96.9999 135.122 94.7499 135.5 91.9999C135.878 89.2499 136.55 86.9999 136.993 86.9999C137.961 86.9999 138.934 80.4549 139.633 69.2499C139.977 63.7209 139.793 60.9999 139.073 60.9999C138.452 60.9999 138 58.8949 138 55.9999C138 53.2499 137.601 50.9999 137.114 50.9999C136.626 50.9999 135.923 48.9749 135.552 46.4999C135.181 44.0249 134.505 41.9999 134.05 41.9999C133.595 41.9999 132.927 40.4249 132.566 38.4999C132.205 36.5749 131.48 34.9999 130.955 34.9999C130.43 34.9999 130 34.3249 130 33.4999C130 32.6749 129.58 31.9999 129.067 31.9999C128.554 31.9999 127.872 31.1709 127.55 30.1579C126.48 26.7849 108.951 9.99989 106.499 9.99989C106.178 9.99989 104.956 9.10589 103.783 8.01189C102.61 6.91889 100.153 5.74389 98.325 5.40089C96.496 5.05789 95 4.41989 95 3.98289C95 3.54489 92.75 2.87789 90 2.49989C87.25 2.12189 85 1.50689 85 1.13389C85 0.760893 78.025 0.465893 69.5 0.477893C60.975 0.489893 54 0.785893 54 1.13489ZM74.75 3.62989L77 4.23289V69.5099C77 142.831 77.822 136 69 136C60.178 136 61 142.836 61 69.4629V4.13889L63.25 3.70589C66.847 3.01289 72.312 2.97689 74.75 3.62989Z" fill="#404040"/>
<path fill-rule="evenodd" clip-rule="evenodd" d="M54 0.885C54 1.371 51.525 2.079 48.5 2.457C45.475 2.835 43 3.526 43 3.993C43 4.459 41.65 5.138 40 5.5C38.35 5.862 37 6.573 37 7.079C37 7.586 36.1 8 35 8C33.9 8 33 8.45 33 9C33 9.55 32.311 10 31.469 10C30.626 10 29.685 10.658 29.376 11.462C29.068 12.266 27.927 13.206 26.841 13.551C24.279 14.363 14.363 24.279 13.551 26.841C13.206 27.927 12.266 29.068 11.462 29.376C10.658 29.685 10 30.851 10 31.969C10 33.086 9.55 34 9 34C8.45 34 8 34.675 8 35.5C8 36.325 7.586 37 7.079 37C6.573 37 5.862 38.35 5.5 40C5.138 41.65 4.459 43 3.993 43C3.526 43 2.835 45.475 2.457 48.5C2.079 51.525 1.371 54 0.885 54C0.398 54 0 60.75 0 69C0 77.25 0.398 84 0.885 84C1.371 84 2.079 86.475 2.457 89.5C2.835 92.525 3.456 95 3.837 95C4.219 95 5.33 97.25 6.306 100C7.283 102.75 8.514 105 9.041 105C9.569 105 10 105.689 10 106.531C10 107.374 10.675 108.322 11.5 108.638C12.325 108.955 13 109.893 13 110.723C13 112.677 26.897 126.091 31.476 128.557C33.414 129.601 35 130.802 35 131.227C35 131.652 35.563 132.003 36.25 132.006C36.938 132.01 38.85 132.718 40.5 133.58C42.15 134.442 45.638 135.402 48.25 135.713C50.862 136.024 53 136.666 53 137.139C53 137.613 54.8 138 57 138C59.2 138 61 138.45 61 139C61 139.583 64.333 140 69 140C73.667 140 77 139.583 77 139C77 138.45 79.25 138 82 138C84.75 138 87 137.592 87 137.094C87 136.595 89.25 135.878 92 135.5C94.75 135.122 97 134.44 97 133.986C97 133.531 98.35 132.862 100 132.5C101.65 132.138 103 131.463 103 131C103 130.537 104.254 129.883 105.787 129.547C107.32 129.21 109.408 127.824 110.427 126.467C111.446 125.11 112.784 124 113.4 124C114.769 124 120 119.265 120 118.027C120 117.536 120.9 116.849 122 116.5C123.1 116.151 124 115.289 124 114.586C124 113.882 124.9 112.268 126 111C127.1 109.732 128 108.088 128 107.347C128 106.606 128.45 106 129 106C129.55 106 130 105.325 130 104.5C130 103.675 130.414 103 130.921 103C131.427 103 132.138 101.65 132.5 100C132.862 98.35 133.531 97 133.986 97C134.44 97 135.122 94.75 135.5 92C135.878 89.25 136.55 87 136.993 87C137.961 87 138.934 80.455 139.633 69.25C139.977 63.721 139.793 61 139.073 61C138.452 61 138 58.895 138 56C138 53.25 137.601 51 137.114 51C136.626 51 135.923 48.975 135.552 46.5C135.181 44.025 134.505 42 134.05 42C133.595 42 132.927 40.425 132.566 38.5C132.205 36.575 131.48 35 130.955 35C130.43 35 130 34.325 130 33.5C130 32.675 129.58 32 129.067 32C128.554 32 127.872 31.171 127.55 30.158C126.48 26.785 108.951 10 106.499 10C106.178 10 104.956 9.106 103.783 8.012C102.61 6.919 100.153 5.744 98.325 5.401C96.496 5.058 95 4.42 95 3.983C95 3.545 92.75 2.878 90 2.5C87.25 2.122 85 1.359 85 0.805C85 0.199 83.111 0.00299987 80.25 0.311C70.896 1.321 61 1.568 61 0.791C61 0.356 59.425 0 57.5 0C55.575 0 54 0.398 54 0.885ZM76.5 69.5V135.5H69H61.5L61.243 70.064C61.039 18.386 61.25 4.454 62.243 3.806C62.934 3.354 66.425 3.1 70 3.242L76.5 3.5V69.5Z" fill="#202020"/>
<path fill-rule="evenodd" clip-rule="evenodd" d="M54 0.885C54 1.371 51.525 2.079 48.5 2.457C45.475 2.835 43 3.526 43 3.993C43 4.459 41.65 5.138 40 5.5C38.35 5.862 37 6.573 37 7.079C37 7.586 36.1 8 35 8C33.9 8 33 8.45 33 9C33 9.55 32.311 10 31.469 10C30.626 10 29.685 10.658 29.376 11.462C29.068 12.266 27.927 13.206 26.841 13.551C24.279 14.363 14.363 24.279 13.551 26.841C13.206 27.927 12.266 29.068 11.462 29.376C10.658 29.685 10 30.851 10 31.969C10 33.086 9.55 34 9 34C8.45 34 8 34.675 8 35.5C8 36.325 7.586 37 7.079 37C6.573 37 5.862 38.35 5.5 40C5.138 41.65 4.459 43 3.993 43C3.526 43 2.835 45.475 2.457 48.5C2.079 51.525 1.371 54 0.885 54C0.398 54 0 60.75 0 69C0 77.25 0.398 84 0.885 84C1.371 84 2.079 86.475 2.457 89.5C2.835 92.525 3.456 95 3.837 95C4.219 95 5.33 97.25 6.306 100C7.283 102.75 8.514 105 9.041 105C9.569 105 10 105.689 10 106.531C10 107.374 10.675 108.322 11.5 108.638C12.325 108.955 13 109.893 13 110.723C13 112.677 26.897 126.091 31.476 128.557C33.414 129.601 35 130.802 35 131.227C35 131.652 35.563 132.003 36.25 132.006C36.938 132.01 38.85 132.718 40.5 133.58C42.15 134.442 45.638 135.402 48.25 135.713C50.862 136.024 53 136.666 53 137.139C53 137.613 54.8 138 57 138C59.2 138 61 138.45 61 139C61 139.583 64.333 140 69 140C73.667 140 77 139.583 77 139C77 138.45 79.25 138 82 138C84.75 138 87 137.592 87 137.094C87 136.595 89.25 135.878 92 135.5C94.75 135.122 97 134.44 97 133.986C97 133.531 98.35 132.862 100 132.5C101.65 132.138 103 131.463 103 131C103 130.537 104.254 129.883 105.787 129.547C107.32 129.21 109.408 127.824 110.427 126.467C111.446 125.11 112.784 124 113.4 124C114.769 124 120 119.265 120 118.027C120 117.536 120.9 116.849 122 116.5C123.1 116.151 124 115.289 124 114.586C124 113.882 124.9 112.268 126 111C127.1 109.732 128 108.088 128 107.347C128 106.606 128.45 106 129 106C129.55 106 130 105.325 130 104.5C130 103.675 130.414 103 130.921 103C131.427 103 132.138 101.65 132.5 100C132.862 98.35 133.531 97 133.986 97C134.44 97 135.122 94.75 135.5 92C135.878 89.25 136.55 87 136.993 87C137.961 87 138.934 80.455 139.633 69.25C139.977 63.721 139.793 61 139.073 61C138.452 61 138 58.895 138 56C138 53.25 137.601 51 137.114 51C136.626 51 135.923 48.975 135.552 46.5C135.181 44.025 134.505 42 134.05 42C133.595 42 132.927 40.425 132.566 38.5C132.205 36.575 131.48 35 130.955 35C130.43 35 130 34.325 130 33.5C130 32.675 129.58 32 129.067 32C128.554 32 127.872 31.171 127.55 30.158C126.48 26.785 108.951 10 106.499 10C106.178 10 104.956 9.106 103.783 8.012C102.61 6.919 100.153 5.744 98.325 5.401C96.496 5.058 95 4.42 95 3.983C95 3.545 92.75 2.878 90 2.5C87.25 2.122 85 1.405 85 0.906C85 0.408 83.2 0 81 0C78.8 0 77 0.419 77 0.93C77 1.442 75.987 2.056 74.75 2.294L72.5 2.728L74.75 2.864L77 3V69.5V136H69H61V69.566V3.133L63.75 2.716L66.5 2.3L63.75 2.15C62.237 2.067 61 1.55 61 1C61 0.45 59.425 0 57.5 0C55.575 0 54 0.398 54 0.885Z" fill="black"/>
</svg>
