<svg width="140" height="140" viewBox="0 0 140 140" fill="none" xmlns="http://www.w3.org/2000/svg">
<path fill-rule="evenodd" clip-rule="evenodd" d="M56 0.861C56 1.334 53.671 1.997 50.825 2.334C47.979 2.671 45.392 3.344 45.075 3.829C44.759 4.315 42.813 5.022 40.75 5.401C38.688 5.78 37 6.468 37 6.929C37 7.39 36.213 8.031 35.25 8.354C33.149 9.06 30.327 10.87 27.615 13.251C26.518 14.214 24.243 15.948 22.56 17.105C20.877 18.261 17.928 21.298 16.006 23.854C14.085 26.409 12.233 28.725 11.891 29C11.549 29.275 10.954 30.512 10.567 31.75C10.181 32.987 9.446 34 8.933 34C8.42 34 8 34.675 8 35.5C8 36.325 7.586 37 7.079 37C6.573 37 5.856 38.38 5.485 40.067C5.115 41.754 4.182 44.342 3.412 45.817C2.642 47.293 2.01 49.737 2.006 51.25C2.003 52.763 1.55 54 1 54C0.376 54 0 59.833 0 69.5C0 78.025 0.391001 85 0.870001 85C1.348 85 1.974 87.081 2.261 89.624C2.548 92.167 3.216 94.529 3.747 94.874C4.277 95.218 5.022 97.188 5.401 99.25C5.78 101.313 6.52 103 7.045 103C7.57 103 8 103.675 8 104.5C8 105.325 8.42 106 8.933 106C9.446 106 10.183 107.012 10.572 108.25C10.961 109.487 12.791 111.932 14.639 113.683C16.488 115.433 18 117.246 18 117.711C18 118.606 21.631 122 22.588 122C22.899 122 24.504 123.35 26.154 125C27.804 126.65 29.794 128 30.577 128C31.36 128 32 128.45 32 129C32 129.55 32.675 130 33.5 130C34.325 130 35 130.414 35 130.921C35 131.427 36.35 132.138 38 132.5C39.65 132.862 41 133.558 41 134.045C41 134.532 43.25 135.23 46 135.594C48.75 135.959 51 136.65 51 137.129C51 137.608 52.575 138 54.5 138C56.425 138 58 138.45 58 139C58 139.606 62.314 140 68.941 140C75.156 140 80.149 139.568 80.5 139C80.84 138.45 82.891 138 85.059 138C87.227 138 89 137.578 89 137.061C89 136.545 91.025 135.819 93.5 135.448C95.975 135.077 98 134.41 98 133.966C98 133.522 99.349 132.863 100.999 132.5C102.648 132.138 104.561 131.042 105.249 130.064C105.937 129.087 107.512 127.967 108.75 127.576C109.988 127.185 111 126.494 111 126.041C111 125.588 112.125 124.934 113.5 124.589C114.875 124.244 116 123.555 116 123.058C116 121.882 121.882 116 123.058 116C123.555 116 124.244 114.875 124.589 113.5C124.934 112.125 125.588 111 126.041 111C126.494 111 127.165 110.056 127.531 108.901C127.898 107.747 129.067 105.933 130.13 104.87C131.193 103.807 132.33 101.602 132.656 99.969C132.983 98.336 133.628 97 134.091 97C134.553 97 135.23 94.75 135.594 92C135.959 89.25 136.65 87 137.129 87C137.608 87 138 85.2 138 83C138 80.8 138.45 79 139 79C139.593 79 140 75.333 140 70C140 64.667 139.593 61 139 61C138.45 61 138 59.2 138 57C138 54.8 137.613 53 137.139 53C136.666 53 136.003 50.671 135.666 47.825C135.329 44.979 134.648 42.392 134.152 42.075C133.657 41.759 132.938 40.058 132.556 38.295C132.148 36.412 131.065 34.838 129.931 34.478C128.869 34.141 128 32.981 128 31.901C128 30.821 127.325 29.678 126.5 29.362C125.675 29.045 125 28.184 125 27.449C125 25.706 112.294 13 110.551 13C109.816 13 108.955 12.325 108.638 11.5C108.322 10.675 107.374 10 106.531 10C105.689 10 105 9.55 105 9C105 8.45 104.1 8 103 8C101.9 8 101 7.586 101 7.079C101 6.573 99.537 5.846 97.75 5.464C95.963 5.082 93.985 4.355 93.356 3.85C92.727 3.344 89.914 2.659 87.106 2.326C84.298 1.994 82 1.334 82 0.861C82 0.387 76.15 0 69 0C61.85 0 56 0.387 56 0.861ZM67 70V134H62.5C60.025 134 58 133.602 58 133.115C58 132.629 55.525 131.921 52.5 131.543C49.475 131.165 47 130.496 47 130.056C47 129.616 45.249 128.976 43.109 128.633C40.969 128.291 38.971 127.368 38.67 126.581C38.368 125.795 36.509 124.386 34.539 123.452C30.287 121.434 17 108.566 17 106.466C17 105.66 16.549 105 15.997 105C15.445 105 14.214 103.2 13.261 101C12.308 98.8 11.205 97 10.809 97C10.414 97 9.78 95.313 9.401 93.25C9.022 91.188 8.27 89.214 7.73 88.863C7.191 88.513 6.519 85.015 6.238 81.088C5.958 77.162 5.339 73.709 4.864 73.416C3.742 72.723 3.735 66 4.856 66C5.326 66 5.972 62.557 6.29 58.35C6.608 54.142 7.307 50.428 7.842 50.097C8.378 49.766 9.133 47.809 9.52 45.748C9.906 43.686 10.623 42 11.111 42C11.6 42 12 41.325 12 40.5C12 39.675 12.401 39 12.892 39C13.382 39 14.066 37.875 14.411 36.5C14.756 35.125 15.48 34 16.019 34C16.559 34 17 33.514 17 32.919C17 31.51 31.51 17 32.919 17C33.514 17 34 16.559 34 16.019C34 15.48 35.125 14.756 36.5 14.411C37.875 14.066 39 13.418 39 12.971C39 12.524 40.345 11.864 41.989 11.503C43.632 11.142 45.234 10.431 45.548 9.923C45.861 9.415 46.991 9 48.059 9C49.127 9 50 8.577 50 8.06C50 7.086 54.071 6.458 62.25 6.168L67 6V70ZM134 75.5C134 77.975 133.602 80 133.115 80C132.629 80 131.921 82.475 131.543 85.5C131.165 88.525 130.496 91 130.056 91C129.616 91 128.968 92.8 128.616 95C128.264 97.2 127.532 99 126.988 99C126.445 99 126 99.675 126 100.5C126 101.325 125.58 102 125.067 102C124.554 102 123.827 102.97 123.45 104.156C123.074 105.342 121.694 107.306 120.383 108.521C119.072 109.735 118 111.05 118 111.442C118 112.369 112.369 118 111.442 118C111.05 118 109.735 119.072 108.521 120.383C107.306 121.694 105.342 123.074 104.156 123.45C102.97 123.827 102 124.554 102 125.067C102 125.58 101.325 126 100.5 126C99.675 126 99 126.414 99 126.921C99 127.427 97.537 128.158 95.75 128.546C93.963 128.934 92.241 129.657 91.925 130.152C91.608 130.648 89.021 131.329 86.175 131.666C83.329 132.003 81 132.666 81 133.139C81 133.613 78.75 134 76 134H71V102.5V71H102.5H134V75.5Z" fill="black"/>
<path fill-rule="evenodd" clip-rule="evenodd" d="M56 0.861C56 1.334 53.671 1.997 50.825 2.334C47.979 2.671 45.392 3.344 45.075 3.829C44.759 4.315 42.813 5.022 40.75 5.401C38.688 5.78 37 6.468 37 6.929C37 7.39 36.213 8.031 35.25 8.354C33.149 9.06 30.327 10.87 27.615 13.251C26.518 14.214 24.243 15.948 22.56 17.105C20.877 18.261 17.928 21.298 16.006 23.854C14.085 26.409 12.233 28.725 11.891 29C11.549 29.275 10.954 30.512 10.567 31.75C10.181 32.987 9.446 34 8.933 34C8.42 34 8 34.675 8 35.5C8 36.325 7.586 37 7.079 37C6.573 37 5.856 38.38 5.485 40.067C5.115 41.754 4.182 44.342 3.412 45.817C2.642 47.293 2.01 49.737 2.006 51.25C2.003 52.763 1.55 54 1 54C0.376 54 0 59.833 0 69.5C0 78.025 0.391001 85 0.870001 85C1.348 85 1.974 87.081 2.261 89.624C2.548 92.167 3.216 94.529 3.747 94.874C4.277 95.218 5.022 97.188 5.401 99.25C5.78 101.313 6.52 103 7.045 103C7.57 103 8 103.675 8 104.5C8 105.325 8.42 106 8.933 106C9.446 106 10.183 107.012 10.572 108.25C10.961 109.487 12.791 111.932 14.639 113.683C16.488 115.433 18 117.246 18 117.711C18 118.606 21.631 122 22.588 122C22.899 122 24.504 123.35 26.154 125C27.804 126.65 29.794 128 30.577 128C31.36 128 32 128.45 32 129C32 129.55 32.675 130 33.5 130C34.325 130 35 130.414 35 130.921C35 131.427 36.35 132.138 38 132.5C39.65 132.862 41 133.558 41 134.045C41 134.532 43.25 135.23 46 135.594C48.75 135.959 51 136.65 51 137.129C51 137.608 52.575 138 54.5 138C56.425 138 58 138.45 58 139C58 139.606 62.314 140 68.941 140C75.156 140 80.149 139.568 80.5 139C80.84 138.45 82.891 138 85.059 138C87.227 138 89 137.578 89 137.061C89 136.545 91.025 135.819 93.5 135.448C95.975 135.077 98 134.41 98 133.966C98 133.522 99.349 132.863 100.999 132.5C102.648 132.138 104.561 131.042 105.249 130.064C105.937 129.087 107.512 127.967 108.75 127.576C109.988 127.185 111 126.494 111 126.041C111 125.588 112.125 124.934 113.5 124.589C114.875 124.244 116 123.555 116 123.058C116 121.882 121.882 116 123.058 116C123.555 116 124.244 114.875 124.589 113.5C124.934 112.125 125.588 111 126.041 111C126.494 111 127.165 110.056 127.531 108.901C127.898 107.747 129.067 105.933 130.13 104.87C131.193 103.807 132.33 101.602 132.656 99.969C132.983 98.336 133.628 97 134.091 97C134.553 97 135.23 94.75 135.594 92C135.959 89.25 136.65 87 137.129 87C137.608 87 138 85.2 138 83C138 80.8 138.45 79 139 79C139.593 79 140 75.333 140 70C140 64.667 139.593 61 139 61C138.45 61 138 59.2 138 57C138 54.8 137.613 53 137.139 53C136.666 53 136.003 50.671 135.666 47.825C135.329 44.979 134.648 42.392 134.152 42.075C133.657 41.759 132.938 40.058 132.556 38.295C132.148 36.412 131.065 34.838 129.931 34.478C128.869 34.141 128 32.981 128 31.901C128 30.821 127.325 29.678 126.5 29.362C125.675 29.045 125 28.184 125 27.449C125 25.706 112.294 13 110.551 13C109.816 13 108.955 12.325 108.638 11.5C108.322 10.675 107.374 10 106.531 10C105.689 10 105 9.55 105 9C105 8.45 104.1 8 103 8C101.9 8 101 7.586 101 7.079C101 6.573 99.537 5.846 97.75 5.464C95.963 5.082 93.985 4.355 93.356 3.85C92.727 3.344 89.914 2.659 87.106 2.326C84.298 1.994 82 1.334 82 0.861C82 0.387 76.15 0 69 0C61.85 0 56 0.387 56 0.861ZM67 70V134H62.5C60.025 134 58 133.602 58 133.115C58 132.629 55.525 131.921 52.5 131.543C49.475 131.165 47 130.496 47 130.056C47 129.616 45.249 128.976 43.109 128.633C40.969 128.291 38.971 127.368 38.67 126.581C38.368 125.795 36.509 124.386 34.539 123.452C30.287 121.434 17 108.566 17 106.466C17 105.66 16.549 105 15.997 105C15.445 105 14.214 103.2 13.261 101C12.308 98.8 11.205 97 10.809 97C10.414 97 9.78 95.313 9.401 93.25C9.022 91.188 8.27 89.214 7.73 88.863C7.191 88.513 6.519 85.015 6.238 81.088C5.958 77.162 5.339 73.709 4.864 73.416C3.742 72.723 3.735 66 4.856 66C5.326 66 5.972 62.557 6.29 58.35C6.608 54.142 7.307 50.428 7.842 50.097C8.378 49.766 9.133 47.809 9.52 45.748C9.906 43.686 10.623 42 11.111 42C11.6 42 12 41.325 12 40.5C12 39.675 12.401 39 12.892 39C13.382 39 14.066 37.875 14.411 36.5C14.756 35.125 15.48 34 16.019 34C16.559 34 17 33.514 17 32.919C17 31.51 31.51 17 32.919 17C33.514 17 34 16.559 34 16.019C34 15.48 35.125 14.756 36.5 14.411C37.875 14.066 39 13.418 39 12.971C39 12.524 40.345 11.864 41.989 11.503C43.632 11.142 45.234 10.431 45.548 9.923C45.861 9.415 46.991 9 48.059 9C49.127 9 50 8.577 50 8.06C50 7.086 54.071 6.458 62.25 6.168L67 6V70ZM134 75.5C134 77.975 133.602 80 133.115 80C132.629 80 131.921 82.475 131.543 85.5C131.165 88.525 130.496 91 130.056 91C129.616 91 128.968 92.8 128.616 95C128.264 97.2 127.532 99 126.988 99C126.445 99 126 99.675 126 100.5C126 101.325 125.58 102 125.067 102C124.554 102 123.827 102.97 123.45 104.156C123.074 105.342 121.694 107.306 120.383 108.521C119.072 109.735 118 111.05 118 111.442C118 112.369 112.369 118 111.442 118C111.05 118 109.735 119.072 108.521 120.383C107.306 121.694 105.342 123.074 104.156 123.45C102.97 123.827 102 124.554 102 125.067C102 125.58 101.325 126 100.5 126C99.675 126 99 126.414 99 126.921C99 127.427 97.537 128.158 95.75 128.546C93.963 128.934 92.241 129.657 91.925 130.152C91.608 130.648 89.021 131.329 86.175 131.666C83.329 132.003 81 132.666 81 133.139C81 133.613 78.75 134 76 134H71V102.5V71H102.5H134V75.5Z" fill="black"/>
<path fill-rule="evenodd" clip-rule="evenodd" d="M56 0.861C56 1.334 53.671 1.997 50.825 2.334C47.979 2.671 45.392 3.344 45.075 3.829C44.759 4.315 42.813 5.022 40.75 5.401C38.688 5.78 37 6.468 37 6.929C37 7.39 36.213 8.031 35.25 8.354C33.149 9.06 30.327 10.87 27.615 13.251C26.518 14.214 24.243 15.948 22.56 17.105C20.877 18.261 17.928 21.298 16.006 23.854C14.085 26.409 12.233 28.725 11.891 29C11.549 29.275 10.954 30.512 10.567 31.75C10.181 32.987 9.446 34 8.933 34C8.42 34 8 34.675 8 35.5C8 36.325 7.586 37 7.079 37C6.573 37 5.856 38.38 5.485 40.067C5.115 41.754 4.182 44.342 3.412 45.817C2.642 47.293 2.01 49.737 2.006 51.25C2.003 52.763 1.55 54 1 54C0.376 54 0 59.833 0 69.5C0 78.025 0.391001 85 0.870001 85C1.348 85 1.974 87.081 2.261 89.624C2.548 92.167 3.216 94.529 3.747 94.874C4.277 95.218 5.022 97.188 5.401 99.25C5.78 101.313 6.52 103 7.045 103C7.57 103 8 103.675 8 104.5C8 105.325 8.42 106 8.933 106C9.446 106 10.183 107.012 10.572 108.25C10.961 109.487 12.791 111.932 14.639 113.683C16.488 115.433 18 117.246 18 117.711C18 118.606 21.631 122 22.588 122C22.899 122 24.504 123.35 26.154 125C27.804 126.65 29.794 128 30.577 128C31.36 128 32 128.45 32 129C32 129.55 32.675 130 33.5 130C34.325 130 35 130.414 35 130.921C35 131.427 36.35 132.138 38 132.5C39.65 132.862 41 133.558 41 134.045C41 134.532 43.25 135.23 46 135.594C48.75 135.959 51 136.65 51 137.129C51 137.608 52.575 138 54.5 138C56.425 138 58 138.45 58 139C58 139.606 62.314 140 68.941 140C75.156 140 80.149 139.568 80.5 139C80.84 138.45 82.891 138 85.059 138C87.227 138 89 137.578 89 137.061C89 136.545 91.025 135.819 93.5 135.448C95.975 135.077 98 134.41 98 133.966C98 133.522 99.349 132.863 100.999 132.5C102.648 132.138 104.561 131.042 105.249 130.064C105.937 129.087 107.512 127.967 108.75 127.576C109.988 127.185 111 126.494 111 126.041C111 125.588 112.125 124.934 113.5 124.589C114.875 124.244 116 123.555 116 123.058C116 121.882 121.882 116 123.058 116C123.555 116 124.244 114.875 124.589 113.5C124.934 112.125 125.588 111 126.041 111C126.494 111 127.165 110.056 127.531 108.901C127.898 107.747 129.067 105.933 130.13 104.87C131.193 103.807 132.33 101.602 132.656 99.969C132.983 98.336 133.628 97 134.091 97C134.553 97 135.23 94.75 135.594 92C135.959 89.25 136.65 87 137.129 87C137.608 87 138 85.2 138 83C138 80.8 138.45 79 139 79C139.593 79 140 75.333 140 70C140 64.667 139.593 61 139 61C138.45 61 138 59.2 138 57C138 54.8 137.613 53 137.139 53C136.666 53 136.003 50.671 135.666 47.825C135.329 44.979 134.648 42.392 134.152 42.075C133.657 41.759 132.938 40.058 132.556 38.295C132.148 36.412 131.065 34.838 129.931 34.478C128.869 34.141 128 32.981 128 31.901C128 30.821 127.325 29.678 126.5 29.362C125.675 29.045 125 28.184 125 27.449C125 25.706 112.294 13 110.551 13C109.816 13 108.955 12.325 108.638 11.5C108.322 10.675 107.374 10 106.531 10C105.689 10 105 9.55 105 9C105 8.45 104.1 8 103 8C101.9 8 101 7.586 101 7.079C101 6.573 99.537 5.846 97.75 5.464C95.963 5.082 93.985 4.355 93.356 3.85C92.727 3.344 89.914 2.659 87.106 2.326C84.298 1.994 82 1.334 82 0.861C82 0.387 76.15 0 69 0C61.85 0 56 0.387 56 0.861ZM67 70V134H62.5C60.025 134 58 133.602 58 133.115C58 132.629 55.525 131.921 52.5 131.543C49.475 131.165 47 130.496 47 130.056C47 129.616 45.249 128.976 43.109 128.633C40.969 128.291 38.971 127.368 38.67 126.581C38.368 125.795 36.509 124.386 34.539 123.452C30.287 121.434 17 108.566 17 106.466C17 105.66 16.549 105 15.997 105C15.445 105 14.214 103.2 13.261 101C12.308 98.8 11.205 97 10.809 97C10.414 97 9.78 95.313 9.401 93.25C9.022 91.188 8.27 89.214 7.73 88.863C7.191 88.513 6.519 85.015 6.238 81.088C5.958 77.162 5.339 73.709 4.864 73.416C3.742 72.723 3.735 66 4.856 66C5.326 66 5.972 62.557 6.29 58.35C6.608 54.142 7.307 50.428 7.842 50.097C8.378 49.766 9.133 47.809 9.52 45.748C9.906 43.686 10.623 42 11.111 42C11.6 42 12 41.325 12 40.5C12 39.675 12.401 39 12.892 39C13.382 39 14.066 37.875 14.411 36.5C14.756 35.125 15.48 34 16.019 34C16.559 34 17 33.514 17 32.919C17 31.51 31.51 17 32.919 17C33.514 17 34 16.559 34 16.019C34 15.48 35.125 14.756 36.5 14.411C37.875 14.066 39 13.418 39 12.971C39 12.524 40.345 11.864 41.989 11.503C43.632 11.142 45.234 10.431 45.548 9.923C45.861 9.415 46.991 9 48.059 9C49.127 9 50 8.577 50 8.06C50 7.086 54.071 6.458 62.25 6.168L67 6V70ZM134 75.5C134 77.975 133.602 80 133.115 80C132.629 80 131.921 82.475 131.543 85.5C131.165 88.525 130.496 91 130.056 91C129.616 91 128.968 92.8 128.616 95C128.264 97.2 127.532 99 126.988 99C126.445 99 126 99.675 126 100.5C126 101.325 125.58 102 125.067 102C124.554 102 123.827 102.97 123.45 104.156C123.074 105.342 121.694 107.306 120.383 108.521C119.072 109.735 118 111.05 118 111.442C118 112.369 112.369 118 111.442 118C111.05 118 109.735 119.072 108.521 120.383C107.306 121.694 105.342 123.074 104.156 123.45C102.97 123.827 102 124.554 102 125.067C102 125.58 101.325 126 100.5 126C99.675 126 99 126.414 99 126.921C99 127.427 97.537 128.158 95.75 128.546C93.963 128.934 92.241 129.657 91.925 130.152C91.608 130.648 89.021 131.329 86.175 131.666C83.329 132.003 81 132.666 81 133.139C81 133.613 78.75 134 76 134H71V102.5V71H102.5H134V75.5Z" fill="black"/>
<path fill-rule="evenodd" clip-rule="evenodd" d="M56 0.861C56 1.334 53.671 1.997 50.825 2.334C47.979 2.671 45.392 3.344 45.075 3.829C44.759 4.315 42.813 5.022 40.75 5.401C38.688 5.78 37 6.468 37 6.929C37 7.39 36.213 8.031 35.25 8.354C33.149 9.06 30.327 10.87 27.615 13.251C26.518 14.214 24.243 15.948 22.56 17.105C20.877 18.261 17.928 21.298 16.006 23.854C14.085 26.409 12.233 28.725 11.891 29C11.549 29.275 10.954 30.512 10.567 31.75C10.181 32.987 9.446 34 8.933 34C8.42 34 8 34.675 8 35.5C8 36.325 7.586 37 7.079 37C6.573 37 5.856 38.38 5.485 40.067C5.115 41.754 4.182 44.342 3.412 45.817C2.642 47.293 2.01 49.737 2.006 51.25C2.003 52.763 1.55 54 1 54C0.376 54 0 59.833 0 69.5C0 78.025 0.391001 85 0.870001 85C1.348 85 1.974 87.081 2.261 89.624C2.548 92.167 3.216 94.529 3.747 94.874C4.277 95.218 5.022 97.188 5.401 99.25C5.78 101.313 6.52 103 7.045 103C7.57 103 8 103.675 8 104.5C8 105.325 8.42 106 8.933 106C9.446 106 10.183 107.012 10.572 108.25C10.961 109.487 12.791 111.932 14.639 113.683C16.488 115.433 18 117.246 18 117.711C18 118.606 21.631 122 22.588 122C22.899 122 24.504 123.35 26.154 125C27.804 126.65 29.794 128 30.577 128C31.36 128 32 128.45 32 129C32 129.55 32.675 130 33.5 130C34.325 130 35 130.414 35 130.921C35 131.427 36.35 132.138 38 132.5C39.65 132.862 41 133.558 41 134.045C41 134.532 43.25 135.23 46 135.594C48.75 135.959 51 136.65 51 137.129C51 137.608 52.575 138 54.5 138C56.425 138 58 138.45 58 139C58 139.606 62.314 140 68.941 140C75.156 140 80.149 139.568 80.5 139C80.84 138.45 82.891 138 85.059 138C87.227 138 89 137.578 89 137.061C89 136.545 91.025 135.819 93.5 135.448C95.975 135.077 98 134.41 98 133.966C98 133.522 99.349 132.863 100.999 132.5C102.648 132.138 104.561 131.042 105.249 130.064C105.937 129.087 107.512 127.967 108.75 127.576C109.988 127.185 111 126.494 111 126.041C111 125.588 112.125 124.934 113.5 124.589C114.875 124.244 116 123.555 116 123.058C116 121.882 121.882 116 123.058 116C123.555 116 124.244 114.875 124.589 113.5C124.934 112.125 125.588 111 126.041 111C126.494 111 127.165 110.056 127.531 108.901C127.898 107.747 129.067 105.933 130.13 104.87C131.193 103.807 132.33 101.602 132.656 99.969C132.983 98.336 133.628 97 134.091 97C134.553 97 135.23 94.75 135.594 92C135.959 89.25 136.65 87 137.129 87C137.608 87 138 85.2 138 83C138 80.8 138.45 79 139 79C139.593 79 140 75.333 140 70C140 64.667 139.593 61 139 61C138.45 61 138 59.2 138 57C138 54.8 137.613 53 137.139 53C136.666 53 136.003 50.671 135.666 47.825C135.329 44.979 134.648 42.392 134.152 42.075C133.657 41.759 132.938 40.058 132.556 38.295C132.148 36.412 131.065 34.838 129.931 34.478C128.869 34.141 128 32.981 128 31.901C128 30.821 127.325 29.678 126.5 29.362C125.675 29.045 125 28.184 125 27.449C125 25.706 112.294 13 110.551 13C109.816 13 108.955 12.325 108.638 11.5C108.322 10.675 107.374 10 106.531 10C105.689 10 105 9.55 105 9C105 8.45 104.1 8 103 8C101.9 8 101 7.586 101 7.079C101 6.573 99.537 5.846 97.75 5.464C95.963 5.082 93.985 4.355 93.356 3.85C92.727 3.344 89.914 2.659 87.106 2.326C84.298 1.994 82 1.334 82 0.861C82 0.387 76.15 0 69 0C61.85 0 56 0.387 56 0.861ZM67 70V134H62.5C60.025 134 58 133.602 58 133.115C58 132.629 55.525 131.921 52.5 131.543C49.475 131.165 47 130.496 47 130.056C47 129.616 45.249 128.976 43.109 128.633C40.969 128.291 38.971 127.368 38.67 126.581C38.368 125.795 36.509 124.386 34.539 123.452C30.287 121.434 17 108.566 17 106.466C17 105.66 16.549 105 15.997 105C15.445 105 14.214 103.2 13.261 101C12.308 98.8 11.205 97 10.809 97C10.414 97 9.78 95.313 9.401 93.25C9.022 91.188 8.27 89.214 7.73 88.863C7.191 88.513 6.519 85.015 6.238 81.088C5.958 77.162 5.339 73.709 4.864 73.416C3.742 72.723 3.735 66 4.856 66C5.326 66 5.972 62.557 6.29 58.35C6.608 54.142 7.307 50.428 7.842 50.097C8.378 49.766 9.133 47.809 9.52 45.748C9.906 43.686 10.623 42 11.111 42C11.6 42 12 41.325 12 40.5C12 39.675 12.401 39 12.892 39C13.382 39 14.066 37.875 14.411 36.5C14.756 35.125 15.48 34 16.019 34C16.559 34 17 33.514 17 32.919C17 31.51 31.51 17 32.919 17C33.514 17 34 16.559 34 16.019C34 15.48 35.125 14.756 36.5 14.411C37.875 14.066 39 13.418 39 12.971C39 12.524 40.345 11.864 41.989 11.503C43.632 11.142 45.234 10.431 45.548 9.923C45.861 9.415 46.991 9 48.059 9C49.127 9 50 8.577 50 8.06C50 7.086 54.071 6.458 62.25 6.168L67 6V70ZM134 75.5C134 77.975 133.602 80 133.115 80C132.629 80 131.921 82.475 131.543 85.5C131.165 88.525 130.496 91 130.056 91C129.616 91 128.968 92.8 128.616 95C128.264 97.2 127.532 99 126.988 99C126.445 99 126 99.675 126 100.5C126 101.325 125.58 102 125.067 102C124.554 102 123.827 102.97 123.45 104.156C123.074 105.342 121.694 107.306 120.383 108.521C119.072 109.735 118 111.05 118 111.442C118 112.369 112.369 118 111.442 118C111.05 118 109.735 119.072 108.521 120.383C107.306 121.694 105.342 123.074 104.156 123.45C102.97 123.827 102 124.554 102 125.067C102 125.58 101.325 126 100.5 126C99.675 126 99 126.414 99 126.921C99 127.427 97.537 128.158 95.75 128.546C93.963 128.934 92.241 129.657 91.925 130.152C91.608 130.648 89.021 131.329 86.175 131.666C83.329 132.003 81 132.666 81 133.139C81 133.613 78.75 134 76 134H71V102.5V71H102.5H134V75.5Z" fill="black"/>
<path fill-rule="evenodd" clip-rule="evenodd" d="M56 0.861C56 1.334 53.671 1.997 50.825 2.334C47.979 2.671 45.392 3.344 45.075 3.829C44.759 4.315 42.813 5.022 40.75 5.401C38.688 5.78 37 6.468 37 6.929C37 7.39 36.213 8.031 35.25 8.354C33.149 9.06 30.327 10.87 27.615 13.251C26.518 14.214 24.243 15.948 22.56 17.105C20.877 18.261 17.928 21.298 16.006 23.854C14.085 26.409 12.233 28.725 11.891 29C11.549 29.275 10.954 30.512 10.567 31.75C10.181 32.987 9.446 34 8.933 34C8.42 34 8 34.675 8 35.5C8 36.325 7.586 37 7.079 37C6.573 37 5.856 38.38 5.485 40.067C5.115 41.754 4.182 44.342 3.412 45.817C2.642 47.293 2.01 49.737 2.006 51.25C2.003 52.763 1.55 54 1 54C0.376 54 0 59.833 0 69.5C0 78.025 0.391001 85 0.870001 85C1.348 85 1.974 87.081 2.261 89.624C2.548 92.167 3.216 94.529 3.747 94.874C4.277 95.218 5.022 97.188 5.401 99.25C5.78 101.313 6.52 103 7.045 103C7.57 103 8 103.675 8 104.5C8 105.325 8.42 106 8.933 106C9.446 106 10.183 107.012 10.572 108.25C10.961 109.487 12.791 111.932 14.639 113.683C16.488 115.433 18 117.246 18 117.711C18 118.606 21.631 122 22.588 122C22.899 122 24.504 123.35 26.154 125C27.804 126.65 29.794 128 30.577 128C31.36 128 32 128.45 32 129C32 129.55 32.675 130 33.5 130C34.325 130 35 130.414 35 130.921C35 131.427 36.35 132.138 38 132.5C39.65 132.862 41 133.558 41 134.045C41 134.532 43.25 135.23 46 135.594C48.75 135.959 51 136.65 51 137.129C51 137.608 52.575 138 54.5 138C56.425 138 58 138.45 58 139C58 139.606 62.314 140 68.941 140C75.156 140 80.149 139.568 80.5 139C80.84 138.45 82.891 138 85.059 138C87.227 138 89 137.578 89 137.061C89 136.545 91.025 135.819 93.5 135.448C95.975 135.077 98 134.41 98 133.966C98 133.522 99.349 132.863 100.999 132.5C102.648 132.138 104.561 131.042 105.249 130.064C105.937 129.087 107.512 127.967 108.75 127.576C109.988 127.185 111 126.494 111 126.041C111 125.588 112.125 124.934 113.5 124.589C114.875 124.244 116 123.555 116 123.058C116 121.882 121.882 116 123.058 116C123.555 116 124.244 114.875 124.589 113.5C124.934 112.125 125.588 111 126.041 111C126.494 111 127.165 110.056 127.531 108.901C127.898 107.747 129.067 105.933 130.13 104.87C131.193 103.807 132.33 101.602 132.656 99.969C132.983 98.336 133.628 97 134.091 97C134.553 97 135.23 94.75 135.594 92C135.959 89.25 136.65 87 137.129 87C137.608 87 138 85.2 138 83C138 80.8 138.45 79 139 79C139.593 79 140 75.333 140 70C140 64.667 139.593 61 139 61C138.45 61 138 59.2 138 57C138 54.8 137.613 53 137.139 53C136.666 53 136.003 50.671 135.666 47.825C135.329 44.979 134.648 42.392 134.152 42.075C133.657 41.759 132.938 40.058 132.556 38.295C132.148 36.412 131.065 34.838 129.931 34.478C128.869 34.141 128 32.981 128 31.901C128 30.821 127.325 29.678 126.5 29.362C125.675 29.045 125 28.184 125 27.449C125 25.706 112.294 13 110.551 13C109.816 13 108.955 12.325 108.638 11.5C108.322 10.675 107.374 10 106.531 10C105.689 10 105 9.55 105 9C105 8.45 104.1 8 103 8C101.9 8 101 7.586 101 7.079C101 6.573 99.537 5.846 97.75 5.464C95.963 5.082 93.985 4.355 93.356 3.85C92.727 3.344 89.914 2.659 87.106 2.326C84.298 1.994 82 1.334 82 0.861C82 0.387 76.15 0 69 0C61.85 0 56 0.387 56 0.861ZM67 70V134H62.5C60.025 134 58 133.602 58 133.115C58 132.629 55.525 131.921 52.5 131.543C49.475 131.165 47 130.496 47 130.056C47 129.616 45.249 128.976 43.109 128.633C40.969 128.291 38.971 127.368 38.67 126.581C38.368 125.795 36.509 124.386 34.539 123.452C30.287 121.434 17 108.566 17 106.466C17 105.66 16.549 105 15.997 105C15.445 105 14.214 103.2 13.261 101C12.308 98.8 11.205 97 10.809 97C10.414 97 9.78 95.313 9.401 93.25C9.022 91.188 8.27 89.214 7.73 88.863C7.191 88.513 6.519 85.015 6.238 81.088C5.958 77.162 5.339 73.709 4.864 73.416C3.742 72.723 3.735 66 4.856 66C5.326 66 5.972 62.557 6.29 58.35C6.608 54.142 7.307 50.428 7.842 50.097C8.378 49.766 9.133 47.809 9.52 45.748C9.906 43.686 10.623 42 11.111 42C11.6 42 12 41.325 12 40.5C12 39.675 12.401 39 12.892 39C13.382 39 14.066 37.875 14.411 36.5C14.756 35.125 15.48 34 16.019 34C16.559 34 17 33.514 17 32.919C17 31.51 31.51 17 32.919 17C33.514 17 34 16.559 34 16.019C34 15.48 35.125 14.756 36.5 14.411C37.875 14.066 39 13.418 39 12.971C39 12.524 40.345 11.864 41.989 11.503C43.632 11.142 45.234 10.431 45.548 9.923C45.861 9.415 46.991 9 48.059 9C49.127 9 50 8.577 50 8.06C50 7.086 54.071 6.458 62.25 6.168L67 6V70ZM134 75.5C134 77.975 133.602 80 133.115 80C132.629 80 131.921 82.475 131.543 85.5C131.165 88.525 130.496 91 130.056 91C129.616 91 128.968 92.8 128.616 95C128.264 97.2 127.532 99 126.988 99C126.445 99 126 99.675 126 100.5C126 101.325 125.58 102 125.067 102C124.554 102 123.827 102.97 123.45 104.156C123.074 105.342 121.694 107.306 120.383 108.521C119.072 109.735 118 111.05 118 111.442C118 112.369 112.369 118 111.442 118C111.05 118 109.735 119.072 108.521 120.383C107.306 121.694 105.342 123.074 104.156 123.45C102.97 123.827 102 124.554 102 125.067C102 125.58 101.325 126 100.5 126C99.675 126 99 126.414 99 126.921C99 127.427 97.537 128.158 95.75 128.546C93.963 128.934 92.241 129.657 91.925 130.152C91.608 130.648 89.021 131.329 86.175 131.666C83.329 132.003 81 132.666 81 133.139C81 133.613 78.75 134 76 134H71V102.5V71H102.5H134V75.5Z" fill="black"/>
</svg>
