<svg width="16" height="32" viewBox="0 0 16 32" fill="none" xmlns="http://www.w3.org/2000/svg">
<path d="M10.1365 15.0885L7.95149 31.5152L5.75998 15.0885C6.46989 15.3074 7.20861 15.4185 7.95149 15.4182C8.69229 15.4189 9.42895 15.3078 10.1365 15.0885Z" fill="#B4EDFF"/>
<path d="M7.9515 32C7.83447 31.9995 7.72158 31.9567 7.63366 31.8794C7.54574 31.8022 7.48871 31.6958 7.47311 31.5798L5.2816 15.1467C5.27283 15.0663 5.28353 14.985 5.31278 14.9096C5.34203 14.8342 5.38898 14.767 5.44968 14.7135C5.51263 14.6615 5.58757 14.626 5.66771 14.6101C5.74785 14.5943 5.83067 14.5988 5.90867 14.623C7.24009 15.0304 8.6629 15.0304 9.99432 14.623C10.0723 14.5988 10.1551 14.5943 10.2353 14.6101C10.3154 14.626 10.3904 14.6615 10.4533 14.7135C10.514 14.767 10.561 14.8342 10.5902 14.9096C10.6195 14.985 10.6302 15.0663 10.6214 15.1467L8.42988 31.5798C8.41428 31.6958 8.35725 31.8022 8.26933 31.8794C8.18141 31.9567 8.06852 31.9995 7.9515 32V32ZM6.33533 15.735L7.9515 27.8432L9.56766 15.735C8.50152 15.9557 7.40147 15.9557 6.33533 15.735Z" fill="#556065"/>
<path d="M7.95153 15.4182C12.0753 15.4182 15.4182 12.0752 15.4182 7.95152C15.4182 3.82779 12.0753 0.484848 7.95153 0.484848C3.8278 0.484848 0.484863 3.82779 0.484863 7.95152C0.484863 12.0752 3.8278 15.4182 7.95153 15.4182Z" fill="#B4EDFF"/>
<path d="M3.3875 7.9192H3.32932C3.2016 7.90459 3.0849 7.83987 3.00489 7.73925C2.92488 7.63863 2.88811 7.51036 2.90265 7.38263C3.02579 6.28893 3.49984 5.26453 4.25383 4.46276C5.00782 3.66099 6.0012 3.12498 7.08528 2.93495C7.1481 2.92392 7.21248 2.92536 7.27474 2.93921C7.33701 2.95305 7.39593 2.97902 7.44816 3.01564C7.50039 3.05226 7.54489 3.09881 7.57912 3.15262C7.61336 3.20644 7.63666 3.26647 7.6477 3.3293C7.65874 3.39212 7.65729 3.4565 7.64345 3.51876C7.6296 3.58103 7.60363 3.63995 7.56701 3.69218C7.53039 3.74441 7.48385 3.78891 7.43003 3.82315C7.37621 3.85738 7.31618 3.88069 7.25336 3.89172C6.37645 4.04503 5.57267 4.47794 4.96212 5.12578C4.35156 5.77362 3.967 6.60161 3.86588 7.48606C3.85319 7.60439 3.79743 7.71391 3.70922 7.79378C3.621 7.87365 3.5065 7.91829 3.3875 7.9192V7.9192Z" fill="#556065"/>
<path d="M7.95152 15.903C6.37886 15.903 4.84151 15.4367 3.53389 14.563C2.22627 13.6892 1.20711 12.4474 0.605277 10.9944C0.00344525 9.54148 -0.154021 7.9427 0.15279 6.40026C0.459601 4.85781 1.21691 3.44099 2.32895 2.32895C3.44099 1.21691 4.85781 0.459601 6.40025 0.15279C7.9427 -0.154021 9.54148 0.00344525 10.9944 0.605277C12.4474 1.20711 13.6892 2.22627 14.563 3.53389C15.4367 4.84151 15.903 6.37886 15.903 7.95152C15.8996 10.0593 15.0608 12.0799 13.5703 13.5703C12.0799 15.0608 10.0593 15.8996 7.95152 15.903V15.903ZM7.95152 0.969701C6.57065 0.969701 5.22078 1.37918 4.07263 2.14635C2.92447 2.91352 2.0296 4.00393 1.50116 5.27969C0.972722 6.55545 0.834459 7.95926 1.10385 9.3136C1.37325 10.6679 2.0382 11.912 3.01463 12.8884C3.99105 13.8648 5.23509 14.5298 6.58943 14.7992C7.94377 15.0686 9.34758 14.9303 10.6233 14.4019C11.8991 13.8734 12.9895 12.9786 13.7567 11.8304C14.5239 10.6823 14.9333 9.33239 14.9333 7.95152C14.9316 6.10035 14.1955 4.32549 12.8865 3.01652C11.5775 1.70754 9.80269 0.971412 7.95152 0.969701V0.969701Z" fill="#556065"/>
</svg>
